<?xml version="1.0" encoding="UTF-8" standalone="no"?>
<!DOCTYPE svg PUBLIC "-//W3C//DTD SVG 1.1//EN"
 "http://www.w3.org/Graphics/SVG/1.1/DTD/svg11.dtd">
<!-- Generated by graphviz version 2.43.0 (0)
 -->
<!-- Title: LADEL Pages: 1 -->
<svg width="166pt" height="148pt"
 viewBox="0.00 0.00 166.00 148.00" xmlns="http://www.w3.org/2000/svg" xmlns:xlink="http://www.w3.org/1999/xlink">
<g id="graph0" class="graph" transform="scale(1 1) rotate(0) translate(4 144)">
<title>LADEL</title>
<polygon fill="white" stroke="transparent" points="-4,4 -4,-144 162,-144 162,4 -4,4"/>
<g id="clust1" class="cluster">
<title>clusterdir_455f257f4be5a83bc3c7dd74d64c9b80</title>
<g id="a_clust1"><a xlink:href="dir_455f257f4be5a83bc3c7dd74d64c9b80.html" target="_top">
<polygon fill="#eeeeff" stroke="black" points="8,-8 8,-132 150,-132 150,-8 8,-8"/>
</a>
</g>
</g>
<!-- dir_455f257f4be5a83bc3c7dd74d64c9b80 -->
<g id="node1" class="node">
<title>dir_455f257f4be5a83bc3c7dd74d64c9b80</title>
<text text-anchor="middle" x="115" y="-103.5" font-family="Helvetica,sans-Serif" font-size="10.00">LADEL</text>
</g>
<!-- dir_3e0108bebbfd4102d33bcd5a6bef0bc4 -->
<g id="node2" class="node">
<title>dir_3e0108bebbfd4102d33bcd5a6bef0bc4</title>
<g id="a_node2"><a xlink:href="dir_3e0108bebbfd4102d33bcd5a6bef0bc4.html" target="_top" xlink:title="include">
<polygon fill="white" stroke="black" points="70,-52 16,-52 16,-16 70,-16 70,-52"/>
<text text-anchor="middle" x="43" y="-31.5" font-family="Helvetica,sans-Serif" font-size="10.00">include</text>
</a>
</g>
</g>
<!-- dir_c9645240015cbf90ad929dd972385805 -->
<g id="node3" class="node">
<title>dir_c9645240015cbf90ad929dd972385805</title>
<g id="a_node3"><a xlink:href="dir_c9645240015cbf90ad929dd972385805.html" target="_top" xlink:title="src">
<polygon fill="white" stroke="black" points="70,-124 16,-124 16,-88 70,-88 70,-124"/>
<text text-anchor="middle" x="43" y="-103.5" font-family="Helvetica,sans-Serif" font-size="10.00">src</text>
</a>
</g>
</g>
<!-- dir_c9645240015cbf90ad929dd972385805&#45;&gt;dir_3e0108bebbfd4102d33bcd5a6bef0bc4 -->
<g id="edge1" class="edge">
<title>dir_c9645240015cbf90ad929dd972385805&#45;&gt;dir_3e0108bebbfd4102d33bcd5a6bef0bc4</title>
<path fill="none" stroke="black" d="M43,-87.7C43,-79.98 43,-70.71 43,-62.11"/>
<polygon fill="black" stroke="black" points="46.5,-62.1 43,-52.1 39.5,-62.1 46.5,-62.1"/>
<g id="a_edge1&#45;headlabel"><a xlink:href="dir_000004_000003.html" target="_top" xlink:title="89">
<text text-anchor="middle" x="49.34" y="-63.2" font-family="Helvetica,sans-Serif" font-size="10.00">89</text>
</a>
</g>
</g>
</g>
</svg>
