<?xml version="1.0" encoding="UTF-8" standalone="no"?>
<!DOCTYPE svg PUBLIC "-//W3C//DTD SVG 1.1//EN"
 "http://www.w3.org/Graphics/SVG/1.1/DTD/svg11.dtd">
<!-- Generated by graphviz version 2.43.0 (0)
 -->
<!-- Title: ladel_rank1_update Pages: 1 -->
<svg width="435pt" height="69pt"
 viewBox="0.00 0.00 435.00 69.11" xmlns="http://www.w3.org/2000/svg" xmlns:xlink="http://www.w3.org/1999/xlink">
<g id="graph0" class="graph" transform="scale(1 1) rotate(0) translate(4 65.11)">
<title>ladel_rank1_update</title>
<polygon fill="white" stroke="transparent" points="-4,4 -4,-65.11 431,-65.11 431,4 -4,4"/>
<!-- Node1 -->
<g id="node1" class="node">
<title>Node1</title>
<g id="a_node1"><a xlink:title="Updates an &#160;factorization.">
<polygon fill="#bfbfbf" stroke="black" points="0,-21.5 0,-40.5 113,-40.5 113,-21.5 0,-21.5"/>
<text text-anchor="middle" x="56.5" y="-28.5" font-family="Helvetica,sans-Serif" font-size="10.00">ladel_rank1_update</text>
</a>
</g>
</g>
<!-- Node2 -->
<g id="node2" class="node">
<title>Node2</title>
<g id="a_node2"><a xlink:href="ladel__rank1__mod_8c.html#a21b039a6b3019677779a31f14b3d8085" target="_top" xlink:title="Adds the nonzero pattern in set to the pattern of the col of L.">
<polygon fill="white" stroke="black" points="149,-16 149,-46 298,-46 298,-16 149,-16"/>
<text text-anchor="start" x="157" y="-34" font-family="Helvetica,sans-Serif" font-size="10.00">ladel_add_nonzero_pattern</text>
<text text-anchor="middle" x="223.5" y="-23" font-family="Helvetica,sans-Serif" font-size="10.00">_to_col_of_L</text>
</a>
</g>
</g>
<!-- Node1&#45;&gt;Node2 -->
<g id="edge1" class="edge">
<title>Node1&#45;&gt;Node2</title>
<path fill="none" stroke="midnightblue" d="M113.36,-31C121.56,-31 130.15,-31 138.76,-31"/>
<polygon fill="midnightblue" stroke="midnightblue" points="138.85,-34.5 148.85,-31 138.85,-27.5 138.85,-34.5"/>
</g>
<!-- Node3 -->
<g id="node3" class="node">
<title>Node3</title>
<g id="a_node3"><a xlink:href="ladel__global_8c.html#a739147d9bee170cc3d4f1910698a0fda" target="_top" xlink:title="Fill in the fields of the given set.">
<polygon fill="white" stroke="black" points="340,-41.5 340,-60.5 421,-60.5 421,-41.5 340,-41.5"/>
<text text-anchor="middle" x="380.5" y="-48.5" font-family="Helvetica,sans-Serif" font-size="10.00">ladel_set_set</text>
</a>
</g>
</g>
<!-- Node1&#45;&gt;Node3 -->
<g id="edge4" class="edge">
<title>Node1&#45;&gt;Node3</title>
<path fill="none" stroke="midnightblue" d="M85.13,-40.62C103.08,-46.35 127.13,-53.07 149,-56 210.78,-64.29 282.69,-60.64 329.54,-56.52"/>
<polygon fill="midnightblue" stroke="midnightblue" points="330.09,-59.98 339.73,-55.58 329.45,-53.01 330.09,-59.98"/>
</g>
<!-- Node4 -->
<g id="node4" class="node">
<title>Node4</title>
<g id="a_node4"><a xlink:href="ladel__rank1__mod_8c.html#a48b2b84795a7de345e14892631b0a258" target="_top" xlink:title="Computes the set union of two index sets.">
<polygon fill="white" stroke="black" points="334,-0.5 334,-19.5 427,-19.5 427,-0.5 334,-0.5"/>
<text text-anchor="middle" x="380.5" y="-7.5" font-family="Helvetica,sans-Serif" font-size="10.00">ladel_set_union</text>
</a>
</g>
</g>
<!-- Node1&#45;&gt;Node4 -->
<g id="edge5" class="edge">
<title>Node1&#45;&gt;Node4</title>
<path fill="none" stroke="midnightblue" d="M85.13,-21.38C103.08,-15.65 127.13,-8.93 149,-6 208.19,1.94 276.69,-0.73 323.54,-4.35"/>
<polygon fill="midnightblue" stroke="midnightblue" points="323.53,-7.86 333.78,-5.18 324.1,-0.88 323.53,-7.86"/>
</g>
<!-- Node2&#45;&gt;Node3 -->
<g id="edge2" class="edge">
<title>Node2&#45;&gt;Node3</title>
<path fill="none" stroke="midnightblue" d="M298.37,-40.53C309.02,-41.91 319.76,-43.29 329.78,-44.58"/>
<polygon fill="midnightblue" stroke="midnightblue" points="329.57,-48.09 339.94,-45.89 330.47,-41.14 329.57,-48.09"/>
</g>
<!-- Node2&#45;&gt;Node4 -->
<g id="edge3" class="edge">
<title>Node2&#45;&gt;Node4</title>
<path fill="none" stroke="midnightblue" d="M298.37,-20.99C306.81,-19.85 315.31,-18.7 323.47,-17.59"/>
<polygon fill="midnightblue" stroke="midnightblue" points="324.15,-21.03 333.58,-16.22 323.21,-14.1 324.15,-21.03"/>
</g>
</g>
</svg>
