<?xml version="1.0" encoding="UTF-8" standalone="no"?>
<!DOCTYPE svg PUBLIC "-//W3C//DTD SVG 1.1//EN"
 "http://www.w3.org/Graphics/SVG/1.1/DTD/svg11.dtd">
<!-- Generated by graphviz version 2.43.0 (0)
 -->
<!-- Title: ladel_factorize_with_diag Pages: 1 -->
<!--zoomable 606 -->
<svg id="main" version="1.1" xmlns="http://www.w3.org/2000/svg" xmlns:xlink="http://www.w3.org/1999/xlink" xml:space="preserve" onload="init(evt)">
<style type="text/css"><![CDATA[
.edge:hover path { stroke: red; }
.edge:hover polygon { stroke: red; fill: red; }
]]></style>
<script type="text/javascript"><![CDATA[
var edges = document.getElementsByTagName('g');
if (edges && edges.length) {
  for (var i=0;i<edges.length;i++) {
    if (edges[i].id.substr(0,4)=='edge') {
      edges[i].setAttribute('class','edge');
    }
  }
}
]]></script>
        <defs>
                <circle id="rim" cx="0" cy="0" r="7"/>
                <circle id="rim2" cx="0" cy="0" r="3.5"/>
                <g id="zoomPlus">
                        <use xlink:href="#rim" fill="#404040">
                                <set attributeName="fill" to="#808080" begin="zoomplus.mouseover" end="zoomplus.mouseout"/>
                        </use>
                        <path d="M-4,0h8M0,-4v8" fill="none" stroke="white" stroke-width="1.5" pointer-events="none"/>
                </g>
                <g id="zoomMin">
                        <use xlink:href="#rim" fill="#404040">
                                <set attributeName="fill" to="#808080" begin="zoomminus.mouseover" end="zoomminus.mouseout"/>
                        </use>
                        <path d="M-4,0h8" fill="none" stroke="white" stroke-width="1.5" pointer-events="none"/>
                </g>
                <g id="dirArrow">
                        <path fill="none" stroke="white" stroke-width="1.5" d="M0,-3.0v7 M-2.5,-0.5L0,-3.0L2.5,-0.5"/>
                </g>
               <g id="resetDef">
                       <use xlink:href="#rim2" fill="#404040">
                               <set attributeName="fill" to="#808080" begin="reset.mouseover" end="reset.mouseout"/>
                       </use>
               </g>
        </defs>

<script type="text/javascript">
var viewWidth = 1075;
var viewHeight = 606;
var sectionId = 'dynsection-4';
</script>
<script xlink:href="svgpan.js"/>
<svg id="graph" class="graph">
<g id="viewport">
<title>ladel_factorize_with_diag</title>
<polygon fill="white" stroke="transparent" points="-4,4 -4,-602 1071,-602 1071,4 -4,4"/>
<!-- Node1 -->
<g id="node1" class="node">
<title>Node1</title>
<g id="a_node1"><a xlink:title="Computes the &#160;factorization of .">
<polygon fill="#bfbfbf" stroke="black" points="0,-426.5 0,-445.5 141,-445.5 141,-426.5 0,-426.5"/>
<text text-anchor="middle" x="70.5" y="-433.5" font-family="Helvetica,sans-Serif" font-size="10.00">ladel_factorize_with_diag</text>
</a>
</g>
</g>
<!-- Node2 -->
<g id="node2" class="node">
<title>Node2</title>
<g id="a_node2"><a xlink:href="ladel__global_8c.html#a968028b68306172d3fb202fb434624a6" target="_top" xlink:title="Allocate a factors struct.">
<polygon fill="white" stroke="black" points="549,-483.5 549,-502.5 668,-502.5 668,-483.5 549,-483.5"/>
<text text-anchor="middle" x="608.5" y="-490.5" font-family="Helvetica,sans-Serif" font-size="10.00">ladel_factor_allocate</text>
</a>
</g>
</g>
<!-- Node1&#45;&gt;Node2 -->
<g id="edge1" class="edge">
<title>Node1&#45;&gt;Node2</title>
<path fill="none" stroke="midnightblue" d="M140.69,-445.51C152.79,-447.08 165.25,-448.63 177,-450 304.62,-464.84 453.89,-479.04 538.9,-486.84"/>
<polygon fill="midnightblue" stroke="midnightblue" points="538.67,-490.33 548.94,-487.76 539.3,-483.36 538.67,-490.33"/>
</g>
<!-- Node6 -->
<g id="node6" class="node">
<title>Node6</title>
<g id="a_node6"><a xlink:href="ladel__global_8c.html#afaa07a7aa3c8517d3853968448b398a0" target="_top" xlink:title="Free a sparse matrix (and return NULL).">
<polygon fill="white" stroke="black" points="863,-350.5 863,-369.5 966,-369.5 966,-350.5 863,-350.5"/>
<text text-anchor="middle" x="914.5" y="-357.5" font-family="Helvetica,sans-Serif" font-size="10.00">ladel_sparse_free</text>
</a>
</g>
</g>
<!-- Node1&#45;&gt;Node6 -->
<g id="edge32" class="edge">
<title>Node1&#45;&gt;Node6</title>
<path fill="none" stroke="midnightblue" d="M141.12,-429.72C302.6,-415.14 700.45,-379.23 852.8,-365.48"/>
<polygon fill="midnightblue" stroke="midnightblue" points="853.26,-368.95 862.91,-364.57 852.63,-361.98 853.26,-368.95"/>
</g>
<!-- Node9 -->
<g id="node9" class="node">
<title>Node9</title>
<g id="a_node9"><a xlink:href="ladel__global_8c.html#a6e485045ec098c0b5a9afe07875a1e59" target="_top" xlink:title="Allocate a sparse matrix.">
<polygon fill="white" stroke="black" points="712,-426.5 712,-445.5 819,-445.5 819,-426.5 712,-426.5"/>
<text text-anchor="middle" x="765.5" y="-433.5" font-family="Helvetica,sans-Serif" font-size="10.00">ladel_sparse_alloc</text>
</a>
</g>
</g>
<!-- Node1&#45;&gt;Node9 -->
<g id="edge31" class="edge">
<title>Node1&#45;&gt;Node9</title>
<path fill="none" stroke="midnightblue" d="M141.12,-436C276.3,-436 572.36,-436 701.81,-436"/>
<polygon fill="midnightblue" stroke="midnightblue" points="701.96,-439.5 711.96,-436 701.96,-432.5 701.96,-439.5"/>
</g>
<!-- Node10 -->
<g id="node10" class="node">
<title>Node10</title>
<g id="a_node10"><a xlink:href="ladel__ldl__numeric_8c.html#aca5dec521536dc26881de005cf3b5932" target="_top" xlink:title="Numerical part of the factorization of .">
<polygon fill="white" stroke="black" points="177,-505.5 177,-524.5 332,-524.5 332,-505.5 177,-505.5"/>
<text text-anchor="middle" x="254.5" y="-512.5" font-family="Helvetica,sans-Serif" font-size="10.00">ladel_ldl_numeric_with_diag</text>
</a>
</g>
</g>
<!-- Node1&#45;&gt;Node10 -->
<g id="edge13" class="edge">
<title>Node1&#45;&gt;Node10</title>
<path fill="none" stroke="midnightblue" d="M89.49,-445.69C110.25,-456.67 145.57,-474.76 177,-488 188.86,-493 202.01,-497.87 214.01,-502.07"/>
<polygon fill="midnightblue" stroke="midnightblue" points="213.17,-505.48 223.76,-505.42 215.45,-498.86 213.17,-505.48"/>
</g>
<!-- Node12 -->
<g id="node12" class="node">
<title>Node12</title>
<g id="a_node12"><a xlink:href="ladel__ldl__symbolic_8c.html#a919feee5783ed6d5ffaff8dff6546976" target="_top" xlink:title="Symbolic part of the factorization.">
<polygon fill="white" stroke="black" points="201,-156.5 201,-175.5 308,-175.5 308,-156.5 201,-156.5"/>
<text text-anchor="middle" x="254.5" y="-163.5" font-family="Helvetica,sans-Serif" font-size="10.00">ladel_ldl_symbolic</text>
</a>
</g>
</g>
<!-- Node1&#45;&gt;Node12 -->
<g id="edge15" class="edge">
<title>Node1&#45;&gt;Node12</title>
<path fill="none" stroke="midnightblue" d="M77.98,-426.39C104.62,-386.87 206,-236.46 241.3,-184.1"/>
<polygon fill="midnightblue" stroke="midnightblue" points="244.22,-186.02 246.91,-175.78 238.42,-182.11 244.22,-186.02"/>
</g>
<!-- Node3 -->
<g id="node3" class="node">
<title>Node3</title>
<g id="a_node3"><a xlink:href="ladel__global_8c.html#a15a407b5c8ad9de2faeb93fcd786e099" target="_top" xlink:title="Version of calloc (for mex or for regular C).">
<polygon fill="white" stroke="black" points="877.5,-464.5 877.5,-483.5 951.5,-483.5 951.5,-464.5 877.5,-464.5"/>
<text text-anchor="middle" x="914.5" y="-471.5" font-family="Helvetica,sans-Serif" font-size="10.00">ladel_calloc</text>
</a>
</g>
</g>
<!-- Node2&#45;&gt;Node3 -->
<g id="edge2" class="edge">
<title>Node2&#45;&gt;Node3</title>
<path fill="none" stroke="midnightblue" d="M627.33,-502.58C645.88,-511.96 676.05,-525.59 704,-531 757.67,-541.39 774.64,-546.7 827,-531 853.41,-523.08 879.2,-504.21 895.65,-490.34"/>
<polygon fill="midnightblue" stroke="midnightblue" points="898.11,-492.84 903.35,-483.63 893.52,-487.56 898.11,-492.84"/>
</g>
<!-- Node4 -->
<g id="node4" class="node">
<title>Node4</title>
<g id="a_node4"><a xlink:href="ladel__global_8c.html#a2c4e8897e9da3b9463281d19e0971ed5" target="_top" xlink:title="Free a factor.">
<polygon fill="white" stroke="black" points="716,-502.5 716,-521.5 815,-521.5 815,-502.5 716,-502.5"/>
<text text-anchor="middle" x="765.5" y="-509.5" font-family="Helvetica,sans-Serif" font-size="10.00">ladel_factor_free</text>
</a>
</g>
</g>
<!-- Node2&#45;&gt;Node4 -->
<g id="edge3" class="edge">
<title>Node2&#45;&gt;Node4</title>
<path fill="none" stroke="midnightblue" d="M668.1,-500.18C680.42,-501.69 693.43,-503.29 705.75,-504.8"/>
<polygon fill="midnightblue" stroke="midnightblue" points="705.57,-508.3 715.92,-506.05 706.42,-501.35 705.57,-508.3"/>
</g>
<!-- Node7 -->
<g id="node7" class="node">
<title>Node7</title>
<g id="a_node7"><a xlink:href="ladel__copy_8c.html#ab0af0935fc38b50643d179802695ac74" target="_top" xlink:title="Copies an integer vector (preallocated)">
<polygon fill="white" stroke="black" points="704,-578.5 704,-597.5 827,-597.5 827,-578.5 704,-578.5"/>
<text text-anchor="middle" x="765.5" y="-585.5" font-family="Helvetica,sans-Serif" font-size="10.00">ladel_int_vector_copy</text>
</a>
</g>
</g>
<!-- Node2&#45;&gt;Node7 -->
<g id="edge7" class="edge">
<title>Node2&#45;&gt;Node7</title>
<path fill="none" stroke="midnightblue" d="M620.18,-502.55C637.03,-517.24 671.24,-545.63 704,-564 711,-567.92 718.77,-571.52 726.35,-574.66"/>
<polygon fill="midnightblue" stroke="midnightblue" points="725.18,-577.97 735.77,-578.4 727.76,-571.46 725.18,-577.97"/>
</g>
<!-- Node8 -->
<g id="node8" class="node">
<title>Node8</title>
<g id="a_node8"><a xlink:href="ladel__global_8c.html#a86142b1e820a5de1deea8ee656186245" target="_top" xlink:title="Version of malloc (for mex or for regular C).">
<polygon fill="white" stroke="black" points="875,-426.5 875,-445.5 954,-445.5 954,-426.5 875,-426.5"/>
<text text-anchor="middle" x="914.5" y="-433.5" font-family="Helvetica,sans-Serif" font-size="10.00">ladel_malloc</text>
</a>
</g>
</g>
<!-- Node2&#45;&gt;Node8 -->
<g id="edge8" class="edge">
<title>Node2&#45;&gt;Node8</title>
<path fill="none" stroke="midnightblue" d="M668.25,-483.44C712.09,-476.14 773.41,-465.56 827,-455 839.26,-452.58 852.45,-449.79 864.74,-447.1"/>
<polygon fill="midnightblue" stroke="midnightblue" points="865.81,-450.44 874.82,-444.87 864.3,-443.61 865.81,-450.44"/>
</g>
<!-- Node2&#45;&gt;Node9 -->
<g id="edge9" class="edge">
<title>Node2&#45;&gt;Node9</title>
<path fill="none" stroke="midnightblue" d="M635.44,-483.46C661.04,-474.05 700.36,-459.59 728.88,-449.1"/>
<polygon fill="midnightblue" stroke="midnightblue" points="730.29,-452.31 738.47,-445.57 727.88,-445.74 730.29,-452.31"/>
</g>
<!-- Node5 -->
<g id="node5" class="node">
<title>Node5</title>
<g id="a_node5"><a xlink:href="ladel__global_8c.html#a946ae8034525eb6db42d4a166be57968" target="_top" xlink:title="Version of free (for mex or for regular C).">
<polygon fill="white" stroke="black" points="1002,-274.5 1002,-293.5 1067,-293.5 1067,-274.5 1002,-274.5"/>
<text text-anchor="middle" x="1034.5" y="-281.5" font-family="Helvetica,sans-Serif" font-size="10.00">ladel_free</text>
</a>
</g>
</g>
<!-- Node4&#45;&gt;Node5 -->
<g id="edge4" class="edge">
<title>Node4&#45;&gt;Node5</title>
<path fill="none" stroke="midnightblue" d="M815.1,-521.18C859.27,-526.61 923.82,-526.88 966,-493 1024.82,-445.76 1033.04,-346.69 1033.74,-304.13"/>
<polygon fill="midnightblue" stroke="midnightblue" points="1037.24,-303.95 1033.77,-293.94 1030.24,-303.92 1037.24,-303.95"/>
</g>
<!-- Node4&#45;&gt;Node6 -->
<g id="edge5" class="edge">
<title>Node4&#45;&gt;Node6</title>
<path fill="none" stroke="midnightblue" d="M777.45,-502.15C789.75,-490.98 810.21,-472.08 827,-455 852.88,-428.67 881.45,-396.68 898.42,-377.35"/>
<polygon fill="midnightblue" stroke="midnightblue" points="901.19,-379.49 905.14,-369.66 895.92,-374.89 901.19,-379.49"/>
</g>
<!-- Node6&#45;&gt;Node5 -->
<g id="edge6" class="edge">
<title>Node6&#45;&gt;Node5</title>
<path fill="none" stroke="midnightblue" d="M930.44,-350.37C950.57,-337.41 986.59,-314.21 1010.27,-298.96"/>
<polygon fill="midnightblue" stroke="midnightblue" points="1012.16,-301.9 1018.68,-293.55 1008.37,-296.02 1012.16,-301.9"/>
</g>
<!-- Node9&#45;&gt;Node3 -->
<g id="edge10" class="edge">
<title>Node9&#45;&gt;Node3</title>
<path fill="none" stroke="midnightblue" d="M803.59,-445.59C823.04,-450.62 847.03,-456.82 867.63,-462.14"/>
<polygon fill="midnightblue" stroke="midnightblue" points="866.88,-465.56 877.43,-464.68 868.63,-458.79 866.88,-465.56"/>
</g>
<!-- Node9&#45;&gt;Node6 -->
<g id="edge12" class="edge">
<title>Node9&#45;&gt;Node6</title>
<path fill="none" stroke="midnightblue" d="M785.12,-426.37C810.63,-413.18 856.65,-389.39 886.1,-374.17"/>
<polygon fill="midnightblue" stroke="midnightblue" points="887.76,-377.25 895.03,-369.55 884.54,-371.03 887.76,-377.25"/>
</g>
<!-- Node9&#45;&gt;Node8 -->
<g id="edge11" class="edge">
<title>Node9&#45;&gt;Node8</title>
<path fill="none" stroke="midnightblue" d="M819.16,-436C833.87,-436 849.8,-436 864.31,-436"/>
<polygon fill="midnightblue" stroke="midnightblue" points="864.59,-439.5 874.59,-436 864.59,-432.5 864.59,-439.5"/>
</g>
<!-- Node11 -->
<g id="node11" class="node">
<title>Node11</title>
<g id="a_node11"><a xlink:href="ladel__pattern_8c.html#a2f95620dd9c0bb1d33f1dcbdaa9a25b2" target="_top" xlink:title="Computes the pattern of the (next) row in L.">
<polygon fill="white" stroke="black" points="378,-503 378,-533 503,-533 503,-503 378,-503"/>
<text text-anchor="start" x="386" y="-521" font-family="Helvetica,sans-Serif" font-size="10.00">ladel_nonzero_pattern</text>
<text text-anchor="middle" x="440.5" y="-510" font-family="Helvetica,sans-Serif" font-size="10.00">_of_row_in_L</text>
</a>
</g>
</g>
<!-- Node10&#45;&gt;Node11 -->
<g id="edge14" class="edge">
<title>Node10&#45;&gt;Node11</title>
<path fill="none" stroke="midnightblue" d="M332.2,-516.25C343.95,-516.44 356.03,-516.64 367.67,-516.83"/>
<polygon fill="midnightblue" stroke="midnightblue" points="367.7,-520.33 377.76,-516.99 367.81,-513.33 367.7,-520.33"/>
</g>
<!-- Node12&#45;&gt;Node5 -->
<g id="edge25" class="edge">
<title>Node12&#45;&gt;Node5</title>
<path fill="none" stroke="midnightblue" d="M273.2,-175.67C294.85,-186.99 332.96,-205.3 368,-214 471.67,-239.73 500.69,-234 607.5,-234 607.5,-234 607.5,-234 766.5,-234 848.07,-234 941.3,-256.83 993.2,-271.63"/>
<polygon fill="midnightblue" stroke="midnightblue" points="992.43,-275.05 1003.01,-274.48 994.38,-268.33 992.43,-275.05"/>
</g>
<!-- Node13 -->
<g id="node13" class="node">
<title>Node13</title>
<g id="a_node13"><a xlink:href="ladel__col__counts_8c.html#aa7284697012b8c3de4cece3e31915488" target="_top" xlink:title="Computes the column counts of the factor.">
<polygon fill="white" stroke="black" points="391.5,-290.5 391.5,-309.5 489.5,-309.5 489.5,-290.5 391.5,-290.5"/>
<text text-anchor="middle" x="440.5" y="-297.5" font-family="Helvetica,sans-Serif" font-size="10.00">ladel_col_counts</text>
</a>
</g>
</g>
<!-- Node12&#45;&gt;Node13 -->
<g id="edge16" class="edge">
<title>Node12&#45;&gt;Node13</title>
<path fill="none" stroke="midnightblue" d="M268.66,-175.6C289.66,-190.91 332.05,-221.82 368,-248 384.85,-260.27 403.95,-274.16 418.16,-284.49"/>
<polygon fill="midnightblue" stroke="midnightblue" points="416.17,-287.37 426.32,-290.42 420.29,-281.71 416.17,-287.37"/>
</g>
<!-- Node16 -->
<g id="node16" class="node">
<title>Node16</title>
<g id="a_node16"><a xlink:href="ladel__etree_8c.html#ab727c0337acfd3e083ce6d8424ea6a6b" target="_top" xlink:title="Computes the elimination tree of a matrix.">
<polygon fill="white" stroke="black" points="405,-0.5 405,-19.5 476,-19.5 476,-0.5 405,-0.5"/>
<text text-anchor="middle" x="440.5" y="-7.5" font-family="Helvetica,sans-Serif" font-size="10.00">ladel_etree</text>
</a>
</g>
</g>
<!-- Node12&#45;&gt;Node16 -->
<g id="edge23" class="edge">
<title>Node12&#45;&gt;Node16</title>
<path fill="none" stroke="midnightblue" d="M260.6,-156.29C274.32,-131.11 314.68,-63.29 368,-29 376.18,-23.74 385.77,-19.93 395.23,-17.17"/>
<polygon fill="midnightblue" stroke="midnightblue" points="396.16,-20.55 404.97,-14.66 394.41,-13.77 396.16,-20.55"/>
</g>
<!-- Node17 -->
<g id="node17" class="node">
<title>Node17</title>
<g id="a_node17"><a xlink:href="ladel__etree_8c.html#a4c37cc6c6df89960c5b39d28677d88a8" target="_top" xlink:title="Computes the elimination tree and column counts of a matrix.">
<polygon fill="white" stroke="black" points="383.5,-175 383.5,-205 497.5,-205 497.5,-175 383.5,-175"/>
<text text-anchor="start" x="391.5" y="-193" font-family="Helvetica,sans-Serif" font-size="10.00">ladel_etree_and_col</text>
<text text-anchor="middle" x="440.5" y="-182" font-family="Helvetica,sans-Serif" font-size="10.00">_counts</text>
</a>
</g>
</g>
<!-- Node12&#45;&gt;Node17 -->
<g id="edge24" class="edge">
<title>Node12&#45;&gt;Node17</title>
<path fill="none" stroke="midnightblue" d="M308.23,-172.88C328.49,-175.52 351.88,-178.57 373.25,-181.36"/>
<polygon fill="midnightblue" stroke="midnightblue" points="372.86,-184.84 383.23,-182.66 373.77,-177.9 372.86,-184.84"/>
</g>
<!-- Node18 -->
<g id="node18" class="node">
<title>Node18</title>
<g id="a_node18"><a xlink:href="ladel__permutation_8c.html#ad4cf169953176bf72a9cf454dfd42712" target="_top" xlink:title="Invert a permutation vector, such that .">
<polygon fill="white" stroke="black" points="370.5,-126 370.5,-156 510.5,-156 510.5,-126 370.5,-126"/>
<text text-anchor="start" x="378.5" y="-144" font-family="Helvetica,sans-Serif" font-size="10.00">ladel_invert_permutation</text>
<text text-anchor="middle" x="440.5" y="-133" font-family="Helvetica,sans-Serif" font-size="10.00">_vector</text>
</a>
</g>
</g>
<!-- Node12&#45;&gt;Node18 -->
<g id="edge26" class="edge">
<title>Node12&#45;&gt;Node18</title>
<path fill="none" stroke="midnightblue" d="M308.23,-158.84C324.38,-156.64 342.53,-154.18 360.06,-151.79"/>
<polygon fill="midnightblue" stroke="midnightblue" points="360.85,-155.22 370.28,-150.4 359.9,-148.28 360.85,-155.22"/>
</g>
<!-- Node19 -->
<g id="node19" class="node">
<title>Node19</title>
<g id="a_node19"><a xlink:href="ladel__permutation_8c.html#a6fbceb4b665cce4b4397d74516d284a3" target="_top" xlink:title="Compute .">
<polygon fill="white" stroke="black" points="368,-77 368,-107 513,-107 513,-77 368,-77"/>
<text text-anchor="start" x="376" y="-95" font-family="Helvetica,sans-Serif" font-size="10.00">ladel_permute_symmetric</text>
<text text-anchor="middle" x="440.5" y="-84" font-family="Helvetica,sans-Serif" font-size="10.00">_matrix</text>
</a>
</g>
</g>
<!-- Node12&#45;&gt;Node19 -->
<g id="edge27" class="edge">
<title>Node12&#45;&gt;Node19</title>
<path fill="none" stroke="midnightblue" d="M275.58,-156.39C297.9,-145.86 335.13,-128.79 368,-116 372.76,-114.15 377.73,-112.3 382.73,-110.51"/>
<polygon fill="midnightblue" stroke="midnightblue" points="384.08,-113.74 392.35,-107.12 381.76,-107.14 384.08,-113.74"/>
</g>
<!-- Node21 -->
<g id="node21" class="node">
<title>Node21</title>
<g id="a_node21"><a xlink:href="ladel__postorder_8c.html#ab60514b7b1353408852e59f09677016d" target="_top" xlink:title="Compute the postordering of the elimination tree.">
<polygon fill="white" stroke="black" points="394.5,-38.5 394.5,-57.5 486.5,-57.5 486.5,-38.5 394.5,-38.5"/>
<text text-anchor="middle" x="440.5" y="-45.5" font-family="Helvetica,sans-Serif" font-size="10.00">ladel_postorder</text>
</a>
</g>
</g>
<!-- Node12&#45;&gt;Node21 -->
<g id="edge30" class="edge">
<title>Node12&#45;&gt;Node21</title>
<path fill="none" stroke="midnightblue" d="M263.47,-156.5C280.54,-136.76 322.79,-91.15 368,-67 373.23,-64.21 378.89,-61.81 384.66,-59.74"/>
<polygon fill="midnightblue" stroke="midnightblue" points="385.99,-62.99 394.43,-56.58 383.84,-56.33 385.99,-62.99"/>
</g>
<!-- Node13&#45;&gt;Node6 -->
<g id="edge18" class="edge">
<title>Node13&#45;&gt;Node6</title>
<path fill="none" stroke="midnightblue" d="M489.66,-305.09C562.72,-312.97 705.86,-328.98 827,-346 835.34,-347.17 844.11,-348.49 852.75,-349.84"/>
<polygon fill="midnightblue" stroke="midnightblue" points="852.36,-353.32 862.78,-351.43 853.45,-346.41 852.36,-353.32"/>
</g>
<!-- Node14 -->
<g id="node14" class="node">
<title>Node14</title>
<g id="a_node14"><a xlink:href="ladel__col__counts_8c.html#a83727639c00ef21d2af7ccda5f116881" target="_top" xlink:title=" ">
<polygon fill="white" stroke="black" points="549.5,-263 549.5,-293 667.5,-293 667.5,-263 549.5,-263"/>
<text text-anchor="start" x="557.5" y="-281" font-family="Helvetica,sans-Serif" font-size="10.00">ladel_least_common</text>
<text text-anchor="middle" x="608.5" y="-270" font-family="Helvetica,sans-Serif" font-size="10.00">_ancestor</text>
</a>
</g>
</g>
<!-- Node13&#45;&gt;Node14 -->
<g id="edge17" class="edge">
<title>Node13&#45;&gt;Node14</title>
<path fill="none" stroke="midnightblue" d="M489.51,-293.64C504.98,-291.59 522.42,-289.28 539.06,-287.07"/>
<polygon fill="midnightblue" stroke="midnightblue" points="539.84,-290.5 549.29,-285.71 538.92,-283.56 539.84,-290.5"/>
</g>
<!-- Node15 -->
<g id="node15" class="node">
<title>Node15</title>
<g id="a_node15"><a xlink:href="ladel__transpose_8c.html#a8b00613708b897c9dbcd292dc9b89ed8" target="_top" xlink:title="Returns the transpose of a matrix, that is .">
<polygon fill="white" stroke="black" points="561.5,-350.5 561.5,-369.5 655.5,-369.5 655.5,-350.5 561.5,-350.5"/>
<text text-anchor="middle" x="608.5" y="-357.5" font-family="Helvetica,sans-Serif" font-size="10.00">ladel_transpose</text>
</a>
</g>
</g>
<!-- Node13&#45;&gt;Node15 -->
<g id="edge19" class="edge">
<title>Node13&#45;&gt;Node15</title>
<path fill="none" stroke="midnightblue" d="M467.8,-309.51C495.77,-319.62 540.18,-335.67 571.41,-346.95"/>
<polygon fill="midnightblue" stroke="midnightblue" points="570.45,-350.33 581.05,-350.44 572.83,-343.75 570.45,-350.33"/>
</g>
<!-- Node15&#45;&gt;Node5 -->
<g id="edge20" class="edge">
<title>Node15&#45;&gt;Node5</title>
<path fill="none" stroke="midnightblue" d="M655.68,-351.72C738.67,-336.85 911.77,-305.82 991.57,-291.52"/>
<polygon fill="midnightblue" stroke="midnightblue" points="992.51,-294.9 1001.73,-289.69 991.27,-288.01 992.51,-294.9"/>
</g>
<!-- Node15&#45;&gt;Node8 -->
<g id="edge21" class="edge">
<title>Node15&#45;&gt;Node8</title>
<path fill="none" stroke="midnightblue" d="M647.69,-369.55C702.87,-383.34 804.85,-408.84 865.19,-423.92"/>
<polygon fill="midnightblue" stroke="midnightblue" points="864.67,-427.4 875.22,-426.43 866.37,-420.61 864.67,-427.4"/>
</g>
<!-- Node15&#45;&gt;Node9 -->
<g id="edge22" class="edge">
<title>Node15&#45;&gt;Node9</title>
<path fill="none" stroke="midnightblue" d="M625.57,-369.65C644.12,-380.6 675.71,-398.67 704,-412 711.93,-415.74 720.62,-419.42 728.87,-422.73"/>
<polygon fill="midnightblue" stroke="midnightblue" points="727.7,-426.03 738.29,-426.43 730.26,-419.51 727.7,-426.03"/>
</g>
<!-- Node20 -->
<g id="node20" class="node">
<title>Node20</title>
<g id="a_node20"><a xlink:href="ladel__copy_8c.html#a97ad68065f3cb0241e4a6427e2e196a7" target="_top" xlink:title="Copies a matrix (preallocated)">
<polygon fill="white" stroke="black" points="712,-121.5 712,-140.5 819,-140.5 819,-121.5 712,-121.5"/>
<text text-anchor="middle" x="765.5" y="-128.5" font-family="Helvetica,sans-Serif" font-size="10.00">ladel_sparse_copy</text>
</a>
</g>
</g>
<!-- Node19&#45;&gt;Node20 -->
<g id="edge28" class="edge">
<title>Node19&#45;&gt;Node20</title>
<path fill="none" stroke="midnightblue" d="M513.18,-100.66C569.67,-107.48 647.64,-116.89 701.7,-123.42"/>
<polygon fill="midnightblue" stroke="midnightblue" points="701.49,-126.92 711.84,-124.64 702.33,-119.97 701.49,-126.92"/>
</g>
<!-- Node20&#45;&gt;Node5 -->
<g id="edge29" class="edge">
<title>Node20&#45;&gt;Node5</title>
<path fill="none" stroke="midnightblue" d="M795.83,-140.54C836.19,-154.43 910.19,-182.7 966,-220 985.98,-233.35 1005.54,-252.8 1018.41,-266.75"/>
<polygon fill="midnightblue" stroke="midnightblue" points="1015.88,-269.17 1025.18,-274.25 1021.07,-264.48 1015.88,-269.17"/>
</g>
</g>
</svg>
        <g id="navigator" transform="translate(0 0)" fill="#404254">
                <rect fill="#f2f5e9" fill-opacity="0.5" stroke="#606060" stroke-width=".5" x="0" y="0" width="60" height="60"/>
                <use id="zoomplus" xlink:href="#zoomPlus" x="17" y="9" onmousedown="handleZoom(evt,'in')"/>
                <use id="zoomminus" xlink:href="#zoomMin" x="42" y="9" onmousedown="handleZoom(evt,'out')"/>
                <use id="reset" xlink:href="#resetDef" x="30" y="36" onmousedown="handleReset()"/>
                <g id="arrowUp" xlink:href="#dirArrow" transform="translate(30 24)" onmousedown="handlePan(0,-1)">
                  <use xlink:href="#rim" fill="#404040">
                        <set attributeName="fill" to="#808080" begin="arrowUp.mouseover" end="arrowUp.mouseout"/>
                  </use>
                  <path fill="none" stroke="white" stroke-width="1.5" d="M0,-3.0v7 M-2.5,-0.5L0,-3.0L2.5,-0.5"/>
                </g>
                <g id="arrowRight" xlink:href="#dirArrow" transform="rotate(90) translate(36 -43)" onmousedown="handlePan(1,0)">
                  <use xlink:href="#rim" fill="#404040">
                        <set attributeName="fill" to="#808080" begin="arrowRight.mouseover" end="arrowRight.mouseout"/>
                  </use>
                  <path fill="none" stroke="white" stroke-width="1.5" d="M0,-3.0v7 M-2.5,-0.5L0,-3.0L2.5,-0.5"/>
                </g>
                <g id="arrowDown" xlink:href="#dirArrow" transform="rotate(180) translate(-30 -48)" onmousedown="handlePan(0,1)">
                  <use xlink:href="#rim" fill="#404040">
                        <set attributeName="fill" to="#808080" begin="arrowDown.mouseover" end="arrowDown.mouseout"/>
                  </use>
                  <path fill="none" stroke="white" stroke-width="1.5" d="M0,-3.0v7 M-2.5,-0.5L0,-3.0L2.5,-0.5"/>
                </g>
                <g id="arrowLeft" xlink:href="#dirArrow" transform="rotate(270) translate(-36 17)" onmousedown="handlePan(-1,0)">
                  <use xlink:href="#rim" fill="#404040">
                        <set attributeName="fill" to="#808080" begin="arrowLeft.mouseover" end="arrowLeft.mouseout"/>
                  </use>
                  <path fill="none" stroke="white" stroke-width="1.5" d="M0,-3.0v7 M-2.5,-0.5L0,-3.0L2.5,-0.5"/>
                </g>
        </g>
        <svg viewBox="0 0 15 15" width="100%" height="30px" preserveAspectRatio="xMaxYMin meet">
         <g id="arrow_out" transform="scale(0.3 0.3)">
          <a xlink:href="group__grp-solver_ga129ea878837012c6ac76fb6046bc9449_cgraph_org.svg" target="_base">
           <rect id="button" ry="5" rx="5" y="6" x="6" height="38" width="38"
                fill="#f2f5e9" fill-opacity="0.5" stroke="#606060" stroke-width="1.0"/>
           <path id="arrow"
             d="M 11.500037,31.436501 C 11.940474,20.09759 22.043105,11.32322 32.158766,21.979434 L 37.068811,17.246167 C 37.068811,17.246167 37.088388,32 37.088388,32 L 22.160133,31.978069 C 22.160133,31.978069 26.997745,27.140456 26.997745,27.140456 C 18.528582,18.264221 13.291696,25.230495 11.500037,31.436501 z"
             style="fill:#404040;"/>
          </a>
         </g>
        </svg>
</svg>
