<?xml version="1.0" encoding="UTF-8" standalone="no"?>
<!DOCTYPE svg PUBLIC "-//W3C//DTD SVG 1.1//EN"
 "http://www.w3.org/Graphics/SVG/1.1/DTD/svg11.dtd">
<!-- Generated by graphviz version 2.43.0 (0)
 -->
<!-- Title: ladel_factorize_with_prior_basis Pages: 1 -->
<!--zoomable 220 -->
<svg id="main" version="1.1" xmlns="http://www.w3.org/2000/svg" xmlns:xlink="http://www.w3.org/1999/xlink" xml:space="preserve" onload="init(evt)">
<style type="text/css"><![CDATA[
.edge:hover path { stroke: red; }
.edge:hover polygon { stroke: red; fill: red; }
]]></style>
<script type="text/javascript"><![CDATA[
var edges = document.getElementsByTagName('g');
if (edges && edges.length) {
  for (var i=0;i<edges.length;i++) {
    if (edges[i].id.substr(0,4)=='edge') {
      edges[i].setAttribute('class','edge');
    }
  }
}
]]></script>
        <defs>
                <circle id="rim" cx="0" cy="0" r="7"/>
                <circle id="rim2" cx="0" cy="0" r="3.5"/>
                <g id="zoomPlus">
                        <use xlink:href="#rim" fill="#404040">
                                <set attributeName="fill" to="#808080" begin="zoomplus.mouseover" end="zoomplus.mouseout"/>
                        </use>
                        <path d="M-4,0h8M0,-4v8" fill="none" stroke="white" stroke-width="1.5" pointer-events="none"/>
                </g>
                <g id="zoomMin">
                        <use xlink:href="#rim" fill="#404040">
                                <set attributeName="fill" to="#808080" begin="zoomminus.mouseover" end="zoomminus.mouseout"/>
                        </use>
                        <path d="M-4,0h8" fill="none" stroke="white" stroke-width="1.5" pointer-events="none"/>
                </g>
                <g id="dirArrow">
                        <path fill="none" stroke="white" stroke-width="1.5" d="M0,-3.0v7 M-2.5,-0.5L0,-3.0L2.5,-0.5"/>
                </g>
               <g id="resetDef">
                       <use xlink:href="#rim2" fill="#404040">
                               <set attributeName="fill" to="#808080" begin="reset.mouseover" end="reset.mouseout"/>
                       </use>
               </g>
        </defs>

<script type="text/javascript">
var viewWidth = 740;
var viewHeight = 220;
var sectionId = 'dynsection-6';
</script>
<script xlink:href="svgpan.js"/>
<svg id="graph" class="graph">
<g id="viewport">
<title>ladel_factorize_with_prior_basis</title>
<polygon fill="white" stroke="transparent" points="-4,4 -4,-216 736,-216 736,4 -4,4"/>
<!-- Node1 -->
<g id="node1" class="node">
<title>Node1</title>
<g id="a_node1"><a xlink:title="Computes the &#160;factorization of &#160;provided LD was allocated before.">
<polygon fill="#bfbfbf" stroke="black" points="0,-105 0,-135 115,-135 115,-105 0,-105"/>
<text text-anchor="start" x="8" y="-123" font-family="Helvetica,sans-Serif" font-size="10.00">ladel_factorize_with</text>
<text text-anchor="middle" x="57.5" y="-112" font-family="Helvetica,sans-Serif" font-size="10.00">_prior_basis</text>
</a>
</g>
</g>
<!-- Node2 -->
<g id="node2" class="node">
<title>Node2</title>
<g id="a_node2"><a xlink:href="group__grp-solver.html#gabb81f3223c3ab1794fd472276be8fba6" target="_top" xlink:title="Computes the &#160;factorization of &#160;provided LD was allocated before.">
<polygon fill="white" stroke="black" points="151,-105 151,-135 279,-135 279,-105 151,-105"/>
<text text-anchor="start" x="159" y="-123" font-family="Helvetica,sans-Serif" font-size="10.00">ladel_factorize_with</text>
<text text-anchor="middle" x="215" y="-112" font-family="Helvetica,sans-Serif" font-size="10.00">_prior_basis_with_diag</text>
</a>
</g>
</g>
<!-- Node1&#45;&gt;Node2 -->
<g id="edge1" class="edge">
<title>Node1&#45;&gt;Node2</title>
<path fill="none" stroke="midnightblue" d="M115.08,-120C123.44,-120 132.16,-120 140.8,-120"/>
<polygon fill="midnightblue" stroke="midnightblue" points="140.89,-123.5 150.89,-120 140.89,-116.5 140.89,-123.5"/>
</g>
<!-- Node3 -->
<g id="node3" class="node">
<title>Node3</title>
<g id="a_node3"><a xlink:href="ladel__etree_8c.html#ab727c0337acfd3e083ce6d8424ea6a6b" target="_top" xlink:title="Computes the elimination tree of a matrix.">
<polygon fill="white" stroke="black" points="357,-192.5 357,-211.5 428,-211.5 428,-192.5 357,-192.5"/>
<text text-anchor="middle" x="392.5" y="-199.5" font-family="Helvetica,sans-Serif" font-size="10.00">ladel_etree</text>
</a>
</g>
</g>
<!-- Node2&#45;&gt;Node3 -->
<g id="edge2" class="edge">
<title>Node2&#45;&gt;Node3</title>
<path fill="none" stroke="midnightblue" d="M235.41,-135.05C254.64,-149.29 285.42,-170.31 315,-183 325.01,-187.29 336.18,-190.75 346.84,-193.48"/>
<polygon fill="midnightblue" stroke="midnightblue" points="346.29,-196.95 356.84,-195.88 347.93,-190.14 346.29,-196.95"/>
</g>
<!-- Node4 -->
<g id="node4" class="node">
<title>Node4</title>
<g id="a_node4"><a xlink:href="ladel__ldl__numeric_8c.html#aca5dec521536dc26881de005cf3b5932" target="_top" xlink:title="Numerical part of the factorization of .">
<polygon fill="white" stroke="black" points="315,-154.5 315,-173.5 470,-173.5 470,-154.5 315,-154.5"/>
<text text-anchor="middle" x="392.5" y="-161.5" font-family="Helvetica,sans-Serif" font-size="10.00">ladel_ldl_numeric_with_diag</text>
</a>
</g>
</g>
<!-- Node2&#45;&gt;Node4 -->
<g id="edge3" class="edge">
<title>Node2&#45;&gt;Node4</title>
<path fill="none" stroke="midnightblue" d="M275.41,-135.04C288.45,-138.33 302.19,-141.79 315,-145 324.07,-147.27 333.74,-149.68 343.05,-152"/>
<polygon fill="midnightblue" stroke="midnightblue" points="342.42,-155.45 352.97,-154.46 344.11,-148.65 342.42,-155.45"/>
</g>
<!-- Node6 -->
<g id="node6" class="node">
<title>Node6</title>
<g id="a_node6"><a xlink:href="ladel__permutation_8c.html#a6fbceb4b665cce4b4397d74516d284a3" target="_top" xlink:title="Compute .">
<polygon fill="white" stroke="black" points="320,-105 320,-135 465,-135 465,-105 320,-105"/>
<text text-anchor="start" x="328" y="-123" font-family="Helvetica,sans-Serif" font-size="10.00">ladel_permute_symmetric</text>
<text text-anchor="middle" x="392.5" y="-112" font-family="Helvetica,sans-Serif" font-size="10.00">_matrix</text>
</a>
</g>
</g>
<!-- Node2&#45;&gt;Node6 -->
<g id="edge5" class="edge">
<title>Node2&#45;&gt;Node6</title>
<path fill="none" stroke="midnightblue" d="M279.36,-120C289.23,-120 299.54,-120 309.75,-120"/>
<polygon fill="midnightblue" stroke="midnightblue" points="309.9,-123.5 319.9,-120 309.9,-116.5 309.9,-123.5"/>
</g>
<!-- Node9 -->
<g id="node9" class="node">
<title>Node9</title>
<g id="a_node9"><a xlink:href="ladel__global_8c.html#a6e485045ec098c0b5a9afe07875a1e59" target="_top" xlink:title="Allocate a sparse matrix.">
<polygon fill="white" stroke="black" points="339,-62.5 339,-81.5 446,-81.5 446,-62.5 339,-62.5"/>
<text text-anchor="middle" x="392.5" y="-69.5" font-family="Helvetica,sans-Serif" font-size="10.00">ladel_sparse_alloc</text>
</a>
</g>
</g>
<!-- Node2&#45;&gt;Node9 -->
<g id="edge8" class="edge">
<title>Node2&#45;&gt;Node9</title>
<path fill="none" stroke="midnightblue" d="M271.05,-104.94C295.39,-98.29 323.65,-90.56 346.68,-84.26"/>
<polygon fill="midnightblue" stroke="midnightblue" points="347.81,-87.58 356.53,-81.56 345.96,-80.83 347.81,-87.58"/>
</g>
<!-- Node12 -->
<g id="node12" class="node">
<title>Node12</title>
<g id="a_node12"><a xlink:href="ladel__global_8c.html#afaa07a7aa3c8517d3853968448b398a0" target="_top" xlink:title="Free a sparse matrix (and return NULL).">
<polygon fill="white" stroke="black" points="517,-0.5 517,-19.5 620,-19.5 620,-0.5 517,-0.5"/>
<text text-anchor="middle" x="568.5" y="-7.5" font-family="Helvetica,sans-Serif" font-size="10.00">ladel_sparse_free</text>
</a>
</g>
</g>
<!-- Node2&#45;&gt;Node12 -->
<g id="edge13" class="edge">
<title>Node2&#45;&gt;Node12</title>
<path fill="none" stroke="midnightblue" d="M233.27,-104.89C252.06,-89.32 283.61,-65.6 315,-53 377.48,-27.91 454.38,-17.46 506.78,-13.11"/>
<polygon fill="midnightblue" stroke="midnightblue" points="507.23,-16.58 516.93,-12.31 506.68,-9.6 507.23,-16.58"/>
</g>
<!-- Node5 -->
<g id="node5" class="node">
<title>Node5</title>
<g id="a_node5"><a xlink:href="ladel__pattern_8c.html#a2f95620dd9c0bb1d33f1dcbdaa9a25b2" target="_top" xlink:title="Computes the pattern of the (next) row in L.">
<polygon fill="white" stroke="black" points="506,-153 506,-183 631,-183 631,-153 506,-153"/>
<text text-anchor="start" x="514" y="-171" font-family="Helvetica,sans-Serif" font-size="10.00">ladel_nonzero_pattern</text>
<text text-anchor="middle" x="568.5" y="-160" font-family="Helvetica,sans-Serif" font-size="10.00">_of_row_in_L</text>
</a>
</g>
</g>
<!-- Node4&#45;&gt;Node5 -->
<g id="edge4" class="edge">
<title>Node4&#45;&gt;Node5</title>
<path fill="none" stroke="midnightblue" d="M470.07,-165.76C478.56,-165.96 487.19,-166.15 495.62,-166.35"/>
<polygon fill="midnightblue" stroke="midnightblue" points="495.71,-169.85 505.78,-166.58 495.87,-162.85 495.71,-169.85"/>
</g>
<!-- Node7 -->
<g id="node7" class="node">
<title>Node7</title>
<g id="a_node7"><a xlink:href="ladel__copy_8c.html#a97ad68065f3cb0241e4a6427e2e196a7" target="_top" xlink:title="Copies a matrix (preallocated)">
<polygon fill="white" stroke="black" points="515,-114.5 515,-133.5 622,-133.5 622,-114.5 515,-114.5"/>
<text text-anchor="middle" x="568.5" y="-121.5" font-family="Helvetica,sans-Serif" font-size="10.00">ladel_sparse_copy</text>
</a>
</g>
</g>
<!-- Node6&#45;&gt;Node7 -->
<g id="edge6" class="edge">
<title>Node6&#45;&gt;Node7</title>
<path fill="none" stroke="midnightblue" d="M465.03,-121.64C478.19,-121.95 491.84,-122.26 504.73,-122.56"/>
<polygon fill="midnightblue" stroke="midnightblue" points="504.79,-126.06 514.87,-122.79 504.95,-119.06 504.79,-126.06"/>
</g>
<!-- Node8 -->
<g id="node8" class="node">
<title>Node8</title>
<g id="a_node8"><a xlink:href="ladel__global_8c.html#a946ae8034525eb6db42d4a166be57968" target="_top" xlink:title="Version of free (for mex or for regular C).">
<polygon fill="white" stroke="black" points="667,-57.5 667,-76.5 732,-76.5 732,-57.5 667,-57.5"/>
<text text-anchor="middle" x="699.5" y="-64.5" font-family="Helvetica,sans-Serif" font-size="10.00">ladel_free</text>
</a>
</g>
</g>
<!-- Node7&#45;&gt;Node8 -->
<g id="edge7" class="edge">
<title>Node7&#45;&gt;Node8</title>
<path fill="none" stroke="midnightblue" d="M605.09,-114.42C613.7,-111.71 622.79,-108.53 631,-105 646.21,-98.46 662.4,-89.42 675.11,-81.8"/>
<polygon fill="midnightblue" stroke="midnightblue" points="676.98,-84.76 683.69,-76.56 673.33,-78.79 676.98,-84.76"/>
</g>
<!-- Node10 -->
<g id="node10" class="node">
<title>Node10</title>
<g id="a_node10"><a xlink:href="ladel__global_8c.html#a15a407b5c8ad9de2faeb93fcd786e099" target="_top" xlink:title="Version of calloc (for mex or for regular C).">
<polygon fill="white" stroke="black" points="531.5,-76.5 531.5,-95.5 605.5,-95.5 605.5,-76.5 531.5,-76.5"/>
<text text-anchor="middle" x="568.5" y="-83.5" font-family="Helvetica,sans-Serif" font-size="10.00">ladel_calloc</text>
</a>
</g>
</g>
<!-- Node9&#45;&gt;Node10 -->
<g id="edge9" class="edge">
<title>Node9&#45;&gt;Node10</title>
<path fill="none" stroke="midnightblue" d="M446.18,-76.24C470.03,-78.16 497.98,-80.41 521.04,-82.26"/>
<polygon fill="midnightblue" stroke="midnightblue" points="521.01,-85.77 531.26,-83.08 521.57,-78.79 521.01,-85.77"/>
</g>
<!-- Node11 -->
<g id="node11" class="node">
<title>Node11</title>
<g id="a_node11"><a xlink:href="ladel__global_8c.html#a86142b1e820a5de1deea8ee656186245" target="_top" xlink:title="Version of malloc (for mex or for regular C).">
<polygon fill="white" stroke="black" points="529,-38.5 529,-57.5 608,-57.5 608,-38.5 529,-38.5"/>
<text text-anchor="middle" x="568.5" y="-45.5" font-family="Helvetica,sans-Serif" font-size="10.00">ladel_malloc</text>
</a>
</g>
</g>
<!-- Node9&#45;&gt;Node11 -->
<g id="edge10" class="edge">
<title>Node9&#45;&gt;Node11</title>
<path fill="none" stroke="midnightblue" d="M446.18,-64.73C469.25,-61.55 496.16,-57.84 518.76,-54.72"/>
<polygon fill="midnightblue" stroke="midnightblue" points="519.39,-58.17 528.82,-53.34 518.43,-51.23 519.39,-58.17"/>
</g>
<!-- Node9&#45;&gt;Node12 -->
<g id="edge11" class="edge">
<title>Node9&#45;&gt;Node12</title>
<path fill="none" stroke="midnightblue" d="M417.04,-62.49C439.69,-53.46 474.97,-39.71 506,-29 512.17,-26.87 518.73,-24.72 525.17,-22.68"/>
<polygon fill="midnightblue" stroke="midnightblue" points="526.63,-25.89 535.13,-19.56 524.54,-19.21 526.63,-25.89"/>
</g>
<!-- Node12&#45;&gt;Node8 -->
<g id="edge12" class="edge">
<title>Node12&#45;&gt;Node8</title>
<path fill="none" stroke="midnightblue" d="M605.09,-19.58C613.7,-22.29 622.79,-25.47 631,-29 646.21,-35.54 662.4,-44.58 675.11,-52.2"/>
<polygon fill="midnightblue" stroke="midnightblue" points="673.33,-55.21 683.69,-57.44 676.98,-49.24 673.33,-55.21"/>
</g>
</g>
</svg>
        <g id="navigator" transform="translate(0 0)" fill="#404254">
                <rect fill="#f2f5e9" fill-opacity="0.5" stroke="#606060" stroke-width=".5" x="0" y="0" width="60" height="60"/>
                <use id="zoomplus" xlink:href="#zoomPlus" x="17" y="9" onmousedown="handleZoom(evt,'in')"/>
                <use id="zoomminus" xlink:href="#zoomMin" x="42" y="9" onmousedown="handleZoom(evt,'out')"/>
                <use id="reset" xlink:href="#resetDef" x="30" y="36" onmousedown="handleReset()"/>
                <g id="arrowUp" xlink:href="#dirArrow" transform="translate(30 24)" onmousedown="handlePan(0,-1)">
                  <use xlink:href="#rim" fill="#404040">
                        <set attributeName="fill" to="#808080" begin="arrowUp.mouseover" end="arrowUp.mouseout"/>
                  </use>
                  <path fill="none" stroke="white" stroke-width="1.5" d="M0,-3.0v7 M-2.5,-0.5L0,-3.0L2.5,-0.5"/>
                </g>
                <g id="arrowRight" xlink:href="#dirArrow" transform="rotate(90) translate(36 -43)" onmousedown="handlePan(1,0)">
                  <use xlink:href="#rim" fill="#404040">
                        <set attributeName="fill" to="#808080" begin="arrowRight.mouseover" end="arrowRight.mouseout"/>
                  </use>
                  <path fill="none" stroke="white" stroke-width="1.5" d="M0,-3.0v7 M-2.5,-0.5L0,-3.0L2.5,-0.5"/>
                </g>
                <g id="arrowDown" xlink:href="#dirArrow" transform="rotate(180) translate(-30 -48)" onmousedown="handlePan(0,1)">
                  <use xlink:href="#rim" fill="#404040">
                        <set attributeName="fill" to="#808080" begin="arrowDown.mouseover" end="arrowDown.mouseout"/>
                  </use>
                  <path fill="none" stroke="white" stroke-width="1.5" d="M0,-3.0v7 M-2.5,-0.5L0,-3.0L2.5,-0.5"/>
                </g>
                <g id="arrowLeft" xlink:href="#dirArrow" transform="rotate(270) translate(-36 17)" onmousedown="handlePan(-1,0)">
                  <use xlink:href="#rim" fill="#404040">
                        <set attributeName="fill" to="#808080" begin="arrowLeft.mouseover" end="arrowLeft.mouseout"/>
                  </use>
                  <path fill="none" stroke="white" stroke-width="1.5" d="M0,-3.0v7 M-2.5,-0.5L0,-3.0L2.5,-0.5"/>
                </g>
        </g>
        <svg viewBox="0 0 15 15" width="100%" height="30px" preserveAspectRatio="xMaxYMin meet">
         <g id="arrow_out" transform="scale(0.3 0.3)">
          <a xlink:href="group__grp-solver_ga90783633564102ca42816a7d23eca63b_cgraph_org.svg" target="_base">
           <rect id="button" ry="5" rx="5" y="6" x="6" height="38" width="38"
                fill="#f2f5e9" fill-opacity="0.5" stroke="#606060" stroke-width="1.0"/>
           <path id="arrow"
             d="M 11.500037,31.436501 C 11.940474,20.09759 22.043105,11.32322 32.158766,21.979434 L 37.068811,17.246167 C 37.068811,17.246167 37.088388,32 37.088388,32 L 22.160133,31.978069 C 22.160133,31.978069 26.997745,27.140456 26.997745,27.140456 C 18.528582,18.264221 13.291696,25.230495 11.500037,31.436501 z"
             style="fill:#404040;"/>
          </a>
         </g>
        </svg>
</svg>
