<?xml version="1.0" encoding="UTF-8" standalone="no"?>
<!DOCTYPE svg PUBLIC "-//W3C//DTD SVG 1.1//EN"
 "http://www.w3.org/Graphics/SVG/1.1/DTD/svg11.dtd">
<!-- Generated by graphviz version 2.43.0 (0)
 -->
<!-- Title: ladel_rank1_update Pages: 1 -->
<svg width="244pt" height="66pt"
 viewBox="0.00 0.00 244.00 66.00" xmlns="http://www.w3.org/2000/svg" xmlns:xlink="http://www.w3.org/1999/xlink">
<g id="graph0" class="graph" transform="scale(1 1) rotate(0) translate(4 62)">
<title>ladel_rank1_update</title>
<polygon fill="white" stroke="transparent" points="-4,4 -4,-62 240,-62 240,4 -4,4"/>
<!-- Node1 -->
<g id="node1" class="node">
<title>Node1</title>
<g id="a_node1"><a xlink:title="Updates an &#160;factorization.">
<polygon fill="#bfbfbf" stroke="black" points="123,-19.5 123,-38.5 236,-38.5 236,-19.5 123,-19.5"/>
<text text-anchor="middle" x="179.5" y="-26.5" font-family="Helvetica,sans-Serif" font-size="10.00">ladel_rank1_update</text>
</a>
</g>
</g>
<!-- Node2 -->
<g id="node2" class="node">
<title>Node2</title>
<g id="a_node2"><a xlink:href="group__grp-solver.html#ga113fd8ef702d93bd92314bd4bc118f24" target="_top" xlink:title="Updates an &#160;factorization.">
<polygon fill="white" stroke="black" points="0,-38.5 0,-57.5 87,-57.5 87,-38.5 0,-38.5"/>
<text text-anchor="middle" x="43.5" y="-45.5" font-family="Helvetica,sans-Serif" font-size="10.00">ladel_row_add</text>
</a>
</g>
</g>
<!-- Node1&#45;&gt;Node2 -->
<g id="edge1" class="edge">
<title>Node1&#45;&gt;Node2</title>
<path fill="none" stroke="midnightblue" d="M112.68,-38.33C103.99,-39.56 95.28,-40.8 87.12,-41.96"/>
<polygon fill="midnightblue" stroke="midnightblue" points="113.43,-41.76 122.84,-36.89 112.44,-34.83 113.43,-41.76"/>
</g>
<!-- Node3 -->
<g id="node3" class="node">
<title>Node3</title>
<g id="a_node3"><a xlink:href="group__grp-solver.html#ga2101ec64af1866138045cb1e35e35ca1" target="_top" xlink:title="Updates an &#160;factorization.">
<polygon fill="white" stroke="black" points="1.5,-0.5 1.5,-19.5 85.5,-19.5 85.5,-0.5 1.5,-0.5"/>
<text text-anchor="middle" x="43.5" y="-7.5" font-family="Helvetica,sans-Serif" font-size="10.00">ladel_row_del</text>
</a>
</g>
</g>
<!-- Node1&#45;&gt;Node3 -->
<g id="edge2" class="edge">
<title>Node1&#45;&gt;Node3</title>
<path fill="none" stroke="midnightblue" d="M112.9,-19.7C103.7,-18.39 94.47,-17.08 85.89,-15.87"/>
<polygon fill="midnightblue" stroke="midnightblue" points="112.44,-23.17 122.84,-21.11 113.43,-16.24 112.44,-23.17"/>
</g>
</g>
</svg>
