<?xml version="1.0" encoding="UTF-8" standalone="no"?>
<!DOCTYPE svg PUBLIC "-//W3C//DTD SVG 1.1//EN"
 "http://www.w3.org/Graphics/SVG/1.1/DTD/svg11.dtd">
<!-- Generated by graphviz version 2.43.0 (0)
 -->
<!-- Title: ladel_factorize Pages: 1 -->
<!--zoomable 606 -->
<svg id="main" version="1.1" xmlns="http://www.w3.org/2000/svg" xmlns:xlink="http://www.w3.org/1999/xlink" xml:space="preserve" onload="init(evt)">
<style type="text/css"><![CDATA[
.edge:hover path { stroke: red; }
.edge:hover polygon { stroke: red; fill: red; }
]]></style>
<script type="text/javascript"><![CDATA[
var edges = document.getElementsByTagName('g');
if (edges && edges.length) {
  for (var i=0;i<edges.length;i++) {
    if (edges[i].id.substr(0,4)=='edge') {
      edges[i].setAttribute('class','edge');
    }
  }
}
]]></script>
        <defs>
                <circle id="rim" cx="0" cy="0" r="7"/>
                <circle id="rim2" cx="0" cy="0" r="3.5"/>
                <g id="zoomPlus">
                        <use xlink:href="#rim" fill="#404040">
                                <set attributeName="fill" to="#808080" begin="zoomplus.mouseover" end="zoomplus.mouseout"/>
                        </use>
                        <path d="M-4,0h8M0,-4v8" fill="none" stroke="white" stroke-width="1.5" pointer-events="none"/>
                </g>
                <g id="zoomMin">
                        <use xlink:href="#rim" fill="#404040">
                                <set attributeName="fill" to="#808080" begin="zoomminus.mouseover" end="zoomminus.mouseout"/>
                        </use>
                        <path d="M-4,0h8" fill="none" stroke="white" stroke-width="1.5" pointer-events="none"/>
                </g>
                <g id="dirArrow">
                        <path fill="none" stroke="white" stroke-width="1.5" d="M0,-3.0v7 M-2.5,-0.5L0,-3.0L2.5,-0.5"/>
                </g>
               <g id="resetDef">
                       <use xlink:href="#rim2" fill="#404040">
                               <set attributeName="fill" to="#808080" begin="reset.mouseover" end="reset.mouseout"/>
                       </use>
               </g>
        </defs>

<script type="text/javascript">
var viewWidth = 1200;
var viewHeight = 606;
var sectionId = 'dynsection-0';
</script>
<script xlink:href="svgpan.js"/>
<svg id="graph" class="graph">
<g id="viewport">
<title>ladel_factorize</title>
<polygon fill="white" stroke="transparent" points="-4,4 -4,-602 1196,-602 1196,4 -4,4"/>
<!-- Node1 -->
<g id="node1" class="node">
<title>Node1</title>
<g id="a_node1"><a xlink:title="Computes the &#160;factorization of .">
<polygon fill="#bfbfbf" stroke="black" points="0,-426.5 0,-445.5 89,-445.5 89,-426.5 0,-426.5"/>
<text text-anchor="middle" x="44.5" y="-433.5" font-family="Helvetica,sans-Serif" font-size="10.00">ladel_factorize</text>
</a>
</g>
</g>
<!-- Node2 -->
<g id="node2" class="node">
<title>Node2</title>
<g id="a_node2"><a xlink:href="group__grp-solver.html#ga129ea878837012c6ac76fb6046bc9449" target="_top" xlink:title="Computes the &#160;factorization of .">
<polygon fill="white" stroke="black" points="125,-426.5 125,-445.5 266,-445.5 266,-426.5 125,-426.5"/>
<text text-anchor="middle" x="195.5" y="-433.5" font-family="Helvetica,sans-Serif" font-size="10.00">ladel_factorize_with_diag</text>
</a>
</g>
</g>
<!-- Node1&#45;&gt;Node2 -->
<g id="edge1" class="edge">
<title>Node1&#45;&gt;Node2</title>
<path fill="none" stroke="midnightblue" d="M89.4,-436C97.42,-436 106.01,-436 114.7,-436"/>
<polygon fill="midnightblue" stroke="midnightblue" points="114.92,-439.5 124.92,-436 114.92,-432.5 114.92,-439.5"/>
</g>
<!-- Node3 -->
<g id="node3" class="node">
<title>Node3</title>
<g id="a_node3"><a xlink:href="ladel__global_8c.html#a968028b68306172d3fb202fb434624a6" target="_top" xlink:title="Allocate a factors struct.">
<polygon fill="white" stroke="black" points="674,-483.5 674,-502.5 793,-502.5 793,-483.5 674,-483.5"/>
<text text-anchor="middle" x="733.5" y="-490.5" font-family="Helvetica,sans-Serif" font-size="10.00">ladel_factor_allocate</text>
</a>
</g>
</g>
<!-- Node2&#45;&gt;Node3 -->
<g id="edge2" class="edge">
<title>Node2&#45;&gt;Node3</title>
<path fill="none" stroke="midnightblue" d="M265.69,-445.51C277.79,-447.08 290.25,-448.63 302,-450 429.62,-464.84 578.89,-479.04 663.9,-486.84"/>
<polygon fill="midnightblue" stroke="midnightblue" points="663.67,-490.33 673.94,-487.76 664.3,-483.36 663.67,-490.33"/>
</g>
<!-- Node7 -->
<g id="node7" class="node">
<title>Node7</title>
<g id="a_node7"><a xlink:href="ladel__global_8c.html#afaa07a7aa3c8517d3853968448b398a0" target="_top" xlink:title="Free a sparse matrix (and return NULL).">
<polygon fill="white" stroke="black" points="988,-350.5 988,-369.5 1091,-369.5 1091,-350.5 988,-350.5"/>
<text text-anchor="middle" x="1039.5" y="-357.5" font-family="Helvetica,sans-Serif" font-size="10.00">ladel_sparse_free</text>
</a>
</g>
</g>
<!-- Node2&#45;&gt;Node7 -->
<g id="edge33" class="edge">
<title>Node2&#45;&gt;Node7</title>
<path fill="none" stroke="midnightblue" d="M266.12,-429.72C427.6,-415.14 825.45,-379.23 977.8,-365.48"/>
<polygon fill="midnightblue" stroke="midnightblue" points="978.26,-368.95 987.91,-364.57 977.63,-361.98 978.26,-368.95"/>
</g>
<!-- Node10 -->
<g id="node10" class="node">
<title>Node10</title>
<g id="a_node10"><a xlink:href="ladel__global_8c.html#a6e485045ec098c0b5a9afe07875a1e59" target="_top" xlink:title="Allocate a sparse matrix.">
<polygon fill="white" stroke="black" points="837,-426.5 837,-445.5 944,-445.5 944,-426.5 837,-426.5"/>
<text text-anchor="middle" x="890.5" y="-433.5" font-family="Helvetica,sans-Serif" font-size="10.00">ladel_sparse_alloc</text>
</a>
</g>
</g>
<!-- Node2&#45;&gt;Node10 -->
<g id="edge32" class="edge">
<title>Node2&#45;&gt;Node10</title>
<path fill="none" stroke="midnightblue" d="M266.12,-436C401.3,-436 697.36,-436 826.81,-436"/>
<polygon fill="midnightblue" stroke="midnightblue" points="826.96,-439.5 836.96,-436 826.96,-432.5 826.96,-439.5"/>
</g>
<!-- Node11 -->
<g id="node11" class="node">
<title>Node11</title>
<g id="a_node11"><a xlink:href="ladel__ldl__numeric_8c.html#aca5dec521536dc26881de005cf3b5932" target="_top" xlink:title="Numerical part of the factorization of .">
<polygon fill="white" stroke="black" points="302,-505.5 302,-524.5 457,-524.5 457,-505.5 302,-505.5"/>
<text text-anchor="middle" x="379.5" y="-512.5" font-family="Helvetica,sans-Serif" font-size="10.00">ladel_ldl_numeric_with_diag</text>
</a>
</g>
</g>
<!-- Node2&#45;&gt;Node11 -->
<g id="edge14" class="edge">
<title>Node2&#45;&gt;Node11</title>
<path fill="none" stroke="midnightblue" d="M214.49,-445.69C235.25,-456.67 270.57,-474.76 302,-488 313.86,-493 327.01,-497.87 339.01,-502.07"/>
<polygon fill="midnightblue" stroke="midnightblue" points="338.17,-505.48 348.76,-505.42 340.45,-498.86 338.17,-505.48"/>
</g>
<!-- Node13 -->
<g id="node13" class="node">
<title>Node13</title>
<g id="a_node13"><a xlink:href="ladel__ldl__symbolic_8c.html#a919feee5783ed6d5ffaff8dff6546976" target="_top" xlink:title="Symbolic part of the factorization.">
<polygon fill="white" stroke="black" points="326,-156.5 326,-175.5 433,-175.5 433,-156.5 326,-156.5"/>
<text text-anchor="middle" x="379.5" y="-163.5" font-family="Helvetica,sans-Serif" font-size="10.00">ladel_ldl_symbolic</text>
</a>
</g>
</g>
<!-- Node2&#45;&gt;Node13 -->
<g id="edge16" class="edge">
<title>Node2&#45;&gt;Node13</title>
<path fill="none" stroke="midnightblue" d="M202.98,-426.39C229.62,-386.87 331,-236.46 366.3,-184.1"/>
<polygon fill="midnightblue" stroke="midnightblue" points="369.22,-186.02 371.91,-175.78 363.42,-182.11 369.22,-186.02"/>
</g>
<!-- Node4 -->
<g id="node4" class="node">
<title>Node4</title>
<g id="a_node4"><a xlink:href="ladel__global_8c.html#a15a407b5c8ad9de2faeb93fcd786e099" target="_top" xlink:title="Version of calloc (for mex or for regular C).">
<polygon fill="white" stroke="black" points="1002.5,-464.5 1002.5,-483.5 1076.5,-483.5 1076.5,-464.5 1002.5,-464.5"/>
<text text-anchor="middle" x="1039.5" y="-471.5" font-family="Helvetica,sans-Serif" font-size="10.00">ladel_calloc</text>
</a>
</g>
</g>
<!-- Node3&#45;&gt;Node4 -->
<g id="edge3" class="edge">
<title>Node3&#45;&gt;Node4</title>
<path fill="none" stroke="midnightblue" d="M752.33,-502.58C770.88,-511.96 801.05,-525.59 829,-531 882.67,-541.39 899.64,-546.7 952,-531 978.41,-523.08 1004.2,-504.21 1020.65,-490.34"/>
<polygon fill="midnightblue" stroke="midnightblue" points="1023.11,-492.84 1028.35,-483.63 1018.52,-487.56 1023.11,-492.84"/>
</g>
<!-- Node5 -->
<g id="node5" class="node">
<title>Node5</title>
<g id="a_node5"><a xlink:href="ladel__global_8c.html#a2c4e8897e9da3b9463281d19e0971ed5" target="_top" xlink:title="Free a factor.">
<polygon fill="white" stroke="black" points="841,-502.5 841,-521.5 940,-521.5 940,-502.5 841,-502.5"/>
<text text-anchor="middle" x="890.5" y="-509.5" font-family="Helvetica,sans-Serif" font-size="10.00">ladel_factor_free</text>
</a>
</g>
</g>
<!-- Node3&#45;&gt;Node5 -->
<g id="edge4" class="edge">
<title>Node3&#45;&gt;Node5</title>
<path fill="none" stroke="midnightblue" d="M793.1,-500.18C805.42,-501.69 818.43,-503.29 830.75,-504.8"/>
<polygon fill="midnightblue" stroke="midnightblue" points="830.57,-508.3 840.92,-506.05 831.42,-501.35 830.57,-508.3"/>
</g>
<!-- Node8 -->
<g id="node8" class="node">
<title>Node8</title>
<g id="a_node8"><a xlink:href="ladel__copy_8c.html#ab0af0935fc38b50643d179802695ac74" target="_top" xlink:title="Copies an integer vector (preallocated)">
<polygon fill="white" stroke="black" points="829,-578.5 829,-597.5 952,-597.5 952,-578.5 829,-578.5"/>
<text text-anchor="middle" x="890.5" y="-585.5" font-family="Helvetica,sans-Serif" font-size="10.00">ladel_int_vector_copy</text>
</a>
</g>
</g>
<!-- Node3&#45;&gt;Node8 -->
<g id="edge8" class="edge">
<title>Node3&#45;&gt;Node8</title>
<path fill="none" stroke="midnightblue" d="M745.18,-502.55C762.03,-517.24 796.24,-545.63 829,-564 836,-567.92 843.77,-571.52 851.35,-574.66"/>
<polygon fill="midnightblue" stroke="midnightblue" points="850.18,-577.97 860.77,-578.4 852.76,-571.46 850.18,-577.97"/>
</g>
<!-- Node9 -->
<g id="node9" class="node">
<title>Node9</title>
<g id="a_node9"><a xlink:href="ladel__global_8c.html#a86142b1e820a5de1deea8ee656186245" target="_top" xlink:title="Version of malloc (for mex or for regular C).">
<polygon fill="white" stroke="black" points="1000,-426.5 1000,-445.5 1079,-445.5 1079,-426.5 1000,-426.5"/>
<text text-anchor="middle" x="1039.5" y="-433.5" font-family="Helvetica,sans-Serif" font-size="10.00">ladel_malloc</text>
</a>
</g>
</g>
<!-- Node3&#45;&gt;Node9 -->
<g id="edge9" class="edge">
<title>Node3&#45;&gt;Node9</title>
<path fill="none" stroke="midnightblue" d="M793.25,-483.44C837.09,-476.14 898.41,-465.56 952,-455 964.26,-452.58 977.45,-449.79 989.74,-447.1"/>
<polygon fill="midnightblue" stroke="midnightblue" points="990.81,-450.44 999.82,-444.87 989.3,-443.61 990.81,-450.44"/>
</g>
<!-- Node3&#45;&gt;Node10 -->
<g id="edge10" class="edge">
<title>Node3&#45;&gt;Node10</title>
<path fill="none" stroke="midnightblue" d="M760.44,-483.46C786.04,-474.05 825.36,-459.59 853.88,-449.1"/>
<polygon fill="midnightblue" stroke="midnightblue" points="855.29,-452.31 863.47,-445.57 852.88,-445.74 855.29,-452.31"/>
</g>
<!-- Node6 -->
<g id="node6" class="node">
<title>Node6</title>
<g id="a_node6"><a xlink:href="ladel__global_8c.html#a946ae8034525eb6db42d4a166be57968" target="_top" xlink:title="Version of free (for mex or for regular C).">
<polygon fill="white" stroke="black" points="1127,-274.5 1127,-293.5 1192,-293.5 1192,-274.5 1127,-274.5"/>
<text text-anchor="middle" x="1159.5" y="-281.5" font-family="Helvetica,sans-Serif" font-size="10.00">ladel_free</text>
</a>
</g>
</g>
<!-- Node5&#45;&gt;Node6 -->
<g id="edge5" class="edge">
<title>Node5&#45;&gt;Node6</title>
<path fill="none" stroke="midnightblue" d="M940.1,-521.18C984.27,-526.61 1048.82,-526.88 1091,-493 1149.82,-445.76 1158.04,-346.69 1158.74,-304.13"/>
<polygon fill="midnightblue" stroke="midnightblue" points="1162.24,-303.95 1158.77,-293.94 1155.24,-303.92 1162.24,-303.95"/>
</g>
<!-- Node5&#45;&gt;Node7 -->
<g id="edge6" class="edge">
<title>Node5&#45;&gt;Node7</title>
<path fill="none" stroke="midnightblue" d="M902.45,-502.15C914.75,-490.98 935.21,-472.08 952,-455 977.88,-428.67 1006.45,-396.68 1023.42,-377.35"/>
<polygon fill="midnightblue" stroke="midnightblue" points="1026.19,-379.49 1030.14,-369.66 1020.92,-374.89 1026.19,-379.49"/>
</g>
<!-- Node7&#45;&gt;Node6 -->
<g id="edge7" class="edge">
<title>Node7&#45;&gt;Node6</title>
<path fill="none" stroke="midnightblue" d="M1055.44,-350.37C1075.57,-337.41 1111.59,-314.21 1135.27,-298.96"/>
<polygon fill="midnightblue" stroke="midnightblue" points="1137.16,-301.9 1143.68,-293.55 1133.37,-296.02 1137.16,-301.9"/>
</g>
<!-- Node10&#45;&gt;Node4 -->
<g id="edge11" class="edge">
<title>Node10&#45;&gt;Node4</title>
<path fill="none" stroke="midnightblue" d="M928.59,-445.59C948.04,-450.62 972.03,-456.82 992.63,-462.14"/>
<polygon fill="midnightblue" stroke="midnightblue" points="991.88,-465.56 1002.43,-464.68 993.63,-458.79 991.88,-465.56"/>
</g>
<!-- Node10&#45;&gt;Node7 -->
<g id="edge13" class="edge">
<title>Node10&#45;&gt;Node7</title>
<path fill="none" stroke="midnightblue" d="M910.12,-426.37C935.63,-413.18 981.65,-389.39 1011.1,-374.17"/>
<polygon fill="midnightblue" stroke="midnightblue" points="1012.76,-377.25 1020.03,-369.55 1009.54,-371.03 1012.76,-377.25"/>
</g>
<!-- Node10&#45;&gt;Node9 -->
<g id="edge12" class="edge">
<title>Node10&#45;&gt;Node9</title>
<path fill="none" stroke="midnightblue" d="M944.16,-436C958.87,-436 974.8,-436 989.31,-436"/>
<polygon fill="midnightblue" stroke="midnightblue" points="989.59,-439.5 999.59,-436 989.59,-432.5 989.59,-439.5"/>
</g>
<!-- Node12 -->
<g id="node12" class="node">
<title>Node12</title>
<g id="a_node12"><a xlink:href="ladel__pattern_8c.html#a2f95620dd9c0bb1d33f1dcbdaa9a25b2" target="_top" xlink:title="Computes the pattern of the (next) row in L.">
<polygon fill="white" stroke="black" points="503,-503 503,-533 628,-533 628,-503 503,-503"/>
<text text-anchor="start" x="511" y="-521" font-family="Helvetica,sans-Serif" font-size="10.00">ladel_nonzero_pattern</text>
<text text-anchor="middle" x="565.5" y="-510" font-family="Helvetica,sans-Serif" font-size="10.00">_of_row_in_L</text>
</a>
</g>
</g>
<!-- Node11&#45;&gt;Node12 -->
<g id="edge15" class="edge">
<title>Node11&#45;&gt;Node12</title>
<path fill="none" stroke="midnightblue" d="M457.2,-516.25C468.95,-516.44 481.03,-516.64 492.67,-516.83"/>
<polygon fill="midnightblue" stroke="midnightblue" points="492.7,-520.33 502.76,-516.99 492.81,-513.33 492.7,-520.33"/>
</g>
<!-- Node13&#45;&gt;Node6 -->
<g id="edge26" class="edge">
<title>Node13&#45;&gt;Node6</title>
<path fill="none" stroke="midnightblue" d="M398.2,-175.67C419.85,-186.99 457.96,-205.3 493,-214 596.67,-239.73 625.69,-234 732.5,-234 732.5,-234 732.5,-234 891.5,-234 973.07,-234 1066.3,-256.83 1118.2,-271.63"/>
<polygon fill="midnightblue" stroke="midnightblue" points="1117.43,-275.05 1128.01,-274.48 1119.38,-268.33 1117.43,-275.05"/>
</g>
<!-- Node14 -->
<g id="node14" class="node">
<title>Node14</title>
<g id="a_node14"><a xlink:href="ladel__col__counts_8c.html#aa7284697012b8c3de4cece3e31915488" target="_top" xlink:title="Computes the column counts of the factor.">
<polygon fill="white" stroke="black" points="516.5,-290.5 516.5,-309.5 614.5,-309.5 614.5,-290.5 516.5,-290.5"/>
<text text-anchor="middle" x="565.5" y="-297.5" font-family="Helvetica,sans-Serif" font-size="10.00">ladel_col_counts</text>
</a>
</g>
</g>
<!-- Node13&#45;&gt;Node14 -->
<g id="edge17" class="edge">
<title>Node13&#45;&gt;Node14</title>
<path fill="none" stroke="midnightblue" d="M393.66,-175.6C414.66,-190.91 457.05,-221.82 493,-248 509.85,-260.27 528.95,-274.16 543.16,-284.49"/>
<polygon fill="midnightblue" stroke="midnightblue" points="541.17,-287.37 551.32,-290.42 545.29,-281.71 541.17,-287.37"/>
</g>
<!-- Node17 -->
<g id="node17" class="node">
<title>Node17</title>
<g id="a_node17"><a xlink:href="ladel__etree_8c.html#ab727c0337acfd3e083ce6d8424ea6a6b" target="_top" xlink:title="Computes the elimination tree of a matrix.">
<polygon fill="white" stroke="black" points="530,-0.5 530,-19.5 601,-19.5 601,-0.5 530,-0.5"/>
<text text-anchor="middle" x="565.5" y="-7.5" font-family="Helvetica,sans-Serif" font-size="10.00">ladel_etree</text>
</a>
</g>
</g>
<!-- Node13&#45;&gt;Node17 -->
<g id="edge24" class="edge">
<title>Node13&#45;&gt;Node17</title>
<path fill="none" stroke="midnightblue" d="M385.6,-156.29C399.32,-131.11 439.68,-63.29 493,-29 501.18,-23.74 510.77,-19.93 520.23,-17.17"/>
<polygon fill="midnightblue" stroke="midnightblue" points="521.16,-20.55 529.97,-14.66 519.41,-13.77 521.16,-20.55"/>
</g>
<!-- Node18 -->
<g id="node18" class="node">
<title>Node18</title>
<g id="a_node18"><a xlink:href="ladel__etree_8c.html#a4c37cc6c6df89960c5b39d28677d88a8" target="_top" xlink:title="Computes the elimination tree and column counts of a matrix.">
<polygon fill="white" stroke="black" points="508.5,-175 508.5,-205 622.5,-205 622.5,-175 508.5,-175"/>
<text text-anchor="start" x="516.5" y="-193" font-family="Helvetica,sans-Serif" font-size="10.00">ladel_etree_and_col</text>
<text text-anchor="middle" x="565.5" y="-182" font-family="Helvetica,sans-Serif" font-size="10.00">_counts</text>
</a>
</g>
</g>
<!-- Node13&#45;&gt;Node18 -->
<g id="edge25" class="edge">
<title>Node13&#45;&gt;Node18</title>
<path fill="none" stroke="midnightblue" d="M433.23,-172.88C453.49,-175.52 476.88,-178.57 498.25,-181.36"/>
<polygon fill="midnightblue" stroke="midnightblue" points="497.86,-184.84 508.23,-182.66 498.77,-177.9 497.86,-184.84"/>
</g>
<!-- Node19 -->
<g id="node19" class="node">
<title>Node19</title>
<g id="a_node19"><a xlink:href="ladel__permutation_8c.html#ad4cf169953176bf72a9cf454dfd42712" target="_top" xlink:title="Invert a permutation vector, such that .">
<polygon fill="white" stroke="black" points="495.5,-126 495.5,-156 635.5,-156 635.5,-126 495.5,-126"/>
<text text-anchor="start" x="503.5" y="-144" font-family="Helvetica,sans-Serif" font-size="10.00">ladel_invert_permutation</text>
<text text-anchor="middle" x="565.5" y="-133" font-family="Helvetica,sans-Serif" font-size="10.00">_vector</text>
</a>
</g>
</g>
<!-- Node13&#45;&gt;Node19 -->
<g id="edge27" class="edge">
<title>Node13&#45;&gt;Node19</title>
<path fill="none" stroke="midnightblue" d="M433.23,-158.84C449.38,-156.64 467.53,-154.18 485.06,-151.79"/>
<polygon fill="midnightblue" stroke="midnightblue" points="485.85,-155.22 495.28,-150.4 484.9,-148.28 485.85,-155.22"/>
</g>
<!-- Node20 -->
<g id="node20" class="node">
<title>Node20</title>
<g id="a_node20"><a xlink:href="ladel__permutation_8c.html#a6fbceb4b665cce4b4397d74516d284a3" target="_top" xlink:title="Compute .">
<polygon fill="white" stroke="black" points="493,-77 493,-107 638,-107 638,-77 493,-77"/>
<text text-anchor="start" x="501" y="-95" font-family="Helvetica,sans-Serif" font-size="10.00">ladel_permute_symmetric</text>
<text text-anchor="middle" x="565.5" y="-84" font-family="Helvetica,sans-Serif" font-size="10.00">_matrix</text>
</a>
</g>
</g>
<!-- Node13&#45;&gt;Node20 -->
<g id="edge28" class="edge">
<title>Node13&#45;&gt;Node20</title>
<path fill="none" stroke="midnightblue" d="M400.58,-156.39C422.9,-145.86 460.13,-128.79 493,-116 497.76,-114.15 502.73,-112.3 507.73,-110.51"/>
<polygon fill="midnightblue" stroke="midnightblue" points="509.08,-113.74 517.35,-107.12 506.76,-107.14 509.08,-113.74"/>
</g>
<!-- Node22 -->
<g id="node22" class="node">
<title>Node22</title>
<g id="a_node22"><a xlink:href="ladel__postorder_8c.html#ab60514b7b1353408852e59f09677016d" target="_top" xlink:title="Compute the postordering of the elimination tree.">
<polygon fill="white" stroke="black" points="519.5,-38.5 519.5,-57.5 611.5,-57.5 611.5,-38.5 519.5,-38.5"/>
<text text-anchor="middle" x="565.5" y="-45.5" font-family="Helvetica,sans-Serif" font-size="10.00">ladel_postorder</text>
</a>
</g>
</g>
<!-- Node13&#45;&gt;Node22 -->
<g id="edge31" class="edge">
<title>Node13&#45;&gt;Node22</title>
<path fill="none" stroke="midnightblue" d="M388.47,-156.5C405.54,-136.76 447.79,-91.15 493,-67 498.23,-64.21 503.89,-61.81 509.66,-59.74"/>
<polygon fill="midnightblue" stroke="midnightblue" points="510.99,-62.99 519.43,-56.58 508.84,-56.33 510.99,-62.99"/>
</g>
<!-- Node14&#45;&gt;Node7 -->
<g id="edge19" class="edge">
<title>Node14&#45;&gt;Node7</title>
<path fill="none" stroke="midnightblue" d="M614.66,-305.09C687.72,-312.97 830.86,-328.98 952,-346 960.34,-347.17 969.11,-348.49 977.75,-349.84"/>
<polygon fill="midnightblue" stroke="midnightblue" points="977.36,-353.32 987.78,-351.43 978.45,-346.41 977.36,-353.32"/>
</g>
<!-- Node15 -->
<g id="node15" class="node">
<title>Node15</title>
<g id="a_node15"><a xlink:href="ladel__col__counts_8c.html#a83727639c00ef21d2af7ccda5f116881" target="_top" xlink:title=" ">
<polygon fill="white" stroke="black" points="674.5,-263 674.5,-293 792.5,-293 792.5,-263 674.5,-263"/>
<text text-anchor="start" x="682.5" y="-281" font-family="Helvetica,sans-Serif" font-size="10.00">ladel_least_common</text>
<text text-anchor="middle" x="733.5" y="-270" font-family="Helvetica,sans-Serif" font-size="10.00">_ancestor</text>
</a>
</g>
</g>
<!-- Node14&#45;&gt;Node15 -->
<g id="edge18" class="edge">
<title>Node14&#45;&gt;Node15</title>
<path fill="none" stroke="midnightblue" d="M614.51,-293.64C629.98,-291.59 647.42,-289.28 664.06,-287.07"/>
<polygon fill="midnightblue" stroke="midnightblue" points="664.84,-290.5 674.29,-285.71 663.92,-283.56 664.84,-290.5"/>
</g>
<!-- Node16 -->
<g id="node16" class="node">
<title>Node16</title>
<g id="a_node16"><a xlink:href="ladel__transpose_8c.html#a8b00613708b897c9dbcd292dc9b89ed8" target="_top" xlink:title="Returns the transpose of a matrix, that is .">
<polygon fill="white" stroke="black" points="686.5,-350.5 686.5,-369.5 780.5,-369.5 780.5,-350.5 686.5,-350.5"/>
<text text-anchor="middle" x="733.5" y="-357.5" font-family="Helvetica,sans-Serif" font-size="10.00">ladel_transpose</text>
</a>
</g>
</g>
<!-- Node14&#45;&gt;Node16 -->
<g id="edge20" class="edge">
<title>Node14&#45;&gt;Node16</title>
<path fill="none" stroke="midnightblue" d="M592.8,-309.51C620.77,-319.62 665.18,-335.67 696.41,-346.95"/>
<polygon fill="midnightblue" stroke="midnightblue" points="695.45,-350.33 706.05,-350.44 697.83,-343.75 695.45,-350.33"/>
</g>
<!-- Node16&#45;&gt;Node6 -->
<g id="edge21" class="edge">
<title>Node16&#45;&gt;Node6</title>
<path fill="none" stroke="midnightblue" d="M780.68,-351.72C863.67,-336.85 1036.77,-305.82 1116.57,-291.52"/>
<polygon fill="midnightblue" stroke="midnightblue" points="1117.51,-294.9 1126.73,-289.69 1116.27,-288.01 1117.51,-294.9"/>
</g>
<!-- Node16&#45;&gt;Node9 -->
<g id="edge22" class="edge">
<title>Node16&#45;&gt;Node9</title>
<path fill="none" stroke="midnightblue" d="M772.69,-369.55C827.87,-383.34 929.85,-408.84 990.19,-423.92"/>
<polygon fill="midnightblue" stroke="midnightblue" points="989.67,-427.4 1000.22,-426.43 991.37,-420.61 989.67,-427.4"/>
</g>
<!-- Node16&#45;&gt;Node10 -->
<g id="edge23" class="edge">
<title>Node16&#45;&gt;Node10</title>
<path fill="none" stroke="midnightblue" d="M750.57,-369.65C769.12,-380.6 800.71,-398.67 829,-412 836.93,-415.74 845.62,-419.42 853.87,-422.73"/>
<polygon fill="midnightblue" stroke="midnightblue" points="852.7,-426.03 863.29,-426.43 855.26,-419.51 852.7,-426.03"/>
</g>
<!-- Node21 -->
<g id="node21" class="node">
<title>Node21</title>
<g id="a_node21"><a xlink:href="ladel__copy_8c.html#a97ad68065f3cb0241e4a6427e2e196a7" target="_top" xlink:title="Copies a matrix (preallocated)">
<polygon fill="white" stroke="black" points="837,-121.5 837,-140.5 944,-140.5 944,-121.5 837,-121.5"/>
<text text-anchor="middle" x="890.5" y="-128.5" font-family="Helvetica,sans-Serif" font-size="10.00">ladel_sparse_copy</text>
</a>
</g>
</g>
<!-- Node20&#45;&gt;Node21 -->
<g id="edge29" class="edge">
<title>Node20&#45;&gt;Node21</title>
<path fill="none" stroke="midnightblue" d="M638.18,-100.66C694.67,-107.48 772.64,-116.89 826.7,-123.42"/>
<polygon fill="midnightblue" stroke="midnightblue" points="826.49,-126.92 836.84,-124.64 827.33,-119.97 826.49,-126.92"/>
</g>
<!-- Node21&#45;&gt;Node6 -->
<g id="edge30" class="edge">
<title>Node21&#45;&gt;Node6</title>
<path fill="none" stroke="midnightblue" d="M920.83,-140.54C961.19,-154.43 1035.19,-182.7 1091,-220 1110.98,-233.35 1130.54,-252.8 1143.41,-266.75"/>
<polygon fill="midnightblue" stroke="midnightblue" points="1140.88,-269.17 1150.18,-274.25 1146.07,-264.48 1140.88,-269.17"/>
</g>
</g>
</svg>
        <g id="navigator" transform="translate(0 0)" fill="#404254">
                <rect fill="#f2f5e9" fill-opacity="0.5" stroke="#606060" stroke-width=".5" x="0" y="0" width="60" height="60"/>
                <use id="zoomplus" xlink:href="#zoomPlus" x="17" y="9" onmousedown="handleZoom(evt,'in')"/>
                <use id="zoomminus" xlink:href="#zoomMin" x="42" y="9" onmousedown="handleZoom(evt,'out')"/>
                <use id="reset" xlink:href="#resetDef" x="30" y="36" onmousedown="handleReset()"/>
                <g id="arrowUp" xlink:href="#dirArrow" transform="translate(30 24)" onmousedown="handlePan(0,-1)">
                  <use xlink:href="#rim" fill="#404040">
                        <set attributeName="fill" to="#808080" begin="arrowUp.mouseover" end="arrowUp.mouseout"/>
                  </use>
                  <path fill="none" stroke="white" stroke-width="1.5" d="M0,-3.0v7 M-2.5,-0.5L0,-3.0L2.5,-0.5"/>
                </g>
                <g id="arrowRight" xlink:href="#dirArrow" transform="rotate(90) translate(36 -43)" onmousedown="handlePan(1,0)">
                  <use xlink:href="#rim" fill="#404040">
                        <set attributeName="fill" to="#808080" begin="arrowRight.mouseover" end="arrowRight.mouseout"/>
                  </use>
                  <path fill="none" stroke="white" stroke-width="1.5" d="M0,-3.0v7 M-2.5,-0.5L0,-3.0L2.5,-0.5"/>
                </g>
                <g id="arrowDown" xlink:href="#dirArrow" transform="rotate(180) translate(-30 -48)" onmousedown="handlePan(0,1)">
                  <use xlink:href="#rim" fill="#404040">
                        <set attributeName="fill" to="#808080" begin="arrowDown.mouseover" end="arrowDown.mouseout"/>
                  </use>
                  <path fill="none" stroke="white" stroke-width="1.5" d="M0,-3.0v7 M-2.5,-0.5L0,-3.0L2.5,-0.5"/>
                </g>
                <g id="arrowLeft" xlink:href="#dirArrow" transform="rotate(270) translate(-36 17)" onmousedown="handlePan(-1,0)">
                  <use xlink:href="#rim" fill="#404040">
                        <set attributeName="fill" to="#808080" begin="arrowLeft.mouseover" end="arrowLeft.mouseout"/>
                  </use>
                  <path fill="none" stroke="white" stroke-width="1.5" d="M0,-3.0v7 M-2.5,-0.5L0,-3.0L2.5,-0.5"/>
                </g>
        </g>
        <svg viewBox="0 0 15 15" width="100%" height="30px" preserveAspectRatio="xMaxYMin meet">
         <g id="arrow_out" transform="scale(0.3 0.3)">
          <a xlink:href="group__grp-solver_ga6167c294e588fe34776d40e53c6ddbc9_cgraph_org.svg" target="_base">
           <rect id="button" ry="5" rx="5" y="6" x="6" height="38" width="38"
                fill="#f2f5e9" fill-opacity="0.5" stroke="#606060" stroke-width="1.0"/>
           <path id="arrow"
             d="M 11.500037,31.436501 C 11.940474,20.09759 22.043105,11.32322 32.158766,21.979434 L 37.068811,17.246167 C 37.068811,17.246167 37.088388,32 37.088388,32 L 22.160133,31.978069 C 22.160133,31.978069 26.997745,27.140456 26.997745,27.140456 C 18.528582,18.264221 13.291696,25.230495 11.500037,31.436501 z"
             style="fill:#404040;"/>
          </a>
         </g>
        </svg>
</svg>
