<?xml version="1.0" encoding="UTF-8" standalone="no"?>
<!DOCTYPE svg PUBLIC "-//W3C//DTD SVG 1.1//EN"
 "http://www.w3.org/Graphics/SVG/1.1/DTD/svg11.dtd">
<!-- Generated by graphviz version 2.43.0 (0)
 -->
<!-- Title: ladel_factorize_with_prior_basis_with_diag Pages: 1 -->
<svg width="589pt" height="220pt"
 viewBox="0.00 0.00 589.00 220.00" xmlns="http://www.w3.org/2000/svg" xmlns:xlink="http://www.w3.org/1999/xlink">
<g id="graph0" class="graph" transform="scale(1 1) rotate(0) translate(4 216)">
<title>ladel_factorize_with_prior_basis_with_diag</title>
<polygon fill="white" stroke="transparent" points="-4,4 -4,-216 585,-216 585,4 -4,4"/>
<!-- Node1 -->
<g id="node1" class="node">
<title>Node1</title>
<g id="a_node1"><a xlink:title="Computes the &#160;factorization of &#160;provided LD was allocated before.">
<polygon fill="#bfbfbf" stroke="black" points="0,-105 0,-135 128,-135 128,-105 0,-105"/>
<text text-anchor="start" x="8" y="-123" font-family="Helvetica,sans-Serif" font-size="10.00">ladel_factorize_with</text>
<text text-anchor="middle" x="64" y="-112" font-family="Helvetica,sans-Serif" font-size="10.00">_prior_basis_with_diag</text>
</a>
</g>
</g>
<!-- Node2 -->
<g id="node2" class="node">
<title>Node2</title>
<g id="a_node2"><a xlink:href="ladel__etree_8c.html#ab727c0337acfd3e083ce6d8424ea6a6b" target="_top" xlink:title="Computes the elimination tree of a matrix.">
<polygon fill="white" stroke="black" points="206,-192.5 206,-211.5 277,-211.5 277,-192.5 206,-192.5"/>
<text text-anchor="middle" x="241.5" y="-199.5" font-family="Helvetica,sans-Serif" font-size="10.00">ladel_etree</text>
</a>
</g>
</g>
<!-- Node1&#45;&gt;Node2 -->
<g id="edge1" class="edge">
<title>Node1&#45;&gt;Node2</title>
<path fill="none" stroke="midnightblue" d="M84.41,-135.05C103.64,-149.29 134.42,-170.31 164,-183 174.01,-187.29 185.18,-190.75 195.84,-193.48"/>
<polygon fill="midnightblue" stroke="midnightblue" points="195.29,-196.95 205.84,-195.88 196.93,-190.14 195.29,-196.95"/>
</g>
<!-- Node3 -->
<g id="node3" class="node">
<title>Node3</title>
<g id="a_node3"><a xlink:href="ladel__ldl__numeric_8c.html#aca5dec521536dc26881de005cf3b5932" target="_top" xlink:title="Numerical part of the factorization of .">
<polygon fill="white" stroke="black" points="164,-154.5 164,-173.5 319,-173.5 319,-154.5 164,-154.5"/>
<text text-anchor="middle" x="241.5" y="-161.5" font-family="Helvetica,sans-Serif" font-size="10.00">ladel_ldl_numeric_with_diag</text>
</a>
</g>
</g>
<!-- Node1&#45;&gt;Node3 -->
<g id="edge2" class="edge">
<title>Node1&#45;&gt;Node3</title>
<path fill="none" stroke="midnightblue" d="M124.41,-135.04C137.45,-138.33 151.19,-141.79 164,-145 173.07,-147.27 182.74,-149.68 192.05,-152"/>
<polygon fill="midnightblue" stroke="midnightblue" points="191.42,-155.45 201.97,-154.46 193.11,-148.65 191.42,-155.45"/>
</g>
<!-- Node5 -->
<g id="node5" class="node">
<title>Node5</title>
<g id="a_node5"><a xlink:href="ladel__permutation_8c.html#a6fbceb4b665cce4b4397d74516d284a3" target="_top" xlink:title="Compute .">
<polygon fill="white" stroke="black" points="169,-105 169,-135 314,-135 314,-105 169,-105"/>
<text text-anchor="start" x="177" y="-123" font-family="Helvetica,sans-Serif" font-size="10.00">ladel_permute_symmetric</text>
<text text-anchor="middle" x="241.5" y="-112" font-family="Helvetica,sans-Serif" font-size="10.00">_matrix</text>
</a>
</g>
</g>
<!-- Node1&#45;&gt;Node5 -->
<g id="edge4" class="edge">
<title>Node1&#45;&gt;Node5</title>
<path fill="none" stroke="midnightblue" d="M128.36,-120C138.23,-120 148.54,-120 158.75,-120"/>
<polygon fill="midnightblue" stroke="midnightblue" points="158.9,-123.5 168.9,-120 158.9,-116.5 158.9,-123.5"/>
</g>
<!-- Node8 -->
<g id="node8" class="node">
<title>Node8</title>
<g id="a_node8"><a xlink:href="ladel__global_8c.html#a6e485045ec098c0b5a9afe07875a1e59" target="_top" xlink:title="Allocate a sparse matrix.">
<polygon fill="white" stroke="black" points="188,-62.5 188,-81.5 295,-81.5 295,-62.5 188,-62.5"/>
<text text-anchor="middle" x="241.5" y="-69.5" font-family="Helvetica,sans-Serif" font-size="10.00">ladel_sparse_alloc</text>
</a>
</g>
</g>
<!-- Node1&#45;&gt;Node8 -->
<g id="edge7" class="edge">
<title>Node1&#45;&gt;Node8</title>
<path fill="none" stroke="midnightblue" d="M120.05,-104.94C144.39,-98.29 172.65,-90.56 195.68,-84.26"/>
<polygon fill="midnightblue" stroke="midnightblue" points="196.81,-87.58 205.53,-81.56 194.96,-80.83 196.81,-87.58"/>
</g>
<!-- Node11 -->
<g id="node11" class="node">
<title>Node11</title>
<g id="a_node11"><a xlink:href="ladel__global_8c.html#afaa07a7aa3c8517d3853968448b398a0" target="_top" xlink:title="Free a sparse matrix (and return NULL).">
<polygon fill="white" stroke="black" points="366,-0.5 366,-19.5 469,-19.5 469,-0.5 366,-0.5"/>
<text text-anchor="middle" x="417.5" y="-7.5" font-family="Helvetica,sans-Serif" font-size="10.00">ladel_sparse_free</text>
</a>
</g>
</g>
<!-- Node1&#45;&gt;Node11 -->
<g id="edge12" class="edge">
<title>Node1&#45;&gt;Node11</title>
<path fill="none" stroke="midnightblue" d="M82.27,-104.89C101.06,-89.32 132.61,-65.6 164,-53 226.48,-27.91 303.38,-17.46 355.78,-13.11"/>
<polygon fill="midnightblue" stroke="midnightblue" points="356.23,-16.58 365.93,-12.31 355.68,-9.6 356.23,-16.58"/>
</g>
<!-- Node4 -->
<g id="node4" class="node">
<title>Node4</title>
<g id="a_node4"><a xlink:href="ladel__pattern_8c.html#a2f95620dd9c0bb1d33f1dcbdaa9a25b2" target="_top" xlink:title="Computes the pattern of the (next) row in L.">
<polygon fill="white" stroke="black" points="355,-153 355,-183 480,-183 480,-153 355,-153"/>
<text text-anchor="start" x="363" y="-171" font-family="Helvetica,sans-Serif" font-size="10.00">ladel_nonzero_pattern</text>
<text text-anchor="middle" x="417.5" y="-160" font-family="Helvetica,sans-Serif" font-size="10.00">_of_row_in_L</text>
</a>
</g>
</g>
<!-- Node3&#45;&gt;Node4 -->
<g id="edge3" class="edge">
<title>Node3&#45;&gt;Node4</title>
<path fill="none" stroke="midnightblue" d="M319.07,-165.76C327.56,-165.96 336.19,-166.15 344.62,-166.35"/>
<polygon fill="midnightblue" stroke="midnightblue" points="344.71,-169.85 354.78,-166.58 344.87,-162.85 344.71,-169.85"/>
</g>
<!-- Node6 -->
<g id="node6" class="node">
<title>Node6</title>
<g id="a_node6"><a xlink:href="ladel__copy_8c.html#a97ad68065f3cb0241e4a6427e2e196a7" target="_top" xlink:title="Copies a matrix (preallocated)">
<polygon fill="white" stroke="black" points="364,-114.5 364,-133.5 471,-133.5 471,-114.5 364,-114.5"/>
<text text-anchor="middle" x="417.5" y="-121.5" font-family="Helvetica,sans-Serif" font-size="10.00">ladel_sparse_copy</text>
</a>
</g>
</g>
<!-- Node5&#45;&gt;Node6 -->
<g id="edge5" class="edge">
<title>Node5&#45;&gt;Node6</title>
<path fill="none" stroke="midnightblue" d="M314.03,-121.64C327.19,-121.95 340.84,-122.26 353.73,-122.56"/>
<polygon fill="midnightblue" stroke="midnightblue" points="353.79,-126.06 363.87,-122.79 353.95,-119.06 353.79,-126.06"/>
</g>
<!-- Node7 -->
<g id="node7" class="node">
<title>Node7</title>
<g id="a_node7"><a xlink:href="ladel__global_8c.html#a946ae8034525eb6db42d4a166be57968" target="_top" xlink:title="Version of free (for mex or for regular C).">
<polygon fill="white" stroke="black" points="516,-57.5 516,-76.5 581,-76.5 581,-57.5 516,-57.5"/>
<text text-anchor="middle" x="548.5" y="-64.5" font-family="Helvetica,sans-Serif" font-size="10.00">ladel_free</text>
</a>
</g>
</g>
<!-- Node6&#45;&gt;Node7 -->
<g id="edge6" class="edge">
<title>Node6&#45;&gt;Node7</title>
<path fill="none" stroke="midnightblue" d="M454.09,-114.42C462.7,-111.71 471.79,-108.53 480,-105 495.21,-98.46 511.4,-89.42 524.11,-81.8"/>
<polygon fill="midnightblue" stroke="midnightblue" points="525.98,-84.76 532.69,-76.56 522.33,-78.79 525.98,-84.76"/>
</g>
<!-- Node9 -->
<g id="node9" class="node">
<title>Node9</title>
<g id="a_node9"><a xlink:href="ladel__global_8c.html#a15a407b5c8ad9de2faeb93fcd786e099" target="_top" xlink:title="Version of calloc (for mex or for regular C).">
<polygon fill="white" stroke="black" points="380.5,-76.5 380.5,-95.5 454.5,-95.5 454.5,-76.5 380.5,-76.5"/>
<text text-anchor="middle" x="417.5" y="-83.5" font-family="Helvetica,sans-Serif" font-size="10.00">ladel_calloc</text>
</a>
</g>
</g>
<!-- Node8&#45;&gt;Node9 -->
<g id="edge8" class="edge">
<title>Node8&#45;&gt;Node9</title>
<path fill="none" stroke="midnightblue" d="M295.18,-76.24C319.03,-78.16 346.98,-80.41 370.04,-82.26"/>
<polygon fill="midnightblue" stroke="midnightblue" points="370.01,-85.77 380.26,-83.08 370.57,-78.79 370.01,-85.77"/>
</g>
<!-- Node10 -->
<g id="node10" class="node">
<title>Node10</title>
<g id="a_node10"><a xlink:href="ladel__global_8c.html#a86142b1e820a5de1deea8ee656186245" target="_top" xlink:title="Version of malloc (for mex or for regular C).">
<polygon fill="white" stroke="black" points="378,-38.5 378,-57.5 457,-57.5 457,-38.5 378,-38.5"/>
<text text-anchor="middle" x="417.5" y="-45.5" font-family="Helvetica,sans-Serif" font-size="10.00">ladel_malloc</text>
</a>
</g>
</g>
<!-- Node8&#45;&gt;Node10 -->
<g id="edge9" class="edge">
<title>Node8&#45;&gt;Node10</title>
<path fill="none" stroke="midnightblue" d="M295.18,-64.73C318.25,-61.55 345.16,-57.84 367.76,-54.72"/>
<polygon fill="midnightblue" stroke="midnightblue" points="368.39,-58.17 377.82,-53.34 367.43,-51.23 368.39,-58.17"/>
</g>
<!-- Node8&#45;&gt;Node11 -->
<g id="edge10" class="edge">
<title>Node8&#45;&gt;Node11</title>
<path fill="none" stroke="midnightblue" d="M266.04,-62.49C288.69,-53.46 323.97,-39.71 355,-29 361.17,-26.87 367.73,-24.72 374.17,-22.68"/>
<polygon fill="midnightblue" stroke="midnightblue" points="375.63,-25.89 384.13,-19.56 373.54,-19.21 375.63,-25.89"/>
</g>
<!-- Node11&#45;&gt;Node7 -->
<g id="edge11" class="edge">
<title>Node11&#45;&gt;Node7</title>
<path fill="none" stroke="midnightblue" d="M454.09,-19.58C462.7,-22.29 471.79,-25.47 480,-29 495.21,-35.54 511.4,-44.58 524.11,-52.2"/>
<polygon fill="midnightblue" stroke="midnightblue" points="522.33,-55.21 532.69,-57.44 525.98,-49.24 522.33,-55.21"/>
</g>
</g>
</svg>
