<?xml version="1.0" encoding="UTF-8" standalone="no"?>
<!DOCTYPE svg PUBLIC "-//W3C//DTD SVG 1.1//EN"
 "http://www.w3.org/Graphics/SVG/1.1/DTD/svg11.dtd">
<!-- Generated by graphviz version 2.43.0 (0)
 -->
<!-- Title: ladel_factorize_advanced Pages: 1 -->
<!--zoomable 502 -->
<svg id="main" version="1.1" xmlns="http://www.w3.org/2000/svg" xmlns:xlink="http://www.w3.org/1999/xlink" xml:space="preserve" onload="init(evt)">
<style type="text/css"><![CDATA[
.edge:hover path { stroke: red; }
.edge:hover polygon { stroke: red; fill: red; }
]]></style>
<script type="text/javascript"><![CDATA[
var edges = document.getElementsByTagName('g');
if (edges && edges.length) {
  for (var i=0;i<edges.length;i++) {
    if (edges[i].id.substr(0,4)=='edge') {
      edges[i].setAttribute('class','edge');
    }
  }
}
]]></script>
        <defs>
                <circle id="rim" cx="0" cy="0" r="7"/>
                <circle id="rim2" cx="0" cy="0" r="3.5"/>
                <g id="zoomPlus">
                        <use xlink:href="#rim" fill="#404040">
                                <set attributeName="fill" to="#808080" begin="zoomplus.mouseover" end="zoomplus.mouseout"/>
                        </use>
                        <path d="M-4,0h8M0,-4v8" fill="none" stroke="white" stroke-width="1.5" pointer-events="none"/>
                </g>
                <g id="zoomMin">
                        <use xlink:href="#rim" fill="#404040">
                                <set attributeName="fill" to="#808080" begin="zoomminus.mouseover" end="zoomminus.mouseout"/>
                        </use>
                        <path d="M-4,0h8" fill="none" stroke="white" stroke-width="1.5" pointer-events="none"/>
                </g>
                <g id="dirArrow">
                        <path fill="none" stroke="white" stroke-width="1.5" d="M0,-3.0v7 M-2.5,-0.5L0,-3.0L2.5,-0.5"/>
                </g>
               <g id="resetDef">
                       <use xlink:href="#rim2" fill="#404040">
                               <set attributeName="fill" to="#808080" begin="reset.mouseover" end="reset.mouseout"/>
                       </use>
               </g>
        </defs>

<script type="text/javascript">
var viewWidth = 1252;
var viewHeight = 502;
var sectionId = 'dynsection-1';
</script>
<script xlink:href="svgpan.js"/>
<svg id="graph" class="graph">
<g id="viewport">
<title>ladel_factorize_advanced</title>
<polygon fill="white" stroke="transparent" points="-4,4 -4,-497.71 1248,-497.71 1248,4 -4,4"/>
<!-- Node1 -->
<g id="node1" class="node">
<title>Node1</title>
<g id="a_node1"><a xlink:title="Computes the &#160;factorization of &#160;but allocates based on Mbasis.">
<polygon fill="#bfbfbf" stroke="black" points="0,-313 0,-332 141,-332 141,-313 0,-313"/>
<text text-anchor="middle" x="70.5" y="-320" font-family="Helvetica,sans-Serif" font-size="10.00">ladel_factorize_advanced</text>
</a>
</g>
</g>
<!-- Node2 -->
<g id="node2" class="node">
<title>Node2</title>
<g id="a_node2"><a xlink:href="group__grp-solver.html#gaff676fbf1dd6dbf8096c5349d264297f" target="_top" xlink:title="Computes the &#160;factorization of &#160;but allocates based on Mbasis.">
<polygon fill="white" stroke="black" points="177,-307.5 177,-337.5 318,-337.5 318,-307.5 177,-307.5"/>
<text text-anchor="start" x="185" y="-325.5" font-family="Helvetica,sans-Serif" font-size="10.00">ladel_factorize_advanced</text>
<text text-anchor="middle" x="247.5" y="-314.5" font-family="Helvetica,sans-Serif" font-size="10.00">_with_diag</text>
</a>
</g>
</g>
<!-- Node1&#45;&gt;Node2 -->
<g id="edge1" class="edge">
<title>Node1&#45;&gt;Node2</title>
<path fill="none" stroke="midnightblue" d="M141.17,-322.5C149.5,-322.5 158.06,-322.5 166.53,-322.5"/>
<polygon fill="midnightblue" stroke="midnightblue" points="166.79,-326 176.79,-322.5 166.79,-319 166.79,-326"/>
</g>
<!-- Node3 -->
<g id="node3" class="node">
<title>Node3</title>
<g id="a_node3"><a xlink:href="ladel__etree_8c.html#ab727c0337acfd3e083ce6d8424ea6a6b" target="_top" xlink:title="Computes the elimination tree of a matrix.">
<polygon fill="white" stroke="black" points="582,-313 582,-332 653,-332 653,-313 582,-313"/>
<text text-anchor="middle" x="617.5" y="-320" font-family="Helvetica,sans-Serif" font-size="10.00">ladel_etree</text>
</a>
</g>
</g>
<!-- Node2&#45;&gt;Node3 -->
<g id="edge2" class="edge">
<title>Node2&#45;&gt;Node3</title>
<path fill="none" stroke="midnightblue" d="M318.15,-322.5C392.56,-322.5 508.32,-322.5 571.54,-322.5"/>
<polygon fill="midnightblue" stroke="midnightblue" points="571.6,-326 581.6,-322.5 571.6,-319 571.6,-326"/>
</g>
<!-- Node4 -->
<g id="node4" class="node">
<title>Node4</title>
<g id="a_node4"><a xlink:href="ladel__global_8c.html#a968028b68306172d3fb202fb434624a6" target="_top" xlink:title="Allocate a factors struct.">
<polygon fill="white" stroke="black" points="726,-370 726,-389 845,-389 845,-370 726,-370"/>
<text text-anchor="middle" x="785.5" y="-377" font-family="Helvetica,sans-Serif" font-size="10.00">ladel_factor_allocate</text>
</a>
</g>
</g>
<!-- Node2&#45;&gt;Node4 -->
<g id="edge3" class="edge">
<title>Node2&#45;&gt;Node4</title>
<path fill="none" stroke="midnightblue" d="M318.26,-332.08C330.18,-333.63 342.44,-335.16 354,-336.5 481.62,-351.34 630.89,-365.54 715.9,-373.34"/>
<polygon fill="midnightblue" stroke="midnightblue" points="715.67,-376.83 725.94,-374.26 716.3,-369.86 715.67,-376.83"/>
</g>
<!-- Node8 -->
<g id="node8" class="node">
<title>Node8</title>
<g id="a_node8"><a xlink:href="ladel__global_8c.html#afaa07a7aa3c8517d3853968448b398a0" target="_top" xlink:title="Free a sparse matrix (and return NULL).">
<polygon fill="white" stroke="black" points="1040,-370 1040,-389 1143,-389 1143,-370 1040,-370"/>
<text text-anchor="middle" x="1091.5" y="-377" font-family="Helvetica,sans-Serif" font-size="10.00">ladel_sparse_free</text>
</a>
</g>
</g>
<!-- Node2&#45;&gt;Node8 -->
<g id="edge35" class="edge">
<title>Node2&#45;&gt;Node8</title>
<path fill="none" stroke="midnightblue" d="M266.27,-337.68C317.16,-379.53 469.26,-493.5 616.5,-493.5 616.5,-493.5 616.5,-493.5 786.5,-493.5 884.71,-493.5 915.39,-496.85 1004,-454.5 1032.97,-440.65 1059.83,-414.41 1075.7,-396.94"/>
<polygon fill="midnightblue" stroke="midnightblue" points="1078.57,-398.97 1082.57,-389.15 1073.33,-394.33 1078.57,-398.97"/>
</g>
<!-- Node11 -->
<g id="node11" class="node">
<title>Node11</title>
<g id="a_node11"><a xlink:href="ladel__global_8c.html#a6e485045ec098c0b5a9afe07875a1e59" target="_top" xlink:title="Allocate a sparse matrix.">
<polygon fill="white" stroke="black" points="889,-294 889,-313 996,-313 996,-294 889,-294"/>
<text text-anchor="middle" x="942.5" y="-301" font-family="Helvetica,sans-Serif" font-size="10.00">ladel_sparse_alloc</text>
</a>
</g>
</g>
<!-- Node2&#45;&gt;Node11 -->
<g id="edge34" class="edge">
<title>Node2&#45;&gt;Node11</title>
<path fill="none" stroke="midnightblue" d="M318.19,-332.81C330.11,-334.27 342.4,-335.58 354,-336.5 502.88,-348.29 541.07,-352.69 690,-341.5 756.53,-336.5 832.14,-324.17 882.93,-314.9"/>
<polygon fill="midnightblue" stroke="midnightblue" points="883.86,-318.28 893.06,-313.03 882.59,-311.4 883.86,-318.28"/>
</g>
<!-- Node12 -->
<g id="node12" class="node">
<title>Node12</title>
<g id="a_node12"><a xlink:href="ladel__ldl__numeric_8c.html#aca5dec521536dc26881de005cf3b5932" target="_top" xlink:title="Numerical part of the factorization of .">
<polygon fill="white" stroke="black" points="354,-25 354,-44 509,-44 509,-25 354,-25"/>
<text text-anchor="middle" x="431.5" y="-32" font-family="Helvetica,sans-Serif" font-size="10.00">ladel_ldl_numeric_with_diag</text>
</a>
</g>
</g>
<!-- Node2&#45;&gt;Node12 -->
<g id="edge15" class="edge">
<title>Node2&#45;&gt;Node12</title>
<path fill="none" stroke="midnightblue" d="M255.94,-307.25C272.2,-274.38 312.76,-194.79 354,-132.5 373.53,-103 399.41,-71.11 415.5,-51.97"/>
<polygon fill="midnightblue" stroke="midnightblue" points="418.35,-54.03 422.15,-44.13 413.01,-49.5 418.35,-54.03"/>
</g>
<!-- Node14 -->
<g id="node14" class="node">
<title>Node14</title>
<g id="a_node14"><a xlink:href="ladel__ldl__symbolic_8c.html#a919feee5783ed6d5ffaff8dff6546976" target="_top" xlink:title="Symbolic part of the factorization.">
<polygon fill="white" stroke="black" points="378,-212 378,-231 485,-231 485,-212 378,-212"/>
<text text-anchor="middle" x="431.5" y="-219" font-family="Helvetica,sans-Serif" font-size="10.00">ladel_ldl_symbolic</text>
</a>
</g>
</g>
<!-- Node2&#45;&gt;Node14 -->
<g id="edge17" class="edge">
<title>Node2&#45;&gt;Node14</title>
<path fill="none" stroke="midnightblue" d="M275.75,-307.38C310.46,-288.11 370.06,-255.04 404.27,-236.05"/>
<polygon fill="midnightblue" stroke="midnightblue" points="406.17,-239.01 413.21,-231.09 402.77,-232.89 406.17,-239.01"/>
</g>
<!-- Node20 -->
<g id="node20" class="node">
<title>Node20</title>
<g id="a_node20"><a xlink:href="ladel__permutation_8c.html#a6fbceb4b665cce4b4397d74516d284a3" target="_top" xlink:title="Compute .">
<polygon fill="white" stroke="black" points="545,-49.5 545,-79.5 690,-79.5 690,-49.5 545,-49.5"/>
<text text-anchor="start" x="553" y="-67.5" font-family="Helvetica,sans-Serif" font-size="10.00">ladel_permute_symmetric</text>
<text text-anchor="middle" x="617.5" y="-56.5" font-family="Helvetica,sans-Serif" font-size="10.00">_matrix</text>
</a>
</g>
</g>
<!-- Node2&#45;&gt;Node20 -->
<g id="edge33" class="edge">
<title>Node2&#45;&gt;Node20</title>
<path fill="none" stroke="midnightblue" d="M259.15,-307.39C276.81,-283.11 314.16,-234.85 354,-202.5 420.54,-148.45 511.57,-106.33 567.08,-83.49"/>
<polygon fill="midnightblue" stroke="midnightblue" points="568.74,-86.59 576.69,-79.58 566.1,-80.11 568.74,-86.59"/>
</g>
<!-- Node5 -->
<g id="node5" class="node">
<title>Node5</title>
<g id="a_node5"><a xlink:href="ladel__global_8c.html#a15a407b5c8ad9de2faeb93fcd786e099" target="_top" xlink:title="Version of calloc (for mex or for regular C).">
<polygon fill="white" stroke="black" points="1054.5,-294 1054.5,-313 1128.5,-313 1128.5,-294 1054.5,-294"/>
<text text-anchor="middle" x="1091.5" y="-301" font-family="Helvetica,sans-Serif" font-size="10.00">ladel_calloc</text>
</a>
</g>
</g>
<!-- Node4&#45;&gt;Node5 -->
<g id="edge4" class="edge">
<title>Node4&#45;&gt;Node5</title>
<path fill="none" stroke="midnightblue" d="M824.69,-369.95C880.47,-356.01 984.09,-330.1 1044.15,-315.09"/>
<polygon fill="midnightblue" stroke="midnightblue" points="1045.27,-318.42 1054.12,-312.6 1043.57,-311.63 1045.27,-318.42"/>
</g>
<!-- Node6 -->
<g id="node6" class="node">
<title>Node6</title>
<g id="a_node6"><a xlink:href="ladel__global_8c.html#a2c4e8897e9da3b9463281d19e0971ed5" target="_top" xlink:title="Free a factor.">
<polygon fill="white" stroke="black" points="893,-370 893,-389 992,-389 992,-370 893,-370"/>
<text text-anchor="middle" x="942.5" y="-377" font-family="Helvetica,sans-Serif" font-size="10.00">ladel_factor_free</text>
</a>
</g>
</g>
<!-- Node4&#45;&gt;Node6 -->
<g id="edge5" class="edge">
<title>Node4&#45;&gt;Node6</title>
<path fill="none" stroke="midnightblue" d="M845.1,-379.5C857.42,-379.5 870.43,-379.5 882.75,-379.5"/>
<polygon fill="midnightblue" stroke="midnightblue" points="882.92,-383 892.92,-379.5 882.92,-376 882.92,-383"/>
</g>
<!-- Node9 -->
<g id="node9" class="node">
<title>Node9</title>
<g id="a_node9"><a xlink:href="ladel__copy_8c.html#ab0af0935fc38b50643d179802695ac74" target="_top" xlink:title="Copies an integer vector (preallocated)">
<polygon fill="white" stroke="black" points="881,-408 881,-427 1004,-427 1004,-408 881,-408"/>
<text text-anchor="middle" x="942.5" y="-415" font-family="Helvetica,sans-Serif" font-size="10.00">ladel_int_vector_copy</text>
</a>
</g>
</g>
<!-- Node4&#45;&gt;Node9 -->
<g id="edge9" class="edge">
<title>Node4&#45;&gt;Node9</title>
<path fill="none" stroke="midnightblue" d="M825.61,-389.09C845.97,-394.08 871.07,-400.23 892.69,-405.53"/>
<polygon fill="midnightblue" stroke="midnightblue" points="892.12,-409 902.67,-407.98 893.79,-402.2 892.12,-409"/>
</g>
<!-- Node10 -->
<g id="node10" class="node">
<title>Node10</title>
<g id="a_node10"><a xlink:href="ladel__global_8c.html#a86142b1e820a5de1deea8ee656186245" target="_top" xlink:title="Version of malloc (for mex or for regular C).">
<polygon fill="white" stroke="black" points="1052,-256 1052,-275 1131,-275 1131,-256 1052,-256"/>
<text text-anchor="middle" x="1091.5" y="-263" font-family="Helvetica,sans-Serif" font-size="10.00">ladel_malloc</text>
</a>
</g>
</g>
<!-- Node4&#45;&gt;Node10 -->
<g id="edge10" class="edge">
<title>Node4&#45;&gt;Node10</title>
<path fill="none" stroke="midnightblue" d="M794.5,-369.94C813.19,-347.86 859.73,-294.49 881,-284.5 931.95,-260.56 997.5,-258.56 1041.59,-260.76"/>
<polygon fill="midnightblue" stroke="midnightblue" points="1041.58,-264.27 1051.77,-261.36 1041.99,-257.28 1041.58,-264.27"/>
</g>
<!-- Node4&#45;&gt;Node11 -->
<g id="edge11" class="edge">
<title>Node4&#45;&gt;Node11</title>
<path fill="none" stroke="midnightblue" d="M814.02,-369.99C824.06,-366.06 835.31,-361.11 845,-355.5 862.54,-345.34 863.4,-337.56 881,-327.5 887.97,-323.52 895.72,-319.9 903.3,-316.75"/>
<polygon fill="midnightblue" stroke="midnightblue" points="904.71,-319.95 912.72,-313.01 902.13,-313.44 904.71,-319.95"/>
</g>
<!-- Node7 -->
<g id="node7" class="node">
<title>Node7</title>
<g id="a_node7"><a xlink:href="ladel__global_8c.html#a946ae8034525eb6db42d4a166be57968" target="_top" xlink:title="Version of free (for mex or for regular C).">
<polygon fill="white" stroke="black" points="1179,-180 1179,-199 1244,-199 1244,-180 1179,-180"/>
<text text-anchor="middle" x="1211.5" y="-187" font-family="Helvetica,sans-Serif" font-size="10.00">ladel_free</text>
</a>
</g>
</g>
<!-- Node6&#45;&gt;Node7 -->
<g id="edge6" class="edge">
<title>Node6&#45;&gt;Node7</title>
<path fill="none" stroke="midnightblue" d="M992.05,-370.28C1043.36,-359.73 1120.01,-341.47 1143,-322.5 1179.31,-292.55 1198.09,-238.07 1205.92,-209"/>
<polygon fill="midnightblue" stroke="midnightblue" points="1209.34,-209.76 1208.41,-199.21 1202.56,-208.04 1209.34,-209.76"/>
</g>
<!-- Node6&#45;&gt;Node8 -->
<g id="edge7" class="edge">
<title>Node6&#45;&gt;Node8</title>
<path fill="none" stroke="midnightblue" d="M992.04,-379.5C1004.06,-379.5 1017.09,-379.5 1029.62,-379.5"/>
<polygon fill="midnightblue" stroke="midnightblue" points="1029.99,-383 1039.99,-379.5 1029.99,-376 1029.99,-383"/>
</g>
<!-- Node8&#45;&gt;Node7 -->
<g id="edge8" class="edge">
<title>Node8&#45;&gt;Node7</title>
<path fill="none" stroke="midnightblue" d="M1121.89,-369.96C1129.51,-366.38 1137.2,-361.64 1143,-355.5 1183.3,-312.82 1200.86,-242.88 1207.31,-209.05"/>
<polygon fill="midnightblue" stroke="midnightblue" points="1210.78,-209.51 1209.09,-199.05 1203.89,-208.28 1210.78,-209.51"/>
</g>
<!-- Node11&#45;&gt;Node5 -->
<g id="edge12" class="edge">
<title>Node11&#45;&gt;Node5</title>
<path fill="none" stroke="midnightblue" d="M996.16,-303.5C1011.82,-303.5 1028.86,-303.5 1044.09,-303.5"/>
<polygon fill="midnightblue" stroke="midnightblue" points="1044.31,-307 1054.31,-303.5 1044.31,-300 1044.31,-307"/>
</g>
<!-- Node11&#45;&gt;Node8 -->
<g id="edge14" class="edge">
<title>Node11&#45;&gt;Node8</title>
<path fill="none" stroke="midnightblue" d="M962.12,-313.13C987.63,-326.32 1033.65,-350.11 1063.1,-365.33"/>
<polygon fill="midnightblue" stroke="midnightblue" points="1061.54,-368.47 1072.03,-369.95 1064.76,-362.25 1061.54,-368.47"/>
</g>
<!-- Node11&#45;&gt;Node10 -->
<g id="edge13" class="edge">
<title>Node11&#45;&gt;Node10</title>
<path fill="none" stroke="midnightblue" d="M980.59,-293.91C999.82,-288.94 1023.49,-282.82 1043.93,-277.54"/>
<polygon fill="midnightblue" stroke="midnightblue" points="1044.87,-280.91 1053.67,-275.02 1043.11,-274.13 1044.87,-280.91"/>
</g>
<!-- Node13 -->
<g id="node13" class="node">
<title>Node13</title>
<g id="a_node13"><a xlink:href="ladel__pattern_8c.html#a2f95620dd9c0bb1d33f1dcbdaa9a25b2" target="_top" xlink:title="Computes the pattern of the (next) row in L.">
<polygon fill="white" stroke="black" points="555,-0.5 555,-30.5 680,-30.5 680,-0.5 555,-0.5"/>
<text text-anchor="start" x="563" y="-18.5" font-family="Helvetica,sans-Serif" font-size="10.00">ladel_nonzero_pattern</text>
<text text-anchor="middle" x="617.5" y="-7.5" font-family="Helvetica,sans-Serif" font-size="10.00">_of_row_in_L</text>
</a>
</g>
</g>
<!-- Node12&#45;&gt;Node13 -->
<g id="edge16" class="edge">
<title>Node12&#45;&gt;Node13</title>
<path fill="none" stroke="midnightblue" d="M509.2,-26.58C520.95,-25.37 533.03,-24.12 544.67,-22.92"/>
<polygon fill="midnightblue" stroke="midnightblue" points="545.17,-26.38 554.76,-21.88 544.45,-19.42 545.17,-26.38"/>
</g>
<!-- Node14&#45;&gt;Node3 -->
<g id="edge25" class="edge">
<title>Node14&#45;&gt;Node3</title>
<path fill="none" stroke="midnightblue" d="M442.81,-231.1C461.66,-248.14 503.55,-283.74 545,-303.5 553.43,-307.52 562.84,-310.79 571.99,-313.41"/>
<polygon fill="midnightblue" stroke="midnightblue" points="571.2,-316.82 581.76,-316 572.99,-310.05 571.2,-316.82"/>
</g>
<!-- Node14&#45;&gt;Node7 -->
<g id="edge27" class="edge">
<title>Node14&#45;&gt;Node7</title>
<path fill="none" stroke="midnightblue" d="M449.56,-211.97C465.72,-202.54 490.24,-187.12 509,-170.5 527.4,-154.19 523.11,-139.69 545,-128.5 640.1,-79.86 677.69,-108.5 784.5,-108.5 784.5,-108.5 784.5,-108.5 943.5,-108.5 1034.59,-108.5 1135.92,-152.2 1183.3,-175.41"/>
<polygon fill="midnightblue" stroke="midnightblue" points="1181.79,-178.57 1192.31,-179.89 1184.91,-172.3 1181.79,-178.57"/>
</g>
<!-- Node15 -->
<g id="node15" class="node">
<title>Node15</title>
<g id="a_node15"><a xlink:href="ladel__col__counts_8c.html#aa7284697012b8c3de4cece3e31915488" target="_top" xlink:title="Computes the column counts of the factor.">
<polygon fill="white" stroke="black" points="568.5,-275 568.5,-294 666.5,-294 666.5,-275 568.5,-275"/>
<text text-anchor="middle" x="617.5" y="-282" font-family="Helvetica,sans-Serif" font-size="10.00">ladel_col_counts</text>
</a>
</g>
</g>
<!-- Node14&#45;&gt;Node15 -->
<g id="edge18" class="edge">
<title>Node14&#45;&gt;Node15</title>
<path fill="none" stroke="midnightblue" d="M454.64,-231.02C477.14,-240.49 513.11,-255.06 545,-265.5 552.21,-267.86 559.91,-270.14 567.48,-272.26"/>
<polygon fill="midnightblue" stroke="midnightblue" points="566.73,-275.69 577.3,-274.94 568.57,-268.93 566.73,-275.69"/>
</g>
<!-- Node18 -->
<g id="node18" class="node">
<title>Node18</title>
<g id="a_node18"><a xlink:href="ladel__etree_8c.html#a4c37cc6c6df89960c5b39d28677d88a8" target="_top" xlink:title="Computes the elimination tree and column counts of a matrix.">
<polygon fill="white" stroke="black" points="560.5,-137.5 560.5,-167.5 674.5,-167.5 674.5,-137.5 560.5,-137.5"/>
<text text-anchor="start" x="568.5" y="-155.5" font-family="Helvetica,sans-Serif" font-size="10.00">ladel_etree_and_col</text>
<text text-anchor="middle" x="617.5" y="-144.5" font-family="Helvetica,sans-Serif" font-size="10.00">_counts</text>
</a>
</g>
</g>
<!-- Node14&#45;&gt;Node18 -->
<g id="edge26" class="edge">
<title>Node14&#45;&gt;Node18</title>
<path fill="none" stroke="midnightblue" d="M456.11,-211.98C478.81,-202.89 514.12,-188.93 545,-177.5 550.83,-175.34 556.94,-173.13 563.03,-170.96"/>
<polygon fill="midnightblue" stroke="midnightblue" points="564.29,-174.22 572.55,-167.58 561.95,-167.63 564.29,-174.22"/>
</g>
<!-- Node19 -->
<g id="node19" class="node">
<title>Node19</title>
<g id="a_node19"><a xlink:href="ladel__permutation_8c.html#ad4cf169953176bf72a9cf454dfd42712" target="_top" xlink:title="Invert a permutation vector, such that .">
<polygon fill="white" stroke="black" points="547.5,-225.5 547.5,-255.5 687.5,-255.5 687.5,-225.5 547.5,-225.5"/>
<text text-anchor="start" x="555.5" y="-243.5" font-family="Helvetica,sans-Serif" font-size="10.00">ladel_invert_permutation</text>
<text text-anchor="middle" x="617.5" y="-232.5" font-family="Helvetica,sans-Serif" font-size="10.00">_vector</text>
</a>
</g>
</g>
<!-- Node14&#45;&gt;Node19 -->
<g id="edge28" class="edge">
<title>Node14&#45;&gt;Node19</title>
<path fill="none" stroke="midnightblue" d="M485.23,-226.94C501.38,-228.61 519.53,-230.49 537.06,-232.3"/>
<polygon fill="midnightblue" stroke="midnightblue" points="536.98,-235.81 547.28,-233.35 537.7,-228.84 536.98,-235.81"/>
</g>
<!-- Node14&#45;&gt;Node20 -->
<g id="edge29" class="edge">
<title>Node14&#45;&gt;Node20</title>
<path fill="none" stroke="midnightblue" d="M447.79,-211.99C464.41,-201.1 490.98,-181.96 509,-160.5 530.49,-134.91 520.2,-116.89 545,-94.5 549.18,-90.72 553.91,-87.38 558.9,-84.43"/>
<polygon fill="midnightblue" stroke="midnightblue" points="560.9,-87.32 568.08,-79.53 557.61,-81.15 560.9,-87.32"/>
</g>
<!-- Node22 -->
<g id="node22" class="node">
<title>Node22</title>
<g id="a_node22"><a xlink:href="ladel__postorder_8c.html#ab60514b7b1353408852e59f09677016d" target="_top" xlink:title="Compute the postordering of the elimination tree.">
<polygon fill="white" stroke="black" points="571.5,-187 571.5,-206 663.5,-206 663.5,-187 571.5,-187"/>
<text text-anchor="middle" x="617.5" y="-194" font-family="Helvetica,sans-Serif" font-size="10.00">ladel_postorder</text>
</a>
</g>
</g>
<!-- Node14&#45;&gt;Node22 -->
<g id="edge32" class="edge">
<title>Node14&#45;&gt;Node22</title>
<path fill="none" stroke="midnightblue" d="M485.23,-214.34C509.01,-211.1 537.11,-207.29 561.2,-204.01"/>
<polygon fill="midnightblue" stroke="midnightblue" points="561.82,-207.46 571.25,-202.65 560.87,-200.53 561.82,-207.46"/>
</g>
<!-- Node15&#45;&gt;Node8 -->
<g id="edge20" class="edge">
<title>Node15&#45;&gt;Node8</title>
<path fill="none" stroke="midnightblue" d="M666.69,-290.6C675.19,-293.45 683.42,-297.56 690,-303.5 723.52,-333.75 692.19,-368.58 726,-398.5 779.11,-445.51 810.58,-427.99 881,-436.5 935.27,-443.06 951.64,-452.2 1004,-436.5 1030.41,-428.58 1056.2,-409.71 1072.65,-395.84"/>
<polygon fill="midnightblue" stroke="midnightblue" points="1075.11,-398.34 1080.35,-389.13 1070.52,-393.06 1075.11,-398.34"/>
</g>
<!-- Node16 -->
<g id="node16" class="node">
<title>Node16</title>
<g id="a_node16"><a xlink:href="ladel__col__counts_8c.html#a83727639c00ef21d2af7ccda5f116881" target="_top" xlink:title=" ">
<polygon fill="white" stroke="black" points="726.5,-269.5 726.5,-299.5 844.5,-299.5 844.5,-269.5 726.5,-269.5"/>
<text text-anchor="start" x="734.5" y="-287.5" font-family="Helvetica,sans-Serif" font-size="10.00">ladel_least_common</text>
<text text-anchor="middle" x="785.5" y="-276.5" font-family="Helvetica,sans-Serif" font-size="10.00">_ancestor</text>
</a>
</g>
</g>
<!-- Node15&#45;&gt;Node16 -->
<g id="edge19" class="edge">
<title>Node15&#45;&gt;Node16</title>
<path fill="none" stroke="midnightblue" d="M666.51,-284.5C681.98,-284.5 699.42,-284.5 716.06,-284.5"/>
<polygon fill="midnightblue" stroke="midnightblue" points="716.29,-288 726.29,-284.5 716.29,-281 716.29,-288"/>
</g>
<!-- Node17 -->
<g id="node17" class="node">
<title>Node17</title>
<g id="a_node17"><a xlink:href="ladel__transpose_8c.html#a8b00613708b897c9dbcd292dc9b89ed8" target="_top" xlink:title="Returns the transpose of a matrix, that is .">
<polygon fill="white" stroke="black" points="738.5,-224 738.5,-243 832.5,-243 832.5,-224 738.5,-224"/>
<text text-anchor="middle" x="785.5" y="-231" font-family="Helvetica,sans-Serif" font-size="10.00">ladel_transpose</text>
</a>
</g>
</g>
<!-- Node15&#45;&gt;Node17 -->
<g id="edge21" class="edge">
<title>Node15&#45;&gt;Node17</title>
<path fill="none" stroke="midnightblue" d="M656.48,-274.91C667.35,-272.03 679.18,-268.77 690,-265.5 709.27,-259.68 730.51,-252.56 747.97,-246.5"/>
<polygon fill="midnightblue" stroke="midnightblue" points="749.48,-249.68 757.77,-243.08 747.17,-243.08 749.48,-249.68"/>
</g>
<!-- Node17&#45;&gt;Node7 -->
<g id="edge22" class="edge">
<title>Node17&#45;&gt;Node7</title>
<path fill="none" stroke="midnightblue" d="M832.68,-228.71C915.67,-220.1 1088.77,-202.13 1168.57,-193.85"/>
<polygon fill="midnightblue" stroke="midnightblue" points="1169.15,-197.31 1178.73,-192.8 1168.43,-190.35 1169.15,-197.31"/>
</g>
<!-- Node17&#45;&gt;Node10 -->
<g id="edge23" class="edge">
<title>Node17&#45;&gt;Node10</title>
<path fill="none" stroke="midnightblue" d="M832.85,-236.29C876.96,-239.19 945.14,-244.31 1004,-251.5 1016.27,-253 1029.46,-254.96 1041.76,-256.93"/>
<polygon fill="midnightblue" stroke="midnightblue" points="1041.4,-260.42 1051.84,-258.58 1042.54,-253.51 1041.4,-260.42"/>
</g>
<!-- Node17&#45;&gt;Node11 -->
<g id="edge24" class="edge">
<title>Node17&#45;&gt;Node11</title>
<path fill="none" stroke="midnightblue" d="M807.73,-243.09C834.36,-255.11 880.23,-275.83 910.72,-289.6"/>
<polygon fill="midnightblue" stroke="midnightblue" points="909.48,-292.88 920.03,-293.8 912.36,-286.5 909.48,-292.88"/>
</g>
<!-- Node21 -->
<g id="node21" class="node">
<title>Node21</title>
<g id="a_node21"><a xlink:href="ladel__copy_8c.html#a97ad68065f3cb0241e4a6427e2e196a7" target="_top" xlink:title="Copies a matrix (preallocated)">
<polygon fill="white" stroke="black" points="889,-59 889,-78 996,-78 996,-59 889,-59"/>
<text text-anchor="middle" x="942.5" y="-66" font-family="Helvetica,sans-Serif" font-size="10.00">ladel_sparse_copy</text>
</a>
</g>
</g>
<!-- Node20&#45;&gt;Node21 -->
<g id="edge30" class="edge">
<title>Node20&#45;&gt;Node21</title>
<path fill="none" stroke="midnightblue" d="M690.18,-65.39C746.67,-66.09 824.64,-67.05 878.7,-67.72"/>
<polygon fill="midnightblue" stroke="midnightblue" points="878.8,-71.22 888.84,-67.85 878.88,-64.22 878.8,-71.22"/>
</g>
<!-- Node21&#45;&gt;Node7 -->
<g id="edge31" class="edge">
<title>Node21&#45;&gt;Node7</title>
<path fill="none" stroke="midnightblue" d="M996.41,-64.26C1038.94,-63.34 1098.7,-67.86 1143,-94.5 1172.49,-112.23 1192.59,-148.33 1202.76,-170.57"/>
<polygon fill="midnightblue" stroke="midnightblue" points="1199.64,-172.18 1206.84,-179.96 1206.06,-169.39 1199.64,-172.18"/>
</g>
</g>
</svg>
        <g id="navigator" transform="translate(0 0)" fill="#404254">
                <rect fill="#f2f5e9" fill-opacity="0.5" stroke="#606060" stroke-width=".5" x="0" y="0" width="60" height="60"/>
                <use id="zoomplus" xlink:href="#zoomPlus" x="17" y="9" onmousedown="handleZoom(evt,'in')"/>
                <use id="zoomminus" xlink:href="#zoomMin" x="42" y="9" onmousedown="handleZoom(evt,'out')"/>
                <use id="reset" xlink:href="#resetDef" x="30" y="36" onmousedown="handleReset()"/>
                <g id="arrowUp" xlink:href="#dirArrow" transform="translate(30 24)" onmousedown="handlePan(0,-1)">
                  <use xlink:href="#rim" fill="#404040">
                        <set attributeName="fill" to="#808080" begin="arrowUp.mouseover" end="arrowUp.mouseout"/>
                  </use>
                  <path fill="none" stroke="white" stroke-width="1.5" d="M0,-3.0v7 M-2.5,-0.5L0,-3.0L2.5,-0.5"/>
                </g>
                <g id="arrowRight" xlink:href="#dirArrow" transform="rotate(90) translate(36 -43)" onmousedown="handlePan(1,0)">
                  <use xlink:href="#rim" fill="#404040">
                        <set attributeName="fill" to="#808080" begin="arrowRight.mouseover" end="arrowRight.mouseout"/>
                  </use>
                  <path fill="none" stroke="white" stroke-width="1.5" d="M0,-3.0v7 M-2.5,-0.5L0,-3.0L2.5,-0.5"/>
                </g>
                <g id="arrowDown" xlink:href="#dirArrow" transform="rotate(180) translate(-30 -48)" onmousedown="handlePan(0,1)">
                  <use xlink:href="#rim" fill="#404040">
                        <set attributeName="fill" to="#808080" begin="arrowDown.mouseover" end="arrowDown.mouseout"/>
                  </use>
                  <path fill="none" stroke="white" stroke-width="1.5" d="M0,-3.0v7 M-2.5,-0.5L0,-3.0L2.5,-0.5"/>
                </g>
                <g id="arrowLeft" xlink:href="#dirArrow" transform="rotate(270) translate(-36 17)" onmousedown="handlePan(-1,0)">
                  <use xlink:href="#rim" fill="#404040">
                        <set attributeName="fill" to="#808080" begin="arrowLeft.mouseover" end="arrowLeft.mouseout"/>
                  </use>
                  <path fill="none" stroke="white" stroke-width="1.5" d="M0,-3.0v7 M-2.5,-0.5L0,-3.0L2.5,-0.5"/>
                </g>
        </g>
        <svg viewBox="0 0 15 15" width="100%" height="30px" preserveAspectRatio="xMaxYMin meet">
         <g id="arrow_out" transform="scale(0.3 0.3)">
          <a xlink:href="group__grp-solver_gac217d5bb50524bf6bbc0e7fa473edcfb_cgraph_org.svg" target="_base">
           <rect id="button" ry="5" rx="5" y="6" x="6" height="38" width="38"
                fill="#f2f5e9" fill-opacity="0.5" stroke="#606060" stroke-width="1.0"/>
           <path id="arrow"
             d="M 11.500037,31.436501 C 11.940474,20.09759 22.043105,11.32322 32.158766,21.979434 L 37.068811,17.246167 C 37.068811,17.246167 37.088388,32 37.088388,32 L 22.160133,31.978069 C 22.160133,31.978069 26.997745,27.140456 26.997745,27.140456 C 18.528582,18.264221 13.291696,25.230495 11.500037,31.436501 z"
             style="fill:#404040;"/>
          </a>
         </g>
        </svg>
</svg>
