<?xml version="1.0" encoding="UTF-8" standalone="no"?>
<!DOCTYPE svg PUBLIC "-//W3C//DTD SVG 1.1//EN"
 "http://www.w3.org/Graphics/SVG/1.1/DTD/svg11.dtd">
<!-- Generated by graphviz version 2.43.0 (0)
 -->
<!-- Title: ladel_factorize_advanced_with_diag Pages: 1 -->
<svg width="1075pt" height="502pt"
 viewBox="0.00 0.00 1075.00 501.71" xmlns="http://www.w3.org/2000/svg" xmlns:xlink="http://www.w3.org/1999/xlink">
<g id="graph0" class="graph" transform="scale(1 1) rotate(0) translate(4 497.71)">
<title>ladel_factorize_advanced_with_diag</title>
<polygon fill="white" stroke="transparent" points="-4,4 -4,-497.71 1071,-497.71 1071,4 -4,4"/>
<!-- Node1 -->
<g id="node1" class="node">
<title>Node1</title>
<g id="a_node1"><a xlink:title="Computes the &#160;factorization of &#160;but allocates based on Mbasis.">
<polygon fill="#bfbfbf" stroke="black" points="0,-307.5 0,-337.5 141,-337.5 141,-307.5 0,-307.5"/>
<text text-anchor="start" x="8" y="-325.5" font-family="Helvetica,sans-Serif" font-size="10.00">ladel_factorize_advanced</text>
<text text-anchor="middle" x="70.5" y="-314.5" font-family="Helvetica,sans-Serif" font-size="10.00">_with_diag</text>
</a>
</g>
</g>
<!-- Node2 -->
<g id="node2" class="node">
<title>Node2</title>
<g id="a_node2"><a xlink:href="ladel__etree_8c.html#ab727c0337acfd3e083ce6d8424ea6a6b" target="_top" xlink:title="Computes the elimination tree of a matrix.">
<polygon fill="white" stroke="black" points="405,-313 405,-332 476,-332 476,-313 405,-313"/>
<text text-anchor="middle" x="440.5" y="-320" font-family="Helvetica,sans-Serif" font-size="10.00">ladel_etree</text>
</a>
</g>
</g>
<!-- Node1&#45;&gt;Node2 -->
<g id="edge1" class="edge">
<title>Node1&#45;&gt;Node2</title>
<path fill="none" stroke="midnightblue" d="M141.15,-322.5C215.56,-322.5 331.32,-322.5 394.54,-322.5"/>
<polygon fill="midnightblue" stroke="midnightblue" points="394.6,-326 404.6,-322.5 394.6,-319 394.6,-326"/>
</g>
<!-- Node3 -->
<g id="node3" class="node">
<title>Node3</title>
<g id="a_node3"><a xlink:href="ladel__global_8c.html#a968028b68306172d3fb202fb434624a6" target="_top" xlink:title="Allocate a factors struct.">
<polygon fill="white" stroke="black" points="549,-370 549,-389 668,-389 668,-370 549,-370"/>
<text text-anchor="middle" x="608.5" y="-377" font-family="Helvetica,sans-Serif" font-size="10.00">ladel_factor_allocate</text>
</a>
</g>
</g>
<!-- Node1&#45;&gt;Node3 -->
<g id="edge2" class="edge">
<title>Node1&#45;&gt;Node3</title>
<path fill="none" stroke="midnightblue" d="M141.26,-332.08C153.18,-333.63 165.44,-335.16 177,-336.5 304.62,-351.34 453.89,-365.54 538.9,-373.34"/>
<polygon fill="midnightblue" stroke="midnightblue" points="538.67,-376.83 548.94,-374.26 539.3,-369.86 538.67,-376.83"/>
</g>
<!-- Node7 -->
<g id="node7" class="node">
<title>Node7</title>
<g id="a_node7"><a xlink:href="ladel__global_8c.html#afaa07a7aa3c8517d3853968448b398a0" target="_top" xlink:title="Free a sparse matrix (and return NULL).">
<polygon fill="white" stroke="black" points="863,-370 863,-389 966,-389 966,-370 863,-370"/>
<text text-anchor="middle" x="914.5" y="-377" font-family="Helvetica,sans-Serif" font-size="10.00">ladel_sparse_free</text>
</a>
</g>
</g>
<!-- Node1&#45;&gt;Node7 -->
<g id="edge34" class="edge">
<title>Node1&#45;&gt;Node7</title>
<path fill="none" stroke="midnightblue" d="M89.27,-337.68C140.16,-379.53 292.26,-493.5 439.5,-493.5 439.5,-493.5 439.5,-493.5 609.5,-493.5 707.71,-493.5 738.39,-496.85 827,-454.5 855.97,-440.65 882.83,-414.41 898.7,-396.94"/>
<polygon fill="midnightblue" stroke="midnightblue" points="901.57,-398.97 905.57,-389.15 896.33,-394.33 901.57,-398.97"/>
</g>
<!-- Node10 -->
<g id="node10" class="node">
<title>Node10</title>
<g id="a_node10"><a xlink:href="ladel__global_8c.html#a6e485045ec098c0b5a9afe07875a1e59" target="_top" xlink:title="Allocate a sparse matrix.">
<polygon fill="white" stroke="black" points="712,-294 712,-313 819,-313 819,-294 712,-294"/>
<text text-anchor="middle" x="765.5" y="-301" font-family="Helvetica,sans-Serif" font-size="10.00">ladel_sparse_alloc</text>
</a>
</g>
</g>
<!-- Node1&#45;&gt;Node10 -->
<g id="edge33" class="edge">
<title>Node1&#45;&gt;Node10</title>
<path fill="none" stroke="midnightblue" d="M141.19,-332.81C153.11,-334.27 165.4,-335.58 177,-336.5 325.88,-348.29 364.07,-352.69 513,-341.5 579.53,-336.5 655.14,-324.17 705.93,-314.9"/>
<polygon fill="midnightblue" stroke="midnightblue" points="706.86,-318.28 716.06,-313.03 705.59,-311.4 706.86,-318.28"/>
</g>
<!-- Node11 -->
<g id="node11" class="node">
<title>Node11</title>
<g id="a_node11"><a xlink:href="ladel__ldl__numeric_8c.html#aca5dec521536dc26881de005cf3b5932" target="_top" xlink:title="Numerical part of the factorization of .">
<polygon fill="white" stroke="black" points="177,-25 177,-44 332,-44 332,-25 177,-25"/>
<text text-anchor="middle" x="254.5" y="-32" font-family="Helvetica,sans-Serif" font-size="10.00">ladel_ldl_numeric_with_diag</text>
</a>
</g>
</g>
<!-- Node1&#45;&gt;Node11 -->
<g id="edge14" class="edge">
<title>Node1&#45;&gt;Node11</title>
<path fill="none" stroke="midnightblue" d="M78.94,-307.25C95.2,-274.38 135.76,-194.79 177,-132.5 196.53,-103 222.41,-71.11 238.5,-51.97"/>
<polygon fill="midnightblue" stroke="midnightblue" points="241.35,-54.03 245.15,-44.13 236.01,-49.5 241.35,-54.03"/>
</g>
<!-- Node13 -->
<g id="node13" class="node">
<title>Node13</title>
<g id="a_node13"><a xlink:href="ladel__ldl__symbolic_8c.html#a919feee5783ed6d5ffaff8dff6546976" target="_top" xlink:title="Symbolic part of the factorization.">
<polygon fill="white" stroke="black" points="201,-212 201,-231 308,-231 308,-212 201,-212"/>
<text text-anchor="middle" x="254.5" y="-219" font-family="Helvetica,sans-Serif" font-size="10.00">ladel_ldl_symbolic</text>
</a>
</g>
</g>
<!-- Node1&#45;&gt;Node13 -->
<g id="edge16" class="edge">
<title>Node1&#45;&gt;Node13</title>
<path fill="none" stroke="midnightblue" d="M98.75,-307.38C133.46,-288.11 193.06,-255.04 227.27,-236.05"/>
<polygon fill="midnightblue" stroke="midnightblue" points="229.17,-239.01 236.21,-231.09 225.77,-232.89 229.17,-239.01"/>
</g>
<!-- Node19 -->
<g id="node19" class="node">
<title>Node19</title>
<g id="a_node19"><a xlink:href="ladel__permutation_8c.html#a6fbceb4b665cce4b4397d74516d284a3" target="_top" xlink:title="Compute .">
<polygon fill="white" stroke="black" points="368,-49.5 368,-79.5 513,-79.5 513,-49.5 368,-49.5"/>
<text text-anchor="start" x="376" y="-67.5" font-family="Helvetica,sans-Serif" font-size="10.00">ladel_permute_symmetric</text>
<text text-anchor="middle" x="440.5" y="-56.5" font-family="Helvetica,sans-Serif" font-size="10.00">_matrix</text>
</a>
</g>
</g>
<!-- Node1&#45;&gt;Node19 -->
<g id="edge32" class="edge">
<title>Node1&#45;&gt;Node19</title>
<path fill="none" stroke="midnightblue" d="M82.15,-307.39C99.81,-283.11 137.16,-234.85 177,-202.5 243.54,-148.45 334.57,-106.33 390.08,-83.49"/>
<polygon fill="midnightblue" stroke="midnightblue" points="391.74,-86.59 399.69,-79.58 389.1,-80.11 391.74,-86.59"/>
</g>
<!-- Node4 -->
<g id="node4" class="node">
<title>Node4</title>
<g id="a_node4"><a xlink:href="ladel__global_8c.html#a15a407b5c8ad9de2faeb93fcd786e099" target="_top" xlink:title="Version of calloc (for mex or for regular C).">
<polygon fill="white" stroke="black" points="877.5,-294 877.5,-313 951.5,-313 951.5,-294 877.5,-294"/>
<text text-anchor="middle" x="914.5" y="-301" font-family="Helvetica,sans-Serif" font-size="10.00">ladel_calloc</text>
</a>
</g>
</g>
<!-- Node3&#45;&gt;Node4 -->
<g id="edge3" class="edge">
<title>Node3&#45;&gt;Node4</title>
<path fill="none" stroke="midnightblue" d="M647.69,-369.95C703.47,-356.01 807.09,-330.1 867.15,-315.09"/>
<polygon fill="midnightblue" stroke="midnightblue" points="868.27,-318.42 877.12,-312.6 866.57,-311.63 868.27,-318.42"/>
</g>
<!-- Node5 -->
<g id="node5" class="node">
<title>Node5</title>
<g id="a_node5"><a xlink:href="ladel__global_8c.html#a2c4e8897e9da3b9463281d19e0971ed5" target="_top" xlink:title="Free a factor.">
<polygon fill="white" stroke="black" points="716,-370 716,-389 815,-389 815,-370 716,-370"/>
<text text-anchor="middle" x="765.5" y="-377" font-family="Helvetica,sans-Serif" font-size="10.00">ladel_factor_free</text>
</a>
</g>
</g>
<!-- Node3&#45;&gt;Node5 -->
<g id="edge4" class="edge">
<title>Node3&#45;&gt;Node5</title>
<path fill="none" stroke="midnightblue" d="M668.1,-379.5C680.42,-379.5 693.43,-379.5 705.75,-379.5"/>
<polygon fill="midnightblue" stroke="midnightblue" points="705.92,-383 715.92,-379.5 705.92,-376 705.92,-383"/>
</g>
<!-- Node8 -->
<g id="node8" class="node">
<title>Node8</title>
<g id="a_node8"><a xlink:href="ladel__copy_8c.html#ab0af0935fc38b50643d179802695ac74" target="_top" xlink:title="Copies an integer vector (preallocated)">
<polygon fill="white" stroke="black" points="704,-408 704,-427 827,-427 827,-408 704,-408"/>
<text text-anchor="middle" x="765.5" y="-415" font-family="Helvetica,sans-Serif" font-size="10.00">ladel_int_vector_copy</text>
</a>
</g>
</g>
<!-- Node3&#45;&gt;Node8 -->
<g id="edge8" class="edge">
<title>Node3&#45;&gt;Node8</title>
<path fill="none" stroke="midnightblue" d="M648.61,-389.09C668.97,-394.08 694.07,-400.23 715.69,-405.53"/>
<polygon fill="midnightblue" stroke="midnightblue" points="715.12,-409 725.67,-407.98 716.79,-402.2 715.12,-409"/>
</g>
<!-- Node9 -->
<g id="node9" class="node">
<title>Node9</title>
<g id="a_node9"><a xlink:href="ladel__global_8c.html#a86142b1e820a5de1deea8ee656186245" target="_top" xlink:title="Version of malloc (for mex or for regular C).">
<polygon fill="white" stroke="black" points="875,-256 875,-275 954,-275 954,-256 875,-256"/>
<text text-anchor="middle" x="914.5" y="-263" font-family="Helvetica,sans-Serif" font-size="10.00">ladel_malloc</text>
</a>
</g>
</g>
<!-- Node3&#45;&gt;Node9 -->
<g id="edge9" class="edge">
<title>Node3&#45;&gt;Node9</title>
<path fill="none" stroke="midnightblue" d="M617.5,-369.94C636.19,-347.86 682.73,-294.49 704,-284.5 754.95,-260.56 820.5,-258.56 864.59,-260.76"/>
<polygon fill="midnightblue" stroke="midnightblue" points="864.58,-264.27 874.77,-261.36 864.99,-257.28 864.58,-264.27"/>
</g>
<!-- Node3&#45;&gt;Node10 -->
<g id="edge10" class="edge">
<title>Node3&#45;&gt;Node10</title>
<path fill="none" stroke="midnightblue" d="M637.02,-369.99C647.06,-366.06 658.31,-361.11 668,-355.5 685.54,-345.34 686.4,-337.56 704,-327.5 710.97,-323.52 718.72,-319.9 726.3,-316.75"/>
<polygon fill="midnightblue" stroke="midnightblue" points="727.71,-319.95 735.72,-313.01 725.13,-313.44 727.71,-319.95"/>
</g>
<!-- Node6 -->
<g id="node6" class="node">
<title>Node6</title>
<g id="a_node6"><a xlink:href="ladel__global_8c.html#a946ae8034525eb6db42d4a166be57968" target="_top" xlink:title="Version of free (for mex or for regular C).">
<polygon fill="white" stroke="black" points="1002,-180 1002,-199 1067,-199 1067,-180 1002,-180"/>
<text text-anchor="middle" x="1034.5" y="-187" font-family="Helvetica,sans-Serif" font-size="10.00">ladel_free</text>
</a>
</g>
</g>
<!-- Node5&#45;&gt;Node6 -->
<g id="edge5" class="edge">
<title>Node5&#45;&gt;Node6</title>
<path fill="none" stroke="midnightblue" d="M815.05,-370.28C866.36,-359.73 943.01,-341.47 966,-322.5 1002.31,-292.55 1021.09,-238.07 1028.92,-209"/>
<polygon fill="midnightblue" stroke="midnightblue" points="1032.34,-209.76 1031.41,-199.21 1025.56,-208.04 1032.34,-209.76"/>
</g>
<!-- Node5&#45;&gt;Node7 -->
<g id="edge6" class="edge">
<title>Node5&#45;&gt;Node7</title>
<path fill="none" stroke="midnightblue" d="M815.04,-379.5C827.06,-379.5 840.09,-379.5 852.62,-379.5"/>
<polygon fill="midnightblue" stroke="midnightblue" points="852.99,-383 862.99,-379.5 852.99,-376 852.99,-383"/>
</g>
<!-- Node7&#45;&gt;Node6 -->
<g id="edge7" class="edge">
<title>Node7&#45;&gt;Node6</title>
<path fill="none" stroke="midnightblue" d="M944.89,-369.96C952.51,-366.38 960.2,-361.64 966,-355.5 1006.3,-312.82 1023.86,-242.88 1030.31,-209.05"/>
<polygon fill="midnightblue" stroke="midnightblue" points="1033.78,-209.51 1032.09,-199.05 1026.89,-208.28 1033.78,-209.51"/>
</g>
<!-- Node10&#45;&gt;Node4 -->
<g id="edge11" class="edge">
<title>Node10&#45;&gt;Node4</title>
<path fill="none" stroke="midnightblue" d="M819.16,-303.5C834.82,-303.5 851.86,-303.5 867.09,-303.5"/>
<polygon fill="midnightblue" stroke="midnightblue" points="867.31,-307 877.31,-303.5 867.31,-300 867.31,-307"/>
</g>
<!-- Node10&#45;&gt;Node7 -->
<g id="edge13" class="edge">
<title>Node10&#45;&gt;Node7</title>
<path fill="none" stroke="midnightblue" d="M785.12,-313.13C810.63,-326.32 856.65,-350.11 886.1,-365.33"/>
<polygon fill="midnightblue" stroke="midnightblue" points="884.54,-368.47 895.03,-369.95 887.76,-362.25 884.54,-368.47"/>
</g>
<!-- Node10&#45;&gt;Node9 -->
<g id="edge12" class="edge">
<title>Node10&#45;&gt;Node9</title>
<path fill="none" stroke="midnightblue" d="M803.59,-293.91C822.82,-288.94 846.49,-282.82 866.93,-277.54"/>
<polygon fill="midnightblue" stroke="midnightblue" points="867.87,-280.91 876.67,-275.02 866.11,-274.13 867.87,-280.91"/>
</g>
<!-- Node12 -->
<g id="node12" class="node">
<title>Node12</title>
<g id="a_node12"><a xlink:href="ladel__pattern_8c.html#a2f95620dd9c0bb1d33f1dcbdaa9a25b2" target="_top" xlink:title="Computes the pattern of the (next) row in L.">
<polygon fill="white" stroke="black" points="378,-0.5 378,-30.5 503,-30.5 503,-0.5 378,-0.5"/>
<text text-anchor="start" x="386" y="-18.5" font-family="Helvetica,sans-Serif" font-size="10.00">ladel_nonzero_pattern</text>
<text text-anchor="middle" x="440.5" y="-7.5" font-family="Helvetica,sans-Serif" font-size="10.00">_of_row_in_L</text>
</a>
</g>
</g>
<!-- Node11&#45;&gt;Node12 -->
<g id="edge15" class="edge">
<title>Node11&#45;&gt;Node12</title>
<path fill="none" stroke="midnightblue" d="M332.2,-26.58C343.95,-25.37 356.03,-24.12 367.67,-22.92"/>
<polygon fill="midnightblue" stroke="midnightblue" points="368.17,-26.38 377.76,-21.88 367.45,-19.42 368.17,-26.38"/>
</g>
<!-- Node13&#45;&gt;Node2 -->
<g id="edge24" class="edge">
<title>Node13&#45;&gt;Node2</title>
<path fill="none" stroke="midnightblue" d="M265.81,-231.1C284.66,-248.14 326.55,-283.74 368,-303.5 376.43,-307.52 385.84,-310.79 394.99,-313.41"/>
<polygon fill="midnightblue" stroke="midnightblue" points="394.2,-316.82 404.76,-316 395.99,-310.05 394.2,-316.82"/>
</g>
<!-- Node13&#45;&gt;Node6 -->
<g id="edge26" class="edge">
<title>Node13&#45;&gt;Node6</title>
<path fill="none" stroke="midnightblue" d="M272.56,-211.97C288.72,-202.54 313.24,-187.12 332,-170.5 350.4,-154.19 346.11,-139.69 368,-128.5 463.1,-79.86 500.69,-108.5 607.5,-108.5 607.5,-108.5 607.5,-108.5 766.5,-108.5 857.59,-108.5 958.92,-152.2 1006.3,-175.41"/>
<polygon fill="midnightblue" stroke="midnightblue" points="1004.79,-178.57 1015.31,-179.89 1007.91,-172.3 1004.79,-178.57"/>
</g>
<!-- Node14 -->
<g id="node14" class="node">
<title>Node14</title>
<g id="a_node14"><a xlink:href="ladel__col__counts_8c.html#aa7284697012b8c3de4cece3e31915488" target="_top" xlink:title="Computes the column counts of the factor.">
<polygon fill="white" stroke="black" points="391.5,-275 391.5,-294 489.5,-294 489.5,-275 391.5,-275"/>
<text text-anchor="middle" x="440.5" y="-282" font-family="Helvetica,sans-Serif" font-size="10.00">ladel_col_counts</text>
</a>
</g>
</g>
<!-- Node13&#45;&gt;Node14 -->
<g id="edge17" class="edge">
<title>Node13&#45;&gt;Node14</title>
<path fill="none" stroke="midnightblue" d="M277.64,-231.02C300.14,-240.49 336.11,-255.06 368,-265.5 375.21,-267.86 382.91,-270.14 390.48,-272.26"/>
<polygon fill="midnightblue" stroke="midnightblue" points="389.73,-275.69 400.3,-274.94 391.57,-268.93 389.73,-275.69"/>
</g>
<!-- Node17 -->
<g id="node17" class="node">
<title>Node17</title>
<g id="a_node17"><a xlink:href="ladel__etree_8c.html#a4c37cc6c6df89960c5b39d28677d88a8" target="_top" xlink:title="Computes the elimination tree and column counts of a matrix.">
<polygon fill="white" stroke="black" points="383.5,-137.5 383.5,-167.5 497.5,-167.5 497.5,-137.5 383.5,-137.5"/>
<text text-anchor="start" x="391.5" y="-155.5" font-family="Helvetica,sans-Serif" font-size="10.00">ladel_etree_and_col</text>
<text text-anchor="middle" x="440.5" y="-144.5" font-family="Helvetica,sans-Serif" font-size="10.00">_counts</text>
</a>
</g>
</g>
<!-- Node13&#45;&gt;Node17 -->
<g id="edge25" class="edge">
<title>Node13&#45;&gt;Node17</title>
<path fill="none" stroke="midnightblue" d="M279.11,-211.98C301.81,-202.89 337.12,-188.93 368,-177.5 373.83,-175.34 379.94,-173.13 386.03,-170.96"/>
<polygon fill="midnightblue" stroke="midnightblue" points="387.29,-174.22 395.55,-167.58 384.95,-167.63 387.29,-174.22"/>
</g>
<!-- Node18 -->
<g id="node18" class="node">
<title>Node18</title>
<g id="a_node18"><a xlink:href="ladel__permutation_8c.html#ad4cf169953176bf72a9cf454dfd42712" target="_top" xlink:title="Invert a permutation vector, such that .">
<polygon fill="white" stroke="black" points="370.5,-225.5 370.5,-255.5 510.5,-255.5 510.5,-225.5 370.5,-225.5"/>
<text text-anchor="start" x="378.5" y="-243.5" font-family="Helvetica,sans-Serif" font-size="10.00">ladel_invert_permutation</text>
<text text-anchor="middle" x="440.5" y="-232.5" font-family="Helvetica,sans-Serif" font-size="10.00">_vector</text>
</a>
</g>
</g>
<!-- Node13&#45;&gt;Node18 -->
<g id="edge27" class="edge">
<title>Node13&#45;&gt;Node18</title>
<path fill="none" stroke="midnightblue" d="M308.23,-226.94C324.38,-228.61 342.53,-230.49 360.06,-232.3"/>
<polygon fill="midnightblue" stroke="midnightblue" points="359.98,-235.81 370.28,-233.35 360.7,-228.84 359.98,-235.81"/>
</g>
<!-- Node13&#45;&gt;Node19 -->
<g id="edge28" class="edge">
<title>Node13&#45;&gt;Node19</title>
<path fill="none" stroke="midnightblue" d="M270.79,-211.99C287.41,-201.1 313.98,-181.96 332,-160.5 353.49,-134.91 343.2,-116.89 368,-94.5 372.18,-90.72 376.91,-87.38 381.9,-84.43"/>
<polygon fill="midnightblue" stroke="midnightblue" points="383.9,-87.32 391.08,-79.53 380.61,-81.15 383.9,-87.32"/>
</g>
<!-- Node21 -->
<g id="node21" class="node">
<title>Node21</title>
<g id="a_node21"><a xlink:href="ladel__postorder_8c.html#ab60514b7b1353408852e59f09677016d" target="_top" xlink:title="Compute the postordering of the elimination tree.">
<polygon fill="white" stroke="black" points="394.5,-187 394.5,-206 486.5,-206 486.5,-187 394.5,-187"/>
<text text-anchor="middle" x="440.5" y="-194" font-family="Helvetica,sans-Serif" font-size="10.00">ladel_postorder</text>
</a>
</g>
</g>
<!-- Node13&#45;&gt;Node21 -->
<g id="edge31" class="edge">
<title>Node13&#45;&gt;Node21</title>
<path fill="none" stroke="midnightblue" d="M308.23,-214.34C332.01,-211.1 360.11,-207.29 384.2,-204.01"/>
<polygon fill="midnightblue" stroke="midnightblue" points="384.82,-207.46 394.25,-202.65 383.87,-200.53 384.82,-207.46"/>
</g>
<!-- Node14&#45;&gt;Node7 -->
<g id="edge19" class="edge">
<title>Node14&#45;&gt;Node7</title>
<path fill="none" stroke="midnightblue" d="M489.69,-290.6C498.19,-293.45 506.42,-297.56 513,-303.5 546.52,-333.75 515.19,-368.58 549,-398.5 602.11,-445.51 633.58,-427.99 704,-436.5 758.27,-443.06 774.64,-452.2 827,-436.5 853.41,-428.58 879.2,-409.71 895.65,-395.84"/>
<polygon fill="midnightblue" stroke="midnightblue" points="898.11,-398.34 903.35,-389.13 893.52,-393.06 898.11,-398.34"/>
</g>
<!-- Node15 -->
<g id="node15" class="node">
<title>Node15</title>
<g id="a_node15"><a xlink:href="ladel__col__counts_8c.html#a83727639c00ef21d2af7ccda5f116881" target="_top" xlink:title=" ">
<polygon fill="white" stroke="black" points="549.5,-269.5 549.5,-299.5 667.5,-299.5 667.5,-269.5 549.5,-269.5"/>
<text text-anchor="start" x="557.5" y="-287.5" font-family="Helvetica,sans-Serif" font-size="10.00">ladel_least_common</text>
<text text-anchor="middle" x="608.5" y="-276.5" font-family="Helvetica,sans-Serif" font-size="10.00">_ancestor</text>
</a>
</g>
</g>
<!-- Node14&#45;&gt;Node15 -->
<g id="edge18" class="edge">
<title>Node14&#45;&gt;Node15</title>
<path fill="none" stroke="midnightblue" d="M489.51,-284.5C504.98,-284.5 522.42,-284.5 539.06,-284.5"/>
<polygon fill="midnightblue" stroke="midnightblue" points="539.29,-288 549.29,-284.5 539.29,-281 539.29,-288"/>
</g>
<!-- Node16 -->
<g id="node16" class="node">
<title>Node16</title>
<g id="a_node16"><a xlink:href="ladel__transpose_8c.html#a8b00613708b897c9dbcd292dc9b89ed8" target="_top" xlink:title="Returns the transpose of a matrix, that is .">
<polygon fill="white" stroke="black" points="561.5,-224 561.5,-243 655.5,-243 655.5,-224 561.5,-224"/>
<text text-anchor="middle" x="608.5" y="-231" font-family="Helvetica,sans-Serif" font-size="10.00">ladel_transpose</text>
</a>
</g>
</g>
<!-- Node14&#45;&gt;Node16 -->
<g id="edge20" class="edge">
<title>Node14&#45;&gt;Node16</title>
<path fill="none" stroke="midnightblue" d="M479.48,-274.91C490.35,-272.03 502.18,-268.77 513,-265.5 532.27,-259.68 553.51,-252.56 570.97,-246.5"/>
<polygon fill="midnightblue" stroke="midnightblue" points="572.48,-249.68 580.77,-243.08 570.17,-243.08 572.48,-249.68"/>
</g>
<!-- Node16&#45;&gt;Node6 -->
<g id="edge21" class="edge">
<title>Node16&#45;&gt;Node6</title>
<path fill="none" stroke="midnightblue" d="M655.68,-228.71C738.67,-220.1 911.77,-202.13 991.57,-193.85"/>
<polygon fill="midnightblue" stroke="midnightblue" points="992.15,-197.31 1001.73,-192.8 991.43,-190.35 992.15,-197.31"/>
</g>
<!-- Node16&#45;&gt;Node9 -->
<g id="edge22" class="edge">
<title>Node16&#45;&gt;Node9</title>
<path fill="none" stroke="midnightblue" d="M655.85,-236.29C699.96,-239.19 768.14,-244.31 827,-251.5 839.27,-253 852.46,-254.96 864.76,-256.93"/>
<polygon fill="midnightblue" stroke="midnightblue" points="864.4,-260.42 874.84,-258.58 865.54,-253.51 864.4,-260.42"/>
</g>
<!-- Node16&#45;&gt;Node10 -->
<g id="edge23" class="edge">
<title>Node16&#45;&gt;Node10</title>
<path fill="none" stroke="midnightblue" d="M630.73,-243.09C657.36,-255.11 703.23,-275.83 733.72,-289.6"/>
<polygon fill="midnightblue" stroke="midnightblue" points="732.48,-292.88 743.03,-293.8 735.36,-286.5 732.48,-292.88"/>
</g>
<!-- Node20 -->
<g id="node20" class="node">
<title>Node20</title>
<g id="a_node20"><a xlink:href="ladel__copy_8c.html#a97ad68065f3cb0241e4a6427e2e196a7" target="_top" xlink:title="Copies a matrix (preallocated)">
<polygon fill="white" stroke="black" points="712,-59 712,-78 819,-78 819,-59 712,-59"/>
<text text-anchor="middle" x="765.5" y="-66" font-family="Helvetica,sans-Serif" font-size="10.00">ladel_sparse_copy</text>
</a>
</g>
</g>
<!-- Node19&#45;&gt;Node20 -->
<g id="edge29" class="edge">
<title>Node19&#45;&gt;Node20</title>
<path fill="none" stroke="midnightblue" d="M513.18,-65.39C569.67,-66.09 647.64,-67.05 701.7,-67.72"/>
<polygon fill="midnightblue" stroke="midnightblue" points="701.8,-71.22 711.84,-67.85 701.88,-64.22 701.8,-71.22"/>
</g>
<!-- Node20&#45;&gt;Node6 -->
<g id="edge30" class="edge">
<title>Node20&#45;&gt;Node6</title>
<path fill="none" stroke="midnightblue" d="M819.41,-64.26C861.94,-63.34 921.7,-67.86 966,-94.5 995.49,-112.23 1015.59,-148.33 1025.76,-170.57"/>
<polygon fill="midnightblue" stroke="midnightblue" points="1022.64,-172.18 1029.84,-179.96 1029.06,-169.39 1022.64,-172.18"/>
</g>
</g>
</svg>
