<?xml version="1.0" encoding="UTF-8" standalone="no"?>
<!DOCTYPE svg PUBLIC "-//W3C//DTD SVG 1.1//EN"
 "http://www.w3.org/Graphics/SVG/1.1/DTD/svg11.dtd">
<!-- Generated by graphviz version 2.43.0 (0)
 -->
<!-- Title: ladel_row_add Pages: 1 -->
<svg width="588pt" height="326pt"
 viewBox="0.00 0.00 588.00 325.68" xmlns="http://www.w3.org/2000/svg" xmlns:xlink="http://www.w3.org/1999/xlink">
<g id="graph0" class="graph" transform="scale(1 1) rotate(0) translate(4 321.68)">
<title>ladel_row_add</title>
<polygon fill="white" stroke="transparent" points="-4,4 -4,-321.68 584,-321.68 584,4 -4,4"/>
<!-- Node1 -->
<g id="node1" class="node">
<title>Node1</title>
<g id="a_node1"><a xlink:title="Updates an &#160;factorization.">
<polygon fill="#bfbfbf" stroke="black" points="0,-178.18 0,-197.18 87,-197.18 87,-178.18 0,-178.18"/>
<text text-anchor="middle" x="43.5" y="-185.18" font-family="Helvetica,sans-Serif" font-size="10.00">ladel_row_add</text>
</a>
</g>
</g>
<!-- Node2 -->
<g id="node2" class="node">
<title>Node2</title>
<g id="a_node2"><a xlink:href="ladel__copy_8c.html#adcdba99af9a8c91a00b1ba4f0fa1c775" target="_top" xlink:title="Copies a double vector (preallocated)">
<polygon fill="white" stroke="black" points="123,-298.18 123,-317.18 266,-317.18 266,-298.18 123,-298.18"/>
<text text-anchor="middle" x="194.5" y="-305.18" font-family="Helvetica,sans-Serif" font-size="10.00">ladel_double_vector_copy</text>
</a>
</g>
</g>
<!-- Node1&#45;&gt;Node2 -->
<g id="edge1" class="edge">
<title>Node1&#45;&gt;Node2</title>
<path fill="none" stroke="midnightblue" d="M49.28,-197.44C59.72,-217.71 86.57,-264.46 123,-288.68 126.08,-290.73 129.38,-292.56 132.81,-294.19"/>
<polygon fill="midnightblue" stroke="midnightblue" points="131.53,-297.45 142.1,-298.07 134.22,-290.99 131.53,-297.45"/>
</g>
<!-- Node3 -->
<g id="node3" class="node">
<title>Node3</title>
<g id="a_node3"><a xlink:href="ladel__pattern_8c.html#ac558a3c230efb67f771677846dd3f3e7" target="_top" xlink:title="Computes a depth&#45;first search of the given pattern through the elimination tree.">
<polygon fill="white" stroke="black" points="148.5,-260.18 148.5,-279.18 240.5,-279.18 240.5,-260.18 148.5,-260.18"/>
<text text-anchor="middle" x="194.5" y="-267.18" font-family="Helvetica,sans-Serif" font-size="10.00">ladel_etree_dfs</text>
</a>
</g>
</g>
<!-- Node1&#45;&gt;Node3 -->
<g id="edge2" class="edge">
<title>Node1&#45;&gt;Node3</title>
<path fill="none" stroke="midnightblue" d="M53.73,-197.28C67.54,-211.08 94.95,-236.44 123,-250.68 127.95,-253.19 133.26,-255.4 138.67,-257.33"/>
<polygon fill="midnightblue" stroke="midnightblue" points="137.87,-260.75 148.46,-260.53 140.04,-254.1 137.87,-260.75"/>
</g>
<!-- Node4 -->
<g id="node4" class="node">
<title>Node4</title>
<g id="a_node4"><a xlink:href="ladel__copy_8c.html#ab0af0935fc38b50643d179802695ac74" target="_top" xlink:title="Copies an integer vector (preallocated)">
<polygon fill="white" stroke="black" points="133,-222.18 133,-241.18 256,-241.18 256,-222.18 133,-222.18"/>
<text text-anchor="middle" x="194.5" y="-229.18" font-family="Helvetica,sans-Serif" font-size="10.00">ladel_int_vector_copy</text>
</a>
</g>
</g>
<!-- Node1&#45;&gt;Node4 -->
<g id="edge3" class="edge">
<title>Node1&#45;&gt;Node4</title>
<path fill="none" stroke="midnightblue" d="M73.48,-197.25C88.25,-202.05 106.53,-207.84 123,-212.68 130.78,-214.97 139.08,-217.3 147.14,-219.51"/>
<polygon fill="midnightblue" stroke="midnightblue" points="146.25,-222.89 156.82,-222.13 148.09,-216.14 146.25,-222.89"/>
</g>
<!-- Node5 -->
<g id="node5" class="node">
<title>Node5</title>
<g id="a_node5"><a xlink:href="ladel__permutation_8c.html#af9b1666ea1b1dff808fd7d9689fee88e" target="_top" xlink:title="Permute x(:,col) in place, such that on output .">
<polygon fill="white" stroke="black" points="132,-172.68 132,-202.68 257,-202.68 257,-172.68 132,-172.68"/>
<text text-anchor="start" x="140" y="-190.68" font-family="Helvetica,sans-Serif" font-size="10.00">ladel_permute_sparse</text>
<text text-anchor="middle" x="194.5" y="-179.68" font-family="Helvetica,sans-Serif" font-size="10.00">_vector</text>
</a>
</g>
</g>
<!-- Node1&#45;&gt;Node5 -->
<g id="edge4" class="edge">
<title>Node1&#45;&gt;Node5</title>
<path fill="none" stroke="midnightblue" d="M87.2,-187.68C97.97,-187.68 109.84,-187.68 121.62,-187.68"/>
<polygon fill="midnightblue" stroke="midnightblue" points="121.92,-191.18 131.92,-187.68 121.92,-184.18 121.92,-191.18"/>
</g>
<!-- Node6 -->
<g id="node6" class="node">
<title>Node6</title>
<g id="a_node6"><a xlink:href="group__grp-solver.html#ga72047161adb30f5041b7e136eb77c023" target="_top" xlink:title="Updates an &#160;factorization.">
<polygon fill="white" stroke="black" points="138,-74.18 138,-93.18 251,-93.18 251,-74.18 138,-74.18"/>
<text text-anchor="middle" x="194.5" y="-81.18" font-family="Helvetica,sans-Serif" font-size="10.00">ladel_rank1_update</text>
</a>
</g>
</g>
<!-- Node1&#45;&gt;Node6 -->
<g id="edge5" class="edge">
<title>Node1&#45;&gt;Node6</title>
<path fill="none" stroke="midnightblue" d="M57.12,-178.01C72.49,-166.3 99.34,-146.12 123,-129.68 138.36,-119.01 155.98,-107.51 169.76,-98.68"/>
<polygon fill="midnightblue" stroke="midnightblue" points="171.65,-101.63 178.2,-93.3 167.89,-95.72 171.65,-101.63"/>
</g>
<!-- Node8 -->
<g id="node8" class="node">
<title>Node8</title>
<g id="a_node8"><a xlink:href="ladel__global_8c.html#a739147d9bee170cc3d4f1910698a0fda" target="_top" xlink:title="Fill in the fields of the given set.">
<polygon fill="white" stroke="black" points="493,-8.18 493,-27.18 574,-27.18 574,-8.18 493,-8.18"/>
<text text-anchor="middle" x="533.5" y="-15.18" font-family="Helvetica,sans-Serif" font-size="10.00">ladel_set_set</text>
</a>
</g>
</g>
<!-- Node1&#45;&gt;Node8 -->
<g id="edge11" class="edge">
<title>Node1&#45;&gt;Node8</title>
<path fill="none" stroke="midnightblue" d="M47.89,-177.98C56.53,-154.7 81.68,-95.29 123,-64.68 230.64,15.06 399.82,3.31 482.98,-8.76"/>
<polygon fill="midnightblue" stroke="midnightblue" points="482.52,-12.23 492.93,-10.27 483.56,-5.31 482.52,-12.23"/>
</g>
<!-- Node9 -->
<g id="node9" class="node">
<title>Node9</title>
<g id="a_node9"><a xlink:href="ladel__rank1__mod_8c.html#a48b2b84795a7de345e14892631b0a258" target="_top" xlink:title="Computes the set union of two index sets.">
<polygon fill="white" stroke="black" points="487,-96.18 487,-115.18 580,-115.18 580,-96.18 487,-96.18"/>
<text text-anchor="middle" x="533.5" y="-103.18" font-family="Helvetica,sans-Serif" font-size="10.00">ladel_set_union</text>
</a>
</g>
</g>
<!-- Node1&#45;&gt;Node9 -->
<g id="edge12" class="edge">
<title>Node1&#45;&gt;Node9</title>
<path fill="none" stroke="midnightblue" d="M71.83,-178.18C86.79,-173.27 105.75,-167.51 123,-163.68 247.94,-135.91 397.42,-118.69 476.7,-110.8"/>
<polygon fill="midnightblue" stroke="midnightblue" points="477.33,-114.25 486.94,-109.79 476.65,-107.28 477.33,-114.25"/>
</g>
<!-- Node7 -->
<g id="node7" class="node">
<title>Node7</title>
<g id="a_node7"><a xlink:href="ladel__rank1__mod_8c.html#a21b039a6b3019677779a31f14b3d8085" target="_top" xlink:title="Adds the nonzero pattern in set to the pattern of the col of L.">
<polygon fill="white" stroke="black" points="302,-46.68 302,-76.68 451,-76.68 451,-46.68 302,-46.68"/>
<text text-anchor="start" x="310" y="-64.68" font-family="Helvetica,sans-Serif" font-size="10.00">ladel_add_nonzero_pattern</text>
<text text-anchor="middle" x="376.5" y="-53.68" font-family="Helvetica,sans-Serif" font-size="10.00">_to_col_of_L</text>
</a>
</g>
</g>
<!-- Node6&#45;&gt;Node7 -->
<g id="edge6" class="edge">
<title>Node6&#45;&gt;Node7</title>
<path fill="none" stroke="midnightblue" d="M251.47,-76.84C264.13,-75.29 277.85,-73.62 291.39,-71.96"/>
<polygon fill="midnightblue" stroke="midnightblue" points="292.19,-75.39 301.69,-70.7 291.34,-68.44 292.19,-75.39"/>
</g>
<!-- Node6&#45;&gt;Node8 -->
<g id="edge9" class="edge">
<title>Node6&#45;&gt;Node8</title>
<path fill="none" stroke="midnightblue" d="M212.57,-74C233.09,-62.88 268.9,-45.09 302,-36.68 362.78,-21.23 435.2,-17.56 482.42,-17.05"/>
<polygon fill="midnightblue" stroke="midnightblue" points="482.71,-20.55 492.69,-16.98 482.67,-13.55 482.71,-20.55"/>
</g>
<!-- Node6&#45;&gt;Node9 -->
<g id="edge10" class="edge">
<title>Node6&#45;&gt;Node9</title>
<path fill="none" stroke="midnightblue" d="M251.15,-87.31C313.57,-91.39 414.24,-97.96 476.72,-102.04"/>
<polygon fill="midnightblue" stroke="midnightblue" points="476.58,-105.54 486.78,-102.7 477.03,-98.55 476.58,-105.54"/>
</g>
<!-- Node7&#45;&gt;Node8 -->
<g id="edge7" class="edge">
<title>Node7&#45;&gt;Node8</title>
<path fill="none" stroke="midnightblue" d="M430.41,-46.66C449.5,-41.24 470.81,-35.19 489.01,-30.03"/>
<polygon fill="midnightblue" stroke="midnightblue" points="490.09,-33.36 498.76,-27.26 488.18,-26.62 490.09,-33.36"/>
</g>
<!-- Node7&#45;&gt;Node9 -->
<g id="edge8" class="edge">
<title>Node7&#45;&gt;Node9</title>
<path fill="none" stroke="midnightblue" d="M430.41,-76.7C449.5,-82.12 470.81,-88.17 489.01,-93.33"/>
<polygon fill="midnightblue" stroke="midnightblue" points="488.18,-96.74 498.76,-96.1 490.09,-90 488.18,-96.74"/>
</g>
</g>
</svg>
