<?xml version="1.0" encoding="UTF-8" standalone="no"?>
<!DOCTYPE svg PUBLIC "-//W3C//DTD SVG 1.1//EN"
 "http://www.w3.org/Graphics/SVG/1.1/DTD/svg11.dtd">
<!-- Generated by graphviz version 2.43.0 (0)
 -->
<!-- Title: ladel_row_del Pages: 1 -->
<svg width="555pt" height="69pt"
 viewBox="0.00 0.00 555.00 69.11" xmlns="http://www.w3.org/2000/svg" xmlns:xlink="http://www.w3.org/1999/xlink">
<g id="graph0" class="graph" transform="scale(1 1) rotate(0) translate(4 65.11)">
<title>ladel_row_del</title>
<polygon fill="white" stroke="transparent" points="-4,4 -4,-65.11 551,-65.11 551,4 -4,4"/>
<!-- Node1 -->
<g id="node1" class="node">
<title>Node1</title>
<g id="a_node1"><a xlink:title="Updates an &#160;factorization.">
<polygon fill="#bfbfbf" stroke="black" points="0,-21.5 0,-40.5 84,-40.5 84,-21.5 0,-21.5"/>
<text text-anchor="middle" x="42" y="-28.5" font-family="Helvetica,sans-Serif" font-size="10.00">ladel_row_del</text>
</a>
</g>
</g>
<!-- Node2 -->
<g id="node2" class="node">
<title>Node2</title>
<g id="a_node2"><a xlink:href="group__grp-solver.html#ga72047161adb30f5041b7e136eb77c023" target="_top" xlink:title="Updates an &#160;factorization.">
<polygon fill="white" stroke="black" points="120,-21.5 120,-40.5 233,-40.5 233,-21.5 120,-21.5"/>
<text text-anchor="middle" x="176.5" y="-28.5" font-family="Helvetica,sans-Serif" font-size="10.00">ladel_rank1_update</text>
</a>
</g>
</g>
<!-- Node1&#45;&gt;Node2 -->
<g id="edge1" class="edge">
<title>Node1&#45;&gt;Node2</title>
<path fill="none" stroke="midnightblue" d="M84.2,-31C92.28,-31 100.94,-31 109.6,-31"/>
<polygon fill="midnightblue" stroke="midnightblue" points="109.72,-34.5 119.72,-31 109.72,-27.5 109.72,-34.5"/>
</g>
<!-- Node3 -->
<g id="node3" class="node">
<title>Node3</title>
<g id="a_node3"><a xlink:href="ladel__rank1__mod_8c.html#a21b039a6b3019677779a31f14b3d8085" target="_top" xlink:title="Adds the nonzero pattern in set to the pattern of the col of L.">
<polygon fill="white" stroke="black" points="269,-16 269,-46 418,-46 418,-16 269,-16"/>
<text text-anchor="start" x="277" y="-34" font-family="Helvetica,sans-Serif" font-size="10.00">ladel_add_nonzero_pattern</text>
<text text-anchor="middle" x="343.5" y="-23" font-family="Helvetica,sans-Serif" font-size="10.00">_to_col_of_L</text>
</a>
</g>
</g>
<!-- Node2&#45;&gt;Node3 -->
<g id="edge2" class="edge">
<title>Node2&#45;&gt;Node3</title>
<path fill="none" stroke="midnightblue" d="M233.36,-31C241.56,-31 250.15,-31 258.76,-31"/>
<polygon fill="midnightblue" stroke="midnightblue" points="258.85,-34.5 268.85,-31 258.85,-27.5 258.85,-34.5"/>
</g>
<!-- Node4 -->
<g id="node4" class="node">
<title>Node4</title>
<g id="a_node4"><a xlink:href="ladel__global_8c.html#a739147d9bee170cc3d4f1910698a0fda" target="_top" xlink:title="Fill in the fields of the given set.">
<polygon fill="white" stroke="black" points="460,-41.5 460,-60.5 541,-60.5 541,-41.5 460,-41.5"/>
<text text-anchor="middle" x="500.5" y="-48.5" font-family="Helvetica,sans-Serif" font-size="10.00">ladel_set_set</text>
</a>
</g>
</g>
<!-- Node2&#45;&gt;Node4 -->
<g id="edge5" class="edge">
<title>Node2&#45;&gt;Node4</title>
<path fill="none" stroke="midnightblue" d="M205.13,-40.62C223.08,-46.35 247.13,-53.07 269,-56 330.78,-64.29 402.69,-60.64 449.54,-56.52"/>
<polygon fill="midnightblue" stroke="midnightblue" points="450.09,-59.98 459.73,-55.58 449.45,-53.01 450.09,-59.98"/>
</g>
<!-- Node5 -->
<g id="node5" class="node">
<title>Node5</title>
<g id="a_node5"><a xlink:href="ladel__rank1__mod_8c.html#a48b2b84795a7de345e14892631b0a258" target="_top" xlink:title="Computes the set union of two index sets.">
<polygon fill="white" stroke="black" points="454,-0.5 454,-19.5 547,-19.5 547,-0.5 454,-0.5"/>
<text text-anchor="middle" x="500.5" y="-7.5" font-family="Helvetica,sans-Serif" font-size="10.00">ladel_set_union</text>
</a>
</g>
</g>
<!-- Node2&#45;&gt;Node5 -->
<g id="edge6" class="edge">
<title>Node2&#45;&gt;Node5</title>
<path fill="none" stroke="midnightblue" d="M205.13,-21.38C223.08,-15.65 247.13,-8.93 269,-6 328.19,1.94 396.69,-0.73 443.54,-4.35"/>
<polygon fill="midnightblue" stroke="midnightblue" points="443.53,-7.86 453.78,-5.18 444.1,-0.88 443.53,-7.86"/>
</g>
<!-- Node3&#45;&gt;Node4 -->
<g id="edge3" class="edge">
<title>Node3&#45;&gt;Node4</title>
<path fill="none" stroke="midnightblue" d="M418.37,-40.53C429.02,-41.91 439.76,-43.29 449.78,-44.58"/>
<polygon fill="midnightblue" stroke="midnightblue" points="449.57,-48.09 459.94,-45.89 450.47,-41.14 449.57,-48.09"/>
</g>
<!-- Node3&#45;&gt;Node5 -->
<g id="edge4" class="edge">
<title>Node3&#45;&gt;Node5</title>
<path fill="none" stroke="midnightblue" d="M418.37,-20.99C426.81,-19.85 435.31,-18.7 443.47,-17.59"/>
<polygon fill="midnightblue" stroke="midnightblue" points="444.15,-21.03 453.58,-16.22 443.21,-14.1 444.15,-21.03"/>
</g>
</g>
</svg>
