<?xml version="1.0" encoding="UTF-8" standalone="no"?>
<!DOCTYPE svg PUBLIC "-//W3C//DTD SVG 1.1//EN"
 "http://www.w3.org/Graphics/SVG/1.1/DTD/svg11.dtd">
<!-- Generated by graphviz version 2.43.0 (0)
 -->
<!-- Title: LADEL/include/ladel_constants.h Pages: 1 -->
<!--zoomable 307 -->
<svg id="main" version="1.1" xmlns="http://www.w3.org/2000/svg" xmlns:xlink="http://www.w3.org/1999/xlink" xml:space="preserve" onload="init(evt)">
<style type="text/css"><![CDATA[
.edge:hover path { stroke: red; }
.edge:hover polygon { stroke: red; fill: red; }
]]></style>
<script type="text/javascript"><![CDATA[
var edges = document.getElementsByTagName('g');
if (edges && edges.length) {
  for (var i=0;i<edges.length;i++) {
    if (edges[i].id.substr(0,4)=='edge') {
      edges[i].setAttribute('class','edge');
    }
  }
}
]]></script>
        <defs>
                <circle id="rim" cx="0" cy="0" r="7"/>
                <circle id="rim2" cx="0" cy="0" r="3.5"/>
                <g id="zoomPlus">
                        <use xlink:href="#rim" fill="#404040">
                                <set attributeName="fill" to="#808080" begin="zoomplus.mouseover" end="zoomplus.mouseout"/>
                        </use>
                        <path d="M-4,0h8M0,-4v8" fill="none" stroke="white" stroke-width="1.5" pointer-events="none"/>
                </g>
                <g id="zoomMin">
                        <use xlink:href="#rim" fill="#404040">
                                <set attributeName="fill" to="#808080" begin="zoomminus.mouseover" end="zoomminus.mouseout"/>
                        </use>
                        <path d="M-4,0h8" fill="none" stroke="white" stroke-width="1.5" pointer-events="none"/>
                </g>
                <g id="dirArrow">
                        <path fill="none" stroke="white" stroke-width="1.5" d="M0,-3.0v7 M-2.5,-0.5L0,-3.0L2.5,-0.5"/>
                </g>
               <g id="resetDef">
                       <use xlink:href="#rim2" fill="#404040">
                               <set attributeName="fill" to="#808080" begin="reset.mouseover" end="reset.mouseout"/>
                       </use>
               </g>
        </defs>

<script type="text/javascript">
var viewWidth = 2460;
var viewHeight = 307;
var sectionId = 'dynsection-0';
</script>
<script xlink:href="svgpan.js"/>
<svg id="graph" class="graph">
<g id="viewport">
<title>LADEL/include/ladel_constants.h</title>
<polygon fill="white" stroke="transparent" points="-4,4 -4,-303 2455.94,-303 2455.94,4 -4,4"/>
<!-- Node1 -->
<g id="node1" class="node">
<title>Node1</title>
<g id="a_node1"><a xlink:title="Constants and macros used in LADEL.">
<polygon fill="#bfbfbf" stroke="black" points="1546,-268.5 1546,-298.5 1659,-298.5 1659,-268.5 1546,-268.5"/>
<text text-anchor="start" x="1554" y="-286.5" font-family="Helvetica,sans-Serif" font-size="10.00">LADEL/include/ladel</text>
<text text-anchor="middle" x="1602.5" y="-275.5" font-family="Helvetica,sans-Serif" font-size="10.00">_constants.h</text>
</a>
</g>
</g>
<!-- Node2 -->
<g id="node2" class="node">
<title>Node2</title>
<g id="a_node2"><a xlink:href="ladel_8h.html" target="_top" xlink:title="LADEL main include file.">
<polygon fill="white" stroke="black" points="59.5,-73 59.5,-92 181.5,-92 181.5,-73 59.5,-73"/>
<text text-anchor="middle" x="120.5" y="-80" font-family="Helvetica,sans-Serif" font-size="10.00">LADEL/include/ladel.h</text>
</a>
</g>
</g>
<!-- Node1&#45;&gt;Node2 -->
<g id="edge1" class="edge">
<title>Node1&#45;&gt;Node2</title>
<path fill="none" stroke="midnightblue" d="M1535.79,-281.99C1263.72,-279.65 249.66,-268.52 192.5,-232 141.31,-199.3 125.53,-118.92 121.61,-92.25"/>
<polygon fill="midnightblue" stroke="midnightblue" points="1535.88,-285.49 1545.91,-282.07 1535.94,-278.49 1535.88,-285.49"/>
</g>
<!-- Node3 -->
<g id="node3" class="node">
<title>Node3</title>
<g id="a_node3"><a xlink:href="ladel_8c.html" target="_top" xlink:title=" ">
<polygon fill="white" stroke="black" points="0,-6 0,-25 101,-25 101,-6 0,-6"/>
<text text-anchor="middle" x="50.5" y="-13" font-family="Helvetica,sans-Serif" font-size="10.00">LADEL/src/ladel.c</text>
</a>
</g>
</g>
<!-- Node1&#45;&gt;Node3 -->
<g id="edge40" class="edge">
<title>Node1&#45;&gt;Node3</title>
<path fill="none" stroke="midnightblue" d="M1535.48,-281.64C1252.49,-277.84 166.85,-261.4 100.5,-232 62.57,-215.19 51.09,-203.45 35.5,-165 15.35,-115.29 37.59,-48.88 46.85,-25.28"/>
<polygon fill="midnightblue" stroke="midnightblue" points="1535.55,-285.14 1545.6,-281.78 1535.65,-278.14 1535.55,-285.14"/>
</g>
<!-- Node4 -->
<g id="node4" class="node">
<title>Node4</title>
<g id="a_node4"><a xlink:href="ladel__row__mod_8c.html" target="_top" xlink:title=" ">
<polygon fill="white" stroke="black" points="131.5,-0.5 131.5,-30.5 247.5,-30.5 247.5,-0.5 131.5,-0.5"/>
<text text-anchor="start" x="139.5" y="-18.5" font-family="Helvetica,sans-Serif" font-size="10.00">LADEL/src/ladel_row</text>
<text text-anchor="middle" x="189.5" y="-7.5" font-family="Helvetica,sans-Serif" font-size="10.00">_mod.c</text>
</a>
</g>
</g>
<!-- Node1&#45;&gt;Node4 -->
<g id="edge51" class="edge">
<title>Node1&#45;&gt;Node4</title>
<path fill="none" stroke="midnightblue" d="M1535.71,-281.72C1259.72,-278.28 219.7,-263.28 157.5,-232 79.41,-192.73 0.35,-138.58 50.5,-67 60.33,-52.96 97.71,-39.83 131.23,-30.48"/>
<polygon fill="midnightblue" stroke="midnightblue" points="1535.93,-285.22 1545.98,-281.84 1536.02,-278.22 1535.93,-285.22"/>
</g>
<!-- Node5 -->
<g id="node5" class="node">
<title>Node5</title>
<g id="a_node5"><a xlink:href="ladel__global_8h.html" target="_top" xlink:title="Memory allocation routines.">
<polygon fill="white" stroke="black" points="1029,-201.5 1029,-231.5 1142,-231.5 1142,-201.5 1029,-201.5"/>
<text text-anchor="start" x="1037" y="-219.5" font-family="Helvetica,sans-Serif" font-size="10.00">LADEL/include/ladel</text>
<text text-anchor="middle" x="1085.5" y="-208.5" font-family="Helvetica,sans-Serif" font-size="10.00">_global.h</text>
</a>
</g>
</g>
<!-- Node1&#45;&gt;Node5 -->
<g id="edge4" class="edge">
<title>Node1&#45;&gt;Node5</title>
<path fill="none" stroke="midnightblue" d="M1535.75,-274.11C1433.06,-261.2 1238.14,-236.69 1142.01,-224.6"/>
<polygon fill="midnightblue" stroke="midnightblue" points="1535.33,-277.58 1545.69,-275.36 1536.21,-270.64 1535.33,-277.58"/>
</g>
<!-- Node7 -->
<g id="node7" class="node">
<title>Node7</title>
<g id="a_node7"><a xlink:href="ladel__col__counts_8c.html" target="_top" xlink:title=" ">
<polygon fill="white" stroke="black" points="199.5,-67.5 199.5,-97.5 311.5,-97.5 311.5,-67.5 199.5,-67.5"/>
<text text-anchor="start" x="207.5" y="-85.5" font-family="Helvetica,sans-Serif" font-size="10.00">LADEL/src/ladel_col</text>
<text text-anchor="middle" x="255.5" y="-74.5" font-family="Helvetica,sans-Serif" font-size="10.00">_counts.c</text>
</a>
</g>
</g>
<!-- Node1&#45;&gt;Node7 -->
<g id="edge42" class="edge">
<title>Node1&#45;&gt;Node7</title>
<path fill="none" stroke="midnightblue" d="M1535.8,-282.05C1282.92,-280.07 391.45,-270.38 270.5,-232 218.45,-215.48 193.54,-213 167.5,-165 160.93,-152.89 160.6,-145.92 167.5,-134 177.21,-117.23 194.82,-105.55 211.75,-97.68"/>
<polygon fill="midnightblue" stroke="midnightblue" points="1535.92,-285.55 1545.94,-282.13 1535.97,-278.55 1535.92,-285.55"/>
</g>
<!-- Node9 -->
<g id="node9" class="node">
<title>Node9</title>
<g id="a_node9"><a xlink:href="ladel__etree_8c.html" target="_top" xlink:title=" ">
<polygon fill="white" stroke="black" points="584,-73 584,-92 715,-92 715,-73 584,-73"/>
<text text-anchor="middle" x="649.5" y="-80" font-family="Helvetica,sans-Serif" font-size="10.00">LADEL/src/ladel_etree.c</text>
</a>
</g>
</g>
<!-- Node1&#45;&gt;Node9 -->
<g id="edge43" class="edge">
<title>Node1&#45;&gt;Node9</title>
<path fill="none" stroke="midnightblue" d="M1535.66,-282.17C1266.3,-280.17 270.48,-265.96 177.5,-165 168.17,-154.87 168.21,-144.17 177.5,-134 207.37,-101.3 530.65,-104.21 574.5,-98 585.79,-96.4 597.96,-94.24 609.14,-92.07"/>
<polygon fill="midnightblue" stroke="midnightblue" points="1535.66,-285.67 1545.68,-282.24 1535.71,-278.67 1535.66,-285.67"/>
</g>
<!-- Node10 -->
<g id="node10" class="node">
<title>Node10</title>
<g id="a_node10"><a xlink:href="ladel__ldl__numeric_8c.html" target="_top" xlink:title=" ">
<polygon fill="white" stroke="black" points="1143.5,-67.5 1143.5,-97.5 1253.5,-97.5 1253.5,-67.5 1143.5,-67.5"/>
<text text-anchor="start" x="1151.5" y="-85.5" font-family="Helvetica,sans-Serif" font-size="10.00">LADEL/src/ladel_ldl</text>
<text text-anchor="middle" x="1198.5" y="-74.5" font-family="Helvetica,sans-Serif" font-size="10.00">_numeric.c</text>
</a>
</g>
</g>
<!-- Node1&#45;&gt;Node10 -->
<g id="edge45" class="edge">
<title>Node1&#45;&gt;Node10</title>
<path fill="none" stroke="midnightblue" d="M1669.32,-279.93C1871.56,-271.01 2457.3,-236.1 2358.5,-134 2316.13,-90.22 1322.92,-105.77 1262.5,-98 1259.56,-97.62 1256.56,-97.17 1253.54,-96.67"/>
<polygon fill="midnightblue" stroke="midnightblue" points="1668.97,-276.44 1659.13,-280.37 1669.27,-283.44 1668.97,-276.44"/>
</g>
<!-- Node11 -->
<g id="node11" class="node">
<title>Node11</title>
<g id="a_node11"><a xlink:href="ladel__ldl__symbolic_8c.html" target="_top" xlink:title=" ">
<polygon fill="white" stroke="black" points="1271.5,-67.5 1271.5,-97.5 1381.5,-97.5 1381.5,-67.5 1271.5,-67.5"/>
<text text-anchor="start" x="1279.5" y="-85.5" font-family="Helvetica,sans-Serif" font-size="10.00">LADEL/src/ladel_ldl</text>
<text text-anchor="middle" x="1326.5" y="-74.5" font-family="Helvetica,sans-Serif" font-size="10.00">_symbolic.c</text>
</a>
</g>
</g>
<!-- Node1&#45;&gt;Node11 -->
<g id="edge46" class="edge">
<title>Node1&#45;&gt;Node11</title>
<path fill="none" stroke="midnightblue" d="M1669.25,-280.69C1855.18,-275.31 2366.93,-258.19 2391.5,-232 2421.3,-200.23 2421.74,-165.35 2391.5,-134 2352.87,-93.95 1445.68,-105.18 1390.5,-98 1387.56,-97.62 1384.56,-97.16 1381.54,-96.66"/>
<polygon fill="midnightblue" stroke="midnightblue" points="1668.96,-277.19 1659.06,-280.98 1669.16,-284.19 1668.96,-277.19"/>
</g>
<!-- Node12 -->
<g id="node12" class="node">
<title>Node12</title>
<g id="a_node12"><a xlink:href="ladel__rank1__mod_8c.html" target="_top" xlink:title=" ">
<polygon fill="white" stroke="black" points="1400,-67.5 1400,-97.5 1525,-97.5 1525,-67.5 1400,-67.5"/>
<text text-anchor="start" x="1408" y="-85.5" font-family="Helvetica,sans-Serif" font-size="10.00">LADEL/src/ladel_rank1</text>
<text text-anchor="middle" x="1462.5" y="-74.5" font-family="Helvetica,sans-Serif" font-size="10.00">_mod.c</text>
</a>
</g>
</g>
<!-- Node1&#45;&gt;Node12 -->
<g id="edge50" class="edge">
<title>Node1&#45;&gt;Node12</title>
<path fill="none" stroke="midnightblue" d="M1669.46,-280.89C1861.75,-275.92 2403.58,-259.55 2429.5,-232 2459.35,-200.28 2459.48,-165.59 2429.5,-134 2398.32,-101.15 1734.4,-87.82 1525.11,-84.43"/>
<polygon fill="midnightblue" stroke="midnightblue" points="1669.11,-277.39 1659.21,-281.15 1669.29,-284.39 1669.11,-277.39"/>
</g>
<!-- Node16 -->
<g id="node16" class="node">
<title>Node16</title>
<g id="a_node16"><a xlink:href="ladel__add_8c.html" target="_top" xlink:title=" ">
<polygon fill="white" stroke="black" points="1392.5,-140 1392.5,-159 1516.5,-159 1516.5,-140 1392.5,-140"/>
<text text-anchor="middle" x="1454.5" y="-147" font-family="Helvetica,sans-Serif" font-size="10.00">LADEL/src/ladel_add.c</text>
</a>
</g>
</g>
<!-- Node1&#45;&gt;Node16 -->
<g id="edge41" class="edge">
<title>Node1&#45;&gt;Node16</title>
<path fill="none" stroke="midnightblue" d="M1578.84,-261.39C1545.75,-231.88 1487.13,-179.61 1464.14,-159.1"/>
<polygon fill="midnightblue" stroke="midnightblue" points="1576.87,-264.33 1586.66,-268.37 1581.53,-259.11 1576.87,-264.33"/>
</g>
<!-- Node18 -->
<g id="node18" class="node">
<title>Node18</title>
<g id="a_node18"><a xlink:href="ladel__global_8c.html" target="_top" xlink:title=" ">
<polygon fill="white" stroke="black" points="1534.5,-140 1534.5,-159 1670.5,-159 1670.5,-140 1534.5,-140"/>
<text text-anchor="middle" x="1602.5" y="-147" font-family="Helvetica,sans-Serif" font-size="10.00">LADEL/src/ladel_global.c</text>
</a>
</g>
</g>
<!-- Node1&#45;&gt;Node18 -->
<g id="edge44" class="edge">
<title>Node1&#45;&gt;Node18</title>
<path fill="none" stroke="midnightblue" d="M1602.5,-258.32C1602.5,-228.38 1602.5,-178.91 1602.5,-159.1"/>
<polygon fill="midnightblue" stroke="midnightblue" points="1599,-258.37 1602.5,-268.37 1606,-258.37 1599,-258.37"/>
</g>
<!-- Node19 -->
<g id="node19" class="node">
<title>Node19</title>
<g id="a_node19"><a xlink:href="ladel__matmat_8c.html" target="_top" xlink:title=" ">
<polygon fill="white" stroke="black" points="1689,-140 1689,-159 1834,-159 1834,-140 1689,-140"/>
<text text-anchor="middle" x="1761.5" y="-147" font-family="Helvetica,sans-Serif" font-size="10.00">LADEL/src/ladel_matmat.c</text>
</a>
</g>
</g>
<!-- Node1&#45;&gt;Node19 -->
<g id="edge47" class="edge">
<title>Node1&#45;&gt;Node19</title>
<path fill="none" stroke="midnightblue" d="M1627.47,-261.77C1662.94,-232.33 1726.34,-179.69 1751.14,-159.1"/>
<polygon fill="midnightblue" stroke="midnightblue" points="1624.97,-259.29 1619.52,-268.37 1629.45,-264.68 1624.97,-259.29"/>
</g>
<!-- Node20 -->
<g id="node20" class="node">
<title>Node20</title>
<g id="a_node20"><a xlink:href="ladel__pattern_8c.html" target="_top" xlink:title=" ">
<polygon fill="white" stroke="black" points="1852,-140 1852,-159 1993,-159 1993,-140 1852,-140"/>
<text text-anchor="middle" x="1922.5" y="-147" font-family="Helvetica,sans-Serif" font-size="10.00">LADEL/src/ladel_pattern.c</text>
</a>
</g>
</g>
<!-- Node1&#45;&gt;Node20 -->
<g id="edge48" class="edge">
<title>Node1&#45;&gt;Node20</title>
<path fill="none" stroke="midnightblue" d="M1645.83,-264.62C1715.54,-235.87 1849.99,-180.41 1901.61,-159.12"/>
<polygon fill="midnightblue" stroke="midnightblue" points="1644.35,-261.45 1636.44,-268.5 1647.02,-267.92 1644.35,-261.45"/>
</g>
<!-- Node21 -->
<g id="node21" class="node">
<title>Node21</title>
<g id="a_node21"><a xlink:href="ladel__permutation_8c.html" target="_top" xlink:title=" ">
<polygon fill="white" stroke="black" points="2011.5,-140 2011.5,-159 2177.5,-159 2177.5,-140 2011.5,-140"/>
<text text-anchor="middle" x="2094.5" y="-147" font-family="Helvetica,sans-Serif" font-size="10.00">LADEL/src/ladel_permutation.c</text>
</a>
</g>
</g>
<!-- Node1&#45;&gt;Node21 -->
<g id="edge49" class="edge">
<title>Node1&#45;&gt;Node21</title>
<path fill="none" stroke="midnightblue" d="M1664.6,-265.84C1770.51,-237.42 1982.41,-180.57 2062.68,-159.04"/>
<polygon fill="midnightblue" stroke="midnightblue" points="1663.44,-262.53 1654.69,-268.5 1665.25,-269.29 1663.44,-262.53"/>
</g>
<!-- Node25 -->
<g id="node25" class="node">
<title>Node25</title>
<g id="a_node25"><a xlink:href="ladel__transpose_8c.html" target="_top" xlink:title=" ">
<polygon fill="white" stroke="black" points="2195.5,-140 2195.5,-159 2349.5,-159 2349.5,-140 2195.5,-140"/>
<text text-anchor="middle" x="2272.5" y="-147" font-family="Helvetica,sans-Serif" font-size="10.00">LADEL/src/ladel_transpose.c</text>
</a>
</g>
</g>
<!-- Node1&#45;&gt;Node25 -->
<g id="edge52" class="edge">
<title>Node1&#45;&gt;Node25</title>
<path fill="none" stroke="midnightblue" d="M1668.93,-269.68C1721.48,-259.52 1796.69,-244.93 1862.5,-232 1996.73,-205.62 2155.58,-173.9 2230.02,-159.01"/>
<polygon fill="midnightblue" stroke="midnightblue" points="1668.22,-266.25 1659.07,-271.59 1669.55,-273.13 1668.22,-266.25"/>
</g>
<!-- Node2&#45;&gt;Node3 -->
<g id="edge2" class="edge">
<title>Node2&#45;&gt;Node3</title>
<path fill="none" stroke="midnightblue" d="M103.65,-65.86C89.89,-53.08 70.95,-35.49 59.79,-25.13"/>
<polygon fill="midnightblue" stroke="midnightblue" points="101.35,-68.49 111.06,-72.73 106.11,-63.36 101.35,-68.49"/>
</g>
<!-- Node2&#45;&gt;Node4 -->
<g id="edge3" class="edge">
<title>Node2&#45;&gt;Node4</title>
<path fill="none" stroke="midnightblue" d="M137.36,-65.62C148.73,-54.91 163.6,-40.9 174.54,-30.59"/>
<polygon fill="midnightblue" stroke="midnightblue" points="134.68,-63.33 129.81,-72.73 139.48,-68.42 134.68,-63.33"/>
</g>
<!-- Node5&#45;&gt;Node2 -->
<g id="edge5" class="edge">
<title>Node5&#45;&gt;Node2</title>
<path fill="none" stroke="midnightblue" d="M1018.65,-215.46C819.48,-214.84 239.42,-209.22 167.5,-165 140.23,-148.23 127.17,-109.37 122.54,-92.07"/>
<polygon fill="midnightblue" stroke="midnightblue" points="1018.68,-218.96 1028.69,-215.49 1018.7,-211.96 1018.68,-218.96"/>
</g>
<!-- Node5&#45;&gt;Node3 -->
<g id="edge20" class="edge">
<title>Node5&#45;&gt;Node3</title>
<path fill="none" stroke="midnightblue" d="M1018.47,-214.25C815.83,-210.16 218.44,-195.61 136.5,-165 91.11,-148.04 71.77,-141.53 50.5,-98 38.7,-73.85 44.41,-40.65 48.15,-25.14"/>
<polygon fill="midnightblue" stroke="midnightblue" points="1018.61,-217.76 1028.68,-214.46 1018.75,-210.76 1018.61,-217.76"/>
</g>
<!-- Node5&#45;&gt;Node4 -->
<g id="edge35" class="edge">
<title>Node5&#45;&gt;Node4</title>
<path fill="none" stroke="midnightblue" d="M1095.22,-191.7C1106.82,-158.96 1121,-100.31 1089.5,-67 1060.54,-36.37 442.58,-21.52 247.77,-17.59"/>
<polygon fill="midnightblue" stroke="midnightblue" points="1091.83,-190.76 1091.6,-201.36 1098.39,-193.22 1091.83,-190.76"/>
</g>
<!-- Node6 -->
<g id="node6" class="node">
<title>Node6</title>
<g id="a_node6"><a xlink:href="ladel__debug__print_8h.html" target="_top" xlink:title="Routines to print out matrices and vectors.">
<polygon fill="white" stroke="black" points="925,-134.5 925,-164.5 1038,-164.5 1038,-134.5 925,-134.5"/>
<text text-anchor="start" x="933" y="-152.5" font-family="Helvetica,sans-Serif" font-size="10.00">LADEL/include/ladel</text>
<text text-anchor="middle" x="981.5" y="-141.5" font-family="Helvetica,sans-Serif" font-size="10.00">_debug_print.h</text>
</a>
</g>
</g>
<!-- Node5&#45;&gt;Node6 -->
<g id="edge6" class="edge">
<title>Node5&#45;&gt;Node6</title>
<path fill="none" stroke="midnightblue" d="M1054.32,-196.02C1038.14,-185.9 1018.73,-173.77 1004.02,-164.58"/>
<polygon fill="midnightblue" stroke="midnightblue" points="1052.6,-199.06 1062.93,-201.4 1056.31,-193.13 1052.6,-199.06"/>
</g>
<!-- Node5&#45;&gt;Node7 -->
<g id="edge22" class="edge">
<title>Node5&#45;&gt;Node7</title>
<path fill="none" stroke="midnightblue" d="M1018.72,-214.27C813.85,-210.17 206.34,-195.49 177.5,-165 155.02,-141.24 195.07,-113.8 225.62,-97.59"/>
<polygon fill="midnightblue" stroke="midnightblue" points="1018.68,-217.77 1028.74,-214.47 1018.82,-210.77 1018.68,-217.77"/>
</g>
<!-- Node8 -->
<g id="node8" class="node">
<title>Node8</title>
<g id="a_node8"><a xlink:href="ladel__debug__print_8c.html" target="_top" xlink:title=" ">
<polygon fill="white" stroke="black" points="733.5,-67.5 733.5,-97.5 861.5,-97.5 861.5,-67.5 733.5,-67.5"/>
<text text-anchor="start" x="741.5" y="-85.5" font-family="Helvetica,sans-Serif" font-size="10.00">LADEL/src/ladel_debug</text>
<text text-anchor="middle" x="797.5" y="-74.5" font-family="Helvetica,sans-Serif" font-size="10.00">_print.c</text>
</a>
</g>
</g>
<!-- Node5&#45;&gt;Node8 -->
<g id="edge24" class="edge">
<title>Node5&#45;&gt;Node8</title>
<path fill="none" stroke="midnightblue" d="M1019.2,-201.32C986.95,-193.06 948.18,-181.06 915.5,-165 894.35,-154.61 891.83,-147.47 872.5,-134 854.6,-121.53 834.03,-107.71 818.96,-97.69"/>
<polygon fill="midnightblue" stroke="midnightblue" points="1018.44,-204.74 1028.99,-203.76 1020.14,-197.95 1018.44,-204.74"/>
</g>
<!-- Node5&#45;&gt;Node9 -->
<g id="edge25" class="edge">
<title>Node5&#45;&gt;Node9</title>
<path fill="none" stroke="midnightblue" d="M1018.99,-207.61C975.6,-200.6 918.66,-187.79 872.5,-165 852.96,-155.35 853.88,-143.98 834.5,-134 809.04,-120.9 734.28,-102.6 687.96,-92.01"/>
<polygon fill="midnightblue" stroke="midnightblue" points="1018.46,-211.07 1028.88,-209.15 1019.53,-204.15 1018.46,-211.07"/>
</g>
<!-- Node5&#45;&gt;Node10 -->
<g id="edge27" class="edge">
<title>Node5&#45;&gt;Node10</title>
<path fill="none" stroke="midnightblue" d="M1152.1,-205.84C1198.68,-197.56 1255.04,-183.96 1269.5,-165 1277.85,-154.04 1275.82,-146.24 1269.5,-134 1261.25,-118 1245.33,-105.97 1230.65,-97.66"/>
<polygon fill="midnightblue" stroke="midnightblue" points="1151.28,-202.43 1142.02,-207.58 1152.47,-209.33 1151.28,-202.43"/>
</g>
<!-- Node5&#45;&gt;Node11 -->
<g id="edge28" class="edge">
<title>Node5&#45;&gt;Node11</title>
<path fill="none" stroke="midnightblue" d="M1152.3,-212.82C1194.78,-207.96 1248.7,-195.59 1286.5,-165 1307.94,-147.65 1318.76,-115.93 1323.46,-97.6"/>
<polygon fill="midnightblue" stroke="midnightblue" points="1151.91,-209.34 1142.32,-213.84 1152.63,-216.3 1151.91,-209.34"/>
</g>
<!-- Node5&#45;&gt;Node12 -->
<g id="edge34" class="edge">
<title>Node5&#45;&gt;Node12</title>
<path fill="none" stroke="midnightblue" d="M1152.41,-205.67C1198.38,-197.7 1260.3,-184.55 1312.5,-165 1360.79,-146.92 1412.73,-115.76 1441.05,-97.66"/>
<polygon fill="midnightblue" stroke="midnightblue" points="1151.54,-202.26 1142.26,-207.39 1152.71,-209.17 1151.54,-202.26"/>
</g>
<!-- Node13 -->
<g id="node13" class="node">
<title>Node13</title>
<g id="a_node13"><a xlink:href="ladel__upper__diag_8c.html" target="_top" xlink:title=" ">
<polygon fill="white" stroke="black" points="956,-67.5 956,-97.5 1081,-97.5 1081,-67.5 956,-67.5"/>
<text text-anchor="start" x="964" y="-85.5" font-family="Helvetica,sans-Serif" font-size="10.00">LADEL/src/ladel_upper</text>
<text text-anchor="middle" x="1018.5" y="-74.5" font-family="Helvetica,sans-Serif" font-size="10.00">_diag.c</text>
</a>
</g>
</g>
<!-- Node5&#45;&gt;Node13 -->
<g id="edge39" class="edge">
<title>Node5&#45;&gt;Node13</title>
<path fill="none" stroke="midnightblue" d="M1074.66,-191.88C1067.03,-175.51 1056.45,-153.28 1046.5,-134 1040.07,-121.53 1032.29,-107.59 1026.57,-97.53"/>
<polygon fill="midnightblue" stroke="midnightblue" points="1071.61,-193.64 1078.99,-201.24 1077.96,-190.69 1071.61,-193.64"/>
</g>
<!-- Node14 -->
<g id="node14" class="node">
<title>Node14</title>
<g id="a_node14"><a xlink:href="ladel__matvec_8h.html" target="_top" xlink:title="Routines to compute matrix vector products.">
<polygon fill="white" stroke="black" points="679,-134.5 679,-164.5 792,-164.5 792,-134.5 679,-134.5"/>
<text text-anchor="start" x="687" y="-152.5" font-family="Helvetica,sans-Serif" font-size="10.00">LADEL/include/ladel</text>
<text text-anchor="middle" x="735.5" y="-141.5" font-family="Helvetica,sans-Serif" font-size="10.00">_matvec.h</text>
</a>
</g>
</g>
<!-- Node5&#45;&gt;Node14 -->
<g id="edge17" class="edge">
<title>Node5&#45;&gt;Node14</title>
<path fill="none" stroke="midnightblue" d="M1018.9,-203.88C962.32,-193.9 879,-178.96 806.5,-165 801.81,-164.1 796.94,-163.14 792.06,-162.17"/>
<polygon fill="midnightblue" stroke="midnightblue" points="1018.33,-207.33 1028.79,-205.62 1019.55,-200.44 1018.33,-207.33"/>
</g>
<!-- Node15 -->
<g id="node15" class="node">
<title>Node15</title>
<g id="a_node15"><a xlink:href="ladel__matvec_8c.html" target="_top" xlink:title=" ">
<polygon fill="white" stroke="black" points="423,-73 423,-92 566,-92 566,-73 423,-73"/>
<text text-anchor="middle" x="494.5" y="-80" font-family="Helvetica,sans-Serif" font-size="10.00">LADEL/src/ladel_matvec.c</text>
</a>
</g>
</g>
<!-- Node5&#45;&gt;Node15 -->
<g id="edge30" class="edge">
<title>Node5&#45;&gt;Node15</title>
<path fill="none" stroke="midnightblue" d="M1018.63,-211.81C966.14,-206.67 892.49,-194.38 834.5,-165 816.26,-155.76 818.93,-142.87 800.5,-134 708.85,-89.89 674.77,-115.07 574.5,-98 563.51,-96.13 551.68,-94.03 540.58,-92.03"/>
<polygon fill="midnightblue" stroke="midnightblue" points="1018.56,-215.32 1028.84,-212.75 1019.2,-208.35 1018.56,-215.32"/>
</g>
<!-- Node5&#45;&gt;Node16 -->
<g id="edge21" class="edge">
<title>Node5&#45;&gt;Node16</title>
<path fill="none" stroke="midnightblue" d="M1152.28,-204.34C1211.7,-194.32 1300.96,-179.08 1378.5,-165 1388.81,-163.13 1399.89,-161.05 1410.32,-159.07"/>
<polygon fill="midnightblue" stroke="midnightblue" points="1151.55,-200.91 1142.27,-206.02 1152.71,-207.82 1151.55,-200.91"/>
</g>
<!-- Node17 -->
<g id="node17" class="node">
<title>Node17</title>
<g id="a_node17"><a xlink:href="ladel__copy_8c.html" target="_top" xlink:title=" ">
<polygon fill="white" stroke="black" points="1132.5,-140 1132.5,-159 1260.5,-159 1260.5,-140 1132.5,-140"/>
<text text-anchor="middle" x="1196.5" y="-147" font-family="Helvetica,sans-Serif" font-size="10.00">LADEL/src/ladel_copy.c</text>
</a>
</g>
</g>
<!-- Node5&#45;&gt;Node17 -->
<g id="edge23" class="edge">
<title>Node5&#45;&gt;Node17</title>
<path fill="none" stroke="midnightblue" d="M1118.28,-196.31C1139.42,-183.93 1165.88,-168.43 1181.97,-159.01"/>
<polygon fill="midnightblue" stroke="midnightblue" points="1116.45,-193.32 1109.59,-201.4 1119.98,-199.36 1116.45,-193.32"/>
</g>
<!-- Node5&#45;&gt;Node18 -->
<g id="edge26" class="edge">
<title>Node5&#45;&gt;Node18</title>
<path fill="none" stroke="midnightblue" d="M1152.47,-209.32C1238.9,-201.01 1393.82,-184.93 1525.5,-165 1536.8,-163.29 1548.97,-161.14 1560.23,-159.03"/>
<polygon fill="midnightblue" stroke="midnightblue" points="1151.9,-205.86 1142.28,-210.3 1152.57,-212.83 1151.9,-205.86"/>
</g>
<!-- Node5&#45;&gt;Node19 -->
<g id="edge29" class="edge">
<title>Node5&#45;&gt;Node19</title>
<path fill="none" stroke="midnightblue" d="M1152.49,-211.78C1262.73,-205.22 1489.11,-189.87 1679.5,-165 1691.83,-163.39 1705.13,-161.22 1717.35,-159.06"/>
<polygon fill="midnightblue" stroke="midnightblue" points="1151.97,-208.3 1142.19,-212.39 1152.38,-215.29 1151.97,-208.3"/>
</g>
<!-- Node5&#45;&gt;Node20 -->
<g id="edge31" class="edge">
<title>Node5&#45;&gt;Node20</title>
<path fill="none" stroke="midnightblue" d="M1152.58,-213.56C1284.94,-209.18 1588.91,-196.34 1842.5,-165 1854.83,-163.48 1868.13,-161.29 1880.29,-159.07"/>
<polygon fill="midnightblue" stroke="midnightblue" points="1152.09,-210.08 1142.21,-213.9 1152.32,-217.07 1152.09,-210.08"/>
</g>
<!-- Node5&#45;&gt;Node21 -->
<g id="edge32" class="edge">
<title>Node5&#45;&gt;Node21</title>
<path fill="none" stroke="midnightblue" d="M1152.28,-214.1C1303.71,-210.41 1684.67,-198.35 2001.5,-165 2015.96,-163.48 2031.61,-161.26 2045.87,-159.02"/>
<polygon fill="midnightblue" stroke="midnightblue" points="1152.12,-210.6 1142.21,-214.34 1152.29,-217.6 1152.12,-210.6"/>
</g>
<!-- Node22 -->
<g id="node22" class="node">
<title>Node22</title>
<g id="a_node22"><a xlink:href="ladel__postorder_8c.html" target="_top" xlink:title=" ">
<polygon fill="white" stroke="black" points="186.5,-140 186.5,-159 338.5,-159 338.5,-140 186.5,-140"/>
<text text-anchor="middle" x="262.5" y="-147" font-family="Helvetica,sans-Serif" font-size="10.00">LADEL/src/ladel_postorder.c</text>
</a>
</g>
</g>
<!-- Node5&#45;&gt;Node22 -->
<g id="edge33" class="edge">
<title>Node5&#45;&gt;Node22</title>
<path fill="none" stroke="midnightblue" d="M1018.67,-213.18C888.91,-208.18 593.96,-194.38 347.5,-165 334.42,-163.44 320.29,-161.24 307.37,-159.02"/>
<polygon fill="midnightblue" stroke="midnightblue" points="1018.72,-216.69 1028.84,-213.57 1018.98,-209.69 1018.72,-216.69"/>
</g>
<!-- Node23 -->
<g id="node23" class="node">
<title>Node23</title>
<g id="a_node23"><a xlink:href="ladel__scale_8c.html" target="_top" xlink:title=" ">
<polygon fill="white" stroke="black" points="357,-140 357,-159 488,-159 488,-140 357,-140"/>
<text text-anchor="middle" x="422.5" y="-147" font-family="Helvetica,sans-Serif" font-size="10.00">LADEL/src/ladel_scale.c</text>
</a>
</g>
</g>
<!-- Node5&#45;&gt;Node23 -->
<g id="edge36" class="edge">
<title>Node5&#45;&gt;Node23</title>
<path fill="none" stroke="midnightblue" d="M1018.59,-212.12C909.05,-206.06 684.8,-191.44 496.5,-165 485.22,-163.42 473.06,-161.23 461.92,-159.04"/>
<polygon fill="midnightblue" stroke="midnightblue" points="1018.65,-215.63 1028.82,-212.68 1019.03,-208.64 1018.65,-215.63"/>
</g>
<!-- Node24 -->
<g id="node24" class="node">
<title>Node24</title>
<g id="a_node24"><a xlink:href="ladel__submatrix_8c.html" target="_top" xlink:title=" ">
<polygon fill="white" stroke="black" points="506,-140 506,-159 661,-159 661,-140 506,-140"/>
<text text-anchor="middle" x="583.5" y="-147" font-family="Helvetica,sans-Serif" font-size="10.00">LADEL/src/ladel_submatrix.c</text>
</a>
</g>
</g>
<!-- Node5&#45;&gt;Node24 -->
<g id="edge37" class="edge">
<title>Node5&#45;&gt;Node24</title>
<path fill="none" stroke="midnightblue" d="M1018.91,-208.38C936.66,-199.36 792.53,-182.83 669.5,-165 657.21,-163.22 643.97,-161.09 631.65,-159.02"/>
<polygon fill="midnightblue" stroke="midnightblue" points="1018.55,-211.86 1028.87,-209.47 1019.31,-204.9 1018.55,-211.86"/>
</g>
<!-- Node5&#45;&gt;Node25 -->
<g id="edge38" class="edge">
<title>Node5&#45;&gt;Node25</title>
<path fill="none" stroke="midnightblue" d="M1152.28,-215.25C1324.23,-214 1796.11,-206.71 2186.5,-165 2200.05,-163.55 2214.7,-161.33 2228.01,-159.06"/>
<polygon fill="midnightblue" stroke="midnightblue" points="1152.09,-211.75 1142.12,-215.32 1152.14,-218.75 1152.09,-211.75"/>
</g>
<!-- Node6&#45;&gt;Node2 -->
<g id="edge7" class="edge">
<title>Node6&#45;&gt;Node2</title>
<path fill="none" stroke="midnightblue" d="M914.55,-142.8C880.42,-139.98 838.26,-136.63 800.5,-134 529.57,-115.16 459.73,-133.64 190.5,-98 179.43,-96.53 167.49,-94.31 156.66,-92.03"/>
<polygon fill="midnightblue" stroke="midnightblue" points="914.61,-146.32 924.86,-143.66 915.19,-139.34 914.61,-146.32"/>
</g>
<!-- Node6&#45;&gt;Node3 -->
<g id="edge8" class="edge">
<title>Node6&#45;&gt;Node3</title>
<path fill="none" stroke="midnightblue" d="M948.65,-129.07C934.37,-120.16 917.7,-109.12 903.5,-98 887.66,-85.59 889.03,-74.86 870.5,-67 717.29,-2.02 287.65,-51.49 122.5,-31 110.98,-29.57 98.56,-27.33 87.32,-25.03"/>
<polygon fill="midnightblue" stroke="midnightblue" points="946.84,-132.06 957.19,-134.32 950.5,-126.1 946.84,-132.06"/>
</g>
<!-- Node6&#45;&gt;Node4 -->
<g id="edge15" class="edge">
<title>Node6&#45;&gt;Node4</title>
<path fill="none" stroke="midnightblue" d="M967.09,-125.91C953.33,-106.53 930.71,-79.78 903.5,-67 844.83,-39.45 407.6,-23.27 247.78,-18.22"/>
<polygon fill="midnightblue" stroke="midnightblue" points="964.23,-127.94 972.77,-134.22 970.01,-123.99 964.23,-127.94"/>
</g>
<!-- Node6&#45;&gt;Node7 -->
<g id="edge9" class="edge">
<title>Node6&#45;&gt;Node7</title>
<path fill="none" stroke="midnightblue" d="M914.4,-142.6C808.13,-133.23 594.56,-114.36 413.5,-98 379.76,-94.95 341.96,-91.49 311.8,-88.71"/>
<polygon fill="midnightblue" stroke="midnightblue" points="914.39,-146.11 924.66,-143.5 915,-139.14 914.39,-146.11"/>
</g>
<!-- Node6&#45;&gt;Node8 -->
<g id="edge10" class="edge">
<title>Node6&#45;&gt;Node8</title>
<path fill="none" stroke="midnightblue" d="M931.83,-130.96C902.2,-120.48 865.06,-107.37 837.35,-97.58"/>
<polygon fill="midnightblue" stroke="midnightblue" points="930.98,-134.37 941.57,-134.4 933.31,-127.76 930.98,-134.37"/>
</g>
<!-- Node6&#45;&gt;Node9 -->
<g id="edge11" class="edge">
<title>Node6&#45;&gt;Node9</title>
<path fill="none" stroke="midnightblue" d="M914.9,-135.46C848.84,-122.53 749.53,-103.08 692.99,-92.01"/>
<polygon fill="midnightblue" stroke="midnightblue" points="914.32,-138.91 924.8,-137.4 915.66,-132.04 914.32,-138.91"/>
</g>
<!-- Node6&#45;&gt;Node10 -->
<g id="edge12" class="edge">
<title>Node6&#45;&gt;Node10</title>
<path fill="none" stroke="midnightblue" d="M1037.99,-131.58C1073.23,-121.02 1118.07,-107.59 1151.39,-97.61"/>
<polygon fill="midnightblue" stroke="midnightblue" points="1036.89,-128.25 1028.32,-134.48 1038.9,-134.96 1036.89,-128.25"/>
</g>
<!-- Node6&#45;&gt;Node11 -->
<g id="edge13" class="edge">
<title>Node6&#45;&gt;Node11</title>
<path fill="none" stroke="midnightblue" d="M1048.13,-137.39C1105.17,-127.68 1189.41,-112.84 1262.5,-98 1265.4,-97.41 1268.38,-96.79 1271.38,-96.15"/>
<polygon fill="midnightblue" stroke="midnightblue" points="1047.43,-133.96 1038.16,-139.09 1048.6,-140.86 1047.43,-133.96"/>
</g>
<!-- Node6&#45;&gt;Node12 -->
<g id="edge14" class="edge">
<title>Node6&#45;&gt;Node12</title>
<path fill="none" stroke="midnightblue" d="M1048.34,-141.82C1129.51,-133.35 1270.45,-117.47 1390.5,-98 1393.52,-97.51 1396.61,-96.98 1399.72,-96.43"/>
<polygon fill="midnightblue" stroke="midnightblue" points="1047.85,-138.35 1038.26,-142.87 1048.57,-145.32 1047.85,-138.35"/>
</g>
<!-- Node6&#45;&gt;Node13 -->
<g id="edge16" class="edge">
<title>Node6&#45;&gt;Node13</title>
<path fill="none" stroke="midnightblue" d="M994.55,-125.58C999.86,-116.24 1005.84,-105.75 1010.49,-97.58"/>
<polygon fill="midnightblue" stroke="midnightblue" points="991.43,-123.97 989.53,-134.4 997.52,-127.44 991.43,-123.97"/>
</g>
<!-- Node14&#45;&gt;Node2 -->
<g id="edge18" class="edge">
<title>Node14&#45;&gt;Node2</title>
<path fill="none" stroke="midnightblue" d="M668.81,-134.05C456.53,-103.75 398.71,-127.26 190.5,-98 179.68,-96.48 168.03,-94.29 157.4,-92.07"/>
<polygon fill="midnightblue" stroke="midnightblue" points="668.31,-137.52 678.71,-135.49 669.32,-130.59 668.31,-137.52"/>
</g>
<!-- Node14&#45;&gt;Node15 -->
<g id="edge19" class="edge">
<title>Node14&#45;&gt;Node15</title>
<path fill="none" stroke="midnightblue" d="M673.69,-131.83C626.53,-119.11 563.49,-102.11 526.12,-92.03"/>
<polygon fill="midnightblue" stroke="midnightblue" points="672.94,-135.25 683.5,-134.48 674.76,-128.49 672.94,-135.25"/>
</g>
</g>
</svg>
        <g id="navigator" transform="translate(0 0)" fill="#404254">
                <rect fill="#f2f5e9" fill-opacity="0.5" stroke="#606060" stroke-width=".5" x="0" y="0" width="60" height="60"/>
                <use id="zoomplus" xlink:href="#zoomPlus" x="17" y="9" onmousedown="handleZoom(evt,'in')"/>
                <use id="zoomminus" xlink:href="#zoomMin" x="42" y="9" onmousedown="handleZoom(evt,'out')"/>
                <use id="reset" xlink:href="#resetDef" x="30" y="36" onmousedown="handleReset()"/>
                <g id="arrowUp" xlink:href="#dirArrow" transform="translate(30 24)" onmousedown="handlePan(0,-1)">
                  <use xlink:href="#rim" fill="#404040">
                        <set attributeName="fill" to="#808080" begin="arrowUp.mouseover" end="arrowUp.mouseout"/>
                  </use>
                  <path fill="none" stroke="white" stroke-width="1.5" d="M0,-3.0v7 M-2.5,-0.5L0,-3.0L2.5,-0.5"/>
                </g>
                <g id="arrowRight" xlink:href="#dirArrow" transform="rotate(90) translate(36 -43)" onmousedown="handlePan(1,0)">
                  <use xlink:href="#rim" fill="#404040">
                        <set attributeName="fill" to="#808080" begin="arrowRight.mouseover" end="arrowRight.mouseout"/>
                  </use>
                  <path fill="none" stroke="white" stroke-width="1.5" d="M0,-3.0v7 M-2.5,-0.5L0,-3.0L2.5,-0.5"/>
                </g>
                <g id="arrowDown" xlink:href="#dirArrow" transform="rotate(180) translate(-30 -48)" onmousedown="handlePan(0,1)">
                  <use xlink:href="#rim" fill="#404040">
                        <set attributeName="fill" to="#808080" begin="arrowDown.mouseover" end="arrowDown.mouseout"/>
                  </use>
                  <path fill="none" stroke="white" stroke-width="1.5" d="M0,-3.0v7 M-2.5,-0.5L0,-3.0L2.5,-0.5"/>
                </g>
                <g id="arrowLeft" xlink:href="#dirArrow" transform="rotate(270) translate(-36 17)" onmousedown="handlePan(-1,0)">
                  <use xlink:href="#rim" fill="#404040">
                        <set attributeName="fill" to="#808080" begin="arrowLeft.mouseover" end="arrowLeft.mouseout"/>
                  </use>
                  <path fill="none" stroke="white" stroke-width="1.5" d="M0,-3.0v7 M-2.5,-0.5L0,-3.0L2.5,-0.5"/>
                </g>
        </g>
        <svg viewBox="0 0 15 15" width="100%" height="30px" preserveAspectRatio="xMaxYMin meet">
         <g id="arrow_out" transform="scale(0.3 0.3)">
          <a xlink:href="ladel__constants_8h__dep__incl_org.svg" target="_base">
           <rect id="button" ry="5" rx="5" y="6" x="6" height="38" width="38"
                fill="#f2f5e9" fill-opacity="0.5" stroke="#606060" stroke-width="1.0"/>
           <path id="arrow"
             d="M 11.500037,31.436501 C 11.940474,20.09759 22.043105,11.32322 32.158766,21.979434 L 37.068811,17.246167 C 37.068811,17.246167 37.088388,32 37.088388,32 L 22.160133,31.978069 C 22.160133,31.978069 26.997745,27.140456 26.997745,27.140456 C 18.528582,18.264221 13.291696,25.230495 11.500037,31.436501 z"
             style="fill:#404040;"/>
          </a>
         </g>
        </svg>
</svg>
