<?xml version="1.0" encoding="UTF-8" standalone="no"?>
<!DOCTYPE svg PUBLIC "-//W3C//DTD SVG 1.1//EN"
 "http://www.w3.org/Graphics/SVG/1.1/DTD/svg11.dtd">
<!-- Generated by graphviz version 2.43.0 (0)
 -->
<!-- Title: LADEL/include/ladel_ldl_symbolic.h Pages: 1 -->
<svg width="244pt" height="162pt"
 viewBox="0.00 0.00 243.50 162.00" xmlns="http://www.w3.org/2000/svg" xmlns:xlink="http://www.w3.org/1999/xlink">
<g id="graph0" class="graph" transform="scale(1 1) rotate(0) translate(4 158)">
<title>LADEL/include/ladel_ldl_symbolic.h</title>
<polygon fill="white" stroke="transparent" points="-4,4 -4,-158 239.5,-158 239.5,4 -4,4"/>
<!-- Node1 -->
<g id="node1" class="node">
<title>Node1</title>
<g id="a_node1"><a xlink:title="The symbolic part of the factorization.">
<polygon fill="#bfbfbf" stroke="black" points="38,-123.5 38,-153.5 151,-153.5 151,-123.5 38,-123.5"/>
<text text-anchor="start" x="46" y="-141.5" font-family="Helvetica,sans-Serif" font-size="10.00">LADEL/include/ladel</text>
<text text-anchor="middle" x="94.5" y="-130.5" font-family="Helvetica,sans-Serif" font-size="10.00">_ldl_symbolic.h</text>
</a>
</g>
</g>
<!-- Node2 -->
<g id="node2" class="node">
<title>Node2</title>
<g id="a_node2"><a xlink:href="ladel_8h.html" target="_top" xlink:title="LADEL main include file.">
<polygon fill="white" stroke="black" points="78.5,-67.5 78.5,-86.5 200.5,-86.5 200.5,-67.5 78.5,-67.5"/>
<text text-anchor="middle" x="139.5" y="-74.5" font-family="Helvetica,sans-Serif" font-size="10.00">LADEL/include/ladel.h</text>
</a>
</g>
</g>
<!-- Node1&#45;&gt;Node2 -->
<g id="edge1" class="edge">
<title>Node1&#45;&gt;Node2</title>
<path fill="none" stroke="midnightblue" d="M111.21,-115.4C118.77,-105.41 127.26,-94.18 132.95,-86.66"/>
<polygon fill="midnightblue" stroke="midnightblue" points="108.4,-113.31 105.16,-123.4 113.99,-117.53 108.4,-113.31"/>
</g>
<!-- Node3 -->
<g id="node3" class="node">
<title>Node3</title>
<g id="a_node3"><a xlink:href="ladel_8c.html" target="_top" xlink:title=" ">
<polygon fill="white" stroke="black" points="0,-6 0,-25 101,-25 101,-6 0,-6"/>
<text text-anchor="middle" x="50.5" y="-13" font-family="Helvetica,sans-Serif" font-size="10.00">LADEL/src/ladel.c</text>
</a>
</g>
</g>
<!-- Node1&#45;&gt;Node3 -->
<g id="edge4" class="edge">
<title>Node1&#45;&gt;Node3</title>
<path fill="none" stroke="midnightblue" d="M81.85,-114.36C77.56,-105.91 72.97,-96.18 69.5,-87 61.34,-65.42 55.18,-38.89 52.3,-25.36"/>
<polygon fill="midnightblue" stroke="midnightblue" points="78.77,-116.01 86.5,-123.25 84.97,-112.77 78.77,-116.01"/>
</g>
<!-- Node2&#45;&gt;Node3 -->
<g id="edge2" class="edge">
<title>Node2&#45;&gt;Node3</title>
<path fill="none" stroke="midnightblue" d="M117.98,-61.61C100.86,-50.17 77.49,-34.55 63.23,-25.01"/>
<polygon fill="midnightblue" stroke="midnightblue" points="116.49,-64.83 126.75,-67.48 120.38,-59.01 116.49,-64.83"/>
</g>
<!-- Node4 -->
<g id="node4" class="node">
<title>Node4</title>
<g id="a_node4"><a xlink:href="ladel__row__mod_8c.html" target="_top" xlink:title=" ">
<polygon fill="white" stroke="black" points="119.5,-0.5 119.5,-30.5 235.5,-30.5 235.5,-0.5 119.5,-0.5"/>
<text text-anchor="start" x="127.5" y="-18.5" font-family="Helvetica,sans-Serif" font-size="10.00">LADEL/src/ladel_row</text>
<text text-anchor="middle" x="177.5" y="-7.5" font-family="Helvetica,sans-Serif" font-size="10.00">_mod.c</text>
</a>
</g>
</g>
<!-- Node2&#45;&gt;Node4 -->
<g id="edge3" class="edge">
<title>Node2&#45;&gt;Node4</title>
<path fill="none" stroke="midnightblue" d="M150.38,-58.96C156.13,-49.96 163.11,-39.03 168.54,-30.52"/>
<polygon fill="midnightblue" stroke="midnightblue" points="147.38,-57.16 144.94,-67.48 153.28,-60.93 147.38,-57.16"/>
</g>
</g>
</svg>
