<?xml version="1.0" encoding="UTF-8" standalone="no"?>
<!DOCTYPE svg PUBLIC "-//W3C//DTD SVG 1.1//EN"
 "http://www.w3.org/Graphics/SVG/1.1/DTD/svg11.dtd">
<!-- Generated by graphviz version 2.43.0 (0)
 -->
<!-- Title: ladel_ldl_symbolic Pages: 1 -->
<!--zoomable 304 -->
<svg id="main" version="1.1" xmlns="http://www.w3.org/2000/svg" xmlns:xlink="http://www.w3.org/1999/xlink" xml:space="preserve" onload="init(evt)">
<style type="text/css"><![CDATA[
.edge:hover path { stroke: red; }
.edge:hover polygon { stroke: red; fill: red; }
]]></style>
<script type="text/javascript"><![CDATA[
var edges = document.getElementsByTagName('g');
if (edges && edges.length) {
  for (var i=0;i<edges.length;i++) {
    if (edges[i].id.substr(0,4)=='edge') {
      edges[i].setAttribute('class','edge');
    }
  }
}
]]></script>
        <defs>
                <circle id="rim" cx="0" cy="0" r="7"/>
                <circle id="rim2" cx="0" cy="0" r="3.5"/>
                <g id="zoomPlus">
                        <use xlink:href="#rim" fill="#404040">
                                <set attributeName="fill" to="#808080" begin="zoomplus.mouseover" end="zoomplus.mouseout"/>
                        </use>
                        <path d="M-4,0h8M0,-4v8" fill="none" stroke="white" stroke-width="1.5" pointer-events="none"/>
                </g>
                <g id="zoomMin">
                        <use xlink:href="#rim" fill="#404040">
                                <set attributeName="fill" to="#808080" begin="zoomminus.mouseover" end="zoomminus.mouseout"/>
                        </use>
                        <path d="M-4,0h8" fill="none" stroke="white" stroke-width="1.5" pointer-events="none"/>
                </g>
                <g id="dirArrow">
                        <path fill="none" stroke="white" stroke-width="1.5" d="M0,-3.0v7 M-2.5,-0.5L0,-3.0L2.5,-0.5"/>
                </g>
               <g id="resetDef">
                       <use xlink:href="#rim2" fill="#404040">
                               <set attributeName="fill" to="#808080" begin="reset.mouseover" end="reset.mouseout"/>
                       </use>
               </g>
        </defs>

<script type="text/javascript">
var viewWidth = 833;
var viewHeight = 304;
var sectionId = 'dynsection-1';
</script>
<script xlink:href="svgpan.js"/>
<svg id="graph" class="graph">
<g id="viewport">
<title>ladel_ldl_symbolic</title>
<polygon fill="white" stroke="transparent" points="-4,4 -4,-299.5 829,-299.5 829,4 -4,4"/>
<!-- Node1 -->
<g id="node1" class="node">
<title>Node1</title>
<g id="a_node1"><a xlink:title="Symbolic part of the factorization.">
<polygon fill="#bfbfbf" stroke="black" points="0,-137.5 0,-156.5 107,-156.5 107,-137.5 0,-137.5"/>
<text text-anchor="middle" x="53.5" y="-144.5" font-family="Helvetica,sans-Serif" font-size="10.00">ladel_ldl_symbolic</text>
</a>
</g>
</g>
<!-- Node2 -->
<g id="node2" class="node">
<title>Node2</title>
<g id="a_node2"><a xlink:href="ladel__col__counts_8c.html#aa7284697012b8c3de4cece3e31915488" target="_top" xlink:title="Computes the column counts of the factor.">
<polygon fill="white" stroke="black" points="166.5,-175.5 166.5,-194.5 264.5,-194.5 264.5,-175.5 166.5,-175.5"/>
<text text-anchor="middle" x="215.5" y="-182.5" font-family="Helvetica,sans-Serif" font-size="10.00">ladel_col_counts</text>
</a>
</g>
</g>
<!-- Node1&#45;&gt;Node2 -->
<g id="edge1" class="edge">
<title>Node1&#45;&gt;Node2</title>
<path fill="none" stroke="midnightblue" d="M94.87,-156.59C115.99,-161.6 142.03,-167.79 164.42,-173.11"/>
<polygon fill="midnightblue" stroke="midnightblue" points="163.88,-176.57 174.42,-175.48 165.49,-169.76 163.88,-176.57"/>
</g>
<!-- Node5 -->
<g id="node5" class="node">
<title>Node5</title>
<g id="a_node5"><a xlink:href="ladel__global_8c.html#a946ae8034525eb6db42d4a166be57968" target="_top" xlink:title="Version of free (for mex or for regular C).">
<polygon fill="white" stroke="black" points="760,-207.5 760,-226.5 825,-226.5 825,-207.5 760,-207.5"/>
<text text-anchor="middle" x="792.5" y="-214.5" font-family="Helvetica,sans-Serif" font-size="10.00">ladel_free</text>
</a>
</g>
</g>
<!-- Node1&#45;&gt;Node5 -->
<g id="edge14" class="edge">
<title>Node1&#45;&gt;Node5</title>
<path fill="none" stroke="midnightblue" d="M65.64,-156.52C81.61,-169.6 112.47,-192.76 143,-204 243.58,-241.01 274.83,-236 382,-236 382,-236 382,-236 532.5,-236 609.27,-236 698.49,-227.59 749.64,-221.97"/>
<polygon fill="midnightblue" stroke="midnightblue" points="750.11,-225.44 759.66,-220.84 749.33,-218.48 750.11,-225.44"/>
</g>
<!-- Node10 -->
<g id="node10" class="node">
<title>Node10</title>
<g id="a_node10"><a xlink:href="ladel__etree_8c.html#ab727c0337acfd3e083ce6d8424ea6a6b" target="_top" xlink:title="Computes the elimination tree of a matrix.">
<polygon fill="white" stroke="black" points="180,-137.5 180,-156.5 251,-156.5 251,-137.5 180,-137.5"/>
<text text-anchor="middle" x="215.5" y="-144.5" font-family="Helvetica,sans-Serif" font-size="10.00">ladel_etree</text>
</a>
</g>
</g>
<!-- Node1&#45;&gt;Node10 -->
<g id="edge12" class="edge">
<title>Node1&#45;&gt;Node10</title>
<path fill="none" stroke="midnightblue" d="M107.33,-147C127.55,-147 150.39,-147 169.78,-147"/>
<polygon fill="midnightblue" stroke="midnightblue" points="169.86,-150.5 179.86,-147 169.86,-143.5 169.86,-150.5"/>
</g>
<!-- Node11 -->
<g id="node11" class="node">
<title>Node11</title>
<g id="a_node11"><a xlink:href="ladel__etree_8c.html#a4c37cc6c6df89960c5b39d28677d88a8" target="_top" xlink:title="Computes the elimination tree and column counts of a matrix.">
<polygon fill="white" stroke="black" points="158.5,-88 158.5,-118 272.5,-118 272.5,-88 158.5,-88"/>
<text text-anchor="start" x="166.5" y="-106" font-family="Helvetica,sans-Serif" font-size="10.00">ladel_etree_and_col</text>
<text text-anchor="middle" x="215.5" y="-95" font-family="Helvetica,sans-Serif" font-size="10.00">_counts</text>
</a>
</g>
</g>
<!-- Node1&#45;&gt;Node11 -->
<g id="edge13" class="edge">
<title>Node1&#45;&gt;Node11</title>
<path fill="none" stroke="midnightblue" d="M89.22,-137.45C106.99,-132.57 129.21,-126.45 149.98,-120.74"/>
<polygon fill="midnightblue" stroke="midnightblue" points="151,-124.09 159.72,-118.07 149.15,-117.34 151,-124.09"/>
</g>
<!-- Node12 -->
<g id="node12" class="node">
<title>Node12</title>
<g id="a_node12"><a xlink:href="ladel__permutation_8c.html#ad4cf169953176bf72a9cf454dfd42712" target="_top" xlink:title="Invert a permutation vector, such that .">
<polygon fill="white" stroke="black" points="145.5,-39 145.5,-69 285.5,-69 285.5,-39 145.5,-39"/>
<text text-anchor="start" x="153.5" y="-57" font-family="Helvetica,sans-Serif" font-size="10.00">ladel_invert_permutation</text>
<text text-anchor="middle" x="215.5" y="-46" font-family="Helvetica,sans-Serif" font-size="10.00">_vector</text>
</a>
</g>
</g>
<!-- Node1&#45;&gt;Node12 -->
<g id="edge15" class="edge">
<title>Node1&#45;&gt;Node12</title>
<path fill="none" stroke="midnightblue" d="M64.32,-137.48C79.86,-122.88 111.59,-94.87 143,-78 146.25,-76.26 149.65,-74.6 153.12,-73.05"/>
<polygon fill="midnightblue" stroke="midnightblue" points="154.58,-76.23 162.46,-69.14 151.88,-69.77 154.58,-76.23"/>
</g>
<!-- Node13 -->
<g id="node13" class="node">
<title>Node13</title>
<g id="a_node13"><a xlink:href="ladel__permutation_8c.html#a6fbceb4b665cce4b4397d74516d284a3" target="_top" xlink:title="Compute .">
<polygon fill="white" stroke="black" points="143,-265 143,-295 288,-295 288,-265 143,-265"/>
<text text-anchor="start" x="151" y="-283" font-family="Helvetica,sans-Serif" font-size="10.00">ladel_permute_symmetric</text>
<text text-anchor="middle" x="215.5" y="-272" font-family="Helvetica,sans-Serif" font-size="10.00">_matrix</text>
</a>
</g>
</g>
<!-- Node1&#45;&gt;Node13 -->
<g id="edge16" class="edge">
<title>Node1&#45;&gt;Node13</title>
<path fill="none" stroke="midnightblue" d="M60.45,-156.54C73.28,-176.41 105.45,-222.67 143,-250 148.41,-253.94 154.42,-257.48 160.58,-260.63"/>
<polygon fill="midnightblue" stroke="midnightblue" points="159.15,-263.82 169.68,-264.96 162.16,-257.5 159.15,-263.82"/>
</g>
<!-- Node15 -->
<g id="node15" class="node">
<title>Node15</title>
<g id="a_node15"><a xlink:href="ladel__postorder_8c.html#ab60514b7b1353408852e59f09677016d" target="_top" xlink:title="Compute the postordering of the elimination tree.">
<polygon fill="white" stroke="black" points="169.5,-0.5 169.5,-19.5 261.5,-19.5 261.5,-0.5 169.5,-0.5"/>
<text text-anchor="middle" x="215.5" y="-7.5" font-family="Helvetica,sans-Serif" font-size="10.00">ladel_postorder</text>
</a>
</g>
</g>
<!-- Node1&#45;&gt;Node15 -->
<g id="edge19" class="edge">
<title>Node1&#45;&gt;Node15</title>
<path fill="none" stroke="midnightblue" d="M58.93,-137.33C69.81,-114.67 100.12,-57.93 143,-29 148.17,-25.51 153.95,-22.66 159.93,-20.34"/>
<polygon fill="midnightblue" stroke="midnightblue" points="161.08,-23.64 169.42,-17.09 158.82,-17.02 161.08,-23.64"/>
</g>
<!-- Node3 -->
<g id="node3" class="node">
<title>Node3</title>
<g id="a_node3"><a xlink:href="ladel__col__counts_8c.html#a83727639c00ef21d2af7ccda5f116881" target="_top" xlink:title=" ">
<polygon fill="white" stroke="black" points="324,-126 324,-156 442,-156 442,-126 324,-126"/>
<text text-anchor="start" x="332" y="-144" font-family="Helvetica,sans-Serif" font-size="10.00">ladel_least_common</text>
<text text-anchor="middle" x="383" y="-133" font-family="Helvetica,sans-Serif" font-size="10.00">_ancestor</text>
</a>
</g>
</g>
<!-- Node2&#45;&gt;Node3 -->
<g id="edge2" class="edge">
<title>Node2&#45;&gt;Node3</title>
<path fill="none" stroke="midnightblue" d="M252.51,-175.43C263.86,-172.42 276.46,-169.07 288,-166 296.87,-163.64 306.21,-161.16 315.42,-158.71"/>
<polygon fill="midnightblue" stroke="midnightblue" points="316.57,-162.03 325.33,-156.07 314.77,-155.26 316.57,-162.03"/>
</g>
<!-- Node4 -->
<g id="node4" class="node">
<title>Node4</title>
<g id="a_node4"><a xlink:href="ladel__global_8c.html#afaa07a7aa3c8517d3853968448b398a0" target="_top" xlink:title="Free a sparse matrix (and return NULL).">
<polygon fill="white" stroke="black" points="621,-74.5 621,-93.5 724,-93.5 724,-74.5 621,-74.5"/>
<text text-anchor="middle" x="672.5" y="-81.5" font-family="Helvetica,sans-Serif" font-size="10.00">ladel_sparse_free</text>
</a>
</g>
</g>
<!-- Node2&#45;&gt;Node4 -->
<g id="edge3" class="edge">
<title>Node2&#45;&gt;Node4</title>
<path fill="none" stroke="midnightblue" d="M264.66,-177.08C272.89,-174.4 281.02,-170.81 288,-166 310.55,-150.46 300.23,-129.59 324,-116 413.54,-64.81 537.67,-67.55 610.78,-75.13"/>
<polygon fill="midnightblue" stroke="midnightblue" points="610.43,-78.62 620.75,-76.23 611.2,-71.66 610.43,-78.62"/>
</g>
<!-- Node6 -->
<g id="node6" class="node">
<title>Node6</title>
<g id="a_node6"><a xlink:href="ladel__transpose_8c.html#a8b00613708b897c9dbcd292dc9b89ed8" target="_top" xlink:title="Returns the transpose of a matrix, that is .">
<polygon fill="white" stroke="black" points="336,-175.5 336,-194.5 430,-194.5 430,-175.5 336,-175.5"/>
<text text-anchor="middle" x="383" y="-182.5" font-family="Helvetica,sans-Serif" font-size="10.00">ladel_transpose</text>
</a>
</g>
</g>
<!-- Node2&#45;&gt;Node6 -->
<g id="edge5" class="edge">
<title>Node2&#45;&gt;Node6</title>
<path fill="none" stroke="midnightblue" d="M264.81,-185C283.91,-185 305.98,-185 325.78,-185"/>
<polygon fill="midnightblue" stroke="midnightblue" points="325.9,-188.5 335.9,-185 325.9,-181.5 325.9,-188.5"/>
</g>
<!-- Node4&#45;&gt;Node5 -->
<g id="edge4" class="edge">
<title>Node4&#45;&gt;Node5</title>
<path fill="none" stroke="midnightblue" d="M708.36,-93.53C713.95,-96.03 719.41,-99.15 724,-103 754.84,-128.87 775.06,-172.64 784.77,-197.75"/>
<polygon fill="midnightblue" stroke="midnightblue" points="781.53,-199.1 788.28,-207.27 788.1,-196.67 781.53,-199.1"/>
</g>
<!-- Node6&#45;&gt;Node5 -->
<g id="edge6" class="edge">
<title>Node6&#45;&gt;Node5</title>
<path fill="none" stroke="midnightblue" d="M430.35,-188.64C510.34,-194.92 673.09,-207.7 749.77,-213.72"/>
<polygon fill="midnightblue" stroke="midnightblue" points="749.76,-217.23 760,-214.53 750.3,-210.25 749.76,-217.23"/>
</g>
<!-- Node7 -->
<g id="node7" class="node">
<title>Node7</title>
<g id="a_node7"><a xlink:href="ladel__global_8c.html#a86142b1e820a5de1deea8ee656186245" target="_top" xlink:title="Version of malloc (for mex or for regular C).">
<polygon fill="white" stroke="black" points="633,-150.5 633,-169.5 712,-169.5 712,-150.5 633,-150.5"/>
<text text-anchor="middle" x="672.5" y="-157.5" font-family="Helvetica,sans-Serif" font-size="10.00">ladel_malloc</text>
</a>
</g>
</g>
<!-- Node6&#45;&gt;Node7 -->
<g id="edge7" class="edge">
<title>Node6&#45;&gt;Node7</title>
<path fill="none" stroke="midnightblue" d="M430.19,-180.98C482.98,-176.39 569,-168.91 622.81,-164.23"/>
<polygon fill="midnightblue" stroke="midnightblue" points="623.14,-167.72 632.8,-163.37 622.53,-160.75 623.14,-167.72"/>
</g>
<!-- Node8 -->
<g id="node8" class="node">
<title>Node8</title>
<g id="a_node8"><a xlink:href="ladel__global_8c.html#a6e485045ec098c0b5a9afe07875a1e59" target="_top" xlink:title="Allocate a sparse matrix.">
<polygon fill="white" stroke="black" points="478,-112.5 478,-131.5 585,-131.5 585,-112.5 478,-112.5"/>
<text text-anchor="middle" x="531.5" y="-119.5" font-family="Helvetica,sans-Serif" font-size="10.00">ladel_sparse_alloc</text>
</a>
</g>
</g>
<!-- Node6&#45;&gt;Node8 -->
<g id="edge8" class="edge">
<title>Node6&#45;&gt;Node8</title>
<path fill="none" stroke="midnightblue" d="M414.44,-175.48C423.42,-172.41 433.2,-168.81 442,-165 458.6,-157.81 461.77,-153.99 478,-146 484.92,-142.59 492.43,-139.06 499.55,-135.8"/>
<polygon fill="midnightblue" stroke="midnightblue" points="501.26,-138.86 508.91,-131.54 498.36,-132.49 501.26,-138.86"/>
</g>
<!-- Node8&#45;&gt;Node4 -->
<g id="edge11" class="edge">
<title>Node8&#45;&gt;Node4</title>
<path fill="none" stroke="midnightblue" d="M567.58,-112.41C585.52,-107.51 607.56,-101.48 626.72,-96.24"/>
<polygon fill="midnightblue" stroke="midnightblue" points="627.71,-99.6 636.44,-93.59 625.87,-92.85 627.71,-99.6"/>
</g>
<!-- Node8&#45;&gt;Node7 -->
<g id="edge10" class="edge">
<title>Node8&#45;&gt;Node7</title>
<path fill="none" stroke="midnightblue" d="M567.58,-131.59C585.52,-136.49 607.56,-142.52 626.72,-147.76"/>
<polygon fill="midnightblue" stroke="midnightblue" points="625.87,-151.15 636.44,-150.41 627.71,-144.4 625.87,-151.15"/>
</g>
<!-- Node9 -->
<g id="node9" class="node">
<title>Node9</title>
<g id="a_node9"><a xlink:href="ladel__global_8c.html#a15a407b5c8ad9de2faeb93fcd786e099" target="_top" xlink:title="Version of calloc (for mex or for regular C).">
<polygon fill="white" stroke="black" points="635.5,-112.5 635.5,-131.5 709.5,-131.5 709.5,-112.5 635.5,-112.5"/>
<text text-anchor="middle" x="672.5" y="-119.5" font-family="Helvetica,sans-Serif" font-size="10.00">ladel_calloc</text>
</a>
</g>
</g>
<!-- Node8&#45;&gt;Node9 -->
<g id="edge9" class="edge">
<title>Node8&#45;&gt;Node9</title>
<path fill="none" stroke="midnightblue" d="M585.05,-122C598.27,-122 612.37,-122 625.26,-122"/>
<polygon fill="midnightblue" stroke="midnightblue" points="625.3,-125.5 635.3,-122 625.3,-118.5 625.3,-125.5"/>
</g>
<!-- Node14 -->
<g id="node14" class="node">
<title>Node14</title>
<g id="a_node14"><a xlink:href="ladel__copy_8c.html#a97ad68065f3cb0241e4a6427e2e196a7" target="_top" xlink:title="Copies a matrix (preallocated)">
<polygon fill="white" stroke="black" points="478,-266.5 478,-285.5 585,-285.5 585,-266.5 478,-266.5"/>
<text text-anchor="middle" x="531.5" y="-273.5" font-family="Helvetica,sans-Serif" font-size="10.00">ladel_sparse_copy</text>
</a>
</g>
</g>
<!-- Node13&#45;&gt;Node14 -->
<g id="edge17" class="edge">
<title>Node13&#45;&gt;Node14</title>
<path fill="none" stroke="midnightblue" d="M288.14,-279.09C342.28,-278.4 415.86,-277.46 467.7,-276.8"/>
<polygon fill="midnightblue" stroke="midnightblue" points="467.81,-280.3 477.76,-276.67 467.72,-273.3 467.81,-280.3"/>
</g>
<!-- Node14&#45;&gt;Node5 -->
<g id="edge18" class="edge">
<title>Node14&#45;&gt;Node5</title>
<path fill="none" stroke="midnightblue" d="M585.07,-273.39C624.1,-270.38 678.25,-263.89 724,-250 738.82,-245.5 754.41,-238.07 766.87,-231.41"/>
<polygon fill="midnightblue" stroke="midnightblue" points="768.67,-234.41 775.73,-226.52 765.28,-228.29 768.67,-234.41"/>
</g>
</g>
</svg>
        <g id="navigator" transform="translate(0 0)" fill="#404254">
                <rect fill="#f2f5e9" fill-opacity="0.5" stroke="#606060" stroke-width=".5" x="0" y="0" width="60" height="60"/>
                <use id="zoomplus" xlink:href="#zoomPlus" x="17" y="9" onmousedown="handleZoom(evt,'in')"/>
                <use id="zoomminus" xlink:href="#zoomMin" x="42" y="9" onmousedown="handleZoom(evt,'out')"/>
                <use id="reset" xlink:href="#resetDef" x="30" y="36" onmousedown="handleReset()"/>
                <g id="arrowUp" xlink:href="#dirArrow" transform="translate(30 24)" onmousedown="handlePan(0,-1)">
                  <use xlink:href="#rim" fill="#404040">
                        <set attributeName="fill" to="#808080" begin="arrowUp.mouseover" end="arrowUp.mouseout"/>
                  </use>
                  <path fill="none" stroke="white" stroke-width="1.5" d="M0,-3.0v7 M-2.5,-0.5L0,-3.0L2.5,-0.5"/>
                </g>
                <g id="arrowRight" xlink:href="#dirArrow" transform="rotate(90) translate(36 -43)" onmousedown="handlePan(1,0)">
                  <use xlink:href="#rim" fill="#404040">
                        <set attributeName="fill" to="#808080" begin="arrowRight.mouseover" end="arrowRight.mouseout"/>
                  </use>
                  <path fill="none" stroke="white" stroke-width="1.5" d="M0,-3.0v7 M-2.5,-0.5L0,-3.0L2.5,-0.5"/>
                </g>
                <g id="arrowDown" xlink:href="#dirArrow" transform="rotate(180) translate(-30 -48)" onmousedown="handlePan(0,1)">
                  <use xlink:href="#rim" fill="#404040">
                        <set attributeName="fill" to="#808080" begin="arrowDown.mouseover" end="arrowDown.mouseout"/>
                  </use>
                  <path fill="none" stroke="white" stroke-width="1.5" d="M0,-3.0v7 M-2.5,-0.5L0,-3.0L2.5,-0.5"/>
                </g>
                <g id="arrowLeft" xlink:href="#dirArrow" transform="rotate(270) translate(-36 17)" onmousedown="handlePan(-1,0)">
                  <use xlink:href="#rim" fill="#404040">
                        <set attributeName="fill" to="#808080" begin="arrowLeft.mouseover" end="arrowLeft.mouseout"/>
                  </use>
                  <path fill="none" stroke="white" stroke-width="1.5" d="M0,-3.0v7 M-2.5,-0.5L0,-3.0L2.5,-0.5"/>
                </g>
        </g>
        <svg viewBox="0 0 15 15" width="100%" height="30px" preserveAspectRatio="xMaxYMin meet">
         <g id="arrow_out" transform="scale(0.3 0.3)">
          <a xlink:href="ladel__ldl__symbolic_8c_a919feee5783ed6d5ffaff8dff6546976_cgraph_org.svg" target="_base">
           <rect id="button" ry="5" rx="5" y="6" x="6" height="38" width="38"
                fill="#f2f5e9" fill-opacity="0.5" stroke="#606060" stroke-width="1.0"/>
           <path id="arrow"
             d="M 11.500037,31.436501 C 11.940474,20.09759 22.043105,11.32322 32.158766,21.979434 L 37.068811,17.246167 C 37.068811,17.246167 37.088388,32 37.088388,32 L 22.160133,31.978069 C 22.160133,31.978069 26.997745,27.140456 26.997745,27.140456 C 18.528582,18.264221 13.291696,25.230495 11.500037,31.436501 z"
             style="fill:#404040;"/>
          </a>
         </g>
        </svg>
</svg>
