<?xml version="1.0" encoding="UTF-8" standalone="no"?>
<!DOCTYPE svg PUBLIC "-//W3C//DTD SVG 1.1//EN"
 "http://www.w3.org/Graphics/SVG/1.1/DTD/svg11.dtd">
<!-- Generated by graphviz version 2.43.0 (0)
 -->
<!-- Title: ladel_transpose Pages: 1 -->
<svg width="485pt" height="126pt"
 viewBox="0.00 0.00 485.00 126.34" xmlns="http://www.w3.org/2000/svg" xmlns:xlink="http://www.w3.org/1999/xlink">
<g id="graph0" class="graph" transform="scale(1 1) rotate(0) translate(4 122.34)">
<title>ladel_transpose</title>
<polygon fill="white" stroke="transparent" points="-4,4 -4,-122.34 481,-122.34 481,4 -4,4"/>
<!-- Node1 -->
<g id="node1" class="node">
<title>Node1</title>
<g id="a_node1"><a xlink:title="Returns the transpose of a matrix, that is .">
<polygon fill="#bfbfbf" stroke="black" points="0,-76.5 0,-95.5 94,-95.5 94,-76.5 0,-76.5"/>
<text text-anchor="middle" x="47" y="-83.5" font-family="Helvetica,sans-Serif" font-size="10.00">ladel_transpose</text>
</a>
</g>
</g>
<!-- Node2 -->
<g id="node2" class="node">
<title>Node2</title>
<g id="a_node2"><a xlink:href="ladel__global_8c.html#a946ae8034525eb6db42d4a166be57968" target="_top" xlink:title="Version of free (for mex or for regular C).">
<polygon fill="white" stroke="black" points="412,-57.5 412,-76.5 477,-76.5 477,-57.5 412,-57.5"/>
<text text-anchor="middle" x="444.5" y="-64.5" font-family="Helvetica,sans-Serif" font-size="10.00">ladel_free</text>
</a>
</g>
</g>
<!-- Node1&#45;&gt;Node2 -->
<g id="edge1" class="edge">
<title>Node1&#45;&gt;Node2</title>
<path fill="none" stroke="midnightblue" d="M85.14,-95.52C146.73,-109.68 273.37,-131.9 376,-105 392.75,-100.61 409.72,-91.02 422.46,-82.58"/>
<polygon fill="midnightblue" stroke="midnightblue" points="424.69,-85.29 430.92,-76.72 420.71,-79.53 424.69,-85.29"/>
</g>
<!-- Node3 -->
<g id="node3" class="node">
<title>Node3</title>
<g id="a_node3"><a xlink:href="ladel__global_8c.html#a86142b1e820a5de1deea8ee656186245" target="_top" xlink:title="Version of malloc (for mex or for regular C).">
<polygon fill="white" stroke="black" points="285,-76.5 285,-95.5 364,-95.5 364,-76.5 285,-76.5"/>
<text text-anchor="middle" x="324.5" y="-83.5" font-family="Helvetica,sans-Serif" font-size="10.00">ladel_malloc</text>
</a>
</g>
</g>
<!-- Node1&#45;&gt;Node3 -->
<g id="edge2" class="edge">
<title>Node1&#45;&gt;Node3</title>
<path fill="none" stroke="midnightblue" d="M94.11,-86C144.13,-86 223.64,-86 274.68,-86"/>
<polygon fill="midnightblue" stroke="midnightblue" points="274.81,-89.5 284.81,-86 274.81,-82.5 274.81,-89.5"/>
</g>
<!-- Node4 -->
<g id="node4" class="node">
<title>Node4</title>
<g id="a_node4"><a xlink:href="ladel__global_8c.html#a6e485045ec098c0b5a9afe07875a1e59" target="_top" xlink:title="Allocate a sparse matrix.">
<polygon fill="white" stroke="black" points="130,-38.5 130,-57.5 237,-57.5 237,-38.5 130,-38.5"/>
<text text-anchor="middle" x="183.5" y="-45.5" font-family="Helvetica,sans-Serif" font-size="10.00">ladel_sparse_alloc</text>
</a>
</g>
</g>
<!-- Node1&#45;&gt;Node4 -->
<g id="edge3" class="edge">
<title>Node1&#45;&gt;Node4</title>
<path fill="none" stroke="midnightblue" d="M81.94,-76.41C99.22,-71.53 120.43,-65.54 138.91,-60.32"/>
<polygon fill="midnightblue" stroke="midnightblue" points="139.9,-63.67 148.57,-57.59 138,-56.94 139.9,-63.67"/>
</g>
<!-- Node4&#45;&gt;Node3 -->
<g id="edge5" class="edge">
<title>Node4&#45;&gt;Node3</title>
<path fill="none" stroke="midnightblue" d="M219.58,-57.59C237.52,-62.49 259.56,-68.52 278.72,-73.76"/>
<polygon fill="midnightblue" stroke="midnightblue" points="277.87,-77.15 288.44,-76.41 279.71,-70.4 277.87,-77.15"/>
</g>
<!-- Node5 -->
<g id="node5" class="node">
<title>Node5</title>
<g id="a_node5"><a xlink:href="ladel__global_8c.html#a15a407b5c8ad9de2faeb93fcd786e099" target="_top" xlink:title="Version of calloc (for mex or for regular C).">
<polygon fill="white" stroke="black" points="287.5,-38.5 287.5,-57.5 361.5,-57.5 361.5,-38.5 287.5,-38.5"/>
<text text-anchor="middle" x="324.5" y="-45.5" font-family="Helvetica,sans-Serif" font-size="10.00">ladel_calloc</text>
</a>
</g>
</g>
<!-- Node4&#45;&gt;Node5 -->
<g id="edge4" class="edge">
<title>Node4&#45;&gt;Node5</title>
<path fill="none" stroke="midnightblue" d="M237.05,-48C250.27,-48 264.37,-48 277.26,-48"/>
<polygon fill="midnightblue" stroke="midnightblue" points="277.3,-51.5 287.3,-48 277.3,-44.5 277.3,-51.5"/>
</g>
<!-- Node6 -->
<g id="node6" class="node">
<title>Node6</title>
<g id="a_node6"><a xlink:href="ladel__global_8c.html#afaa07a7aa3c8517d3853968448b398a0" target="_top" xlink:title="Free a sparse matrix (and return NULL).">
<polygon fill="white" stroke="black" points="273,-0.5 273,-19.5 376,-19.5 376,-0.5 273,-0.5"/>
<text text-anchor="middle" x="324.5" y="-7.5" font-family="Helvetica,sans-Serif" font-size="10.00">ladel_sparse_free</text>
</a>
</g>
</g>
<!-- Node4&#45;&gt;Node6 -->
<g id="edge6" class="edge">
<title>Node4&#45;&gt;Node6</title>
<path fill="none" stroke="midnightblue" d="M219.58,-38.41C237.52,-33.51 259.56,-27.48 278.72,-22.24"/>
<polygon fill="midnightblue" stroke="midnightblue" points="279.71,-25.6 288.44,-19.59 277.87,-18.85 279.71,-25.6"/>
</g>
<!-- Node6&#45;&gt;Node2 -->
<g id="edge7" class="edge">
<title>Node6&#45;&gt;Node2</title>
<path fill="none" stroke="midnightblue" d="M353.07,-19.5C360.6,-22.33 368.7,-25.6 376,-29 390.81,-35.91 406.77,-44.82 419.45,-52.27"/>
<polygon fill="midnightblue" stroke="midnightblue" points="417.66,-55.28 428.04,-57.4 421.24,-49.27 417.66,-55.28"/>
</g>
</g>
</svg>
