<?xml version="1.0" encoding="UTF-8" standalone="no"?>
<!DOCTYPE svg PUBLIC "-//W3C//DTD SVG 1.1//EN"
 "http://www.w3.org/Graphics/SVG/1.1/DTD/svg11.dtd">
<!-- Generated by graphviz version 2.43.0 (0)
 -->
<!-- Title: LADEL/include/ladel_transpose.h Pages: 1 -->
<svg width="456pt" height="173pt"
 viewBox="0.00 0.00 456.00 173.00" xmlns="http://www.w3.org/2000/svg" xmlns:xlink="http://www.w3.org/1999/xlink">
<g id="graph0" class="graph" transform="scale(1 1) rotate(0) translate(4 169)">
<title>LADEL/include/ladel_transpose.h</title>
<polygon fill="white" stroke="transparent" points="-4,4 -4,-169 452,-169 452,4 -4,4"/>
<!-- Node1 -->
<g id="node1" class="node">
<title>Node1</title>
<g id="a_node1"><a xlink:title="Routine to compute the transpose of a matrix.">
<polygon fill="#bfbfbf" stroke="black" points="192,-134.5 192,-164.5 305,-164.5 305,-134.5 192,-134.5"/>
<text text-anchor="start" x="200" y="-152.5" font-family="Helvetica,sans-Serif" font-size="10.00">LADEL/include/ladel</text>
<text text-anchor="middle" x="248.5" y="-141.5" font-family="Helvetica,sans-Serif" font-size="10.00">_transpose.h</text>
</a>
</g>
</g>
<!-- Node2 -->
<g id="node2" class="node">
<title>Node2</title>
<g id="a_node2"><a xlink:href="ladel_8h.html" target="_top" xlink:title="LADEL main include file.">
<polygon fill="white" stroke="black" points="52.5,-73 52.5,-92 174.5,-92 174.5,-73 52.5,-73"/>
<text text-anchor="middle" x="113.5" y="-80" font-family="Helvetica,sans-Serif" font-size="10.00">LADEL/include/ladel.h</text>
</a>
</g>
</g>
<!-- Node1&#45;&gt;Node2 -->
<g id="edge1" class="edge">
<title>Node1&#45;&gt;Node2</title>
<path fill="none" stroke="midnightblue" d="M210.01,-129.97C184.08,-117.48 151.09,-101.6 131.17,-92.01"/>
<polygon fill="midnightblue" stroke="midnightblue" points="208.68,-133.21 219.21,-134.4 211.72,-126.9 208.68,-133.21"/>
</g>
<!-- Node5 -->
<g id="node5" class="node">
<title>Node5</title>
<g id="a_node5"><a xlink:href="ladel__col__counts_8c.html" target="_top" xlink:title=" ">
<polygon fill="white" stroke="black" points="192.5,-67.5 192.5,-97.5 304.5,-97.5 304.5,-67.5 192.5,-67.5"/>
<text text-anchor="start" x="200.5" y="-85.5" font-family="Helvetica,sans-Serif" font-size="10.00">LADEL/src/ladel_col</text>
<text text-anchor="middle" x="248.5" y="-74.5" font-family="Helvetica,sans-Serif" font-size="10.00">_counts.c</text>
</a>
</g>
</g>
<!-- Node1&#45;&gt;Node5 -->
<g id="edge4" class="edge">
<title>Node1&#45;&gt;Node5</title>
<path fill="none" stroke="midnightblue" d="M248.5,-124.11C248.5,-115.15 248.5,-105.32 248.5,-97.58"/>
<polygon fill="midnightblue" stroke="midnightblue" points="245,-124.4 248.5,-134.4 252,-124.4 245,-124.4"/>
</g>
<!-- Node6 -->
<g id="node6" class="node">
<title>Node6</title>
<g id="a_node6"><a xlink:href="ladel__upper__diag_8c.html" target="_top" xlink:title=" ">
<polygon fill="white" stroke="black" points="323,-67.5 323,-97.5 448,-97.5 448,-67.5 323,-67.5"/>
<text text-anchor="start" x="331" y="-85.5" font-family="Helvetica,sans-Serif" font-size="10.00">LADEL/src/ladel_upper</text>
<text text-anchor="middle" x="385.5" y="-74.5" font-family="Helvetica,sans-Serif" font-size="10.00">_diag.c</text>
</a>
</g>
</g>
<!-- Node1&#45;&gt;Node6 -->
<g id="edge5" class="edge">
<title>Node1&#45;&gt;Node6</title>
<path fill="none" stroke="midnightblue" d="M287.51,-129.99C309.22,-119.69 335.83,-107.07 355.83,-97.58"/>
<polygon fill="midnightblue" stroke="midnightblue" points="285.76,-126.95 278.23,-134.4 288.76,-133.27 285.76,-126.95"/>
</g>
<!-- Node3 -->
<g id="node3" class="node">
<title>Node3</title>
<g id="a_node3"><a xlink:href="ladel_8c.html" target="_top" xlink:title=" ">
<polygon fill="white" stroke="black" points="0,-6 0,-25 101,-25 101,-6 0,-6"/>
<text text-anchor="middle" x="50.5" y="-13" font-family="Helvetica,sans-Serif" font-size="10.00">LADEL/src/ladel.c</text>
</a>
</g>
</g>
<!-- Node2&#45;&gt;Node3 -->
<g id="edge2" class="edge">
<title>Node2&#45;&gt;Node3</title>
<path fill="none" stroke="midnightblue" d="M97.99,-65.5C85.63,-52.75 68.81,-35.39 58.86,-25.13"/>
<polygon fill="midnightblue" stroke="midnightblue" points="95.53,-67.99 105,-72.73 100.56,-63.12 95.53,-67.99"/>
</g>
<!-- Node4 -->
<g id="node4" class="node">
<title>Node4</title>
<g id="a_node4"><a xlink:href="ladel__row__mod_8c.html" target="_top" xlink:title=" ">
<polygon fill="white" stroke="black" points="119.5,-0.5 119.5,-30.5 235.5,-30.5 235.5,-0.5 119.5,-0.5"/>
<text text-anchor="start" x="127.5" y="-18.5" font-family="Helvetica,sans-Serif" font-size="10.00">LADEL/src/ladel_row</text>
<text text-anchor="middle" x="177.5" y="-7.5" font-family="Helvetica,sans-Serif" font-size="10.00">_mod.c</text>
</a>
</g>
</g>
<!-- Node2&#45;&gt;Node4 -->
<g id="edge3" class="edge">
<title>Node2&#45;&gt;Node4</title>
<path fill="none" stroke="midnightblue" d="M129.45,-65.3C139.95,-54.63 153.57,-40.8 163.63,-30.59"/>
<polygon fill="midnightblue" stroke="midnightblue" points="126.65,-63.15 122.13,-72.73 131.64,-68.06 126.65,-63.15"/>
</g>
</g>
</svg>
