<?xml version="1.0" encoding="UTF-8" standalone="no"?>
<!DOCTYPE svg PUBLIC "-//W3C//DTD SVG 1.1//EN"
 "http://www.w3.org/Graphics/SVG/1.1/DTD/svg11.dtd">
<!-- Generated by graphviz version 2.43.0 (0)
 -->
<!-- Title: ladel_nonzero_pattern_of_row_in_L Pages: 1 -->
<svg width="678pt" height="166pt"
 viewBox="0.00 0.00 678.00 165.50" xmlns="http://www.w3.org/2000/svg" xmlns:xlink="http://www.w3.org/1999/xlink">
<g id="graph0" class="graph" transform="scale(1 1) rotate(0) translate(4 161.5)">
<title>ladel_nonzero_pattern_of_row_in_L</title>
<polygon fill="white" stroke="transparent" points="-4,4 -4,-161.5 674,-161.5 674,4 -4,4"/>
<!-- Node1 -->
<g id="node1" class="node">
<title>Node1</title>
<g id="a_node1"><a xlink:title="Computes the pattern of the (next) row in L.">
<polygon fill="#bfbfbf" stroke="black" points="545,-61 545,-91 670,-91 670,-61 545,-61"/>
<text text-anchor="start" x="553" y="-79" font-family="Helvetica,sans-Serif" font-size="10.00">ladel_nonzero_pattern</text>
<text text-anchor="middle" x="607.5" y="-68" font-family="Helvetica,sans-Serif" font-size="10.00">_of_row_in_L</text>
</a>
</g>
</g>
<!-- Node2 -->
<g id="node2" class="node">
<title>Node2</title>
<g id="a_node2"><a xlink:href="ladel__ldl__numeric_8c.html#aca5dec521536dc26881de005cf3b5932" target="_top" xlink:title="Numerical part of the factorization of .">
<polygon fill="white" stroke="black" points="354,-66.5 354,-85.5 509,-85.5 509,-66.5 354,-66.5"/>
<text text-anchor="middle" x="431.5" y="-73.5" font-family="Helvetica,sans-Serif" font-size="10.00">ladel_ldl_numeric_with_diag</text>
</a>
</g>
</g>
<!-- Node1&#45;&gt;Node2 -->
<g id="edge1" class="edge">
<title>Node1&#45;&gt;Node2</title>
<path fill="none" stroke="midnightblue" d="M534.53,-76C526.12,-76 517.53,-76 509.06,-76"/>
<polygon fill="midnightblue" stroke="midnightblue" points="534.66,-79.5 544.66,-76 534.66,-72.5 534.66,-79.5"/>
</g>
<!-- Node3 -->
<g id="node3" class="node">
<title>Node3</title>
<g id="a_node3"><a xlink:href="group__grp-solver.html#gaff676fbf1dd6dbf8096c5349d264297f" target="_top" xlink:title="Computes the &#160;factorization of &#160;but allocates based on Mbasis.">
<polygon fill="white" stroke="black" points="177,-127 177,-157 318,-157 318,-127 177,-127"/>
<text text-anchor="start" x="185" y="-145" font-family="Helvetica,sans-Serif" font-size="10.00">ladel_factorize_advanced</text>
<text text-anchor="middle" x="247.5" y="-134" font-family="Helvetica,sans-Serif" font-size="10.00">_with_diag</text>
</a>
</g>
</g>
<!-- Node2&#45;&gt;Node3 -->
<g id="edge2" class="edge">
<title>Node2&#45;&gt;Node3</title>
<path fill="none" stroke="midnightblue" d="M394.51,-89.16C372.44,-97.22 343.59,-107.73 318,-117 309.08,-120.23 299.51,-123.68 290.41,-126.96"/>
<polygon fill="midnightblue" stroke="midnightblue" points="395.95,-92.36 404.14,-85.64 393.55,-85.78 395.95,-92.36"/>
</g>
<!-- Node5 -->
<g id="node5" class="node">
<title>Node5</title>
<g id="a_node5"><a xlink:href="group__grp-solver.html#ga129ea878837012c6ac76fb6046bc9449" target="_top" xlink:title="Computes the &#160;factorization of .">
<polygon fill="white" stroke="black" points="177,-88.5 177,-107.5 318,-107.5 318,-88.5 177,-88.5"/>
<text text-anchor="middle" x="247.5" y="-95.5" font-family="Helvetica,sans-Serif" font-size="10.00">ladel_factorize_with_diag</text>
</a>
</g>
</g>
<!-- Node2&#45;&gt;Node5 -->
<g id="edge4" class="edge">
<title>Node2&#45;&gt;Node5</title>
<path fill="none" stroke="midnightblue" d="M343.78,-86.48C335.18,-87.52 326.52,-88.57 318.12,-89.58"/>
<polygon fill="midnightblue" stroke="midnightblue" points="344.34,-89.94 353.84,-85.27 343.5,-82.99 344.34,-89.94"/>
</g>
<!-- Node7 -->
<g id="node7" class="node">
<title>Node7</title>
<g id="a_node7"><a xlink:href="group__grp-solver.html#gabb81f3223c3ab1794fd472276be8fba6" target="_top" xlink:title="Computes the &#160;factorization of &#160;provided LD was allocated before.">
<polygon fill="white" stroke="black" points="183.5,-39 183.5,-69 311.5,-69 311.5,-39 183.5,-39"/>
<text text-anchor="start" x="191.5" y="-57" font-family="Helvetica,sans-Serif" font-size="10.00">ladel_factorize_with</text>
<text text-anchor="middle" x="247.5" y="-46" font-family="Helvetica,sans-Serif" font-size="10.00">_prior_basis_with_diag</text>
</a>
</g>
</g>
<!-- Node2&#45;&gt;Node7 -->
<g id="edge6" class="edge">
<title>Node2&#45;&gt;Node7</title>
<path fill="none" stroke="midnightblue" d="M343.88,-65.53C332.98,-64.21 322.01,-62.89 311.57,-61.62"/>
<polygon fill="midnightblue" stroke="midnightblue" points="343.5,-69.01 353.84,-66.73 344.34,-62.06 343.5,-69.01"/>
</g>
<!-- Node9 -->
<g id="node9" class="node">
<title>Node9</title>
<g id="a_node9"><a xlink:href="ladel__ldl__numeric_8c.html#a5b8e84fe5897d582741fac3e078f071b" target="_top" xlink:title="Numerical part of the factorization of .">
<polygon fill="white" stroke="black" points="196,-0.5 196,-19.5 299,-19.5 299,-0.5 196,-0.5"/>
<text text-anchor="middle" x="247.5" y="-7.5" font-family="Helvetica,sans-Serif" font-size="10.00">ladel_ldl_numeric</text>
</a>
</g>
</g>
<!-- Node2&#45;&gt;Node9 -->
<g id="edge8" class="edge">
<title>Node2&#45;&gt;Node9</title>
<path fill="none" stroke="midnightblue" d="M400.35,-62.15C377.92,-52.17 346.42,-38.78 318,-29 308.06,-25.58 297.17,-22.36 287.01,-19.58"/>
<polygon fill="midnightblue" stroke="midnightblue" points="399.11,-65.43 409.66,-66.34 401.98,-59.05 399.11,-65.43"/>
</g>
<!-- Node4 -->
<g id="node4" class="node">
<title>Node4</title>
<g id="a_node4"><a xlink:href="group__grp-solver.html#gac217d5bb50524bf6bbc0e7fa473edcfb" target="_top" xlink:title="Computes the &#160;factorization of &#160;but allocates based on Mbasis.">
<polygon fill="white" stroke="black" points="0,-132.5 0,-151.5 141,-151.5 141,-132.5 0,-132.5"/>
<text text-anchor="middle" x="70.5" y="-139.5" font-family="Helvetica,sans-Serif" font-size="10.00">ladel_factorize_advanced</text>
</a>
</g>
</g>
<!-- Node3&#45;&gt;Node4 -->
<g id="edge3" class="edge">
<title>Node3&#45;&gt;Node4</title>
<path fill="none" stroke="midnightblue" d="M166.58,-142C158.11,-142 149.55,-142 141.21,-142"/>
<polygon fill="midnightblue" stroke="midnightblue" points="166.83,-145.5 176.83,-142 166.83,-138.5 166.83,-145.5"/>
</g>
<!-- Node6 -->
<g id="node6" class="node">
<title>Node6</title>
<g id="a_node6"><a xlink:href="group__grp-solver.html#ga6167c294e588fe34776d40e53c6ddbc9" target="_top" xlink:title="Computes the &#160;factorization of .">
<polygon fill="white" stroke="black" points="26,-88.5 26,-107.5 115,-107.5 115,-88.5 26,-88.5"/>
<text text-anchor="middle" x="70.5" y="-95.5" font-family="Helvetica,sans-Serif" font-size="10.00">ladel_factorize</text>
</a>
</g>
</g>
<!-- Node5&#45;&gt;Node6 -->
<g id="edge5" class="edge">
<title>Node5&#45;&gt;Node6</title>
<path fill="none" stroke="midnightblue" d="M166.51,-98C148.87,-98 130.82,-98 115.25,-98"/>
<polygon fill="midnightblue" stroke="midnightblue" points="166.83,-101.5 176.83,-98 166.83,-94.5 166.83,-101.5"/>
</g>
<!-- Node8 -->
<g id="node8" class="node">
<title>Node8</title>
<g id="a_node8"><a xlink:href="group__grp-solver.html#ga90783633564102ca42816a7d23eca63b" target="_top" xlink:title="Computes the &#160;factorization of &#160;provided LD was allocated before.">
<polygon fill="white" stroke="black" points="13,-39 13,-69 128,-69 128,-39 13,-39"/>
<text text-anchor="start" x="21" y="-57" font-family="Helvetica,sans-Serif" font-size="10.00">ladel_factorize_with</text>
<text text-anchor="middle" x="70.5" y="-46" font-family="Helvetica,sans-Serif" font-size="10.00">_prior_basis</text>
</a>
</g>
</g>
<!-- Node7&#45;&gt;Node8 -->
<g id="edge7" class="edge">
<title>Node7&#45;&gt;Node8</title>
<path fill="none" stroke="midnightblue" d="M173.05,-54C158.06,-54 142.5,-54 128.2,-54"/>
<polygon fill="midnightblue" stroke="midnightblue" points="173.32,-57.5 183.32,-54 173.32,-50.5 173.32,-57.5"/>
</g>
</g>
</svg>
