<?xml version="1.0" encoding="UTF-8" standalone="no"?>
<!DOCTYPE svg PUBLIC "-//W3C//DTD SVG 1.1//EN"
 "http://www.w3.org/Graphics/SVG/1.1/DTD/svg11.dtd">
<!-- Generated by graphviz version 2.43.0 (0)
 -->
<!-- Title: LADEL/include/ladel_matvec.h Pages: 1 -->
<svg width="311pt" height="263pt"
 viewBox="0.00 0.00 310.97 263.00" xmlns="http://www.w3.org/2000/svg" xmlns:xlink="http://www.w3.org/1999/xlink">
<g id="graph0" class="graph" transform="scale(1 1) rotate(0) translate(4 259)">
<title>LADEL/include/ladel_matvec.h</title>
<polygon fill="white" stroke="transparent" points="-4,4 -4,-259 306.97,-259 306.97,4 -4,4"/>
<!-- Node1 -->
<g id="node1" class="node">
<title>Node1</title>
<g id="a_node1"><a xlink:title="Routines to compute matrix vector products.">
<polygon fill="#bfbfbf" stroke="black" points="188.08,-224.5 188.08,-254.5 301.08,-254.5 301.08,-224.5 188.08,-224.5"/>
<text text-anchor="start" x="196.08" y="-242.5" font-family="Helvetica,sans-Serif" font-size="10.00">LADEL/include/ladel</text>
<text text-anchor="middle" x="244.58" y="-231.5" font-family="Helvetica,sans-Serif" font-size="10.00">_matvec.h</text>
</a>
</g>
</g>
<!-- Node2 -->
<g id="node2" class="node">
<title>Node2</title>
<g id="a_node2"><a xlink:href="ladel__global_8h.html" target="_top" xlink:title="Memory allocation routines.">
<polygon fill="white" stroke="black" points="133.08,-168.5 133.08,-187.5 218.08,-187.5 218.08,-168.5 133.08,-168.5"/>
<text text-anchor="middle" x="175.58" y="-175.5" font-family="Helvetica,sans-Serif" font-size="10.00">ladel_global.h</text>
</a>
</g>
</g>
<!-- Node1&#45;&gt;Node2 -->
<g id="edge1" class="edge">
<title>Node1&#45;&gt;Node2</title>
<path fill="none" stroke="midnightblue" d="M228.22,-224.4C217.68,-215.31 203.98,-203.49 193.19,-194.19"/>
<polygon fill="midnightblue" stroke="midnightblue" points="195.48,-191.54 185.62,-187.66 190.9,-196.84 195.48,-191.54"/>
</g>
<!-- Node3 -->
<g id="node3" class="node">
<title>Node3</title>
<g id="a_node3"><a xlink:href="ladel__types_8h.html" target="_top" xlink:title="Structures and types used in LADEL routines.">
<polygon fill="white" stroke="black" points="134.58,-56.5 134.58,-75.5 216.58,-75.5 216.58,-56.5 134.58,-56.5"/>
<text text-anchor="middle" x="175.58" y="-63.5" font-family="Helvetica,sans-Serif" font-size="10.00">ladel_types.h</text>
</a>
</g>
</g>
<!-- Node1&#45;&gt;Node3 -->
<g id="edge9" class="edge">
<title>Node1&#45;&gt;Node3</title>
<path fill="none" stroke="midnightblue" d="M258.63,-224.2C281.02,-199.63 319.81,-148.53 294.58,-112 279.29,-89.88 251.64,-78.62 226.83,-72.9"/>
<polygon fill="midnightblue" stroke="midnightblue" points="227.28,-69.42 216.78,-70.83 225.87,-76.27 227.28,-69.42"/>
</g>
<!-- Node2&#45;&gt;Node3 -->
<g id="edge2" class="edge">
<title>Node2&#45;&gt;Node3</title>
<path fill="none" stroke="midnightblue" d="M132.73,-171.48C88.15,-164.74 22.74,-151.76 7.58,-132 -25.45,-88.96 63.42,-74.41 124.15,-69.49"/>
<polygon fill="midnightblue" stroke="midnightblue" points="124.67,-72.96 134.38,-68.73 124.15,-65.98 124.67,-72.96"/>
</g>
<!-- Node6 -->
<g id="node6" class="node">
<title>Node6</title>
<g id="a_node6"><a xlink:href="ladel__constants_8h.html" target="_top" xlink:title="Constants and macros used in LADEL.">
<polygon fill="white" stroke="black" points="16.58,-112.5 16.58,-131.5 118.58,-131.5 118.58,-112.5 16.58,-112.5"/>
<text text-anchor="middle" x="67.58" y="-119.5" font-family="Helvetica,sans-Serif" font-size="10.00">ladel_constants.h</text>
</a>
</g>
</g>
<!-- Node2&#45;&gt;Node6 -->
<g id="edge5" class="edge">
<title>Node2&#45;&gt;Node6</title>
<path fill="none" stroke="midnightblue" d="M158.22,-168.32C140.9,-159.66 114.06,-146.24 94.07,-136.25"/>
<polygon fill="midnightblue" stroke="midnightblue" points="95.39,-133 84.89,-131.65 92.26,-139.26 95.39,-133"/>
</g>
<!-- Node7 -->
<g id="node7" class="node">
<title>Node7</title>
<g id="a_node7"><a xlink:href="ladel__copy_8h.html" target="_top" xlink:title="Routines to copy matrices and vectors.">
<polygon fill="white" stroke="black" points="137.08,-112.5 137.08,-131.5 214.08,-131.5 214.08,-112.5 137.08,-112.5"/>
<text text-anchor="middle" x="175.58" y="-119.5" font-family="Helvetica,sans-Serif" font-size="10.00">ladel_copy.h</text>
</a>
</g>
</g>
<!-- Node2&#45;&gt;Node7 -->
<g id="edge6" class="edge">
<title>Node2&#45;&gt;Node7</title>
<path fill="none" stroke="midnightblue" d="M175.58,-168.08C175.58,-161.01 175.58,-150.86 175.58,-141.99"/>
<polygon fill="midnightblue" stroke="midnightblue" points="179.08,-141.75 175.58,-131.75 172.08,-141.75 179.08,-141.75"/>
</g>
<!-- Node8 -->
<g id="node8" class="node">
<title>Node8</title>
<g id="a_node8"><a xlink:title=" ">
<polygon fill="white" stroke="#bfbfbf" points="232.08,-112.5 232.08,-131.5 285.08,-131.5 285.08,-112.5 232.08,-112.5"/>
<text text-anchor="middle" x="258.58" y="-119.5" font-family="Helvetica,sans-Serif" font-size="10.00">stdlib.h</text>
</a>
</g>
</g>
<!-- Node2&#45;&gt;Node8 -->
<g id="edge8" class="edge">
<title>Node2&#45;&gt;Node8</title>
<path fill="none" stroke="midnightblue" d="M188.91,-168.32C201.74,-159.98 221.36,-147.21 236.52,-137.35"/>
<polygon fill="midnightblue" stroke="midnightblue" points="238.8,-140.04 245.27,-131.65 234.98,-134.17 238.8,-140.04"/>
</g>
<!-- Node4 -->
<g id="node4" class="node">
<title>Node4</title>
<g id="a_node4"><a xlink:title=" ">
<polygon fill="white" stroke="#bfbfbf" points="111.08,-0.5 111.08,-19.5 164.08,-19.5 164.08,-0.5 111.08,-0.5"/>
<text text-anchor="middle" x="137.58" y="-7.5" font-family="Helvetica,sans-Serif" font-size="10.00">stdint.h</text>
</a>
</g>
</g>
<!-- Node3&#45;&gt;Node4 -->
<g id="edge3" class="edge">
<title>Node3&#45;&gt;Node4</title>
<path fill="none" stroke="midnightblue" d="M169.3,-56.08C163.93,-48.46 156.06,-37.26 149.5,-27.94"/>
<polygon fill="midnightblue" stroke="midnightblue" points="152.35,-25.91 143.73,-19.75 146.63,-29.94 152.35,-25.91"/>
</g>
<!-- Node5 -->
<g id="node5" class="node">
<title>Node5</title>
<g id="a_node5"><a xlink:title=" ">
<polygon fill="white" stroke="#bfbfbf" points="182.08,-0.5 182.08,-19.5 247.08,-19.5 247.08,-0.5 182.08,-0.5"/>
<text text-anchor="middle" x="214.58" y="-7.5" font-family="Helvetica,sans-Serif" font-size="10.00">inttypes.h</text>
</a>
</g>
</g>
<!-- Node3&#45;&gt;Node5 -->
<g id="edge4" class="edge">
<title>Node3&#45;&gt;Node5</title>
<path fill="none" stroke="midnightblue" d="M182.02,-56.08C187.53,-48.46 195.61,-37.26 202.34,-27.94"/>
<polygon fill="midnightblue" stroke="midnightblue" points="205.24,-29.91 208.26,-19.75 199.56,-25.81 205.24,-29.91"/>
</g>
<!-- Node7&#45;&gt;Node3 -->
<g id="edge7" class="edge">
<title>Node7&#45;&gt;Node3</title>
<path fill="none" stroke="midnightblue" d="M175.58,-112.08C175.58,-105.01 175.58,-94.86 175.58,-85.99"/>
<polygon fill="midnightblue" stroke="midnightblue" points="179.08,-85.75 175.58,-75.75 172.08,-85.75 179.08,-85.75"/>
</g>
</g>
</svg>
