<?xml version="1.0" encoding="UTF-8" standalone="no"?>
<!DOCTYPE svg PUBLIC "-//W3C//DTD SVG 1.1//EN"
 "http://www.w3.org/Graphics/SVG/1.1/DTD/svg11.dtd">
<!-- Generated by graphviz version 2.43.0 (0)
 -->
<!-- Title: ladel_set_allocate Pages: 1 -->
<svg width="336pt" height="66pt"
 viewBox="0.00 0.00 336.00 66.00" xmlns="http://www.w3.org/2000/svg" xmlns:xlink="http://www.w3.org/1999/xlink">
<g id="graph0" class="graph" transform="scale(1 1) rotate(0) translate(4 62)">
<title>ladel_set_allocate</title>
<polygon fill="white" stroke="transparent" points="-4,4 -4,-62 332,-62 332,4 -4,4"/>
<!-- Node1 -->
<g id="node1" class="node">
<title>Node1</title>
<g id="a_node1"><a xlink:title="Allocate a set struct.">
<polygon fill="#bfbfbf" stroke="black" points="0,-19.5 0,-38.5 105,-38.5 105,-19.5 0,-19.5"/>
<text text-anchor="middle" x="52.5" y="-26.5" font-family="Helvetica,sans-Serif" font-size="10.00">ladel_set_allocate</text>
</a>
</g>
</g>
<!-- Node2 -->
<g id="node2" class="node">
<title>Node2</title>
<g id="a_node2"><a xlink:href="ladel__global_8c.html#a86142b1e820a5de1deea8ee656186245" target="_top" xlink:title="Version of malloc (for mex or for regular C).">
<polygon fill="white" stroke="black" points="144.5,-38.5 144.5,-57.5 223.5,-57.5 223.5,-38.5 144.5,-38.5"/>
<text text-anchor="middle" x="184" y="-45.5" font-family="Helvetica,sans-Serif" font-size="10.00">ladel_malloc</text>
</a>
</g>
</g>
<!-- Node1&#45;&gt;Node2 -->
<g id="edge1" class="edge">
<title>Node1&#45;&gt;Node2</title>
<path fill="none" stroke="midnightblue" d="M105.05,-36.56C114.69,-37.98 124.73,-39.45 134.28,-40.85"/>
<polygon fill="midnightblue" stroke="midnightblue" points="133.99,-44.35 144.4,-42.34 135.01,-37.42 133.99,-44.35"/>
</g>
<!-- Node3 -->
<g id="node3" class="node">
<title>Node3</title>
<g id="a_node3"><a xlink:href="ladel__global_8c.html#adf80852f1363f544a2bebaadaebcaed4" target="_top" xlink:title="Free a set.">
<polygon fill="white" stroke="black" points="141,-0.5 141,-19.5 227,-19.5 227,-0.5 141,-0.5"/>
<text text-anchor="middle" x="184" y="-7.5" font-family="Helvetica,sans-Serif" font-size="10.00">ladel_set_free</text>
</a>
</g>
</g>
<!-- Node1&#45;&gt;Node3 -->
<g id="edge2" class="edge">
<title>Node1&#45;&gt;Node3</title>
<path fill="none" stroke="midnightblue" d="M105.05,-21.44C113.48,-20.2 122.21,-18.92 130.66,-17.68"/>
<polygon fill="midnightblue" stroke="midnightblue" points="131.38,-21.11 140.77,-16.2 130.37,-14.18 131.38,-21.11"/>
</g>
<!-- Node4 -->
<g id="node4" class="node">
<title>Node4</title>
<g id="a_node4"><a xlink:href="ladel__global_8c.html#a946ae8034525eb6db42d4a166be57968" target="_top" xlink:title="Version of free (for mex or for regular C).">
<polygon fill="white" stroke="black" points="263,-0.5 263,-19.5 328,-19.5 328,-0.5 263,-0.5"/>
<text text-anchor="middle" x="295.5" y="-7.5" font-family="Helvetica,sans-Serif" font-size="10.00">ladel_free</text>
</a>
</g>
</g>
<!-- Node3&#45;&gt;Node4 -->
<g id="edge3" class="edge">
<title>Node3&#45;&gt;Node4</title>
<path fill="none" stroke="midnightblue" d="M227.02,-10C235.51,-10 244.43,-10 252.91,-10"/>
<polygon fill="midnightblue" stroke="midnightblue" points="252.97,-13.5 262.97,-10 252.97,-6.5 252.97,-13.5"/>
</g>
</g>
</svg>
