<?xml version="1.0" encoding="UTF-8" standalone="no"?>
<!DOCTYPE svg PUBLIC "-//W3C//DTD SVG 1.1//EN"
 "http://www.w3.org/Graphics/SVG/1.1/DTD/svg11.dtd">
<!-- Generated by graphviz version 2.43.0 (0)
 -->
<!-- Title: ladel_mat_mat_transpose_advanced Pages: 1 -->
<svg width="330pt" height="127pt"
 viewBox="0.00 0.00 330.00 127.00" xmlns="http://www.w3.org/2000/svg" xmlns:xlink="http://www.w3.org/1999/xlink">
<g id="graph0" class="graph" transform="scale(1 1) rotate(0) translate(4 123)">
<title>ladel_mat_mat_transpose_advanced</title>
<polygon fill="white" stroke="transparent" points="-4,4 -4,-123 326,-123 326,4 -4,4"/>
<!-- Node1 -->
<g id="node1" class="node">
<title>Node1</title>
<g id="a_node1"><a xlink:title="Core mat_mat_transpose function with all options (diag and value/pattern).">
<polygon fill="#bfbfbf" stroke="black" points="179,-44.5 179,-74.5 322,-74.5 322,-44.5 179,-44.5"/>
<text text-anchor="start" x="187" y="-62.5" font-family="Helvetica,sans-Serif" font-size="10.00">ladel_mat_mat_transpose</text>
<text text-anchor="middle" x="250.5" y="-51.5" font-family="Helvetica,sans-Serif" font-size="10.00">_advanced</text>
</a>
</g>
</g>
<!-- Node2 -->
<g id="node2" class="node">
<title>Node2</title>
<g id="a_node2"><a xlink:href="ladel__matmat_8c.html#aeb2ea434d4c66863f8814d3c5a6ce97a" target="_top" xlink:title="Computes .">
<polygon fill="white" stroke="black" points="13.5,-88.5 13.5,-118.5 129.5,-118.5 129.5,-88.5 13.5,-88.5"/>
<text text-anchor="start" x="21.5" y="-106.5" font-family="Helvetica,sans-Serif" font-size="10.00">ladel_mat_diag_mat</text>
<text text-anchor="middle" x="71.5" y="-95.5" font-family="Helvetica,sans-Serif" font-size="10.00">_transpose</text>
</a>
</g>
</g>
<!-- Node1&#45;&gt;Node2 -->
<g id="edge1" class="edge">
<title>Node1&#45;&gt;Node2</title>
<path fill="none" stroke="midnightblue" d="M179.01,-77.02C162.63,-81.09 145.39,-85.38 129.66,-89.29"/>
<polygon fill="midnightblue" stroke="midnightblue" points="180.22,-80.33 189.08,-74.52 178.53,-73.54 180.22,-80.33"/>
</g>
<!-- Node3 -->
<g id="node3" class="node">
<title>Node3</title>
<g id="a_node3"><a xlink:href="ladel__matmat_8c.html#a9d9a01b808baba381deeab28e25b41e0" target="_top" xlink:title="Computes .">
<polygon fill="white" stroke="black" points="0,-50 0,-69 143,-69 143,-50 0,-50"/>
<text text-anchor="middle" x="71.5" y="-57" font-family="Helvetica,sans-Serif" font-size="10.00">ladel_mat_mat_transpose</text>
</a>
</g>
</g>
<!-- Node1&#45;&gt;Node3 -->
<g id="edge2" class="edge">
<title>Node1&#45;&gt;Node3</title>
<path fill="none" stroke="midnightblue" d="M168.51,-59.5C160.03,-59.5 151.46,-59.5 143.11,-59.5"/>
<polygon fill="midnightblue" stroke="midnightblue" points="168.78,-63 178.78,-59.5 168.78,-56 168.78,-63"/>
</g>
<!-- Node4 -->
<g id="node4" class="node">
<title>Node4</title>
<g id="a_node4"><a xlink:href="ladel__matmat_8c.html#a0b1d696c23cec68f53fe76f6db607572" target="_top" xlink:title="Computes the pattern of .">
<polygon fill="white" stroke="black" points="0,-0.5 0,-30.5 143,-30.5 143,-0.5 0,-0.5"/>
<text text-anchor="start" x="8" y="-18.5" font-family="Helvetica,sans-Serif" font-size="10.00">ladel_mat_mat_transpose</text>
<text text-anchor="middle" x="71.5" y="-7.5" font-family="Helvetica,sans-Serif" font-size="10.00">_pattern</text>
</a>
</g>
</g>
<!-- Node1&#45;&gt;Node4 -->
<g id="edge3" class="edge">
<title>Node1&#45;&gt;Node4</title>
<path fill="none" stroke="midnightblue" d="M179.16,-42.01C163.87,-38.21 147.82,-34.22 132.95,-30.53"/>
<polygon fill="midnightblue" stroke="midnightblue" points="178.53,-45.46 189.08,-44.48 180.22,-38.67 178.53,-45.46"/>
</g>
</g>
</svg>
