<?xml version="1.0" encoding="UTF-8" standalone="no"?>
<!DOCTYPE svg PUBLIC "-//W3C//DTD SVG 1.1//EN"
 "http://www.w3.org/Graphics/SVG/1.1/DTD/svg11.dtd">
<!-- Generated by graphviz version 2.43.0 (0)
 -->
<!-- Title: ladel_column_submatrix Pages: 1 -->
<svg width="528pt" height="104pt"
 viewBox="0.00 0.00 528.00 104.00" xmlns="http://www.w3.org/2000/svg" xmlns:xlink="http://www.w3.org/1999/xlink">
<g id="graph0" class="graph" transform="scale(1 1) rotate(0) translate(4 100)">
<title>ladel_column_submatrix</title>
<polygon fill="white" stroke="transparent" points="-4,4 -4,-100 524,-100 524,4 -4,4"/>
<!-- Node1 -->
<g id="node1" class="node">
<title>Node1</title>
<g id="a_node1"><a xlink:title="Returns a matrix that is a selection of columns of M, that is .">
<polygon fill="#bfbfbf" stroke="black" points="0,-38.5 0,-57.5 137,-57.5 137,-38.5 0,-38.5"/>
<text text-anchor="middle" x="68.5" y="-45.5" font-family="Helvetica,sans-Serif" font-size="10.00">ladel_column_submatrix</text>
</a>
</g>
</g>
<!-- Node2 -->
<g id="node2" class="node">
<title>Node2</title>
<g id="a_node2"><a xlink:href="ladel__global_8c.html#a6e485045ec098c0b5a9afe07875a1e59" target="_top" xlink:title="Allocate a sparse matrix.">
<polygon fill="white" stroke="black" points="173,-60.5 173,-79.5 280,-79.5 280,-60.5 173,-60.5"/>
<text text-anchor="middle" x="226.5" y="-67.5" font-family="Helvetica,sans-Serif" font-size="10.00">ladel_sparse_alloc</text>
</a>
</g>
</g>
<!-- Node1&#45;&gt;Node2 -->
<g id="edge1" class="edge">
<title>Node1&#45;&gt;Node2</title>
<path fill="none" stroke="midnightblue" d="M137.02,-57.52C145.56,-58.73 154.28,-59.96 162.75,-61.15"/>
<polygon fill="midnightblue" stroke="midnightblue" points="162.54,-64.66 172.93,-62.59 163.52,-57.72 162.54,-64.66"/>
</g>
<!-- Node7 -->
<g id="node7" class="node">
<title>Node7</title>
<g id="a_node7"><a xlink:href="ladel__global_8c.html#a938486f5d2d4aee4858a50c0c3767490" target="_top" xlink:title="Allocate a sparse empty matrix (used in special cases).">
<polygon fill="white" stroke="black" points="173,-11 173,-41 280,-41 280,-11 173,-11"/>
<text text-anchor="start" x="181" y="-29" font-family="Helvetica,sans-Serif" font-size="10.00">ladel_sparse_alloc</text>
<text text-anchor="middle" x="226.5" y="-18" font-family="Helvetica,sans-Serif" font-size="10.00">_empty</text>
</a>
</g>
</g>
<!-- Node1&#45;&gt;Node7 -->
<g id="edge6" class="edge">
<title>Node1&#45;&gt;Node7</title>
<path fill="none" stroke="midnightblue" d="M137.02,-38.48C145.56,-37.27 154.28,-36.04 162.75,-34.85"/>
<polygon fill="midnightblue" stroke="midnightblue" points="163.52,-38.28 172.93,-33.41 162.54,-31.34 163.52,-38.28"/>
</g>
<!-- Node3 -->
<g id="node3" class="node">
<title>Node3</title>
<g id="a_node3"><a xlink:href="ladel__global_8c.html#a15a407b5c8ad9de2faeb93fcd786e099" target="_top" xlink:title="Version of calloc (for mex or for regular C).">
<polygon fill="white" stroke="black" points="330.5,-76.5 330.5,-95.5 404.5,-95.5 404.5,-76.5 330.5,-76.5"/>
<text text-anchor="middle" x="367.5" y="-83.5" font-family="Helvetica,sans-Serif" font-size="10.00">ladel_calloc</text>
</a>
</g>
</g>
<!-- Node2&#45;&gt;Node3 -->
<g id="edge2" class="edge">
<title>Node2&#45;&gt;Node3</title>
<path fill="none" stroke="midnightblue" d="M280.05,-76.05C293.27,-77.57 307.37,-79.19 320.26,-80.68"/>
<polygon fill="midnightblue" stroke="midnightblue" points="319.97,-84.17 330.3,-81.83 320.77,-77.21 319.97,-84.17"/>
</g>
<!-- Node4 -->
<g id="node4" class="node">
<title>Node4</title>
<g id="a_node4"><a xlink:href="ladel__global_8c.html#a86142b1e820a5de1deea8ee656186245" target="_top" xlink:title="Version of malloc (for mex or for regular C).">
<polygon fill="white" stroke="black" points="328,-38.5 328,-57.5 407,-57.5 407,-38.5 328,-38.5"/>
<text text-anchor="middle" x="367.5" y="-45.5" font-family="Helvetica,sans-Serif" font-size="10.00">ladel_malloc</text>
</a>
</g>
</g>
<!-- Node2&#45;&gt;Node4 -->
<g id="edge3" class="edge">
<title>Node2&#45;&gt;Node4</title>
<path fill="none" stroke="midnightblue" d="M280.05,-61.68C292.42,-59.72 305.56,-57.65 317.76,-55.71"/>
<polygon fill="midnightblue" stroke="midnightblue" points="318.41,-59.15 327.74,-54.13 317.32,-52.24 318.41,-59.15"/>
</g>
<!-- Node5 -->
<g id="node5" class="node">
<title>Node5</title>
<g id="a_node5"><a xlink:href="ladel__global_8c.html#afaa07a7aa3c8517d3853968448b398a0" target="_top" xlink:title="Free a sparse matrix (and return NULL).">
<polygon fill="white" stroke="black" points="316,-0.5 316,-19.5 419,-19.5 419,-0.5 316,-0.5"/>
<text text-anchor="middle" x="367.5" y="-7.5" font-family="Helvetica,sans-Serif" font-size="10.00">ladel_sparse_free</text>
</a>
</g>
</g>
<!-- Node2&#45;&gt;Node5 -->
<g id="edge4" class="edge">
<title>Node2&#45;&gt;Node5</title>
<path fill="none" stroke="midnightblue" d="M255.11,-60.45C263.24,-57.38 272.08,-53.79 280,-50 296.71,-42.01 299.27,-36.96 316,-29 320.16,-27.02 324.58,-25.1 329.01,-23.3"/>
<polygon fill="midnightblue" stroke="midnightblue" points="330.59,-26.43 338.63,-19.53 328.04,-19.92 330.59,-26.43"/>
</g>
<!-- Node6 -->
<g id="node6" class="node">
<title>Node6</title>
<g id="a_node6"><a xlink:href="ladel__global_8c.html#a946ae8034525eb6db42d4a166be57968" target="_top" xlink:title="Version of free (for mex or for regular C).">
<polygon fill="white" stroke="black" points="455,-0.5 455,-19.5 520,-19.5 520,-0.5 455,-0.5"/>
<text text-anchor="middle" x="487.5" y="-7.5" font-family="Helvetica,sans-Serif" font-size="10.00">ladel_free</text>
</a>
</g>
</g>
<!-- Node5&#45;&gt;Node6 -->
<g id="edge5" class="edge">
<title>Node5&#45;&gt;Node6</title>
<path fill="none" stroke="midnightblue" d="M419.23,-10C427.75,-10 436.5,-10 444.76,-10"/>
<polygon fill="midnightblue" stroke="midnightblue" points="444.91,-13.5 454.91,-10 444.91,-6.5 444.91,-13.5"/>
</g>
<!-- Node7&#45;&gt;Node3 -->
<g id="edge7" class="edge">
<title>Node7&#45;&gt;Node3</title>
<path fill="none" stroke="midnightblue" d="M259.26,-41.01C279.99,-50.75 305.15,-62.45 316,-67 320.57,-68.91 325.4,-70.85 330.19,-72.71"/>
<polygon fill="midnightblue" stroke="midnightblue" points="329.29,-76.11 339.88,-76.41 331.79,-69.57 329.29,-76.11"/>
</g>
<!-- Node7&#45;&gt;Node4 -->
<g id="edge8" class="edge">
<title>Node7&#45;&gt;Node4</title>
<path fill="none" stroke="midnightblue" d="M280.05,-34.32C292.42,-36.28 305.56,-38.35 317.76,-40.29"/>
<polygon fill="midnightblue" stroke="midnightblue" points="317.32,-43.76 327.74,-41.87 318.41,-36.85 317.32,-43.76"/>
</g>
<!-- Node7&#45;&gt;Node5 -->
<g id="edge9" class="edge">
<title>Node7&#45;&gt;Node5</title>
<path fill="none" stroke="midnightblue" d="M280.05,-19.95C288.45,-18.98 297.2,-17.98 305.77,-16.99"/>
<polygon fill="midnightblue" stroke="midnightblue" points="306.18,-20.47 315.72,-15.85 305.38,-13.51 306.18,-20.47"/>
</g>
</g>
</svg>
