<?xml version="1.0" encoding="UTF-8" standalone="no"?>
<!DOCTYPE svg PUBLIC "-//W3C//DTD SVG 1.1//EN"
 "http://www.w3.org/Graphics/SVG/1.1/DTD/svg11.dtd">
<!-- Generated by graphviz version 2.43.0 (0)
 -->
<!-- Title: ladel_transpose Pages: 1 -->
<svg width="750pt" height="94pt"
 viewBox="0.00 0.00 750.00 93.50" xmlns="http://www.w3.org/2000/svg" xmlns:xlink="http://www.w3.org/1999/xlink">
<g id="graph0" class="graph" transform="scale(1 1) rotate(0) translate(4 89.5)">
<title>ladel_transpose</title>
<polygon fill="white" stroke="transparent" points="-4,4 -4,-89.5 746,-89.5 746,4 -4,4"/>
<!-- Node1 -->
<g id="node1" class="node">
<title>Node1</title>
<g id="a_node1"><a xlink:title="Returns the transpose of a matrix, that is .">
<polygon fill="#bfbfbf" stroke="black" points="648,-19.5 648,-38.5 742,-38.5 742,-19.5 648,-19.5"/>
<text text-anchor="middle" x="695" y="-26.5" font-family="Helvetica,sans-Serif" font-size="10.00">ladel_transpose</text>
</a>
</g>
</g>
<!-- Node2 -->
<g id="node2" class="node">
<title>Node2</title>
<g id="a_node2"><a xlink:href="ladel__col__counts_8c.html#aa7284697012b8c3de4cece3e31915488" target="_top" xlink:title="Computes the column counts of the factor.">
<polygon fill="white" stroke="black" points="505.5,-38.5 505.5,-57.5 603.5,-57.5 603.5,-38.5 505.5,-38.5"/>
<text text-anchor="middle" x="554.5" y="-45.5" font-family="Helvetica,sans-Serif" font-size="10.00">ladel_col_counts</text>
</a>
</g>
</g>
<!-- Node1&#45;&gt;Node2 -->
<g id="edge1" class="edge">
<title>Node1&#45;&gt;Node2</title>
<path fill="none" stroke="midnightblue" d="M637.72,-36.72C626.47,-38.26 614.74,-39.87 603.79,-41.38"/>
<polygon fill="midnightblue" stroke="midnightblue" points="638.45,-40.15 647.88,-35.33 637.5,-33.22 638.45,-40.15"/>
</g>
<!-- Node8 -->
<g id="node8" class="node">
<title>Node8</title>
<g id="a_node8"><a xlink:href="ladel__upper__diag_8c.html#a7a4946c49cace1648ec43ab05e35b8e6" target="_top" xlink:title="Return , that is the upper diagonal elements of M.">
<polygon fill="white" stroke="black" points="497,-0.5 497,-19.5 612,-19.5 612,-0.5 497,-0.5"/>
<text text-anchor="middle" x="554.5" y="-7.5" font-family="Helvetica,sans-Serif" font-size="10.00">ladel_to_upper_diag</text>
</a>
</g>
</g>
<!-- Node1&#45;&gt;Node8 -->
<g id="edge7" class="edge">
<title>Node1&#45;&gt;Node8</title>
<path fill="none" stroke="midnightblue" d="M637.71,-21.28C629.24,-20.12 620.5,-18.92 612.02,-17.75"/>
<polygon fill="midnightblue" stroke="midnightblue" points="637.5,-24.78 647.88,-22.67 638.45,-17.85 637.5,-24.78"/>
</g>
<!-- Node3 -->
<g id="node3" class="node">
<title>Node3</title>
<g id="a_node3"><a xlink:href="ladel__ldl__symbolic_8c.html#a919feee5783ed6d5ffaff8dff6546976" target="_top" xlink:title="Symbolic part of the factorization.">
<polygon fill="white" stroke="black" points="354,-38.5 354,-57.5 461,-57.5 461,-38.5 354,-38.5"/>
<text text-anchor="middle" x="407.5" y="-45.5" font-family="Helvetica,sans-Serif" font-size="10.00">ladel_ldl_symbolic</text>
</a>
</g>
</g>
<!-- Node2&#45;&gt;Node3 -->
<g id="edge2" class="edge">
<title>Node2&#45;&gt;Node3</title>
<path fill="none" stroke="midnightblue" d="M495.06,-48C483.81,-48 472.1,-48 461.06,-48"/>
<polygon fill="midnightblue" stroke="midnightblue" points="495.22,-51.5 505.22,-48 495.22,-44.5 495.22,-51.5"/>
</g>
<!-- Node4 -->
<g id="node4" class="node">
<title>Node4</title>
<g id="a_node4"><a xlink:href="group__grp-solver.html#gaff676fbf1dd6dbf8096c5349d264297f" target="_top" xlink:title="Computes the &#160;factorization of &#160;but allocates based on Mbasis.">
<polygon fill="white" stroke="black" points="177,-55 177,-85 318,-85 318,-55 177,-55"/>
<text text-anchor="start" x="185" y="-73" font-family="Helvetica,sans-Serif" font-size="10.00">ladel_factorize_advanced</text>
<text text-anchor="middle" x="247.5" y="-62" font-family="Helvetica,sans-Serif" font-size="10.00">_with_diag</text>
</a>
</g>
</g>
<!-- Node3&#45;&gt;Node4 -->
<g id="edge3" class="edge">
<title>Node3&#45;&gt;Node4</title>
<path fill="none" stroke="midnightblue" d="M343.74,-56.74C335.29,-57.91 326.59,-59.13 318.03,-60.32"/>
<polygon fill="midnightblue" stroke="midnightblue" points="344.47,-60.17 353.89,-55.33 343.5,-53.24 344.47,-60.17"/>
</g>
<!-- Node6 -->
<g id="node6" class="node">
<title>Node6</title>
<g id="a_node6"><a xlink:href="group__grp-solver.html#ga129ea878837012c6ac76fb6046bc9449" target="_top" xlink:title="Computes the &#160;factorization of .">
<polygon fill="white" stroke="black" points="177,-16.5 177,-35.5 318,-35.5 318,-16.5 177,-16.5"/>
<text text-anchor="middle" x="247.5" y="-23.5" font-family="Helvetica,sans-Serif" font-size="10.00">ladel_factorize_with_diag</text>
</a>
</g>
</g>
<!-- Node3&#45;&gt;Node6 -->
<g id="edge5" class="edge">
<title>Node3&#45;&gt;Node6</title>
<path fill="none" stroke="midnightblue" d="M343.71,-39.26C334.9,-38.03 325.81,-36.76 316.9,-35.52"/>
<polygon fill="midnightblue" stroke="midnightblue" points="343.5,-42.76 353.89,-40.67 344.47,-35.83 343.5,-42.76"/>
</g>
<!-- Node5 -->
<g id="node5" class="node">
<title>Node5</title>
<g id="a_node5"><a xlink:href="group__grp-solver.html#gac217d5bb50524bf6bbc0e7fa473edcfb" target="_top" xlink:title="Computes the &#160;factorization of &#160;but allocates based on Mbasis.">
<polygon fill="white" stroke="black" points="0,-60.5 0,-79.5 141,-79.5 141,-60.5 0,-60.5"/>
<text text-anchor="middle" x="70.5" y="-67.5" font-family="Helvetica,sans-Serif" font-size="10.00">ladel_factorize_advanced</text>
</a>
</g>
</g>
<!-- Node4&#45;&gt;Node5 -->
<g id="edge4" class="edge">
<title>Node4&#45;&gt;Node5</title>
<path fill="none" stroke="midnightblue" d="M166.58,-70C158.11,-70 149.55,-70 141.21,-70"/>
<polygon fill="midnightblue" stroke="midnightblue" points="166.83,-73.5 176.83,-70 166.83,-66.5 166.83,-73.5"/>
</g>
<!-- Node7 -->
<g id="node7" class="node">
<title>Node7</title>
<g id="a_node7"><a xlink:href="group__grp-solver.html#ga6167c294e588fe34776d40e53c6ddbc9" target="_top" xlink:title="Computes the &#160;factorization of .">
<polygon fill="white" stroke="black" points="26,-16.5 26,-35.5 115,-35.5 115,-16.5 26,-16.5"/>
<text text-anchor="middle" x="70.5" y="-23.5" font-family="Helvetica,sans-Serif" font-size="10.00">ladel_factorize</text>
</a>
</g>
</g>
<!-- Node6&#45;&gt;Node7 -->
<g id="edge6" class="edge">
<title>Node6&#45;&gt;Node7</title>
<path fill="none" stroke="midnightblue" d="M166.51,-26C148.87,-26 130.82,-26 115.25,-26"/>
<polygon fill="midnightblue" stroke="midnightblue" points="166.83,-29.5 176.83,-26 166.83,-22.5 166.83,-29.5"/>
</g>
</g>
</svg>
