<?xml version="1.0" encoding="UTF-8" standalone="no"?>
<!DOCTYPE svg PUBLIC "-//W3C//DTD SVG 1.1//EN"
 "http://www.w3.org/Graphics/SVG/1.1/DTD/svg11.dtd">
<!-- Generated by graphviz version 2.43.0 (0)
 -->
<!-- Title: LADEL/src/ladel_row_mod.c Pages: 1 -->
<svg width="1938pt" height="375pt"
 viewBox="0.00 0.00 1937.50 375.00" xmlns="http://www.w3.org/2000/svg" xmlns:xlink="http://www.w3.org/1999/xlink">
<g id="graph0" class="graph" transform="scale(1 1) rotate(0) translate(4 371)">
<title>LADEL/src/ladel_row_mod.c</title>
<polygon fill="white" stroke="transparent" points="-4,4 -4,-371 1933.5,-371 1933.5,4 -4,4"/>
<!-- Node1 -->
<g id="node1" class="node">
<title>Node1</title>
<g id="a_node1"><a xlink:title=" ">
<polygon fill="#bfbfbf" stroke="black" points="1379,-336.5 1379,-366.5 1495,-366.5 1495,-336.5 1379,-336.5"/>
<text text-anchor="start" x="1387" y="-354.5" font-family="Helvetica,sans-Serif" font-size="10.00">LADEL/src/ladel_row</text>
<text text-anchor="middle" x="1437" y="-343.5" font-family="Helvetica,sans-Serif" font-size="10.00">_mod.c</text>
</a>
</g>
</g>
<!-- Node2 -->
<g id="node2" class="node">
<title>Node2</title>
<g id="a_node2"><a xlink:href="ladel_8h.html" target="_top" xlink:title="LADEL main include file.">
<polygon fill="white" stroke="black" points="848,-280.5 848,-299.5 898,-299.5 898,-280.5 848,-280.5"/>
<text text-anchor="middle" x="873" y="-287.5" font-family="Helvetica,sans-Serif" font-size="10.00">ladel.h</text>
</a>
</g>
</g>
<!-- Node1&#45;&gt;Node2 -->
<g id="edge1" class="edge">
<title>Node1&#45;&gt;Node2</title>
<path fill="none" stroke="midnightblue" d="M1378.77,-344.36C1262.1,-332.05 1002.82,-304.7 908.33,-294.73"/>
<polygon fill="midnightblue" stroke="midnightblue" points="908.47,-291.22 898.16,-293.65 907.73,-298.18 908.47,-291.22"/>
</g>
<!-- Node4 -->
<g id="node4" class="node">
<title>Node4</title>
<g id="a_node4"><a xlink:href="ladel__types_8h.html" target="_top" xlink:title="Structures and types used in LADEL routines.">
<polygon fill="white" stroke="black" points="740,-56.5 740,-75.5 822,-75.5 822,-56.5 740,-56.5"/>
<text text-anchor="middle" x="781" y="-63.5" font-family="Helvetica,sans-Serif" font-size="10.00">ladel_types.h</text>
</a>
</g>
</g>
<!-- Node1&#45;&gt;Node4 -->
<g id="edge49" class="edge">
<title>Node1&#45;&gt;Node4</title>
<path fill="none" stroke="midnightblue" d="M1495.3,-346.39C1609.14,-336.76 1850,-307.78 1850,-235 1850,-235 1850,-235 1850,-177 1850,-73.45 1046.08,-66.77 832.55,-66.83"/>
<polygon fill="midnightblue" stroke="midnightblue" points="832.25,-63.33 822.25,-66.83 832.25,-70.33 832.25,-63.33"/>
</g>
<!-- Node7 -->
<g id="node7" class="node">
<title>Node7</title>
<g id="a_node7"><a xlink:href="ladel__constants_8h.html" target="_top" xlink:title="Constants and macros used in LADEL.">
<polygon fill="white" stroke="black" points="1173,-112.5 1173,-131.5 1275,-131.5 1275,-112.5 1173,-112.5"/>
<text text-anchor="middle" x="1224" y="-119.5" font-family="Helvetica,sans-Serif" font-size="10.00">ladel_constants.h</text>
</a>
</g>
</g>
<!-- Node1&#45;&gt;Node7 -->
<g id="edge51" class="edge">
<title>Node1&#45;&gt;Node7</title>
<path fill="none" stroke="midnightblue" d="M1423.68,-336.27C1386.11,-296.14 1279.47,-182.24 1239.44,-139.49"/>
<polygon fill="midnightblue" stroke="midnightblue" points="1241.75,-136.83 1232.36,-131.93 1236.64,-141.62 1241.75,-136.83"/>
</g>
<!-- Node9 -->
<g id="node9" class="node">
<title>Node9</title>
<g id="a_node9"><a xlink:href="ladel__debug__print_8h.html" target="_top" xlink:title="Routines to print out matrices and vectors.">
<polygon fill="white" stroke="black" points="1182.5,-224.5 1182.5,-243.5 1295.5,-243.5 1295.5,-224.5 1182.5,-224.5"/>
<text text-anchor="middle" x="1239" y="-231.5" font-family="Helvetica,sans-Serif" font-size="10.00">ladel_debug_print.h</text>
</a>
</g>
</g>
<!-- Node1&#45;&gt;Node9 -->
<g id="edge56" class="edge">
<title>Node1&#45;&gt;Node9</title>
<path fill="none" stroke="midnightblue" d="M1390.11,-336.43C1365.26,-327.86 1334.83,-315.56 1310,-300 1288.22,-286.35 1266.98,-265.64 1253.5,-251.28"/>
<polygon fill="midnightblue" stroke="midnightblue" points="1255.85,-248.66 1246.51,-243.66 1250.69,-253.39 1255.85,-248.66"/>
</g>
<!-- Node10 -->
<g id="node10" class="node">
<title>Node10</title>
<g id="a_node10"><a xlink:href="ladel__global_8h.html" target="_top" xlink:title="Memory allocation routines.">
<polygon fill="white" stroke="black" points="1030.5,-168.5 1030.5,-187.5 1115.5,-187.5 1115.5,-168.5 1030.5,-168.5"/>
<text text-anchor="middle" x="1073" y="-175.5" font-family="Helvetica,sans-Serif" font-size="10.00">ladel_global.h</text>
</a>
</g>
</g>
<!-- Node1&#45;&gt;Node10 -->
<g id="edge50" class="edge">
<title>Node1&#45;&gt;Node10</title>
<path fill="none" stroke="midnightblue" d="M1385.63,-336.45C1354.56,-327.34 1314.44,-314.5 1280,-300 1230.9,-279.32 1220,-270.89 1174,-244 1145.74,-227.48 1114.17,-206.79 1093.97,-193.24"/>
<polygon fill="midnightblue" stroke="midnightblue" points="1095.79,-190.25 1085.54,-187.56 1091.87,-196.05 1095.79,-190.25"/>
</g>
<!-- Node17 -->
<g id="node17" class="node">
<title>Node17</title>
<g id="a_node17"><a xlink:href="ladel__pattern_8h.html" target="_top" xlink:title="Routines to compute the pattern of the result of a backsolve.">
<polygon fill="white" stroke="black" points="1352,-224.5 1352,-243.5 1442,-243.5 1442,-224.5 1352,-224.5"/>
<text text-anchor="middle" x="1397" y="-231.5" font-family="Helvetica,sans-Serif" font-size="10.00">ladel_pattern.h</text>
</a>
</g>
</g>
<!-- Node1&#45;&gt;Node17 -->
<g id="edge52" class="edge">
<title>Node1&#45;&gt;Node17</title>
<path fill="none" stroke="midnightblue" d="M1432.1,-336.34C1424.86,-315.43 1411.31,-276.31 1403.33,-253.27"/>
<polygon fill="midnightblue" stroke="midnightblue" points="1406.58,-251.97 1400,-243.67 1399.97,-254.26 1406.58,-251.97"/>
</g>
<!-- Node18 -->
<g id="node18" class="node">
<title>Node18</title>
<g id="a_node18"><a xlink:href="ladel__permutation_8h.html" target="_top" xlink:title="Routines to permute vectors and matrices.">
<polygon fill="white" stroke="black" points="1460.5,-224.5 1460.5,-243.5 1575.5,-243.5 1575.5,-224.5 1460.5,-224.5"/>
<text text-anchor="middle" x="1518" y="-231.5" font-family="Helvetica,sans-Serif" font-size="10.00">ladel_permutation.h</text>
</a>
</g>
</g>
<!-- Node1&#45;&gt;Node18 -->
<g id="edge55" class="edge">
<title>Node1&#45;&gt;Node18</title>
<path fill="none" stroke="midnightblue" d="M1446.93,-336.34C1461.86,-315.05 1490.03,-274.89 1506.05,-252.03"/>
<polygon fill="midnightblue" stroke="midnightblue" points="1509.04,-253.87 1511.92,-243.67 1503.31,-249.85 1509.04,-253.87"/>
</g>
<!-- Node20 -->
<g id="node20" class="node">
<title>Node20</title>
<g id="a_node20"><a xlink:href="ladel__rank1__mod_8h.html" target="_top" xlink:title="Helper routines for the rank1_update function.">
<polygon fill="white" stroke="black" points="1594,-224.5 1594,-243.5 1704,-243.5 1704,-224.5 1594,-224.5"/>
<text text-anchor="middle" x="1649" y="-231.5" font-family="Helvetica,sans-Serif" font-size="10.00">ladel_rank1_mod.h</text>
</a>
</g>
</g>
<!-- Node1&#45;&gt;Node20 -->
<g id="edge53" class="edge">
<title>Node1&#45;&gt;Node20</title>
<path fill="none" stroke="midnightblue" d="M1463,-336.34C1504.25,-313.86 1584.15,-270.33 1624.46,-248.37"/>
<polygon fill="midnightblue" stroke="midnightblue" points="1626.25,-251.38 1633.36,-243.52 1622.9,-245.23 1626.25,-251.38"/>
</g>
<!-- Node21 -->
<g id="node21" class="node">
<title>Node21</title>
<g id="a_node21"><a xlink:href="ladel__row__mod_8h.html" target="_top" xlink:title="Routines for the row add/delete updates to a factorization are defined in ladel_row_mod....">
<polygon fill="white" stroke="black" points="1722,-224.5 1722,-243.5 1822,-243.5 1822,-224.5 1722,-224.5"/>
<text text-anchor="middle" x="1772" y="-231.5" font-family="Helvetica,sans-Serif" font-size="10.00">ladel_row_mod.h</text>
</a>
</g>
</g>
<!-- Node1&#45;&gt;Node21 -->
<g id="edge54" class="edge">
<title>Node1&#45;&gt;Node21</title>
<path fill="none" stroke="midnightblue" d="M1477.74,-336.45C1544.31,-313.5 1675.2,-268.38 1737.48,-246.9"/>
<polygon fill="midnightblue" stroke="midnightblue" points="1738.91,-250.11 1747.22,-243.54 1736.63,-243.49 1738.91,-250.11"/>
</g>
<!-- Node27 -->
<g id="node27" class="node">
<title>Node27</title>
<g id="a_node27"><a xlink:title=" ">
<polygon fill="white" stroke="#bfbfbf" points="1878.5,-280.5 1878.5,-299.5 1929.5,-299.5 1929.5,-280.5 1878.5,-280.5"/>
<text text-anchor="middle" x="1904" y="-287.5" font-family="Helvetica,sans-Serif" font-size="10.00">math.h</text>
</a>
</g>
</g>
<!-- Node1&#45;&gt;Node27 -->
<g id="edge57" class="edge">
<title>Node1&#45;&gt;Node27</title>
<path fill="none" stroke="midnightblue" d="M1495.29,-345.54C1577.75,-338.07 1733.03,-322.42 1864,-300 1865.45,-299.75 1866.92,-299.49 1868.41,-299.21"/>
<polygon fill="midnightblue" stroke="midnightblue" points="1869.15,-302.63 1878.26,-297.2 1867.76,-295.77 1869.15,-302.63"/>
</g>
<!-- Node3 -->
<g id="node3" class="node">
<title>Node3</title>
<g id="a_node3"><a xlink:href="ladel__col__counts_8h.html" target="_top" xlink:title="Computes the col counts needed for the symbolic factorization (after etree and postorder).">
<polygon fill="white" stroke="black" points="718.5,-168.5 718.5,-187.5 825.5,-187.5 825.5,-168.5 718.5,-168.5"/>
<text text-anchor="middle" x="772" y="-175.5" font-family="Helvetica,sans-Serif" font-size="10.00">ladel_col_counts.h</text>
</a>
</g>
</g>
<!-- Node2&#45;&gt;Node3 -->
<g id="edge2" class="edge">
<title>Node2&#45;&gt;Node3</title>
<path fill="none" stroke="midnightblue" d="M865.07,-280.37C848.19,-261.97 808.43,-218.67 786.74,-195.05"/>
<polygon fill="midnightblue" stroke="midnightblue" points="789.23,-192.59 779.89,-187.59 784.07,-197.32 789.23,-192.59"/>
</g>
<!-- Node2&#45;&gt;Node4 -->
<g id="edge42" class="edge">
<title>Node2&#45;&gt;Node4</title>
<path fill="none" stroke="midnightblue" d="M871.65,-280.24C868.15,-259.52 857.51,-206.36 835,-168 823.86,-149.02 812.08,-151.01 801,-132 792.64,-117.65 787.43,-99.46 784.43,-85.97"/>
<polygon fill="midnightblue" stroke="midnightblue" points="787.82,-85.04 782.41,-75.93 780.95,-86.42 787.82,-85.04"/>
</g>
<!-- Node2&#45;&gt;Node7 -->
<g id="edge6" class="edge">
<title>Node2&#45;&gt;Node7</title>
<path fill="none" stroke="midnightblue" d="M898.23,-287.3C938.21,-283.79 1017.75,-273.41 1078,-244 1132.99,-217.16 1185.1,-165.5 1209.52,-139.22"/>
<polygon fill="midnightblue" stroke="midnightblue" points="1212.28,-141.38 1216.44,-131.64 1207.11,-136.66 1212.28,-141.38"/>
</g>
<!-- Node8 -->
<g id="node8" class="node">
<title>Node8</title>
<g id="a_node8"><a xlink:href="ladel__copy_8h.html" target="_top" xlink:title="Routines to copy matrices and vectors.">
<polygon fill="white" stroke="black" points="967.5,-112.5 967.5,-131.5 1044.5,-131.5 1044.5,-112.5 967.5,-112.5"/>
<text text-anchor="middle" x="1006" y="-119.5" font-family="Helvetica,sans-Serif" font-size="10.00">ladel_copy.h</text>
</a>
</g>
</g>
<!-- Node2&#45;&gt;Node8 -->
<g id="edge7" class="edge">
<title>Node2&#45;&gt;Node8</title>
<path fill="none" stroke="midnightblue" d="M880.15,-280.08C901.45,-253.49 964.71,-174.54 992.57,-139.76"/>
<polygon fill="midnightblue" stroke="midnightblue" points="995.61,-141.56 999.14,-131.57 990.15,-137.18 995.61,-141.56"/>
</g>
<!-- Node2&#45;&gt;Node9 -->
<g id="edge9" class="edge">
<title>Node2&#45;&gt;Node9</title>
<path fill="none" stroke="midnightblue" d="M898.16,-285.29C954.05,-277.04 1090.1,-256.97 1172.42,-244.82"/>
<polygon fill="midnightblue" stroke="midnightblue" points="1173.04,-248.27 1182.43,-243.35 1172.02,-241.34 1173.04,-248.27"/>
</g>
<!-- Node2&#45;&gt;Node10 -->
<g id="edge18" class="edge">
<title>Node2&#45;&gt;Node10</title>
<path fill="none" stroke="midnightblue" d="M898.24,-286.21C943.73,-280.66 1036.79,-266.78 1059,-244 1070.7,-232 1073.63,-212.7 1073.98,-198.25"/>
<polygon fill="midnightblue" stroke="midnightblue" points="1077.47,-197.87 1073.82,-187.92 1070.47,-197.98 1077.47,-197.87"/>
</g>
<!-- Node12 -->
<g id="node12" class="node">
<title>Node12</title>
<g id="a_node12"><a xlink:href="ladel__etree_8h.html" target="_top" xlink:title="Routines to compute the elimination tree of a matrix.">
<polygon fill="white" stroke="black" points="340,-168.5 340,-187.5 420,-187.5 420,-168.5 340,-168.5"/>
<text text-anchor="middle" x="380" y="-175.5" font-family="Helvetica,sans-Serif" font-size="10.00">ladel_etree.h</text>
</a>
</g>
</g>
<!-- Node2&#45;&gt;Node12 -->
<g id="edge16" class="edge">
<title>Node2&#45;&gt;Node12</title>
<path fill="none" stroke="midnightblue" d="M847.64,-288.05C790.26,-285.38 646.48,-275.79 531,-244 484.77,-231.27 434.18,-207.25 404.87,-192.25"/>
<polygon fill="midnightblue" stroke="midnightblue" points="406.27,-189.03 395.78,-187.53 403.05,-195.24 406.27,-189.03"/>
</g>
<!-- Node13 -->
<g id="node13" class="node">
<title>Node13</title>
<g id="a_node13"><a xlink:href="ladel__ldl__numeric_8h.html" target="_top" xlink:title="The numerical part of the factorization.">
<polygon fill="white" stroke="black" points="438,-168.5 438,-187.5 550,-187.5 550,-168.5 438,-168.5"/>
<text text-anchor="middle" x="494" y="-175.5" font-family="Helvetica,sans-Serif" font-size="10.00">ladel_ldl_numeric.h</text>
</a>
</g>
</g>
<!-- Node2&#45;&gt;Node13 -->
<g id="edge19" class="edge">
<title>Node2&#45;&gt;Node13</title>
<path fill="none" stroke="midnightblue" d="M847.54,-287.25C782.94,-282.49 614.24,-268.05 564,-244 540.74,-232.87 519.91,-211.28 507.14,-196.04"/>
<polygon fill="midnightblue" stroke="midnightblue" points="509.6,-193.52 500.6,-187.93 504.16,-197.91 509.6,-193.52"/>
</g>
<!-- Node14 -->
<g id="node14" class="node">
<title>Node14</title>
<g id="a_node14"><a xlink:href="ladel__ldl__symbolic_8h.html" target="_top" xlink:title="The symbolic part of the factorization.">
<polygon fill="white" stroke="black" points="528,-112.5 528,-131.5 644,-131.5 644,-112.5 528,-112.5"/>
<text text-anchor="middle" x="586" y="-119.5" font-family="Helvetica,sans-Serif" font-size="10.00">ladel_ldl_symbolic.h</text>
</a>
</g>
</g>
<!-- Node2&#45;&gt;Node14 -->
<g id="edge21" class="edge">
<title>Node2&#45;&gt;Node14</title>
<path fill="none" stroke="midnightblue" d="M847.97,-287.97C792.92,-284.24 661.12,-267.06 597,-188 586.53,-175.09 584.4,-155.92 584.52,-141.74"/>
<polygon fill="midnightblue" stroke="midnightblue" points="588.02,-141.8 584.97,-131.65 581.02,-141.48 588.02,-141.8"/>
</g>
<!-- Node15 -->
<g id="node15" class="node">
<title>Node15</title>
<g id="a_node15"><a xlink:href="ladel__matvec_8h.html" target="_top" xlink:title="Routines to compute matrix vector products.">
<polygon fill="white" stroke="black" points="958,-224.5 958,-243.5 1050,-243.5 1050,-224.5 958,-224.5"/>
<text text-anchor="middle" x="1004" y="-231.5" font-family="Helvetica,sans-Serif" font-size="10.00">ladel_matvec.h</text>
</a>
</g>
</g>
<!-- Node2&#45;&gt;Node15 -->
<g id="edge23" class="edge">
<title>Node2&#45;&gt;Node15</title>
<path fill="none" stroke="midnightblue" d="M893.76,-280.44C915.32,-271.56 949.26,-257.56 973.79,-247.45"/>
<polygon fill="midnightblue" stroke="midnightblue" points="975.43,-250.56 983.34,-243.52 972.76,-244.09 975.43,-250.56"/>
</g>
<!-- Node16 -->
<g id="node16" class="node">
<title>Node16</title>
<g id="a_node16"><a xlink:href="ladel__matmat_8h.html" target="_top" xlink:title="Routines to compute matrix matrix products. For now only &#160;and , with &#160;a diagonal matrix,...">
<polygon fill="white" stroke="black" points="606,-168.5 606,-187.5 700,-187.5 700,-168.5 606,-168.5"/>
<text text-anchor="middle" x="653" y="-175.5" font-family="Helvetica,sans-Serif" font-size="10.00">ladel_matmat.h</text>
</a>
</g>
</g>
<!-- Node2&#45;&gt;Node16 -->
<g id="edge26" class="edge">
<title>Node2&#45;&gt;Node16</title>
<path fill="none" stroke="midnightblue" d="M855.74,-280.37C817.34,-261.17 724.68,-214.84 679.15,-192.07"/>
<polygon fill="midnightblue" stroke="midnightblue" points="680.69,-188.93 670.18,-187.59 677.56,-195.19 680.69,-188.93"/>
</g>
<!-- Node2&#45;&gt;Node17 -->
<g id="edge28" class="edge">
<title>Node2&#45;&gt;Node17</title>
<path fill="none" stroke="midnightblue" d="M898.27,-286.4C978.56,-278.12 1229.13,-252.3 1341.5,-240.72"/>
<polygon fill="midnightblue" stroke="midnightblue" points="1342.02,-244.18 1351.61,-239.68 1341.3,-237.22 1342.02,-244.18"/>
</g>
<!-- Node2&#45;&gt;Node18 -->
<g id="edge30" class="edge">
<title>Node2&#45;&gt;Node18</title>
<path fill="none" stroke="midnightblue" d="M898.12,-287.55C977.42,-282.85 1229.76,-267.11 1450.14,-244.03"/>
<polygon fill="midnightblue" stroke="midnightblue" points="1450.7,-247.49 1460.28,-242.96 1449.97,-240.53 1450.7,-247.49"/>
</g>
<!-- Node19 -->
<g id="node19" class="node">
<title>Node19</title>
<g id="a_node19"><a xlink:href="ladel__postorder_8h.html" target="_top" xlink:title="Routine to compute the postordering of the elimination tree.">
<polygon fill="white" stroke="black" points="809.5,-112.5 809.5,-131.5 910.5,-131.5 910.5,-112.5 809.5,-112.5"/>
<text text-anchor="middle" x="860" y="-119.5" font-family="Helvetica,sans-Serif" font-size="10.00">ladel_postorder.h</text>
</a>
</g>
</g>
<!-- Node2&#45;&gt;Node19 -->
<g id="edge32" class="edge">
<title>Node2&#45;&gt;Node19</title>
<path fill="none" stroke="midnightblue" d="M873.04,-280.46C873.05,-260.64 872.58,-210.01 868,-168 867.04,-159.21 865.4,-149.56 863.86,-141.45"/>
<polygon fill="midnightblue" stroke="midnightblue" points="867.28,-140.69 861.88,-131.58 860.41,-142.07 867.28,-140.69"/>
</g>
<!-- Node2&#45;&gt;Node20 -->
<g id="edge34" class="edge">
<title>Node2&#45;&gt;Node20</title>
<path fill="none" stroke="midnightblue" d="M898.28,-288.1C989.32,-284.73 1309.06,-271.6 1583.71,-244.05"/>
<polygon fill="midnightblue" stroke="midnightblue" points="1584.28,-247.51 1593.87,-243.03 1583.57,-240.55 1584.28,-247.51"/>
</g>
<!-- Node2&#45;&gt;Node21 -->
<g id="edge36" class="edge">
<title>Node2&#45;&gt;Node21</title>
<path fill="none" stroke="midnightblue" d="M898.15,-288.55C999.04,-286.56 1384.29,-277.17 1711.67,-244.03"/>
<polygon fill="midnightblue" stroke="midnightblue" points="1712.24,-247.49 1721.83,-242.99 1711.53,-240.53 1712.24,-247.49"/>
</g>
<!-- Node22 -->
<g id="node22" class="node">
<title>Node22</title>
<g id="a_node22"><a xlink:href="ladel__scale_8h.html" target="_top" xlink:title="Routines to scale the columns and rows of a matrix, or the whole matrix itself.">
<polygon fill="white" stroke="black" points="0,-168.5 0,-187.5 80,-187.5 80,-168.5 0,-168.5"/>
<text text-anchor="middle" x="40" y="-175.5" font-family="Helvetica,sans-Serif" font-size="10.00">ladel_scale.h</text>
</a>
</g>
</g>
<!-- Node2&#45;&gt;Node22 -->
<g id="edge38" class="edge">
<title>Node2&#45;&gt;Node22</title>
<path fill="none" stroke="midnightblue" d="M847.86,-288.51C740.11,-286.26 316.94,-275.51 188,-244 141.95,-232.75 92.24,-208.05 63.75,-192.54"/>
<polygon fill="midnightblue" stroke="midnightblue" points="65.38,-189.45 54.93,-187.67 61.99,-195.57 65.38,-189.45"/>
</g>
<!-- Node23 -->
<g id="node23" class="node">
<title>Node23</title>
<g id="a_node23"><a xlink:href="ladel__transpose_8h.html" target="_top" xlink:title="Routine to compute the transpose of a matrix.">
<polygon fill="white" stroke="black" points="181.5,-112.5 181.5,-131.5 284.5,-131.5 284.5,-112.5 181.5,-112.5"/>
<text text-anchor="middle" x="233" y="-119.5" font-family="Helvetica,sans-Serif" font-size="10.00">ladel_transpose.h</text>
</a>
</g>
</g>
<!-- Node2&#45;&gt;Node23 -->
<g id="edge40" class="edge">
<title>Node2&#45;&gt;Node23</title>
<path fill="none" stroke="midnightblue" d="M847.64,-288.54C741.4,-286.42 335.4,-276.23 289,-244 254.41,-219.97 240.7,-168.98 235.66,-141.49"/>
<polygon fill="midnightblue" stroke="midnightblue" points="239.11,-140.9 234.04,-131.6 232.21,-142.03 239.11,-140.9"/>
</g>
<!-- Node24 -->
<g id="node24" class="node">
<title>Node24</title>
<g id="a_node24"><a xlink:href="ladel__upper__diag_8h.html" target="_top" xlink:title="Routine to keep only the upper diagonal elements of a (symmetric) matrix.">
<polygon fill="white" stroke="black" points="98.5,-168.5 98.5,-187.5 207.5,-187.5 207.5,-168.5 98.5,-168.5"/>
<text text-anchor="middle" x="153" y="-175.5" font-family="Helvetica,sans-Serif" font-size="10.00">ladel_upper_diag.h</text>
</a>
</g>
</g>
<!-- Node2&#45;&gt;Node24 -->
<g id="edge43" class="edge">
<title>Node2&#45;&gt;Node24</title>
<path fill="none" stroke="midnightblue" d="M847.75,-288.26C734.95,-284.81 280.13,-269.42 222,-244 198.3,-233.64 177.7,-211.5 165.32,-195.95"/>
<polygon fill="midnightblue" stroke="midnightblue" points="167.87,-193.52 159.02,-187.7 162.3,-197.77 167.87,-193.52"/>
</g>
<!-- Node25 -->
<g id="node25" class="node">
<title>Node25</title>
<g id="a_node25"><a xlink:href="ladel__add_8h.html" target="_top" xlink:title="Routines to add matrices.">
<polygon fill="white" stroke="black" points="302.5,-112.5 302.5,-131.5 375.5,-131.5 375.5,-112.5 302.5,-112.5"/>
<text text-anchor="middle" x="339" y="-119.5" font-family="Helvetica,sans-Serif" font-size="10.00">ladel_add.h</text>
</a>
</g>
</g>
<!-- Node2&#45;&gt;Node25 -->
<g id="edge45" class="edge">
<title>Node2&#45;&gt;Node25</title>
<path fill="none" stroke="midnightblue" d="M847.8,-288.98C742.26,-288.62 339.5,-284.57 302,-244 274.66,-214.42 305.47,-165.13 325.16,-139.55"/>
<polygon fill="midnightblue" stroke="midnightblue" points="328.03,-141.55 331.54,-131.56 322.56,-137.18 328.03,-141.55"/>
</g>
<!-- Node26 -->
<g id="node26" class="node">
<title>Node26</title>
<g id="a_node26"><a xlink:href="ladel__submatrix_8h.html" target="_top" xlink:title="Routines to produce submatrices from a given submatrix. For now, only a selection of columns is suppo...">
<polygon fill="white" stroke="black" points="311,-224.5 311,-243.5 415,-243.5 415,-224.5 311,-224.5"/>
<text text-anchor="middle" x="363" y="-231.5" font-family="Helvetica,sans-Serif" font-size="10.00">ladel_submatrix.h</text>
</a>
</g>
</g>
<!-- Node2&#45;&gt;Node26 -->
<g id="edge47" class="edge">
<title>Node2&#45;&gt;Node26</title>
<path fill="none" stroke="midnightblue" d="M847.71,-286.32C770.82,-278.18 538.23,-253.55 425.53,-241.62"/>
<polygon fill="midnightblue" stroke="midnightblue" points="425.65,-238.11 415.34,-240.54 424.91,-245.08 425.65,-238.11"/>
</g>
<!-- Node3&#45;&gt;Node4 -->
<g id="edge3" class="edge">
<title>Node3&#45;&gt;Node4</title>
<path fill="none" stroke="midnightblue" d="M770.05,-168.12C767.57,-155.56 763.97,-131.92 767,-112 768.37,-103 771.19,-93.33 773.95,-85.26"/>
<polygon fill="midnightblue" stroke="midnightblue" points="777.27,-86.37 777.4,-75.78 770.69,-83.98 777.27,-86.37"/>
</g>
<!-- Node5 -->
<g id="node5" class="node">
<title>Node5</title>
<g id="a_node5"><a xlink:title=" ">
<polygon fill="white" stroke="#bfbfbf" points="716.5,-0.5 716.5,-19.5 769.5,-19.5 769.5,-0.5 716.5,-0.5"/>
<text text-anchor="middle" x="743" y="-7.5" font-family="Helvetica,sans-Serif" font-size="10.00">stdint.h</text>
</a>
</g>
</g>
<!-- Node4&#45;&gt;Node5 -->
<g id="edge4" class="edge">
<title>Node4&#45;&gt;Node5</title>
<path fill="none" stroke="midnightblue" d="M774.73,-56.08C769.36,-48.46 761.48,-37.26 754.92,-27.94"/>
<polygon fill="midnightblue" stroke="midnightblue" points="757.78,-25.91 749.16,-19.75 752.05,-29.94 757.78,-25.91"/>
</g>
<!-- Node6 -->
<g id="node6" class="node">
<title>Node6</title>
<g id="a_node6"><a xlink:title=" ">
<polygon fill="white" stroke="#bfbfbf" points="787.5,-0.5 787.5,-19.5 852.5,-19.5 852.5,-0.5 787.5,-0.5"/>
<text text-anchor="middle" x="820" y="-7.5" font-family="Helvetica,sans-Serif" font-size="10.00">inttypes.h</text>
</a>
</g>
</g>
<!-- Node4&#45;&gt;Node6 -->
<g id="edge5" class="edge">
<title>Node4&#45;&gt;Node6</title>
<path fill="none" stroke="midnightblue" d="M787.44,-56.08C792.95,-48.46 801.03,-37.26 807.76,-27.94"/>
<polygon fill="midnightblue" stroke="midnightblue" points="810.66,-29.91 813.68,-19.75 804.99,-25.81 810.66,-29.91"/>
</g>
<!-- Node8&#45;&gt;Node4 -->
<g id="edge8" class="edge">
<title>Node8&#45;&gt;Node4</title>
<path fill="none" stroke="midnightblue" d="M970.35,-112.44C931.34,-103.08 868.73,-88.06 826.28,-77.87"/>
<polygon fill="midnightblue" stroke="midnightblue" points="827.03,-74.45 816.49,-75.52 825.39,-81.25 827.03,-74.45"/>
</g>
<!-- Node9&#45;&gt;Node4 -->
<g id="edge15" class="edge">
<title>Node9&#45;&gt;Node4</title>
<path fill="none" stroke="midnightblue" d="M1247.64,-224.23C1267.96,-202.54 1314.86,-145.74 1284,-112 1253.92,-79.11 954.33,-70.08 832.31,-67.75"/>
<polygon fill="midnightblue" stroke="midnightblue" points="832.16,-64.25 822.1,-67.57 832.03,-71.25 832.16,-64.25"/>
</g>
<!-- Node9&#45;&gt;Node10 -->
<g id="edge10" class="edge">
<title>Node9&#45;&gt;Node10</title>
<path fill="none" stroke="midnightblue" d="M1212.7,-224.44C1184.65,-215.32 1140.06,-200.81 1108.82,-190.65"/>
<polygon fill="midnightblue" stroke="midnightblue" points="1109.77,-187.28 1099.18,-187.52 1107.61,-193.94 1109.77,-187.28"/>
</g>
<!-- Node10&#45;&gt;Node4 -->
<g id="edge11" class="edge">
<title>Node10&#45;&gt;Node4</title>
<path fill="none" stroke="midnightblue" d="M1073.19,-168.33C1072.98,-154.24 1070.37,-126.5 1054,-112 1021.98,-83.64 902.37,-72.96 832.55,-69.09"/>
<polygon fill="midnightblue" stroke="midnightblue" points="832.38,-65.57 822.21,-68.54 832.01,-72.56 832.38,-65.57"/>
</g>
<!-- Node10&#45;&gt;Node7 -->
<g id="edge12" class="edge">
<title>Node10&#45;&gt;Node7</title>
<path fill="none" stroke="midnightblue" d="M1096.93,-168.44C1122.22,-159.4 1162.3,-145.06 1190.68,-134.92"/>
<polygon fill="midnightblue" stroke="midnightblue" points="1191.95,-138.18 1200.19,-131.52 1189.59,-131.59 1191.95,-138.18"/>
</g>
<!-- Node10&#45;&gt;Node8 -->
<g id="edge13" class="edge">
<title>Node10&#45;&gt;Node8</title>
<path fill="none" stroke="midnightblue" d="M1062.24,-168.32C1052.23,-160.26 1037.11,-148.08 1025.07,-138.37"/>
<polygon fill="midnightblue" stroke="midnightblue" points="1026.94,-135.38 1016.96,-131.83 1022.55,-140.83 1026.94,-135.38"/>
</g>
<!-- Node11 -->
<g id="node11" class="node">
<title>Node11</title>
<g id="a_node11"><a xlink:title=" ">
<polygon fill="white" stroke="#bfbfbf" points="1101.5,-112.5 1101.5,-131.5 1154.5,-131.5 1154.5,-112.5 1101.5,-112.5"/>
<text text-anchor="middle" x="1128" y="-119.5" font-family="Helvetica,sans-Serif" font-size="10.00">stdlib.h</text>
</a>
</g>
</g>
<!-- Node10&#45;&gt;Node11 -->
<g id="edge14" class="edge">
<title>Node10&#45;&gt;Node11</title>
<path fill="none" stroke="midnightblue" d="M1082.08,-168.08C1090.17,-160.14 1102.2,-148.34 1111.91,-138.8"/>
<polygon fill="midnightblue" stroke="midnightblue" points="1114.4,-141.25 1119.09,-131.75 1109.5,-136.26 1114.4,-141.25"/>
</g>
<!-- Node12&#45;&gt;Node4 -->
<g id="edge17" class="edge">
<title>Node12&#45;&gt;Node4</title>
<path fill="none" stroke="midnightblue" d="M392.31,-168.49C413.36,-154.37 458.05,-126.26 500,-112 577.51,-85.66 672.39,-74.56 729.7,-70.02"/>
<polygon fill="midnightblue" stroke="midnightblue" points="730.24,-73.48 739.95,-69.24 729.71,-66.5 730.24,-73.48"/>
</g>
<!-- Node13&#45;&gt;Node4 -->
<g id="edge20" class="edge">
<title>Node13&#45;&gt;Node4</title>
<path fill="none" stroke="midnightblue" d="M494.68,-168.28C496.29,-154.11 501.61,-126.26 519,-112 550.42,-86.23 662.57,-74.62 729.53,-69.89"/>
<polygon fill="midnightblue" stroke="midnightblue" points="730.12,-73.35 739.86,-69.18 729.65,-66.37 730.12,-73.35"/>
</g>
<!-- Node14&#45;&gt;Node4 -->
<g id="edge22" class="edge">
<title>Node14&#45;&gt;Node4</title>
<path fill="none" stroke="midnightblue" d="M616.9,-112.44C650.27,-103.2 703.59,-88.44 740.35,-78.26"/>
<polygon fill="midnightblue" stroke="midnightblue" points="741.54,-81.56 750.25,-75.52 739.67,-74.81 741.54,-81.56"/>
</g>
<!-- Node15&#45;&gt;Node4 -->
<g id="edge25" class="edge">
<title>Node15&#45;&gt;Node4</title>
<path fill="none" stroke="midnightblue" d="M1000.34,-224.23C990.64,-202.04 962.1,-143.25 920,-112 894.33,-92.95 860.25,-81.75 832.26,-75.29"/>
<polygon fill="midnightblue" stroke="midnightblue" points="832.76,-71.82 822.25,-73.12 831.28,-78.66 832.76,-71.82"/>
</g>
<!-- Node15&#45;&gt;Node10 -->
<g id="edge24" class="edge">
<title>Node15&#45;&gt;Node10</title>
<path fill="none" stroke="midnightblue" d="M1015.09,-224.32C1025.49,-216.18 1041.26,-203.84 1053.72,-194.09"/>
<polygon fill="midnightblue" stroke="midnightblue" points="1055.99,-196.75 1061.71,-187.83 1051.68,-191.24 1055.99,-196.75"/>
</g>
<!-- Node16&#45;&gt;Node4 -->
<g id="edge27" class="edge">
<title>Node16&#45;&gt;Node4</title>
<path fill="none" stroke="midnightblue" d="M663.04,-168.37C684.73,-149.73 736.16,-105.53 763.39,-82.13"/>
<polygon fill="midnightblue" stroke="midnightblue" points="765.7,-84.76 771,-75.59 761.14,-79.45 765.7,-84.76"/>
</g>
<!-- Node17&#45;&gt;Node4 -->
<g id="edge29" class="edge">
<title>Node17&#45;&gt;Node4</title>
<path fill="none" stroke="midnightblue" d="M1393.24,-224.29C1382.73,-201.18 1350.63,-138.3 1302,-112 1221.94,-68.71 947.73,-65.63 832.57,-66.32"/>
<polygon fill="midnightblue" stroke="midnightblue" points="832.24,-62.83 822.26,-66.4 832.29,-69.83 832.24,-62.83"/>
</g>
<!-- Node18&#45;&gt;Node4 -->
<g id="edge31" class="edge">
<title>Node18&#45;&gt;Node4</title>
<path fill="none" stroke="midnightblue" d="M1508.28,-224.23C1481.82,-200.99 1405.41,-137.81 1329,-112 1237.81,-81.2 950.23,-71 832.26,-68.06"/>
<polygon fill="midnightblue" stroke="midnightblue" points="832.13,-64.55 822.05,-67.81 831.96,-71.55 832.13,-64.55"/>
</g>
<!-- Node19&#45;&gt;Node4 -->
<g id="edge33" class="edge">
<title>Node19&#45;&gt;Node4</title>
<path fill="none" stroke="midnightblue" d="M847.31,-112.32C835.1,-103.98 816.42,-91.21 802,-81.35"/>
<polygon fill="midnightblue" stroke="midnightblue" points="803.89,-78.41 793.66,-75.65 799.94,-84.19 803.89,-78.41"/>
</g>
<!-- Node20&#45;&gt;Node4 -->
<g id="edge35" class="edge">
<title>Node20&#45;&gt;Node4</title>
<path fill="none" stroke="midnightblue" d="M1633.91,-224.46C1592.52,-201.5 1473.02,-138.42 1365,-112 1264.7,-87.47 956.02,-73.54 832.69,-68.83"/>
<polygon fill="midnightblue" stroke="midnightblue" points="832.51,-65.32 822.39,-68.44 832.25,-72.32 832.51,-65.32"/>
</g>
<!-- Node21&#45;&gt;Node4 -->
<g id="edge37" class="edge">
<title>Node21&#45;&gt;Node4</title>
<path fill="none" stroke="midnightblue" d="M1752.07,-224.35C1698.18,-201.39 1544.52,-138.85 1410,-112 1198.82,-69.85 940.82,-65.91 832.62,-66.34"/>
<polygon fill="midnightblue" stroke="midnightblue" points="832.3,-62.84 822.32,-66.4 832.34,-69.84 832.3,-62.84"/>
</g>
<!-- Node22&#45;&gt;Node4 -->
<g id="edge39" class="edge">
<title>Node22&#45;&gt;Node4</title>
<path fill="none" stroke="midnightblue" d="M51.29,-168.31C71.05,-153.67 113.72,-124.46 155,-112 262.15,-79.66 600.46,-70.25 729.92,-67.79"/>
<polygon fill="midnightblue" stroke="midnightblue" points="730.04,-71.29 739.97,-67.6 729.91,-64.29 730.04,-71.29"/>
</g>
<!-- Node23&#45;&gt;Node4 -->
<g id="edge41" class="edge">
<title>Node23&#45;&gt;Node4</title>
<path fill="none" stroke="midnightblue" d="M284.69,-113.06C287.5,-112.68 290.28,-112.33 293,-112 451.84,-92.78 640.65,-77.51 729.69,-70.77"/>
<polygon fill="midnightblue" stroke="midnightblue" points="730.08,-74.25 739.78,-70 729.55,-67.27 730.08,-74.25"/>
</g>
<!-- Node24&#45;&gt;Node4 -->
<g id="edge44" class="edge">
<title>Node24&#45;&gt;Node4</title>
<path fill="none" stroke="midnightblue" d="M152.67,-168.16C152.67,-153.83 155,-125.75 172,-112 214.88,-77.32 590.39,-69.29 729.48,-67.49"/>
<polygon fill="midnightblue" stroke="midnightblue" points="729.9,-70.99 739.86,-67.37 729.81,-63.99 729.9,-70.99"/>
</g>
<!-- Node25&#45;&gt;Node4 -->
<g id="edge46" class="edge">
<title>Node25&#45;&gt;Node4</title>
<path fill="none" stroke="midnightblue" d="M375.73,-114.25C380.52,-113.45 385.37,-112.67 390,-112 511.41,-94.32 654.86,-79.3 729.7,-71.91"/>
<polygon fill="midnightblue" stroke="midnightblue" points="730.19,-75.38 739.8,-70.92 729.51,-68.41 730.19,-75.38"/>
</g>
<!-- Node26&#45;&gt;Node4 -->
<g id="edge48" class="edge">
<title>Node26&#45;&gt;Node4</title>
<path fill="none" stroke="midnightblue" d="M353,-224.26C339.6,-211.47 318.84,-187.1 331,-168 346.81,-143.18 422.77,-120.3 451,-112 546.96,-83.77 663.93,-73.15 729.68,-69.22"/>
<polygon fill="midnightblue" stroke="midnightblue" points="730,-72.71 739.79,-68.65 729.61,-65.72 730,-72.71"/>
</g>
</g>
</svg>
