<?xml version="1.0" encoding="UTF-8" standalone="no"?>
<!DOCTYPE svg PUBLIC "-//W3C//DTD SVG 1.1//EN"
 "http://www.w3.org/Graphics/SVG/1.1/DTD/svg11.dtd">
<!-- Generated by graphviz version 2.43.0 (0)
 -->
<!-- Title: ladel_permute_symmetric_matrix Pages: 1 -->
<svg width="397pt" height="39pt"
 viewBox="0.00 0.00 397.00 39.00" xmlns="http://www.w3.org/2000/svg" xmlns:xlink="http://www.w3.org/1999/xlink">
<g id="graph0" class="graph" transform="scale(1 1) rotate(0) translate(4 35)">
<title>ladel_permute_symmetric_matrix</title>
<polygon fill="white" stroke="transparent" points="-4,4 -4,-35 393,-35 393,4 -4,4"/>
<!-- Node1 -->
<g id="node1" class="node">
<title>Node1</title>
<g id="a_node1"><a xlink:title="Compute .">
<polygon fill="#bfbfbf" stroke="black" points="0,-0.5 0,-30.5 145,-30.5 145,-0.5 0,-0.5"/>
<text text-anchor="start" x="8" y="-18.5" font-family="Helvetica,sans-Serif" font-size="10.00">ladel_permute_symmetric</text>
<text text-anchor="middle" x="72.5" y="-7.5" font-family="Helvetica,sans-Serif" font-size="10.00">_matrix</text>
</a>
</g>
</g>
<!-- Node2 -->
<g id="node2" class="node">
<title>Node2</title>
<g id="a_node2"><a xlink:href="ladel__copy_8c.html#a97ad68065f3cb0241e4a6427e2e196a7" target="_top" xlink:title="Copies a matrix (preallocated)">
<polygon fill="white" stroke="black" points="181,-6 181,-25 288,-25 288,-6 181,-6"/>
<text text-anchor="middle" x="234.5" y="-13" font-family="Helvetica,sans-Serif" font-size="10.00">ladel_sparse_copy</text>
</a>
</g>
</g>
<!-- Node1&#45;&gt;Node2 -->
<g id="edge1" class="edge">
<title>Node1&#45;&gt;Node2</title>
<path fill="none" stroke="midnightblue" d="M145.08,-15.5C153.59,-15.5 162.24,-15.5 170.63,-15.5"/>
<polygon fill="midnightblue" stroke="midnightblue" points="170.69,-19 180.69,-15.5 170.69,-12 170.69,-19"/>
</g>
<!-- Node3 -->
<g id="node3" class="node">
<title>Node3</title>
<g id="a_node3"><a xlink:href="ladel__global_8c.html#a946ae8034525eb6db42d4a166be57968" target="_top" xlink:title="Version of free (for mex or for regular C).">
<polygon fill="white" stroke="black" points="324,-6 324,-25 389,-25 389,-6 324,-6"/>
<text text-anchor="middle" x="356.5" y="-13" font-family="Helvetica,sans-Serif" font-size="10.00">ladel_free</text>
</a>
</g>
</g>
<!-- Node2&#45;&gt;Node3 -->
<g id="edge2" class="edge">
<title>Node2&#45;&gt;Node3</title>
<path fill="none" stroke="midnightblue" d="M288.13,-15.5C296.72,-15.5 305.52,-15.5 313.8,-15.5"/>
<polygon fill="midnightblue" stroke="midnightblue" points="313.96,-19 323.96,-15.5 313.96,-12 313.96,-19"/>
</g>
</g>
</svg>
