<?xml version="1.0" encoding="UTF-8" standalone="no"?>
<!DOCTYPE svg PUBLIC "-//W3C//DTD SVG 1.1//EN"
 "http://www.w3.org/Graphics/SVG/1.1/DTD/svg11.dtd">
<!-- Generated by graphviz version 2.43.0 (0)
 -->
<!-- Title: LADEL/include/ladel_etree.h Pages: 1 -->
<svg width="337pt" height="173pt"
 viewBox="0.00 0.00 336.50 173.00" xmlns="http://www.w3.org/2000/svg" xmlns:xlink="http://www.w3.org/1999/xlink">
<g id="graph0" class="graph" transform="scale(1 1) rotate(0) translate(4 169)">
<title>LADEL/include/ladel_etree.h</title>
<polygon fill="white" stroke="transparent" points="-4,4 -4,-169 332.5,-169 332.5,4 -4,4"/>
<!-- Node1 -->
<g id="node1" class="node">
<title>Node1</title>
<g id="a_node1"><a xlink:title="Routines to compute the elimination tree of a matrix.">
<polygon fill="#bfbfbf" stroke="black" points="83,-134.5 83,-164.5 196,-164.5 196,-134.5 83,-134.5"/>
<text text-anchor="start" x="91" y="-152.5" font-family="Helvetica,sans-Serif" font-size="10.00">LADEL/include/ladel</text>
<text text-anchor="middle" x="139.5" y="-141.5" font-family="Helvetica,sans-Serif" font-size="10.00">_etree.h</text>
</a>
</g>
</g>
<!-- Node2 -->
<g id="node2" class="node">
<title>Node2</title>
<g id="a_node2"><a xlink:href="ladel_8h.html" target="_top" xlink:title="LADEL main include file.">
<polygon fill="white" stroke="black" points="78.5,-73 78.5,-92 200.5,-92 200.5,-73 78.5,-73"/>
<text text-anchor="middle" x="139.5" y="-80" font-family="Helvetica,sans-Serif" font-size="10.00">LADEL/include/ladel.h</text>
</a>
</g>
</g>
<!-- Node1&#45;&gt;Node2 -->
<g id="edge1" class="edge">
<title>Node1&#45;&gt;Node2</title>
<path fill="none" stroke="midnightblue" d="M139.5,-124.25C139.5,-113.02 139.5,-100.38 139.5,-92.19"/>
<polygon fill="midnightblue" stroke="midnightblue" points="136,-124.4 139.5,-134.4 143,-124.4 136,-124.4"/>
</g>
<!-- Node3 -->
<g id="node3" class="node">
<title>Node3</title>
<g id="a_node3"><a xlink:href="ladel_8c.html" target="_top" xlink:title=" ">
<polygon fill="white" stroke="black" points="0,-6 0,-25 101,-25 101,-6 0,-6"/>
<text text-anchor="middle" x="50.5" y="-13" font-family="Helvetica,sans-Serif" font-size="10.00">LADEL/src/ladel.c</text>
</a>
</g>
</g>
<!-- Node1&#45;&gt;Node3 -->
<g id="edge4" class="edge">
<title>Node1&#45;&gt;Node3</title>
<path fill="none" stroke="midnightblue" d="M102.37,-128.94C90.25,-120.86 77.79,-110.45 69.5,-98 54.12,-74.9 51.11,-40.9 50.58,-25.13"/>
<polygon fill="midnightblue" stroke="midnightblue" points="100.74,-132.05 111.07,-134.4 104.47,-126.12 100.74,-132.05"/>
</g>
<!-- Node5 -->
<g id="node5" class="node">
<title>Node5</title>
<g id="a_node5"><a xlink:href="ladel__ldl__symbolic_8c.html" target="_top" xlink:title=" ">
<polygon fill="white" stroke="black" points="218.5,-67.5 218.5,-97.5 328.5,-97.5 328.5,-67.5 218.5,-67.5"/>
<text text-anchor="start" x="226.5" y="-85.5" font-family="Helvetica,sans-Serif" font-size="10.00">LADEL/src/ladel_ldl</text>
<text text-anchor="middle" x="273.5" y="-74.5" font-family="Helvetica,sans-Serif" font-size="10.00">_symbolic.c</text>
</a>
</g>
</g>
<!-- Node1&#45;&gt;Node5 -->
<g id="edge5" class="edge">
<title>Node1&#45;&gt;Node5</title>
<path fill="none" stroke="midnightblue" d="M177.65,-129.99C198.89,-119.69 224.91,-107.07 244.48,-97.58"/>
<polygon fill="midnightblue" stroke="midnightblue" points="176.05,-126.88 168.58,-134.4 179.1,-133.18 176.05,-126.88"/>
</g>
<!-- Node2&#45;&gt;Node3 -->
<g id="edge2" class="edge">
<title>Node2&#45;&gt;Node3</title>
<path fill="none" stroke="midnightblue" d="M119.05,-66.57C101.49,-53.74 76.77,-35.69 62.31,-25.13"/>
<polygon fill="midnightblue" stroke="midnightblue" points="117.36,-69.66 127.5,-72.73 121.49,-64.01 117.36,-69.66"/>
</g>
<!-- Node4 -->
<g id="node4" class="node">
<title>Node4</title>
<g id="a_node4"><a xlink:href="ladel__row__mod_8c.html" target="_top" xlink:title=" ">
<polygon fill="white" stroke="black" points="119.5,-0.5 119.5,-30.5 235.5,-30.5 235.5,-0.5 119.5,-0.5"/>
<text text-anchor="start" x="127.5" y="-18.5" font-family="Helvetica,sans-Serif" font-size="10.00">LADEL/src/ladel_row</text>
<text text-anchor="middle" x="177.5" y="-7.5" font-family="Helvetica,sans-Serif" font-size="10.00">_mod.c</text>
</a>
</g>
</g>
<!-- Node2&#45;&gt;Node4 -->
<g id="edge3" class="edge">
<title>Node2&#45;&gt;Node4</title>
<path fill="none" stroke="midnightblue" d="M149.71,-64.03C155.84,-53.56 163.53,-40.4 169.26,-30.59"/>
<polygon fill="midnightblue" stroke="midnightblue" points="146.65,-62.33 144.62,-72.73 152.69,-65.87 146.65,-62.33"/>
</g>
</g>
</svg>
