<?xml version="1.0" encoding="UTF-8" standalone="no"?>
<!DOCTYPE svg PUBLIC "-//W3C//DTD SVG 1.1//EN"
 "http://www.w3.org/Graphics/SVG/1.1/DTD/svg11.dtd">
<!-- Generated by graphviz version 2.43.0 (0)
 -->
<!-- Title: LADEL/include/ladel_copy.h Pages: 1 -->
<svg width="2297pt" height="307pt"
 viewBox="0.00 0.00 2296.52 307.00" xmlns="http://www.w3.org/2000/svg" xmlns:xlink="http://www.w3.org/1999/xlink">
<g id="graph0" class="graph" transform="scale(1 1) rotate(0) translate(4 303)">
<title>LADEL/include/ladel_copy.h</title>
<polygon fill="white" stroke="transparent" points="-4,4 -4,-303 2292.52,-303 2292.52,4 -4,4"/>
<!-- Node1 -->
<g id="node1" class="node">
<title>Node1</title>
<g id="a_node1"><a xlink:title="Routines to copy matrices and vectors.">
<polygon fill="#bfbfbf" stroke="black" points="1976.46,-268.5 1976.46,-298.5 2089.46,-298.5 2089.46,-268.5 1976.46,-268.5"/>
<text text-anchor="start" x="1984.46" y="-286.5" font-family="Helvetica,sans-Serif" font-size="10.00">LADEL/include/ladel</text>
<text text-anchor="middle" x="2032.96" y="-275.5" font-family="Helvetica,sans-Serif" font-size="10.00">_copy.h</text>
</a>
</g>
</g>
<!-- Node2 -->
<g id="node2" class="node">
<title>Node2</title>
<g id="a_node2"><a xlink:href="ladel_8h.html" target="_top" xlink:title="LADEL main include file.">
<polygon fill="white" stroke="black" points="1625.96,-73 1625.96,-92 1747.96,-92 1747.96,-73 1625.96,-73"/>
<text text-anchor="middle" x="1686.96" y="-80" font-family="Helvetica,sans-Serif" font-size="10.00">LADEL/include/ladel.h</text>
</a>
</g>
</g>
<!-- Node1&#45;&gt;Node2 -->
<g id="edge1" class="edge">
<title>Node1&#45;&gt;Node2</title>
<path fill="none" stroke="midnightblue" d="M2099.66,-268.2C2190.25,-245.95 2334.38,-198.78 2273.96,-134 2234.68,-91.89 1814,-105.86 1756.96,-98 1746.02,-96.49 1734.22,-94.28 1723.49,-92.04"/>
<polygon fill="midnightblue" stroke="midnightblue" points="2098.61,-264.85 2089.71,-270.6 2100.25,-271.66 2098.61,-264.85"/>
</g>
<!-- Node5 -->
<g id="node5" class="node">
<title>Node5</title>
<g id="a_node5"><a xlink:href="ladel__global_8h.html" target="_top" xlink:title="Memory allocation routines.">
<polygon fill="white" stroke="black" points="1285.46,-201.5 1285.46,-231.5 1398.46,-231.5 1398.46,-201.5 1285.46,-201.5"/>
<text text-anchor="start" x="1293.46" y="-219.5" font-family="Helvetica,sans-Serif" font-size="10.00">LADEL/include/ladel</text>
<text text-anchor="middle" x="1341.96" y="-208.5" font-family="Helvetica,sans-Serif" font-size="10.00">_global.h</text>
</a>
</g>
</g>
<!-- Node1&#45;&gt;Node5 -->
<g id="edge4" class="edge">
<title>Node1&#45;&gt;Node5</title>
<path fill="none" stroke="midnightblue" d="M1966.17,-276.22C1830.66,-263.47 1525.52,-234.77 1398.8,-222.85"/>
<polygon fill="midnightblue" stroke="midnightblue" points="1966.13,-279.73 1976.41,-277.18 1966.78,-272.76 1966.13,-279.73"/>
</g>
<!-- Node17 -->
<g id="node17" class="node">
<title>Node17</title>
<g id="a_node17"><a xlink:href="ladel__copy_8c.html" target="_top" xlink:title=" ">
<polygon fill="white" stroke="black" points="1818.96,-140 1818.96,-159 1946.96,-159 1946.96,-140 1818.96,-140"/>
<text text-anchor="middle" x="1882.96" y="-147" font-family="Helvetica,sans-Serif" font-size="10.00">LADEL/src/ladel_copy.c</text>
</a>
</g>
</g>
<!-- Node1&#45;&gt;Node17 -->
<g id="edge40" class="edge">
<title>Node1&#45;&gt;Node17</title>
<path fill="none" stroke="midnightblue" d="M2008.98,-261.39C1975.44,-231.88 1916.03,-179.61 1892.73,-159.1"/>
<polygon fill="midnightblue" stroke="midnightblue" points="2007.09,-264.39 2016.91,-268.37 2011.71,-259.14 2007.09,-264.39"/>
</g>
<!-- Node18 -->
<g id="node18" class="node">
<title>Node18</title>
<g id="a_node18"><a xlink:href="ladel__global_8c.html" target="_top" xlink:title=" ">
<polygon fill="white" stroke="black" points="1964.96,-140 1964.96,-159 2100.96,-159 2100.96,-140 1964.96,-140"/>
<text text-anchor="middle" x="2032.96" y="-147" font-family="Helvetica,sans-Serif" font-size="10.00">LADEL/src/ladel_global.c</text>
</a>
</g>
</g>
<!-- Node1&#45;&gt;Node18 -->
<g id="edge41" class="edge">
<title>Node1&#45;&gt;Node18</title>
<path fill="none" stroke="midnightblue" d="M2032.96,-258.32C2032.96,-228.38 2032.96,-178.91 2032.96,-159.1"/>
<polygon fill="midnightblue" stroke="midnightblue" points="2029.46,-258.37 2032.96,-268.37 2036.46,-258.37 2029.46,-258.37"/>
</g>
<!-- Node19 -->
<g id="node19" class="node">
<title>Node19</title>
<g id="a_node19"><a xlink:href="ladel__matmat_8c.html" target="_top" xlink:title=" ">
<polygon fill="white" stroke="black" points="2119.46,-140 2119.46,-159 2264.46,-159 2264.46,-140 2119.46,-140"/>
<text text-anchor="middle" x="2191.96" y="-147" font-family="Helvetica,sans-Serif" font-size="10.00">LADEL/src/ladel_matmat.c</text>
</a>
</g>
</g>
<!-- Node1&#45;&gt;Node19 -->
<g id="edge42" class="edge">
<title>Node1&#45;&gt;Node19</title>
<path fill="none" stroke="midnightblue" d="M2057.93,-261.77C2093.39,-232.33 2156.79,-179.69 2181.6,-159.1"/>
<polygon fill="midnightblue" stroke="midnightblue" points="2055.43,-259.29 2049.97,-268.37 2059.9,-264.68 2055.43,-259.29"/>
</g>
<!-- Node3 -->
<g id="node3" class="node">
<title>Node3</title>
<g id="a_node3"><a xlink:href="ladel_8c.html" target="_top" xlink:title=" ">
<polygon fill="white" stroke="black" points="1636.46,-6 1636.46,-25 1737.46,-25 1737.46,-6 1636.46,-6"/>
<text text-anchor="middle" x="1686.96" y="-13" font-family="Helvetica,sans-Serif" font-size="10.00">LADEL/src/ladel.c</text>
</a>
</g>
</g>
<!-- Node2&#45;&gt;Node3 -->
<g id="edge2" class="edge">
<title>Node2&#45;&gt;Node3</title>
<path fill="none" stroke="midnightblue" d="M1686.96,-62.54C1686.96,-50.17 1686.96,-34.62 1686.96,-25.13"/>
<polygon fill="midnightblue" stroke="midnightblue" points="1683.46,-62.73 1686.96,-72.73 1690.46,-62.73 1683.46,-62.73"/>
</g>
<!-- Node4 -->
<g id="node4" class="node">
<title>Node4</title>
<g id="a_node4"><a xlink:href="ladel__row__mod_8c.html" target="_top" xlink:title=" ">
<polygon fill="white" stroke="black" points="1101.96,-0.5 1101.96,-30.5 1217.96,-30.5 1217.96,-0.5 1101.96,-0.5"/>
<text text-anchor="start" x="1109.96" y="-18.5" font-family="Helvetica,sans-Serif" font-size="10.00">LADEL/src/ladel_row</text>
<text text-anchor="middle" x="1159.96" y="-7.5" font-family="Helvetica,sans-Serif" font-size="10.00">_mod.c</text>
</a>
</g>
</g>
<!-- Node2&#45;&gt;Node4 -->
<g id="edge3" class="edge">
<title>Node2&#45;&gt;Node4</title>
<path fill="none" stroke="midnightblue" d="M1638.35,-70.96C1630.87,-69.52 1623.22,-68.14 1615.96,-67 1473.74,-44.65 1305.03,-28.69 1218.13,-21.23"/>
<polygon fill="midnightblue" stroke="midnightblue" points="1637.89,-74.44 1648.38,-72.96 1639.26,-67.57 1637.89,-74.44"/>
</g>
<!-- Node5&#45;&gt;Node2 -->
<g id="edge5" class="edge">
<title>Node5&#45;&gt;Node2</title>
<path fill="none" stroke="midnightblue" d="M1406.33,-198.79C1438.44,-189.84 1477.65,-178 1511.96,-165 1571.82,-142.31 1639.77,-108.11 1670.42,-92.21"/>
<polygon fill="midnightblue" stroke="midnightblue" points="1405.32,-195.44 1396.61,-201.47 1407.18,-202.18 1405.32,-195.44"/>
</g>
<!-- Node5&#45;&gt;Node3 -->
<g id="edge20" class="edge">
<title>Node5&#45;&gt;Node3</title>
<path fill="none" stroke="midnightblue" d="M1408.9,-211.64C1511.71,-205.03 1703.28,-189.8 1766.96,-165 1788.91,-156.45 1788.99,-144.74 1809.96,-134 1855,-110.94 1888.37,-139.05 1917.96,-98 1964.58,-33.31 1818.99,-19.66 1737.74,-16.99"/>
<polygon fill="midnightblue" stroke="midnightblue" points="1408.39,-208.17 1398.63,-212.29 1408.83,-215.16 1408.39,-208.17"/>
</g>
<!-- Node5&#45;&gt;Node4 -->
<g id="edge35" class="edge">
<title>Node5&#45;&gt;Node4</title>
<path fill="none" stroke="midnightblue" d="M1275.32,-215.44C1015.95,-214.88 86.02,-209.77 42.96,-165 -20.3,-99.24 -61.84,-124.26 292.96,-67 594.57,-18.32 961.88,-15.06 1101.94,-15.82"/>
<polygon fill="midnightblue" stroke="midnightblue" points="1275.35,-218.94 1285.35,-215.46 1275.36,-211.94 1275.35,-218.94"/>
</g>
<!-- Node6 -->
<g id="node6" class="node">
<title>Node6</title>
<g id="a_node6"><a xlink:href="ladel__debug__print_8h.html" target="_top" xlink:title="Routines to print out matrices and vectors.">
<polygon fill="white" stroke="black" points="1327.46,-134.5 1327.46,-164.5 1440.46,-164.5 1440.46,-134.5 1327.46,-134.5"/>
<text text-anchor="start" x="1335.46" y="-152.5" font-family="Helvetica,sans-Serif" font-size="10.00">LADEL/include/ladel</text>
<text text-anchor="middle" x="1383.96" y="-141.5" font-family="Helvetica,sans-Serif" font-size="10.00">_debug_print.h</text>
</a>
</g>
</g>
<!-- Node5&#45;&gt;Node6 -->
<g id="edge6" class="edge">
<title>Node5&#45;&gt;Node6</title>
<path fill="none" stroke="midnightblue" d="M1356.58,-192.87C1362.66,-183.46 1369.53,-172.83 1374.86,-164.58"/>
<polygon fill="midnightblue" stroke="midnightblue" points="1353.56,-191.1 1351.07,-201.4 1359.44,-194.9 1353.56,-191.1"/>
</g>
<!-- Node7 -->
<g id="node7" class="node">
<title>Node7</title>
<g id="a_node7"><a xlink:href="ladel__col__counts_8c.html" target="_top" xlink:title=" ">
<polygon fill="white" stroke="black" points="723.96,-67.5 723.96,-97.5 835.96,-97.5 835.96,-67.5 723.96,-67.5"/>
<text text-anchor="start" x="731.96" y="-85.5" font-family="Helvetica,sans-Serif" font-size="10.00">LADEL/src/ladel_col</text>
<text text-anchor="middle" x="779.96" y="-74.5" font-family="Helvetica,sans-Serif" font-size="10.00">_counts.c</text>
</a>
</g>
</g>
<!-- Node5&#45;&gt;Node7 -->
<g id="edge22" class="edge">
<title>Node5&#45;&gt;Node7</title>
<path fill="none" stroke="midnightblue" d="M1296.55,-197.32C1277.42,-188.75 1255.37,-177.63 1236.96,-165 1220.36,-153.62 1222.27,-142.33 1203.96,-134 1058,-67.58 1003.27,-123.5 844.96,-98 842.11,-97.54 839.19,-97.03 836.25,-96.49"/>
<polygon fill="midnightblue" stroke="midnightblue" points="1295.4,-200.64 1305.96,-201.44 1298.2,-194.23 1295.4,-200.64"/>
</g>
<!-- Node8 -->
<g id="node8" class="node">
<title>Node8</title>
<g id="a_node8"><a xlink:href="ladel__debug__print_8c.html" target="_top" xlink:title=" ">
<polygon fill="white" stroke="black" points="853.96,-67.5 853.96,-97.5 981.96,-97.5 981.96,-67.5 853.96,-67.5"/>
<text text-anchor="start" x="861.96" y="-85.5" font-family="Helvetica,sans-Serif" font-size="10.00">LADEL/src/ladel_debug</text>
<text text-anchor="middle" x="917.96" y="-74.5" font-family="Helvetica,sans-Serif" font-size="10.00">_print.c</text>
</a>
</g>
</g>
<!-- Node5&#45;&gt;Node8 -->
<g id="edge24" class="edge">
<title>Node5&#45;&gt;Node8</title>
<path fill="none" stroke="midnightblue" d="M1314.7,-195.33C1302.47,-186.18 1287.9,-175.15 1274.96,-165 1257.81,-151.55 1256.91,-142.78 1236.96,-134 1135.83,-89.47 1099.85,-116.77 990.96,-98 988.03,-97.5 985.04,-96.96 982.02,-96.42"/>
<polygon fill="midnightblue" stroke="midnightblue" points="1312.64,-198.16 1322.75,-201.33 1316.82,-192.54 1312.64,-198.16"/>
</g>
<!-- Node9 -->
<g id="node9" class="node">
<title>Node9</title>
<g id="a_node9"><a xlink:href="ladel__etree_8c.html" target="_top" xlink:title=" ">
<polygon fill="white" stroke="black" points="1000.46,-73 1000.46,-92 1131.46,-92 1131.46,-73 1000.46,-73"/>
<text text-anchor="middle" x="1065.96" y="-80" font-family="Helvetica,sans-Serif" font-size="10.00">LADEL/src/ladel_etree.c</text>
</a>
</g>
</g>
<!-- Node5&#45;&gt;Node9 -->
<g id="edge25" class="edge">
<title>Node5&#45;&gt;Node9</title>
<path fill="none" stroke="midnightblue" d="M1328.92,-192.55C1317.17,-173.97 1298.19,-148.56 1274.96,-134 1249.02,-117.74 1170.54,-101.59 1117.49,-92.08"/>
<polygon fill="midnightblue" stroke="midnightblue" points="1326.05,-194.57 1334.24,-201.3 1332.03,-190.94 1326.05,-194.57"/>
</g>
<!-- Node10 -->
<g id="node10" class="node">
<title>Node10</title>
<g id="a_node10"><a xlink:href="ladel__ldl__numeric_8c.html" target="_top" xlink:title=" ">
<polygon fill="white" stroke="black" points="1225.96,-67.5 1225.96,-97.5 1335.96,-97.5 1335.96,-67.5 1225.96,-67.5"/>
<text text-anchor="start" x="1233.96" y="-85.5" font-family="Helvetica,sans-Serif" font-size="10.00">LADEL/src/ladel_ldl</text>
<text text-anchor="middle" x="1280.96" y="-74.5" font-family="Helvetica,sans-Serif" font-size="10.00">_numeric.c</text>
</a>
</g>
</g>
<!-- Node5&#45;&gt;Node10 -->
<g id="edge27" class="edge">
<title>Node5&#45;&gt;Node10</title>
<path fill="none" stroke="midnightblue" d="M1408.04,-198.14C1424.14,-190.64 1439.44,-180.01 1448.96,-165 1456.33,-153.36 1457.18,-145.06 1448.96,-134 1441.96,-124.59 1382.59,-108.23 1336.38,-96.68"/>
<polygon fill="midnightblue" stroke="midnightblue" points="1406.34,-195.06 1398.51,-202.21 1409.09,-201.5 1406.34,-195.06"/>
</g>
<!-- Node11 -->
<g id="node11" class="node">
<title>Node11</title>
<g id="a_node11"><a xlink:href="ladel__ldl__symbolic_8c.html" target="_top" xlink:title=" ">
<polygon fill="white" stroke="black" points="1353.96,-67.5 1353.96,-97.5 1463.96,-97.5 1463.96,-67.5 1353.96,-67.5"/>
<text text-anchor="start" x="1361.96" y="-85.5" font-family="Helvetica,sans-Serif" font-size="10.00">LADEL/src/ladel_ldl</text>
<text text-anchor="middle" x="1408.96" y="-74.5" font-family="Helvetica,sans-Serif" font-size="10.00">_symbolic.c</text>
</a>
</g>
</g>
<!-- Node5&#45;&gt;Node11 -->
<g id="edge28" class="edge">
<title>Node5&#45;&gt;Node11</title>
<path fill="none" stroke="midnightblue" d="M1408.28,-204C1430.39,-196.67 1452.74,-184.66 1465.96,-165 1482.05,-141.07 1452.89,-113.68 1430.67,-97.53"/>
<polygon fill="midnightblue" stroke="midnightblue" points="1407.06,-200.71 1398.51,-206.96 1409.09,-207.41 1407.06,-200.71"/>
</g>
<!-- Node12 -->
<g id="node12" class="node">
<title>Node12</title>
<g id="a_node12"><a xlink:href="ladel__rank1__mod_8c.html" target="_top" xlink:title=" ">
<polygon fill="white" stroke="black" points="1482.46,-67.5 1482.46,-97.5 1607.46,-97.5 1607.46,-67.5 1482.46,-67.5"/>
<text text-anchor="start" x="1490.46" y="-85.5" font-family="Helvetica,sans-Serif" font-size="10.00">LADEL/src/ladel_rank1</text>
<text text-anchor="middle" x="1544.96" y="-74.5" font-family="Helvetica,sans-Serif" font-size="10.00">_mod.c</text>
</a>
</g>
</g>
<!-- Node5&#45;&gt;Node12 -->
<g id="edge34" class="edge">
<title>Node5&#45;&gt;Node12</title>
<path fill="none" stroke="midnightblue" d="M1408.54,-200.27C1433.46,-192.44 1461.01,-181.07 1482.96,-165 1507.91,-146.72 1527.59,-115.64 1537.63,-97.6"/>
<polygon fill="midnightblue" stroke="midnightblue" points="1407.35,-196.97 1398.78,-203.2 1409.36,-203.68 1407.35,-196.97"/>
</g>
<!-- Node13 -->
<g id="node13" class="node">
<title>Node13</title>
<g id="a_node13"><a xlink:href="ladel__upper__diag_8c.html" target="_top" xlink:title=" ">
<polygon fill="white" stroke="black" points="302.46,-67.5 302.46,-97.5 427.46,-97.5 427.46,-67.5 302.46,-67.5"/>
<text text-anchor="start" x="310.46" y="-85.5" font-family="Helvetica,sans-Serif" font-size="10.00">LADEL/src/ladel_upper</text>
<text text-anchor="middle" x="364.96" y="-74.5" font-family="Helvetica,sans-Serif" font-size="10.00">_diag.c</text>
</a>
</g>
</g>
<!-- Node5&#45;&gt;Node13 -->
<g id="edge39" class="edge">
<title>Node5&#45;&gt;Node13</title>
<path fill="none" stroke="midnightblue" d="M1275.02,-215.42C1016.52,-214.78 95.64,-209.38 52.96,-165 43.41,-155.07 44.03,-144.49 52.96,-134 84.3,-97.18 220.37,-87.12 302.11,-84.43"/>
<polygon fill="midnightblue" stroke="midnightblue" points="1275.37,-218.92 1285.38,-215.44 1275.39,-211.92 1275.37,-218.92"/>
</g>
<!-- Node14 -->
<g id="node14" class="node">
<title>Node14</title>
<g id="a_node14"><a xlink:href="ladel__matvec_8h.html" target="_top" xlink:title="Routines to compute matrix vector products.">
<polygon fill="white" stroke="black" points="1611.46,-134.5 1611.46,-164.5 1724.46,-164.5 1724.46,-134.5 1611.46,-134.5"/>
<text text-anchor="start" x="1619.46" y="-152.5" font-family="Helvetica,sans-Serif" font-size="10.00">LADEL/include/ladel</text>
<text text-anchor="middle" x="1667.96" y="-141.5" font-family="Helvetica,sans-Serif" font-size="10.00">_matvec.h</text>
</a>
</g>
</g>
<!-- Node5&#45;&gt;Node14 -->
<g id="edge17" class="edge">
<title>Node5&#45;&gt;Node14</title>
<path fill="none" stroke="midnightblue" d="M1408.69,-202.4C1460.15,-192.27 1533.08,-177.85 1596.96,-165 1601.65,-164.06 1606.51,-163.08 1611.38,-162.09"/>
<polygon fill="midnightblue" stroke="midnightblue" points="1407.83,-199 1398.69,-204.36 1409.18,-205.87 1407.83,-199"/>
</g>
<!-- Node15 -->
<g id="node15" class="node">
<title>Node15</title>
<g id="a_node15"><a xlink:href="ladel__matvec_8c.html" target="_top" xlink:title=" ">
<polygon fill="white" stroke="black" points="1766.46,-73 1766.46,-92 1909.46,-92 1909.46,-73 1766.46,-73"/>
<text text-anchor="middle" x="1837.96" y="-80" font-family="Helvetica,sans-Serif" font-size="10.00">LADEL/src/ladel_matvec.c</text>
</a>
</g>
</g>
<!-- Node5&#45;&gt;Node15 -->
<g id="edge30" class="edge">
<title>Node5&#45;&gt;Node15</title>
<path fill="none" stroke="midnightblue" d="M1408.78,-211.12C1504.62,-204.13 1675.87,-188.75 1732.96,-165 1743.72,-160.52 1802.87,-112.37 1827.35,-92.25"/>
<polygon fill="midnightblue" stroke="midnightblue" points="1408.33,-207.65 1398.61,-211.86 1408.84,-214.63 1408.33,-207.65"/>
</g>
<!-- Node16 -->
<g id="node16" class="node">
<title>Node16</title>
<g id="a_node16"><a xlink:href="ladel__add_8c.html" target="_top" xlink:title=" ">
<polygon fill="white" stroke="black" points="61.96,-140 61.96,-159 185.96,-159 185.96,-140 61.96,-140"/>
<text text-anchor="middle" x="123.96" y="-147" font-family="Helvetica,sans-Serif" font-size="10.00">LADEL/src/ladel_add.c</text>
</a>
</g>
</g>
<!-- Node5&#45;&gt;Node16 -->
<g id="edge21" class="edge">
<title>Node5&#45;&gt;Node16</title>
<path fill="none" stroke="midnightblue" d="M1275.11,-216.22C1098.13,-217.34 603.01,-215.33 194.96,-165 183.6,-163.6 171.34,-161.36 160.26,-159.06"/>
<polygon fill="midnightblue" stroke="midnightblue" points="1275.33,-219.72 1285.3,-216.15 1275.28,-212.72 1275.33,-219.72"/>
</g>
<!-- Node5&#45;&gt;Node17 -->
<g id="edge23" class="edge">
<title>Node5&#45;&gt;Node17</title>
<path fill="none" stroke="midnightblue" d="M1408.89,-209.79C1499.09,-201.73 1664.58,-185.67 1804.96,-165 1816.41,-163.31 1828.74,-161.17 1840.14,-159.06"/>
<polygon fill="midnightblue" stroke="midnightblue" points="1408.45,-206.32 1398.8,-210.69 1409.07,-213.29 1408.45,-206.32"/>
</g>
<!-- Node5&#45;&gt;Node18 -->
<g id="edge26" class="edge">
<title>Node5&#45;&gt;Node18</title>
<path fill="none" stroke="midnightblue" d="M1408.69,-212.29C1521.7,-206.35 1757.83,-191.73 1955.96,-165 1967.69,-163.42 1980.34,-161.24 1991.93,-159.05"/>
<polygon fill="midnightblue" stroke="midnightblue" points="1408.27,-208.81 1398.47,-212.82 1408.63,-215.8 1408.27,-208.81"/>
</g>
<!-- Node5&#45;&gt;Node19 -->
<g id="edge29" class="edge">
<title>Node5&#45;&gt;Node19</title>
<path fill="none" stroke="midnightblue" d="M1408.59,-213.57C1542.1,-209.17 1851.71,-196.23 2109.96,-165 2122.59,-163.47 2136.23,-161.28 2148.68,-159.06"/>
<polygon fill="midnightblue" stroke="midnightblue" points="1408.4,-210.08 1398.52,-213.9 1408.63,-217.07 1408.4,-210.08"/>
</g>
<!-- Node20 -->
<g id="node20" class="node">
<title>Node20</title>
<g id="a_node20"><a xlink:href="ladel__pattern_8c.html" target="_top" xlink:title=" ">
<polygon fill="white" stroke="black" points="204.46,-140 204.46,-159 345.46,-159 345.46,-140 204.46,-140"/>
<text text-anchor="middle" x="274.96" y="-147" font-family="Helvetica,sans-Serif" font-size="10.00">LADEL/src/ladel_pattern.c</text>
</a>
</g>
</g>
<!-- Node5&#45;&gt;Node20 -->
<g id="edge31" class="edge">
<title>Node5&#45;&gt;Node20</title>
<path fill="none" stroke="midnightblue" d="M1275.14,-215.03C1115.5,-213.27 699.57,-204.88 354.96,-165 342.34,-163.54 328.71,-161.31 316.33,-159.04"/>
<polygon fill="midnightblue" stroke="midnightblue" points="1275.24,-218.53 1285.28,-215.14 1275.31,-211.53 1275.24,-218.53"/>
</g>
<!-- Node21 -->
<g id="node21" class="node">
<title>Node21</title>
<g id="a_node21"><a xlink:href="ladel__permutation_8c.html" target="_top" xlink:title=" ">
<polygon fill="white" stroke="black" points="363.96,-140 363.96,-159 529.96,-159 529.96,-140 363.96,-140"/>
<text text-anchor="middle" x="446.96" y="-147" font-family="Helvetica,sans-Serif" font-size="10.00">LADEL/src/ladel_permutation.c</text>
</a>
</g>
</g>
<!-- Node5&#45;&gt;Node21 -->
<g id="edge32" class="edge">
<title>Node5&#45;&gt;Node21</title>
<path fill="none" stroke="midnightblue" d="M1274.93,-213.4C1136.88,-208.62 810.96,-194.92 538.96,-165 524.82,-163.44 509.52,-161.24 495.55,-159.03"/>
<polygon fill="midnightblue" stroke="midnightblue" points="1275.22,-216.92 1285.34,-213.76 1275.46,-209.92 1275.22,-216.92"/>
</g>
<!-- Node22 -->
<g id="node22" class="node">
<title>Node22</title>
<g id="a_node22"><a xlink:href="ladel__postorder_8c.html" target="_top" xlink:title=" ">
<polygon fill="white" stroke="black" points="547.96,-140 547.96,-159 699.96,-159 699.96,-140 547.96,-140"/>
<text text-anchor="middle" x="623.96" y="-147" font-family="Helvetica,sans-Serif" font-size="10.00">LADEL/src/ladel_postorder.c</text>
</a>
</g>
</g>
<!-- Node5&#45;&gt;Node22 -->
<g id="edge33" class="edge">
<title>Node5&#45;&gt;Node22</title>
<path fill="none" stroke="midnightblue" d="M1274.92,-212.13C1159.16,-205.86 914.44,-190.67 708.96,-165 696.04,-163.39 682.08,-161.19 669.28,-159"/>
<polygon fill="midnightblue" stroke="midnightblue" points="1274.87,-215.63 1285.04,-212.67 1275.25,-208.64 1274.87,-215.63"/>
</g>
<!-- Node23 -->
<g id="node23" class="node">
<title>Node23</title>
<g id="a_node23"><a xlink:href="ladel__scale_8c.html" target="_top" xlink:title=" ">
<polygon fill="white" stroke="black" points="718.46,-140 718.46,-159 849.46,-159 849.46,-140 718.46,-140"/>
<text text-anchor="middle" x="783.96" y="-147" font-family="Helvetica,sans-Serif" font-size="10.00">LADEL/src/ladel_scale.c</text>
</a>
</g>
</g>
<!-- Node5&#45;&gt;Node23 -->
<g id="edge36" class="edge">
<title>Node5&#45;&gt;Node23</title>
<path fill="none" stroke="midnightblue" d="M1274.94,-210.42C1181.3,-202.88 1006.14,-187.2 857.96,-165 846.95,-163.35 835.1,-161.2 824.17,-159.06"/>
<polygon fill="midnightblue" stroke="midnightblue" points="1274.87,-213.92 1285.12,-211.23 1275.43,-206.94 1274.87,-213.92"/>
</g>
<!-- Node24 -->
<g id="node24" class="node">
<title>Node24</title>
<g id="a_node24"><a xlink:href="ladel__submatrix_8c.html" target="_top" xlink:title=" ">
<polygon fill="white" stroke="black" points="867.46,-140 867.46,-159 1022.46,-159 1022.46,-140 867.46,-140"/>
<text text-anchor="middle" x="944.96" y="-147" font-family="Helvetica,sans-Serif" font-size="10.00">LADEL/src/ladel_submatrix.c</text>
</a>
</g>
</g>
<!-- Node5&#45;&gt;Node24 -->
<g id="edge37" class="edge">
<title>Node5&#45;&gt;Node24</title>
<path fill="none" stroke="midnightblue" d="M1275.22,-204.7C1212.43,-194.52 1115.8,-178.82 1031.96,-165 1020.33,-163.08 1007.82,-161.01 996.02,-159.04"/>
<polygon fill="midnightblue" stroke="midnightblue" points="1274.95,-208.2 1285.38,-206.35 1276.07,-201.29 1274.95,-208.2"/>
</g>
<!-- Node25 -->
<g id="node25" class="node">
<title>Node25</title>
<g id="a_node25"><a xlink:href="ladel__transpose_8c.html" target="_top" xlink:title=" ">
<polygon fill="white" stroke="black" points="1040.96,-140 1040.96,-159 1194.96,-159 1194.96,-140 1040.96,-140"/>
<text text-anchor="middle" x="1117.96" y="-147" font-family="Helvetica,sans-Serif" font-size="10.00">LADEL/src/ladel_transpose.c</text>
</a>
</g>
</g>
<!-- Node5&#45;&gt;Node25 -->
<g id="edge38" class="edge">
<title>Node5&#45;&gt;Node25</title>
<path fill="none" stroke="midnightblue" d="M1283.96,-198.67C1240.18,-185.97 1181.93,-169.06 1147.35,-159.03"/>
<polygon fill="midnightblue" stroke="midnightblue" points="1283.05,-202.05 1293.63,-201.48 1285,-195.33 1283.05,-202.05"/>
</g>
<!-- Node6&#45;&gt;Node2 -->
<g id="edge7" class="edge">
<title>Node6&#45;&gt;Node2</title>
<path fill="none" stroke="midnightblue" d="M1450.37,-134.25C1510.46,-121.36 1596.98,-102.8 1647.03,-92.07"/>
<polygon fill="midnightblue" stroke="midnightblue" points="1449.64,-130.83 1440.6,-136.35 1451.11,-137.67 1449.64,-130.83"/>
</g>
<!-- Node6&#45;&gt;Node3 -->
<g id="edge8" class="edge">
<title>Node6&#45;&gt;Node3</title>
<path fill="none" stroke="midnightblue" d="M1317.28,-132.35C1273.56,-121.09 1223.34,-106.59 1216.96,-98 1208.75,-86.94 1207.75,-77.25 1216.96,-67 1244.62,-36.21 1520.59,-22.58 1636.31,-18.19"/>
<polygon fill="midnightblue" stroke="midnightblue" points="1316.51,-135.76 1327.06,-134.84 1318.24,-128.98 1316.51,-135.76"/>
</g>
<!-- Node6&#45;&gt;Node4 -->
<g id="edge15" class="edge">
<title>Node6&#45;&gt;Node4</title>
<path fill="none" stroke="midnightblue" d="M1317.41,-133.35C1261.17,-120.3 1188.96,-102.81 1183.96,-98 1165.46,-80.21 1161.02,-48.95 1160.07,-30.75"/>
<polygon fill="midnightblue" stroke="midnightblue" points="1316.81,-136.81 1327.35,-135.65 1318.39,-129.99 1316.81,-136.81"/>
</g>
<!-- Node6&#45;&gt;Node7 -->
<g id="edge9" class="edge">
<title>Node6&#45;&gt;Node7</title>
<path fill="none" stroke="midnightblue" d="M1317.25,-141.82C1292.09,-139.33 1263.21,-136.5 1236.96,-134 1062.79,-117.41 1017.8,-125.1 844.96,-98 842.1,-97.55 839.19,-97.05 836.24,-96.52"/>
<polygon fill="midnightblue" stroke="midnightblue" points="1317.13,-145.33 1327.43,-142.83 1317.82,-138.36 1317.13,-145.33"/>
</g>
<!-- Node6&#45;&gt;Node8 -->
<g id="edge10" class="edge">
<title>Node6&#45;&gt;Node8</title>
<path fill="none" stroke="midnightblue" d="M1317.34,-139.57C1303.35,-137.71 1288.67,-135.78 1274.96,-134 1148.79,-117.61 1116.54,-118.41 990.96,-98 988.03,-97.52 985.03,-97.02 982.01,-96.49"/>
<polygon fill="midnightblue" stroke="midnightblue" points="1317.02,-143.06 1327.39,-140.91 1317.94,-136.12 1317.02,-143.06"/>
</g>
<!-- Node6&#45;&gt;Node9 -->
<g id="edge11" class="edge">
<title>Node6&#45;&gt;Node9</title>
<path fill="none" stroke="midnightblue" d="M1317.22,-134.86C1253.98,-121.93 1160.95,-102.92 1107.63,-92.02"/>
<polygon fill="midnightblue" stroke="midnightblue" points="1316.61,-138.31 1327.11,-136.88 1318.01,-131.45 1316.61,-138.31"/>
</g>
<!-- Node6&#45;&gt;Node10 -->
<g id="edge12" class="edge">
<title>Node6&#45;&gt;Node10</title>
<path fill="none" stroke="midnightblue" d="M1353.08,-129.02C1337.05,-118.9 1317.83,-106.77 1303.26,-97.58"/>
<polygon fill="midnightblue" stroke="midnightblue" points="1351.28,-132.02 1361.61,-134.4 1355.02,-126.1 1351.28,-132.02"/>
</g>
<!-- Node6&#45;&gt;Node11 -->
<g id="edge13" class="edge">
<title>Node6&#45;&gt;Node11</title>
<path fill="none" stroke="midnightblue" d="M1393,-124.99C1396.53,-115.8 1400.47,-105.58 1403.54,-97.58"/>
<polygon fill="midnightblue" stroke="midnightblue" points="1389.71,-123.81 1389.38,-134.4 1396.24,-126.32 1389.71,-123.81"/>
</g>
<!-- Node6&#45;&gt;Node12 -->
<g id="edge14" class="edge">
<title>Node6&#45;&gt;Node12</title>
<path fill="none" stroke="midnightblue" d="M1428.43,-130.54C1454.2,-120.14 1486.16,-107.24 1510.09,-97.58"/>
<polygon fill="midnightblue" stroke="midnightblue" points="1426.86,-127.41 1418.89,-134.4 1429.48,-133.9 1426.86,-127.41"/>
</g>
<!-- Node6&#45;&gt;Node13 -->
<g id="edge16" class="edge">
<title>Node6&#45;&gt;Node13</title>
<path fill="none" stroke="midnightblue" d="M1316.99,-142.78C1283.12,-139.97 1241.37,-136.63 1203.96,-134 913.92,-113.59 567.12,-94.36 427.61,-86.84"/>
<polygon fill="midnightblue" stroke="midnightblue" points="1316.98,-146.29 1327.23,-143.63 1317.56,-139.32 1316.98,-146.29"/>
</g>
<!-- Node14&#45;&gt;Node2 -->
<g id="edge18" class="edge">
<title>Node14&#45;&gt;Node2</title>
<path fill="none" stroke="midnightblue" d="M1674.95,-124.6C1678.25,-113.28 1682,-100.46 1684.42,-92.19"/>
<polygon fill="midnightblue" stroke="midnightblue" points="1671.53,-123.82 1672.08,-134.4 1678.25,-125.78 1671.53,-123.82"/>
</g>
<!-- Node14&#45;&gt;Node15 -->
<g id="edge19" class="edge">
<title>Node14&#45;&gt;Node15</title>
<path fill="none" stroke="midnightblue" d="M1714.29,-130.78C1747.26,-118.18 1790.08,-101.81 1815.71,-92.01"/>
<polygon fill="midnightblue" stroke="midnightblue" points="1712.94,-127.56 1704.85,-134.4 1715.44,-134.09 1712.94,-127.56"/>
</g>
</g>
</svg>
