<?xml version="1.0" encoding="UTF-8" standalone="no"?>
<!DOCTYPE svg PUBLIC "-//W3C//DTD SVG 1.1//EN"
 "http://www.w3.org/Graphics/SVG/1.1/DTD/svg11.dtd">
<!-- Generated by graphviz version 2.43.0 (0)
 -->
<!-- Title: LADEL/include/ladel_types.h Pages: 1 -->
<svg width="144pt" height="95pt"
 viewBox="0.00 0.00 144.00 95.00" xmlns="http://www.w3.org/2000/svg" xmlns:xlink="http://www.w3.org/1999/xlink">
<g id="graph0" class="graph" transform="scale(1 1) rotate(0) translate(4 91)">
<title>LADEL/include/ladel_types.h</title>
<polygon fill="white" stroke="transparent" points="-4,4 -4,-91 140,-91 140,4 -4,4"/>
<!-- Node1 -->
<g id="node1" class="node">
<title>Node1</title>
<g id="a_node1"><a xlink:title="Structures and types used in LADEL routines.">
<polygon fill="#bfbfbf" stroke="black" points="8,-56.5 8,-86.5 121,-86.5 121,-56.5 8,-56.5"/>
<text text-anchor="start" x="16" y="-74.5" font-family="Helvetica,sans-Serif" font-size="10.00">LADEL/include/ladel</text>
<text text-anchor="middle" x="64.5" y="-63.5" font-family="Helvetica,sans-Serif" font-size="10.00">_types.h</text>
</a>
</g>
</g>
<!-- Node2 -->
<g id="node2" class="node">
<title>Node2</title>
<g id="a_node2"><a xlink:title=" ">
<polygon fill="white" stroke="#bfbfbf" points="0,-0.5 0,-19.5 53,-19.5 53,-0.5 0,-0.5"/>
<text text-anchor="middle" x="26.5" y="-7.5" font-family="Helvetica,sans-Serif" font-size="10.00">stdint.h</text>
</a>
</g>
</g>
<!-- Node1&#45;&gt;Node2 -->
<g id="edge1" class="edge">
<title>Node1&#45;&gt;Node2</title>
<path fill="none" stroke="midnightblue" d="M55.49,-56.4C50.09,-47.93 43.17,-37.1 37.45,-28.14"/>
<polygon fill="midnightblue" stroke="midnightblue" points="40.36,-26.2 32.03,-19.66 34.46,-29.97 40.36,-26.2"/>
</g>
<!-- Node3 -->
<g id="node3" class="node">
<title>Node3</title>
<g id="a_node3"><a xlink:title=" ">
<polygon fill="white" stroke="#bfbfbf" points="71,-0.5 71,-19.5 136,-19.5 136,-0.5 71,-0.5"/>
<text text-anchor="middle" x="103.5" y="-7.5" font-family="Helvetica,sans-Serif" font-size="10.00">inttypes.h</text>
</a>
</g>
</g>
<!-- Node1&#45;&gt;Node3 -->
<g id="edge2" class="edge">
<title>Node1&#45;&gt;Node3</title>
<path fill="none" stroke="midnightblue" d="M73.74,-56.4C79.29,-47.93 86.39,-37.1 92.27,-28.14"/>
<polygon fill="midnightblue" stroke="midnightblue" points="95.27,-29.94 97.83,-19.66 89.42,-26.1 95.27,-29.94"/>
</g>
</g>
</svg>
