<?xml version="1.0" encoding="UTF-8" standalone="no"?>
<!DOCTYPE svg PUBLIC "-//W3C//DTD SVG 1.1//EN"
 "http://www.w3.org/Graphics/SVG/1.1/DTD/svg11.dtd">
<!-- Generated by graphviz version 2.43.0 (0)
 -->
<!-- Title: ladel_to_upper_diag Pages: 1 -->
<svg width="658pt" height="218pt"
 viewBox="0.00 0.00 658.00 218.00" xmlns="http://www.w3.org/2000/svg" xmlns:xlink="http://www.w3.org/1999/xlink">
<g id="graph0" class="graph" transform="scale(1 1) rotate(0) translate(4 214)">
<title>ladel_to_upper_diag</title>
<polygon fill="white" stroke="transparent" points="-4,4 -4,-214 654,-214 654,4 -4,4"/>
<!-- Node1 -->
<g id="node1" class="node">
<title>Node1</title>
<g id="a_node1"><a xlink:title="Return , that is the upper diagonal elements of M.">
<polygon fill="#bfbfbf" stroke="black" points="0,-114.5 0,-133.5 115,-133.5 115,-114.5 0,-114.5"/>
<text text-anchor="middle" x="57.5" y="-121.5" font-family="Helvetica,sans-Serif" font-size="10.00">ladel_to_upper_diag</text>
</a>
</g>
</g>
<!-- Node2 -->
<g id="node2" class="node">
<title>Node2</title>
<g id="a_node2"><a xlink:href="ladel__copy_8c.html#a97ad68065f3cb0241e4a6427e2e196a7" target="_top" xlink:title="Copies a matrix (preallocated)">
<polygon fill="white" stroke="black" points="303,-190.5 303,-209.5 410,-209.5 410,-190.5 303,-190.5"/>
<text text-anchor="middle" x="356.5" y="-197.5" font-family="Helvetica,sans-Serif" font-size="10.00">ladel_sparse_copy</text>
</a>
</g>
</g>
<!-- Node1&#45;&gt;Node2 -->
<g id="edge1" class="edge">
<title>Node1&#45;&gt;Node2</title>
<path fill="none" stroke="midnightblue" d="M71.51,-133.54C88.74,-145.63 120.52,-166.08 151,-176 196.91,-190.93 251.3,-196.79 292.44,-198.99"/>
<polygon fill="midnightblue" stroke="midnightblue" points="292.44,-202.49 302.6,-199.47 292.78,-195.5 292.44,-202.49"/>
</g>
<!-- Node4 -->
<g id="node4" class="node">
<title>Node4</title>
<g id="a_node4"><a xlink:href="ladel__global_8c.html#afaa07a7aa3c8517d3853968448b398a0" target="_top" xlink:title="Free a sparse matrix (and return NULL).">
<polygon fill="white" stroke="black" points="446,-152.5 446,-171.5 549,-171.5 549,-152.5 446,-152.5"/>
<text text-anchor="middle" x="497.5" y="-159.5" font-family="Helvetica,sans-Serif" font-size="10.00">ladel_sparse_free</text>
</a>
</g>
</g>
<!-- Node1&#45;&gt;Node4 -->
<g id="edge3" class="edge">
<title>Node1&#45;&gt;Node4</title>
<path fill="none" stroke="midnightblue" d="M115.31,-128.93C198.05,-136.11 351.07,-149.38 435.9,-156.74"/>
<polygon fill="midnightblue" stroke="midnightblue" points="435.63,-160.23 445.9,-157.61 436.24,-153.26 435.63,-160.23"/>
</g>
<!-- Node5 -->
<g id="node5" class="node">
<title>Node5</title>
<g id="a_node5"><a xlink:href="ladel__global_8c.html#af8f67d34b27615876be4d1359556890a" target="_top" xlink:title="Reallocate a sparse matrix with a new size.">
<polygon fill="white" stroke="black" points="151,-19.5 151,-38.5 267,-38.5 267,-19.5 151,-19.5"/>
<text text-anchor="middle" x="209" y="-26.5" font-family="Helvetica,sans-Serif" font-size="10.00">ladel_sparse_realloc</text>
</a>
</g>
</g>
<!-- Node1&#45;&gt;Node5 -->
<g id="edge5" class="edge">
<title>Node1&#45;&gt;Node5</title>
<path fill="none" stroke="midnightblue" d="M73.66,-114.37C99.74,-97.8 153.28,-63.77 184.32,-44.05"/>
<polygon fill="midnightblue" stroke="midnightblue" points="186.24,-46.97 192.8,-38.66 182.49,-41.07 186.24,-46.97"/>
</g>
<!-- Node7 -->
<g id="node7" class="node">
<title>Node7</title>
<g id="a_node7"><a xlink:href="ladel__transpose_8c.html#a8b00613708b897c9dbcd292dc9b89ed8" target="_top" xlink:title="Returns the transpose of a matrix, that is .">
<polygon fill="white" stroke="black" points="162,-95.5 162,-114.5 256,-114.5 256,-95.5 162,-95.5"/>
<text text-anchor="middle" x="209" y="-102.5" font-family="Helvetica,sans-Serif" font-size="10.00">ladel_transpose</text>
</a>
</g>
</g>
<!-- Node1&#45;&gt;Node7 -->
<g id="edge7" class="edge">
<title>Node1&#45;&gt;Node7</title>
<path fill="none" stroke="midnightblue" d="M115.02,-116.82C126.91,-115.31 139.47,-113.71 151.37,-112.2"/>
<polygon fill="midnightblue" stroke="midnightblue" points="152.14,-115.63 161.62,-110.89 151.26,-108.68 152.14,-115.63"/>
</g>
<!-- Node3 -->
<g id="node3" class="node">
<title>Node3</title>
<g id="a_node3"><a xlink:href="ladel__global_8c.html#a946ae8034525eb6db42d4a166be57968" target="_top" xlink:title="Version of free (for mex or for regular C).">
<polygon fill="white" stroke="black" points="585,-152.5 585,-171.5 650,-171.5 650,-152.5 585,-152.5"/>
<text text-anchor="middle" x="617.5" y="-159.5" font-family="Helvetica,sans-Serif" font-size="10.00">ladel_free</text>
</a>
</g>
</g>
<!-- Node2&#45;&gt;Node3 -->
<g id="edge2" class="edge">
<title>Node2&#45;&gt;Node3</title>
<path fill="none" stroke="midnightblue" d="M410.28,-197.26C448.94,-194.65 502.55,-189.77 549,-181 558.22,-179.26 568.02,-176.84 577.2,-174.32"/>
<polygon fill="midnightblue" stroke="midnightblue" points="578.21,-177.67 586.86,-171.56 576.29,-170.94 578.21,-177.67"/>
</g>
<!-- Node4&#45;&gt;Node3 -->
<g id="edge4" class="edge">
<title>Node4&#45;&gt;Node3</title>
<path fill="none" stroke="midnightblue" d="M549.23,-162C557.75,-162 566.5,-162 574.76,-162"/>
<polygon fill="midnightblue" stroke="midnightblue" points="574.91,-165.5 584.91,-162 574.91,-158.5 574.91,-165.5"/>
</g>
<!-- Node6 -->
<g id="node6" class="node">
<title>Node6</title>
<g id="a_node6"><a xlink:href="ladel__global_8c.html#a7d0a4fdc382d8280686fe8789ca7bc4c" target="_top" xlink:title="Version of realloc (for mex or for regular C).">
<polygon fill="white" stroke="black" points="317,-0.5 317,-19.5 396,-19.5 396,-0.5 317,-0.5"/>
<text text-anchor="middle" x="356.5" y="-7.5" font-family="Helvetica,sans-Serif" font-size="10.00">ladel_realloc</text>
</a>
</g>
</g>
<!-- Node5&#45;&gt;Node6 -->
<g id="edge6" class="edge">
<title>Node5&#45;&gt;Node6</title>
<path fill="none" stroke="midnightblue" d="M267.09,-21.55C280.28,-19.82 294.19,-18.01 306.98,-16.34"/>
<polygon fill="midnightblue" stroke="midnightblue" points="307.5,-19.8 316.96,-15.03 306.59,-12.86 307.5,-19.8"/>
</g>
<!-- Node7&#45;&gt;Node3 -->
<g id="edge8" class="edge">
<title>Node7&#45;&gt;Node3</title>
<path fill="none" stroke="midnightblue" d="M256.15,-107.78C321.71,-112.28 445.4,-122.75 549,-143 558.03,-144.76 567.61,-147.14 576.63,-149.62"/>
<polygon fill="midnightblue" stroke="midnightblue" points="575.94,-153.06 586.51,-152.43 577.85,-146.33 575.94,-153.06"/>
</g>
<!-- Node8 -->
<g id="node8" class="node">
<title>Node8</title>
<g id="a_node8"><a xlink:href="ladel__global_8c.html#a86142b1e820a5de1deea8ee656186245" target="_top" xlink:title="Version of malloc (for mex or for regular C).">
<polygon fill="white" stroke="black" points="458,-38.5 458,-57.5 537,-57.5 537,-38.5 458,-38.5"/>
<text text-anchor="middle" x="497.5" y="-45.5" font-family="Helvetica,sans-Serif" font-size="10.00">ladel_malloc</text>
</a>
</g>
</g>
<!-- Node7&#45;&gt;Node8 -->
<g id="edge9" class="edge">
<title>Node7&#45;&gt;Node8</title>
<path fill="none" stroke="midnightblue" d="M228.69,-95.47C247.09,-86.55 276.25,-73.63 303,-67 351.27,-55.04 408.07,-50.55 447.6,-48.9"/>
<polygon fill="midnightblue" stroke="midnightblue" points="447.9,-52.39 457.76,-48.52 447.64,-45.39 447.9,-52.39"/>
</g>
<!-- Node9 -->
<g id="node9" class="node">
<title>Node9</title>
<g id="a_node9"><a xlink:href="ladel__global_8c.html#a6e485045ec098c0b5a9afe07875a1e59" target="_top" xlink:title="Allocate a sparse matrix.">
<polygon fill="white" stroke="black" points="303,-76.5 303,-95.5 410,-95.5 410,-76.5 303,-76.5"/>
<text text-anchor="middle" x="356.5" y="-83.5" font-family="Helvetica,sans-Serif" font-size="10.00">ladel_sparse_alloc</text>
</a>
</g>
</g>
<!-- Node7&#45;&gt;Node9 -->
<g id="edge10" class="edge">
<title>Node7&#45;&gt;Node9</title>
<path fill="none" stroke="midnightblue" d="M256.04,-98.99C267.68,-97.47 280.38,-95.81 292.7,-94.2"/>
<polygon fill="midnightblue" stroke="midnightblue" points="293.46,-97.63 302.92,-92.87 292.55,-90.69 293.46,-97.63"/>
</g>
<!-- Node9&#45;&gt;Node4 -->
<g id="edge13" class="edge">
<title>Node9&#45;&gt;Node4</title>
<path fill="none" stroke="midnightblue" d="M375.1,-95.63C399.13,-108.76 442.37,-132.4 470.23,-147.64"/>
<polygon fill="midnightblue" stroke="midnightblue" points="468.59,-150.73 479.04,-152.45 471.94,-144.58 468.59,-150.73"/>
</g>
<!-- Node9&#45;&gt;Node8 -->
<g id="edge12" class="edge">
<title>Node9&#45;&gt;Node8</title>
<path fill="none" stroke="midnightblue" d="M392.58,-76.41C410.52,-71.51 432.56,-65.48 451.72,-60.24"/>
<polygon fill="midnightblue" stroke="midnightblue" points="452.71,-63.6 461.44,-57.59 450.87,-56.85 452.71,-63.6"/>
</g>
<!-- Node10 -->
<g id="node10" class="node">
<title>Node10</title>
<g id="a_node10"><a xlink:href="ladel__global_8c.html#a15a407b5c8ad9de2faeb93fcd786e099" target="_top" xlink:title="Version of calloc (for mex or for regular C).">
<polygon fill="white" stroke="black" points="460.5,-76.5 460.5,-95.5 534.5,-95.5 534.5,-76.5 460.5,-76.5"/>
<text text-anchor="middle" x="497.5" y="-83.5" font-family="Helvetica,sans-Serif" font-size="10.00">ladel_calloc</text>
</a>
</g>
</g>
<!-- Node9&#45;&gt;Node10 -->
<g id="edge11" class="edge">
<title>Node9&#45;&gt;Node10</title>
<path fill="none" stroke="midnightblue" d="M410.05,-86C423.27,-86 437.37,-86 450.26,-86"/>
<polygon fill="midnightblue" stroke="midnightblue" points="450.3,-89.5 460.3,-86 450.3,-82.5 450.3,-89.5"/>
</g>
</g>
</svg>
