<?xml version="1.0" encoding="UTF-8" standalone="no"?>
<!DOCTYPE svg PUBLIC "-//W3C//DTD SVG 1.1//EN"
 "http://www.w3.org/Graphics/SVG/1.1/DTD/svg11.dtd">
<!-- Generated by graphviz version 2.43.0 (0)
 -->
<!-- Title: ladel_sparse_alloc Pages: 1 -->
<svg width="982pt" height="476pt"
 viewBox="0.00 0.00 982.00 476.00" xmlns="http://www.w3.org/2000/svg" xmlns:xlink="http://www.w3.org/1999/xlink">
<g id="graph0" class="graph" transform="scale(1 1) rotate(0) translate(4 472)">
<title>ladel_sparse_alloc</title>
<polygon fill="white" stroke="transparent" points="-4,4 -4,-472 978,-472 978,4 -4,4"/>
<!-- Node1 -->
<g id="node1" class="node">
<title>Node1</title>
<g id="a_node1"><a xlink:title="Allocate a sparse matrix.">
<polygon fill="#bfbfbf" stroke="black" points="867,-244 867,-263 974,-263 974,-244 867,-244"/>
<text text-anchor="middle" x="920.5" y="-251" font-family="Helvetica,sans-Serif" font-size="10.00">ladel_sparse_alloc</text>
</a>
</g>
</g>
<!-- Node2 -->
<g id="node2" class="node">
<title>Node2</title>
<g id="a_node2"><a xlink:href="ladel__add_8c.html#a758b63f39a12a53be24928cfd71f0bfe" target="_top" xlink:title="Returns a sparse matrix &#160;if values==TRUE, or a pattern matrix that includes the patterns of A and B i...">
<polygon fill="white" stroke="black" points="703.5,-415.5 703.5,-445.5 815.5,-445.5 815.5,-415.5 703.5,-415.5"/>
<text text-anchor="start" x="711.5" y="-433.5" font-family="Helvetica,sans-Serif" font-size="10.00">ladel_add_matrices</text>
<text text-anchor="middle" x="759.5" y="-422.5" font-family="Helvetica,sans-Serif" font-size="10.00">_advanced</text>
</a>
</g>
</g>
<!-- Node1&#45;&gt;Node2 -->
<g id="edge1" class="edge">
<title>Node1&#45;&gt;Node2</title>
<path fill="none" stroke="midnightblue" d="M913.24,-272.8C901.88,-304.84 874.93,-369.08 831,-405.5 826.4,-409.31 821.18,-412.56 815.71,-415.33"/>
<polygon fill="midnightblue" stroke="midnightblue" points="916.58,-273.85 916.49,-263.25 909.95,-271.59 916.58,-273.85"/>
</g>
<!-- Node5 -->
<g id="node5" class="node">
<title>Node5</title>
<g id="a_node5"><a xlink:href="ladel__submatrix_8c.html#a147c31941734d0ae3fcd28c800051322" target="_top" xlink:title="Returns a matrix that is a selection of columns of M, that is .">
<polygon fill="white" stroke="black" points="691,-377 691,-396 828,-396 828,-377 691,-377"/>
<text text-anchor="middle" x="759.5" y="-384" font-family="Helvetica,sans-Serif" font-size="10.00">ladel_column_submatrix</text>
</a>
</g>
</g>
<!-- Node1&#45;&gt;Node5 -->
<g id="edge4" class="edge">
<title>Node1&#45;&gt;Node5</title>
<path fill="none" stroke="midnightblue" d="M909.01,-272.05C894.47,-296.18 865.98,-338.13 831,-362.5 822.09,-368.71 811.43,-373.43 801.14,-376.96"/>
<polygon fill="midnightblue" stroke="midnightblue" points="912.17,-273.58 914.21,-263.18 906.14,-270.04 912.17,-273.58"/>
</g>
<!-- Node6 -->
<g id="node6" class="node">
<title>Node6</title>
<g id="a_node6"><a xlink:href="ladel__global_8c.html#a968028b68306172d3fb202fb434624a6" target="_top" xlink:title="Allocate a factors struct.">
<polygon fill="white" stroke="black" points="354,-293 354,-312 473,-312 473,-293 354,-293"/>
<text text-anchor="middle" x="413.5" y="-300" font-family="Helvetica,sans-Serif" font-size="10.00">ladel_factor_allocate</text>
</a>
</g>
</g>
<!-- Node1&#45;&gt;Node6 -->
<g id="edge5" class="edge">
<title>Node1&#45;&gt;Node6</title>
<path fill="none" stroke="midnightblue" d="M869.72,-265.15C857.14,-267.83 843.61,-270.48 831,-272.5 704.47,-292.74 554.12,-299.33 473.15,-301.47"/>
<polygon fill="midnightblue" stroke="midnightblue" points="870.55,-268.55 879.58,-263.01 869.06,-261.71 870.55,-268.55"/>
</g>
<!-- Node7 -->
<g id="node7" class="node">
<title>Node7</title>
<g id="a_node7"><a xlink:href="group__grp-solver.html#gaff676fbf1dd6dbf8096c5349d264297f" target="_top" xlink:title="Computes the &#160;factorization of &#160;but allocates based on Mbasis.">
<polygon fill="white" stroke="black" points="177,-287.5 177,-317.5 318,-317.5 318,-287.5 177,-287.5"/>
<text text-anchor="start" x="185" y="-305.5" font-family="Helvetica,sans-Serif" font-size="10.00">ladel_factorize_advanced</text>
<text text-anchor="middle" x="247.5" y="-294.5" font-family="Helvetica,sans-Serif" font-size="10.00">_with_diag</text>
</a>
</g>
</g>
<!-- Node1&#45;&gt;Node7 -->
<g id="edge10" class="edge">
<title>Node1&#45;&gt;Node7</title>
<path fill="none" stroke="midnightblue" d="M894.32,-268.02C877.07,-277.23 853.36,-288.52 831,-294.5 625.88,-349.39 565.5,-340.39 354,-321.5 342.32,-320.46 330,-318.78 318.06,-316.84"/>
<polygon fill="midnightblue" stroke="midnightblue" points="896.1,-271.03 903.18,-263.16 892.73,-264.89 896.1,-271.03"/>
</g>
<!-- Node9 -->
<g id="node9" class="node">
<title>Node9</title>
<g id="a_node9"><a xlink:href="group__grp-solver.html#ga129ea878837012c6ac76fb6046bc9449" target="_top" xlink:title="Computes the &#160;factorization of .">
<polygon fill="white" stroke="black" points="177,-233 177,-252 318,-252 318,-233 177,-233"/>
<text text-anchor="middle" x="247.5" y="-240" font-family="Helvetica,sans-Serif" font-size="10.00">ladel_factorize_with_diag</text>
</a>
</g>
</g>
<!-- Node1&#45;&gt;Node9 -->
<g id="edge11" class="edge">
<title>Node1&#45;&gt;Node9</title>
<path fill="none" stroke="midnightblue" d="M869.72,-241.85C857.14,-239.17 843.61,-236.52 831,-234.5 621.61,-201.01 564.66,-199.19 354,-223.5 334.31,-225.77 312.74,-229.44 294.27,-232.95"/>
<polygon fill="midnightblue" stroke="midnightblue" points="869.06,-245.29 879.58,-243.99 870.55,-238.45 869.06,-245.29"/>
</g>
<!-- Node11 -->
<g id="node11" class="node">
<title>Node11</title>
<g id="a_node11"><a xlink:href="group__grp-solver.html#gabb81f3223c3ab1794fd472276be8fba6" target="_top" xlink:title="Computes the &#160;factorization of &#160;provided LD was allocated before.">
<polygon fill="white" stroke="black" points="695.5,-137.5 695.5,-167.5 823.5,-167.5 823.5,-137.5 695.5,-137.5"/>
<text text-anchor="start" x="703.5" y="-155.5" font-family="Helvetica,sans-Serif" font-size="10.00">ladel_factorize_with</text>
<text text-anchor="middle" x="759.5" y="-144.5" font-family="Helvetica,sans-Serif" font-size="10.00">_prior_basis_with_diag</text>
</a>
</g>
</g>
<!-- Node1&#45;&gt;Node11 -->
<g id="edge12" class="edge">
<title>Node1&#45;&gt;Node11</title>
<path fill="none" stroke="midnightblue" d="M902.02,-237.06C884.9,-221.56 857.58,-198.41 831,-182.5 821.75,-176.97 811.3,-171.93 801.33,-167.63"/>
<polygon fill="midnightblue" stroke="midnightblue" points="899.83,-239.8 909.56,-243.99 904.57,-234.64 899.83,-239.8"/>
</g>
<!-- Node13 -->
<g id="node13" class="node">
<title>Node13</title>
<g id="a_node13"><a xlink:href="ladel__matmat_8c.html#aa0dc5e49d5b89cd8756da8d19c19fffa" target="_top" xlink:title="Core mat_mat_transpose function with all options (diag and value/pattern).">
<polygon fill="white" stroke="black" points="688,-88.5 688,-118.5 831,-118.5 831,-88.5 688,-88.5"/>
<text text-anchor="start" x="696" y="-106.5" font-family="Helvetica,sans-Serif" font-size="10.00">ladel_mat_mat_transpose</text>
<text text-anchor="middle" x="759.5" y="-95.5" font-family="Helvetica,sans-Serif" font-size="10.00">_advanced</text>
</a>
</g>
</g>
<!-- Node1&#45;&gt;Node13 -->
<g id="edge14" class="edge">
<title>Node1&#45;&gt;Node13</title>
<path fill="none" stroke="midnightblue" d="M910.82,-234.63C897.42,-207.45 869.17,-157.38 831,-128.5 825.93,-124.66 820.21,-121.37 814.29,-118.57"/>
<polygon fill="midnightblue" stroke="midnightblue" points="907.75,-236.32 915.23,-243.83 914.07,-233.3 907.75,-236.32"/>
</g>
<!-- Node17 -->
<g id="node17" class="node">
<title>Node17</title>
<g id="a_node17"><a xlink:href="ladel__copy_8c.html#a3a4d205bb1f55b7059ad6b82a18fb856" target="_top" xlink:title="Copies a matrix into a newly allocated one.">
<polygon fill="white" stroke="black" points="698.5,-39.5 698.5,-69.5 820.5,-69.5 820.5,-39.5 698.5,-39.5"/>
<text text-anchor="start" x="706.5" y="-57.5" font-family="Helvetica,sans-Serif" font-size="10.00">ladel_sparse_allocate</text>
<text text-anchor="middle" x="759.5" y="-46.5" font-family="Helvetica,sans-Serif" font-size="10.00">_and_copy</text>
</a>
</g>
</g>
<!-- Node1&#45;&gt;Node17 -->
<g id="edge18" class="edge">
<title>Node1&#45;&gt;Node17</title>
<path fill="none" stroke="midnightblue" d="M914.72,-233.93C905.02,-198.22 879.7,-122.26 831,-79.5 826.61,-75.64 821.58,-72.37 816.28,-69.6"/>
<polygon fill="midnightblue" stroke="midnightblue" points="911.34,-234.83 917.24,-243.63 918.12,-233.08 911.34,-234.83"/>
</g>
<!-- Node18 -->
<g id="node18" class="node">
<title>Node18</title>
<g id="a_node18"><a xlink:href="ladel__transpose_8c.html#a8b00613708b897c9dbcd292dc9b89ed8" target="_top" xlink:title="Returns the transpose of a matrix, that is .">
<polygon fill="white" stroke="black" points="712.5,-244 712.5,-263 806.5,-263 806.5,-244 712.5,-244"/>
<text text-anchor="middle" x="759.5" y="-251" font-family="Helvetica,sans-Serif" font-size="10.00">ladel_transpose</text>
</a>
</g>
</g>
<!-- Node1&#45;&gt;Node18 -->
<g id="edge19" class="edge">
<title>Node1&#45;&gt;Node18</title>
<path fill="none" stroke="midnightblue" d="M856.73,-253.5C839.98,-253.5 822.2,-253.5 806.54,-253.5"/>
<polygon fill="midnightblue" stroke="midnightblue" points="857,-257 867,-253.5 857,-250 857,-257"/>
</g>
<!-- Node3 -->
<g id="node3" class="node">
<title>Node3</title>
<g id="a_node3"><a xlink:href="ladel__add_8c.html#a829807555e76a1861cd43a87d1d86efe" target="_top" xlink:title="Returns a sparse matrix .">
<polygon fill="white" stroke="black" points="524.5,-399 524.5,-418 636.5,-418 636.5,-399 524.5,-399"/>
<text text-anchor="middle" x="580.5" y="-406" font-family="Helvetica,sans-Serif" font-size="10.00">ladel_add_matrices</text>
</a>
</g>
</g>
<!-- Node2&#45;&gt;Node3 -->
<g id="edge2" class="edge">
<title>Node2&#45;&gt;Node3</title>
<path fill="none" stroke="midnightblue" d="M693.33,-422.4C674.76,-420.09 654.72,-417.6 636.8,-415.37"/>
<polygon fill="midnightblue" stroke="midnightblue" points="693.11,-425.9 703.47,-423.66 693.97,-418.95 693.11,-425.9"/>
</g>
<!-- Node4 -->
<g id="node4" class="node">
<title>Node4</title>
<g id="a_node4"><a xlink:href="ladel__add_8c.html#a1322dd7713c9d04b74ddc1927e94f28a" target="_top" xlink:title="Returns a pattern matrix whose pattern includes the patterns of A and B.">
<polygon fill="white" stroke="black" points="524.5,-437.5 524.5,-467.5 636.5,-467.5 636.5,-437.5 524.5,-437.5"/>
<text text-anchor="start" x="532.5" y="-455.5" font-family="Helvetica,sans-Serif" font-size="10.00">ladel_add_matrices</text>
<text text-anchor="middle" x="580.5" y="-444.5" font-family="Helvetica,sans-Serif" font-size="10.00">_pattern</text>
</a>
</g>
</g>
<!-- Node2&#45;&gt;Node4 -->
<g id="edge3" class="edge">
<title>Node2&#45;&gt;Node4</title>
<path fill="none" stroke="midnightblue" d="M693.33,-438.6C674.76,-440.91 654.72,-443.4 636.8,-445.63"/>
<polygon fill="midnightblue" stroke="midnightblue" points="693.97,-442.05 703.47,-437.34 693.11,-435.1 693.97,-442.05"/>
</g>
<!-- Node6&#45;&gt;Node7 -->
<g id="edge6" class="edge">
<title>Node6&#45;&gt;Node7</title>
<path fill="none" stroke="midnightblue" d="M343.57,-302.5C335.12,-302.5 326.48,-302.5 318.02,-302.5"/>
<polygon fill="midnightblue" stroke="midnightblue" points="343.76,-306 353.76,-302.5 343.76,-299 343.76,-306"/>
</g>
<!-- Node6&#45;&gt;Node9 -->
<g id="edge8" class="edge">
<title>Node6&#45;&gt;Node9</title>
<path fill="none" stroke="midnightblue" d="M377.01,-289.52C346.21,-278.25 302.32,-262.19 274.64,-252.06"/>
<polygon fill="midnightblue" stroke="midnightblue" points="375.92,-292.84 386.51,-292.99 378.33,-286.27 375.92,-292.84"/>
</g>
<!-- Node8 -->
<g id="node8" class="node">
<title>Node8</title>
<g id="a_node8"><a xlink:href="group__grp-solver.html#gac217d5bb50524bf6bbc0e7fa473edcfb" target="_top" xlink:title="Computes the &#160;factorization of &#160;but allocates based on Mbasis.">
<polygon fill="white" stroke="black" points="0,-293 0,-312 141,-312 141,-293 0,-293"/>
<text text-anchor="middle" x="70.5" y="-300" font-family="Helvetica,sans-Serif" font-size="10.00">ladel_factorize_advanced</text>
</a>
</g>
</g>
<!-- Node7&#45;&gt;Node8 -->
<g id="edge7" class="edge">
<title>Node7&#45;&gt;Node8</title>
<path fill="none" stroke="midnightblue" d="M166.58,-302.5C158.11,-302.5 149.55,-302.5 141.21,-302.5"/>
<polygon fill="midnightblue" stroke="midnightblue" points="166.83,-306 176.83,-302.5 166.83,-299 166.83,-306"/>
</g>
<!-- Node10 -->
<g id="node10" class="node">
<title>Node10</title>
<g id="a_node10"><a xlink:href="group__grp-solver.html#ga6167c294e588fe34776d40e53c6ddbc9" target="_top" xlink:title="Computes the &#160;factorization of .">
<polygon fill="white" stroke="black" points="26,-233 26,-252 115,-252 115,-233 26,-233"/>
<text text-anchor="middle" x="70.5" y="-240" font-family="Helvetica,sans-Serif" font-size="10.00">ladel_factorize</text>
</a>
</g>
</g>
<!-- Node9&#45;&gt;Node10 -->
<g id="edge9" class="edge">
<title>Node9&#45;&gt;Node10</title>
<path fill="none" stroke="midnightblue" d="M166.51,-242.5C148.87,-242.5 130.82,-242.5 115.25,-242.5"/>
<polygon fill="midnightblue" stroke="midnightblue" points="166.83,-246 176.83,-242.5 166.83,-239 166.83,-246"/>
</g>
<!-- Node12 -->
<g id="node12" class="node">
<title>Node12</title>
<g id="a_node12"><a xlink:href="group__grp-solver.html#ga90783633564102ca42816a7d23eca63b" target="_top" xlink:title="Computes the &#160;factorization of &#160;provided LD was allocated before.">
<polygon fill="white" stroke="black" points="523,-137.5 523,-167.5 638,-167.5 638,-137.5 523,-137.5"/>
<text text-anchor="start" x="531" y="-155.5" font-family="Helvetica,sans-Serif" font-size="10.00">ladel_factorize_with</text>
<text text-anchor="middle" x="580.5" y="-144.5" font-family="Helvetica,sans-Serif" font-size="10.00">_prior_basis</text>
</a>
</g>
</g>
<!-- Node11&#45;&gt;Node12 -->
<g id="edge13" class="edge">
<title>Node11&#45;&gt;Node12</title>
<path fill="none" stroke="midnightblue" d="M684.97,-152.5C669.37,-152.5 653.14,-152.5 638.28,-152.5"/>
<polygon fill="midnightblue" stroke="midnightblue" points="685.1,-156 695.1,-152.5 685.1,-149 685.1,-156"/>
</g>
<!-- Node14 -->
<g id="node14" class="node">
<title>Node14</title>
<g id="a_node14"><a xlink:href="ladel__matmat_8c.html#aeb2ea434d4c66863f8814d3c5a6ce97a" target="_top" xlink:title="Computes .">
<polygon fill="white" stroke="black" points="522.5,-88.5 522.5,-118.5 638.5,-118.5 638.5,-88.5 522.5,-88.5"/>
<text text-anchor="start" x="530.5" y="-106.5" font-family="Helvetica,sans-Serif" font-size="10.00">ladel_mat_diag_mat</text>
<text text-anchor="middle" x="580.5" y="-95.5" font-family="Helvetica,sans-Serif" font-size="10.00">_transpose</text>
</a>
</g>
</g>
<!-- Node13&#45;&gt;Node14 -->
<g id="edge15" class="edge">
<title>Node13&#45;&gt;Node14</title>
<path fill="none" stroke="midnightblue" d="M677.72,-103.5C664.48,-103.5 651.01,-103.5 638.5,-103.5"/>
<polygon fill="midnightblue" stroke="midnightblue" points="677.78,-107 687.78,-103.5 677.78,-100 677.78,-107"/>
</g>
<!-- Node15 -->
<g id="node15" class="node">
<title>Node15</title>
<g id="a_node15"><a xlink:href="ladel__matmat_8c.html#a9d9a01b808baba381deeab28e25b41e0" target="_top" xlink:title="Computes .">
<polygon fill="white" stroke="black" points="509,-50 509,-69 652,-69 652,-50 509,-50"/>
<text text-anchor="middle" x="580.5" y="-57" font-family="Helvetica,sans-Serif" font-size="10.00">ladel_mat_mat_transpose</text>
</a>
</g>
</g>
<!-- Node13&#45;&gt;Node15 -->
<g id="edge16" class="edge">
<title>Node13&#45;&gt;Node15</title>
<path fill="none" stroke="midnightblue" d="M688.21,-86.03C664.87,-80.22 639.76,-73.98 619.77,-69.01"/>
<polygon fill="midnightblue" stroke="midnightblue" points="687.53,-89.46 698.08,-88.48 689.22,-82.67 687.53,-89.46"/>
</g>
<!-- Node16 -->
<g id="node16" class="node">
<title>Node16</title>
<g id="a_node16"><a xlink:href="ladel__matmat_8c.html#a0b1d696c23cec68f53fe76f6db607572" target="_top" xlink:title="Computes the pattern of .">
<polygon fill="white" stroke="black" points="509,-0.5 509,-30.5 652,-30.5 652,-0.5 509,-0.5"/>
<text text-anchor="start" x="517" y="-18.5" font-family="Helvetica,sans-Serif" font-size="10.00">ladel_mat_mat_transpose</text>
<text text-anchor="middle" x="580.5" y="-7.5" font-family="Helvetica,sans-Serif" font-size="10.00">_pattern</text>
</a>
</g>
</g>
<!-- Node13&#45;&gt;Node16 -->
<g id="edge17" class="edge">
<title>Node13&#45;&gt;Node16</title>
<path fill="none" stroke="midnightblue" d="M695.62,-83.98C692.99,-82.58 690.44,-81.09 688,-79.5 668.23,-66.64 671.69,-53.49 652,-40.5 646.25,-36.71 639.87,-33.42 633.35,-30.58"/>
<polygon fill="midnightblue" stroke="midnightblue" points="694.28,-87.22 704.81,-88.42 697.33,-80.92 694.28,-87.22"/>
</g>
<!-- Node19 -->
<g id="node19" class="node">
<title>Node19</title>
<g id="a_node19"><a xlink:href="ladel__col__counts_8c.html#aa7284697012b8c3de4cece3e31915488" target="_top" xlink:title="Computes the column counts of the factor.">
<polygon fill="white" stroke="black" points="531.5,-225 531.5,-244 629.5,-244 629.5,-225 531.5,-225"/>
<text text-anchor="middle" x="580.5" y="-232" font-family="Helvetica,sans-Serif" font-size="10.00">ladel_col_counts</text>
</a>
</g>
</g>
<!-- Node18&#45;&gt;Node19 -->
<g id="edge20" class="edge">
<title>Node18&#45;&gt;Node19</title>
<path fill="none" stroke="midnightblue" d="M702.35,-247.47C679.02,-244.97 652.22,-242.09 629.79,-239.68"/>
<polygon fill="midnightblue" stroke="midnightblue" points="702.14,-250.97 712.46,-248.56 702.89,-244.01 702.14,-250.97"/>
</g>
<!-- Node21 -->
<g id="node21" class="node">
<title>Node21</title>
<g id="a_node21"><a xlink:href="ladel__upper__diag_8c.html#a7a4946c49cace1648ec43ab05e35b8e6" target="_top" xlink:title="Return , that is the upper diagonal elements of M.">
<polygon fill="white" stroke="black" points="523,-263 523,-282 638,-282 638,-263 523,-263"/>
<text text-anchor="middle" x="580.5" y="-270" font-family="Helvetica,sans-Serif" font-size="10.00">ladel_to_upper_diag</text>
</a>
</g>
</g>
<!-- Node18&#45;&gt;Node21 -->
<g id="edge24" class="edge">
<title>Node18&#45;&gt;Node21</title>
<path fill="none" stroke="midnightblue" d="M702.32,-259.53C681.8,-261.73 658.61,-264.22 638.06,-266.43"/>
<polygon fill="midnightblue" stroke="midnightblue" points="702.89,-262.99 712.46,-258.44 702.14,-256.03 702.89,-262.99"/>
</g>
<!-- Node20 -->
<g id="node20" class="node">
<title>Node20</title>
<g id="a_node20"><a xlink:href="ladel__ldl__symbolic_8c.html#a919feee5783ed6d5ffaff8dff6546976" target="_top" xlink:title="Symbolic part of the factorization.">
<polygon fill="white" stroke="black" points="360,-233 360,-252 467,-252 467,-233 360,-233"/>
<text text-anchor="middle" x="413.5" y="-240" font-family="Helvetica,sans-Serif" font-size="10.00">ladel_ldl_symbolic</text>
</a>
</g>
</g>
<!-- Node19&#45;&gt;Node20 -->
<g id="edge21" class="edge">
<title>Node19&#45;&gt;Node20</title>
<path fill="none" stroke="midnightblue" d="M521.16,-237.33C503.53,-238.18 484.29,-239.12 467.06,-239.95"/>
<polygon fill="midnightblue" stroke="midnightblue" points="521.51,-240.82 531.33,-236.84 521.17,-233.82 521.51,-240.82"/>
</g>
<!-- Node20&#45;&gt;Node7 -->
<g id="edge22" class="edge">
<title>Node20&#45;&gt;Node7</title>
<path fill="none" stroke="midnightblue" d="M376.81,-255.56C351.17,-264.94 316.52,-277.61 289.7,-287.43"/>
<polygon fill="midnightblue" stroke="midnightblue" points="378.33,-258.73 386.51,-252.01 375.92,-252.16 378.33,-258.73"/>
</g>
<!-- Node20&#45;&gt;Node9 -->
<g id="edge23" class="edge">
<title>Node20&#45;&gt;Node9</title>
<path fill="none" stroke="midnightblue" d="M349.61,-242.5C339.35,-242.5 328.67,-242.5 318.25,-242.5"/>
<polygon fill="midnightblue" stroke="midnightblue" points="349.71,-246 359.71,-242.5 349.71,-239 349.71,-246"/>
</g>
</g>
</svg>
