<?xml version="1.0" encoding="UTF-8" standalone="no"?>
<!DOCTYPE svg PUBLIC "-//W3C//DTD SVG 1.1//EN"
 "http://www.w3.org/Graphics/SVG/1.1/DTD/svg11.dtd">
<!-- Generated by graphviz version 2.43.0 (0)
 -->
<!-- Title: LADEL/include/ladel_global.h Pages: 1 -->
<!--zoomable 240 -->
<svg id="main" version="1.1" xmlns="http://www.w3.org/2000/svg" xmlns:xlink="http://www.w3.org/1999/xlink" xml:space="preserve" onload="init(evt)">
<style type="text/css"><![CDATA[
.edge:hover path { stroke: red; }
.edge:hover polygon { stroke: red; fill: red; }
]]></style>
<script type="text/javascript"><![CDATA[
var edges = document.getElementsByTagName('g');
if (edges && edges.length) {
  for (var i=0;i<edges.length;i++) {
    if (edges[i].id.substr(0,4)=='edge') {
      edges[i].setAttribute('class','edge');
    }
  }
}
]]></script>
        <defs>
                <circle id="rim" cx="0" cy="0" r="7"/>
                <circle id="rim2" cx="0" cy="0" r="3.5"/>
                <g id="zoomPlus">
                        <use xlink:href="#rim" fill="#404040">
                                <set attributeName="fill" to="#808080" begin="zoomplus.mouseover" end="zoomplus.mouseout"/>
                        </use>
                        <path d="M-4,0h8M0,-4v8" fill="none" stroke="white" stroke-width="1.5" pointer-events="none"/>
                </g>
                <g id="zoomMin">
                        <use xlink:href="#rim" fill="#404040">
                                <set attributeName="fill" to="#808080" begin="zoomminus.mouseover" end="zoomminus.mouseout"/>
                        </use>
                        <path d="M-4,0h8" fill="none" stroke="white" stroke-width="1.5" pointer-events="none"/>
                </g>
                <g id="dirArrow">
                        <path fill="none" stroke="white" stroke-width="1.5" d="M0,-3.0v7 M-2.5,-0.5L0,-3.0L2.5,-0.5"/>
                </g>
               <g id="resetDef">
                       <use xlink:href="#rim2" fill="#404040">
                               <set attributeName="fill" to="#808080" begin="reset.mouseover" end="reset.mouseout"/>
                       </use>
               </g>
        </defs>

<script type="text/javascript">
var viewWidth = 2560;
var viewHeight = 240;
var sectionId = 'dynsection-1';
</script>
<script xlink:href="svgpan.js"/>
<svg id="graph" class="graph">
<g id="viewport">
<title>LADEL/include/ladel_global.h</title>
<polygon fill="white" stroke="transparent" points="-4,4 -4,-236 2555.75,-236 2555.75,4 -4,4"/>
<!-- Node1 -->
<g id="node1" class="node">
<title>Node1</title>
<g id="a_node1"><a xlink:title="Memory allocation routines.">
<polygon fill="#bfbfbf" stroke="black" points="786.25,-201.5 786.25,-231.5 899.25,-231.5 899.25,-201.5 786.25,-201.5"/>
<text text-anchor="start" x="794.25" y="-219.5" font-family="Helvetica,sans-Serif" font-size="10.00">LADEL/include/ladel</text>
<text text-anchor="middle" x="842.75" y="-208.5" font-family="Helvetica,sans-Serif" font-size="10.00">_global.h</text>
</a>
</g>
</g>
<!-- Node2 -->
<g id="node2" class="node">
<title>Node2</title>
<g id="a_node2"><a xlink:href="ladel_8h.html" target="_top" xlink:title="LADEL main include file.">
<polygon fill="white" stroke="black" points="361.75,-73 361.75,-92 483.75,-92 483.75,-73 361.75,-73"/>
<text text-anchor="middle" x="422.75" y="-80" font-family="Helvetica,sans-Serif" font-size="10.00">LADEL/include/ladel.h</text>
</a>
</g>
</g>
<!-- Node1&#45;&gt;Node2 -->
<g id="edge1" class="edge">
<title>Node1&#45;&gt;Node2</title>
<path fill="none" stroke="midnightblue" d="M776.15,-214.81C678.67,-212.5 503.42,-203.01 454.75,-165 431.39,-146.76 425.05,-109.02 423.36,-92.07"/>
<polygon fill="midnightblue" stroke="midnightblue" points="776.13,-218.31 786.2,-215.03 776.28,-211.31 776.13,-218.31"/>
</g>
<!-- Node3 -->
<g id="node3" class="node">
<title>Node3</title>
<g id="a_node3"><a xlink:href="ladel_8c.html" target="_top" xlink:title=" ">
<polygon fill="white" stroke="black" points="264.25,-6 264.25,-25 365.25,-25 365.25,-6 264.25,-6"/>
<text text-anchor="middle" x="314.75" y="-13" font-family="Helvetica,sans-Serif" font-size="10.00">LADEL/src/ladel.c</text>
</a>
</g>
</g>
<!-- Node1&#45;&gt;Node3 -->
<g id="edge18" class="edge">
<title>Node1&#45;&gt;Node3</title>
<path fill="none" stroke="midnightblue" d="M776.06,-213.89C600.49,-209.28 134.69,-194.39 71.75,-165 34.44,-147.58 23.08,-136.22 7.75,-98 2.63,-85.21 -1.16,-77.5 7.75,-67 40.05,-28.96 185.62,-19.53 264.15,-17.22"/>
<polygon fill="midnightblue" stroke="midnightblue" points="776.11,-217.4 786.2,-214.16 776.29,-210.4 776.11,-217.4"/>
</g>
<!-- Node4 -->
<g id="node4" class="node">
<title>Node4</title>
<g id="a_node4"><a xlink:href="ladel__row__mod_8c.html" target="_top" xlink:title=" ">
<polygon fill="white" stroke="black" points="383.75,-0.5 383.75,-30.5 499.75,-30.5 499.75,-0.5 383.75,-0.5"/>
<text text-anchor="start" x="391.75" y="-18.5" font-family="Helvetica,sans-Serif" font-size="10.00">LADEL/src/ladel_row</text>
<text text-anchor="middle" x="441.75" y="-7.5" font-family="Helvetica,sans-Serif" font-size="10.00">_mod.c</text>
</a>
</g>
</g>
<!-- Node1&#45;&gt;Node4 -->
<g id="edge33" class="edge">
<title>Node1&#45;&gt;Node4</title>
<path fill="none" stroke="midnightblue" d="M775.81,-215.44C662.53,-214.13 426.4,-206.14 231.75,-165 142.92,-146.22 91.39,-171.99 38.75,-98 -22.98,-11.22 -67.03,-101.49 373.75,-31 376.97,-30.49 380.27,-29.92 383.59,-29.31"/>
<polygon fill="midnightblue" stroke="midnightblue" points="776.01,-218.94 786.05,-215.54 776.09,-211.94 776.01,-218.94"/>
</g>
<!-- Node5 -->
<g id="node5" class="node">
<title>Node5</title>
<g id="a_node5"><a xlink:href="ladel__debug__print_8h.html" target="_top" xlink:title="Routines to print out matrices and vectors.">
<polygon fill="white" stroke="black" points="464.25,-134.5 464.25,-164.5 577.25,-164.5 577.25,-134.5 464.25,-134.5"/>
<text text-anchor="start" x="472.25" y="-152.5" font-family="Helvetica,sans-Serif" font-size="10.00">LADEL/include/ladel</text>
<text text-anchor="middle" x="520.75" y="-141.5" font-family="Helvetica,sans-Serif" font-size="10.00">_debug_print.h</text>
</a>
</g>
</g>
<!-- Node1&#45;&gt;Node5 -->
<g id="edge4" class="edge">
<title>Node1&#45;&gt;Node5</title>
<path fill="none" stroke="midnightblue" d="M776.09,-202.14C725.5,-191.99 654.24,-177.67 591.75,-165 587.07,-164.05 582.21,-163.06 577.33,-162.07"/>
<polygon fill="midnightblue" stroke="midnightblue" points="775.43,-205.58 785.92,-204.11 776.81,-198.72 775.43,-205.58"/>
</g>
<!-- Node6 -->
<g id="node6" class="node">
<title>Node6</title>
<g id="a_node6"><a xlink:href="ladel__col__counts_8c.html" target="_top" xlink:title=" ">
<polygon fill="white" stroke="black" points="47.75,-67.5 47.75,-97.5 159.75,-97.5 159.75,-67.5 47.75,-67.5"/>
<text text-anchor="start" x="55.75" y="-85.5" font-family="Helvetica,sans-Serif" font-size="10.00">LADEL/src/ladel_col</text>
<text text-anchor="middle" x="103.75" y="-74.5" font-family="Helvetica,sans-Serif" font-size="10.00">_counts.c</text>
</a>
</g>
</g>
<!-- Node1&#45;&gt;Node6 -->
<g id="edge20" class="edge">
<title>Node1&#45;&gt;Node6</title>
<path fill="none" stroke="midnightblue" d="M775.89,-213.63C679.11,-209.82 494.81,-198.46 341.75,-165 266.66,-148.59 182.33,-116.22 136.95,-97.59"/>
<polygon fill="midnightblue" stroke="midnightblue" points="775.99,-217.13 786.12,-214.01 776.26,-210.14 775.99,-217.13"/>
</g>
<!-- Node7 -->
<g id="node7" class="node">
<title>Node7</title>
<g id="a_node7"><a xlink:href="ladel__debug__print_8c.html" target="_top" xlink:title=" ">
<polygon fill="white" stroke="black" points="177.75,-67.5 177.75,-97.5 305.75,-97.5 305.75,-67.5 177.75,-67.5"/>
<text text-anchor="start" x="185.75" y="-85.5" font-family="Helvetica,sans-Serif" font-size="10.00">LADEL/src/ladel_debug</text>
<text text-anchor="middle" x="241.75" y="-74.5" font-family="Helvetica,sans-Serif" font-size="10.00">_print.c</text>
</a>
</g>
</g>
<!-- Node1&#45;&gt;Node7 -->
<g id="edge22" class="edge">
<title>Node1&#45;&gt;Node7</title>
<path fill="none" stroke="midnightblue" d="M775.98,-213.22C693.37,-209.06 549.03,-197.42 429.75,-165 369.34,-148.58 303.13,-116.22 267.66,-97.59"/>
<polygon fill="midnightblue" stroke="midnightblue" points="775.83,-216.71 785.99,-213.7 776.17,-209.72 775.83,-216.71"/>
</g>
<!-- Node8 -->
<g id="node8" class="node">
<title>Node8</title>
<g id="a_node8"><a xlink:href="ladel__etree_8c.html" target="_top" xlink:title=" ">
<polygon fill="white" stroke="black" points="540.25,-73 540.25,-92 671.25,-92 671.25,-73 540.25,-73"/>
<text text-anchor="middle" x="605.75" y="-80" font-family="Helvetica,sans-Serif" font-size="10.00">LADEL/src/ladel_etree.c</text>
</a>
</g>
</g>
<!-- Node1&#45;&gt;Node8 -->
<g id="edge23" class="edge">
<title>Node1&#45;&gt;Node8</title>
<path fill="none" stroke="midnightblue" d="M776.2,-201.43C747.33,-193.49 713.99,-181.73 686.75,-165 653.95,-144.85 624.57,-108.76 612.1,-92.22"/>
<polygon fill="midnightblue" stroke="midnightblue" points="775.64,-204.91 786.2,-204.09 777.43,-198.14 775.64,-204.91"/>
</g>
<!-- Node9 -->
<g id="node9" class="node">
<title>Node9</title>
<g id="a_node9"><a xlink:href="ladel__ldl__numeric_8c.html" target="_top" xlink:title=" ">
<polygon fill="white" stroke="black" points="689.75,-67.5 689.75,-97.5 799.75,-97.5 799.75,-67.5 689.75,-67.5"/>
<text text-anchor="start" x="697.75" y="-85.5" font-family="Helvetica,sans-Serif" font-size="10.00">LADEL/src/ladel_ldl</text>
<text text-anchor="middle" x="744.75" y="-74.5" font-family="Helvetica,sans-Serif" font-size="10.00">_numeric.c</text>
</a>
</g>
</g>
<!-- Node1&#45;&gt;Node9 -->
<g id="edge25" class="edge">
<title>Node1&#45;&gt;Node9</title>
<path fill="none" stroke="midnightblue" d="M776.21,-209.77C746.51,-203.51 714.14,-190.75 695.75,-165 679.64,-142.43 705.78,-114.38 725.65,-97.77"/>
<polygon fill="midnightblue" stroke="midnightblue" points="775.68,-213.23 786.16,-211.65 776.98,-206.35 775.68,-213.23"/>
</g>
<!-- Node10 -->
<g id="node10" class="node">
<title>Node10</title>
<g id="a_node10"><a xlink:href="ladel__ldl__symbolic_8c.html" target="_top" xlink:title=" ">
<polygon fill="white" stroke="black" points="817.75,-67.5 817.75,-97.5 927.75,-97.5 927.75,-67.5 817.75,-67.5"/>
<text text-anchor="start" x="825.75" y="-85.5" font-family="Helvetica,sans-Serif" font-size="10.00">LADEL/src/ladel_ldl</text>
<text text-anchor="middle" x="872.75" y="-74.5" font-family="Helvetica,sans-Serif" font-size="10.00">_symbolic.c</text>
</a>
</g>
</g>
<!-- Node1&#45;&gt;Node10 -->
<g id="edge26" class="edge">
<title>Node1&#45;&gt;Node10</title>
<path fill="none" stroke="midnightblue" d="M776.24,-201.53C730.3,-188.7 681.5,-166.68 705.75,-134 712.7,-124.64 771.73,-108.26 817.66,-96.7"/>
<polygon fill="midnightblue" stroke="midnightblue" points="775.41,-204.93 785.98,-204.13 777.22,-198.17 775.41,-204.93"/>
</g>
<!-- Node11 -->
<g id="node11" class="node">
<title>Node11</title>
<g id="a_node11"><a xlink:href="ladel__rank1__mod_8c.html" target="_top" xlink:title=" ">
<polygon fill="white" stroke="black" points="946.25,-67.5 946.25,-97.5 1071.25,-97.5 1071.25,-67.5 946.25,-67.5"/>
<text text-anchor="start" x="954.25" y="-85.5" font-family="Helvetica,sans-Serif" font-size="10.00">LADEL/src/ladel_rank1</text>
<text text-anchor="middle" x="1008.75" y="-74.5" font-family="Helvetica,sans-Serif" font-size="10.00">_mod.c</text>
</a>
</g>
</g>
<!-- Node1&#45;&gt;Node11 -->
<g id="edge32" class="edge">
<title>Node1&#45;&gt;Node11</title>
<path fill="none" stroke="midnightblue" d="M792.62,-197.36C758.45,-182.22 722.88,-159.12 743.75,-134 771.63,-100.44 893.92,-106.31 936.75,-98 939.76,-97.42 942.83,-96.82 945.94,-96.21"/>
<polygon fill="midnightblue" stroke="midnightblue" points="791.6,-200.73 802.17,-201.41 794.33,-194.28 791.6,-200.73"/>
</g>
<!-- Node12 -->
<g id="node12" class="node">
<title>Node12</title>
<g id="a_node12"><a xlink:href="ladel__upper__diag_8c.html" target="_top" xlink:title=" ">
<polygon fill="white" stroke="black" points="1089.25,-67.5 1089.25,-97.5 1214.25,-97.5 1214.25,-67.5 1089.25,-67.5"/>
<text text-anchor="start" x="1097.25" y="-85.5" font-family="Helvetica,sans-Serif" font-size="10.00">LADEL/src/ladel_upper</text>
<text text-anchor="middle" x="1151.75" y="-74.5" font-family="Helvetica,sans-Serif" font-size="10.00">_diag.c</text>
</a>
</g>
</g>
<!-- Node1&#45;&gt;Node12 -->
<g id="edge37" class="edge">
<title>Node1&#45;&gt;Node12</title>
<path fill="none" stroke="midnightblue" d="M808.98,-195.75C784.49,-178.98 758.58,-154.45 776.75,-134 821.94,-83.15 1013.59,-108.82 1080.75,-98 1083.49,-97.56 1086.27,-97.09 1089.09,-96.59"/>
<polygon fill="midnightblue" stroke="midnightblue" points="807.23,-198.78 817.52,-201.34 811.07,-192.93 807.23,-198.78"/>
</g>
<!-- Node13 -->
<g id="node13" class="node">
<title>Node13</title>
<g id="a_node13"><a xlink:href="ladel__matvec_8h.html" target="_top" xlink:title="Routines to compute matrix vector products.">
<polygon fill="white" stroke="black" points="786.25,-134.5 786.25,-164.5 899.25,-164.5 899.25,-134.5 786.25,-134.5"/>
<text text-anchor="start" x="794.25" y="-152.5" font-family="Helvetica,sans-Serif" font-size="10.00">LADEL/include/ladel</text>
<text text-anchor="middle" x="842.75" y="-141.5" font-family="Helvetica,sans-Serif" font-size="10.00">_matvec.h</text>
</a>
</g>
</g>
<!-- Node1&#45;&gt;Node13 -->
<g id="edge15" class="edge">
<title>Node1&#45;&gt;Node13</title>
<path fill="none" stroke="midnightblue" d="M842.75,-191.11C842.75,-182.15 842.75,-172.32 842.75,-164.58"/>
<polygon fill="midnightblue" stroke="midnightblue" points="839.25,-191.4 842.75,-201.4 846.25,-191.4 839.25,-191.4"/>
</g>
<!-- Node14 -->
<g id="node14" class="node">
<title>Node14</title>
<g id="a_node14"><a xlink:href="ladel__matvec_8c.html" target="_top" xlink:title=" ">
<polygon fill="white" stroke="black" points="1232.25,-73 1232.25,-92 1375.25,-92 1375.25,-73 1232.25,-73"/>
<text text-anchor="middle" x="1303.75" y="-80" font-family="Helvetica,sans-Serif" font-size="10.00">LADEL/src/ladel_matvec.c</text>
</a>
</g>
</g>
<!-- Node1&#45;&gt;Node14 -->
<g id="edge28" class="edge">
<title>Node1&#45;&gt;Node14</title>
<path fill="none" stroke="midnightblue" d="M869.92,-195.01C881.89,-185.91 896.09,-175 908.75,-165 925.86,-151.49 926.74,-142.62 946.75,-134 1060.77,-84.88 1101.08,-117.08 1223.75,-98 1235.19,-96.22 1247.51,-94.09 1258.97,-92.03"/>
<polygon fill="midnightblue" stroke="midnightblue" points="867.5,-192.46 861.65,-201.29 871.73,-198.03 867.5,-192.46"/>
</g>
<!-- Node15 -->
<g id="node15" class="node">
<title>Node15</title>
<g id="a_node15"><a xlink:href="ladel__add_8c.html" target="_top" xlink:title=" ">
<polygon fill="white" stroke="black" points="955.75,-140 955.75,-159 1079.75,-159 1079.75,-140 955.75,-140"/>
<text text-anchor="middle" x="1017.75" y="-147" font-family="Helvetica,sans-Serif" font-size="10.00">LADEL/src/ladel_add.c</text>
</a>
</g>
</g>
<!-- Node1&#45;&gt;Node15 -->
<g id="edge19" class="edge">
<title>Node1&#45;&gt;Node15</title>
<path fill="none" stroke="midnightblue" d="M890.45,-197.78C924.38,-185.18 968.46,-168.81 994.85,-159.01"/>
<polygon fill="midnightblue" stroke="midnightblue" points="888.88,-194.63 880.73,-201.4 891.32,-201.2 888.88,-194.63"/>
</g>
<!-- Node16 -->
<g id="node16" class="node">
<title>Node16</title>
<g id="a_node16"><a xlink:href="ladel__copy_8c.html" target="_top" xlink:title=" ">
<polygon fill="white" stroke="black" points="1097.75,-140 1097.75,-159 1225.75,-159 1225.75,-140 1097.75,-140"/>
<text text-anchor="middle" x="1161.75" y="-147" font-family="Helvetica,sans-Serif" font-size="10.00">LADEL/src/ladel_copy.c</text>
</a>
</g>
</g>
<!-- Node1&#45;&gt;Node16 -->
<g id="edge21" class="edge">
<title>Node1&#45;&gt;Node16</title>
<path fill="none" stroke="midnightblue" d="M909.32,-201.94C972.74,-189.01 1066.24,-169.96 1119.85,-159.04"/>
<polygon fill="midnightblue" stroke="midnightblue" points="908.52,-198.53 899.42,-203.95 909.91,-205.39 908.52,-198.53"/>
</g>
<!-- Node17 -->
<g id="node17" class="node">
<title>Node17</title>
<g id="a_node17"><a xlink:href="ladel__global_8c.html" target="_top" xlink:title=" ">
<polygon fill="white" stroke="black" points="1243.75,-140 1243.75,-159 1379.75,-159 1379.75,-140 1243.75,-140"/>
<text text-anchor="middle" x="1311.75" y="-147" font-family="Helvetica,sans-Serif" font-size="10.00">LADEL/src/ladel_global.c</text>
</a>
</g>
</g>
<!-- Node1&#45;&gt;Node17 -->
<g id="edge24" class="edge">
<title>Node1&#45;&gt;Node17</title>
<path fill="none" stroke="midnightblue" d="M909.56,-208.09C987.72,-199.14 1120.92,-183.03 1234.75,-165 1245.77,-163.25 1257.63,-161.14 1268.66,-159.07"/>
<polygon fill="midnightblue" stroke="midnightblue" points="908.92,-204.64 899.38,-209.25 909.71,-211.59 908.92,-204.64"/>
</g>
<!-- Node18 -->
<g id="node18" class="node">
<title>Node18</title>
<g id="a_node18"><a xlink:href="ladel__matmat_8c.html" target="_top" xlink:title=" ">
<polygon fill="white" stroke="black" points="1398.25,-140 1398.25,-159 1543.25,-159 1543.25,-140 1398.25,-140"/>
<text text-anchor="middle" x="1470.75" y="-147" font-family="Helvetica,sans-Serif" font-size="10.00">LADEL/src/ladel_matmat.c</text>
</a>
</g>
</g>
<!-- Node1&#45;&gt;Node18 -->
<g id="edge27" class="edge">
<title>Node1&#45;&gt;Node18</title>
<path fill="none" stroke="midnightblue" d="M909.79,-211.1C1012.98,-203.91 1216.81,-188.11 1388.75,-165 1400.93,-163.36 1414.06,-161.21 1426.17,-159.07"/>
<polygon fill="midnightblue" stroke="midnightblue" points="909.26,-207.62 899.52,-211.8 909.74,-214.61 909.26,-207.62"/>
</g>
<!-- Node19 -->
<g id="node19" class="node">
<title>Node19</title>
<g id="a_node19"><a xlink:href="ladel__pattern_8c.html" target="_top" xlink:title=" ">
<polygon fill="white" stroke="black" points="1561.25,-140 1561.25,-159 1702.25,-159 1702.25,-140 1561.25,-140"/>
<text text-anchor="middle" x="1631.75" y="-147" font-family="Helvetica,sans-Serif" font-size="10.00">LADEL/src/ladel_pattern.c</text>
</a>
</g>
</g>
<!-- Node1&#45;&gt;Node19 -->
<g id="edge29" class="edge">
<title>Node1&#45;&gt;Node19</title>
<path fill="none" stroke="midnightblue" d="M909.84,-213.2C1036.11,-208.33 1317.55,-194.86 1552.75,-165 1564.93,-163.45 1578.07,-161.26 1590.07,-159.04"/>
<polygon fill="midnightblue" stroke="midnightblue" points="909.42,-209.71 899.56,-213.59 909.69,-216.71 909.42,-209.71"/>
</g>
<!-- Node20 -->
<g id="node20" class="node">
<title>Node20</title>
<g id="a_node20"><a xlink:href="ladel__permutation_8c.html" target="_top" xlink:title=" ">
<polygon fill="white" stroke="black" points="1720.75,-140 1720.75,-159 1886.75,-159 1886.75,-140 1720.75,-140"/>
<text text-anchor="middle" x="1803.75" y="-147" font-family="Helvetica,sans-Serif" font-size="10.00">LADEL/src/ladel_permutation.c</text>
</a>
</g>
</g>
<!-- Node1&#45;&gt;Node20 -->
<g id="edge30" class="edge">
<title>Node1&#45;&gt;Node20</title>
<path fill="none" stroke="midnightblue" d="M909.47,-213.86C1055.35,-209.78 1413.52,-197.09 1711.75,-165 1725.9,-163.48 1741.19,-161.29 1755.17,-159.07"/>
<polygon fill="midnightblue" stroke="midnightblue" points="909.24,-210.36 899.34,-214.14 909.43,-217.36 909.24,-210.36"/>
</g>
<!-- Node21 -->
<g id="node21" class="node">
<title>Node21</title>
<g id="a_node21"><a xlink:href="ladel__postorder_8c.html" target="_top" xlink:title=" ">
<polygon fill="white" stroke="black" points="1904.75,-140 1904.75,-159 2056.75,-159 2056.75,-140 1904.75,-140"/>
<text text-anchor="middle" x="1980.75" y="-147" font-family="Helvetica,sans-Serif" font-size="10.00">LADEL/src/ladel_postorder.c</text>
</a>
</g>
</g>
<!-- Node1&#45;&gt;Node21 -->
<g id="edge31" class="edge">
<title>Node1&#45;&gt;Node21</title>
<path fill="none" stroke="midnightblue" d="M909.55,-215.1C1076.39,-213.48 1524.62,-205.41 1895.75,-165 1909.15,-163.54 1923.63,-161.32 1936.78,-159.04"/>
<polygon fill="midnightblue" stroke="midnightblue" points="909.41,-211.6 899.44,-215.19 909.48,-218.6 909.41,-211.6"/>
</g>
<!-- Node22 -->
<g id="node22" class="node">
<title>Node22</title>
<g id="a_node22"><a xlink:href="ladel__scale_8c.html" target="_top" xlink:title=" ">
<polygon fill="white" stroke="black" points="2075.25,-140 2075.25,-159 2206.25,-159 2206.25,-140 2075.25,-140"/>
<text text-anchor="middle" x="2140.75" y="-147" font-family="Helvetica,sans-Serif" font-size="10.00">LADEL/src/ladel_scale.c</text>
</a>
</g>
</g>
<!-- Node1&#45;&gt;Node22 -->
<g id="edge34" class="edge">
<title>Node1&#45;&gt;Node22</title>
<path fill="none" stroke="midnightblue" d="M909.47,-214.06C1130.69,-209.09 1838.89,-191.46 2065.75,-165 2077.74,-163.6 2090.68,-161.37 2102.39,-159.06"/>
<polygon fill="midnightblue" stroke="midnightblue" points="909.23,-210.57 899.31,-214.29 909.38,-217.57 909.23,-210.57"/>
</g>
<!-- Node23 -->
<g id="node23" class="node">
<title>Node23</title>
<g id="a_node23"><a xlink:href="ladel__submatrix_8c.html" target="_top" xlink:title=" ">
<polygon fill="white" stroke="black" points="2224.25,-140 2224.25,-159 2379.25,-159 2379.25,-140 2224.25,-140"/>
<text text-anchor="middle" x="2301.75" y="-147" font-family="Helvetica,sans-Serif" font-size="10.00">LADEL/src/ladel_submatrix.c</text>
</a>
</g>
</g>
<!-- Node1&#45;&gt;Node23 -->
<g id="edge35" class="edge">
<title>Node1&#45;&gt;Node23</title>
<path fill="none" stroke="midnightblue" d="M909.52,-216.12C1108.67,-217.3 1715.75,-216.13 2215.75,-165 2229.46,-163.6 2244.29,-161.36 2257.71,-159.06"/>
<polygon fill="midnightblue" stroke="midnightblue" points="909.52,-212.62 899.5,-216.05 909.48,-219.62 909.52,-212.62"/>
</g>
<!-- Node24 -->
<g id="node24" class="node">
<title>Node24</title>
<g id="a_node24"><a xlink:href="ladel__transpose_8c.html" target="_top" xlink:title=" ">
<polygon fill="white" stroke="black" points="2397.75,-140 2397.75,-159 2551.75,-159 2551.75,-140 2397.75,-140"/>
<text text-anchor="middle" x="2474.75" y="-147" font-family="Helvetica,sans-Serif" font-size="10.00">LADEL/src/ladel_transpose.c</text>
</a>
</g>
</g>
<!-- Node1&#45;&gt;Node24 -->
<g id="edge36" class="edge">
<title>Node1&#45;&gt;Node24</title>
<path fill="none" stroke="midnightblue" d="M909.9,-214.51C1167.87,-210.52 2095.38,-194.39 2388.75,-165 2402.61,-163.61 2417.62,-161.35 2431.16,-159.02"/>
<polygon fill="midnightblue" stroke="midnightblue" points="909.51,-211.01 899.57,-214.67 909.62,-218.01 909.51,-211.01"/>
</g>
<!-- Node2&#45;&gt;Node3 -->
<g id="edge2" class="edge">
<title>Node2&#45;&gt;Node3</title>
<path fill="none" stroke="midnightblue" d="M399.4,-67.44C378.01,-54.57 347.03,-35.93 329.09,-25.13"/>
<polygon fill="midnightblue" stroke="midnightblue" points="397.82,-70.58 408.19,-72.73 401.43,-64.58 397.82,-70.58"/>
</g>
<!-- Node2&#45;&gt;Node4 -->
<g id="edge3" class="edge">
<title>Node2&#45;&gt;Node4</title>
<path fill="none" stroke="midnightblue" d="M428.14,-63.06C431.16,-52.75 434.85,-40.1 437.64,-30.59"/>
<polygon fill="midnightblue" stroke="midnightblue" points="424.76,-62.15 425.32,-72.73 431.48,-64.12 424.76,-62.15"/>
</g>
<!-- Node5&#45;&gt;Node2 -->
<g id="edge5" class="edge">
<title>Node5&#45;&gt;Node2</title>
<path fill="none" stroke="midnightblue" d="M491.06,-128.81C472.53,-116.51 449.6,-101.3 435.58,-92.01"/>
<polygon fill="midnightblue" stroke="midnightblue" points="489.22,-131.79 499.49,-134.4 493.09,-125.95 489.22,-131.79"/>
</g>
<!-- Node5&#45;&gt;Node3 -->
<g id="edge6" class="edge">
<title>Node5&#45;&gt;Node3</title>
<path fill="none" stroke="midnightblue" d="M453.86,-141.44C420.25,-134.9 380.83,-122.29 352.75,-98 329.85,-78.18 319.84,-41.6 316.33,-25.04"/>
<polygon fill="midnightblue" stroke="midnightblue" points="453.62,-144.95 464.08,-143.28 454.86,-138.07 453.62,-144.95"/>
</g>
<!-- Node5&#45;&gt;Node4 -->
<g id="edge13" class="edge">
<title>Node5&#45;&gt;Node4</title>
<path fill="none" stroke="midnightblue" d="M515.53,-124.19C511.16,-107.27 503.85,-84.67 492.75,-67 484.01,-53.07 470.72,-40.08 459.9,-30.76"/>
<polygon fill="midnightblue" stroke="midnightblue" points="512.23,-125.48 517.98,-134.38 519.04,-123.84 512.23,-125.48"/>
</g>
<!-- Node5&#45;&gt;Node6 -->
<g id="edge7" class="edge">
<title>Node5&#45;&gt;Node6</title>
<path fill="none" stroke="midnightblue" d="M454,-140.48C383.02,-131.59 267.59,-116.09 168.75,-98 165.91,-97.48 163,-96.92 160.07,-96.34"/>
<polygon fill="midnightblue" stroke="midnightblue" points="453.79,-143.98 464.14,-141.74 454.65,-137.03 453.79,-143.98"/>
</g>
<!-- Node5&#45;&gt;Node7 -->
<g id="edge8" class="edge">
<title>Node5&#45;&gt;Node7</title>
<path fill="none" stroke="midnightblue" d="M454.02,-132.95C407.74,-122.17 346.61,-107.93 301.85,-97.5"/>
<polygon fill="midnightblue" stroke="midnightblue" points="453.42,-136.41 463.96,-135.27 455.01,-129.59 453.42,-136.41"/>
</g>
<!-- Node5&#45;&gt;Node8 -->
<g id="edge9" class="edge">
<title>Node5&#45;&gt;Node8</title>
<path fill="none" stroke="midnightblue" d="M547.55,-128.01C563.33,-115.94 582.47,-101.3 594.38,-92.19"/>
<polygon fill="midnightblue" stroke="midnightblue" points="545.01,-125.54 539.2,-134.4 549.27,-131.1 545.01,-125.54"/>
</g>
<!-- Node5&#45;&gt;Node9 -->
<g id="edge10" class="edge">
<title>Node5&#45;&gt;Node9</title>
<path fill="none" stroke="midnightblue" d="M579.06,-131.58C615.45,-121.02 661.73,-107.59 696.13,-97.61"/>
<polygon fill="midnightblue" stroke="midnightblue" points="577.71,-128.33 569.08,-134.48 579.66,-135.05 577.71,-128.33"/>
</g>
<!-- Node5&#45;&gt;Node10 -->
<g id="edge11" class="edge">
<title>Node5&#45;&gt;Node10</title>
<path fill="none" stroke="midnightblue" d="M587.68,-137.72C646.17,-128.08 733.28,-113.16 808.75,-98 811.66,-97.42 814.63,-96.8 817.63,-96.17"/>
<polygon fill="midnightblue" stroke="midnightblue" points="586.77,-134.33 577.47,-139.4 587.9,-141.23 586.77,-134.33"/>
</g>
<!-- Node5&#45;&gt;Node11 -->
<g id="edge12" class="edge">
<title>Node5&#45;&gt;Node11</title>
<path fill="none" stroke="midnightblue" d="M587.45,-142.02C669.79,-133.65 814.02,-117.78 936.75,-98 939.77,-97.51 942.86,-96.99 945.98,-96.44"/>
<polygon fill="midnightblue" stroke="midnightblue" points="587.07,-138.54 577.47,-143.03 587.77,-145.51 587.07,-138.54"/>
</g>
<!-- Node5&#45;&gt;Node12 -->
<g id="edge14" class="edge">
<title>Node5&#45;&gt;Node12</title>
<path fill="none" stroke="midnightblue" d="M587.38,-143.43C714.47,-133.6 987.19,-111.73 1080.75,-98 1083.49,-97.6 1086.28,-97.16 1089.1,-96.69"/>
<polygon fill="midnightblue" stroke="midnightblue" points="587.09,-139.94 577.39,-144.2 587.63,-146.92 587.09,-139.94"/>
</g>
<!-- Node13&#45;&gt;Node2 -->
<g id="edge16" class="edge">
<title>Node13&#45;&gt;Node2</title>
<path fill="none" stroke="midnightblue" d="M776.09,-138.18C693.58,-125.41 554.59,-103.9 477.83,-92.02"/>
<polygon fill="midnightblue" stroke="midnightblue" points="775.69,-141.66 786.11,-139.73 776.76,-134.75 775.69,-141.66"/>
</g>
<!-- Node13&#45;&gt;Node14 -->
<g id="edge17" class="edge">
<title>Node13&#45;&gt;Node14</title>
<path fill="none" stroke="midnightblue" d="M909.28,-134.73C910.79,-134.48 912.28,-134.24 913.75,-134 1050.72,-112.1 1086.56,-118.38 1223.75,-98 1235.34,-96.28 1247.83,-94.15 1259.41,-92.06"/>
<polygon fill="midnightblue" stroke="midnightblue" points="908.49,-131.32 899.26,-136.51 909.71,-138.21 908.49,-131.32"/>
</g>
</g>
</svg>
        <g id="navigator" transform="translate(0 0)" fill="#404254">
                <rect fill="#f2f5e9" fill-opacity="0.5" stroke="#606060" stroke-width=".5" x="0" y="0" width="60" height="60"/>
                <use id="zoomplus" xlink:href="#zoomPlus" x="17" y="9" onmousedown="handleZoom(evt,'in')"/>
                <use id="zoomminus" xlink:href="#zoomMin" x="42" y="9" onmousedown="handleZoom(evt,'out')"/>
                <use id="reset" xlink:href="#resetDef" x="30" y="36" onmousedown="handleReset()"/>
                <g id="arrowUp" xlink:href="#dirArrow" transform="translate(30 24)" onmousedown="handlePan(0,-1)">
                  <use xlink:href="#rim" fill="#404040">
                        <set attributeName="fill" to="#808080" begin="arrowUp.mouseover" end="arrowUp.mouseout"/>
                  </use>
                  <path fill="none" stroke="white" stroke-width="1.5" d="M0,-3.0v7 M-2.5,-0.5L0,-3.0L2.5,-0.5"/>
                </g>
                <g id="arrowRight" xlink:href="#dirArrow" transform="rotate(90) translate(36 -43)" onmousedown="handlePan(1,0)">
                  <use xlink:href="#rim" fill="#404040">
                        <set attributeName="fill" to="#808080" begin="arrowRight.mouseover" end="arrowRight.mouseout"/>
                  </use>
                  <path fill="none" stroke="white" stroke-width="1.5" d="M0,-3.0v7 M-2.5,-0.5L0,-3.0L2.5,-0.5"/>
                </g>
                <g id="arrowDown" xlink:href="#dirArrow" transform="rotate(180) translate(-30 -48)" onmousedown="handlePan(0,1)">
                  <use xlink:href="#rim" fill="#404040">
                        <set attributeName="fill" to="#808080" begin="arrowDown.mouseover" end="arrowDown.mouseout"/>
                  </use>
                  <path fill="none" stroke="white" stroke-width="1.5" d="M0,-3.0v7 M-2.5,-0.5L0,-3.0L2.5,-0.5"/>
                </g>
                <g id="arrowLeft" xlink:href="#dirArrow" transform="rotate(270) translate(-36 17)" onmousedown="handlePan(-1,0)">
                  <use xlink:href="#rim" fill="#404040">
                        <set attributeName="fill" to="#808080" begin="arrowLeft.mouseover" end="arrowLeft.mouseout"/>
                  </use>
                  <path fill="none" stroke="white" stroke-width="1.5" d="M0,-3.0v7 M-2.5,-0.5L0,-3.0L2.5,-0.5"/>
                </g>
        </g>
        <svg viewBox="0 0 15 15" width="100%" height="30px" preserveAspectRatio="xMaxYMin meet">
         <g id="arrow_out" transform="scale(0.3 0.3)">
          <a xlink:href="ladel__global_8h__dep__incl_org.svg" target="_base">
           <rect id="button" ry="5" rx="5" y="6" x="6" height="38" width="38"
                fill="#f2f5e9" fill-opacity="0.5" stroke="#606060" stroke-width="1.0"/>
           <path id="arrow"
             d="M 11.500037,31.436501 C 11.940474,20.09759 22.043105,11.32322 32.158766,21.979434 L 37.068811,17.246167 C 37.068811,17.246167 37.088388,32 37.088388,32 L 22.160133,31.978069 C 22.160133,31.978069 26.997745,27.140456 26.997745,27.140456 C 18.528582,18.264221 13.291696,25.230495 11.500037,31.436501 z"
             style="fill:#404040;"/>
          </a>
         </g>
        </svg>
</svg>
