<?xml version="1.0" encoding="UTF-8" standalone="no"?>
<!DOCTYPE svg PUBLIC "-//W3C//DTD SVG 1.1//EN"
 "http://www.w3.org/Graphics/SVG/1.1/DTD/svg11.dtd">
<!-- Generated by graphviz version 2.43.0 (0)
 -->
<!-- Title: LADEL/include/ladel.h Pages: 1 -->
<svg width="1506pt" height="308pt"
 viewBox="0.00 0.00 1506.16 308.00" xmlns="http://www.w3.org/2000/svg" xmlns:xlink="http://www.w3.org/1999/xlink">
<g id="graph0" class="graph" transform="scale(1 1) rotate(0) translate(4 304)">
<title>LADEL/include/ladel.h</title>
<polygon fill="white" stroke="transparent" points="-4,4 -4,-304 1502.16,-304 1502.16,4 -4,4"/>
<!-- Node1 -->
<g id="node1" class="node">
<title>Node1</title>
<g id="a_node1"><a xlink:title="LADEL main include file.">
<polygon fill="#bfbfbf" stroke="black" points="714.5,-280.5 714.5,-299.5 836.5,-299.5 836.5,-280.5 714.5,-280.5"/>
<text text-anchor="middle" x="775.5" y="-287.5" font-family="Helvetica,sans-Serif" font-size="10.00">LADEL/include/ladel.h</text>
</a>
</g>
</g>
<!-- Node2 -->
<g id="node2" class="node">
<title>Node2</title>
<g id="a_node2"><a xlink:href="ladel__col__counts_8h.html" target="_top" xlink:title="Computes the col counts needed for the symbolic factorization (after etree and postorder).">
<polygon fill="white" stroke="black" points="1379,-168.5 1379,-187.5 1486,-187.5 1486,-168.5 1379,-168.5"/>
<text text-anchor="middle" x="1432.5" y="-175.5" font-family="Helvetica,sans-Serif" font-size="10.00">ladel_col_counts.h</text>
</a>
</g>
</g>
<!-- Node1&#45;&gt;Node2 -->
<g id="edge1" class="edge">
<title>Node1&#45;&gt;Node2</title>
<path fill="none" stroke="midnightblue" d="M836.67,-289.68C998.04,-290.85 1425.78,-289.58 1468.5,-244 1482.25,-229.33 1465.92,-208.44 1451.03,-194.33"/>
<polygon fill="midnightblue" stroke="midnightblue" points="1453.34,-191.69 1443.55,-187.64 1448.67,-196.91 1453.34,-191.69"/>
</g>
<!-- Node3 -->
<g id="node3" class="node">
<title>Node3</title>
<g id="a_node3"><a xlink:href="ladel__types_8h.html" target="_top" xlink:title="Structures and types used in LADEL routines.">
<polygon fill="white" stroke="black" points="815.5,-56.5 815.5,-75.5 897.5,-75.5 897.5,-56.5 815.5,-56.5"/>
<text text-anchor="middle" x="856.5" y="-63.5" font-family="Helvetica,sans-Serif" font-size="10.00">ladel_types.h</text>
</a>
</g>
</g>
<!-- Node1&#45;&gt;Node3 -->
<g id="edge41" class="edge">
<title>Node1&#45;&gt;Node3</title>
<path fill="none" stroke="midnightblue" d="M836.73,-289.31C999.95,-289.56 1436.37,-286.22 1484.5,-244 1503.57,-227.27 1493.04,-213.25 1495.5,-188 1496.36,-179.15 1500.4,-175.42 1495.5,-168 1460.62,-115.15 1425.91,-127.43 1364.5,-112 1201.41,-71.02 1000.69,-66.08 907.95,-66.26"/>
<polygon fill="midnightblue" stroke="midnightblue" points="907.71,-62.76 897.72,-66.3 907.74,-69.76 907.71,-62.76"/>
</g>
<!-- Node6 -->
<g id="node6" class="node">
<title>Node6</title>
<g id="a_node6"><a xlink:href="ladel__constants_8h.html" target="_top" xlink:title="Constants and macros used in LADEL.">
<polygon fill="white" stroke="black" points="180.5,-112.5 180.5,-131.5 282.5,-131.5 282.5,-112.5 180.5,-112.5"/>
<text text-anchor="middle" x="231.5" y="-119.5" font-family="Helvetica,sans-Serif" font-size="10.00">ladel_constants.h</text>
</a>
</g>
</g>
<!-- Node1&#45;&gt;Node6 -->
<g id="edge5" class="edge">
<title>Node1&#45;&gt;Node6</title>
<path fill="none" stroke="midnightblue" d="M714.23,-289.06C594.18,-288.33 332.71,-282.22 252.5,-244 221.29,-229.13 211.44,-220.06 198.5,-188 191.58,-170.86 203.29,-152.13 214.63,-139.19"/>
<polygon fill="midnightblue" stroke="midnightblue" points="217.49,-141.27 221.83,-131.61 212.41,-136.45 217.49,-141.27"/>
</g>
<!-- Node7 -->
<g id="node7" class="node">
<title>Node7</title>
<g id="a_node7"><a xlink:href="ladel__copy_8h.html" target="_top" xlink:title="Routines to copy matrices and vectors.">
<polygon fill="white" stroke="black" points="85,-112.5 85,-131.5 162,-131.5 162,-112.5 85,-112.5"/>
<text text-anchor="middle" x="123.5" y="-119.5" font-family="Helvetica,sans-Serif" font-size="10.00">ladel_copy.h</text>
</a>
</g>
</g>
<!-- Node1&#45;&gt;Node7 -->
<g id="edge6" class="edge">
<title>Node1&#45;&gt;Node7</title>
<path fill="none" stroke="midnightblue" d="M714.49,-286.85C578.76,-281.66 260.39,-267.17 217.5,-244 174.54,-220.79 144.86,-168.66 131.5,-141.01"/>
<polygon fill="midnightblue" stroke="midnightblue" points="134.58,-139.32 127.19,-131.72 128.23,-142.27 134.58,-139.32"/>
</g>
<!-- Node8 -->
<g id="node8" class="node">
<title>Node8</title>
<g id="a_node8"><a xlink:href="ladel__debug__print_8h.html" target="_top" xlink:title="Routines to print out matrices and vectors.">
<polygon fill="white" stroke="black" points="0,-224.5 0,-243.5 113,-243.5 113,-224.5 0,-224.5"/>
<text text-anchor="middle" x="56.5" y="-231.5" font-family="Helvetica,sans-Serif" font-size="10.00">ladel_debug_print.h</text>
</a>
</g>
</g>
<!-- Node1&#45;&gt;Node8 -->
<g id="edge8" class="edge">
<title>Node1&#45;&gt;Node8</title>
<path fill="none" stroke="midnightblue" d="M714.2,-285.91C599.08,-279.84 342.71,-265.1 127.5,-244 126.03,-243.86 124.55,-243.71 123.05,-243.55"/>
<polygon fill="midnightblue" stroke="midnightblue" points="123.37,-240.07 113.05,-242.46 122.61,-247.02 123.37,-240.07"/>
</g>
<!-- Node9 -->
<g id="node9" class="node">
<title>Node9</title>
<g id="a_node9"><a xlink:href="ladel__global_8h.html" target="_top" xlink:title="Memory allocation routines.">
<polygon fill="white" stroke="black" points="208,-168.5 208,-187.5 293,-187.5 293,-168.5 208,-168.5"/>
<text text-anchor="middle" x="250.5" y="-175.5" font-family="Helvetica,sans-Serif" font-size="10.00">ladel_global.h</text>
</a>
</g>
</g>
<!-- Node1&#45;&gt;Node9 -->
<g id="edge17" class="edge">
<title>Node1&#45;&gt;Node9</title>
<path fill="none" stroke="midnightblue" d="M714.06,-287.37C586.76,-283.44 303.19,-271.67 269.5,-244 256.03,-232.94 251.79,-212.9 250.61,-197.98"/>
<polygon fill="midnightblue" stroke="midnightblue" points="254.1,-197.66 250.19,-187.81 247.1,-197.94 254.1,-197.66"/>
</g>
<!-- Node11 -->
<g id="node11" class="node">
<title>Node11</title>
<g id="a_node11"><a xlink:href="ladel__etree_8h.html" target="_top" xlink:title="Routines to compute the elimination tree of a matrix.">
<polygon fill="white" stroke="black" points="349.5,-168.5 349.5,-187.5 429.5,-187.5 429.5,-168.5 349.5,-168.5"/>
<text text-anchor="middle" x="389.5" y="-175.5" font-family="Helvetica,sans-Serif" font-size="10.00">ladel_etree.h</text>
</a>
</g>
</g>
<!-- Node1&#45;&gt;Node11 -->
<g id="edge15" class="edge">
<title>Node1&#45;&gt;Node11</title>
<path fill="none" stroke="midnightblue" d="M714.3,-280.79C666.8,-273.56 599.64,-261.44 542.5,-244 496.62,-230 445.82,-206.78 415.83,-192.21"/>
<polygon fill="midnightblue" stroke="midnightblue" points="417.01,-188.89 406.49,-187.63 413.93,-195.18 417.01,-188.89"/>
</g>
<!-- Node12 -->
<g id="node12" class="node">
<title>Node12</title>
<g id="a_node12"><a xlink:href="ladel__ldl__numeric_8h.html" target="_top" xlink:title="The numerical part of the factorization.">
<polygon fill="white" stroke="black" points="447.5,-168.5 447.5,-187.5 559.5,-187.5 559.5,-168.5 447.5,-168.5"/>
<text text-anchor="middle" x="503.5" y="-175.5" font-family="Helvetica,sans-Serif" font-size="10.00">ladel_ldl_numeric.h</text>
</a>
</g>
</g>
<!-- Node1&#45;&gt;Node12 -->
<g id="edge18" class="edge">
<title>Node1&#45;&gt;Node12</title>
<path fill="none" stroke="midnightblue" d="M714.29,-283.83C672.66,-278.34 617.39,-267.06 573.5,-244 550.67,-232.01 529.75,-210.6 516.84,-195.65"/>
<polygon fill="midnightblue" stroke="midnightblue" points="519.31,-193.14 510.21,-187.7 513.93,-197.62 519.31,-193.14"/>
</g>
<!-- Node13 -->
<g id="node13" class="node">
<title>Node13</title>
<g id="a_node13"><a xlink:href="ladel__ldl__symbolic_8h.html" target="_top" xlink:title="The symbolic part of the factorization.">
<polygon fill="white" stroke="black" points="527.5,-112.5 527.5,-131.5 643.5,-131.5 643.5,-112.5 527.5,-112.5"/>
<text text-anchor="middle" x="585.5" y="-119.5" font-family="Helvetica,sans-Serif" font-size="10.00">ladel_ldl_symbolic.h</text>
</a>
</g>
</g>
<!-- Node1&#45;&gt;Node13 -->
<g id="edge20" class="edge">
<title>Node1&#45;&gt;Node13</title>
<path fill="none" stroke="midnightblue" d="M750.1,-280.42C713.18,-266.68 644.92,-236.27 606.5,-188 595.89,-174.68 590.58,-155.85 587.96,-141.88"/>
<polygon fill="midnightblue" stroke="midnightblue" points="591.4,-141.25 586.38,-131.92 584.49,-142.34 591.4,-141.25"/>
</g>
<!-- Node14 -->
<g id="node14" class="node">
<title>Node14</title>
<g id="a_node14"><a xlink:href="ladel__matvec_8h.html" target="_top" xlink:title="Routines to compute matrix vector products.">
<polygon fill="white" stroke="black" points="278.5,-224.5 278.5,-243.5 370.5,-243.5 370.5,-224.5 278.5,-224.5"/>
<text text-anchor="middle" x="324.5" y="-231.5" font-family="Helvetica,sans-Serif" font-size="10.00">ladel_matvec.h</text>
</a>
</g>
</g>
<!-- Node1&#45;&gt;Node14 -->
<g id="edge22" class="edge">
<title>Node1&#45;&gt;Node14</title>
<path fill="none" stroke="midnightblue" d="M714.21,-281.66C626.26,-271.13 465.54,-251.89 380.58,-241.71"/>
<polygon fill="midnightblue" stroke="midnightblue" points="380.95,-238.23 370.6,-240.52 380.12,-245.18 380.95,-238.23"/>
</g>
<!-- Node15 -->
<g id="node15" class="node">
<title>Node15</title>
<g id="a_node15"><a xlink:href="ladel__matmat_8h.html" target="_top" xlink:title="Routines to compute matrix matrix products. For now only &#160;and , with &#160;a diagonal matrix,...">
<polygon fill="white" stroke="black" points="615.5,-168.5 615.5,-187.5 709.5,-187.5 709.5,-168.5 615.5,-168.5"/>
<text text-anchor="middle" x="662.5" y="-175.5" font-family="Helvetica,sans-Serif" font-size="10.00">ladel_matmat.h</text>
</a>
</g>
</g>
<!-- Node1&#45;&gt;Node15 -->
<g id="edge25" class="edge">
<title>Node1&#45;&gt;Node15</title>
<path fill="none" stroke="midnightblue" d="M764.86,-280.34C754.15,-271.5 737.28,-257.23 723.5,-244 706.86,-228.02 688.92,-208.61 676.83,-195.19"/>
<polygon fill="midnightblue" stroke="midnightblue" points="679.4,-192.81 670.12,-187.68 674.18,-197.47 679.4,-192.81"/>
</g>
<!-- Node16 -->
<g id="node16" class="node">
<title>Node16</title>
<g id="a_node16"><a xlink:href="ladel__pattern_8h.html" target="_top" xlink:title="Routines to compute the pattern of the result of a backsolve.">
<polygon fill="white" stroke="black" points="699.5,-112.5 699.5,-131.5 789.5,-131.5 789.5,-112.5 699.5,-112.5"/>
<text text-anchor="middle" x="744.5" y="-119.5" font-family="Helvetica,sans-Serif" font-size="10.00">ladel_pattern.h</text>
</a>
</g>
</g>
<!-- Node1&#45;&gt;Node16 -->
<g id="edge27" class="edge">
<title>Node1&#45;&gt;Node16</title>
<path fill="none" stroke="midnightblue" d="M773.86,-280.36C770.56,-262.9 762.87,-222.2 756.5,-188 753.61,-172.47 750.35,-154.84 747.97,-141.87"/>
<polygon fill="midnightblue" stroke="midnightblue" points="751.37,-141.04 746.12,-131.83 744.49,-142.3 751.37,-141.04"/>
</g>
<!-- Node17 -->
<g id="node17" class="node">
<title>Node17</title>
<g id="a_node17"><a xlink:href="ladel__permutation_8h.html" target="_top" xlink:title="Routines to permute vectors and matrices.">
<polygon fill="white" stroke="black" points="766,-168.5 766,-187.5 881,-187.5 881,-168.5 766,-168.5"/>
<text text-anchor="middle" x="823.5" y="-175.5" font-family="Helvetica,sans-Serif" font-size="10.00">ladel_permutation.h</text>
</a>
</g>
</g>
<!-- Node1&#45;&gt;Node17 -->
<g id="edge29" class="edge">
<title>Node1&#45;&gt;Node17</title>
<path fill="none" stroke="midnightblue" d="M778.25,-280.44C782.37,-267.86 790.63,-243.75 799.5,-224 803.62,-214.81 808.82,-204.9 813.32,-196.73"/>
<polygon fill="midnightblue" stroke="midnightblue" points="816.5,-198.22 818.35,-187.79 810.4,-194.79 816.5,-198.22"/>
</g>
<!-- Node18 -->
<g id="node18" class="node">
<title>Node18</title>
<g id="a_node18"><a xlink:href="ladel__postorder_8h.html" target="_top" xlink:title="Routine to compute the postordering of the elimination tree.">
<polygon fill="white" stroke="black" points="846,-112.5 846,-131.5 947,-131.5 947,-112.5 846,-112.5"/>
<text text-anchor="middle" x="896.5" y="-119.5" font-family="Helvetica,sans-Serif" font-size="10.00">ladel_postorder.h</text>
</a>
</g>
</g>
<!-- Node1&#45;&gt;Node18 -->
<g id="edge31" class="edge">
<title>Node1&#45;&gt;Node18</title>
<path fill="none" stroke="midnightblue" d="M782.64,-280.47C793.69,-267.52 815.93,-242.44 837.5,-224 858.87,-205.74 875.14,-212.16 889.5,-188 897.75,-174.13 898.99,-155.61 898.47,-141.89"/>
<polygon fill="midnightblue" stroke="midnightblue" points="901.94,-141.42 897.73,-131.7 894.96,-141.93 901.94,-141.42"/>
</g>
<!-- Node19 -->
<g id="node19" class="node">
<title>Node19</title>
<g id="a_node19"><a xlink:href="ladel__rank1__mod_8h.html" target="_top" xlink:title="Helper routines for the rank1_update function.">
<polygon fill="white" stroke="black" points="937.5,-168.5 937.5,-187.5 1047.5,-187.5 1047.5,-168.5 937.5,-168.5"/>
<text text-anchor="middle" x="992.5" y="-175.5" font-family="Helvetica,sans-Serif" font-size="10.00">ladel_rank1_mod.h</text>
</a>
</g>
</g>
<!-- Node1&#45;&gt;Node19 -->
<g id="edge33" class="edge">
<title>Node1&#45;&gt;Node19</title>
<path fill="none" stroke="midnightblue" d="M787.02,-280.36C805.15,-267.04 841.75,-241.22 875.5,-224 901.45,-210.76 932.26,-199.06 955.74,-190.91"/>
<polygon fill="midnightblue" stroke="midnightblue" points="956.99,-194.18 965.32,-187.64 954.73,-187.56 956.99,-194.18"/>
</g>
<!-- Node20 -->
<g id="node20" class="node">
<title>Node20</title>
<g id="a_node20"><a xlink:href="ladel__row__mod_8h.html" target="_top" xlink:title="Routines for the row add/delete updates to a factorization are defined in ladel_row_mod....">
<polygon fill="white" stroke="black" points="1003.5,-112.5 1003.5,-131.5 1103.5,-131.5 1103.5,-112.5 1003.5,-112.5"/>
<text text-anchor="middle" x="1053.5" y="-119.5" font-family="Helvetica,sans-Serif" font-size="10.00">ladel_row_mod.h</text>
</a>
</g>
</g>
<!-- Node1&#45;&gt;Node20 -->
<g id="edge35" class="edge">
<title>Node1&#45;&gt;Node20</title>
<path fill="none" stroke="midnightblue" d="M795.02,-280.44C814.76,-271.68 846.03,-257.47 872.5,-244 888.81,-235.7 891.45,-230.67 908.5,-224 971.54,-199.34 1014.67,-241.23 1056.5,-188 1066.74,-174.98 1064.26,-155.55 1060.28,-141.32"/>
<polygon fill="midnightblue" stroke="midnightblue" points="1063.55,-140.08 1057.13,-131.65 1056.9,-142.25 1063.55,-140.08"/>
</g>
<!-- Node21 -->
<g id="node21" class="node">
<title>Node21</title>
<g id="a_node21"><a xlink:href="ladel__scale_8h.html" target="_top" xlink:title="Routines to scale the columns and rows of a matrix, or the whole matrix itself.">
<polygon fill="white" stroke="black" points="917.5,-224.5 917.5,-243.5 997.5,-243.5 997.5,-224.5 917.5,-224.5"/>
<text text-anchor="middle" x="957.5" y="-231.5" font-family="Helvetica,sans-Serif" font-size="10.00">ladel_scale.h</text>
</a>
</g>
</g>
<!-- Node1&#45;&gt;Node21 -->
<g id="edge37" class="edge">
<title>Node1&#45;&gt;Node21</title>
<path fill="none" stroke="midnightblue" d="M804.34,-280.44C835.36,-271.24 884.83,-256.56 919.12,-246.39"/>
<polygon fill="midnightblue" stroke="midnightblue" points="920.21,-249.72 928.8,-243.52 918.21,-243.01 920.21,-249.72"/>
</g>
<!-- Node22 -->
<g id="node22" class="node">
<title>Node22</title>
<g id="a_node22"><a xlink:href="ladel__transpose_8h.html" target="_top" xlink:title="Routine to compute the transpose of a matrix.">
<polygon fill="white" stroke="black" points="1016,-224.5 1016,-243.5 1119,-243.5 1119,-224.5 1016,-224.5"/>
<text text-anchor="middle" x="1067.5" y="-231.5" font-family="Helvetica,sans-Serif" font-size="10.00">ladel_transpose.h</text>
</a>
</g>
</g>
<!-- Node1&#45;&gt;Node22 -->
<g id="edge39" class="edge">
<title>Node1&#45;&gt;Node22</title>
<path fill="none" stroke="midnightblue" d="M821.77,-280.44C873.24,-270.92 956.39,-255.55 1011.5,-245.36"/>
<polygon fill="midnightblue" stroke="midnightblue" points="1012.25,-248.78 1021.45,-243.52 1010.98,-241.89 1012.25,-248.78"/>
</g>
<!-- Node23 -->
<g id="node23" class="node">
<title>Node23</title>
<g id="a_node23"><a xlink:href="ladel__upper__diag_8h.html" target="_top" xlink:title="Routine to keep only the upper diagonal elements of a (symmetric) matrix.">
<polygon fill="white" stroke="black" points="1137,-224.5 1137,-243.5 1246,-243.5 1246,-224.5 1137,-224.5"/>
<text text-anchor="middle" x="1191.5" y="-231.5" font-family="Helvetica,sans-Serif" font-size="10.00">ladel_upper_diag.h</text>
</a>
</g>
</g>
<!-- Node1&#45;&gt;Node23 -->
<g id="edge42" class="edge">
<title>Node1&#45;&gt;Node23</title>
<path fill="none" stroke="midnightblue" d="M836.58,-281.43C904.68,-272.93 1018.38,-258.59 1126.58,-244.11"/>
<polygon fill="midnightblue" stroke="midnightblue" points="1127.25,-247.55 1136.69,-242.75 1126.32,-240.61 1127.25,-247.55"/>
</g>
<!-- Node24 -->
<g id="node24" class="node">
<title>Node24</title>
<g id="a_node24"><a xlink:href="ladel__add_8h.html" target="_top" xlink:title="Routines to add matrices.">
<polygon fill="white" stroke="black" points="1264,-224.5 1264,-243.5 1337,-243.5 1337,-224.5 1264,-224.5"/>
<text text-anchor="middle" x="1300.5" y="-231.5" font-family="Helvetica,sans-Serif" font-size="10.00">ladel_add.h</text>
</a>
</g>
</g>
<!-- Node1&#45;&gt;Node24 -->
<g id="edge44" class="edge">
<title>Node1&#45;&gt;Node24</title>
<path fill="none" stroke="midnightblue" d="M836.6,-285.22C925.91,-279.25 1097.5,-266.16 1253.64,-243.98"/>
<polygon fill="midnightblue" stroke="midnightblue" points="1254.5,-247.39 1263.9,-242.5 1253.5,-240.46 1254.5,-247.39"/>
</g>
<!-- Node25 -->
<g id="node25" class="node">
<title>Node25</title>
<g id="a_node25"><a xlink:href="ladel__submatrix_8h.html" target="_top" xlink:title="Routines to produce submatrices from a given submatrix. For now, only a selection of columns is suppo...">
<polygon fill="white" stroke="black" points="1355.5,-224.5 1355.5,-243.5 1459.5,-243.5 1459.5,-224.5 1355.5,-224.5"/>
<text text-anchor="middle" x="1407.5" y="-231.5" font-family="Helvetica,sans-Serif" font-size="10.00">ladel_submatrix.h</text>
</a>
</g>
</g>
<!-- Node1&#45;&gt;Node25 -->
<g id="edge46" class="edge">
<title>Node1&#45;&gt;Node25</title>
<path fill="none" stroke="midnightblue" d="M836.78,-285.48C941.33,-279.18 1160.78,-264.68 1345.5,-244 1345.6,-243.99 1345.7,-243.98 1345.8,-243.97"/>
<polygon fill="midnightblue" stroke="midnightblue" points="1345.93,-247.48 1355.44,-242.81 1345.09,-240.53 1345.93,-247.48"/>
</g>
<!-- Node2&#45;&gt;Node3 -->
<g id="edge2" class="edge">
<title>Node2&#45;&gt;Node3</title>
<path fill="none" stroke="midnightblue" d="M1422.75,-168.39C1405.65,-153.87 1368.55,-124.82 1331.5,-112 1254.32,-85.29 1014.23,-73.03 907.98,-68.81"/>
<polygon fill="midnightblue" stroke="midnightblue" points="907.95,-65.3 897.82,-68.41 907.67,-72.3 907.95,-65.3"/>
</g>
<!-- Node4 -->
<g id="node4" class="node">
<title>Node4</title>
<g id="a_node4"><a xlink:title=" ">
<polygon fill="white" stroke="#bfbfbf" points="792,-0.5 792,-19.5 845,-19.5 845,-0.5 792,-0.5"/>
<text text-anchor="middle" x="818.5" y="-7.5" font-family="Helvetica,sans-Serif" font-size="10.00">stdint.h</text>
</a>
</g>
</g>
<!-- Node3&#45;&gt;Node4 -->
<g id="edge3" class="edge">
<title>Node3&#45;&gt;Node4</title>
<path fill="none" stroke="midnightblue" d="M850.23,-56.08C844.86,-48.46 836.98,-37.26 830.42,-27.94"/>
<polygon fill="midnightblue" stroke="midnightblue" points="833.28,-25.91 824.66,-19.75 827.55,-29.94 833.28,-25.91"/>
</g>
<!-- Node5 -->
<g id="node5" class="node">
<title>Node5</title>
<g id="a_node5"><a xlink:title=" ">
<polygon fill="white" stroke="#bfbfbf" points="863,-0.5 863,-19.5 928,-19.5 928,-0.5 863,-0.5"/>
<text text-anchor="middle" x="895.5" y="-7.5" font-family="Helvetica,sans-Serif" font-size="10.00">inttypes.h</text>
</a>
</g>
</g>
<!-- Node3&#45;&gt;Node5 -->
<g id="edge4" class="edge">
<title>Node3&#45;&gt;Node5</title>
<path fill="none" stroke="midnightblue" d="M862.94,-56.08C868.45,-48.46 876.53,-37.26 883.26,-27.94"/>
<polygon fill="midnightblue" stroke="midnightblue" points="886.16,-29.91 889.18,-19.75 880.49,-25.81 886.16,-29.91"/>
</g>
<!-- Node7&#45;&gt;Node3 -->
<g id="edge7" class="edge">
<title>Node7&#45;&gt;Node3</title>
<path fill="none" stroke="midnightblue" d="M162.21,-113.33C165.35,-112.83 168.47,-112.38 171.5,-112 407.13,-82.28 691,-71.56 805.22,-68.27"/>
<polygon fill="midnightblue" stroke="midnightblue" points="805.52,-71.76 815.42,-67.98 805.32,-64.77 805.52,-71.76"/>
</g>
<!-- Node8&#45;&gt;Node3 -->
<g id="edge14" class="edge">
<title>Node8&#45;&gt;Node3</title>
<path fill="none" stroke="midnightblue" d="M54.68,-224.32C50.52,-201.84 43.04,-141.42 75.5,-112 102.56,-87.47 635.63,-72.39 805.19,-68.2"/>
<polygon fill="midnightblue" stroke="midnightblue" points="805.44,-71.69 815.35,-67.95 805.27,-64.7 805.44,-71.69"/>
</g>
<!-- Node8&#45;&gt;Node9 -->
<g id="edge9" class="edge">
<title>Node8&#45;&gt;Node9</title>
<path fill="none" stroke="midnightblue" d="M87.24,-224.44C120.44,-215.2 173.49,-200.44 210.06,-190.26"/>
<polygon fill="midnightblue" stroke="midnightblue" points="211.21,-193.57 219.9,-187.52 209.33,-186.83 211.21,-193.57"/>
</g>
<!-- Node9&#45;&gt;Node3 -->
<g id="edge10" class="edge">
<title>Node9&#45;&gt;Node3</title>
<path fill="none" stroke="midnightblue" d="M257.72,-168.34C270.47,-153.75 298.58,-124.6 329.5,-112 414.75,-77.27 689.71,-69.34 804.94,-67.53"/>
<polygon fill="midnightblue" stroke="midnightblue" points="805.3,-71.03 815.25,-67.38 805.2,-64.03 805.3,-71.03"/>
</g>
<!-- Node9&#45;&gt;Node6 -->
<g id="edge11" class="edge">
<title>Node9&#45;&gt;Node6</title>
<path fill="none" stroke="midnightblue" d="M247.36,-168.08C244.82,-160.85 241.14,-150.41 237.97,-141.4"/>
<polygon fill="midnightblue" stroke="midnightblue" points="241.2,-140.02 234.58,-131.75 234.6,-142.35 241.2,-140.02"/>
</g>
<!-- Node9&#45;&gt;Node7 -->
<g id="edge12" class="edge">
<title>Node9&#45;&gt;Node7</title>
<path fill="none" stroke="midnightblue" d="M230.38,-168.44C209.48,-159.56 176.57,-145.56 152.78,-135.45"/>
<polygon fill="midnightblue" stroke="midnightblue" points="154.1,-132.21 143.53,-131.52 151.36,-138.65 154.1,-132.21"/>
</g>
<!-- Node10 -->
<g id="node10" class="node">
<title>Node10</title>
<g id="a_node10"><a xlink:title=" ">
<polygon fill="white" stroke="#bfbfbf" points="339,-112.5 339,-131.5 392,-131.5 392,-112.5 339,-112.5"/>
<text text-anchor="middle" x="365.5" y="-119.5" font-family="Helvetica,sans-Serif" font-size="10.00">stdlib.h</text>
</a>
</g>
</g>
<!-- Node9&#45;&gt;Node10 -->
<g id="edge13" class="edge">
<title>Node9&#45;&gt;Node10</title>
<path fill="none" stroke="midnightblue" d="M268.72,-168.44C287.4,-159.68 316.66,-145.94 338.12,-135.86"/>
<polygon fill="midnightblue" stroke="midnightblue" points="339.8,-138.93 347.36,-131.52 336.82,-132.6 339.8,-138.93"/>
</g>
<!-- Node11&#45;&gt;Node3 -->
<g id="edge16" class="edge">
<title>Node11&#45;&gt;Node3</title>
<path fill="none" stroke="midnightblue" d="M401.07,-168.32C420.89,-153.96 463.09,-125.5 503.5,-112 606.75,-77.5 735.1,-69.17 805.08,-67.33"/>
<polygon fill="midnightblue" stroke="midnightblue" points="805.47,-70.83 815.39,-67.1 805.31,-63.83 805.47,-70.83"/>
</g>
<!-- Node12&#45;&gt;Node3 -->
<g id="edge19" class="edge">
<title>Node12&#45;&gt;Node3</title>
<path fill="none" stroke="midnightblue" d="M502.68,-168.33C501.87,-154.24 502.57,-126.5 518.5,-112 559.48,-74.71 721.25,-67.9 805.25,-66.92"/>
<polygon fill="midnightblue" stroke="midnightblue" points="805.38,-70.42 815.35,-66.83 805.31,-63.42 805.38,-70.42"/>
</g>
<!-- Node13&#45;&gt;Node3 -->
<g id="edge21" class="edge">
<title>Node13&#45;&gt;Node3</title>
<path fill="none" stroke="midnightblue" d="M628.44,-112.44C676.43,-102.88 754.1,-87.4 805.24,-77.21"/>
<polygon fill="midnightblue" stroke="midnightblue" points="805.97,-80.64 815.09,-75.25 804.6,-73.77 805.97,-80.64"/>
</g>
<!-- Node14&#45;&gt;Node3 -->
<g id="edge24" class="edge">
<title>Node14&#45;&gt;Node3</title>
<path fill="none" stroke="midnightblue" d="M324.38,-224.4C324.64,-210.91 327.01,-184.59 340.5,-168 358.69,-145.64 429.79,-119.95 457.5,-112 578.78,-77.21 728,-69.12 805.04,-67.37"/>
<polygon fill="midnightblue" stroke="midnightblue" points="805.49,-70.86 815.42,-67.16 805.35,-63.86 805.49,-70.86"/>
</g>
<!-- Node14&#45;&gt;Node9 -->
<g id="edge23" class="edge">
<title>Node14&#45;&gt;Node9</title>
<path fill="none" stroke="midnightblue" d="M312.61,-224.32C301.35,-216.11 284.21,-203.6 270.79,-193.81"/>
<polygon fill="midnightblue" stroke="midnightblue" points="272.75,-190.9 262.61,-187.83 268.62,-196.56 272.75,-190.9"/>
</g>
<!-- Node15&#45;&gt;Node3 -->
<g id="edge26" class="edge">
<title>Node15&#45;&gt;Node3</title>
<path fill="none" stroke="midnightblue" d="M663.76,-168.44C666.28,-154.5 673.23,-126.97 690.5,-112 722.22,-84.49 769.18,-73.63 805.07,-69.42"/>
<polygon fill="midnightblue" stroke="midnightblue" points="805.76,-72.87 815.34,-68.36 805.04,-65.9 805.76,-72.87"/>
</g>
<!-- Node16&#45;&gt;Node3 -->
<g id="edge28" class="edge">
<title>Node16&#45;&gt;Node3</title>
<path fill="none" stroke="midnightblue" d="M762.49,-112.32C780.54,-103.62 808.55,-90.12 829.3,-80.11"/>
<polygon fill="midnightblue" stroke="midnightblue" points="831.06,-83.15 838.55,-75.65 828.02,-76.84 831.06,-83.15"/>
</g>
<!-- Node17&#45;&gt;Node3 -->
<g id="edge30" class="edge">
<title>Node17&#45;&gt;Node3</title>
<path fill="none" stroke="midnightblue" d="M824.6,-168.43C826.35,-155.86 830.22,-131.74 836.5,-112 839.41,-102.83 843.63,-93.03 847.44,-84.93"/>
<polygon fill="midnightblue" stroke="midnightblue" points="850.68,-86.26 851.92,-75.74 844.39,-83.19 850.68,-86.26"/>
</g>
<!-- Node18&#45;&gt;Node3 -->
<g id="edge32" class="edge">
<title>Node18&#45;&gt;Node3</title>
<path fill="none" stroke="midnightblue" d="M889.89,-112.08C884.24,-104.46 875.96,-93.26 869.05,-83.94"/>
<polygon fill="midnightblue" stroke="midnightblue" points="871.75,-81.7 862.98,-75.75 866.12,-85.87 871.75,-81.7"/>
</g>
<!-- Node19&#45;&gt;Node3 -->
<g id="edge34" class="edge">
<title>Node19&#45;&gt;Node3</title>
<path fill="none" stroke="midnightblue" d="M989.55,-168.29C984.54,-154.64 973.14,-128.11 955.5,-112 938.92,-96.86 916.38,-86.08 897,-78.87"/>
<polygon fill="midnightblue" stroke="midnightblue" points="898.09,-75.54 887.49,-75.52 895.76,-82.14 898.09,-75.54"/>
</g>
<!-- Node20&#45;&gt;Node3 -->
<g id="edge36" class="edge">
<title>Node20&#45;&gt;Node3</title>
<path fill="none" stroke="midnightblue" d="M1022.28,-112.44C988.57,-103.2 934.7,-88.44 897.57,-78.26"/>
<polygon fill="midnightblue" stroke="midnightblue" points="898.14,-74.78 887.57,-75.52 896.29,-81.54 898.14,-74.78"/>
</g>
<!-- Node21&#45;&gt;Node3 -->
<g id="edge38" class="edge">
<title>Node21&#45;&gt;Node3</title>
<path fill="none" stroke="midnightblue" d="M992.99,-224.44C1027.06,-215.62 1075.35,-201.31 1089.5,-188 1115.21,-163.82 1135.19,-139.03 1112.5,-112 1086.92,-81.53 975.14,-71.69 908.03,-68.51"/>
<polygon fill="midnightblue" stroke="midnightblue" points="907.81,-65 897.66,-68.05 907.5,-71.99 907.81,-65"/>
</g>
<!-- Node22&#45;&gt;Node3 -->
<g id="edge40" class="edge">
<title>Node22&#45;&gt;Node3</title>
<path fill="none" stroke="midnightblue" d="M1078.61,-224.32C1104.19,-203.31 1162.74,-148.76 1131.5,-112 1103.36,-78.88 979.27,-70.08 907.77,-67.78"/>
<polygon fill="midnightblue" stroke="midnightblue" points="907.71,-64.28 897.62,-67.49 907.51,-71.28 907.71,-64.28"/>
</g>
<!-- Node23&#45;&gt;Node3 -->
<g id="edge43" class="edge">
<title>Node23&#45;&gt;Node3</title>
<path fill="none" stroke="midnightblue" d="M1191.42,-224.32C1190.72,-201.82 1185.51,-141.36 1150.5,-112 1114.61,-81.89 981.87,-71.86 907.63,-68.57"/>
<polygon fill="midnightblue" stroke="midnightblue" points="907.69,-65.07 897.55,-68.14 907.4,-72.06 907.69,-65.07"/>
</g>
<!-- Node24&#45;&gt;Node3 -->
<g id="edge45" class="edge">
<title>Node24&#45;&gt;Node3</title>
<path fill="none" stroke="midnightblue" d="M1294.49,-224.42C1278.02,-201.64 1229.52,-139.5 1172.5,-112 1126.82,-89.97 984.93,-76.44 907.75,-70.51"/>
<polygon fill="midnightblue" stroke="midnightblue" points="907.99,-67.02 897.76,-69.76 907.47,-74 907.99,-67.02"/>
</g>
<!-- Node25&#45;&gt;Node3 -->
<g id="edge47" class="edge">
<title>Node25&#45;&gt;Node3</title>
<path fill="none" stroke="midnightblue" d="M1396.8,-224.45C1367.73,-201.75 1284.08,-139.8 1203.5,-112 1102.58,-77.19 976.71,-68.97 907.69,-67.23"/>
<polygon fill="midnightblue" stroke="midnightblue" points="907.59,-63.73 897.52,-67.01 907.44,-70.73 907.59,-63.73"/>
</g>
</g>
</svg>
