<?xml version="1.0" encoding="UTF-8" standalone="no"?>
<!DOCTYPE svg PUBLIC "-//W3C//DTD SVG 1.1//EN"
 "http://www.w3.org/Graphics/SVG/1.1/DTD/svg11.dtd">
<!-- Generated by graphviz version 2.43.0 (0)
 -->
<!-- Title: LADEL/src/ladel_etree.c Pages: 1 -->
<svg width="354pt" height="308pt"
 viewBox="0.00 0.00 353.54 308.00" xmlns="http://www.w3.org/2000/svg" xmlns:xlink="http://www.w3.org/1999/xlink">
<g id="graph0" class="graph" transform="scale(1 1) rotate(0) translate(4 304)">
<title>LADEL/src/ladel_etree.c</title>
<polygon fill="white" stroke="transparent" points="-4,4 -4,-304 349.54,-304 349.54,4 -4,4"/>
<!-- Node1 -->
<g id="node1" class="node">
<title>Node1</title>
<g id="a_node1"><a xlink:title=" ">
<polygon fill="#bfbfbf" stroke="black" points="26.35,-280.5 26.35,-299.5 157.35,-299.5 157.35,-280.5 26.35,-280.5"/>
<text text-anchor="middle" x="91.85" y="-287.5" font-family="Helvetica,sans-Serif" font-size="10.00">LADEL/src/ladel_etree.c</text>
</a>
</g>
</g>
<!-- Node2 -->
<g id="node2" class="node">
<title>Node2</title>
<g id="a_node2"><a xlink:href="ladel__types_8h.html" target="_top" xlink:title="Structures and types used in LADEL routines.">
<polygon fill="white" stroke="black" points="143.85,-56.5 143.85,-75.5 225.85,-75.5 225.85,-56.5 143.85,-56.5"/>
<text text-anchor="middle" x="184.85" y="-63.5" font-family="Helvetica,sans-Serif" font-size="10.00">ladel_types.h</text>
</a>
</g>
</g>
<!-- Node1&#45;&gt;Node2 -->
<g id="edge1" class="edge">
<title>Node1&#45;&gt;Node2</title>
<path fill="none" stroke="midnightblue" d="M82.21,-280.5C52.83,-253.59 -30.95,-168.74 12.85,-112 27.58,-92.92 88.36,-80.37 133.52,-73.49"/>
<polygon fill="midnightblue" stroke="midnightblue" points="134.08,-76.94 143.47,-72.02 133.06,-70.02 134.08,-76.94"/>
</g>
<!-- Node5 -->
<g id="node5" class="node">
<title>Node5</title>
<g id="a_node5"><a xlink:href="ladel__global_8h.html" target="_top" xlink:title="Memory allocation routines.">
<polygon fill="white" stroke="black" points="131.35,-168.5 131.35,-187.5 216.35,-187.5 216.35,-168.5 131.35,-168.5"/>
<text text-anchor="middle" x="173.85" y="-175.5" font-family="Helvetica,sans-Serif" font-size="10.00">ladel_global.h</text>
</a>
</g>
</g>
<!-- Node1&#45;&gt;Node5 -->
<g id="edge4" class="edge">
<title>Node1&#45;&gt;Node5</title>
<path fill="none" stroke="midnightblue" d="M96.14,-280.16C102.59,-267.24 115.58,-242.71 129.85,-224 137.87,-213.49 148.13,-202.87 156.73,-194.58"/>
<polygon fill="midnightblue" stroke="midnightblue" points="159.16,-197.1 164.05,-187.7 154.36,-192 159.16,-197.1"/>
</g>
<!-- Node6 -->
<g id="node6" class="node">
<title>Node6</title>
<g id="a_node6"><a xlink:href="ladel__constants_8h.html" target="_top" xlink:title="Constants and macros used in LADEL.">
<polygon fill="white" stroke="black" points="21.85,-112.5 21.85,-131.5 123.85,-131.5 123.85,-112.5 21.85,-112.5"/>
<text text-anchor="middle" x="72.85" y="-119.5" font-family="Helvetica,sans-Serif" font-size="10.00">ladel_constants.h</text>
</a>
</g>
</g>
<!-- Node1&#45;&gt;Node6 -->
<g id="edge10" class="edge">
<title>Node1&#45;&gt;Node6</title>
<path fill="none" stroke="midnightblue" d="M90.83,-280.08C87.84,-253.95 79.06,-177.21 74.98,-141.58"/>
<polygon fill="midnightblue" stroke="midnightblue" points="78.45,-141.11 73.83,-131.57 71.49,-141.9 78.45,-141.11"/>
</g>
<!-- Node9 -->
<g id="node9" class="node">
<title>Node9</title>
<g id="a_node9"><a xlink:href="ladel__debug__print_8h.html" target="_top" xlink:title="Routines to print out matrices and vectors.">
<polygon fill="white" stroke="black" points="139.35,-224.5 139.35,-243.5 252.35,-243.5 252.35,-224.5 139.35,-224.5"/>
<text text-anchor="middle" x="195.85" y="-231.5" font-family="Helvetica,sans-Serif" font-size="10.00">ladel_debug_print.h</text>
</a>
</g>
</g>
<!-- Node1&#45;&gt;Node9 -->
<g id="edge11" class="edge">
<title>Node1&#45;&gt;Node9</title>
<path fill="none" stroke="midnightblue" d="M108.56,-280.32C125.16,-271.7 150.85,-258.36 170.07,-248.39"/>
<polygon fill="midnightblue" stroke="midnightblue" points="171.92,-251.37 179.18,-243.65 168.69,-245.16 171.92,-251.37"/>
</g>
<!-- Node3 -->
<g id="node3" class="node">
<title>Node3</title>
<g id="a_node3"><a xlink:title=" ">
<polygon fill="white" stroke="#bfbfbf" points="120.35,-0.5 120.35,-19.5 173.35,-19.5 173.35,-0.5 120.35,-0.5"/>
<text text-anchor="middle" x="146.85" y="-7.5" font-family="Helvetica,sans-Serif" font-size="10.00">stdint.h</text>
</a>
</g>
</g>
<!-- Node2&#45;&gt;Node3 -->
<g id="edge2" class="edge">
<title>Node2&#45;&gt;Node3</title>
<path fill="none" stroke="midnightblue" d="M178.58,-56.08C173.21,-48.46 165.33,-37.26 158.77,-27.94"/>
<polygon fill="midnightblue" stroke="midnightblue" points="161.63,-25.91 153.01,-19.75 155.9,-29.94 161.63,-25.91"/>
</g>
<!-- Node4 -->
<g id="node4" class="node">
<title>Node4</title>
<g id="a_node4"><a xlink:title=" ">
<polygon fill="white" stroke="#bfbfbf" points="191.35,-0.5 191.35,-19.5 256.35,-19.5 256.35,-0.5 191.35,-0.5"/>
<text text-anchor="middle" x="223.85" y="-7.5" font-family="Helvetica,sans-Serif" font-size="10.00">inttypes.h</text>
</a>
</g>
</g>
<!-- Node2&#45;&gt;Node4 -->
<g id="edge3" class="edge">
<title>Node2&#45;&gt;Node4</title>
<path fill="none" stroke="midnightblue" d="M191.29,-56.08C196.8,-48.46 204.88,-37.26 211.62,-27.94"/>
<polygon fill="midnightblue" stroke="midnightblue" points="214.51,-29.91 217.53,-19.75 208.84,-25.81 214.51,-29.91"/>
</g>
<!-- Node5&#45;&gt;Node2 -->
<g id="edge5" class="edge">
<title>Node5&#45;&gt;Node2</title>
<path fill="none" stroke="midnightblue" d="M172.34,-168.11C170.46,-155.54 167.83,-131.88 170.85,-112 172.22,-103 175.04,-93.33 177.8,-85.26"/>
<polygon fill="midnightblue" stroke="midnightblue" points="181.12,-86.37 181.25,-75.78 174.54,-83.98 181.12,-86.37"/>
</g>
<!-- Node5&#45;&gt;Node6 -->
<g id="edge6" class="edge">
<title>Node5&#45;&gt;Node6</title>
<path fill="none" stroke="midnightblue" d="M157.62,-168.32C141.5,-159.7 116.55,-146.36 97.89,-136.39"/>
<polygon fill="midnightblue" stroke="midnightblue" points="99.51,-133.28 89.04,-131.65 96.21,-139.46 99.51,-133.28"/>
</g>
<!-- Node7 -->
<g id="node7" class="node">
<title>Node7</title>
<g id="a_node7"><a xlink:href="ladel__copy_8h.html" target="_top" xlink:title="Routines to copy matrices and vectors.">
<polygon fill="white" stroke="black" points="180.35,-112.5 180.35,-131.5 257.35,-131.5 257.35,-112.5 180.35,-112.5"/>
<text text-anchor="middle" x="218.85" y="-119.5" font-family="Helvetica,sans-Serif" font-size="10.00">ladel_copy.h</text>
</a>
</g>
</g>
<!-- Node5&#45;&gt;Node7 -->
<g id="edge7" class="edge">
<title>Node5&#45;&gt;Node7</title>
<path fill="none" stroke="midnightblue" d="M181.28,-168.08C187.7,-160.38 197.16,-149.03 204.97,-139.65"/>
<polygon fill="midnightblue" stroke="midnightblue" points="207.84,-141.67 211.56,-131.75 202.47,-137.19 207.84,-141.67"/>
</g>
<!-- Node8 -->
<g id="node8" class="node">
<title>Node8</title>
<g id="a_node8"><a xlink:title=" ">
<polygon fill="white" stroke="#bfbfbf" points="275.35,-112.5 275.35,-131.5 328.35,-131.5 328.35,-112.5 275.35,-112.5"/>
<text text-anchor="middle" x="301.85" y="-119.5" font-family="Helvetica,sans-Serif" font-size="10.00">stdlib.h</text>
</a>
</g>
</g>
<!-- Node5&#45;&gt;Node8 -->
<g id="edge9" class="edge">
<title>Node5&#45;&gt;Node8</title>
<path fill="none" stroke="midnightblue" d="M194.13,-168.44C215.2,-159.56 248.37,-145.56 272.34,-135.45"/>
<polygon fill="midnightblue" stroke="midnightblue" points="273.81,-138.63 281.66,-131.52 271.09,-132.18 273.81,-138.63"/>
</g>
<!-- Node7&#45;&gt;Node2 -->
<g id="edge8" class="edge">
<title>Node7&#45;&gt;Node2</title>
<path fill="none" stroke="midnightblue" d="M213.24,-112.08C208.48,-104.53 201.53,-93.49 195.7,-84.23"/>
<polygon fill="midnightblue" stroke="midnightblue" points="198.65,-82.35 190.36,-75.75 192.73,-86.08 198.65,-82.35"/>
</g>
<!-- Node9&#45;&gt;Node2 -->
<g id="edge13" class="edge">
<title>Node9&#45;&gt;Node2</title>
<path fill="none" stroke="midnightblue" d="M222.08,-224.39C272.46,-206.45 374.59,-162.53 336.85,-112 313.87,-81.23 270.77,-70.63 236.32,-67.36"/>
<polygon fill="midnightblue" stroke="midnightblue" points="236.17,-63.84 225.93,-66.57 235.64,-70.82 236.17,-63.84"/>
</g>
<!-- Node9&#45;&gt;Node5 -->
<g id="edge12" class="edge">
<title>Node9&#45;&gt;Node5</title>
<path fill="none" stroke="midnightblue" d="M192.22,-224.08C189.24,-216.77 184.92,-206.18 181.23,-197.1"/>
<polygon fill="midnightblue" stroke="midnightblue" points="184.43,-195.69 177.42,-187.75 177.95,-198.33 184.43,-195.69"/>
</g>
</g>
</svg>
