<?xml version="1.0" encoding="UTF-8" standalone="no"?>
<!DOCTYPE svg PUBLIC "-//W3C//DTD SVG 1.1//EN"
 "http://www.w3.org/Graphics/SVG/1.1/DTD/svg11.dtd">
<!-- Generated by graphviz version 2.43.0 (0)
 -->
<!-- Title: ladel_workspace_allocate Pages: 1 -->
<svg width="533pt" height="142pt"
 viewBox="0.00 0.00 533.00 142.00" xmlns="http://www.w3.org/2000/svg" xmlns:xlink="http://www.w3.org/1999/xlink">
<g id="graph0" class="graph" transform="scale(1 1) rotate(0) translate(4 138)">
<title>ladel_workspace_allocate</title>
<polygon fill="white" stroke="transparent" points="-4,4 -4,-138 529,-138 529,4 -4,4"/>
<!-- Node1 -->
<g id="node1" class="node">
<title>Node1</title>
<g id="a_node1"><a xlink:title="Allocate a LADEL workspace.">
<polygon fill="#bfbfbf" stroke="black" points="0,-57.5 0,-76.5 143,-76.5 143,-57.5 0,-57.5"/>
<text text-anchor="middle" x="71.5" y="-64.5" font-family="Helvetica,sans-Serif" font-size="10.00">ladel_workspace_allocate</text>
</a>
</g>
</g>
<!-- Node2 -->
<g id="node2" class="node">
<title>Node2</title>
<g id="a_node2"><a xlink:href="ladel__global_8c.html#a15a407b5c8ad9de2faeb93fcd786e099" target="_top" xlink:title="Version of calloc (for mex or for regular C).">
<polygon fill="white" stroke="black" points="203.5,-114.5 203.5,-133.5 277.5,-133.5 277.5,-114.5 203.5,-114.5"/>
<text text-anchor="middle" x="240.5" y="-121.5" font-family="Helvetica,sans-Serif" font-size="10.00">ladel_calloc</text>
</a>
</g>
</g>
<!-- Node1&#45;&gt;Node2 -->
<g id="edge1" class="edge">
<title>Node1&#45;&gt;Node2</title>
<path fill="none" stroke="midnightblue" d="M100.45,-76.54C128.27,-86.03 171.14,-100.67 201.92,-111.17"/>
<polygon fill="midnightblue" stroke="midnightblue" points="200.86,-114.51 211.46,-114.43 203.12,-107.89 200.86,-114.51"/>
</g>
<!-- Node3 -->
<g id="node3" class="node">
<title>Node3</title>
<g id="a_node3"><a xlink:href="ladel__global_8c.html#a86142b1e820a5de1deea8ee656186245" target="_top" xlink:title="Version of malloc (for mex or for regular C).">
<polygon fill="white" stroke="black" points="341.5,-76.5 341.5,-95.5 420.5,-95.5 420.5,-76.5 341.5,-76.5"/>
<text text-anchor="middle" x="381" y="-83.5" font-family="Helvetica,sans-Serif" font-size="10.00">ladel_malloc</text>
</a>
</g>
</g>
<!-- Node1&#45;&gt;Node3 -->
<g id="edge2" class="edge">
<title>Node1&#45;&gt;Node3</title>
<path fill="none" stroke="midnightblue" d="M143.05,-71.36C200.61,-74.92 280.44,-79.85 331.15,-82.98"/>
<polygon fill="midnightblue" stroke="midnightblue" points="331.01,-86.48 341.2,-83.6 331.44,-79.49 331.01,-86.48"/>
</g>
<!-- Node4 -->
<g id="node4" class="node">
<title>Node4</title>
<g id="a_node4"><a xlink:href="ladel__global_8c.html#a7c28f9d8aba3a477eb86d0e37084c504" target="_top" xlink:title="Allocate a set struct.">
<polygon fill="white" stroke="black" points="188,-38.5 188,-57.5 293,-57.5 293,-38.5 188,-38.5"/>
<text text-anchor="middle" x="240.5" y="-45.5" font-family="Helvetica,sans-Serif" font-size="10.00">ladel_set_allocate</text>
</a>
</g>
</g>
<!-- Node1&#45;&gt;Node4 -->
<g id="edge3" class="edge">
<title>Node1&#45;&gt;Node4</title>
<path fill="none" stroke="midnightblue" d="M143.32,-58.94C154.76,-57.64 166.52,-56.3 177.72,-55.03"/>
<polygon fill="midnightblue" stroke="midnightblue" points="178.28,-58.49 187.82,-53.88 177.49,-51.53 178.28,-58.49"/>
</g>
<!-- Node7 -->
<g id="node7" class="node">
<title>Node7</title>
<g id="a_node7"><a xlink:href="ladel__global_8c.html#a0c1ec6da7994389ca70fd3d89ff28619" target="_top" xlink:title="Free a LADEL workspace.">
<polygon fill="white" stroke="black" points="179,-0.5 179,-19.5 302,-19.5 302,-0.5 179,-0.5"/>
<text text-anchor="middle" x="240.5" y="-7.5" font-family="Helvetica,sans-Serif" font-size="10.00">ladel_workspace_free</text>
</a>
</g>
</g>
<!-- Node1&#45;&gt;Node7 -->
<g id="edge7" class="edge">
<title>Node1&#45;&gt;Node7</title>
<path fill="none" stroke="midnightblue" d="M98.66,-57.35C120.16,-49.49 151.45,-38.24 179,-29 185.38,-26.86 192.17,-24.66 198.8,-22.55"/>
<polygon fill="midnightblue" stroke="midnightblue" points="199.85,-25.88 208.34,-19.54 197.75,-19.21 199.85,-25.88"/>
</g>
<!-- Node4&#45;&gt;Node3 -->
<g id="edge4" class="edge">
<title>Node4&#45;&gt;Node3</title>
<path fill="none" stroke="midnightblue" d="M276.45,-57.59C294.33,-62.49 316.29,-68.52 335.38,-73.76"/>
<polygon fill="midnightblue" stroke="midnightblue" points="334.49,-77.14 345.06,-76.41 336.34,-70.39 334.49,-77.14"/>
</g>
<!-- Node5 -->
<g id="node5" class="node">
<title>Node5</title>
<g id="a_node5"><a xlink:href="ladel__global_8c.html#adf80852f1363f544a2bebaadaebcaed4" target="_top" xlink:title="Free a set.">
<polygon fill="white" stroke="black" points="338,-38.5 338,-57.5 424,-57.5 424,-38.5 338,-38.5"/>
<text text-anchor="middle" x="381" y="-45.5" font-family="Helvetica,sans-Serif" font-size="10.00">ladel_set_free</text>
</a>
</g>
</g>
<!-- Node4&#45;&gt;Node5 -->
<g id="edge5" class="edge">
<title>Node4&#45;&gt;Node5</title>
<path fill="none" stroke="midnightblue" d="M293.07,-48C304.38,-48 316.36,-48 327.69,-48"/>
<polygon fill="midnightblue" stroke="midnightblue" points="327.88,-51.5 337.88,-48 327.88,-44.5 327.88,-51.5"/>
</g>
<!-- Node6 -->
<g id="node6" class="node">
<title>Node6</title>
<g id="a_node6"><a xlink:href="ladel__global_8c.html#a946ae8034525eb6db42d4a166be57968" target="_top" xlink:title="Version of free (for mex or for regular C).">
<polygon fill="white" stroke="black" points="460,-19.5 460,-38.5 525,-38.5 525,-19.5 460,-19.5"/>
<text text-anchor="middle" x="492.5" y="-26.5" font-family="Helvetica,sans-Serif" font-size="10.00">ladel_free</text>
</a>
</g>
</g>
<!-- Node5&#45;&gt;Node6 -->
<g id="edge6" class="edge">
<title>Node5&#45;&gt;Node6</title>
<path fill="none" stroke="midnightblue" d="M424.02,-40.71C432.51,-39.24 441.43,-37.69 449.91,-36.22"/>
<polygon fill="midnightblue" stroke="midnightblue" points="450.71,-39.63 459.97,-34.47 449.51,-32.73 450.71,-39.63"/>
</g>
<!-- Node7&#45;&gt;Node5 -->
<g id="edge9" class="edge">
<title>Node7&#45;&gt;Node5</title>
<path fill="none" stroke="midnightblue" d="M276.45,-19.59C294.33,-24.49 316.29,-30.52 335.38,-35.76"/>
<polygon fill="midnightblue" stroke="midnightblue" points="334.49,-39.14 345.06,-38.41 336.34,-32.39 334.49,-39.14"/>
</g>
<!-- Node7&#45;&gt;Node6 -->
<g id="edge8" class="edge">
<title>Node7&#45;&gt;Node6</title>
<path fill="none" stroke="midnightblue" d="M302.02,-14.6C347.75,-18.07 409.33,-22.76 449.71,-25.82"/>
<polygon fill="midnightblue" stroke="midnightblue" points="449.51,-29.32 459.74,-26.59 450.04,-22.34 449.51,-29.32"/>
</g>
</g>
</svg>
