<?xml version="1.0" encoding="UTF-8" standalone="no"?>
<!DOCTYPE svg PUBLIC "-//W3C//DTD SVG 1.1//EN"
 "http://www.w3.org/Graphics/SVG/1.1/DTD/svg11.dtd">
<!-- Generated by graphviz version 2.43.0 (0)
 -->
<!-- Title: ladel_workspace_free Pages: 1 -->
<svg width="354pt" height="47pt"
 viewBox="0.00 0.00 354.00 47.00" xmlns="http://www.w3.org/2000/svg" xmlns:xlink="http://www.w3.org/1999/xlink">
<g id="graph0" class="graph" transform="scale(1 1) rotate(0) translate(4 43)">
<title>ladel_workspace_free</title>
<polygon fill="white" stroke="transparent" points="-4,4 -4,-43 350,-43 350,4 -4,4"/>
<!-- Node1 -->
<g id="node1" class="node">
<title>Node1</title>
<g id="a_node1"><a xlink:title="Free a LADEL workspace.">
<polygon fill="#bfbfbf" stroke="black" points="0,-19.5 0,-38.5 123,-38.5 123,-19.5 0,-19.5"/>
<text text-anchor="middle" x="61.5" y="-26.5" font-family="Helvetica,sans-Serif" font-size="10.00">ladel_workspace_free</text>
</a>
</g>
</g>
<!-- Node2 -->
<g id="node2" class="node">
<title>Node2</title>
<g id="a_node2"><a xlink:href="ladel__global_8c.html#a946ae8034525eb6db42d4a166be57968" target="_top" xlink:title="Version of free (for mex or for regular C).">
<polygon fill="white" stroke="black" points="281,-19.5 281,-38.5 346,-38.5 346,-19.5 281,-19.5"/>
<text text-anchor="middle" x="313.5" y="-26.5" font-family="Helvetica,sans-Serif" font-size="10.00">ladel_free</text>
</a>
</g>
</g>
<!-- Node1&#45;&gt;Node2 -->
<g id="edge1" class="edge">
<title>Node1&#45;&gt;Node2</title>
<path fill="none" stroke="midnightblue" d="M123.02,-29C168.75,-29 230.33,-29 270.71,-29"/>
<polygon fill="midnightblue" stroke="midnightblue" points="270.74,-32.5 280.74,-29 270.74,-25.5 270.74,-32.5"/>
</g>
<!-- Node3 -->
<g id="node3" class="node">
<title>Node3</title>
<g id="a_node3"><a xlink:href="ladel__global_8c.html#adf80852f1363f544a2bebaadaebcaed4" target="_top" xlink:title="Free a set.">
<polygon fill="white" stroke="black" points="159,-0.5 159,-19.5 245,-19.5 245,-0.5 159,-0.5"/>
<text text-anchor="middle" x="202" y="-7.5" font-family="Helvetica,sans-Serif" font-size="10.00">ladel_set_free</text>
</a>
</g>
</g>
<!-- Node1&#45;&gt;Node3 -->
<g id="edge2" class="edge">
<title>Node1&#45;&gt;Node3</title>
<path fill="none" stroke="midnightblue" d="M123.25,-20.67C131.83,-19.49 140.58,-18.29 148.97,-17.14"/>
<polygon fill="midnightblue" stroke="midnightblue" points="149.57,-20.59 159,-15.76 148.61,-13.65 149.57,-20.59"/>
</g>
<!-- Node3&#45;&gt;Node2 -->
<g id="edge3" class="edge">
<title>Node3&#45;&gt;Node2</title>
<path fill="none" stroke="midnightblue" d="M245.02,-17.29C253.51,-18.76 262.43,-20.31 270.91,-21.78"/>
<polygon fill="midnightblue" stroke="midnightblue" points="270.51,-25.27 280.97,-23.53 271.71,-18.37 270.51,-25.27"/>
</g>
</g>
</svg>
