<?xml version="1.0" encoding="UTF-8" standalone="no"?>
<!DOCTYPE svg PUBLIC "-//W3C//DTD SVG 1.1//EN"
 "http://www.w3.org/Graphics/SVG/1.1/DTD/svg11.dtd">
<!-- Generated by graphviz version 2.43.0 (0)
 -->
<!-- Title: LADEL/src/ladel_debug_print.c Pages: 1 -->
<svg width="345pt" height="319pt"
 viewBox="0.00 0.00 344.55 319.00" xmlns="http://www.w3.org/2000/svg" xmlns:xlink="http://www.w3.org/1999/xlink">
<g id="graph0" class="graph" transform="scale(1 1) rotate(0) translate(4 315)">
<title>LADEL/src/ladel_debug_print.c</title>
<polygon fill="white" stroke="transparent" points="-4,4 -4,-315 340.55,-315 340.55,4 -4,4"/>
<!-- Node1 -->
<g id="node1" class="node">
<title>Node1</title>
<g id="a_node1"><a xlink:title=" ">
<polygon fill="#bfbfbf" stroke="black" points="95.44,-280.5 95.44,-310.5 223.44,-310.5 223.44,-280.5 95.44,-280.5"/>
<text text-anchor="start" x="103.44" y="-298.5" font-family="Helvetica,sans-Serif" font-size="10.00">LADEL/src/ladel_debug</text>
<text text-anchor="middle" x="159.44" y="-287.5" font-family="Helvetica,sans-Serif" font-size="10.00">_print.c</text>
</a>
</g>
</g>
<!-- Node2 -->
<g id="node2" class="node">
<title>Node2</title>
<g id="a_node2"><a xlink:href="ladel__global_8h.html" target="_top" xlink:title="Memory allocation routines.">
<polygon fill="white" stroke="black" points="117.94,-168.5 117.94,-187.5 202.94,-187.5 202.94,-168.5 117.94,-168.5"/>
<text text-anchor="middle" x="160.44" y="-175.5" font-family="Helvetica,sans-Serif" font-size="10.00">ladel_global.h</text>
</a>
</g>
</g>
<!-- Node1&#45;&gt;Node2 -->
<g id="edge1" class="edge">
<title>Node1&#45;&gt;Node2</title>
<path fill="none" stroke="midnightblue" d="M149.9,-280.36C141.55,-266.25 131.48,-243.86 136.44,-224 138.88,-214.25 143.88,-204.29 148.68,-196.23"/>
<polygon fill="midnightblue" stroke="midnightblue" points="151.65,-198.08 154.07,-187.77 145.75,-194.32 151.65,-198.08"/>
</g>
<!-- Node3 -->
<g id="node3" class="node">
<title>Node3</title>
<g id="a_node3"><a xlink:href="ladel__types_8h.html" target="_top" xlink:title="Structures and types used in LADEL routines.">
<polygon fill="white" stroke="black" points="78.44,-56.5 78.44,-75.5 160.44,-75.5 160.44,-56.5 78.44,-56.5"/>
<text text-anchor="middle" x="119.44" y="-63.5" font-family="Helvetica,sans-Serif" font-size="10.00">ladel_types.h</text>
</a>
</g>
</g>
<!-- Node1&#45;&gt;Node3 -->
<g id="edge9" class="edge">
<title>Node1&#45;&gt;Node3</title>
<path fill="none" stroke="midnightblue" d="M137.65,-280.47C101.41,-255.67 30,-200.19 2.44,-132 -10.55,-99.86 31.33,-83.11 68.54,-74.72"/>
<polygon fill="midnightblue" stroke="midnightblue" points="69.28,-78.14 78.36,-72.67 67.85,-71.29 69.28,-78.14"/>
</g>
<!-- Node9 -->
<g id="node9" class="node">
<title>Node9</title>
<g id="a_node9"><a xlink:href="ladel__debug__print_8h.html" target="_top" xlink:title="Routines to print out matrices and vectors.">
<polygon fill="white" stroke="black" points="145.94,-224.5 145.94,-243.5 258.94,-243.5 258.94,-224.5 145.94,-224.5"/>
<text text-anchor="middle" x="202.44" y="-231.5" font-family="Helvetica,sans-Serif" font-size="10.00">ladel_debug_print.h</text>
</a>
</g>
</g>
<!-- Node1&#45;&gt;Node9 -->
<g id="edge10" class="edge">
<title>Node1&#45;&gt;Node9</title>
<path fill="none" stroke="midnightblue" d="M169.63,-280.4C175.82,-271.84 183.74,-260.87 190.26,-251.86"/>
<polygon fill="midnightblue" stroke="midnightblue" points="193.16,-253.81 196.18,-243.66 187.49,-249.71 193.16,-253.81"/>
</g>
<!-- Node10 -->
<g id="node10" class="node">
<title>Node10</title>
<g id="a_node10"><a xlink:title=" ">
<polygon fill="white" stroke="#bfbfbf" points="277.44,-224.5 277.44,-243.5 327.44,-243.5 327.44,-224.5 277.44,-224.5"/>
<text text-anchor="middle" x="302.44" y="-231.5" font-family="Helvetica,sans-Serif" font-size="10.00">stdio.h</text>
</a>
</g>
</g>
<!-- Node1&#45;&gt;Node10 -->
<g id="edge13" class="edge">
<title>Node1&#45;&gt;Node10</title>
<path fill="none" stroke="midnightblue" d="M193.33,-280.4C217.32,-270.42 249.21,-257.15 272.32,-247.53"/>
<polygon fill="midnightblue" stroke="midnightblue" points="273.74,-250.73 281.63,-243.66 271.06,-244.27 273.74,-250.73"/>
</g>
<!-- Node2&#45;&gt;Node3 -->
<g id="edge2" class="edge">
<title>Node2&#45;&gt;Node3</title>
<path fill="none" stroke="midnightblue" d="M164.31,-168.17C169.37,-155.26 176.67,-130.74 168.44,-112 163.05,-99.73 152.48,-89.34 142.54,-81.65"/>
<polygon fill="midnightblue" stroke="midnightblue" points="144.27,-78.58 134.1,-75.6 140.19,-84.27 144.27,-78.58"/>
</g>
<!-- Node6 -->
<g id="node6" class="node">
<title>Node6</title>
<g id="a_node6"><a xlink:href="ladel__constants_8h.html" target="_top" xlink:title="Constants and macros used in LADEL.">
<polygon fill="white" stroke="black" points="216.44,-112.5 216.44,-131.5 318.44,-131.5 318.44,-112.5 216.44,-112.5"/>
<text text-anchor="middle" x="267.44" y="-119.5" font-family="Helvetica,sans-Serif" font-size="10.00">ladel_constants.h</text>
</a>
</g>
</g>
<!-- Node2&#45;&gt;Node6 -->
<g id="edge5" class="edge">
<title>Node2&#45;&gt;Node6</title>
<path fill="none" stroke="midnightblue" d="M177.63,-168.32C194.79,-159.66 221.39,-146.24 241.19,-136.25"/>
<polygon fill="midnightblue" stroke="midnightblue" points="242.94,-139.28 250.29,-131.65 239.79,-133.04 242.94,-139.28"/>
</g>
<!-- Node7 -->
<g id="node7" class="node">
<title>Node7</title>
<g id="a_node7"><a xlink:href="ladel__copy_8h.html" target="_top" xlink:title="Routines to copy matrices and vectors.">
<polygon fill="white" stroke="black" points="11.94,-112.5 11.94,-131.5 88.94,-131.5 88.94,-112.5 11.94,-112.5"/>
<text text-anchor="middle" x="50.44" y="-119.5" font-family="Helvetica,sans-Serif" font-size="10.00">ladel_copy.h</text>
</a>
</g>
</g>
<!-- Node2&#45;&gt;Node7 -->
<g id="edge6" class="edge">
<title>Node2&#45;&gt;Node7</title>
<path fill="none" stroke="midnightblue" d="M142.77,-168.32C125.05,-159.62 97.54,-146.12 77.15,-136.11"/>
<polygon fill="midnightblue" stroke="midnightblue" points="78.59,-132.92 68.07,-131.65 75.5,-139.2 78.59,-132.92"/>
</g>
<!-- Node8 -->
<g id="node8" class="node">
<title>Node8</title>
<g id="a_node8"><a xlink:title=" ">
<polygon fill="white" stroke="#bfbfbf" points="106.94,-112.5 106.94,-131.5 159.94,-131.5 159.94,-112.5 106.94,-112.5"/>
<text text-anchor="middle" x="133.44" y="-119.5" font-family="Helvetica,sans-Serif" font-size="10.00">stdlib.h</text>
</a>
</g>
</g>
<!-- Node2&#45;&gt;Node8 -->
<g id="edge8" class="edge">
<title>Node2&#45;&gt;Node8</title>
<path fill="none" stroke="midnightblue" d="M155.98,-168.08C152.29,-160.69 146.92,-149.95 142.35,-140.81"/>
<polygon fill="midnightblue" stroke="midnightblue" points="145.42,-139.13 137.82,-131.75 139.16,-142.26 145.42,-139.13"/>
</g>
<!-- Node4 -->
<g id="node4" class="node">
<title>Node4</title>
<g id="a_node4"><a xlink:title=" ">
<polygon fill="white" stroke="#bfbfbf" points="54.94,-0.5 54.94,-19.5 107.94,-19.5 107.94,-0.5 54.94,-0.5"/>
<text text-anchor="middle" x="81.44" y="-7.5" font-family="Helvetica,sans-Serif" font-size="10.00">stdint.h</text>
</a>
</g>
</g>
<!-- Node3&#45;&gt;Node4 -->
<g id="edge3" class="edge">
<title>Node3&#45;&gt;Node4</title>
<path fill="none" stroke="midnightblue" d="M113.17,-56.08C107.8,-48.46 99.92,-37.26 93.36,-27.94"/>
<polygon fill="midnightblue" stroke="midnightblue" points="96.22,-25.91 87.6,-19.75 90.49,-29.94 96.22,-25.91"/>
</g>
<!-- Node5 -->
<g id="node5" class="node">
<title>Node5</title>
<g id="a_node5"><a xlink:title=" ">
<polygon fill="white" stroke="#bfbfbf" points="125.94,-0.5 125.94,-19.5 190.94,-19.5 190.94,-0.5 125.94,-0.5"/>
<text text-anchor="middle" x="158.44" y="-7.5" font-family="Helvetica,sans-Serif" font-size="10.00">inttypes.h</text>
</a>
</g>
</g>
<!-- Node3&#45;&gt;Node5 -->
<g id="edge4" class="edge">
<title>Node3&#45;&gt;Node5</title>
<path fill="none" stroke="midnightblue" d="M125.88,-56.08C131.39,-48.46 139.47,-37.26 146.21,-27.94"/>
<polygon fill="midnightblue" stroke="midnightblue" points="149.1,-29.91 152.12,-19.75 143.43,-25.81 149.1,-29.91"/>
</g>
<!-- Node7&#45;&gt;Node3 -->
<g id="edge7" class="edge">
<title>Node7&#45;&gt;Node3</title>
<path fill="none" stroke="midnightblue" d="M61.53,-112.32C71.93,-104.18 87.7,-91.84 100.16,-82.09"/>
<polygon fill="midnightblue" stroke="midnightblue" points="102.43,-84.75 108.15,-75.83 98.12,-79.24 102.43,-84.75"/>
</g>
<!-- Node9&#45;&gt;Node2 -->
<g id="edge11" class="edge">
<title>Node9&#45;&gt;Node2</title>
<path fill="none" stroke="midnightblue" d="M195.51,-224.08C189.51,-216.38 180.69,-205.03 173.39,-195.65"/>
<polygon fill="midnightblue" stroke="midnightblue" points="176.15,-193.5 167.25,-187.75 170.62,-197.79 176.15,-193.5"/>
</g>
<!-- Node9&#45;&gt;Node3 -->
<g id="edge12" class="edge">
<title>Node9&#45;&gt;Node3</title>
<path fill="none" stroke="midnightblue" d="M224.22,-224.49C269.2,-205.71 365.09,-158.66 327.44,-112 308.15,-88.09 226.16,-76.26 171.07,-70.9"/>
<polygon fill="midnightblue" stroke="midnightblue" points="171.05,-67.38 160.77,-69.94 170.41,-74.35 171.05,-67.38"/>
</g>
</g>
</svg>
