<?xml version="1.0" encoding="UTF-8" standalone="no"?>
<!DOCTYPE svg PUBLIC "-//W3C//DTD SVG 1.1//EN"
 "http://www.w3.org/Graphics/SVG/1.1/DTD/svg11.dtd">
<!-- Generated by graphviz version 2.43.0 (0)
 -->
<!-- Title: LADEL/include/ladel_global.h Pages: 1 -->
<svg width="289pt" height="207pt"
 viewBox="0.00 0.00 289.42 207.00" xmlns="http://www.w3.org/2000/svg" xmlns:xlink="http://www.w3.org/1999/xlink">
<g id="graph0" class="graph" transform="scale(1 1) rotate(0) translate(4 203)">
<title>LADEL/include/ladel_global.h</title>
<polygon fill="white" stroke="transparent" points="-4,4 -4,-203 285.42,-203 285.42,4 -4,4"/>
<!-- Node1 -->
<g id="node1" class="node">
<title>Node1</title>
<g id="a_node1"><a xlink:title="Memory allocation routines.">
<polygon fill="#bfbfbf" stroke="black" points="61.42,-168.5 61.42,-198.5 174.42,-198.5 174.42,-168.5 61.42,-168.5"/>
<text text-anchor="start" x="69.42" y="-186.5" font-family="Helvetica,sans-Serif" font-size="10.00">LADEL/include/ladel</text>
<text text-anchor="middle" x="117.92" y="-175.5" font-family="Helvetica,sans-Serif" font-size="10.00">_global.h</text>
</a>
</g>
</g>
<!-- Node2 -->
<g id="node2" class="node">
<title>Node2</title>
<g id="a_node2"><a xlink:href="ladel__types_8h.html" target="_top" xlink:title="Structures and types used in LADEL routines.">
<polygon fill="white" stroke="black" points="36.92,-56.5 36.92,-75.5 118.92,-75.5 118.92,-56.5 36.92,-56.5"/>
<text text-anchor="middle" x="77.92" y="-63.5" font-family="Helvetica,sans-Serif" font-size="10.00">ladel_types.h</text>
</a>
</g>
</g>
<!-- Node1&#45;&gt;Node2 -->
<g id="edge1" class="edge">
<title>Node1&#45;&gt;Node2</title>
<path fill="none" stroke="midnightblue" d="M61.35,-171.33C39.57,-163.98 16.84,-151.87 3.92,-132 -10.29,-110.17 18.6,-91.31 44.33,-79.61"/>
<polygon fill="midnightblue" stroke="midnightblue" points="45.78,-82.8 53.58,-75.63 43.02,-76.37 45.78,-82.8"/>
</g>
<!-- Node5 -->
<g id="node5" class="node">
<title>Node5</title>
<g id="a_node5"><a xlink:href="ladel__constants_8h.html" target="_top" xlink:title="Constants and macros used in LADEL.">
<polygon fill="white" stroke="black" points="12.92,-112.5 12.92,-131.5 114.92,-131.5 114.92,-112.5 12.92,-112.5"/>
<text text-anchor="middle" x="63.92" y="-119.5" font-family="Helvetica,sans-Serif" font-size="10.00">ladel_constants.h</text>
</a>
</g>
</g>
<!-- Node1&#45;&gt;Node5 -->
<g id="edge4" class="edge">
<title>Node1&#45;&gt;Node5</title>
<path fill="none" stroke="midnightblue" d="M105.12,-168.4C97.19,-159.66 86.98,-148.41 78.71,-139.3"/>
<polygon fill="midnightblue" stroke="midnightblue" points="81.09,-136.71 71.77,-131.66 75.9,-141.42 81.09,-136.71"/>
</g>
<!-- Node6 -->
<g id="node6" class="node">
<title>Node6</title>
<g id="a_node6"><a xlink:href="ladel__copy_8h.html" target="_top" xlink:title="Routines to copy matrices and vectors.">
<polygon fill="white" stroke="black" points="133.42,-112.5 133.42,-131.5 210.42,-131.5 210.42,-112.5 133.42,-112.5"/>
<text text-anchor="middle" x="171.92" y="-119.5" font-family="Helvetica,sans-Serif" font-size="10.00">ladel_copy.h</text>
</a>
</g>
</g>
<!-- Node1&#45;&gt;Node6 -->
<g id="edge5" class="edge">
<title>Node1&#45;&gt;Node6</title>
<path fill="none" stroke="midnightblue" d="M130.71,-168.4C138.64,-159.66 148.85,-148.41 157.13,-139.3"/>
<polygon fill="midnightblue" stroke="midnightblue" points="159.93,-141.42 164.06,-131.66 154.75,-136.71 159.93,-141.42"/>
</g>
<!-- Node7 -->
<g id="node7" class="node">
<title>Node7</title>
<g id="a_node7"><a xlink:title=" ">
<polygon fill="white" stroke="#bfbfbf" points="228.42,-112.5 228.42,-131.5 281.42,-131.5 281.42,-112.5 228.42,-112.5"/>
<text text-anchor="middle" x="254.92" y="-119.5" font-family="Helvetica,sans-Serif" font-size="10.00">stdlib.h</text>
</a>
</g>
</g>
<!-- Node1&#45;&gt;Node7 -->
<g id="edge7" class="edge">
<title>Node1&#45;&gt;Node7</title>
<path fill="none" stroke="midnightblue" d="M150.38,-168.4C173.27,-158.46 203.65,-145.26 225.76,-135.66"/>
<polygon fill="midnightblue" stroke="midnightblue" points="227.2,-138.85 234.98,-131.66 224.41,-132.43 227.2,-138.85"/>
</g>
<!-- Node3 -->
<g id="node3" class="node">
<title>Node3</title>
<g id="a_node3"><a xlink:title=" ">
<polygon fill="white" stroke="#bfbfbf" points="13.42,-0.5 13.42,-19.5 66.42,-19.5 66.42,-0.5 13.42,-0.5"/>
<text text-anchor="middle" x="39.92" y="-7.5" font-family="Helvetica,sans-Serif" font-size="10.00">stdint.h</text>
</a>
</g>
</g>
<!-- Node2&#45;&gt;Node3 -->
<g id="edge2" class="edge">
<title>Node2&#45;&gt;Node3</title>
<path fill="none" stroke="midnightblue" d="M71.64,-56.08C66.27,-48.46 58.4,-37.26 51.84,-27.94"/>
<polygon fill="midnightblue" stroke="midnightblue" points="54.69,-25.91 46.07,-19.75 48.97,-29.94 54.69,-25.91"/>
</g>
<!-- Node4 -->
<g id="node4" class="node">
<title>Node4</title>
<g id="a_node4"><a xlink:title=" ">
<polygon fill="white" stroke="#bfbfbf" points="84.42,-0.5 84.42,-19.5 149.42,-19.5 149.42,-0.5 84.42,-0.5"/>
<text text-anchor="middle" x="116.92" y="-7.5" font-family="Helvetica,sans-Serif" font-size="10.00">inttypes.h</text>
</a>
</g>
</g>
<!-- Node2&#45;&gt;Node4 -->
<g id="edge3" class="edge">
<title>Node2&#45;&gt;Node4</title>
<path fill="none" stroke="midnightblue" d="M84.36,-56.08C89.87,-48.46 97.95,-37.26 104.68,-27.94"/>
<polygon fill="midnightblue" stroke="midnightblue" points="107.58,-29.91 110.6,-19.75 101.9,-25.81 107.58,-29.91"/>
</g>
<!-- Node6&#45;&gt;Node2 -->
<g id="edge6" class="edge">
<title>Node6&#45;&gt;Node2</title>
<path fill="none" stroke="midnightblue" d="M156.81,-112.32C142.01,-103.82 119.22,-90.73 101.93,-80.8"/>
<polygon fill="midnightblue" stroke="midnightblue" points="103.4,-77.6 92.98,-75.65 99.91,-83.67 103.4,-77.6"/>
</g>
</g>
</svg>
