<?xml version="1.0" encoding="UTF-8" standalone="no"?>
<!DOCTYPE svg PUBLIC "-//W3C//DTD SVG 1.1//EN"
 "http://www.w3.org/Graphics/SVG/1.1/DTD/svg11.dtd">
<!-- Generated by graphviz version 2.43.0 (0)
 -->
<!-- Title: LADEL/include/ladel_permutation.h Pages: 1 -->
<svg width="504pt" height="173pt"
 viewBox="0.00 0.00 503.50 173.00" xmlns="http://www.w3.org/2000/svg" xmlns:xlink="http://www.w3.org/1999/xlink">
<g id="graph0" class="graph" transform="scale(1 1) rotate(0) translate(4 169)">
<title>LADEL/include/ladel_permutation.h</title>
<polygon fill="white" stroke="transparent" points="-4,4 -4,-169 499.5,-169 499.5,4 -4,4"/>
<!-- Node1 -->
<g id="node1" class="node">
<title>Node1</title>
<g id="a_node1"><a xlink:title="Routines to permute vectors and matrices.">
<polygon fill="#bfbfbf" stroke="black" points="147,-134.5 147,-164.5 260,-164.5 260,-134.5 147,-134.5"/>
<text text-anchor="start" x="155" y="-152.5" font-family="Helvetica,sans-Serif" font-size="10.00">LADEL/include/ladel</text>
<text text-anchor="middle" x="203.5" y="-141.5" font-family="Helvetica,sans-Serif" font-size="10.00">_permutation.h</text>
</a>
</g>
</g>
<!-- Node2 -->
<g id="node2" class="node">
<title>Node2</title>
<g id="a_node2"><a xlink:href="ladel_8h.html" target="_top" xlink:title="LADEL main include file.">
<polygon fill="white" stroke="black" points="53.5,-73 53.5,-92 175.5,-92 175.5,-73 53.5,-73"/>
<text text-anchor="middle" x="114.5" y="-80" font-family="Helvetica,sans-Serif" font-size="10.00">LADEL/include/ladel.h</text>
</a>
</g>
</g>
<!-- Node1&#45;&gt;Node2 -->
<g id="edge1" class="edge">
<title>Node1&#45;&gt;Node2</title>
<path fill="none" stroke="midnightblue" d="M175.85,-128.31C159.14,-116.1 138.7,-101.18 126.15,-92.01"/>
<polygon fill="midnightblue" stroke="midnightblue" points="174.05,-131.32 184.19,-134.4 178.18,-125.67 174.05,-131.32"/>
</g>
<!-- Node3 -->
<g id="node3" class="node">
<title>Node3</title>
<g id="a_node3"><a xlink:href="ladel_8c.html" target="_top" xlink:title=" ">
<polygon fill="white" stroke="black" points="0,-6 0,-25 101,-25 101,-6 0,-6"/>
<text text-anchor="middle" x="50.5" y="-13" font-family="Helvetica,sans-Serif" font-size="10.00">LADEL/src/ladel.c</text>
</a>
</g>
</g>
<!-- Node1&#45;&gt;Node3 -->
<g id="edge4" class="edge">
<title>Node1&#45;&gt;Node3</title>
<path fill="none" stroke="midnightblue" d="M136.58,-145.09C103.21,-139.58 65.58,-126.81 44.5,-98 28.42,-76.02 39.83,-41.16 46.55,-25.11"/>
<polygon fill="midnightblue" stroke="midnightblue" points="136.37,-148.59 146.77,-146.57 137.38,-141.67 136.37,-148.59"/>
</g>
<!-- Node4 -->
<g id="node4" class="node">
<title>Node4</title>
<g id="a_node4"><a xlink:href="ladel__row__mod_8c.html" target="_top" xlink:title=" ">
<polygon fill="white" stroke="black" points="132.5,-0.5 132.5,-30.5 248.5,-30.5 248.5,-0.5 132.5,-0.5"/>
<text text-anchor="start" x="140.5" y="-18.5" font-family="Helvetica,sans-Serif" font-size="10.00">LADEL/src/ladel_row</text>
<text text-anchor="middle" x="190.5" y="-7.5" font-family="Helvetica,sans-Serif" font-size="10.00">_mod.c</text>
</a>
</g>
</g>
<!-- Node1&#45;&gt;Node4 -->
<g id="edge7" class="edge">
<title>Node1&#45;&gt;Node4</title>
<path fill="none" stroke="midnightblue" d="M201.13,-124.39C198.42,-96.9 194.08,-52.89 191.88,-30.52"/>
<polygon fill="midnightblue" stroke="midnightblue" points="197.65,-124.76 202.11,-134.37 204.61,-124.08 197.65,-124.76"/>
</g>
<!-- Node5 -->
<g id="node5" class="node">
<title>Node5</title>
<g id="a_node5"><a xlink:href="ladel__global_8c.html" target="_top" xlink:title=" ">
<polygon fill="white" stroke="black" points="231.5,-73 231.5,-92 367.5,-92 367.5,-73 231.5,-73"/>
<text text-anchor="middle" x="299.5" y="-80" font-family="Helvetica,sans-Serif" font-size="10.00">LADEL/src/ladel_global.c</text>
</a>
</g>
</g>
<!-- Node1&#45;&gt;Node5 -->
<g id="edge5" class="edge">
<title>Node1&#45;&gt;Node5</title>
<path fill="none" stroke="midnightblue" d="M232.83,-128.64C250.95,-116.37 273.27,-101.26 286.94,-92.01"/>
<polygon fill="midnightblue" stroke="midnightblue" points="230.65,-125.89 224.33,-134.4 234.57,-131.69 230.65,-125.89"/>
</g>
<!-- Node6 -->
<g id="node6" class="node">
<title>Node6</title>
<g id="a_node6"><a xlink:href="ladel__ldl__symbolic_8c.html" target="_top" xlink:title=" ">
<polygon fill="white" stroke="black" points="385.5,-67.5 385.5,-97.5 495.5,-97.5 495.5,-67.5 385.5,-67.5"/>
<text text-anchor="start" x="393.5" y="-85.5" font-family="Helvetica,sans-Serif" font-size="10.00">LADEL/src/ladel_ldl</text>
<text text-anchor="middle" x="440.5" y="-74.5" font-family="Helvetica,sans-Serif" font-size="10.00">_symbolic.c</text>
</a>
</g>
</g>
<!-- Node1&#45;&gt;Node6 -->
<g id="edge6" class="edge">
<title>Node1&#45;&gt;Node6</title>
<path fill="none" stroke="midnightblue" d="M264.7,-131.71C303.27,-121.14 352.5,-107.63 389.05,-97.61"/>
<polygon fill="midnightblue" stroke="midnightblue" points="263.35,-128.46 254.63,-134.48 265.2,-135.21 263.35,-128.46"/>
</g>
<!-- Node2&#45;&gt;Node3 -->
<g id="edge2" class="edge">
<title>Node2&#45;&gt;Node3</title>
<path fill="none" stroke="midnightblue" d="M98.74,-65.5C86.19,-52.75 69.1,-35.39 58.99,-25.13"/>
<polygon fill="midnightblue" stroke="midnightblue" points="96.36,-68.06 105.87,-72.73 101.35,-63.15 96.36,-68.06"/>
</g>
<!-- Node2&#45;&gt;Node4 -->
<g id="edge3" class="edge">
<title>Node2&#45;&gt;Node4</title>
<path fill="none" stroke="midnightblue" d="M132.71,-65.93C145.28,-55.18 161.85,-41 174.03,-30.59"/>
<polygon fill="midnightblue" stroke="midnightblue" points="130.07,-63.57 124.75,-72.73 134.62,-68.89 130.07,-63.57"/>
</g>
</g>
</svg>
