<?xml version="1.0" encoding="UTF-8" standalone="no"?>
<!DOCTYPE svg PUBLIC "-//W3C//DTD SVG 1.1//EN"
 "http://www.w3.org/Graphics/SVG/1.1/DTD/svg11.dtd">
<!-- Generated by graphviz version 2.43.0 (0)
 -->
<!-- Title: ladel_int_vector_copy Pages: 1 -->
<svg width="640pt" height="94pt"
 viewBox="0.00 0.00 640.00 93.50" xmlns="http://www.w3.org/2000/svg" xmlns:xlink="http://www.w3.org/1999/xlink">
<g id="graph0" class="graph" transform="scale(1 1) rotate(0) translate(4 89.5)">
<title>ladel_int_vector_copy</title>
<polygon fill="white" stroke="transparent" points="-4,4 -4,-89.5 636,-89.5 636,4 -4,4"/>
<!-- Node1 -->
<g id="node1" class="node">
<title>Node1</title>
<g id="a_node1"><a xlink:title="Copies an integer vector (preallocated)">
<polygon fill="#bfbfbf" stroke="black" points="509,-19.5 509,-38.5 632,-38.5 632,-19.5 509,-19.5"/>
<text text-anchor="middle" x="570.5" y="-26.5" font-family="Helvetica,sans-Serif" font-size="10.00">ladel_int_vector_copy</text>
</a>
</g>
</g>
<!-- Node2 -->
<g id="node2" class="node">
<title>Node2</title>
<g id="a_node2"><a xlink:href="ladel__global_8c.html#a968028b68306172d3fb202fb434624a6" target="_top" xlink:title="Allocate a factors struct.">
<polygon fill="white" stroke="black" points="354,-38.5 354,-57.5 473,-57.5 473,-38.5 354,-38.5"/>
<text text-anchor="middle" x="413.5" y="-45.5" font-family="Helvetica,sans-Serif" font-size="10.00">ladel_factor_allocate</text>
</a>
</g>
</g>
<!-- Node1&#45;&gt;Node2 -->
<g id="edge1" class="edge">
<title>Node1&#45;&gt;Node2</title>
<path fill="none" stroke="midnightblue" d="M498.71,-37.68C490.15,-38.73 481.47,-39.79 473.11,-40.82"/>
<polygon fill="midnightblue" stroke="midnightblue" points="499.18,-41.15 508.68,-36.45 498.33,-34.2 499.18,-41.15"/>
</g>
<!-- Node7 -->
<g id="node7" class="node">
<title>Node7</title>
<g id="a_node7"><a xlink:href="group__grp-solver.html#ga113fd8ef702d93bd92314bd4bc118f24" target="_top" xlink:title="Updates an &#160;factorization.">
<polygon fill="white" stroke="black" points="370,-0.5 370,-19.5 457,-19.5 457,-0.5 370,-0.5"/>
<text text-anchor="middle" x="413.5" y="-7.5" font-family="Helvetica,sans-Serif" font-size="10.00">ladel_row_add</text>
</a>
</g>
</g>
<!-- Node1&#45;&gt;Node7 -->
<g id="edge6" class="edge">
<title>Node1&#45;&gt;Node7</title>
<path fill="none" stroke="midnightblue" d="M498.54,-20.3C484.51,-18.58 470.18,-16.83 457.43,-15.26"/>
<polygon fill="midnightblue" stroke="midnightblue" points="498.33,-23.8 508.68,-21.55 499.18,-16.85 498.33,-23.8"/>
</g>
<!-- Node3 -->
<g id="node3" class="node">
<title>Node3</title>
<g id="a_node3"><a xlink:href="group__grp-solver.html#gaff676fbf1dd6dbf8096c5349d264297f" target="_top" xlink:title="Computes the &#160;factorization of &#160;but allocates based on Mbasis.">
<polygon fill="white" stroke="black" points="177,-55 177,-85 318,-85 318,-55 177,-55"/>
<text text-anchor="start" x="185" y="-73" font-family="Helvetica,sans-Serif" font-size="10.00">ladel_factorize_advanced</text>
<text text-anchor="middle" x="247.5" y="-62" font-family="Helvetica,sans-Serif" font-size="10.00">_with_diag</text>
</a>
</g>
</g>
<!-- Node2&#45;&gt;Node3 -->
<g id="edge2" class="edge">
<title>Node2&#45;&gt;Node3</title>
<path fill="none" stroke="midnightblue" d="M343.57,-57.25C335.12,-58.38 326.48,-59.54 318.02,-60.67"/>
<polygon fill="midnightblue" stroke="midnightblue" points="344.31,-60.68 353.76,-55.88 343.38,-53.74 344.31,-60.68"/>
</g>
<!-- Node5 -->
<g id="node5" class="node">
<title>Node5</title>
<g id="a_node5"><a xlink:href="group__grp-solver.html#ga129ea878837012c6ac76fb6046bc9449" target="_top" xlink:title="Computes the &#160;factorization of .">
<polygon fill="white" stroke="black" points="177,-16.5 177,-35.5 318,-35.5 318,-16.5 177,-16.5"/>
<text text-anchor="middle" x="247.5" y="-23.5" font-family="Helvetica,sans-Serif" font-size="10.00">ladel_factorize_with_diag</text>
</a>
</g>
</g>
<!-- Node2&#45;&gt;Node5 -->
<g id="edge4" class="edge">
<title>Node2&#45;&gt;Node5</title>
<path fill="none" stroke="midnightblue" d="M343.57,-38.75C335.12,-37.62 326.48,-36.46 318.02,-35.33"/>
<polygon fill="midnightblue" stroke="midnightblue" points="343.38,-42.26 353.76,-40.12 344.31,-35.32 343.38,-42.26"/>
</g>
<!-- Node4 -->
<g id="node4" class="node">
<title>Node4</title>
<g id="a_node4"><a xlink:href="group__grp-solver.html#gac217d5bb50524bf6bbc0e7fa473edcfb" target="_top" xlink:title="Computes the &#160;factorization of &#160;but allocates based on Mbasis.">
<polygon fill="white" stroke="black" points="0,-60.5 0,-79.5 141,-79.5 141,-60.5 0,-60.5"/>
<text text-anchor="middle" x="70.5" y="-67.5" font-family="Helvetica,sans-Serif" font-size="10.00">ladel_factorize_advanced</text>
</a>
</g>
</g>
<!-- Node3&#45;&gt;Node4 -->
<g id="edge3" class="edge">
<title>Node3&#45;&gt;Node4</title>
<path fill="none" stroke="midnightblue" d="M166.58,-70C158.11,-70 149.55,-70 141.21,-70"/>
<polygon fill="midnightblue" stroke="midnightblue" points="166.83,-73.5 176.83,-70 166.83,-66.5 166.83,-73.5"/>
</g>
<!-- Node6 -->
<g id="node6" class="node">
<title>Node6</title>
<g id="a_node6"><a xlink:href="group__grp-solver.html#ga6167c294e588fe34776d40e53c6ddbc9" target="_top" xlink:title="Computes the &#160;factorization of .">
<polygon fill="white" stroke="black" points="26,-16.5 26,-35.5 115,-35.5 115,-16.5 26,-16.5"/>
<text text-anchor="middle" x="70.5" y="-23.5" font-family="Helvetica,sans-Serif" font-size="10.00">ladel_factorize</text>
</a>
</g>
</g>
<!-- Node5&#45;&gt;Node6 -->
<g id="edge5" class="edge">
<title>Node5&#45;&gt;Node6</title>
<path fill="none" stroke="midnightblue" d="M166.51,-26C148.87,-26 130.82,-26 115.25,-26"/>
<polygon fill="midnightblue" stroke="midnightblue" points="166.83,-29.5 176.83,-26 166.83,-22.5 166.83,-29.5"/>
</g>
</g>
</svg>
