<?xml version="1.0" encoding="UTF-8" standalone="no"?>
<!DOCTYPE svg PUBLIC "-//W3C//DTD SVG 1.1//EN"
 "http://www.w3.org/Graphics/SVG/1.1/DTD/svg11.dtd">
<!-- Generated by graphviz version 2.43.0 (0)
 -->
<!-- Title: ladel_realloc Pages: 1 -->
<svg width="390pt" height="28pt"
 viewBox="0.00 0.00 390.00 28.00" xmlns="http://www.w3.org/2000/svg" xmlns:xlink="http://www.w3.org/1999/xlink">
<g id="graph0" class="graph" transform="scale(1 1) rotate(0) translate(4 24)">
<title>ladel_realloc</title>
<polygon fill="white" stroke="transparent" points="-4,4 -4,-24 386,-24 386,4 -4,4"/>
<!-- Node1 -->
<g id="node1" class="node">
<title>Node1</title>
<g id="a_node1"><a xlink:title="Version of realloc (for mex or for regular C).">
<polygon fill="#bfbfbf" stroke="black" points="303,-0.5 303,-19.5 382,-19.5 382,-0.5 303,-0.5"/>
<text text-anchor="middle" x="342.5" y="-7.5" font-family="Helvetica,sans-Serif" font-size="10.00">ladel_realloc</text>
</a>
</g>
</g>
<!-- Node2 -->
<g id="node2" class="node">
<title>Node2</title>
<g id="a_node2"><a xlink:href="ladel__global_8c.html#af8f67d34b27615876be4d1359556890a" target="_top" xlink:title="Reallocate a sparse matrix with a new size.">
<polygon fill="white" stroke="black" points="151,-0.5 151,-19.5 267,-19.5 267,-0.5 151,-0.5"/>
<text text-anchor="middle" x="209" y="-7.5" font-family="Helvetica,sans-Serif" font-size="10.00">ladel_sparse_realloc</text>
</a>
</g>
</g>
<!-- Node1&#45;&gt;Node2 -->
<g id="edge1" class="edge">
<title>Node1&#45;&gt;Node2</title>
<path fill="none" stroke="midnightblue" d="M292.62,-10C284.43,-10 275.86,-10 267.47,-10"/>
<polygon fill="midnightblue" stroke="midnightblue" points="292.76,-13.5 302.76,-10 292.76,-6.5 292.76,-13.5"/>
</g>
<!-- Node3 -->
<g id="node3" class="node">
<title>Node3</title>
<g id="a_node3"><a xlink:href="ladel__upper__diag_8c.html#a7a4946c49cace1648ec43ab05e35b8e6" target="_top" xlink:title="Return , that is the upper diagonal elements of M.">
<polygon fill="white" stroke="black" points="0,-0.5 0,-19.5 115,-19.5 115,-0.5 0,-0.5"/>
<text text-anchor="middle" x="57.5" y="-7.5" font-family="Helvetica,sans-Serif" font-size="10.00">ladel_to_upper_diag</text>
</a>
</g>
</g>
<!-- Node2&#45;&gt;Node3 -->
<g id="edge2" class="edge">
<title>Node2&#45;&gt;Node3</title>
<path fill="none" stroke="midnightblue" d="M140.51,-10C132.15,-10 123.66,-10 115.47,-10"/>
<polygon fill="midnightblue" stroke="midnightblue" points="140.63,-13.5 150.63,-10 140.63,-6.5 140.63,-13.5"/>
</g>
</g>
</svg>
