<?xml version="1.0" encoding="UTF-8" standalone="no"?>
<!DOCTYPE svg PUBLIC "-//W3C//DTD SVG 1.1//EN"
 "http://www.w3.org/Graphics/SVG/1.1/DTD/svg11.dtd">
<!-- Generated by graphviz version 2.43.0 (0)
 -->
<!-- Title: ladel_add_matrices_pattern Pages: 1 -->
<svg width="651pt" height="104pt"
 viewBox="0.00 0.00 651.00 104.00" xmlns="http://www.w3.org/2000/svg" xmlns:xlink="http://www.w3.org/1999/xlink">
<g id="graph0" class="graph" transform="scale(1 1) rotate(0) translate(4 100)">
<title>ladel_add_matrices_pattern</title>
<polygon fill="white" stroke="transparent" points="-4,4 -4,-100 647,-100 647,4 -4,4"/>
<!-- Node1 -->
<g id="node1" class="node">
<title>Node1</title>
<g id="a_node1"><a xlink:title="Returns a pattern matrix whose pattern includes the patterns of A and B.">
<polygon fill="#bfbfbf" stroke="black" points="0,-33 0,-63 112,-63 112,-33 0,-33"/>
<text text-anchor="start" x="8" y="-51" font-family="Helvetica,sans-Serif" font-size="10.00">ladel_add_matrices</text>
<text text-anchor="middle" x="56" y="-40" font-family="Helvetica,sans-Serif" font-size="10.00">_pattern</text>
</a>
</g>
</g>
<!-- Node2 -->
<g id="node2" class="node">
<title>Node2</title>
<g id="a_node2"><a xlink:href="ladel__add_8c.html#a758b63f39a12a53be24928cfd71f0bfe" target="_top" xlink:title="Returns a sparse matrix &#160;if values==TRUE, or a pattern matrix that includes the patterns of A and B i...">
<polygon fill="white" stroke="black" points="148,-33 148,-63 260,-63 260,-33 148,-33"/>
<text text-anchor="start" x="156" y="-51" font-family="Helvetica,sans-Serif" font-size="10.00">ladel_add_matrices</text>
<text text-anchor="middle" x="204" y="-40" font-family="Helvetica,sans-Serif" font-size="10.00">_advanced</text>
</a>
</g>
</g>
<!-- Node1&#45;&gt;Node2 -->
<g id="edge1" class="edge">
<title>Node1&#45;&gt;Node2</title>
<path fill="none" stroke="midnightblue" d="M112.2,-48C120.46,-48 129.05,-48 137.51,-48"/>
<polygon fill="midnightblue" stroke="midnightblue" points="137.73,-51.5 147.73,-48 137.73,-44.5 137.73,-51.5"/>
</g>
<!-- Node3 -->
<g id="node3" class="node">
<title>Node3</title>
<g id="a_node3"><a xlink:href="ladel__global_8c.html#a6e485045ec098c0b5a9afe07875a1e59" target="_top" xlink:title="Allocate a sparse matrix.">
<polygon fill="white" stroke="black" points="296,-38.5 296,-57.5 403,-57.5 403,-38.5 296,-38.5"/>
<text text-anchor="middle" x="349.5" y="-45.5" font-family="Helvetica,sans-Serif" font-size="10.00">ladel_sparse_alloc</text>
</a>
</g>
</g>
<!-- Node2&#45;&gt;Node3 -->
<g id="edge2" class="edge">
<title>Node2&#45;&gt;Node3</title>
<path fill="none" stroke="midnightblue" d="M260.07,-48C268.39,-48 277.02,-48 285.49,-48"/>
<polygon fill="midnightblue" stroke="midnightblue" points="285.7,-51.5 295.7,-48 285.7,-44.5 285.7,-51.5"/>
</g>
<!-- Node4 -->
<g id="node4" class="node">
<title>Node4</title>
<g id="a_node4"><a xlink:href="ladel__global_8c.html#a15a407b5c8ad9de2faeb93fcd786e099" target="_top" xlink:title="Version of calloc (for mex or for regular C).">
<polygon fill="white" stroke="black" points="453.5,-76.5 453.5,-95.5 527.5,-95.5 527.5,-76.5 453.5,-76.5"/>
<text text-anchor="middle" x="490.5" y="-83.5" font-family="Helvetica,sans-Serif" font-size="10.00">ladel_calloc</text>
</a>
</g>
</g>
<!-- Node3&#45;&gt;Node4 -->
<g id="edge3" class="edge">
<title>Node3&#45;&gt;Node4</title>
<path fill="none" stroke="midnightblue" d="M385.58,-57.59C403.52,-62.49 425.56,-68.52 444.72,-73.76"/>
<polygon fill="midnightblue" stroke="midnightblue" points="443.87,-77.15 454.44,-76.41 445.71,-70.4 443.87,-77.15"/>
</g>
<!-- Node5 -->
<g id="node5" class="node">
<title>Node5</title>
<g id="a_node5"><a xlink:href="ladel__global_8c.html#a86142b1e820a5de1deea8ee656186245" target="_top" xlink:title="Version of malloc (for mex or for regular C).">
<polygon fill="white" stroke="black" points="451,-38.5 451,-57.5 530,-57.5 530,-38.5 451,-38.5"/>
<text text-anchor="middle" x="490.5" y="-45.5" font-family="Helvetica,sans-Serif" font-size="10.00">ladel_malloc</text>
</a>
</g>
</g>
<!-- Node3&#45;&gt;Node5 -->
<g id="edge4" class="edge">
<title>Node3&#45;&gt;Node5</title>
<path fill="none" stroke="midnightblue" d="M403.05,-48C415.3,-48 428.3,-48 440.39,-48"/>
<polygon fill="midnightblue" stroke="midnightblue" points="440.74,-51.5 450.74,-48 440.74,-44.5 440.74,-51.5"/>
</g>
<!-- Node6 -->
<g id="node6" class="node">
<title>Node6</title>
<g id="a_node6"><a xlink:href="ladel__global_8c.html#afaa07a7aa3c8517d3853968448b398a0" target="_top" xlink:title="Free a sparse matrix (and return NULL).">
<polygon fill="white" stroke="black" points="439,-0.5 439,-19.5 542,-19.5 542,-0.5 439,-0.5"/>
<text text-anchor="middle" x="490.5" y="-7.5" font-family="Helvetica,sans-Serif" font-size="10.00">ladel_sparse_free</text>
</a>
</g>
</g>
<!-- Node3&#45;&gt;Node6 -->
<g id="edge5" class="edge">
<title>Node3&#45;&gt;Node6</title>
<path fill="none" stroke="midnightblue" d="M385.58,-38.41C403.52,-33.51 425.56,-27.48 444.72,-22.24"/>
<polygon fill="midnightblue" stroke="midnightblue" points="445.71,-25.6 454.44,-19.59 443.87,-18.85 445.71,-25.6"/>
</g>
<!-- Node7 -->
<g id="node7" class="node">
<title>Node7</title>
<g id="a_node7"><a xlink:href="ladel__global_8c.html#a946ae8034525eb6db42d4a166be57968" target="_top" xlink:title="Version of free (for mex or for regular C).">
<polygon fill="white" stroke="black" points="578,-0.5 578,-19.5 643,-19.5 643,-0.5 578,-0.5"/>
<text text-anchor="middle" x="610.5" y="-7.5" font-family="Helvetica,sans-Serif" font-size="10.00">ladel_free</text>
</a>
</g>
</g>
<!-- Node6&#45;&gt;Node7 -->
<g id="edge6" class="edge">
<title>Node6&#45;&gt;Node7</title>
<path fill="none" stroke="midnightblue" d="M542.23,-10C550.75,-10 559.5,-10 567.76,-10"/>
<polygon fill="midnightblue" stroke="midnightblue" points="567.91,-13.5 577.91,-10 567.91,-6.5 567.91,-13.5"/>
</g>
</g>
</svg>
