<?xml version="1.0" encoding="UTF-8" standalone="no"?>
<!DOCTYPE svg PUBLIC "-//W3C//DTD SVG 1.1//EN"
 "http://www.w3.org/Graphics/SVG/1.1/DTD/svg11.dtd">
<!-- Generated by graphviz version 2.43.0 (0)
 -->
<!-- Title: LADEL/include/ladel_pattern.h Pages: 1 -->
<svg width="324pt" height="173pt"
 viewBox="0.00 0.00 323.50 173.00" xmlns="http://www.w3.org/2000/svg" xmlns:xlink="http://www.w3.org/1999/xlink">
<g id="graph0" class="graph" transform="scale(1 1) rotate(0) translate(4 169)">
<title>LADEL/include/ladel_pattern.h</title>
<polygon fill="white" stroke="transparent" points="-4,4 -4,-169 319.5,-169 319.5,4 -4,4"/>
<!-- Node1 -->
<g id="node1" class="node">
<title>Node1</title>
<g id="a_node1"><a xlink:title="Routines to compute the pattern of the result of a backsolve.">
<polygon fill="#bfbfbf" stroke="black" points="121,-134.5 121,-164.5 234,-164.5 234,-134.5 121,-134.5"/>
<text text-anchor="start" x="129" y="-152.5" font-family="Helvetica,sans-Serif" font-size="10.00">LADEL/include/ladel</text>
<text text-anchor="middle" x="177.5" y="-141.5" font-family="Helvetica,sans-Serif" font-size="10.00">_pattern.h</text>
</a>
</g>
</g>
<!-- Node2 -->
<g id="node2" class="node">
<title>Node2</title>
<g id="a_node2"><a xlink:href="ladel_8h.html" target="_top" xlink:title="LADEL main include file.">
<polygon fill="white" stroke="black" points="27.5,-73 27.5,-92 149.5,-92 149.5,-73 27.5,-73"/>
<text text-anchor="middle" x="88.5" y="-80" font-family="Helvetica,sans-Serif" font-size="10.00">LADEL/include/ladel.h</text>
</a>
</g>
</g>
<!-- Node1&#45;&gt;Node2 -->
<g id="edge1" class="edge">
<title>Node1&#45;&gt;Node2</title>
<path fill="none" stroke="midnightblue" d="M149.85,-128.31C133.14,-116.1 112.7,-101.18 100.15,-92.01"/>
<polygon fill="midnightblue" stroke="midnightblue" points="148.05,-131.32 158.19,-134.4 152.18,-125.67 148.05,-131.32"/>
</g>
<!-- Node4 -->
<g id="node4" class="node">
<title>Node4</title>
<g id="a_node4"><a xlink:href="ladel__row__mod_8c.html" target="_top" xlink:title=" ">
<polygon fill="white" stroke="black" points="119.5,-0.5 119.5,-30.5 235.5,-30.5 235.5,-0.5 119.5,-0.5"/>
<text text-anchor="start" x="127.5" y="-18.5" font-family="Helvetica,sans-Serif" font-size="10.00">LADEL/src/ladel_row</text>
<text text-anchor="middle" x="177.5" y="-7.5" font-family="Helvetica,sans-Serif" font-size="10.00">_mod.c</text>
</a>
</g>
</g>
<!-- Node1&#45;&gt;Node4 -->
<g id="edge5" class="edge">
<title>Node1&#45;&gt;Node4</title>
<path fill="none" stroke="midnightblue" d="M177.5,-124.02C177.5,-96.51 177.5,-52.79 177.5,-30.52"/>
<polygon fill="midnightblue" stroke="midnightblue" points="174,-124.37 177.5,-134.37 181,-124.37 174,-124.37"/>
</g>
<!-- Node5 -->
<g id="node5" class="node">
<title>Node5</title>
<g id="a_node5"><a xlink:href="ladel__ldl__numeric_8c.html" target="_top" xlink:title=" ">
<polygon fill="white" stroke="black" points="205.5,-67.5 205.5,-97.5 315.5,-97.5 315.5,-67.5 205.5,-67.5"/>
<text text-anchor="start" x="213.5" y="-85.5" font-family="Helvetica,sans-Serif" font-size="10.00">LADEL/src/ladel_ldl</text>
<text text-anchor="middle" x="260.5" y="-74.5" font-family="Helvetica,sans-Serif" font-size="10.00">_numeric.c</text>
</a>
</g>
</g>
<!-- Node1&#45;&gt;Node5 -->
<g id="edge4" class="edge">
<title>Node1&#45;&gt;Node5</title>
<path fill="none" stroke="midnightblue" d="M203.46,-128.17C216.15,-118.23 231.11,-106.51 242.53,-97.58"/>
<polygon fill="midnightblue" stroke="midnightblue" points="201.22,-125.47 195.51,-134.4 205.54,-130.99 201.22,-125.47"/>
</g>
<!-- Node3 -->
<g id="node3" class="node">
<title>Node3</title>
<g id="a_node3"><a xlink:href="ladel_8c.html" target="_top" xlink:title=" ">
<polygon fill="white" stroke="black" points="0,-6 0,-25 101,-25 101,-6 0,-6"/>
<text text-anchor="middle" x="50.5" y="-13" font-family="Helvetica,sans-Serif" font-size="10.00">LADEL/src/ladel.c</text>
</a>
</g>
</g>
<!-- Node2&#45;&gt;Node3 -->
<g id="edge2" class="edge">
<title>Node2&#45;&gt;Node3</title>
<path fill="none" stroke="midnightblue" d="M78.29,-64.03C70.93,-51.45 61.32,-35.01 55.54,-25.13"/>
<polygon fill="midnightblue" stroke="midnightblue" points="75.31,-65.87 83.38,-72.73 81.35,-62.33 75.31,-65.87"/>
</g>
<!-- Node2&#45;&gt;Node4 -->
<g id="edge3" class="edge">
<title>Node2&#45;&gt;Node4</title>
<path fill="none" stroke="midnightblue" d="M108.98,-66.54C123.79,-55.73 143.68,-41.2 158.21,-30.59"/>
<polygon fill="midnightblue" stroke="midnightblue" points="106.51,-64.01 100.5,-72.73 110.64,-69.66 106.51,-64.01"/>
</g>
</g>
</svg>
