<?xml version="1.0" encoding="UTF-8" standalone="no"?>
<!DOCTYPE svg PUBLIC "-//W3C//DTD SVG 1.1//EN"
 "http://www.w3.org/Graphics/SVG/1.1/DTD/svg11.dtd">
<!-- Generated by graphviz version 2.43.0 (0)
 -->
<!-- Title: LADEL/src/ladel_ldl_numeric.c Pages: 1 -->
<svg width="500pt" height="319pt"
 viewBox="0.00 0.00 500.00 319.00" xmlns="http://www.w3.org/2000/svg" xmlns:xlink="http://www.w3.org/1999/xlink">
<g id="graph0" class="graph" transform="scale(1 1) rotate(0) translate(4 315)">
<title>LADEL/src/ladel_ldl_numeric.c</title>
<polygon fill="white" stroke="transparent" points="-4,4 -4,-315 496,-315 496,4 -4,4"/>
<!-- Node1 -->
<g id="node1" class="node">
<title>Node1</title>
<g id="a_node1"><a xlink:title=" ">
<polygon fill="#bfbfbf" stroke="black" points="234,-280.5 234,-310.5 344,-310.5 344,-280.5 234,-280.5"/>
<text text-anchor="start" x="242" y="-298.5" font-family="Helvetica,sans-Serif" font-size="10.00">LADEL/src/ladel_ldl</text>
<text text-anchor="middle" x="289" y="-287.5" font-family="Helvetica,sans-Serif" font-size="10.00">_numeric.c</text>
</a>
</g>
</g>
<!-- Node2 -->
<g id="node2" class="node">
<title>Node2</title>
<g id="a_node2"><a xlink:href="ladel__types_8h.html" target="_top" xlink:title="Structures and types used in LADEL routines.">
<polygon fill="white" stroke="black" points="295,-56.5 295,-75.5 377,-75.5 377,-56.5 295,-56.5"/>
<text text-anchor="middle" x="336" y="-63.5" font-family="Helvetica,sans-Serif" font-size="10.00">ladel_types.h</text>
</a>
</g>
</g>
<!-- Node1&#45;&gt;Node2 -->
<g id="edge1" class="edge">
<title>Node1&#45;&gt;Node2</title>
<path fill="none" stroke="midnightblue" d="M317.48,-280.35C331.21,-271.86 346.34,-259.66 354,-244 379.97,-190.93 357.08,-118.34 343.85,-85.03"/>
<polygon fill="midnightblue" stroke="midnightblue" points="347.03,-83.57 339.96,-75.68 340.56,-86.25 347.03,-83.57"/>
</g>
<!-- Node5 -->
<g id="node5" class="node">
<title>Node5</title>
<g id="a_node5"><a xlink:href="ladel__global_8h.html" target="_top" xlink:title="Memory allocation routines.">
<polygon fill="white" stroke="black" points="172.5,-168.5 172.5,-187.5 257.5,-187.5 257.5,-168.5 172.5,-168.5"/>
<text text-anchor="middle" x="215" y="-175.5" font-family="Helvetica,sans-Serif" font-size="10.00">ladel_global.h</text>
</a>
</g>
</g>
<!-- Node1&#45;&gt;Node5 -->
<g id="edge4" class="edge">
<title>Node1&#45;&gt;Node5</title>
<path fill="none" stroke="midnightblue" d="M261.54,-280.45C247.65,-271.86 231.89,-259.53 223,-244 214.97,-229.97 213.39,-211.47 213.57,-197.8"/>
<polygon fill="midnightblue" stroke="midnightblue" points="217.08,-197.8 214.04,-187.65 210.08,-197.48 217.08,-197.8"/>
</g>
<!-- Node6 -->
<g id="node6" class="node">
<title>Node6</title>
<g id="a_node6"><a xlink:href="ladel__constants_8h.html" target="_top" xlink:title="Constants and macros used in LADEL.">
<polygon fill="white" stroke="black" points="0,-112.5 0,-131.5 102,-131.5 102,-112.5 0,-112.5"/>
<text text-anchor="middle" x="51" y="-119.5" font-family="Helvetica,sans-Serif" font-size="10.00">ladel_constants.h</text>
</a>
</g>
</g>
<!-- Node1&#45;&gt;Node6 -->
<g id="edge10" class="edge">
<title>Node1&#45;&gt;Node6</title>
<path fill="none" stroke="midnightblue" d="M266.51,-280.29C251.02,-270.37 230.05,-256.68 212,-244 159.66,-207.23 99.91,-161.22 70.07,-137.95"/>
<polygon fill="midnightblue" stroke="midnightblue" points="72.17,-135.16 62.14,-131.76 67.86,-140.68 72.17,-135.16"/>
</g>
<!-- Node9 -->
<g id="node9" class="node">
<title>Node9</title>
<g id="a_node9"><a xlink:href="ladel__pattern_8h.html" target="_top" xlink:title="Routines to compute the pattern of the result of a backsolve.">
<polygon fill="white" stroke="black" points="402,-168.5 402,-187.5 492,-187.5 492,-168.5 402,-168.5"/>
<text text-anchor="middle" x="447" y="-175.5" font-family="Helvetica,sans-Serif" font-size="10.00">ladel_pattern.h</text>
</a>
</g>
</g>
<!-- Node1&#45;&gt;Node9 -->
<g id="edge11" class="edge">
<title>Node1&#45;&gt;Node9</title>
<path fill="none" stroke="midnightblue" d="M323.78,-280.5C343.63,-271.62 368.38,-259 388,-244 406.08,-230.18 423.14,-210.37 434.22,-196.26"/>
<polygon fill="midnightblue" stroke="midnightblue" points="437.29,-198 440.58,-187.93 431.73,-193.75 437.29,-198"/>
</g>
<!-- Node10 -->
<g id="node10" class="node">
<title>Node10</title>
<g id="a_node10"><a xlink:href="ladel__debug__print_8h.html" target="_top" xlink:title="Routines to print out matrices and vectors.">
<polygon fill="white" stroke="black" points="232.5,-224.5 232.5,-243.5 345.5,-243.5 345.5,-224.5 232.5,-224.5"/>
<text text-anchor="middle" x="289" y="-231.5" font-family="Helvetica,sans-Serif" font-size="10.00">ladel_debug_print.h</text>
</a>
</g>
</g>
<!-- Node1&#45;&gt;Node10 -->
<g id="edge13" class="edge">
<title>Node1&#45;&gt;Node10</title>
<path fill="none" stroke="midnightblue" d="M289,-280.4C289,-272.47 289,-262.46 289,-253.86"/>
<polygon fill="midnightblue" stroke="midnightblue" points="292.5,-253.66 289,-243.66 285.5,-253.66 292.5,-253.66"/>
</g>
<!-- Node3 -->
<g id="node3" class="node">
<title>Node3</title>
<g id="a_node3"><a xlink:title=" ">
<polygon fill="white" stroke="#bfbfbf" points="271.5,-0.5 271.5,-19.5 324.5,-19.5 324.5,-0.5 271.5,-0.5"/>
<text text-anchor="middle" x="298" y="-7.5" font-family="Helvetica,sans-Serif" font-size="10.00">stdint.h</text>
</a>
</g>
</g>
<!-- Node2&#45;&gt;Node3 -->
<g id="edge2" class="edge">
<title>Node2&#45;&gt;Node3</title>
<path fill="none" stroke="midnightblue" d="M329.73,-56.08C324.36,-48.46 316.48,-37.26 309.92,-27.94"/>
<polygon fill="midnightblue" stroke="midnightblue" points="312.78,-25.91 304.16,-19.75 307.05,-29.94 312.78,-25.91"/>
</g>
<!-- Node4 -->
<g id="node4" class="node">
<title>Node4</title>
<g id="a_node4"><a xlink:title=" ">
<polygon fill="white" stroke="#bfbfbf" points="342.5,-0.5 342.5,-19.5 407.5,-19.5 407.5,-0.5 342.5,-0.5"/>
<text text-anchor="middle" x="375" y="-7.5" font-family="Helvetica,sans-Serif" font-size="10.00">inttypes.h</text>
</a>
</g>
</g>
<!-- Node2&#45;&gt;Node4 -->
<g id="edge3" class="edge">
<title>Node2&#45;&gt;Node4</title>
<path fill="none" stroke="midnightblue" d="M342.44,-56.08C347.95,-48.46 356.03,-37.26 362.76,-27.94"/>
<polygon fill="midnightblue" stroke="midnightblue" points="365.66,-29.91 368.68,-19.75 359.99,-25.81 365.66,-29.91"/>
</g>
<!-- Node5&#45;&gt;Node2 -->
<g id="edge5" class="edge">
<title>Node5&#45;&gt;Node2</title>
<path fill="none" stroke="midnightblue" d="M217,-168.36C220.53,-154.8 229.05,-128.39 245,-112 259.42,-97.19 279.73,-86.5 297.5,-79.27"/>
<polygon fill="midnightblue" stroke="midnightblue" points="298.98,-82.46 307.06,-75.61 296.47,-75.92 298.98,-82.46"/>
</g>
<!-- Node5&#45;&gt;Node6 -->
<g id="edge6" class="edge">
<title>Node5&#45;&gt;Node6</title>
<path fill="none" stroke="midnightblue" d="M189.01,-168.44C161.3,-159.32 117.25,-144.81 86.38,-134.65"/>
<polygon fill="midnightblue" stroke="midnightblue" points="87.46,-131.32 76.86,-131.52 85.27,-137.97 87.46,-131.32"/>
</g>
<!-- Node7 -->
<g id="node7" class="node">
<title>Node7</title>
<g id="a_node7"><a xlink:href="ladel__copy_8h.html" target="_top" xlink:title="Routines to copy matrices and vectors.">
<polygon fill="white" stroke="black" points="120.5,-112.5 120.5,-131.5 197.5,-131.5 197.5,-112.5 120.5,-112.5"/>
<text text-anchor="middle" x="159" y="-119.5" font-family="Helvetica,sans-Serif" font-size="10.00">ladel_copy.h</text>
</a>
</g>
</g>
<!-- Node5&#45;&gt;Node7 -->
<g id="edge7" class="edge">
<title>Node5&#45;&gt;Node7</title>
<path fill="none" stroke="midnightblue" d="M206,-168.32C197.81,-160.42 185.49,-148.55 175.53,-138.94"/>
<polygon fill="midnightblue" stroke="midnightblue" points="177.79,-136.26 168.16,-131.83 172.93,-141.29 177.79,-136.26"/>
</g>
<!-- Node8 -->
<g id="node8" class="node">
<title>Node8</title>
<g id="a_node8"><a xlink:title=" ">
<polygon fill="white" stroke="#bfbfbf" points="254.5,-112.5 254.5,-131.5 307.5,-131.5 307.5,-112.5 254.5,-112.5"/>
<text text-anchor="middle" x="281" y="-119.5" font-family="Helvetica,sans-Serif" font-size="10.00">stdlib.h</text>
</a>
</g>
</g>
<!-- Node5&#45;&gt;Node8 -->
<g id="edge9" class="edge">
<title>Node5&#45;&gt;Node8</title>
<path fill="none" stroke="midnightblue" d="M225.6,-168.32C235.46,-160.26 250.35,-148.08 262.22,-138.37"/>
<polygon fill="midnightblue" stroke="midnightblue" points="264.68,-140.88 270.2,-131.83 260.25,-135.46 264.68,-140.88"/>
</g>
<!-- Node7&#45;&gt;Node2 -->
<g id="edge8" class="edge">
<title>Node7&#45;&gt;Node2</title>
<path fill="none" stroke="midnightblue" d="M187.05,-112.44C217.08,-103.28 264.91,-88.69 298.24,-78.52"/>
<polygon fill="midnightblue" stroke="midnightblue" points="299.54,-81.78 308.09,-75.52 297.5,-75.09 299.54,-81.78"/>
</g>
<!-- Node9&#45;&gt;Node2 -->
<g id="edge12" class="edge">
<title>Node9&#45;&gt;Node2</title>
<path fill="none" stroke="midnightblue" d="M439.68,-168.28C428.82,-155.52 407.63,-131.17 388,-112 377.32,-101.57 364.68,-90.6 354.53,-82.1"/>
<polygon fill="midnightblue" stroke="midnightblue" points="356.62,-79.29 346.69,-75.61 352.16,-84.68 356.62,-79.29"/>
</g>
<!-- Node10&#45;&gt;Node2 -->
<g id="edge15" class="edge">
<title>Node10&#45;&gt;Node2</title>
<path fill="none" stroke="midnightblue" d="M291.53,-224.08C298.93,-197.95 320.65,-121.21 330.74,-85.58"/>
<polygon fill="midnightblue" stroke="midnightblue" points="334.22,-86.14 333.57,-75.57 327.48,-84.24 334.22,-86.14"/>
</g>
<!-- Node10&#45;&gt;Node5 -->
<g id="edge14" class="edge">
<title>Node10&#45;&gt;Node5</title>
<path fill="none" stroke="midnightblue" d="M277.11,-224.32C265.85,-216.11 248.71,-203.6 235.29,-193.81"/>
<polygon fill="midnightblue" stroke="midnightblue" points="237.25,-190.9 227.11,-187.83 233.12,-196.56 237.25,-190.9"/>
</g>
</g>
</svg>
