<?xml version="1.0" encoding="UTF-8" standalone="no"?>
<!DOCTYPE svg PUBLIC "-//W3C//DTD SVG 1.1//EN"
 "http://www.w3.org/Graphics/SVG/1.1/DTD/svg11.dtd">
<!-- Generated by graphviz version 2.43.0 (0)
 -->
<!-- Title: ladel_sparse_allocate_and_copy Pages: 1 -->
<svg width="513pt" height="123pt"
 viewBox="0.00 0.00 513.00 123.00" xmlns="http://www.w3.org/2000/svg" xmlns:xlink="http://www.w3.org/1999/xlink">
<g id="graph0" class="graph" transform="scale(1 1) rotate(0) translate(4 119)">
<title>ladel_sparse_allocate_and_copy</title>
<polygon fill="white" stroke="transparent" points="-4,4 -4,-119 509,-119 509,4 -4,4"/>
<!-- Node1 -->
<g id="node1" class="node">
<title>Node1</title>
<g id="a_node1"><a xlink:title="Copies a matrix into a newly allocated one.">
<polygon fill="#bfbfbf" stroke="black" points="0,-14 0,-44 122,-44 122,-14 0,-14"/>
<text text-anchor="start" x="8" y="-32" font-family="Helvetica,sans-Serif" font-size="10.00">ladel_sparse_allocate</text>
<text text-anchor="middle" x="61" y="-21" font-family="Helvetica,sans-Serif" font-size="10.00">_and_copy</text>
</a>
</g>
</g>
<!-- Node2 -->
<g id="node2" class="node">
<title>Node2</title>
<g id="a_node2"><a xlink:href="ladel__global_8c.html#a6e485045ec098c0b5a9afe07875a1e59" target="_top" xlink:title="Allocate a sparse matrix.">
<polygon fill="white" stroke="black" points="158,-47.5 158,-66.5 265,-66.5 265,-47.5 158,-47.5"/>
<text text-anchor="middle" x="211.5" y="-54.5" font-family="Helvetica,sans-Serif" font-size="10.00">ladel_sparse_alloc</text>
</a>
</g>
</g>
<!-- Node1&#45;&gt;Node2 -->
<g id="edge1" class="edge">
<title>Node1&#45;&gt;Node2</title>
<path fill="none" stroke="midnightblue" d="M122.4,-40.39C131.39,-42.08 140.65,-43.83 149.64,-45.53"/>
<polygon fill="midnightblue" stroke="midnightblue" points="149.18,-49 159.65,-47.41 150.48,-42.12 149.18,-49"/>
</g>
<!-- Node7 -->
<g id="node7" class="node">
<title>Node7</title>
<g id="a_node7"><a xlink:href="ladel__copy_8c.html#a97ad68065f3cb0241e4a6427e2e196a7" target="_top" xlink:title="Copies a matrix (preallocated)">
<polygon fill="white" stroke="black" points="158,-0.5 158,-19.5 265,-19.5 265,-0.5 158,-0.5"/>
<text text-anchor="middle" x="211.5" y="-7.5" font-family="Helvetica,sans-Serif" font-size="10.00">ladel_sparse_copy</text>
</a>
</g>
</g>
<!-- Node1&#45;&gt;Node7 -->
<g id="edge6" class="edge">
<title>Node1&#45;&gt;Node7</title>
<path fill="none" stroke="midnightblue" d="M122.4,-21.27C130.74,-20.21 139.31,-19.11 147.69,-18.04"/>
<polygon fill="midnightblue" stroke="midnightblue" points="148.3,-21.49 157.78,-16.75 147.42,-14.54 148.3,-21.49"/>
</g>
<!-- Node3 -->
<g id="node3" class="node">
<title>Node3</title>
<g id="a_node3"><a xlink:href="ladel__global_8c.html#a15a407b5c8ad9de2faeb93fcd786e099" target="_top" xlink:title="Version of calloc (for mex or for regular C).">
<polygon fill="white" stroke="black" points="315.5,-95.5 315.5,-114.5 389.5,-114.5 389.5,-95.5 315.5,-95.5"/>
<text text-anchor="middle" x="352.5" y="-102.5" font-family="Helvetica,sans-Serif" font-size="10.00">ladel_calloc</text>
</a>
</g>
</g>
<!-- Node2&#45;&gt;Node3 -->
<g id="edge2" class="edge">
<title>Node2&#45;&gt;Node3</title>
<path fill="none" stroke="midnightblue" d="M240.29,-66.6C261.51,-73.92 290.95,-84.09 314.21,-92.12"/>
<polygon fill="midnightblue" stroke="midnightblue" points="313.16,-95.46 323.75,-95.42 315.44,-88.85 313.16,-95.46"/>
</g>
<!-- Node4 -->
<g id="node4" class="node">
<title>Node4</title>
<g id="a_node4"><a xlink:href="ladel__global_8c.html#a86142b1e820a5de1deea8ee656186245" target="_top" xlink:title="Version of malloc (for mex or for regular C).">
<polygon fill="white" stroke="black" points="313,-57.5 313,-76.5 392,-76.5 392,-57.5 313,-57.5"/>
<text text-anchor="middle" x="352.5" y="-64.5" font-family="Helvetica,sans-Serif" font-size="10.00">ladel_malloc</text>
</a>
</g>
</g>
<!-- Node2&#45;&gt;Node4 -->
<g id="edge3" class="edge">
<title>Node2&#45;&gt;Node4</title>
<path fill="none" stroke="midnightblue" d="M265.05,-60.78C277.42,-61.67 290.56,-62.62 302.76,-63.49"/>
<polygon fill="midnightblue" stroke="midnightblue" points="302.52,-66.99 312.74,-64.21 303.02,-60 302.52,-66.99"/>
</g>
<!-- Node5 -->
<g id="node5" class="node">
<title>Node5</title>
<g id="a_node5"><a xlink:href="ladel__global_8c.html#afaa07a7aa3c8517d3853968448b398a0" target="_top" xlink:title="Free a sparse matrix (and return NULL).">
<polygon fill="white" stroke="black" points="301,-19.5 301,-38.5 404,-38.5 404,-19.5 301,-19.5"/>
<text text-anchor="middle" x="352.5" y="-26.5" font-family="Helvetica,sans-Serif" font-size="10.00">ladel_sparse_free</text>
</a>
</g>
</g>
<!-- Node2&#45;&gt;Node5 -->
<g id="edge4" class="edge">
<title>Node2&#45;&gt;Node5</title>
<path fill="none" stroke="midnightblue" d="M259.95,-47.44C271.02,-45.21 282.92,-42.81 294.36,-40.51"/>
<polygon fill="midnightblue" stroke="midnightblue" points="295.15,-43.92 304.27,-38.51 293.77,-37.06 295.15,-43.92"/>
</g>
<!-- Node6 -->
<g id="node6" class="node">
<title>Node6</title>
<g id="a_node6"><a xlink:href="ladel__global_8c.html#a946ae8034525eb6db42d4a166be57968" target="_top" xlink:title="Version of free (for mex or for regular C).">
<polygon fill="white" stroke="black" points="440,-0.5 440,-19.5 505,-19.5 505,-0.5 440,-0.5"/>
<text text-anchor="middle" x="472.5" y="-7.5" font-family="Helvetica,sans-Serif" font-size="10.00">ladel_free</text>
</a>
</g>
</g>
<!-- Node5&#45;&gt;Node6 -->
<g id="edge5" class="edge">
<title>Node5&#45;&gt;Node6</title>
<path fill="none" stroke="midnightblue" d="M404.23,-20.83C412.75,-19.46 421.5,-18.05 429.76,-16.72"/>
<polygon fill="midnightblue" stroke="midnightblue" points="430.59,-20.13 439.91,-15.09 429.48,-13.22 430.59,-20.13"/>
</g>
<!-- Node7&#45;&gt;Node6 -->
<g id="edge7" class="edge">
<title>Node7&#45;&gt;Node6</title>
<path fill="none" stroke="midnightblue" d="M265.22,-10C313.7,-10 384.63,-10 429.41,-10"/>
<polygon fill="midnightblue" stroke="midnightblue" points="429.65,-13.5 439.65,-10 429.65,-6.5 429.65,-13.5"/>
</g>
</g>
</svg>
