<?xml version="1.0" encoding="UTF-8" standalone="no"?>
<!DOCTYPE svg PUBLIC "-//W3C//DTD SVG 1.1//EN"
 "http://www.w3.org/Graphics/SVG/1.1/DTD/svg11.dtd">
<!-- Generated by graphviz version 2.43.0 (0)
 -->
<!-- Title: LADEL/src/ladel_copy.c Pages: 1 -->
<svg width="369pt" height="252pt"
 viewBox="0.00 0.00 369.00 252.00" xmlns="http://www.w3.org/2000/svg" xmlns:xlink="http://www.w3.org/1999/xlink">
<g id="graph0" class="graph" transform="scale(1 1) rotate(0) translate(4 248)">
<title>LADEL/src/ladel_copy.c</title>
<polygon fill="white" stroke="transparent" points="-4,4 -4,-248 365,-248 365,4 -4,4"/>
<!-- Node1 -->
<g id="node1" class="node">
<title>Node1</title>
<g id="a_node1"><a xlink:title=" ">
<polygon fill="#bfbfbf" stroke="black" points="106.5,-224.5 106.5,-243.5 234.5,-243.5 234.5,-224.5 106.5,-224.5"/>
<text text-anchor="middle" x="170.5" y="-231.5" font-family="Helvetica,sans-Serif" font-size="10.00">LADEL/src/ladel_copy.c</text>
</a>
</g>
</g>
<!-- Node2 -->
<g id="node2" class="node">
<title>Node2</title>
<g id="a_node2"><a xlink:href="ladel__types_8h.html" target="_top" xlink:title="Structures and types used in LADEL routines.">
<polygon fill="white" stroke="black" points="23.5,-56.5 23.5,-75.5 105.5,-75.5 105.5,-56.5 23.5,-56.5"/>
<text text-anchor="middle" x="64.5" y="-63.5" font-family="Helvetica,sans-Serif" font-size="10.00">ladel_types.h</text>
</a>
</g>
</g>
<!-- Node1&#45;&gt;Node2 -->
<g id="edge1" class="edge">
<title>Node1&#45;&gt;Node2</title>
<path fill="none" stroke="midnightblue" d="M156.36,-224.26C133.08,-208.94 87.46,-174.75 69.5,-132 63.4,-117.47 62.45,-99.52 62.86,-86.17"/>
<polygon fill="midnightblue" stroke="midnightblue" points="66.38,-86.01 63.47,-75.82 59.39,-85.59 66.38,-86.01"/>
</g>
<!-- Node5 -->
<g id="node5" class="node">
<title>Node5</title>
<g id="a_node5"><a xlink:href="ladel__global_8h.html" target="_top" xlink:title="Memory allocation routines.">
<polygon fill="white" stroke="black" points="128,-168.5 128,-187.5 213,-187.5 213,-168.5 128,-168.5"/>
<text text-anchor="middle" x="170.5" y="-175.5" font-family="Helvetica,sans-Serif" font-size="10.00">ladel_global.h</text>
</a>
</g>
</g>
<!-- Node1&#45;&gt;Node5 -->
<g id="edge4" class="edge">
<title>Node1&#45;&gt;Node5</title>
<path fill="none" stroke="midnightblue" d="M170.5,-224.08C170.5,-217.01 170.5,-206.86 170.5,-197.99"/>
<polygon fill="midnightblue" stroke="midnightblue" points="174,-197.75 170.5,-187.75 167,-197.75 174,-197.75"/>
</g>
<!-- Node7 -->
<g id="node7" class="node">
<title>Node7</title>
<g id="a_node7"><a xlink:href="ladel__copy_8h.html" target="_top" xlink:title="Routines to copy matrices and vectors.">
<polygon fill="white" stroke="black" points="284,-112.5 284,-131.5 361,-131.5 361,-112.5 284,-112.5"/>
<text text-anchor="middle" x="322.5" y="-119.5" font-family="Helvetica,sans-Serif" font-size="10.00">ladel_copy.h</text>
</a>
</g>
</g>
<!-- Node1&#45;&gt;Node7 -->
<g id="edge10" class="edge">
<title>Node1&#45;&gt;Node7</title>
<path fill="none" stroke="midnightblue" d="M182.43,-224.37C208.4,-205.57 270.31,-160.77 302.42,-137.53"/>
<polygon fill="midnightblue" stroke="midnightblue" points="304.58,-140.29 310.63,-131.59 300.48,-134.62 304.58,-140.29"/>
</g>
<!-- Node3 -->
<g id="node3" class="node">
<title>Node3</title>
<g id="a_node3"><a xlink:title=" ">
<polygon fill="white" stroke="#bfbfbf" points="0,-0.5 0,-19.5 53,-19.5 53,-0.5 0,-0.5"/>
<text text-anchor="middle" x="26.5" y="-7.5" font-family="Helvetica,sans-Serif" font-size="10.00">stdint.h</text>
</a>
</g>
</g>
<!-- Node2&#45;&gt;Node3 -->
<g id="edge2" class="edge">
<title>Node2&#45;&gt;Node3</title>
<path fill="none" stroke="midnightblue" d="M58.23,-56.08C52.86,-48.46 44.98,-37.26 38.42,-27.94"/>
<polygon fill="midnightblue" stroke="midnightblue" points="41.28,-25.91 32.66,-19.75 35.55,-29.94 41.28,-25.91"/>
</g>
<!-- Node4 -->
<g id="node4" class="node">
<title>Node4</title>
<g id="a_node4"><a xlink:title=" ">
<polygon fill="white" stroke="#bfbfbf" points="71,-0.5 71,-19.5 136,-19.5 136,-0.5 71,-0.5"/>
<text text-anchor="middle" x="103.5" y="-7.5" font-family="Helvetica,sans-Serif" font-size="10.00">inttypes.h</text>
</a>
</g>
</g>
<!-- Node2&#45;&gt;Node4 -->
<g id="edge3" class="edge">
<title>Node2&#45;&gt;Node4</title>
<path fill="none" stroke="midnightblue" d="M70.94,-56.08C76.45,-48.46 84.53,-37.26 91.26,-27.94"/>
<polygon fill="midnightblue" stroke="midnightblue" points="94.16,-29.91 97.18,-19.75 88.49,-25.81 94.16,-29.91"/>
</g>
<!-- Node5&#45;&gt;Node2 -->
<g id="edge5" class="edge">
<title>Node5&#45;&gt;Node2</title>
<path fill="none" stroke="midnightblue" d="M140.76,-168.37C121.84,-161.44 98.2,-149.85 83.5,-132 72.65,-118.82 67.99,-99.69 66,-85.59"/>
<polygon fill="midnightblue" stroke="midnightblue" points="69.47,-85.13 64.9,-75.57 62.51,-85.89 69.47,-85.13"/>
</g>
<!-- Node6 -->
<g id="node6" class="node">
<title>Node6</title>
<g id="a_node6"><a xlink:href="ladel__constants_8h.html" target="_top" xlink:title="Constants and macros used in LADEL.">
<polygon fill="white" stroke="black" points="92.5,-112.5 92.5,-131.5 194.5,-131.5 194.5,-112.5 92.5,-112.5"/>
<text text-anchor="middle" x="143.5" y="-119.5" font-family="Helvetica,sans-Serif" font-size="10.00">ladel_constants.h</text>
</a>
</g>
</g>
<!-- Node5&#45;&gt;Node6 -->
<g id="edge6" class="edge">
<title>Node5&#45;&gt;Node6</title>
<path fill="none" stroke="midnightblue" d="M166.04,-168.08C162.35,-160.69 156.98,-149.95 152.41,-140.81"/>
<polygon fill="midnightblue" stroke="midnightblue" points="155.48,-139.13 147.88,-131.75 149.22,-142.26 155.48,-139.13"/>
</g>
<!-- Node5&#45;&gt;Node7 -->
<g id="edge7" class="edge">
<title>Node5&#45;&gt;Node7</title>
<path fill="none" stroke="midnightblue" d="M194.58,-168.44C220.04,-159.4 260.39,-145.06 288.96,-134.92"/>
<polygon fill="midnightblue" stroke="midnightblue" points="290.28,-138.16 298.53,-131.52 287.93,-131.57 290.28,-138.16"/>
</g>
<!-- Node8 -->
<g id="node8" class="node">
<title>Node8</title>
<g id="a_node8"><a xlink:title=" ">
<polygon fill="white" stroke="#bfbfbf" points="213,-112.5 213,-131.5 266,-131.5 266,-112.5 213,-112.5"/>
<text text-anchor="middle" x="239.5" y="-119.5" font-family="Helvetica,sans-Serif" font-size="10.00">stdlib.h</text>
</a>
</g>
</g>
<!-- Node5&#45;&gt;Node8 -->
<g id="edge9" class="edge">
<title>Node5&#45;&gt;Node8</title>
<path fill="none" stroke="midnightblue" d="M181.59,-168.32C191.99,-160.18 207.76,-147.84 220.22,-138.09"/>
<polygon fill="midnightblue" stroke="midnightblue" points="222.49,-140.75 228.21,-131.83 218.18,-135.24 222.49,-140.75"/>
</g>
<!-- Node7&#45;&gt;Node2 -->
<g id="edge8" class="edge">
<title>Node7&#45;&gt;Node2</title>
<path fill="none" stroke="midnightblue" d="M283.87,-112.92C239.03,-103.53 164.9,-88.01 115.39,-77.65"/>
<polygon fill="midnightblue" stroke="midnightblue" points="116.03,-74.21 105.52,-75.59 114.6,-81.06 116.03,-74.21"/>
</g>
</g>
</svg>
