<?xml version="1.0" encoding="UTF-8" standalone="no"?>
<!DOCTYPE svg PUBLIC "-//W3C//DTD SVG 1.1//EN"
 "http://www.w3.org/Graphics/SVG/1.1/DTD/svg11.dtd">
<!-- Generated by graphviz version 2.43.0 (0)
 -->
<!-- Title: ladel_calloc Pages: 1 -->
<!--zoomable 498 -->
<svg id="main" version="1.1" xmlns="http://www.w3.org/2000/svg" xmlns:xlink="http://www.w3.org/1999/xlink" xml:space="preserve" onload="init(evt)">
<style type="text/css"><![CDATA[
.edge:hover path { stroke: red; }
.edge:hover polygon { stroke: red; fill: red; }
]]></style>
<script type="text/javascript"><![CDATA[
var edges = document.getElementsByTagName('g');
if (edges && edges.length) {
  for (var i=0;i<edges.length;i++) {
    if (edges[i].id.substr(0,4)=='edge') {
      edges[i].setAttribute('class','edge');
    }
  }
}
]]></script>
        <defs>
                <circle id="rim" cx="0" cy="0" r="7"/>
                <circle id="rim2" cx="0" cy="0" r="3.5"/>
                <g id="zoomPlus">
                        <use xlink:href="#rim" fill="#404040">
                                <set attributeName="fill" to="#808080" begin="zoomplus.mouseover" end="zoomplus.mouseout"/>
                        </use>
                        <path d="M-4,0h8M0,-4v8" fill="none" stroke="white" stroke-width="1.5" pointer-events="none"/>
                </g>
                <g id="zoomMin">
                        <use xlink:href="#rim" fill="#404040">
                                <set attributeName="fill" to="#808080" begin="zoomminus.mouseover" end="zoomminus.mouseout"/>
                        </use>
                        <path d="M-4,0h8" fill="none" stroke="white" stroke-width="1.5" pointer-events="none"/>
                </g>
                <g id="dirArrow">
                        <path fill="none" stroke="white" stroke-width="1.5" d="M0,-3.0v7 M-2.5,-0.5L0,-3.0L2.5,-0.5"/>
                </g>
               <g id="resetDef">
                       <use xlink:href="#rim2" fill="#404040">
                               <set attributeName="fill" to="#808080" begin="reset.mouseover" end="reset.mouseout"/>
                       </use>
               </g>
        </defs>

<script type="text/javascript">
var viewWidth = 1128;
var viewHeight = 498;
var sectionId = 'dynsection-1';
</script>
<script xlink:href="svgpan.js"/>
<svg id="graph" class="graph">
<g id="viewport">
<title>ladel_calloc</title>
<polygon fill="white" stroke="transparent" points="-4,4 -4,-493.66 1124,-493.66 1124,4 -4,4"/>
<!-- Node1 -->
<g id="node1" class="node">
<title>Node1</title>
<g id="a_node1"><a xlink:title="Version of calloc (for mex or for regular C).">
<polygon fill="#bfbfbf" stroke="black" points="1046,-172.5 1046,-191.5 1120,-191.5 1120,-172.5 1046,-172.5"/>
<text text-anchor="middle" x="1083" y="-179.5" font-family="Helvetica,sans-Serif" font-size="10.00">ladel_calloc</text>
</a>
</g>
</g>
<!-- Node2 -->
<g id="node2" class="node">
<title>Node2</title>
<g id="a_node2"><a xlink:href="ladel__global_8c.html#a968028b68306172d3fb202fb434624a6" target="_top" xlink:title="Allocate a factors struct.">
<polygon fill="white" stroke="black" points="354,-426.5 354,-445.5 473,-445.5 473,-426.5 354,-426.5"/>
<text text-anchor="middle" x="413.5" y="-433.5" font-family="Helvetica,sans-Serif" font-size="10.00">ladel_factor_allocate</text>
</a>
</g>
</g>
<!-- Node1&#45;&gt;Node2 -->
<g id="edge1" class="edge">
<title>Node1&#45;&gt;Node2</title>
<path fill="none" stroke="midnightblue" d="M1068.42,-200.02C1034.02,-244.29 938.48,-358.86 831,-415 703.23,-481.74 652.52,-467.55 509,-454 491.38,-452.34 472.14,-448.96 455.66,-445.58"/>
<polygon fill="midnightblue" stroke="midnightblue" points="1071.33,-201.97 1074.64,-191.91 1065.78,-197.71 1071.33,-201.97"/>
</g>
<!-- Node7 -->
<g id="node7" class="node">
<title>Node7</title>
<g id="a_node7"><a xlink:href="ladel__global_8c.html#a6e485045ec098c0b5a9afe07875a1e59" target="_top" xlink:title="Allocate a sparse matrix.">
<polygon fill="white" stroke="black" points="885,-216.5 885,-235.5 992,-235.5 992,-216.5 885,-216.5"/>
<text text-anchor="middle" x="938.5" y="-223.5" font-family="Helvetica,sans-Serif" font-size="10.00">ladel_sparse_alloc</text>
</a>
</g>
</g>
<!-- Node1&#45;&gt;Node7 -->
<g id="edge6" class="edge">
<title>Node1&#45;&gt;Node7</title>
<path fill="none" stroke="midnightblue" d="M1046.12,-195.02C1034.64,-199.03 1021.83,-203.36 1010,-207 999.34,-210.28 987.68,-213.55 976.96,-216.43"/>
<polygon fill="midnightblue" stroke="midnightblue" points="1047.55,-198.23 1055.82,-191.59 1045.22,-191.63 1047.55,-198.23"/>
</g>
<!-- Node23 -->
<g id="node23" class="node">
<title>Node23</title>
<g id="a_node23"><a xlink:href="ladel__global_8c.html#a938486f5d2d4aee4858a50c0c3767490" target="_top" xlink:title="Allocate a sparse empty matrix (used in special cases).">
<polygon fill="white" stroke="black" points="885,-167 885,-197 992,-197 992,-167 885,-167"/>
<text text-anchor="start" x="893" y="-185" font-family="Helvetica,sans-Serif" font-size="10.00">ladel_sparse_alloc</text>
<text text-anchor="middle" x="938.5" y="-174" font-family="Helvetica,sans-Serif" font-size="10.00">_empty</text>
</a>
</g>
</g>
<!-- Node1&#45;&gt;Node23 -->
<g id="edge27" class="edge">
<title>Node1&#45;&gt;Node23</title>
<path fill="none" stroke="midnightblue" d="M1035.42,-182C1021.59,-182 1006.35,-182 992.17,-182"/>
<polygon fill="midnightblue" stroke="midnightblue" points="1035.67,-185.5 1045.67,-182 1035.67,-178.5 1035.67,-185.5"/>
</g>
<!-- Node24 -->
<g id="node24" class="node">
<title>Node24</title>
<g id="a_node24"><a xlink:href="ladel__global_8c.html#a78d3509d86fdd40fdeb7aab29994251a" target="_top" xlink:title="Allocate a symbolics struct.">
<polygon fill="white" stroke="black" points="876.5,-128.5 876.5,-147.5 1000.5,-147.5 1000.5,-128.5 876.5,-128.5"/>
<text text-anchor="middle" x="938.5" y="-135.5" font-family="Helvetica,sans-Serif" font-size="10.00">ladel_symbolics_alloc</text>
</a>
</g>
</g>
<!-- Node1&#45;&gt;Node24 -->
<g id="edge29" class="edge">
<title>Node1&#45;&gt;Node24</title>
<path fill="none" stroke="midnightblue" d="M1044.92,-169.28C1033.73,-165.54 1021.39,-161.51 1010,-158 998.45,-154.44 985.76,-150.77 974.38,-147.56"/>
<polygon fill="midnightblue" stroke="midnightblue" points="1043.81,-172.6 1054.4,-172.47 1046.04,-165.97 1043.81,-172.6"/>
</g>
<!-- Node25 -->
<g id="node25" class="node">
<title>Node25</title>
<g id="a_node25"><a xlink:href="ladel__global_8c.html#a960504daceae6c5129487e2bd2573c94" target="_top" xlink:title="Allocate a LADEL workspace.">
<polygon fill="white" stroke="black" points="867,-90.5 867,-109.5 1010,-109.5 1010,-90.5 867,-90.5"/>
<text text-anchor="middle" x="938.5" y="-97.5" font-family="Helvetica,sans-Serif" font-size="10.00">ladel_workspace_allocate</text>
</a>
</g>
</g>
<!-- Node1&#45;&gt;Node25 -->
<g id="edge30" class="edge">
<title>Node1&#45;&gt;Node25</title>
<path fill="none" stroke="midnightblue" d="M1066.62,-164.72C1053.04,-150.48 1032.04,-130.78 1010,-119 1002.85,-115.17 994.86,-112.07 986.91,-109.58"/>
<polygon fill="midnightblue" stroke="midnightblue" points="1064.34,-167.41 1073.7,-172.37 1069.47,-162.65 1064.34,-167.41"/>
</g>
<!-- Node3 -->
<g id="node3" class="node">
<title>Node3</title>
<g id="a_node3"><a xlink:href="group__grp-solver.html#gaff676fbf1dd6dbf8096c5349d264297f" target="_top" xlink:title="Computes the &#160;factorization of &#160;but allocates based on Mbasis.">
<polygon fill="white" stroke="black" points="177,-421 177,-451 318,-451 318,-421 177,-421"/>
<text text-anchor="start" x="185" y="-439" font-family="Helvetica,sans-Serif" font-size="10.00">ladel_factorize_advanced</text>
<text text-anchor="middle" x="247.5" y="-428" font-family="Helvetica,sans-Serif" font-size="10.00">_with_diag</text>
</a>
</g>
</g>
<!-- Node2&#45;&gt;Node3 -->
<g id="edge2" class="edge">
<title>Node2&#45;&gt;Node3</title>
<path fill="none" stroke="midnightblue" d="M343.57,-436C335.12,-436 326.48,-436 318.02,-436"/>
<polygon fill="midnightblue" stroke="midnightblue" points="343.76,-439.5 353.76,-436 343.76,-432.5 343.76,-439.5"/>
</g>
<!-- Node5 -->
<g id="node5" class="node">
<title>Node5</title>
<g id="a_node5"><a xlink:href="group__grp-solver.html#ga129ea878837012c6ac76fb6046bc9449" target="_top" xlink:title="Computes the &#160;factorization of .">
<polygon fill="white" stroke="black" points="177,-248.5 177,-267.5 318,-267.5 318,-248.5 177,-248.5"/>
<text text-anchor="middle" x="247.5" y="-255.5" font-family="Helvetica,sans-Serif" font-size="10.00">ladel_factorize_with_diag</text>
</a>
</g>
</g>
<!-- Node2&#45;&gt;Node5 -->
<g id="edge4" class="edge">
<title>Node2&#45;&gt;Node5</title>
<path fill="none" stroke="midnightblue" d="M396.82,-418.98C362.95,-382.22 283.89,-296.41 257.36,-267.62"/>
<polygon fill="midnightblue" stroke="midnightblue" points="394.33,-421.45 403.68,-426.43 399.48,-416.7 394.33,-421.45"/>
</g>
<!-- Node4 -->
<g id="node4" class="node">
<title>Node4</title>
<g id="a_node4"><a xlink:href="group__grp-solver.html#gac217d5bb50524bf6bbc0e7fa473edcfb" target="_top" xlink:title="Computes the &#160;factorization of &#160;but allocates based on Mbasis.">
<polygon fill="white" stroke="black" points="0,-426.5 0,-445.5 141,-445.5 141,-426.5 0,-426.5"/>
<text text-anchor="middle" x="70.5" y="-433.5" font-family="Helvetica,sans-Serif" font-size="10.00">ladel_factorize_advanced</text>
</a>
</g>
</g>
<!-- Node3&#45;&gt;Node4 -->
<g id="edge3" class="edge">
<title>Node3&#45;&gt;Node4</title>
<path fill="none" stroke="midnightblue" d="M166.58,-436C158.11,-436 149.55,-436 141.21,-436"/>
<polygon fill="midnightblue" stroke="midnightblue" points="166.83,-439.5 176.83,-436 166.83,-432.5 166.83,-439.5"/>
</g>
<!-- Node6 -->
<g id="node6" class="node">
<title>Node6</title>
<g id="a_node6"><a xlink:href="group__grp-solver.html#ga6167c294e588fe34776d40e53c6ddbc9" target="_top" xlink:title="Computes the &#160;factorization of .">
<polygon fill="white" stroke="black" points="26,-248.5 26,-267.5 115,-267.5 115,-248.5 26,-248.5"/>
<text text-anchor="middle" x="70.5" y="-255.5" font-family="Helvetica,sans-Serif" font-size="10.00">ladel_factorize</text>
</a>
</g>
</g>
<!-- Node5&#45;&gt;Node6 -->
<g id="edge5" class="edge">
<title>Node5&#45;&gt;Node6</title>
<path fill="none" stroke="midnightblue" d="M166.51,-258C148.87,-258 130.82,-258 115.25,-258"/>
<polygon fill="midnightblue" stroke="midnightblue" points="166.83,-261.5 176.83,-258 166.83,-254.5 166.83,-261.5"/>
</g>
<!-- Node7&#45;&gt;Node2 -->
<g id="edge11" class="edge">
<title>Node7&#45;&gt;Node2</title>
<path fill="none" stroke="midnightblue" d="M929.09,-245.17C914.14,-276.91 879.86,-340.12 831,-373 721.49,-446.71 559.35,-447.8 473.24,-442.03"/>
<polygon fill="midnightblue" stroke="midnightblue" points="932.44,-246.26 933.41,-235.71 926.07,-243.35 932.44,-246.26"/>
</g>
<!-- Node7&#45;&gt;Node3 -->
<g id="edge12" class="edge">
<title>Node7&#45;&gt;Node3</title>
<path fill="none" stroke="midnightblue" d="M932.26,-245.78C920.88,-284.75 890.01,-371.42 831,-415 668.8,-534.78 406.22,-480.83 297.77,-451.02"/>
<polygon fill="midnightblue" stroke="midnightblue" points="935.75,-246.3 935.08,-235.73 929.01,-244.41 935.75,-246.3"/>
</g>
<!-- Node7&#45;&gt;Node5 -->
<g id="edge13" class="edge">
<title>Node7&#45;&gt;Node5</title>
<path fill="none" stroke="midnightblue" d="M875.66,-213.44C872.55,-211.58 869.64,-209.44 867,-207 831.74,-174.32 867.13,-136.71 831,-105 722.69,-9.94 645.95,-22.17 509,-67 393.88,-104.68 287.57,-214.75 257.16,-248.23"/>
<polygon fill="midnightblue" stroke="midnightblue" points="874.31,-216.68 884.82,-218.02 877.44,-210.42 874.31,-216.68"/>
</g>
<!-- Node8 -->
<g id="node8" class="node">
<title>Node8</title>
<g id="a_node8"><a xlink:href="ladel__add_8c.html#a758b63f39a12a53be24928cfd71f0bfe" target="_top" xlink:title="Returns a sparse matrix &#160;if values==TRUE, or a pattern matrix that includes the patterns of A and B i...">
<polygon fill="white" stroke="black" points="703.5,-333 703.5,-363 815.5,-363 815.5,-333 703.5,-333"/>
<text text-anchor="start" x="711.5" y="-351" font-family="Helvetica,sans-Serif" font-size="10.00">ladel_add_matrices</text>
<text text-anchor="middle" x="759.5" y="-340" font-family="Helvetica,sans-Serif" font-size="10.00">_advanced</text>
</a>
</g>
</g>
<!-- Node7&#45;&gt;Node8 -->
<g id="edge7" class="edge">
<title>Node7&#45;&gt;Node8</title>
<path fill="none" stroke="midnightblue" d="M920.54,-242.93C900.44,-262.35 865.35,-294.28 831,-316 821,-322.32 809.55,-328.08 798.82,-332.91"/>
<polygon fill="midnightblue" stroke="midnightblue" points="923.25,-245.18 927.95,-235.68 918.35,-240.17 923.25,-245.18"/>
</g>
<!-- Node11 -->
<g id="node11" class="node">
<title>Node11</title>
<g id="a_node11"><a xlink:href="ladel__submatrix_8c.html#a147c31941734d0ae3fcd28c800051322" target="_top" xlink:title="Returns a matrix that is a selection of columns of M, that is .">
<polygon fill="white" stroke="black" points="691,-0.5 691,-19.5 828,-19.5 828,-0.5 691,-0.5"/>
<text text-anchor="middle" x="759.5" y="-7.5" font-family="Helvetica,sans-Serif" font-size="10.00">ladel_column_submatrix</text>
</a>
</g>
</g>
<!-- Node7&#45;&gt;Node11 -->
<g id="edge10" class="edge">
<title>Node7&#45;&gt;Node11</title>
<path fill="none" stroke="midnightblue" d="M875.87,-214.25C872.63,-212.19 869.63,-209.79 867,-207 813.1,-149.88 883.02,-92.84 831,-34 825.43,-27.7 818.15,-23.06 810.38,-19.63"/>
<polygon fill="midnightblue" stroke="midnightblue" points="874.43,-217.44 884.92,-218.93 877.65,-211.23 874.43,-217.44"/>
</g>
<!-- Node12 -->
<g id="node12" class="node">
<title>Node12</title>
<g id="a_node12"><a xlink:href="group__grp-solver.html#gabb81f3223c3ab1794fd472276be8fba6" target="_top" xlink:title="Computes the &#160;factorization of &#160;provided LD was allocated before.">
<polygon fill="white" stroke="black" points="695.5,-276 695.5,-306 823.5,-306 823.5,-276 695.5,-276"/>
<text text-anchor="start" x="703.5" y="-294" font-family="Helvetica,sans-Serif" font-size="10.00">ladel_factorize_with</text>
<text text-anchor="middle" x="759.5" y="-283" font-family="Helvetica,sans-Serif" font-size="10.00">_prior_basis_with_diag</text>
</a>
</g>
</g>
<!-- Node7&#45;&gt;Node12 -->
<g id="edge14" class="edge">
<title>Node7&#45;&gt;Node12</title>
<path fill="none" stroke="midnightblue" d="M901.66,-239.16C872.66,-249.81 831.81,-264.81 801.51,-275.94"/>
<polygon fill="midnightblue" stroke="midnightblue" points="903.2,-242.32 911.38,-235.59 900.79,-235.75 903.2,-242.32"/>
</g>
<!-- Node14 -->
<g id="node14" class="node">
<title>Node14</title>
<g id="a_node14"><a xlink:href="ladel__matmat_8c.html#aa0dc5e49d5b89cd8756da8d19c19fffa" target="_top" xlink:title="Core mat_mat_transpose function with all options (diag and value/pattern).">
<polygon fill="white" stroke="black" points="688,-211 688,-241 831,-241 831,-211 688,-211"/>
<text text-anchor="start" x="696" y="-229" font-family="Helvetica,sans-Serif" font-size="10.00">ladel_mat_mat_transpose</text>
<text text-anchor="middle" x="759.5" y="-218" font-family="Helvetica,sans-Serif" font-size="10.00">_advanced</text>
</a>
</g>
</g>
<!-- Node7&#45;&gt;Node14 -->
<g id="edge16" class="edge">
<title>Node7&#45;&gt;Node14</title>
<path fill="none" stroke="midnightblue" d="M874.81,-226C860.72,-226 845.67,-226 831.28,-226"/>
<polygon fill="midnightblue" stroke="midnightblue" points="874.87,-229.5 884.87,-226 874.87,-222.5 874.87,-229.5"/>
</g>
<!-- Node18 -->
<g id="node18" class="node">
<title>Node18</title>
<g id="a_node18"><a xlink:href="ladel__copy_8c.html#a3a4d205bb1f55b7059ad6b82a18fb856" target="_top" xlink:title="Copies a matrix into a newly allocated one.">
<polygon fill="white" stroke="black" points="698.5,-162 698.5,-192 820.5,-192 820.5,-162 698.5,-162"/>
<text text-anchor="start" x="706.5" y="-180" font-family="Helvetica,sans-Serif" font-size="10.00">ladel_sparse_allocate</text>
<text text-anchor="middle" x="759.5" y="-169" font-family="Helvetica,sans-Serif" font-size="10.00">_and_copy</text>
</a>
</g>
</g>
<!-- Node7&#45;&gt;Node18 -->
<g id="edge20" class="edge">
<title>Node7&#45;&gt;Node18</title>
<path fill="none" stroke="midnightblue" d="M891.75,-213.75C883.5,-211.52 874.99,-209.2 867,-207 849.59,-202.2 830.61,-196.88 813.56,-192.07"/>
<polygon fill="midnightblue" stroke="midnightblue" points="891.05,-217.19 901.61,-216.41 892.87,-210.43 891.05,-217.19"/>
</g>
<!-- Node19 -->
<g id="node19" class="node">
<title>Node19</title>
<g id="a_node19"><a xlink:href="ladel__transpose_8c.html#a8b00613708b897c9dbcd292dc9b89ed8" target="_top" xlink:title="Returns the transpose of a matrix, that is .">
<polygon fill="white" stroke="black" points="712.5,-114.5 712.5,-133.5 806.5,-133.5 806.5,-114.5 712.5,-114.5"/>
<text text-anchor="middle" x="759.5" y="-121.5" font-family="Helvetica,sans-Serif" font-size="10.00">ladel_transpose</text>
</a>
</g>
</g>
<!-- Node7&#45;&gt;Node19 -->
<g id="edge21" class="edge">
<title>Node7&#45;&gt;Node19</title>
<path fill="none" stroke="midnightblue" d="M875.52,-212.21C872.54,-210.65 869.68,-208.92 867,-207 843.57,-190.17 853.31,-171.28 831,-153 820.56,-144.44 807.25,-138.1 795.01,-133.57"/>
<polygon fill="midnightblue" stroke="midnightblue" points="874.19,-215.45 884.74,-216.36 877.06,-209.06 874.19,-215.45"/>
</g>
<!-- Node9 -->
<g id="node9" class="node">
<title>Node9</title>
<g id="a_node9"><a xlink:href="ladel__add_8c.html#a829807555e76a1861cd43a87d1d86efe" target="_top" xlink:title="Returns a sparse matrix .">
<polygon fill="white" stroke="black" points="524.5,-338.5 524.5,-357.5 636.5,-357.5 636.5,-338.5 524.5,-338.5"/>
<text text-anchor="middle" x="580.5" y="-345.5" font-family="Helvetica,sans-Serif" font-size="10.00">ladel_add_matrices</text>
</a>
</g>
</g>
<!-- Node8&#45;&gt;Node9 -->
<g id="edge8" class="edge">
<title>Node8&#45;&gt;Node9</title>
<path fill="none" stroke="midnightblue" d="M693.33,-348C674.76,-348 654.72,-348 636.8,-348"/>
<polygon fill="midnightblue" stroke="midnightblue" points="693.47,-351.5 703.47,-348 693.47,-344.5 693.47,-351.5"/>
</g>
<!-- Node10 -->
<g id="node10" class="node">
<title>Node10</title>
<g id="a_node10"><a xlink:href="ladel__add_8c.html#a1322dd7713c9d04b74ddc1927e94f28a" target="_top" xlink:title="Returns a pattern matrix whose pattern includes the patterns of A and B.">
<polygon fill="white" stroke="black" points="524.5,-377 524.5,-407 636.5,-407 636.5,-377 524.5,-377"/>
<text text-anchor="start" x="532.5" y="-395" font-family="Helvetica,sans-Serif" font-size="10.00">ladel_add_matrices</text>
<text text-anchor="middle" x="580.5" y="-384" font-family="Helvetica,sans-Serif" font-size="10.00">_pattern</text>
</a>
</g>
</g>
<!-- Node8&#45;&gt;Node10 -->
<g id="edge9" class="edge">
<title>Node8&#45;&gt;Node10</title>
<path fill="none" stroke="midnightblue" d="M693.58,-364.14C674.95,-368.77 654.8,-373.78 636.8,-378.25"/>
<polygon fill="midnightblue" stroke="midnightblue" points="694.61,-367.49 703.47,-361.68 692.92,-360.7 694.61,-367.49"/>
</g>
<!-- Node13 -->
<g id="node13" class="node">
<title>Node13</title>
<g id="a_node13"><a xlink:href="group__grp-solver.html#ga90783633564102ca42816a7d23eca63b" target="_top" xlink:title="Computes the &#160;factorization of &#160;provided LD was allocated before.">
<polygon fill="white" stroke="black" points="523,-289 523,-319 638,-319 638,-289 523,-289"/>
<text text-anchor="start" x="531" y="-307" font-family="Helvetica,sans-Serif" font-size="10.00">ladel_factorize_with</text>
<text text-anchor="middle" x="580.5" y="-296" font-family="Helvetica,sans-Serif" font-size="10.00">_prior_basis</text>
</a>
</g>
</g>
<!-- Node12&#45;&gt;Node13 -->
<g id="edge15" class="edge">
<title>Node12&#45;&gt;Node13</title>
<path fill="none" stroke="midnightblue" d="M684.97,-296.4C669.37,-297.55 653.14,-298.74 638.28,-299.83"/>
<polygon fill="midnightblue" stroke="midnightblue" points="685.38,-299.88 695.1,-295.66 684.87,-292.9 685.38,-299.88"/>
</g>
<!-- Node15 -->
<g id="node15" class="node">
<title>Node15</title>
<g id="a_node15"><a xlink:href="ladel__matmat_8c.html#aeb2ea434d4c66863f8814d3c5a6ce97a" target="_top" xlink:title="Computes .">
<polygon fill="white" stroke="black" points="522.5,-191 522.5,-221 638.5,-221 638.5,-191 522.5,-191"/>
<text text-anchor="start" x="530.5" y="-209" font-family="Helvetica,sans-Serif" font-size="10.00">ladel_mat_diag_mat</text>
<text text-anchor="middle" x="580.5" y="-198" font-family="Helvetica,sans-Serif" font-size="10.00">_transpose</text>
</a>
</g>
</g>
<!-- Node14&#45;&gt;Node15 -->
<g id="edge17" class="edge">
<title>Node14&#45;&gt;Node15</title>
<path fill="none" stroke="midnightblue" d="M677.72,-216.87C664.48,-215.38 651.01,-213.85 638.5,-212.44"/>
<polygon fill="midnightblue" stroke="midnightblue" points="677.45,-220.36 687.78,-218.01 678.24,-213.41 677.45,-220.36"/>
</g>
<!-- Node16 -->
<g id="node16" class="node">
<title>Node16</title>
<g id="a_node16"><a xlink:href="ladel__matmat_8c.html#a9d9a01b808baba381deeab28e25b41e0" target="_top" xlink:title="Computes .">
<polygon fill="white" stroke="black" points="509,-152.5 509,-171.5 652,-171.5 652,-152.5 509,-152.5"/>
<text text-anchor="middle" x="580.5" y="-159.5" font-family="Helvetica,sans-Serif" font-size="10.00">ladel_mat_mat_transpose</text>
</a>
</g>
</g>
<!-- Node14&#45;&gt;Node16 -->
<g id="edge18" class="edge">
<title>Node14&#45;&gt;Node16</title>
<path fill="none" stroke="midnightblue" d="M700.72,-207.28C696.38,-205.59 692.1,-203.82 688,-202 671.27,-194.58 668.92,-188.99 652,-182 642.24,-177.97 631.4,-174.45 621.2,-171.53"/>
<polygon fill="midnightblue" stroke="midnightblue" points="699.68,-210.63 710.27,-210.87 702.14,-204.08 699.68,-210.63"/>
</g>
<!-- Node17 -->
<g id="node17" class="node">
<title>Node17</title>
<g id="a_node17"><a xlink:href="ladel__matmat_8c.html#a0b1d696c23cec68f53fe76f6db607572" target="_top" xlink:title="Computes the pattern of .">
<polygon fill="white" stroke="black" points="509,-240 509,-270 652,-270 652,-240 509,-240"/>
<text text-anchor="start" x="517" y="-258" font-family="Helvetica,sans-Serif" font-size="10.00">ladel_mat_mat_transpose</text>
<text text-anchor="middle" x="580.5" y="-247" font-family="Helvetica,sans-Serif" font-size="10.00">_pattern</text>
</a>
</g>
</g>
<!-- Node14&#45;&gt;Node17 -->
<g id="edge19" class="edge">
<title>Node14&#45;&gt;Node17</title>
<path fill="none" stroke="midnightblue" d="M677.79,-239.22C669.22,-240.63 660.55,-242.05 652.11,-243.43"/>
<polygon fill="midnightblue" stroke="midnightblue" points="678.48,-242.66 687.78,-237.59 677.35,-235.75 678.48,-242.66"/>
</g>
<!-- Node20 -->
<g id="node20" class="node">
<title>Node20</title>
<g id="a_node20"><a xlink:href="ladel__col__counts_8c.html#aa7284697012b8c3de4cece3e31915488" target="_top" xlink:title="Computes the column counts of the factor.">
<polygon fill="white" stroke="black" points="531.5,-114.5 531.5,-133.5 629.5,-133.5 629.5,-114.5 531.5,-114.5"/>
<text text-anchor="middle" x="580.5" y="-121.5" font-family="Helvetica,sans-Serif" font-size="10.00">ladel_col_counts</text>
</a>
</g>
</g>
<!-- Node19&#45;&gt;Node20 -->
<g id="edge22" class="edge">
<title>Node19&#45;&gt;Node20</title>
<path fill="none" stroke="midnightblue" d="M702.35,-124C679.02,-124 652.22,-124 629.79,-124"/>
<polygon fill="midnightblue" stroke="midnightblue" points="702.46,-127.5 712.46,-124 702.46,-120.5 702.46,-127.5"/>
</g>
<!-- Node22 -->
<g id="node22" class="node">
<title>Node22</title>
<g id="a_node22"><a xlink:href="ladel__upper__diag_8c.html#a7a4946c49cace1648ec43ab05e35b8e6" target="_top" xlink:title="Return , that is the upper diagonal elements of M.">
<polygon fill="white" stroke="black" points="523,-76.5 523,-95.5 638,-95.5 638,-76.5 523,-76.5"/>
<text text-anchor="middle" x="580.5" y="-83.5" font-family="Helvetica,sans-Serif" font-size="10.00">ladel_to_upper_diag</text>
</a>
</g>
</g>
<!-- Node19&#45;&gt;Node22 -->
<g id="edge26" class="edge">
<title>Node19&#45;&gt;Node22</title>
<path fill="none" stroke="midnightblue" d="M703.76,-112.25C678.73,-106.87 649.47,-100.59 625.84,-95.52"/>
<polygon fill="midnightblue" stroke="midnightblue" points="703.32,-115.73 713.84,-114.41 704.79,-108.89 703.32,-115.73"/>
</g>
<!-- Node21 -->
<g id="node21" class="node">
<title>Node21</title>
<g id="a_node21"><a xlink:href="ladel__ldl__symbolic_8c.html#a919feee5783ed6d5ffaff8dff6546976" target="_top" xlink:title="Symbolic part of the factorization.">
<polygon fill="white" stroke="black" points="360,-248.5 360,-267.5 467,-267.5 467,-248.5 360,-248.5"/>
<text text-anchor="middle" x="413.5" y="-255.5" font-family="Helvetica,sans-Serif" font-size="10.00">ladel_ldl_symbolic</text>
</a>
</g>
</g>
<!-- Node20&#45;&gt;Node21 -->
<g id="edge23" class="edge">
<title>Node20&#45;&gt;Node21</title>
<path fill="none" stroke="midnightblue" d="M521.79,-136.28C517.31,-138.2 512.98,-140.43 509,-143 465.36,-171.16 431.99,-226 419.67,-248.26"/>
<polygon fill="midnightblue" stroke="midnightblue" points="523.04,-139.55 531.15,-132.73 520.56,-133 523.04,-139.55"/>
</g>
<!-- Node21&#45;&gt;Node3 -->
<g id="edge24" class="edge">
<title>Node21&#45;&gt;Node3</title>
<path fill="none" stroke="midnightblue" d="M396.83,-275.01C364.92,-309.64 292.88,-387.83 262.47,-420.84"/>
<polygon fill="midnightblue" stroke="midnightblue" points="399.48,-277.3 403.68,-267.57 394.33,-272.55 399.48,-277.3"/>
</g>
<!-- Node21&#45;&gt;Node5 -->
<g id="edge25" class="edge">
<title>Node21&#45;&gt;Node5</title>
<path fill="none" stroke="midnightblue" d="M349.61,-258C339.35,-258 328.67,-258 318.25,-258"/>
<polygon fill="midnightblue" stroke="midnightblue" points="349.71,-261.5 359.71,-258 349.71,-254.5 349.71,-261.5"/>
</g>
<!-- Node23&#45;&gt;Node11 -->
<g id="edge28" class="edge">
<title>Node23&#45;&gt;Node11</title>
<path fill="none" stroke="midnightblue" d="M876.14,-164.71C872.82,-162.45 869.73,-159.89 867,-157 827.87,-115.61 870.39,-75.14 831,-34 824.92,-27.65 817.09,-22.98 808.88,-19.55"/>
<polygon fill="midnightblue" stroke="midnightblue" points="874.39,-167.74 884.79,-169.74 877.91,-161.69 874.39,-167.74"/>
</g>
</g>
</svg>
        <g id="navigator" transform="translate(0 0)" fill="#404254">
                <rect fill="#f2f5e9" fill-opacity="0.5" stroke="#606060" stroke-width=".5" x="0" y="0" width="60" height="60"/>
                <use id="zoomplus" xlink:href="#zoomPlus" x="17" y="9" onmousedown="handleZoom(evt,'in')"/>
                <use id="zoomminus" xlink:href="#zoomMin" x="42" y="9" onmousedown="handleZoom(evt,'out')"/>
                <use id="reset" xlink:href="#resetDef" x="30" y="36" onmousedown="handleReset()"/>
                <g id="arrowUp" xlink:href="#dirArrow" transform="translate(30 24)" onmousedown="handlePan(0,-1)">
                  <use xlink:href="#rim" fill="#404040">
                        <set attributeName="fill" to="#808080" begin="arrowUp.mouseover" end="arrowUp.mouseout"/>
                  </use>
                  <path fill="none" stroke="white" stroke-width="1.5" d="M0,-3.0v7 M-2.5,-0.5L0,-3.0L2.5,-0.5"/>
                </g>
                <g id="arrowRight" xlink:href="#dirArrow" transform="rotate(90) translate(36 -43)" onmousedown="handlePan(1,0)">
                  <use xlink:href="#rim" fill="#404040">
                        <set attributeName="fill" to="#808080" begin="arrowRight.mouseover" end="arrowRight.mouseout"/>
                  </use>
                  <path fill="none" stroke="white" stroke-width="1.5" d="M0,-3.0v7 M-2.5,-0.5L0,-3.0L2.5,-0.5"/>
                </g>
                <g id="arrowDown" xlink:href="#dirArrow" transform="rotate(180) translate(-30 -48)" onmousedown="handlePan(0,1)">
                  <use xlink:href="#rim" fill="#404040">
                        <set attributeName="fill" to="#808080" begin="arrowDown.mouseover" end="arrowDown.mouseout"/>
                  </use>
                  <path fill="none" stroke="white" stroke-width="1.5" d="M0,-3.0v7 M-2.5,-0.5L0,-3.0L2.5,-0.5"/>
                </g>
                <g id="arrowLeft" xlink:href="#dirArrow" transform="rotate(270) translate(-36 17)" onmousedown="handlePan(-1,0)">
                  <use xlink:href="#rim" fill="#404040">
                        <set attributeName="fill" to="#808080" begin="arrowLeft.mouseover" end="arrowLeft.mouseout"/>
                  </use>
                  <path fill="none" stroke="white" stroke-width="1.5" d="M0,-3.0v7 M-2.5,-0.5L0,-3.0L2.5,-0.5"/>
                </g>
        </g>
        <svg viewBox="0 0 15 15" width="100%" height="30px" preserveAspectRatio="xMaxYMin meet">
         <g id="arrow_out" transform="scale(0.3 0.3)">
          <a xlink:href="ladel__global_8c_a15a407b5c8ad9de2faeb93fcd786e099_icgraph_org.svg" target="_base">
           <rect id="button" ry="5" rx="5" y="6" x="6" height="38" width="38"
                fill="#f2f5e9" fill-opacity="0.5" stroke="#606060" stroke-width="1.0"/>
           <path id="arrow"
             d="M 11.500037,31.436501 C 11.940474,20.09759 22.043105,11.32322 32.158766,21.979434 L 37.068811,17.246167 C 37.068811,17.246167 37.088388,32 37.088388,32 L 22.160133,31.978069 C 22.160133,31.978069 26.997745,27.140456 26.997745,27.140456 C 18.528582,18.264221 13.291696,25.230495 11.500037,31.436501 z"
             style="fill:#404040;"/>
          </a>
         </g>
        </svg>
</svg>
