<?xml version="1.0" encoding="UTF-8" standalone="no"?>
<!DOCTYPE svg PUBLIC "-//W3C//DTD SVG 1.1//EN"
 "http://www.w3.org/Graphics/SVG/1.1/DTD/svg11.dtd">
<!-- Generated by graphviz version 2.43.0 (0)
 -->
<!-- Title: ladel_permute_symmetric_matrix Pages: 1 -->
<!--zoomable 127 -->
<svg id="main" version="1.1" xmlns="http://www.w3.org/2000/svg" xmlns:xlink="http://www.w3.org/1999/xlink" xml:space="preserve" onload="init(evt)">
<style type="text/css"><![CDATA[
.edge:hover path { stroke: red; }
.edge:hover polygon { stroke: red; fill: red; }
]]></style>
<script type="text/javascript"><![CDATA[
var edges = document.getElementsByTagName('g');
if (edges && edges.length) {
  for (var i=0;i<edges.length;i++) {
    if (edges[i].id.substr(0,4)=='edge') {
      edges[i].setAttribute('class','edge');
    }
  }
}
]]></script>
        <defs>
                <circle id="rim" cx="0" cy="0" r="7"/>
                <circle id="rim2" cx="0" cy="0" r="3.5"/>
                <g id="zoomPlus">
                        <use xlink:href="#rim" fill="#404040">
                                <set attributeName="fill" to="#808080" begin="zoomplus.mouseover" end="zoomplus.mouseout"/>
                        </use>
                        <path d="M-4,0h8M0,-4v8" fill="none" stroke="white" stroke-width="1.5" pointer-events="none"/>
                </g>
                <g id="zoomMin">
                        <use xlink:href="#rim" fill="#404040">
                                <set attributeName="fill" to="#808080" begin="zoomminus.mouseover" end="zoomminus.mouseout"/>
                        </use>
                        <path d="M-4,0h8" fill="none" stroke="white" stroke-width="1.5" pointer-events="none"/>
                </g>
                <g id="dirArrow">
                        <path fill="none" stroke="white" stroke-width="1.5" d="M0,-3.0v7 M-2.5,-0.5L0,-3.0L2.5,-0.5"/>
                </g>
               <g id="resetDef">
                       <use xlink:href="#rim2" fill="#404040">
                               <set attributeName="fill" to="#808080" begin="reset.mouseover" end="reset.mouseout"/>
                       </use>
               </g>
        </defs>

<script type="text/javascript">
var viewWidth = 671;
var viewHeight = 127;
var sectionId = 'dynsection-5';
</script>
<script xlink:href="svgpan.js"/>
<svg id="graph" class="graph">
<g id="viewport">
<title>ladel_permute_symmetric_matrix</title>
<polygon fill="white" stroke="transparent" points="-4,4 -4,-122.5 667,-122.5 667,4 -4,4"/>
<!-- Node1 -->
<g id="node1" class="node">
<title>Node1</title>
<g id="a_node1"><a xlink:title="Compute .">
<polygon fill="#bfbfbf" stroke="black" points="518,-40 518,-70 663,-70 663,-40 518,-40"/>
<text text-anchor="start" x="526" y="-58" font-family="Helvetica,sans-Serif" font-size="10.00">ladel_permute_symmetric</text>
<text text-anchor="middle" x="590.5" y="-47" font-family="Helvetica,sans-Serif" font-size="10.00">_matrix</text>
</a>
</g>
</g>
<!-- Node2 -->
<g id="node2" class="node">
<title>Node2</title>
<g id="a_node2"><a xlink:href="group__grp-solver.html#gaff676fbf1dd6dbf8096c5349d264297f" target="_top" xlink:title="Computes the &#160;factorization of &#160;but allocates based on Mbasis.">
<polygon fill="white" stroke="black" points="177,-39 177,-69 318,-69 318,-39 177,-39"/>
<text text-anchor="start" x="185" y="-57" font-family="Helvetica,sans-Serif" font-size="10.00">ladel_factorize_advanced</text>
<text text-anchor="middle" x="247.5" y="-46" font-family="Helvetica,sans-Serif" font-size="10.00">_with_diag</text>
</a>
</g>
</g>
<!-- Node1&#45;&gt;Node2 -->
<g id="edge1" class="edge">
<title>Node1&#45;&gt;Node2</title>
<path fill="none" stroke="midnightblue" d="M507.4,-54.76C449.61,-54.59 373.1,-54.37 318.26,-54.2"/>
<polygon fill="midnightblue" stroke="midnightblue" points="507.59,-58.26 517.6,-54.79 507.61,-51.26 507.59,-58.26"/>
</g>
<!-- Node4 -->
<g id="node4" class="node">
<title>Node4</title>
<g id="a_node4"><a xlink:href="group__grp-solver.html#gabb81f3223c3ab1794fd472276be8fba6" target="_top" xlink:title="Computes the &#160;factorization of &#160;provided LD was allocated before.">
<polygon fill="white" stroke="black" points="354,-86 354,-116 482,-116 482,-86 354,-86"/>
<text text-anchor="start" x="362" y="-104" font-family="Helvetica,sans-Serif" font-size="10.00">ladel_factorize_with</text>
<text text-anchor="middle" x="418" y="-93" font-family="Helvetica,sans-Serif" font-size="10.00">_prior_basis_with_diag</text>
</a>
</g>
</g>
<!-- Node1&#45;&gt;Node4 -->
<g id="edge3" class="edge">
<title>Node1&#45;&gt;Node4</title>
<path fill="none" stroke="midnightblue" d="M523.73,-72.74C507.53,-77.11 490.33,-81.75 474.66,-85.98"/>
<polygon fill="midnightblue" stroke="midnightblue" points="524.93,-76.05 533.67,-70.06 523.11,-69.29 524.93,-76.05"/>
</g>
<!-- Node6 -->
<g id="node6" class="node">
<title>Node6</title>
<g id="a_node6"><a xlink:href="ladel__ldl__symbolic_8c.html#a919feee5783ed6d5ffaff8dff6546976" target="_top" xlink:title="Symbolic part of the factorization.">
<polygon fill="white" stroke="black" points="364.5,-7.5 364.5,-26.5 471.5,-26.5 471.5,-7.5 364.5,-7.5"/>
<text text-anchor="middle" x="418" y="-14.5" font-family="Helvetica,sans-Serif" font-size="10.00">ladel_ldl_symbolic</text>
</a>
</g>
</g>
<!-- Node1&#45;&gt;Node6 -->
<g id="edge5" class="edge">
<title>Node1&#45;&gt;Node6</title>
<path fill="none" stroke="midnightblue" d="M511.99,-37.72C494.67,-33.86 476.92,-29.91 461.63,-26.5"/>
<polygon fill="midnightblue" stroke="midnightblue" points="511.59,-41.22 522.11,-39.98 513.11,-34.39 511.59,-41.22"/>
</g>
<!-- Node3 -->
<g id="node3" class="node">
<title>Node3</title>
<g id="a_node3"><a xlink:href="group__grp-solver.html#gac217d5bb50524bf6bbc0e7fa473edcfb" target="_top" xlink:title="Computes the &#160;factorization of &#160;but allocates based on Mbasis.">
<polygon fill="white" stroke="black" points="0,-44.5 0,-63.5 141,-63.5 141,-44.5 0,-44.5"/>
<text text-anchor="middle" x="70.5" y="-51.5" font-family="Helvetica,sans-Serif" font-size="10.00">ladel_factorize_advanced</text>
</a>
</g>
</g>
<!-- Node2&#45;&gt;Node3 -->
<g id="edge2" class="edge">
<title>Node2&#45;&gt;Node3</title>
<path fill="none" stroke="midnightblue" d="M166.58,-54C158.11,-54 149.55,-54 141.21,-54"/>
<polygon fill="midnightblue" stroke="midnightblue" points="166.83,-57.5 176.83,-54 166.83,-50.5 166.83,-57.5"/>
</g>
<!-- Node5 -->
<g id="node5" class="node">
<title>Node5</title>
<g id="a_node5"><a xlink:href="group__grp-solver.html#ga90783633564102ca42816a7d23eca63b" target="_top" xlink:title="Computes the &#160;factorization of &#160;provided LD was allocated before.">
<polygon fill="white" stroke="black" points="190,-88 190,-118 305,-118 305,-88 190,-88"/>
<text text-anchor="start" x="198" y="-106" font-family="Helvetica,sans-Serif" font-size="10.00">ladel_factorize_with</text>
<text text-anchor="middle" x="247.5" y="-95" font-family="Helvetica,sans-Serif" font-size="10.00">_prior_basis</text>
</a>
</g>
</g>
<!-- Node4&#45;&gt;Node5 -->
<g id="edge4" class="edge">
<title>Node4&#45;&gt;Node5</title>
<path fill="none" stroke="midnightblue" d="M343.55,-101.87C330.68,-102.02 317.47,-102.18 305.14,-102.33"/>
<polygon fill="midnightblue" stroke="midnightblue" points="343.82,-105.37 353.78,-101.75 343.74,-98.37 343.82,-105.37"/>
</g>
<!-- Node6&#45;&gt;Node2 -->
<g id="edge6" class="edge">
<title>Node6&#45;&gt;Node2</title>
<path fill="none" stroke="midnightblue" d="M363.61,-28.72C348.78,-31.98 332.48,-35.56 316.92,-38.98"/>
<polygon fill="midnightblue" stroke="midnightblue" points="364.59,-32.09 373.61,-26.53 363.09,-25.25 364.59,-32.09"/>
</g>
<!-- Node7 -->
<g id="node7" class="node">
<title>Node7</title>
<g id="a_node7"><a xlink:href="group__grp-solver.html#ga129ea878837012c6ac76fb6046bc9449" target="_top" xlink:title="Computes the &#160;factorization of .">
<polygon fill="white" stroke="black" points="177,-0.5 177,-19.5 318,-19.5 318,-0.5 177,-0.5"/>
<text text-anchor="middle" x="247.5" y="-7.5" font-family="Helvetica,sans-Serif" font-size="10.00">ladel_factorize_with_diag</text>
</a>
</g>
</g>
<!-- Node6&#45;&gt;Node7 -->
<g id="edge7" class="edge">
<title>Node6&#45;&gt;Node7</title>
<path fill="none" stroke="midnightblue" d="M354.04,-14.38C342.34,-13.9 330.06,-13.39 318.17,-12.89"/>
<polygon fill="midnightblue" stroke="midnightblue" points="354.01,-17.89 364.15,-14.8 354.3,-10.89 354.01,-17.89"/>
</g>
<!-- Node8 -->
<g id="node8" class="node">
<title>Node8</title>
<g id="a_node8"><a xlink:href="group__grp-solver.html#ga6167c294e588fe34776d40e53c6ddbc9" target="_top" xlink:title="Computes the &#160;factorization of .">
<polygon fill="white" stroke="black" points="26,-0.5 26,-19.5 115,-19.5 115,-0.5 26,-0.5"/>
<text text-anchor="middle" x="70.5" y="-7.5" font-family="Helvetica,sans-Serif" font-size="10.00">ladel_factorize</text>
</a>
</g>
</g>
<!-- Node7&#45;&gt;Node8 -->
<g id="edge8" class="edge">
<title>Node7&#45;&gt;Node8</title>
<path fill="none" stroke="midnightblue" d="M166.51,-10C148.87,-10 130.82,-10 115.25,-10"/>
<polygon fill="midnightblue" stroke="midnightblue" points="166.83,-13.5 176.83,-10 166.83,-6.5 166.83,-13.5"/>
</g>
</g>
</svg>
        <g id="navigator" transform="translate(0 0)" fill="#404254">
                <rect fill="#f2f5e9" fill-opacity="0.5" stroke="#606060" stroke-width=".5" x="0" y="0" width="60" height="60"/>
                <use id="zoomplus" xlink:href="#zoomPlus" x="17" y="9" onmousedown="handleZoom(evt,'in')"/>
                <use id="zoomminus" xlink:href="#zoomMin" x="42" y="9" onmousedown="handleZoom(evt,'out')"/>
                <use id="reset" xlink:href="#resetDef" x="30" y="36" onmousedown="handleReset()"/>
                <g id="arrowUp" xlink:href="#dirArrow" transform="translate(30 24)" onmousedown="handlePan(0,-1)">
                  <use xlink:href="#rim" fill="#404040">
                        <set attributeName="fill" to="#808080" begin="arrowUp.mouseover" end="arrowUp.mouseout"/>
                  </use>
                  <path fill="none" stroke="white" stroke-width="1.5" d="M0,-3.0v7 M-2.5,-0.5L0,-3.0L2.5,-0.5"/>
                </g>
                <g id="arrowRight" xlink:href="#dirArrow" transform="rotate(90) translate(36 -43)" onmousedown="handlePan(1,0)">
                  <use xlink:href="#rim" fill="#404040">
                        <set attributeName="fill" to="#808080" begin="arrowRight.mouseover" end="arrowRight.mouseout"/>
                  </use>
                  <path fill="none" stroke="white" stroke-width="1.5" d="M0,-3.0v7 M-2.5,-0.5L0,-3.0L2.5,-0.5"/>
                </g>
                <g id="arrowDown" xlink:href="#dirArrow" transform="rotate(180) translate(-30 -48)" onmousedown="handlePan(0,1)">
                  <use xlink:href="#rim" fill="#404040">
                        <set attributeName="fill" to="#808080" begin="arrowDown.mouseover" end="arrowDown.mouseout"/>
                  </use>
                  <path fill="none" stroke="white" stroke-width="1.5" d="M0,-3.0v7 M-2.5,-0.5L0,-3.0L2.5,-0.5"/>
                </g>
                <g id="arrowLeft" xlink:href="#dirArrow" transform="rotate(270) translate(-36 17)" onmousedown="handlePan(-1,0)">
                  <use xlink:href="#rim" fill="#404040">
                        <set attributeName="fill" to="#808080" begin="arrowLeft.mouseover" end="arrowLeft.mouseout"/>
                  </use>
                  <path fill="none" stroke="white" stroke-width="1.5" d="M0,-3.0v7 M-2.5,-0.5L0,-3.0L2.5,-0.5"/>
                </g>
        </g>
        <svg viewBox="0 0 15 15" width="100%" height="30px" preserveAspectRatio="xMaxYMin meet">
         <g id="arrow_out" transform="scale(0.3 0.3)">
          <a xlink:href="ladel__permutation_8h_a6fbceb4b665cce4b4397d74516d284a3_icgraph_org.svg" target="_base">
           <rect id="button" ry="5" rx="5" y="6" x="6" height="38" width="38"
                fill="#f2f5e9" fill-opacity="0.5" stroke="#606060" stroke-width="1.0"/>
           <path id="arrow"
             d="M 11.500037,31.436501 C 11.940474,20.09759 22.043105,11.32322 32.158766,21.979434 L 37.068811,17.246167 C 37.068811,17.246167 37.088388,32 37.088388,32 L 22.160133,31.978069 C 22.160133,31.978069 26.997745,27.140456 26.997745,27.140456 C 18.528582,18.264221 13.291696,25.230495 11.500037,31.436501 z"
             style="fill:#404040;"/>
          </a>
         </g>
        </svg>
</svg>
