<?xml version="1.0" encoding="UTF-8" standalone="no"?>
<!DOCTYPE svg PUBLIC "-//W3C//DTD SVG 1.1//EN"
 "http://www.w3.org/Graphics/SVG/1.1/DTD/svg11.dtd">
<!-- Generated by graphviz version 2.43.0 (0)
 -->
<!-- Title: LADEL/src/ladel_permutation.c Pages: 1 -->
<svg width="331pt" height="252pt"
 viewBox="0.00 0.00 331.47 252.00" xmlns="http://www.w3.org/2000/svg" xmlns:xlink="http://www.w3.org/1999/xlink">
<g id="graph0" class="graph" transform="scale(1 1) rotate(0) translate(4 248)">
<title>LADEL/src/ladel_permutation.c</title>
<polygon fill="white" stroke="transparent" points="-4,4 -4,-248 327.47,-248 327.47,4 -4,4"/>
<!-- Node1 -->
<g id="node1" class="node">
<title>Node1</title>
<g id="a_node1"><a xlink:title=" ">
<polygon fill="#bfbfbf" stroke="black" points="27.97,-224.5 27.97,-243.5 193.97,-243.5 193.97,-224.5 27.97,-224.5"/>
<text text-anchor="middle" x="110.97" y="-231.5" font-family="Helvetica,sans-Serif" font-size="10.00">LADEL/src/ladel_permutation.c</text>
</a>
</g>
</g>
<!-- Node2 -->
<g id="node2" class="node">
<title>Node2</title>
<g id="a_node2"><a xlink:href="ladel__types_8h.html" target="_top" xlink:title="Structures and types used in LADEL routines.">
<polygon fill="white" stroke="black" points="105.97,-56.5 105.97,-75.5 187.97,-75.5 187.97,-56.5 105.97,-56.5"/>
<text text-anchor="middle" x="146.97" y="-63.5" font-family="Helvetica,sans-Serif" font-size="10.00">ladel_types.h</text>
</a>
</g>
</g>
<!-- Node1&#45;&gt;Node2 -->
<g id="edge1" class="edge">
<title>Node1&#45;&gt;Node2</title>
<path fill="none" stroke="midnightblue" d="M93.4,-224.42C56.23,-205.13 -24.4,-156.51 7.97,-112 27.88,-84.63 64.79,-73.57 95.57,-69.25"/>
<polygon fill="midnightblue" stroke="midnightblue" points="96.23,-72.69 105.74,-68.03 95.4,-65.74 96.23,-72.69"/>
</g>
<!-- Node5 -->
<g id="node5" class="node">
<title>Node5</title>
<g id="a_node5"><a xlink:href="ladel__constants_8h.html" target="_top" xlink:title="Constants and macros used in LADEL.">
<polygon fill="white" stroke="black" points="16.97,-112.5 16.97,-131.5 118.97,-131.5 118.97,-112.5 16.97,-112.5"/>
<text text-anchor="middle" x="67.97" y="-119.5" font-family="Helvetica,sans-Serif" font-size="10.00">ladel_constants.h</text>
</a>
</g>
</g>
<!-- Node1&#45;&gt;Node5 -->
<g id="edge4" class="edge">
<title>Node1&#45;&gt;Node5</title>
<path fill="none" stroke="midnightblue" d="M107.59,-224.37C100.59,-206.46 84.36,-164.92 74.99,-140.95"/>
<polygon fill="midnightblue" stroke="midnightblue" points="78.23,-139.63 71.33,-131.59 71.71,-142.18 78.23,-139.63"/>
</g>
<!-- Node6 -->
<g id="node6" class="node">
<title>Node6</title>
<g id="a_node6"><a xlink:href="ladel__global_8h.html" target="_top" xlink:title="Memory allocation routines.">
<polygon fill="white" stroke="black" points="104.47,-168.5 104.47,-187.5 189.47,-187.5 189.47,-168.5 104.47,-168.5"/>
<text text-anchor="middle" x="146.97" y="-175.5" font-family="Helvetica,sans-Serif" font-size="10.00">ladel_global.h</text>
</a>
</g>
</g>
<!-- Node1&#45;&gt;Node6 -->
<g id="edge5" class="edge">
<title>Node1&#45;&gt;Node6</title>
<path fill="none" stroke="midnightblue" d="M116.91,-224.08C121.95,-216.53 129.31,-205.49 135.48,-196.23"/>
<polygon fill="midnightblue" stroke="midnightblue" points="138.5,-198.01 141.14,-187.75 132.68,-194.13 138.5,-198.01"/>
</g>
<!-- Node8 -->
<g id="node8" class="node">
<title>Node8</title>
<g id="a_node8"><a xlink:title=" ">
<polygon fill="white" stroke="#bfbfbf" points="270.47,-112.5 270.47,-131.5 323.47,-131.5 323.47,-112.5 270.47,-112.5"/>
<text text-anchor="middle" x="296.97" y="-119.5" font-family="Helvetica,sans-Serif" font-size="10.00">stdlib.h</text>
</a>
</g>
</g>
<!-- Node1&#45;&gt;Node8 -->
<g id="edge11" class="edge">
<title>Node1&#45;&gt;Node8</title>
<path fill="none" stroke="midnightblue" d="M129.15,-224.45C147.17,-215.8 175.42,-201.77 198.97,-188 226.51,-171.9 256.94,-151.23 276.47,-137.58"/>
<polygon fill="midnightblue" stroke="midnightblue" points="278.71,-140.28 284.88,-131.66 274.68,-134.56 278.71,-140.28"/>
</g>
<!-- Node3 -->
<g id="node3" class="node">
<title>Node3</title>
<g id="a_node3"><a xlink:title=" ">
<polygon fill="white" stroke="#bfbfbf" points="82.47,-0.5 82.47,-19.5 135.47,-19.5 135.47,-0.5 82.47,-0.5"/>
<text text-anchor="middle" x="108.97" y="-7.5" font-family="Helvetica,sans-Serif" font-size="10.00">stdint.h</text>
</a>
</g>
</g>
<!-- Node2&#45;&gt;Node3 -->
<g id="edge2" class="edge">
<title>Node2&#45;&gt;Node3</title>
<path fill="none" stroke="midnightblue" d="M140.69,-56.08C135.33,-48.46 127.45,-37.26 120.89,-27.94"/>
<polygon fill="midnightblue" stroke="midnightblue" points="123.74,-25.91 115.13,-19.75 118.02,-29.94 123.74,-25.91"/>
</g>
<!-- Node4 -->
<g id="node4" class="node">
<title>Node4</title>
<g id="a_node4"><a xlink:title=" ">
<polygon fill="white" stroke="#bfbfbf" points="153.47,-0.5 153.47,-19.5 218.47,-19.5 218.47,-0.5 153.47,-0.5"/>
<text text-anchor="middle" x="185.97" y="-7.5" font-family="Helvetica,sans-Serif" font-size="10.00">inttypes.h</text>
</a>
</g>
</g>
<!-- Node2&#45;&gt;Node4 -->
<g id="edge3" class="edge">
<title>Node2&#45;&gt;Node4</title>
<path fill="none" stroke="midnightblue" d="M153.41,-56.08C158.92,-48.46 167,-37.26 173.73,-27.94"/>
<polygon fill="midnightblue" stroke="midnightblue" points="176.63,-29.91 179.65,-19.75 170.96,-25.81 176.63,-29.91"/>
</g>
<!-- Node6&#45;&gt;Node2 -->
<g id="edge6" class="edge">
<title>Node6&#45;&gt;Node2</title>
<path fill="none" stroke="midnightblue" d="M146.97,-168.37C146.97,-150.62 146.97,-109.67 146.97,-85.6"/>
<polygon fill="midnightblue" stroke="midnightblue" points="150.47,-85.59 146.97,-75.59 143.47,-85.59 150.47,-85.59"/>
</g>
<!-- Node6&#45;&gt;Node5 -->
<g id="edge7" class="edge">
<title>Node6&#45;&gt;Node5</title>
<path fill="none" stroke="midnightblue" d="M134.28,-168.32C122.07,-159.98 103.39,-147.21 88.97,-137.35"/>
<polygon fill="midnightblue" stroke="midnightblue" points="90.86,-134.41 80.63,-131.65 86.91,-140.19 90.86,-134.41"/>
</g>
<!-- Node7 -->
<g id="node7" class="node">
<title>Node7</title>
<g id="a_node7"><a xlink:href="ladel__copy_8h.html" target="_top" xlink:title="Routines to copy matrices and vectors.">
<polygon fill="white" stroke="black" points="175.47,-112.5 175.47,-131.5 252.47,-131.5 252.47,-112.5 175.47,-112.5"/>
<text text-anchor="middle" x="213.97" y="-119.5" font-family="Helvetica,sans-Serif" font-size="10.00">ladel_copy.h</text>
</a>
</g>
</g>
<!-- Node6&#45;&gt;Node7 -->
<g id="edge8" class="edge">
<title>Node6&#45;&gt;Node7</title>
<path fill="none" stroke="midnightblue" d="M157.73,-168.32C167.74,-160.26 182.86,-148.08 194.9,-138.37"/>
<polygon fill="midnightblue" stroke="midnightblue" points="197.42,-140.83 203.01,-131.83 193.03,-135.38 197.42,-140.83"/>
</g>
<!-- Node6&#45;&gt;Node8 -->
<g id="edge10" class="edge">
<title>Node6&#45;&gt;Node8</title>
<path fill="none" stroke="midnightblue" d="M170.74,-168.44C195.86,-159.4 235.68,-145.06 263.87,-134.92"/>
<polygon fill="midnightblue" stroke="midnightblue" points="265.09,-138.2 273.31,-131.52 262.72,-131.61 265.09,-138.2"/>
</g>
<!-- Node7&#45;&gt;Node2 -->
<g id="edge9" class="edge">
<title>Node7&#45;&gt;Node2</title>
<path fill="none" stroke="midnightblue" d="M203.2,-112.32C193.2,-104.26 178.08,-92.08 166.04,-82.37"/>
<polygon fill="midnightblue" stroke="midnightblue" points="167.91,-79.38 157.93,-75.83 163.52,-84.83 167.91,-79.38"/>
</g>
</g>
</svg>
