<?xml version="1.0" encoding="UTF-8" standalone="no"?>
<!DOCTYPE svg PUBLIC "-//W3C//DTD SVG 1.1//EN"
 "http://www.w3.org/Graphics/SVG/1.1/DTD/svg11.dtd">
<!-- Generated by graphviz version 2.43.0 (0)
 -->
<!-- Title: ladel_mat_diag_mat_transpose Pages: 1 -->
<svg width="686pt" height="104pt"
 viewBox="0.00 0.00 686.00 104.00" xmlns="http://www.w3.org/2000/svg" xmlns:xlink="http://www.w3.org/1999/xlink">
<g id="graph0" class="graph" transform="scale(1 1) rotate(0) translate(4 100)">
<title>ladel_mat_diag_mat_transpose</title>
<polygon fill="white" stroke="transparent" points="-4,4 -4,-100 682,-100 682,4 -4,4"/>
<!-- Node1 -->
<g id="node1" class="node">
<title>Node1</title>
<g id="a_node1"><a xlink:title="Computes .">
<polygon fill="#bfbfbf" stroke="black" points="0,-33 0,-63 116,-63 116,-33 0,-33"/>
<text text-anchor="start" x="8" y="-51" font-family="Helvetica,sans-Serif" font-size="10.00">ladel_mat_diag_mat</text>
<text text-anchor="middle" x="58" y="-40" font-family="Helvetica,sans-Serif" font-size="10.00">_transpose</text>
</a>
</g>
</g>
<!-- Node2 -->
<g id="node2" class="node">
<title>Node2</title>
<g id="a_node2"><a xlink:href="ladel__matmat_8c.html#aa0dc5e49d5b89cd8756da8d19c19fffa" target="_top" xlink:title="Core mat_mat_transpose function with all options (diag and value/pattern).">
<polygon fill="white" stroke="black" points="152,-33 152,-63 295,-63 295,-33 152,-33"/>
<text text-anchor="start" x="160" y="-51" font-family="Helvetica,sans-Serif" font-size="10.00">ladel_mat_mat_transpose</text>
<text text-anchor="middle" x="223.5" y="-40" font-family="Helvetica,sans-Serif" font-size="10.00">_advanced</text>
</a>
</g>
</g>
<!-- Node1&#45;&gt;Node2 -->
<g id="edge1" class="edge">
<title>Node1&#45;&gt;Node2</title>
<path fill="none" stroke="midnightblue" d="M116.18,-48C124.46,-48 133.1,-48 141.73,-48"/>
<polygon fill="midnightblue" stroke="midnightblue" points="141.83,-51.5 151.83,-48 141.83,-44.5 141.83,-51.5"/>
</g>
<!-- Node3 -->
<g id="node3" class="node">
<title>Node3</title>
<g id="a_node3"><a xlink:href="ladel__global_8c.html#a6e485045ec098c0b5a9afe07875a1e59" target="_top" xlink:title="Allocate a sparse matrix.">
<polygon fill="white" stroke="black" points="331,-38.5 331,-57.5 438,-57.5 438,-38.5 331,-38.5"/>
<text text-anchor="middle" x="384.5" y="-45.5" font-family="Helvetica,sans-Serif" font-size="10.00">ladel_sparse_alloc</text>
</a>
</g>
</g>
<!-- Node2&#45;&gt;Node3 -->
<g id="edge2" class="edge">
<title>Node2&#45;&gt;Node3</title>
<path fill="none" stroke="midnightblue" d="M295.17,-48C303.66,-48 312.28,-48 320.65,-48"/>
<polygon fill="midnightblue" stroke="midnightblue" points="320.71,-51.5 330.71,-48 320.71,-44.5 320.71,-51.5"/>
</g>
<!-- Node4 -->
<g id="node4" class="node">
<title>Node4</title>
<g id="a_node4"><a xlink:href="ladel__global_8c.html#a15a407b5c8ad9de2faeb93fcd786e099" target="_top" xlink:title="Version of calloc (for mex or for regular C).">
<polygon fill="white" stroke="black" points="488.5,-76.5 488.5,-95.5 562.5,-95.5 562.5,-76.5 488.5,-76.5"/>
<text text-anchor="middle" x="525.5" y="-83.5" font-family="Helvetica,sans-Serif" font-size="10.00">ladel_calloc</text>
</a>
</g>
</g>
<!-- Node3&#45;&gt;Node4 -->
<g id="edge3" class="edge">
<title>Node3&#45;&gt;Node4</title>
<path fill="none" stroke="midnightblue" d="M420.58,-57.59C438.52,-62.49 460.56,-68.52 479.72,-73.76"/>
<polygon fill="midnightblue" stroke="midnightblue" points="478.87,-77.15 489.44,-76.41 480.71,-70.4 478.87,-77.15"/>
</g>
<!-- Node5 -->
<g id="node5" class="node">
<title>Node5</title>
<g id="a_node5"><a xlink:href="ladel__global_8c.html#a86142b1e820a5de1deea8ee656186245" target="_top" xlink:title="Version of malloc (for mex or for regular C).">
<polygon fill="white" stroke="black" points="486,-38.5 486,-57.5 565,-57.5 565,-38.5 486,-38.5"/>
<text text-anchor="middle" x="525.5" y="-45.5" font-family="Helvetica,sans-Serif" font-size="10.00">ladel_malloc</text>
</a>
</g>
</g>
<!-- Node3&#45;&gt;Node5 -->
<g id="edge4" class="edge">
<title>Node3&#45;&gt;Node5</title>
<path fill="none" stroke="midnightblue" d="M438.05,-48C450.3,-48 463.3,-48 475.39,-48"/>
<polygon fill="midnightblue" stroke="midnightblue" points="475.74,-51.5 485.74,-48 475.74,-44.5 475.74,-51.5"/>
</g>
<!-- Node6 -->
<g id="node6" class="node">
<title>Node6</title>
<g id="a_node6"><a xlink:href="ladel__global_8c.html#afaa07a7aa3c8517d3853968448b398a0" target="_top" xlink:title="Free a sparse matrix (and return NULL).">
<polygon fill="white" stroke="black" points="474,-0.5 474,-19.5 577,-19.5 577,-0.5 474,-0.5"/>
<text text-anchor="middle" x="525.5" y="-7.5" font-family="Helvetica,sans-Serif" font-size="10.00">ladel_sparse_free</text>
</a>
</g>
</g>
<!-- Node3&#45;&gt;Node6 -->
<g id="edge5" class="edge">
<title>Node3&#45;&gt;Node6</title>
<path fill="none" stroke="midnightblue" d="M420.58,-38.41C438.52,-33.51 460.56,-27.48 479.72,-22.24"/>
<polygon fill="midnightblue" stroke="midnightblue" points="480.71,-25.6 489.44,-19.59 478.87,-18.85 480.71,-25.6"/>
</g>
<!-- Node7 -->
<g id="node7" class="node">
<title>Node7</title>
<g id="a_node7"><a xlink:href="ladel__global_8c.html#a946ae8034525eb6db42d4a166be57968" target="_top" xlink:title="Version of free (for mex or for regular C).">
<polygon fill="white" stroke="black" points="613,-0.5 613,-19.5 678,-19.5 678,-0.5 613,-0.5"/>
<text text-anchor="middle" x="645.5" y="-7.5" font-family="Helvetica,sans-Serif" font-size="10.00">ladel_free</text>
</a>
</g>
</g>
<!-- Node6&#45;&gt;Node7 -->
<g id="edge6" class="edge">
<title>Node6&#45;&gt;Node7</title>
<path fill="none" stroke="midnightblue" d="M577.23,-10C585.75,-10 594.5,-10 602.76,-10"/>
<polygon fill="midnightblue" stroke="midnightblue" points="602.91,-13.5 612.91,-10 602.91,-6.5 602.91,-13.5"/>
</g>
</g>
</svg>
