<?xml version="1.0" encoding="UTF-8" standalone="no"?>
<!DOCTYPE svg PUBLIC "-//W3C//DTD SVG 1.1//EN"
 "http://www.w3.org/Graphics/SVG/1.1/DTD/svg11.dtd">
<!-- Generated by graphviz version 2.43.0 (0)
 -->
<!-- Title: LADEL/src/ladel.c Pages: 1 -->
<svg width="1644pt" height="364pt"
 viewBox="0.00 0.00 1643.50 364.00" xmlns="http://www.w3.org/2000/svg" xmlns:xlink="http://www.w3.org/1999/xlink">
<g id="graph0" class="graph" transform="scale(1 1) rotate(0) translate(4 360)">
<title>LADEL/src/ladel.c</title>
<polygon fill="white" stroke="transparent" points="-4,4 -4,-360 1639.5,-360 1639.5,4 -4,4"/>
<!-- Node1 -->
<g id="node1" class="node">
<title>Node1</title>
<g id="a_node1"><a xlink:title=" ">
<polygon fill="#bfbfbf" stroke="black" points="725.5,-336.5 725.5,-355.5 826.5,-355.5 826.5,-336.5 725.5,-336.5"/>
<text text-anchor="middle" x="776" y="-343.5" font-family="Helvetica,sans-Serif" font-size="10.00">LADEL/src/ladel.c</text>
</a>
</g>
</g>
<!-- Node2 -->
<g id="node2" class="node">
<title>Node2</title>
<g id="a_node2"><a xlink:href="ladel__types_8h.html" target="_top" xlink:title="Structures and types used in LADEL routines.">
<polygon fill="white" stroke="black" points="814,-56.5 814,-75.5 896,-75.5 896,-56.5 814,-56.5"/>
<text text-anchor="middle" x="855" y="-63.5" font-family="Helvetica,sans-Serif" font-size="10.00">ladel_types.h</text>
</a>
</g>
</g>
<!-- Node1&#45;&gt;Node2 -->
<g id="edge1" class="edge">
<title>Node1&#45;&gt;Node2</title>
<path fill="none" stroke="midnightblue" d="M826.63,-342.57C989.91,-334.06 1492,-302.4 1492,-235 1492,-235 1492,-235 1492,-177 1492,-126.57 1446.44,-129.11 1399,-112 1309.22,-79.61 1023.95,-70.33 906.4,-67.85"/>
<polygon fill="midnightblue" stroke="midnightblue" points="906.29,-64.34 896.22,-67.64 906.15,-71.34 906.29,-64.34"/>
</g>
<!-- Node5 -->
<g id="node5" class="node">
<title>Node5</title>
<g id="a_node5"><a xlink:href="ladel__constants_8h.html" target="_top" xlink:title="Constants and macros used in LADEL.">
<polygon fill="white" stroke="black" points="212,-112.5 212,-131.5 314,-131.5 314,-112.5 212,-112.5"/>
<text text-anchor="middle" x="263" y="-119.5" font-family="Helvetica,sans-Serif" font-size="10.00">ladel_constants.h</text>
</a>
</g>
</g>
<!-- Node1&#45;&gt;Node5 -->
<g id="edge4" class="edge">
<title>Node1&#45;&gt;Node5</title>
<path fill="none" stroke="midnightblue" d="M725.22,-343.49C608.07,-339.58 321.94,-327.45 230,-300 180.07,-285.09 153.63,-288.79 127,-244 97.63,-194.59 178.63,-154.32 228.01,-135.13"/>
<polygon fill="midnightblue" stroke="midnightblue" points="229.3,-138.39 237.42,-131.58 226.83,-131.84 229.3,-138.39"/>
</g>
<!-- Node6 -->
<g id="node6" class="node">
<title>Node6</title>
<g id="a_node6"><a xlink:href="ladel__global_8h.html" target="_top" xlink:title="Memory allocation routines.">
<polygon fill="white" stroke="black" points="354.5,-168.5 354.5,-187.5 439.5,-187.5 439.5,-168.5 354.5,-168.5"/>
<text text-anchor="middle" x="397" y="-175.5" font-family="Helvetica,sans-Serif" font-size="10.00">ladel_global.h</text>
</a>
</g>
</g>
<!-- Node1&#45;&gt;Node6 -->
<g id="edge5" class="edge">
<title>Node1&#45;&gt;Node6</title>
<path fill="none" stroke="midnightblue" d="M725.22,-339.1C631.24,-327.03 436.1,-296.15 396,-244 385.91,-230.88 387.71,-211.47 391.08,-197.27"/>
<polygon fill="midnightblue" stroke="midnightblue" points="394.46,-198.2 393.8,-187.63 387.72,-196.3 394.46,-198.2"/>
</g>
<!-- Node9 -->
<g id="node9" class="node">
<title>Node9</title>
<g id="a_node9"><a xlink:href="ladel__ldl__symbolic_8h.html" target="_top" xlink:title="The symbolic part of the factorization.">
<polygon fill="white" stroke="black" points="1218,-224.5 1218,-243.5 1334,-243.5 1334,-224.5 1218,-224.5"/>
<text text-anchor="middle" x="1276" y="-231.5" font-family="Helvetica,sans-Serif" font-size="10.00">ladel_ldl_symbolic.h</text>
</a>
</g>
</g>
<!-- Node1&#45;&gt;Node9 -->
<g id="edge11" class="edge">
<title>Node1&#45;&gt;Node9</title>
<path fill="none" stroke="midnightblue" d="M814.82,-336.46C904.9,-316.64 1128,-267.56 1227.16,-245.75"/>
<polygon fill="midnightblue" stroke="midnightblue" points="1228.19,-249.1 1237.21,-243.53 1226.69,-242.26 1228.19,-249.1"/>
</g>
<!-- Node10 -->
<g id="node10" class="node">
<title>Node10</title>
<g id="a_node10"><a xlink:href="ladel__ldl__numeric_8h.html" target="_top" xlink:title="The numerical part of the factorization.">
<polygon fill="white" stroke="black" points="1352,-224.5 1352,-243.5 1464,-243.5 1464,-224.5 1352,-224.5"/>
<text text-anchor="middle" x="1408" y="-231.5" font-family="Helvetica,sans-Serif" font-size="10.00">ladel_ldl_numeric.h</text>
</a>
</g>
</g>
<!-- Node1&#45;&gt;Node10 -->
<g id="edge13" class="edge">
<title>Node1&#45;&gt;Node10</title>
<path fill="none" stroke="midnightblue" d="M826.63,-336.46C879.78,-327.48 965.79,-312.88 1040,-300 1149.67,-280.97 1277.62,-258.25 1350.1,-245.34"/>
<polygon fill="midnightblue" stroke="midnightblue" points="1351.15,-248.71 1360.38,-243.51 1349.92,-241.81 1351.15,-248.71"/>
</g>
<!-- Node11 -->
<g id="node11" class="node">
<title>Node11</title>
<g id="a_node11"><a xlink:href="ladel__permutation_8h.html" target="_top" xlink:title="Routines to permute vectors and matrices.">
<polygon fill="white" stroke="black" points="1520.5,-224.5 1520.5,-243.5 1635.5,-243.5 1635.5,-224.5 1520.5,-224.5"/>
<text text-anchor="middle" x="1578" y="-231.5" font-family="Helvetica,sans-Serif" font-size="10.00">ladel_permutation.h</text>
</a>
</g>
</g>
<!-- Node1&#45;&gt;Node11 -->
<g id="edge15" class="edge">
<title>Node1&#45;&gt;Node11</title>
<path fill="none" stroke="midnightblue" d="M826.68,-343.81C981.88,-339.89 1443.82,-326.14 1506,-300 1530.63,-289.65 1552.38,-267.17 1565.36,-251.57"/>
<polygon fill="midnightblue" stroke="midnightblue" points="1568.12,-253.72 1571.64,-243.73 1562.66,-249.35 1568.12,-253.72"/>
</g>
<!-- Node12 -->
<g id="node12" class="node">
<title>Node12</title>
<g id="a_node12"><a xlink:href="ladel__etree_8h.html" target="_top" xlink:title="Routines to compute the elimination tree of a matrix.">
<polygon fill="white" stroke="black" points="0,-224.5 0,-243.5 80,-243.5 80,-224.5 0,-224.5"/>
<text text-anchor="middle" x="40" y="-231.5" font-family="Helvetica,sans-Serif" font-size="10.00">ladel_etree.h</text>
</a>
</g>
</g>
<!-- Node1&#45;&gt;Node12 -->
<g id="edge17" class="edge">
<title>Node1&#45;&gt;Node12</title>
<path fill="none" stroke="midnightblue" d="M725.36,-343.95C576.91,-340.57 149.76,-328.44 94,-300 73.85,-289.72 58.38,-268.24 49.26,-252.78"/>
<polygon fill="midnightblue" stroke="midnightblue" points="52.12,-250.71 44.21,-243.67 46,-254.11 52.12,-250.71"/>
</g>
<!-- Node13 -->
<g id="node13" class="node">
<title>Node13</title>
<g id="a_node13"><a xlink:href="ladel__debug__print_8h.html" target="_top" xlink:title="Routines to print out matrices and vectors.">
<polygon fill="white" stroke="black" points="136.5,-224.5 136.5,-243.5 249.5,-243.5 249.5,-224.5 136.5,-224.5"/>
<text text-anchor="middle" x="193" y="-231.5" font-family="Helvetica,sans-Serif" font-size="10.00">ladel_debug_print.h</text>
</a>
</g>
</g>
<!-- Node1&#45;&gt;Node13 -->
<g id="edge19" class="edge">
<title>Node1&#45;&gt;Node13</title>
<path fill="none" stroke="midnightblue" d="M725.37,-344.65C612.9,-343.21 345.78,-335.98 264,-300 239.96,-289.42 218.68,-267.34 205.83,-251.86"/>
<polygon fill="midnightblue" stroke="midnightblue" points="208.25,-249.28 199.28,-243.64 202.78,-253.64 208.25,-249.28"/>
</g>
<!-- Node14 -->
<g id="node14" class="node">
<title>Node14</title>
<g id="a_node14"><a xlink:href="ladel_8h.html" target="_top" xlink:title="LADEL main include file.">
<polygon fill="white" stroke="black" points="751,-280.5 751,-299.5 801,-299.5 801,-280.5 751,-280.5"/>
<text text-anchor="middle" x="776" y="-287.5" font-family="Helvetica,sans-Serif" font-size="10.00">ladel.h</text>
</a>
</g>
</g>
<!-- Node1&#45;&gt;Node14 -->
<g id="edge22" class="edge">
<title>Node1&#45;&gt;Node14</title>
<path fill="none" stroke="midnightblue" d="M776,-336.08C776,-329.01 776,-318.86 776,-309.99"/>
<polygon fill="midnightblue" stroke="midnightblue" points="779.5,-309.75 776,-299.75 772.5,-309.75 779.5,-309.75"/>
</g>
<!-- Node3 -->
<g id="node3" class="node">
<title>Node3</title>
<g id="a_node3"><a xlink:title=" ">
<polygon fill="white" stroke="#bfbfbf" points="790.5,-0.5 790.5,-19.5 843.5,-19.5 843.5,-0.5 790.5,-0.5"/>
<text text-anchor="middle" x="817" y="-7.5" font-family="Helvetica,sans-Serif" font-size="10.00">stdint.h</text>
</a>
</g>
</g>
<!-- Node2&#45;&gt;Node3 -->
<g id="edge2" class="edge">
<title>Node2&#45;&gt;Node3</title>
<path fill="none" stroke="midnightblue" d="M848.73,-56.08C843.36,-48.46 835.48,-37.26 828.92,-27.94"/>
<polygon fill="midnightblue" stroke="midnightblue" points="831.78,-25.91 823.16,-19.75 826.05,-29.94 831.78,-25.91"/>
</g>
<!-- Node4 -->
<g id="node4" class="node">
<title>Node4</title>
<g id="a_node4"><a xlink:title=" ">
<polygon fill="white" stroke="#bfbfbf" points="861.5,-0.5 861.5,-19.5 926.5,-19.5 926.5,-0.5 861.5,-0.5"/>
<text text-anchor="middle" x="894" y="-7.5" font-family="Helvetica,sans-Serif" font-size="10.00">inttypes.h</text>
</a>
</g>
</g>
<!-- Node2&#45;&gt;Node4 -->
<g id="edge3" class="edge">
<title>Node2&#45;&gt;Node4</title>
<path fill="none" stroke="midnightblue" d="M861.44,-56.08C866.95,-48.46 875.03,-37.26 881.76,-27.94"/>
<polygon fill="midnightblue" stroke="midnightblue" points="884.66,-29.91 887.68,-19.75 878.99,-25.81 884.66,-29.91"/>
</g>
<!-- Node6&#45;&gt;Node2 -->
<g id="edge6" class="edge">
<title>Node6&#45;&gt;Node2</title>
<path fill="none" stroke="midnightblue" d="M386,-168.41C370.32,-155.16 345.08,-129.43 361,-112 390.45,-79.75 683.36,-70.35 803.75,-67.84"/>
<polygon fill="midnightblue" stroke="midnightblue" points="803.9,-71.34 813.82,-67.64 803.75,-64.34 803.9,-71.34"/>
</g>
<!-- Node6&#45;&gt;Node5 -->
<g id="edge7" class="edge">
<title>Node6&#45;&gt;Node5</title>
<path fill="none" stroke="midnightblue" d="M375.77,-168.44C353.62,-159.52 318.68,-145.44 293.56,-135.32"/>
<polygon fill="midnightblue" stroke="midnightblue" points="294.72,-132.01 284.13,-131.52 292.1,-138.5 294.72,-132.01"/>
</g>
<!-- Node7 -->
<g id="node7" class="node">
<title>Node7</title>
<g id="a_node7"><a xlink:href="ladel__copy_8h.html" target="_top" xlink:title="Routines to copy matrices and vectors.">
<polygon fill="white" stroke="black" points="441.5,-112.5 441.5,-131.5 518.5,-131.5 518.5,-112.5 441.5,-112.5"/>
<text text-anchor="middle" x="480" y="-119.5" font-family="Helvetica,sans-Serif" font-size="10.00">ladel_copy.h</text>
</a>
</g>
</g>
<!-- Node6&#45;&gt;Node7 -->
<g id="edge8" class="edge">
<title>Node6&#45;&gt;Node7</title>
<path fill="none" stroke="midnightblue" d="M410.34,-168.32C423.16,-159.98 442.78,-147.21 457.94,-137.35"/>
<polygon fill="midnightblue" stroke="midnightblue" points="460.22,-140.04 466.7,-131.65 456.41,-134.17 460.22,-140.04"/>
</g>
<!-- Node8 -->
<g id="node8" class="node">
<title>Node8</title>
<g id="a_node8"><a xlink:title=" ">
<polygon fill="white" stroke="#bfbfbf" points="370.5,-112.5 370.5,-131.5 423.5,-131.5 423.5,-112.5 370.5,-112.5"/>
<text text-anchor="middle" x="397" y="-119.5" font-family="Helvetica,sans-Serif" font-size="10.00">stdlib.h</text>
</a>
</g>
</g>
<!-- Node6&#45;&gt;Node8 -->
<g id="edge10" class="edge">
<title>Node6&#45;&gt;Node8</title>
<path fill="none" stroke="midnightblue" d="M397,-168.08C397,-161.01 397,-150.86 397,-141.99"/>
<polygon fill="midnightblue" stroke="midnightblue" points="400.5,-141.75 397,-131.75 393.5,-141.75 400.5,-141.75"/>
</g>
<!-- Node7&#45;&gt;Node2 -->
<g id="edge9" class="edge">
<title>Node7&#45;&gt;Node2</title>
<path fill="none" stroke="midnightblue" d="M518.77,-114.28C523.56,-113.49 528.39,-112.71 533,-112 628.38,-97.24 739.99,-82.12 803.6,-73.71"/>
<polygon fill="midnightblue" stroke="midnightblue" points="804.31,-77.15 813.77,-72.37 803.4,-70.21 804.31,-77.15"/>
</g>
<!-- Node9&#45;&gt;Node2 -->
<g id="edge12" class="edge">
<title>Node9&#45;&gt;Node2</title>
<path fill="none" stroke="midnightblue" d="M1303.81,-224.42C1321.26,-217.5 1342.56,-205.92 1354,-188 1372.22,-159.47 1381.85,-136.98 1359,-112 1328.86,-79.05 1028.67,-70.05 906.41,-67.75"/>
<polygon fill="midnightblue" stroke="midnightblue" points="906.24,-64.24 896.18,-67.56 906.12,-71.24 906.24,-64.24"/>
</g>
<!-- Node10&#45;&gt;Node2 -->
<g id="edge14" class="edge">
<title>Node10&#45;&gt;Node2</title>
<path fill="none" stroke="midnightblue" d="M1408.89,-224.27C1410.67,-201.66 1411.9,-140.95 1378,-112 1342.61,-81.78 1030.74,-71.14 906.12,-68.07"/>
<polygon fill="midnightblue" stroke="midnightblue" points="906.15,-64.57 896.07,-67.83 905.98,-71.57 906.15,-64.57"/>
</g>
<!-- Node11&#45;&gt;Node2 -->
<g id="edge16" class="edge">
<title>Node11&#45;&gt;Node2</title>
<path fill="none" stroke="midnightblue" d="M1575.83,-224.31C1569.57,-201.26 1549.1,-138.51 1506,-112 1455.46,-80.91 1051.63,-70.57 906.62,-67.84"/>
<polygon fill="midnightblue" stroke="midnightblue" points="906.29,-64.33 896.23,-67.65 906.16,-71.33 906.29,-64.33"/>
</g>
<!-- Node12&#45;&gt;Node2 -->
<g id="edge18" class="edge">
<title>Node12&#45;&gt;Node2</title>
<path fill="none" stroke="midnightblue" d="M45.53,-224.48C61.56,-200.7 110.84,-133.93 172,-112 288.11,-70.37 665.03,-66.67 803.43,-66.75"/>
<polygon fill="midnightblue" stroke="midnightblue" points="803.74,-70.25 813.75,-66.77 803.75,-63.25 803.74,-70.25"/>
</g>
<!-- Node13&#45;&gt;Node2 -->
<g id="edge21" class="edge">
<title>Node13&#45;&gt;Node2</title>
<path fill="none" stroke="midnightblue" d="M187.62,-224.44C182.44,-215.68 174.99,-201.47 172,-188 164.38,-153.67 165.63,-132.78 194,-112 242.76,-76.28 657.11,-68.88 803.79,-67.38"/>
<polygon fill="midnightblue" stroke="midnightblue" points="803.92,-70.87 813.88,-67.28 803.85,-63.88 803.92,-70.87"/>
</g>
<!-- Node13&#45;&gt;Node6 -->
<g id="edge20" class="edge">
<title>Node13&#45;&gt;Node6</title>
<path fill="none" stroke="midnightblue" d="M225.32,-224.44C260.39,-215.16 316.5,-200.31 354.96,-190.13"/>
<polygon fill="midnightblue" stroke="midnightblue" points="356.06,-193.46 364.83,-187.52 354.26,-186.69 356.06,-193.46"/>
</g>
<!-- Node14&#45;&gt;Node2 -->
<g id="edge50" class="edge">
<title>Node14&#45;&gt;Node2</title>
<path fill="none" stroke="midnightblue" d="M769.08,-280.15C758.78,-267.22 738.53,-242.67 719,-224 700.48,-206.3 685.1,-211.08 674,-188 670.15,-179.99 669.5,-175.67 674,-168 702.82,-118.91 765.13,-91.93 808.54,-78.47"/>
<polygon fill="midnightblue" stroke="midnightblue" points="809.72,-81.77 818.31,-75.57 807.73,-75.06 809.72,-81.77"/>
</g>
<!-- Node14&#45;&gt;Node5 -->
<g id="edge25" class="edge">
<title>Node14&#45;&gt;Node5</title>
<path fill="none" stroke="midnightblue" d="M750.81,-288.01C676.56,-284.8 459.76,-273.09 396,-244 343.18,-219.9 296.91,-166.96 275.55,-139.8"/>
<polygon fill="midnightblue" stroke="midnightblue" points="278.16,-137.45 269.29,-131.65 272.61,-141.71 278.16,-137.45"/>
</g>
<!-- Node14&#45;&gt;Node6 -->
<g id="edge29" class="edge">
<title>Node14&#45;&gt;Node6</title>
<path fill="none" stroke="midnightblue" d="M750.74,-289.53C676.44,-290.55 460.71,-289.45 411,-244 398.37,-232.45 395.67,-212.49 395.64,-197.72"/>
<polygon fill="midnightblue" stroke="midnightblue" points="399.14,-197.8 396.01,-187.67 392.14,-197.54 399.14,-197.8"/>
</g>
<!-- Node14&#45;&gt;Node7 -->
<g id="edge26" class="edge">
<title>Node14&#45;&gt;Node7</title>
<path fill="none" stroke="midnightblue" d="M750.98,-288.1C712.29,-285.68 636.76,-276.77 583,-244 539.97,-217.78 505.91,-167.37 489.92,-140.64"/>
<polygon fill="midnightblue" stroke="midnightblue" points="492.75,-138.55 484.7,-131.66 486.7,-142.06 492.75,-138.55"/>
</g>
<!-- Node14&#45;&gt;Node9 -->
<g id="edge31" class="edge">
<title>Node14&#45;&gt;Node9</title>
<path fill="none" stroke="midnightblue" d="M801.1,-286.53C867.13,-280.01 1051.1,-261.59 1204,-244 1205.27,-243.85 1206.55,-243.71 1207.84,-243.56"/>
<polygon fill="midnightblue" stroke="midnightblue" points="1208.33,-247.02 1217.85,-242.37 1207.51,-240.07 1208.33,-247.02"/>
</g>
<!-- Node14&#45;&gt;Node10 -->
<g id="edge30" class="edge">
<title>Node14&#45;&gt;Node10</title>
<path fill="none" stroke="midnightblue" d="M801.2,-287.53C879.59,-282.83 1126.27,-267.23 1341.43,-244.11"/>
<polygon fill="midnightblue" stroke="midnightblue" points="1342.09,-247.56 1351.65,-243.01 1341.34,-240.6 1342.09,-247.56"/>
</g>
<!-- Node14&#45;&gt;Node11 -->
<g id="edge39" class="edge">
<title>Node14&#45;&gt;Node11</title>
<path fill="none" stroke="midnightblue" d="M801.02,-287.58C891.51,-282.38 1210.31,-263.74 1473,-244 1484.97,-243.1 1497.71,-242.07 1510.03,-241.04"/>
<polygon fill="midnightblue" stroke="midnightblue" points="1510.58,-244.5 1520.25,-240.17 1509.99,-237.53 1510.58,-244.5"/>
</g>
<!-- Node14&#45;&gt;Node12 -->
<g id="edge28" class="edge">
<title>Node14&#45;&gt;Node12</title>
<path fill="none" stroke="midnightblue" d="M750.92,-287.57C664.3,-282.56 369.77,-264.97 127,-244 115.18,-242.98 102.48,-241.74 90.52,-240.52"/>
<polygon fill="midnightblue" stroke="midnightblue" points="90.56,-237 80.26,-239.45 89.84,-243.97 90.56,-237"/>
</g>
<!-- Node14&#45;&gt;Node13 -->
<g id="edge27" class="edge">
<title>Node14&#45;&gt;Node13</title>
<path fill="none" stroke="midnightblue" d="M750.95,-286.68C666.28,-278.84 388.89,-253.14 259.97,-241.2"/>
<polygon fill="midnightblue" stroke="midnightblue" points="260.11,-237.7 249.83,-240.26 259.46,-244.67 260.11,-237.7"/>
</g>
<!-- Node15 -->
<g id="node15" class="node">
<title>Node15</title>
<g id="a_node15"><a xlink:href="ladel__col__counts_8h.html" target="_top" xlink:title="Computes the col counts needed for the symbolic factorization (after etree and postorder).">
<polygon fill="white" stroke="black" points="682.5,-168.5 682.5,-187.5 789.5,-187.5 789.5,-168.5 682.5,-168.5"/>
<text text-anchor="middle" x="736" y="-175.5" font-family="Helvetica,sans-Serif" font-size="10.00">ladel_col_counts.h</text>
</a>
</g>
</g>
<!-- Node14&#45;&gt;Node15 -->
<g id="edge23" class="edge">
<title>Node14&#45;&gt;Node15</title>
<path fill="none" stroke="midnightblue" d="M772.86,-280.37C766.38,-262.54 751.38,-221.3 742.64,-197.27"/>
<polygon fill="midnightblue" stroke="midnightblue" points="745.83,-195.79 739.12,-187.59 739.25,-198.19 745.83,-195.79"/>
</g>
<!-- Node16 -->
<g id="node16" class="node">
<title>Node16</title>
<g id="a_node16"><a xlink:href="ladel__matvec_8h.html" target="_top" xlink:title="Routines to compute matrix vector products.">
<polygon fill="white" stroke="black" points="420,-224.5 420,-243.5 512,-243.5 512,-224.5 420,-224.5"/>
<text text-anchor="middle" x="466" y="-231.5" font-family="Helvetica,sans-Serif" font-size="10.00">ladel_matvec.h</text>
</a>
</g>
</g>
<!-- Node14&#45;&gt;Node16 -->
<g id="edge32" class="edge">
<title>Node14&#45;&gt;Node16</title>
<path fill="none" stroke="midnightblue" d="M750.89,-284.63C701.4,-276.01 590.15,-256.63 522.25,-244.8"/>
<polygon fill="midnightblue" stroke="midnightblue" points="522.6,-241.31 512.15,-243.04 521.4,-248.2 522.6,-241.31"/>
</g>
<!-- Node17 -->
<g id="node17" class="node">
<title>Node17</title>
<g id="a_node17"><a xlink:href="ladel__matmat_8h.html" target="_top" xlink:title="Routines to compute matrix matrix products. For now only &#160;and , with &#160;a diagonal matrix,...">
<polygon fill="white" stroke="black" points="808,-168.5 808,-187.5 902,-187.5 902,-168.5 808,-168.5"/>
<text text-anchor="middle" x="855" y="-175.5" font-family="Helvetica,sans-Serif" font-size="10.00">ladel_matmat.h</text>
</a>
</g>
</g>
<!-- Node14&#45;&gt;Node17 -->
<g id="edge35" class="edge">
<title>Node14&#45;&gt;Node17</title>
<path fill="none" stroke="midnightblue" d="M782.2,-280.37C795.24,-262.22 825.7,-219.8 842.8,-195.99"/>
<polygon fill="midnightblue" stroke="midnightblue" points="845.84,-197.76 848.83,-187.59 840.15,-193.67 845.84,-197.76"/>
</g>
<!-- Node18 -->
<g id="node18" class="node">
<title>Node18</title>
<g id="a_node18"><a xlink:href="ladel__pattern_8h.html" target="_top" xlink:title="Routines to compute the pattern of the result of a backsolve.">
<polygon fill="white" stroke="black" points="920,-168.5 920,-187.5 1010,-187.5 1010,-168.5 920,-168.5"/>
<text text-anchor="middle" x="965" y="-175.5" font-family="Helvetica,sans-Serif" font-size="10.00">ladel_pattern.h</text>
</a>
</g>
</g>
<!-- Node14&#45;&gt;Node18 -->
<g id="edge37" class="edge">
<title>Node14&#45;&gt;Node18</title>
<path fill="none" stroke="midnightblue" d="M790.83,-280.37C823.54,-261.33 902.09,-215.62 941.55,-192.65"/>
<polygon fill="midnightblue" stroke="midnightblue" points="943.36,-195.65 950.24,-187.59 939.84,-189.6 943.36,-195.65"/>
</g>
<!-- Node19 -->
<g id="node19" class="node">
<title>Node19</title>
<g id="a_node19"><a xlink:href="ladel__postorder_8h.html" target="_top" xlink:title="Routine to compute the postordering of the elimination tree.">
<polygon fill="white" stroke="black" points="929.5,-112.5 929.5,-131.5 1030.5,-131.5 1030.5,-112.5 929.5,-112.5"/>
<text text-anchor="middle" x="980" y="-119.5" font-family="Helvetica,sans-Serif" font-size="10.00">ladel_postorder.h</text>
</a>
</g>
</g>
<!-- Node14&#45;&gt;Node19 -->
<g id="edge40" class="edge">
<title>Node14&#45;&gt;Node19</title>
<path fill="none" stroke="midnightblue" d="M801.2,-287.27C852.67,-282.22 969.17,-262.67 1019,-188 1030.09,-171.37 1014.3,-151.6 999.61,-138.26"/>
<polygon fill="midnightblue" stroke="midnightblue" points="1001.63,-135.38 991.75,-131.57 997.1,-140.72 1001.63,-135.38"/>
</g>
<!-- Node20 -->
<g id="node20" class="node">
<title>Node20</title>
<g id="a_node20"><a xlink:href="ladel__rank1__mod_8h.html" target="_top" xlink:title="Helper routines for the rank1_update function.">
<polygon fill="white" stroke="black" points="1066,-168.5 1066,-187.5 1176,-187.5 1176,-168.5 1066,-168.5"/>
<text text-anchor="middle" x="1121" y="-175.5" font-family="Helvetica,sans-Serif" font-size="10.00">ladel_rank1_mod.h</text>
</a>
</g>
</g>
<!-- Node14&#45;&gt;Node20 -->
<g id="edge42" class="edge">
<title>Node14&#45;&gt;Node20</title>
<path fill="none" stroke="midnightblue" d="M801.08,-289.69C851.41,-290.08 967.11,-285.91 1052,-244 1074.94,-232.67 1095.47,-211.13 1108.05,-195.95"/>
<polygon fill="midnightblue" stroke="midnightblue" points="1110.99,-197.88 1114.5,-187.88 1105.52,-193.51 1110.99,-197.88"/>
</g>
<!-- Node21 -->
<g id="node21" class="node">
<title>Node21</title>
<g id="a_node21"><a xlink:href="ladel__row__mod_8h.html" target="_top" xlink:title="Routines for the row add/delete updates to a factorization are defined in ladel_row_mod....">
<polygon fill="white" stroke="black" points="1089,-112.5 1089,-131.5 1189,-131.5 1189,-112.5 1089,-112.5"/>
<text text-anchor="middle" x="1139" y="-119.5" font-family="Helvetica,sans-Serif" font-size="10.00">ladel_row_mod.h</text>
</a>
</g>
</g>
<!-- Node14&#45;&gt;Node21 -->
<g id="edge44" class="edge">
<title>Node14&#45;&gt;Node21</title>
<path fill="none" stroke="midnightblue" d="M801,-288.13C853.68,-285.69 979.44,-276.63 1079,-244 1091.66,-239.85 1178.12,-199.41 1185,-188 1195.82,-170.05 1177.7,-150.57 1161.12,-137.66"/>
<polygon fill="midnightblue" stroke="midnightblue" points="1162.89,-134.62 1152.75,-131.56 1158.76,-140.28 1162.89,-134.62"/>
</g>
<!-- Node22 -->
<g id="node22" class="node">
<title>Node22</title>
<g id="a_node22"><a xlink:href="ladel__scale_8h.html" target="_top" xlink:title="Routines to scale the columns and rows of a matrix, or the whole matrix itself.">
<polygon fill="white" stroke="black" points="1232,-168.5 1232,-187.5 1312,-187.5 1312,-168.5 1232,-168.5"/>
<text text-anchor="middle" x="1272" y="-175.5" font-family="Helvetica,sans-Serif" font-size="10.00">ladel_scale.h</text>
</a>
</g>
</g>
<!-- Node14&#45;&gt;Node22 -->
<g id="edge46" class="edge">
<title>Node14&#45;&gt;Node22</title>
<path fill="none" stroke="midnightblue" d="M801.26,-288.33C859.8,-286.22 1008.84,-277.7 1128,-244 1139.89,-240.64 1206.41,-209.79 1244.75,-191.83"/>
<polygon fill="midnightblue" stroke="midnightblue" points="1246.27,-194.98 1253.84,-187.56 1243.3,-188.64 1246.27,-194.98"/>
</g>
<!-- Node23 -->
<g id="node23" class="node">
<title>Node23</title>
<g id="a_node23"><a xlink:href="ladel__transpose_8h.html" target="_top" xlink:title="Routine to compute the transpose of a matrix.">
<polygon fill="white" stroke="black" points="1246.5,-112.5 1246.5,-131.5 1349.5,-131.5 1349.5,-112.5 1246.5,-112.5"/>
<text text-anchor="middle" x="1298" y="-119.5" font-family="Helvetica,sans-Serif" font-size="10.00">ladel_transpose.h</text>
</a>
</g>
</g>
<!-- Node14&#45;&gt;Node23 -->
<g id="edge48" class="edge">
<title>Node14&#45;&gt;Node23</title>
<path fill="none" stroke="midnightblue" d="M801.09,-288.78C863.69,-287.65 1031.37,-281.11 1165,-244 1185.7,-238.25 1188.96,-231.74 1209,-224 1257.77,-205.15 1290.2,-230.25 1321,-188 1331.53,-173.56 1321.95,-153.85 1312.14,-139.94"/>
<polygon fill="midnightblue" stroke="midnightblue" points="1314.73,-137.56 1305.87,-131.74 1309.17,-141.81 1314.73,-137.56"/>
</g>
<!-- Node24 -->
<g id="node24" class="node">
<title>Node24</title>
<g id="a_node24"><a xlink:href="ladel__upper__diag_8h.html" target="_top" xlink:title="Routine to keep only the upper diagonal elements of a (symmetric) matrix.">
<polygon fill="white" stroke="black" points="181.5,-168.5 181.5,-187.5 290.5,-187.5 290.5,-168.5 181.5,-168.5"/>
<text text-anchor="middle" x="236" y="-175.5" font-family="Helvetica,sans-Serif" font-size="10.00">ladel_upper_diag.h</text>
</a>
</g>
</g>
<!-- Node14&#45;&gt;Node24 -->
<g id="edge51" class="edge">
<title>Node14&#45;&gt;Node24</title>
<path fill="none" stroke="midnightblue" d="M750.86,-287.9C669.94,-284.12 417.01,-270.44 340,-244 307.02,-232.68 273.68,-209.24 253.93,-193.82"/>
<polygon fill="midnightblue" stroke="midnightblue" points="256.1,-191.08 246.1,-187.57 251.73,-196.55 256.1,-191.08"/>
</g>
<!-- Node25 -->
<g id="node25" class="node">
<title>Node25</title>
<g id="a_node25"><a xlink:href="ladel__add_8h.html" target="_top" xlink:title="Routines to add matrices.">
<polygon fill="white" stroke="black" points="575.5,-112.5 575.5,-131.5 648.5,-131.5 648.5,-112.5 575.5,-112.5"/>
<text text-anchor="middle" x="612" y="-119.5" font-family="Helvetica,sans-Serif" font-size="10.00">ladel_add.h</text>
</a>
</g>
</g>
<!-- Node14&#45;&gt;Node25 -->
<g id="edge53" class="edge">
<title>Node14&#45;&gt;Node25</title>
<path fill="none" stroke="midnightblue" d="M750.88,-286.44C706.2,-281.3 615.82,-268.13 597,-244 573.66,-214.07 590.37,-166.71 602.48,-141.02"/>
<polygon fill="midnightblue" stroke="midnightblue" points="605.78,-142.25 607.11,-131.73 599.52,-139.12 605.78,-142.25"/>
</g>
<!-- Node26 -->
<g id="node26" class="node">
<title>Node26</title>
<g id="a_node26"><a xlink:href="ladel__submatrix_8h.html" target="_top" xlink:title="Routines to produce submatrices from a given submatrix. For now, only a selection of columns is suppo...">
<polygon fill="white" stroke="black" points="606,-224.5 606,-243.5 710,-243.5 710,-224.5 606,-224.5"/>
<text text-anchor="middle" x="658" y="-231.5" font-family="Helvetica,sans-Serif" font-size="10.00">ladel_submatrix.h</text>
</a>
</g>
</g>
<!-- Node14&#45;&gt;Node26 -->
<g id="edge55" class="edge">
<title>Node14&#45;&gt;Node26</title>
<path fill="none" stroke="midnightblue" d="M757.3,-280.44C738.06,-271.64 707.85,-257.81 685.8,-247.72"/>
<polygon fill="midnightblue" stroke="midnightblue" points="687.16,-244.5 676.61,-243.52 684.25,-250.86 687.16,-244.5"/>
</g>
<!-- Node15&#45;&gt;Node2 -->
<g id="edge24" class="edge">
<title>Node15&#45;&gt;Node2</title>
<path fill="none" stroke="midnightblue" d="M745.34,-168.37C765.41,-149.81 812.9,-105.91 838.3,-82.44"/>
<polygon fill="midnightblue" stroke="midnightblue" points="840.74,-84.95 845.71,-75.59 835.99,-79.81 840.74,-84.95"/>
</g>
<!-- Node16&#45;&gt;Node2 -->
<g id="edge34" class="edge">
<title>Node16&#45;&gt;Node2</title>
<path fill="none" stroke="midnightblue" d="M470.27,-224.46C482.09,-201.79 517.71,-139.9 567,-112 606.51,-89.63 732.11,-76.51 803.72,-70.67"/>
<polygon fill="midnightblue" stroke="midnightblue" points="804.18,-74.14 813.87,-69.86 803.63,-67.16 804.18,-74.14"/>
</g>
<!-- Node16&#45;&gt;Node6 -->
<g id="edge33" class="edge">
<title>Node16&#45;&gt;Node6</title>
<path fill="none" stroke="midnightblue" d="M454.91,-224.32C444.51,-216.18 428.74,-203.84 416.28,-194.09"/>
<polygon fill="midnightblue" stroke="midnightblue" points="418.32,-191.24 408.29,-187.83 414.01,-196.75 418.32,-191.24"/>
</g>
<!-- Node17&#45;&gt;Node2 -->
<g id="edge36" class="edge">
<title>Node17&#45;&gt;Node2</title>
<path fill="none" stroke="midnightblue" d="M855,-168.37C855,-150.62 855,-109.67 855,-85.6"/>
<polygon fill="midnightblue" stroke="midnightblue" points="858.5,-85.59 855,-75.59 851.5,-85.59 858.5,-85.59"/>
</g>
<!-- Node18&#45;&gt;Node2 -->
<g id="edge38" class="edge">
<title>Node18&#45;&gt;Node2</title>
<path fill="none" stroke="midnightblue" d="M956.37,-168.37C937.89,-149.89 894.29,-106.29 870.74,-82.74"/>
<polygon fill="midnightblue" stroke="midnightblue" points="873.14,-80.19 863.59,-75.59 868.19,-85.14 873.14,-80.19"/>
</g>
<!-- Node19&#45;&gt;Node2 -->
<g id="edge41" class="edge">
<title>Node19&#45;&gt;Node2</title>
<path fill="none" stroke="midnightblue" d="M960.19,-112.44C939.71,-103.6 907.52,-89.69 884.14,-79.59"/>
<polygon fill="midnightblue" stroke="midnightblue" points="885.28,-76.27 874.71,-75.52 882.51,-82.7 885.28,-76.27"/>
</g>
<!-- Node20&#45;&gt;Node2 -->
<g id="edge43" class="edge">
<title>Node20&#45;&gt;Node2</title>
<path fill="none" stroke="midnightblue" d="M1112.89,-168.4C1099.21,-154.41 1070.09,-126.81 1040,-112 997.4,-91.03 944.35,-79.42 905.99,-73.28"/>
<polygon fill="midnightblue" stroke="midnightblue" points="906.5,-69.81 896.08,-71.76 905.44,-76.73 906.5,-69.81"/>
</g>
<!-- Node21&#45;&gt;Node2 -->
<g id="edge45" class="edge">
<title>Node21&#45;&gt;Node2</title>
<path fill="none" stroke="midnightblue" d="M1094,-112.44C1042.87,-102.72 959.59,-86.89 906.06,-76.71"/>
<polygon fill="midnightblue" stroke="midnightblue" points="906.58,-73.24 896.1,-74.82 905.27,-80.12 906.58,-73.24"/>
</g>
<!-- Node22&#45;&gt;Node2 -->
<g id="edge47" class="edge">
<title>Node22&#45;&gt;Node2</title>
<path fill="none" stroke="midnightblue" d="M1265.31,-168.49C1253.46,-154.11 1227.28,-125.27 1198,-112 1147.12,-88.93 989.04,-75.63 906.44,-70.08"/>
<polygon fill="midnightblue" stroke="midnightblue" points="906.48,-66.57 896.27,-69.41 906.02,-73.56 906.48,-66.57"/>
</g>
<!-- Node23&#45;&gt;Node2 -->
<g id="edge49" class="edge">
<title>Node23&#45;&gt;Node2</title>
<path fill="none" stroke="midnightblue" d="M1246.49,-113.89C1241.59,-113.24 1236.7,-112.6 1232,-112 1115.62,-97.12 978.82,-81.18 906.26,-72.84"/>
<polygon fill="midnightblue" stroke="midnightblue" points="906.36,-69.33 896.03,-71.67 905.57,-76.29 906.36,-69.33"/>
</g>
<!-- Node24&#45;&gt;Node2 -->
<g id="edge52" class="edge">
<title>Node24&#45;&gt;Node2</title>
<path fill="none" stroke="midnightblue" d="M225.38,-168.07C210.59,-154.59 187.28,-128.84 203,-112 243.68,-68.41 657.15,-66.06 803.78,-66.62"/>
<polygon fill="midnightblue" stroke="midnightblue" points="803.85,-70.12 813.86,-66.66 803.88,-63.12 803.85,-70.12"/>
</g>
<!-- Node25&#45;&gt;Node2 -->
<g id="edge54" class="edge">
<title>Node25&#45;&gt;Node2</title>
<path fill="none" stroke="midnightblue" d="M648.64,-112.86C690.76,-103.5 760.06,-88.1 806.59,-77.76"/>
<polygon fill="midnightblue" stroke="midnightblue" points="807.45,-81.15 816.45,-75.57 805.93,-74.32 807.45,-81.15"/>
</g>
<!-- Node26&#45;&gt;Node2 -->
<g id="edge56" class="edge">
<title>Node26&#45;&gt;Node2</title>
<path fill="none" stroke="midnightblue" d="M651.94,-224.32C643.86,-211.59 631.52,-187.3 640,-168 654.81,-134.31 668.94,-130.08 701,-112 732.96,-93.97 772.81,-82.58 803.97,-75.77"/>
<polygon fill="midnightblue" stroke="midnightblue" points="804.69,-79.2 813.76,-73.72 803.25,-72.35 804.69,-79.2"/>
</g>
</g>
</svg>
