<?xml version="1.0" encoding="UTF-8" standalone="no"?>
<!DOCTYPE svg PUBLIC "-//W3C//DTD SVG 1.1//EN"
 "http://www.w3.org/Graphics/SVG/1.1/DTD/svg11.dtd">
<!-- Generated by graphviz version 2.43.0 (0)
 -->
<!-- Title: ladel_set_free Pages: 1 -->
<svg width="432pt" height="66pt"
 viewBox="0.00 0.00 432.00 66.00" xmlns="http://www.w3.org/2000/svg" xmlns:xlink="http://www.w3.org/1999/xlink">
<g id="graph0" class="graph" transform="scale(1 1) rotate(0) translate(4 62)">
<title>ladel_set_free</title>
<polygon fill="white" stroke="transparent" points="-4,4 -4,-62 428,-62 428,4 -4,4"/>
<!-- Node1 -->
<g id="node1" class="node">
<title>Node1</title>
<g id="a_node1"><a xlink:title="Free a set.">
<polygon fill="#bfbfbf" stroke="black" points="338,-19.5 338,-38.5 424,-38.5 424,-19.5 338,-19.5"/>
<text text-anchor="middle" x="381" y="-26.5" font-family="Helvetica,sans-Serif" font-size="10.00">ladel_set_free</text>
</a>
</g>
</g>
<!-- Node2 -->
<g id="node2" class="node">
<title>Node2</title>
<g id="a_node2"><a xlink:href="ladel__global_8c.html#a7c28f9d8aba3a477eb86d0e37084c504" target="_top" xlink:title="Allocate a set struct.">
<polygon fill="white" stroke="black" points="188,-38.5 188,-57.5 293,-57.5 293,-38.5 188,-38.5"/>
<text text-anchor="middle" x="240.5" y="-45.5" font-family="Helvetica,sans-Serif" font-size="10.00">ladel_set_allocate</text>
</a>
</g>
</g>
<!-- Node1&#45;&gt;Node2 -->
<g id="edge1" class="edge">
<title>Node1&#45;&gt;Node2</title>
<path fill="none" stroke="midnightblue" d="M327.6,-36.19C316.37,-37.73 304.52,-39.35 293.32,-40.89"/>
<polygon fill="midnightblue" stroke="midnightblue" points="328.26,-39.63 337.69,-34.8 327.31,-32.7 328.26,-39.63"/>
</g>
<!-- Node4 -->
<g id="node4" class="node">
<title>Node4</title>
<g id="a_node4"><a xlink:href="ladel__global_8c.html#a0c1ec6da7994389ca70fd3d89ff28619" target="_top" xlink:title="Free a LADEL workspace.">
<polygon fill="white" stroke="black" points="179,-0.5 179,-19.5 302,-19.5 302,-0.5 179,-0.5"/>
<text text-anchor="middle" x="240.5" y="-7.5" font-family="Helvetica,sans-Serif" font-size="10.00">ladel_workspace_free</text>
</a>
</g>
</g>
<!-- Node1&#45;&gt;Node4 -->
<g id="edge3" class="edge">
<title>Node1&#45;&gt;Node4</title>
<path fill="none" stroke="midnightblue" d="M327.72,-21.83C319.37,-20.68 310.68,-19.49 302.16,-18.32"/>
<polygon fill="midnightblue" stroke="midnightblue" points="327.31,-25.3 337.69,-23.2 328.26,-18.37 327.31,-25.3"/>
</g>
<!-- Node3 -->
<g id="node3" class="node">
<title>Node3</title>
<g id="a_node3"><a xlink:href="ladel__global_8c.html#a960504daceae6c5129487e2bd2573c94" target="_top" xlink:title="Allocate a LADEL workspace.">
<polygon fill="white" stroke="black" points="0,-19.5 0,-38.5 143,-38.5 143,-19.5 0,-19.5"/>
<text text-anchor="middle" x="71.5" y="-26.5" font-family="Helvetica,sans-Serif" font-size="10.00">ladel_workspace_allocate</text>
</a>
</g>
</g>
<!-- Node2&#45;&gt;Node3 -->
<g id="edge2" class="edge">
<title>Node2&#45;&gt;Node3</title>
<path fill="none" stroke="midnightblue" d="M177.47,-40.94C166.28,-39.67 154.53,-38.33 143.11,-37.03"/>
<polygon fill="midnightblue" stroke="midnightblue" points="177.24,-44.44 187.58,-42.09 178.04,-37.48 177.24,-44.44"/>
</g>
<!-- Node4&#45;&gt;Node3 -->
<g id="edge4" class="edge">
<title>Node4&#45;&gt;Node3</title>
<path fill="none" stroke="midnightblue" d="M168.57,-18.07C160.15,-19.03 151.56,-20.01 143.14,-20.96"/>
<polygon fill="midnightblue" stroke="midnightblue" points="169.2,-21.52 178.74,-16.91 168.41,-14.57 169.2,-21.52"/>
</g>
</g>
</svg>
