<?xml version="1.0" encoding="UTF-8" standalone="no"?>
<!DOCTYPE svg PUBLIC "-//W3C//DTD SVG 1.1//EN"
 "http://www.w3.org/Graphics/SVG/1.1/DTD/svg11.dtd">
<!-- Generated by graphviz version 2.43.0 (0)
 -->
<!-- Title: LADEL/include/ladel_matmat.h Pages: 1 -->
<svg width="346pt" height="162pt"
 viewBox="0.00 0.00 346.00 162.00" xmlns="http://www.w3.org/2000/svg" xmlns:xlink="http://www.w3.org/1999/xlink">
<g id="graph0" class="graph" transform="scale(1 1) rotate(0) translate(4 158)">
<title>LADEL/include/ladel_matmat.h</title>
<polygon fill="white" stroke="transparent" points="-4,4 -4,-158 342,-158 342,4 -4,4"/>
<!-- Node1 -->
<g id="node1" class="node">
<title>Node1</title>
<g id="a_node1"><a xlink:title="Routines to compute matrix matrix products. For now only &#160;and , with &#160;a diagonal matrix,...">
<polygon fill="#bfbfbf" stroke="black" points="133,-123.5 133,-153.5 246,-153.5 246,-123.5 133,-123.5"/>
<text text-anchor="start" x="141" y="-141.5" font-family="Helvetica,sans-Serif" font-size="10.00">LADEL/include/ladel</text>
<text text-anchor="middle" x="189.5" y="-130.5" font-family="Helvetica,sans-Serif" font-size="10.00">_matmat.h</text>
</a>
</g>
</g>
<!-- Node2 -->
<g id="node2" class="node">
<title>Node2</title>
<g id="a_node2"><a xlink:href="ladel_8h.html" target="_top" xlink:title="LADEL main include file.">
<polygon fill="white" stroke="black" points="52.5,-67.5 52.5,-86.5 174.5,-86.5 174.5,-67.5 52.5,-67.5"/>
<text text-anchor="middle" x="113.5" y="-74.5" font-family="Helvetica,sans-Serif" font-size="10.00">LADEL/include/ladel.h</text>
</a>
</g>
</g>
<!-- Node1&#45;&gt;Node2 -->
<g id="edge1" class="edge">
<title>Node1&#45;&gt;Node2</title>
<path fill="none" stroke="midnightblue" d="M163.56,-117.19C150.25,-106.77 134.75,-94.63 124.56,-86.66"/>
<polygon fill="midnightblue" stroke="midnightblue" points="161.46,-119.99 171.49,-123.4 165.77,-114.48 161.46,-119.99"/>
</g>
<!-- Node5 -->
<g id="node5" class="node">
<title>Node5</title>
<g id="a_node5"><a xlink:href="ladel__matmat_8c.html" target="_top" xlink:title=" ">
<polygon fill="white" stroke="black" points="193,-67.5 193,-86.5 338,-86.5 338,-67.5 193,-67.5"/>
<text text-anchor="middle" x="265.5" y="-74.5" font-family="Helvetica,sans-Serif" font-size="10.00">LADEL/src/ladel_matmat.c</text>
</a>
</g>
</g>
<!-- Node1&#45;&gt;Node5 -->
<g id="edge4" class="edge">
<title>Node1&#45;&gt;Node5</title>
<path fill="none" stroke="midnightblue" d="M215.44,-117.19C228.75,-106.77 244.25,-94.63 254.44,-86.66"/>
<polygon fill="midnightblue" stroke="midnightblue" points="213.23,-114.48 207.51,-123.4 217.54,-119.99 213.23,-114.48"/>
</g>
<!-- Node3 -->
<g id="node3" class="node">
<title>Node3</title>
<g id="a_node3"><a xlink:href="ladel_8c.html" target="_top" xlink:title=" ">
<polygon fill="white" stroke="black" points="0,-6 0,-25 101,-25 101,-6 0,-6"/>
<text text-anchor="middle" x="50.5" y="-13" font-family="Helvetica,sans-Serif" font-size="10.00">LADEL/src/ladel.c</text>
</a>
</g>
</g>
<!-- Node2&#45;&gt;Node3 -->
<g id="edge2" class="edge">
<title>Node2&#45;&gt;Node3</title>
<path fill="none" stroke="midnightblue" d="M96.9,-60.32C84.93,-49.02 69.23,-34.19 59.51,-25.01"/>
<polygon fill="midnightblue" stroke="midnightblue" points="94.8,-63.15 104.47,-67.48 99.61,-58.06 94.8,-63.15"/>
</g>
<!-- Node4 -->
<g id="node4" class="node">
<title>Node4</title>
<g id="a_node4"><a xlink:href="ladel__row__mod_8c.html" target="_top" xlink:title=" ">
<polygon fill="white" stroke="black" points="119.5,-0.5 119.5,-30.5 235.5,-30.5 235.5,-0.5 119.5,-0.5"/>
<text text-anchor="start" x="127.5" y="-18.5" font-family="Helvetica,sans-Serif" font-size="10.00">LADEL/src/ladel_row</text>
<text text-anchor="middle" x="177.5" y="-7.5" font-family="Helvetica,sans-Serif" font-size="10.00">_mod.c</text>
</a>
</g>
</g>
<!-- Node2&#45;&gt;Node4 -->
<g id="edge3" class="edge">
<title>Node2&#45;&gt;Node4</title>
<path fill="none" stroke="midnightblue" d="M130.02,-60.65C140.02,-51.35 152.68,-39.57 162.42,-30.52"/>
<polygon fill="midnightblue" stroke="midnightblue" points="127.61,-58.1 122.67,-67.48 132.38,-63.23 127.61,-58.1"/>
</g>
</g>
</svg>
