<?xml version="1.0" encoding="UTF-8" standalone="no"?>
<!DOCTYPE svg PUBLIC "-//W3C//DTD SVG 1.1//EN"
 "http://www.w3.org/Graphics/SVG/1.1/DTD/svg11.dtd">
<!-- Generated by graphviz version 2.43.0 (0)
 -->
<!-- Title: LADEL/src/ladel_pattern.c Pages: 1 -->
<svg width="334pt" height="252pt"
 viewBox="0.00 0.00 334.00 252.00" xmlns="http://www.w3.org/2000/svg" xmlns:xlink="http://www.w3.org/1999/xlink">
<g id="graph0" class="graph" transform="scale(1 1) rotate(0) translate(4 248)">
<title>LADEL/src/ladel_pattern.c</title>
<polygon fill="white" stroke="transparent" points="-4,4 -4,-248 330,-248 330,4 -4,4"/>
<!-- Node1 -->
<g id="node1" class="node">
<title>Node1</title>
<g id="a_node1"><a xlink:title=" ">
<polygon fill="#bfbfbf" stroke="black" points="0,-224.5 0,-243.5 141,-243.5 141,-224.5 0,-224.5"/>
<text text-anchor="middle" x="70.5" y="-231.5" font-family="Helvetica,sans-Serif" font-size="10.00">LADEL/src/ladel_pattern.c</text>
</a>
</g>
</g>
<!-- Node2 -->
<g id="node2" class="node">
<title>Node2</title>
<g id="a_node2"><a xlink:href="ladel__types_8h.html" target="_top" xlink:title="Structures and types used in LADEL routines.">
<polygon fill="white" stroke="black" points="108.5,-56.5 108.5,-75.5 190.5,-75.5 190.5,-56.5 108.5,-56.5"/>
<text text-anchor="middle" x="149.5" y="-63.5" font-family="Helvetica,sans-Serif" font-size="10.00">ladel_types.h</text>
</a>
</g>
</g>
<!-- Node1&#45;&gt;Node2 -->
<g id="edge1" class="edge">
<title>Node1&#45;&gt;Node2</title>
<path fill="none" stroke="midnightblue" d="M59.9,-224.23C36.1,-203.5 -17.36,-150.3 10.5,-112 30.41,-84.63 67.32,-73.57 98.1,-69.25"/>
<polygon fill="midnightblue" stroke="midnightblue" points="98.76,-72.69 108.27,-68.03 97.93,-65.74 98.76,-72.69"/>
</g>
<!-- Node5 -->
<g id="node5" class="node">
<title>Node5</title>
<g id="a_node5"><a xlink:href="ladel__constants_8h.html" target="_top" xlink:title="Constants and macros used in LADEL.">
<polygon fill="white" stroke="black" points="19.5,-112.5 19.5,-131.5 121.5,-131.5 121.5,-112.5 19.5,-112.5"/>
<text text-anchor="middle" x="70.5" y="-119.5" font-family="Helvetica,sans-Serif" font-size="10.00">ladel_constants.h</text>
</a>
</g>
</g>
<!-- Node1&#45;&gt;Node5 -->
<g id="edge4" class="edge">
<title>Node1&#45;&gt;Node5</title>
<path fill="none" stroke="midnightblue" d="M70.5,-224.37C70.5,-206.62 70.5,-165.67 70.5,-141.6"/>
<polygon fill="midnightblue" stroke="midnightblue" points="74,-141.59 70.5,-131.59 67,-141.59 74,-141.59"/>
</g>
<!-- Node6 -->
<g id="node6" class="node">
<title>Node6</title>
<g id="a_node6"><a xlink:href="ladel__global_8h.html" target="_top" xlink:title="Memory allocation routines.">
<polygon fill="white" stroke="black" points="107,-168.5 107,-187.5 192,-187.5 192,-168.5 107,-168.5"/>
<text text-anchor="middle" x="149.5" y="-175.5" font-family="Helvetica,sans-Serif" font-size="10.00">ladel_global.h</text>
</a>
</g>
</g>
<!-- Node1&#45;&gt;Node6 -->
<g id="edge5" class="edge">
<title>Node1&#45;&gt;Node6</title>
<path fill="none" stroke="midnightblue" d="M83.19,-224.32C95.4,-215.98 114.08,-203.21 128.5,-193.35"/>
<polygon fill="midnightblue" stroke="midnightblue" points="130.56,-196.19 136.84,-187.65 126.61,-190.41 130.56,-196.19"/>
</g>
<!-- Node3 -->
<g id="node3" class="node">
<title>Node3</title>
<g id="a_node3"><a xlink:title=" ">
<polygon fill="white" stroke="#bfbfbf" points="85,-0.5 85,-19.5 138,-19.5 138,-0.5 85,-0.5"/>
<text text-anchor="middle" x="111.5" y="-7.5" font-family="Helvetica,sans-Serif" font-size="10.00">stdint.h</text>
</a>
</g>
</g>
<!-- Node2&#45;&gt;Node3 -->
<g id="edge2" class="edge">
<title>Node2&#45;&gt;Node3</title>
<path fill="none" stroke="midnightblue" d="M143.23,-56.08C137.86,-48.46 129.98,-37.26 123.42,-27.94"/>
<polygon fill="midnightblue" stroke="midnightblue" points="126.28,-25.91 117.66,-19.75 120.55,-29.94 126.28,-25.91"/>
</g>
<!-- Node4 -->
<g id="node4" class="node">
<title>Node4</title>
<g id="a_node4"><a xlink:title=" ">
<polygon fill="white" stroke="#bfbfbf" points="156,-0.5 156,-19.5 221,-19.5 221,-0.5 156,-0.5"/>
<text text-anchor="middle" x="188.5" y="-7.5" font-family="Helvetica,sans-Serif" font-size="10.00">inttypes.h</text>
</a>
</g>
</g>
<!-- Node2&#45;&gt;Node4 -->
<g id="edge3" class="edge">
<title>Node2&#45;&gt;Node4</title>
<path fill="none" stroke="midnightblue" d="M155.94,-56.08C161.45,-48.46 169.53,-37.26 176.26,-27.94"/>
<polygon fill="midnightblue" stroke="midnightblue" points="179.16,-29.91 182.18,-19.75 173.49,-25.81 179.16,-29.91"/>
</g>
<!-- Node6&#45;&gt;Node2 -->
<g id="edge6" class="edge">
<title>Node6&#45;&gt;Node2</title>
<path fill="none" stroke="midnightblue" d="M149.5,-168.37C149.5,-150.62 149.5,-109.67 149.5,-85.6"/>
<polygon fill="midnightblue" stroke="midnightblue" points="153,-85.59 149.5,-75.59 146,-85.59 153,-85.59"/>
</g>
<!-- Node6&#45;&gt;Node5 -->
<g id="edge7" class="edge">
<title>Node6&#45;&gt;Node5</title>
<path fill="none" stroke="midnightblue" d="M136.81,-168.32C124.6,-159.98 105.92,-147.21 91.5,-137.35"/>
<polygon fill="midnightblue" stroke="midnightblue" points="93.39,-134.41 83.16,-131.65 89.44,-140.19 93.39,-134.41"/>
</g>
<!-- Node7 -->
<g id="node7" class="node">
<title>Node7</title>
<g id="a_node7"><a xlink:href="ladel__copy_8h.html" target="_top" xlink:title="Routines to copy matrices and vectors.">
<polygon fill="white" stroke="black" points="178,-112.5 178,-131.5 255,-131.5 255,-112.5 178,-112.5"/>
<text text-anchor="middle" x="216.5" y="-119.5" font-family="Helvetica,sans-Serif" font-size="10.00">ladel_copy.h</text>
</a>
</g>
</g>
<!-- Node6&#45;&gt;Node7 -->
<g id="edge8" class="edge">
<title>Node6&#45;&gt;Node7</title>
<path fill="none" stroke="midnightblue" d="M160.26,-168.32C170.27,-160.26 185.39,-148.08 197.43,-138.37"/>
<polygon fill="midnightblue" stroke="midnightblue" points="199.95,-140.83 205.54,-131.83 195.56,-135.38 199.95,-140.83"/>
</g>
<!-- Node8 -->
<g id="node8" class="node">
<title>Node8</title>
<g id="a_node8"><a xlink:title=" ">
<polygon fill="white" stroke="#bfbfbf" points="273,-112.5 273,-131.5 326,-131.5 326,-112.5 273,-112.5"/>
<text text-anchor="middle" x="299.5" y="-119.5" font-family="Helvetica,sans-Serif" font-size="10.00">stdlib.h</text>
</a>
</g>
</g>
<!-- Node6&#45;&gt;Node8 -->
<g id="edge10" class="edge">
<title>Node6&#45;&gt;Node8</title>
<path fill="none" stroke="midnightblue" d="M173.27,-168.44C198.39,-159.4 238.21,-145.06 266.4,-134.92"/>
<polygon fill="midnightblue" stroke="midnightblue" points="267.62,-138.2 275.84,-131.52 265.25,-131.61 267.62,-138.2"/>
</g>
<!-- Node7&#45;&gt;Node2 -->
<g id="edge9" class="edge">
<title>Node7&#45;&gt;Node2</title>
<path fill="none" stroke="midnightblue" d="M205.74,-112.32C195.73,-104.26 180.61,-92.08 168.57,-82.37"/>
<polygon fill="midnightblue" stroke="midnightblue" points="170.44,-79.38 160.46,-75.83 166.05,-84.83 170.44,-79.38"/>
</g>
</g>
</svg>
