<?xml version="1.0" encoding="UTF-8" standalone="no"?>
<!DOCTYPE svg PUBLIC "-//W3C//DTD SVG 1.1//EN"
 "http://www.w3.org/Graphics/SVG/1.1/DTD/svg11.dtd">
<!-- Generated by graphviz version 2.43.0 (0)
 -->
<!-- Title: ladel_free Pages: 1 -->
<!--zoomable 832 -->
<svg id="main" version="1.1" xmlns="http://www.w3.org/2000/svg" xmlns:xlink="http://www.w3.org/1999/xlink" xml:space="preserve" onload="init(evt)">
<style type="text/css"><![CDATA[
.edge:hover path { stroke: red; }
.edge:hover polygon { stroke: red; fill: red; }
]]></style>
<script type="text/javascript"><![CDATA[
var edges = document.getElementsByTagName('g');
if (edges && edges.length) {
  for (var i=0;i<edges.length;i++) {
    if (edges[i].id.substr(0,4)=='edge') {
      edges[i].setAttribute('class','edge');
    }
  }
}
]]></script>
        <defs>
                <circle id="rim" cx="0" cy="0" r="7"/>
                <circle id="rim2" cx="0" cy="0" r="3.5"/>
                <g id="zoomPlus">
                        <use xlink:href="#rim" fill="#404040">
                                <set attributeName="fill" to="#808080" begin="zoomplus.mouseover" end="zoomplus.mouseout"/>
                        </use>
                        <path d="M-4,0h8M0,-4v8" fill="none" stroke="white" stroke-width="1.5" pointer-events="none"/>
                </g>
                <g id="zoomMin">
                        <use xlink:href="#rim" fill="#404040">
                                <set attributeName="fill" to="#808080" begin="zoomminus.mouseover" end="zoomminus.mouseout"/>
                        </use>
                        <path d="M-4,0h8" fill="none" stroke="white" stroke-width="1.5" pointer-events="none"/>
                </g>
                <g id="dirArrow">
                        <path fill="none" stroke="white" stroke-width="1.5" d="M0,-3.0v7 M-2.5,-0.5L0,-3.0L2.5,-0.5"/>
                </g>
               <g id="resetDef">
                       <use xlink:href="#rim2" fill="#404040">
                               <set attributeName="fill" to="#808080" begin="reset.mouseover" end="reset.mouseout"/>
                       </use>
               </g>
        </defs>

<script type="text/javascript">
var viewWidth = 1258;
var viewHeight = 832;
var sectionId = 'dynsection-6';
</script>
<script xlink:href="svgpan.js"/>
<svg id="graph" class="graph">
<g id="viewport">
<title>ladel_free</title>
<polygon fill="white" stroke="transparent" points="-4,4 -4,-828.33 1254,-828.33 1254,4 -4,4"/>
<!-- Node1 -->
<g id="node1" class="node">
<title>Node1</title>
<g id="a_node1"><a xlink:title="Version of free (for mex or for regular C).">
<polygon fill="#bfbfbf" stroke="black" points="1185,-413.5 1185,-432.5 1250,-432.5 1250,-413.5 1185,-413.5"/>
<text text-anchor="middle" x="1217.5" y="-420.5" font-family="Helvetica,sans-Serif" font-size="10.00">ladel_free</text>
</a>
</g>
</g>
<!-- Node2 -->
<g id="node2" class="node">
<title>Node2</title>
<g id="a_node2"><a xlink:href="ladel__global_8c.html#a2c4e8897e9da3b9463281d19e0971ed5" target="_top" xlink:title="Free a factor.">
<polygon fill="white" stroke="black" points="881.5,-356.5 881.5,-375.5 980.5,-375.5 980.5,-356.5 881.5,-356.5"/>
<text text-anchor="middle" x="931" y="-363.5" font-family="Helvetica,sans-Serif" font-size="10.00">ladel_factor_free</text>
</a>
</g>
</g>
<!-- Node1&#45;&gt;Node2 -->
<g id="edge1" class="edge">
<title>Node1&#45;&gt;Node2</title>
<path fill="none" stroke="midnightblue" d="M1175.09,-414.7C1123.12,-404.29 1034.19,-386.47 979.51,-375.52"/>
<polygon fill="midnightblue" stroke="midnightblue" points="1174.47,-418.15 1184.97,-416.68 1175.85,-411.29 1174.47,-418.15"/>
</g>
<!-- Node8 -->
<g id="node8" class="node">
<title>Node8</title>
<g id="a_node8"><a xlink:href="ladel__ldl__symbolic_8c.html#a919feee5783ed6d5ffaff8dff6546976" target="_top" xlink:title="Symbolic part of the factorization.">
<polygon fill="white" stroke="black" points="360,-653.5 360,-672.5 467,-672.5 467,-653.5 360,-653.5"/>
<text text-anchor="middle" x="413.5" y="-660.5" font-family="Helvetica,sans-Serif" font-size="10.00">ladel_ldl_symbolic</text>
</a>
</g>
</g>
<!-- Node1&#45;&gt;Node8 -->
<g id="edge7" class="edge">
<title>Node1&#45;&gt;Node8</title>
<path fill="none" stroke="midnightblue" d="M1214.91,-442.7C1209.59,-503.69 1190.35,-687.76 1149,-728 1000.89,-872.15 892.38,-819.69 688,-789 605.7,-776.64 583.16,-771.78 509,-734 475.36,-716.86 441.26,-687.68 424.74,-672.62"/>
<polygon fill="midnightblue" stroke="midnightblue" points="1218.42,-442.77 1215.77,-432.51 1211.44,-442.18 1218.42,-442.77"/>
</g>
<!-- Node9 -->
<g id="node9" class="node">
<title>Node9</title>
<g id="a_node9"><a xlink:href="ladel__global_8c.html#adf80852f1363f544a2bebaadaebcaed4" target="_top" xlink:title="Free a set.">
<polygon fill="white" stroke="black" points="1046,-76.5 1046,-95.5 1132,-95.5 1132,-76.5 1046,-76.5"/>
<text text-anchor="middle" x="1089" y="-83.5" font-family="Helvetica,sans-Serif" font-size="10.00">ladel_set_free</text>
</a>
</g>
</g>
<!-- Node1&#45;&gt;Node9 -->
<g id="edge10" class="edge">
<title>Node1&#45;&gt;Node9</title>
<path fill="none" stroke="midnightblue" d="M1209.28,-403.77C1185.64,-340.79 1111.08,-142.16 1093.66,-95.76"/>
<polygon fill="midnightblue" stroke="midnightblue" points="1206.06,-405.15 1212.85,-413.28 1212.61,-402.69 1206.06,-405.15"/>
</g>
<!-- Node12 -->
<g id="node12" class="node">
<title>Node12</title>
<g id="a_node12"><a xlink:href="ladel__global_8c.html#a0c1ec6da7994389ca70fd3d89ff28619" target="_top" xlink:title="Free a LADEL workspace.">
<polygon fill="white" stroke="black" points="869.5,-38.5 869.5,-57.5 992.5,-57.5 992.5,-38.5 869.5,-38.5"/>
<text text-anchor="middle" x="931" y="-45.5" font-family="Helvetica,sans-Serif" font-size="10.00">ladel_workspace_free</text>
</a>
</g>
</g>
<!-- Node1&#45;&gt;Node12 -->
<g id="edge53" class="edge">
<title>Node1&#45;&gt;Node12</title>
<path fill="none" stroke="midnightblue" d="M1215.76,-402.98C1212.8,-334.69 1199.38,-112.58 1149,-67 1101.18,-23.74 1020.8,-29.68 972.45,-38.47"/>
<polygon fill="midnightblue" stroke="midnightblue" points="1212.27,-403.38 1216.18,-413.23 1219.27,-403.09 1212.27,-403.38"/>
</g>
<!-- Node13 -->
<g id="node13" class="node">
<title>Node13</title>
<g id="a_node13"><a xlink:href="ladel__copy_8c.html#a97ad68065f3cb0241e4a6427e2e196a7" target="_top" xlink:title="Copies a matrix (preallocated)">
<polygon fill="white" stroke="black" points="877.5,-710.5 877.5,-729.5 984.5,-729.5 984.5,-710.5 877.5,-710.5"/>
<text text-anchor="middle" x="931" y="-717.5" font-family="Helvetica,sans-Serif" font-size="10.00">ladel_sparse_copy</text>
</a>
</g>
</g>
<!-- Node1&#45;&gt;Node13 -->
<g id="edge15" class="edge">
<title>Node1&#45;&gt;Node13</title>
<path fill="none" stroke="midnightblue" d="M1214.48,-442.98C1208.29,-500.11 1187.57,-662.22 1149,-696 1104.09,-735.33 1032.3,-735.35 983.71,-729.54"/>
<polygon fill="midnightblue" stroke="midnightblue" points="1217.99,-443.05 1215.56,-432.74 1211.03,-442.32 1217.99,-443.05"/>
</g>
<!-- Node19 -->
<g id="node19" class="node">
<title>Node19</title>
<g id="a_node19"><a xlink:href="ladel__global_8c.html#afaa07a7aa3c8517d3853968448b398a0" target="_top" xlink:title="Free a sparse matrix (and return NULL).">
<polygon fill="white" stroke="black" points="1037.5,-432.5 1037.5,-451.5 1140.5,-451.5 1140.5,-432.5 1037.5,-432.5"/>
<text text-anchor="middle" x="1089" y="-439.5" font-family="Helvetica,sans-Serif" font-size="10.00">ladel_sparse_free</text>
</a>
</g>
</g>
<!-- Node1&#45;&gt;Node19 -->
<g id="edge23" class="edge">
<title>Node1&#45;&gt;Node19</title>
<path fill="none" stroke="midnightblue" d="M1174.83,-429.26C1163.97,-430.89 1152.14,-432.67 1140.86,-434.36"/>
<polygon fill="midnightblue" stroke="midnightblue" points="1175.54,-432.69 1184.91,-427.75 1174.5,-425.77 1175.54,-432.69"/>
</g>
<!-- Node30 -->
<g id="node30" class="node">
<title>Node30</title>
<g id="a_node30"><a xlink:href="ladel__transpose_8c.html#a8b00613708b897c9dbcd292dc9b89ed8" target="_top" xlink:title="Returns the transpose of a matrix, that is .">
<polygon fill="white" stroke="black" points="713.5,-584.5 713.5,-603.5 807.5,-603.5 807.5,-584.5 713.5,-584.5"/>
<text text-anchor="middle" x="760.5" y="-591.5" font-family="Helvetica,sans-Serif" font-size="10.00">ladel_transpose</text>
</a>
</g>
</g>
<!-- Node1&#45;&gt;Node30 -->
<g id="edge52" class="edge">
<title>Node1&#45;&gt;Node30</title>
<path fill="none" stroke="midnightblue" d="M1196.09,-438.78C1158.3,-467.14 1073.9,-526.49 993,-556 931.21,-578.54 855.24,-587.76 807.59,-591.5"/>
<polygon fill="midnightblue" stroke="midnightblue" points="1198.4,-441.42 1204.25,-432.59 1194.17,-435.84 1198.4,-441.42"/>
</g>
<!-- Node32 -->
<g id="node32" class="node">
<title>Node32</title>
<g id="a_node32"><a xlink:href="ladel__global_8c.html#a3afc380b3f7bf00640c0bc66590b5702" target="_top" xlink:title="Free a symbolics struct (and return NULL).">
<polygon fill="white" stroke="black" points="1029,-0.5 1029,-19.5 1149,-19.5 1149,-0.5 1029,-0.5"/>
<text text-anchor="middle" x="1089" y="-7.5" font-family="Helvetica,sans-Serif" font-size="10.00">ladel_symbolics_free</text>
</a>
</g>
</g>
<!-- Node1&#45;&gt;Node32 -->
<g id="edge50" class="edge">
<title>Node1&#45;&gt;Node32</title>
<path fill="none" stroke="midnightblue" d="M1215.55,-403.09C1211.77,-332.03 1195.74,-92.02 1149,-34 1143.94,-27.71 1136.96,-23.06 1129.58,-19.62"/>
<polygon fill="midnightblue" stroke="midnightblue" points="1212.06,-403.52 1216.07,-413.33 1219.05,-403.16 1212.06,-403.52"/>
</g>
<!-- Node3 -->
<g id="node3" class="node">
<title>Node3</title>
<g id="a_node3"><a xlink:href="ladel__global_8c.html#a968028b68306172d3fb202fb434624a6" target="_top" xlink:title="Allocate a factors struct.">
<polygon fill="white" stroke="black" points="354,-262.5 354,-281.5 473,-281.5 473,-262.5 354,-262.5"/>
<text text-anchor="middle" x="413.5" y="-269.5" font-family="Helvetica,sans-Serif" font-size="10.00">ladel_factor_allocate</text>
</a>
</g>
</g>
<!-- Node2&#45;&gt;Node3 -->
<g id="edge2" class="edge">
<title>Node2&#45;&gt;Node3</title>
<path fill="none" stroke="midnightblue" d="M919.98,-347.15C904.85,-320.62 873.56,-272.73 833,-248 762.74,-205.16 733.83,-217.72 652,-209 588.8,-202.27 569.83,-190.58 509,-209 474.28,-219.51 440.65,-247.46 424.48,-262.35"/>
<polygon fill="midnightblue" stroke="midnightblue" points="917.08,-349.13 924.98,-356.19 923.2,-345.74 917.08,-349.13"/>
</g>
<!-- Node4 -->
<g id="node4" class="node">
<title>Node4</title>
<g id="a_node4"><a xlink:href="group__grp-solver.html#gaff676fbf1dd6dbf8096c5349d264297f" target="_top" xlink:title="Computes the &#160;factorization of &#160;but allocates based on Mbasis.">
<polygon fill="white" stroke="black" points="177,-648 177,-678 318,-678 318,-648 177,-648"/>
<text text-anchor="start" x="185" y="-666" font-family="Helvetica,sans-Serif" font-size="10.00">ladel_factorize_advanced</text>
<text text-anchor="middle" x="247.5" y="-655" font-family="Helvetica,sans-Serif" font-size="10.00">_with_diag</text>
</a>
</g>
</g>
<!-- Node3&#45;&gt;Node4 -->
<g id="edge3" class="edge">
<title>Node3&#45;&gt;Node4</title>
<path fill="none" stroke="midnightblue" d="M404.48,-291.11C376.07,-358.85 280.51,-586.69 254.87,-647.81"/>
<polygon fill="midnightblue" stroke="midnightblue" points="407.81,-292.24 408.45,-281.67 401.35,-289.53 407.81,-292.24"/>
</g>
<!-- Node6 -->
<g id="node6" class="node">
<title>Node6</title>
<g id="a_node6"><a xlink:href="group__grp-solver.html#ga129ea878837012c6ac76fb6046bc9449" target="_top" xlink:title="Computes the &#160;factorization of .">
<polygon fill="white" stroke="black" points="177,-221.5 177,-240.5 318,-240.5 318,-221.5 177,-221.5"/>
<text text-anchor="middle" x="247.5" y="-228.5" font-family="Helvetica,sans-Serif" font-size="10.00">ladel_factorize_with_diag</text>
</a>
</g>
</g>
<!-- Node3&#45;&gt;Node6 -->
<g id="edge5" class="edge">
<title>Node3&#45;&gt;Node6</title>
<path fill="none" stroke="midnightblue" d="M364.52,-260.01C339.71,-253.8 309.83,-246.33 286.61,-240.53"/>
<polygon fill="midnightblue" stroke="midnightblue" points="363.91,-263.46 374.46,-262.49 365.61,-256.67 363.91,-263.46"/>
</g>
<!-- Node5 -->
<g id="node5" class="node">
<title>Node5</title>
<g id="a_node5"><a xlink:href="group__grp-solver.html#gac217d5bb50524bf6bbc0e7fa473edcfb" target="_top" xlink:title="Computes the &#160;factorization of &#160;but allocates based on Mbasis.">
<polygon fill="white" stroke="black" points="0,-653.5 0,-672.5 141,-672.5 141,-653.5 0,-653.5"/>
<text text-anchor="middle" x="70.5" y="-660.5" font-family="Helvetica,sans-Serif" font-size="10.00">ladel_factorize_advanced</text>
</a>
</g>
</g>
<!-- Node4&#45;&gt;Node5 -->
<g id="edge4" class="edge">
<title>Node4&#45;&gt;Node5</title>
<path fill="none" stroke="midnightblue" d="M166.58,-663C158.11,-663 149.55,-663 141.21,-663"/>
<polygon fill="midnightblue" stroke="midnightblue" points="166.83,-666.5 176.83,-663 166.83,-659.5 166.83,-666.5"/>
</g>
<!-- Node7 -->
<g id="node7" class="node">
<title>Node7</title>
<g id="a_node7"><a xlink:href="group__grp-solver.html#ga6167c294e588fe34776d40e53c6ddbc9" target="_top" xlink:title="Computes the &#160;factorization of .">
<polygon fill="white" stroke="black" points="26,-221.5 26,-240.5 115,-240.5 115,-221.5 26,-221.5"/>
<text text-anchor="middle" x="70.5" y="-228.5" font-family="Helvetica,sans-Serif" font-size="10.00">ladel_factorize</text>
</a>
</g>
</g>
<!-- Node6&#45;&gt;Node7 -->
<g id="edge6" class="edge">
<title>Node6&#45;&gt;Node7</title>
<path fill="none" stroke="midnightblue" d="M166.51,-231C148.87,-231 130.82,-231 115.25,-231"/>
<polygon fill="midnightblue" stroke="midnightblue" points="166.83,-234.5 176.83,-231 166.83,-227.5 166.83,-234.5"/>
</g>
<!-- Node8&#45;&gt;Node4 -->
<g id="edge8" class="edge">
<title>Node8&#45;&gt;Node4</title>
<path fill="none" stroke="midnightblue" d="M349.61,-663C339.35,-663 328.67,-663 318.25,-663"/>
<polygon fill="midnightblue" stroke="midnightblue" points="349.71,-666.5 359.71,-663 349.71,-659.5 349.71,-666.5"/>
</g>
<!-- Node8&#45;&gt;Node6 -->
<g id="edge9" class="edge">
<title>Node8&#45;&gt;Node6</title>
<path fill="none" stroke="midnightblue" d="M404.34,-644.1C392.77,-617.15 371.11,-566.05 354,-522 311.38,-412.3 264.47,-277.33 251.8,-240.6"/>
<polygon fill="midnightblue" stroke="midnightblue" points="401.21,-645.68 408.38,-653.49 407.64,-642.92 401.21,-645.68"/>
</g>
<!-- Node10 -->
<g id="node10" class="node">
<title>Node10</title>
<g id="a_node10"><a xlink:href="ladel__global_8c.html#a7c28f9d8aba3a477eb86d0e37084c504" target="_top" xlink:title="Allocate a set struct.">
<polygon fill="white" stroke="black" points="878.5,-76.5 878.5,-95.5 983.5,-95.5 983.5,-76.5 878.5,-76.5"/>
<text text-anchor="middle" x="931" y="-83.5" font-family="Helvetica,sans-Serif" font-size="10.00">ladel_set_allocate</text>
</a>
</g>
</g>
<!-- Node9&#45;&gt;Node10 -->
<g id="edge11" class="edge">
<title>Node9&#45;&gt;Node10</title>
<path fill="none" stroke="midnightblue" d="M1035.63,-86C1018.9,-86 1000.4,-86 983.71,-86"/>
<polygon fill="midnightblue" stroke="midnightblue" points="1035.78,-89.5 1045.78,-86 1035.78,-82.5 1035.78,-89.5"/>
</g>
<!-- Node9&#45;&gt;Node12 -->
<g id="edge13" class="edge">
<title>Node9&#45;&gt;Node12</title>
<path fill="none" stroke="midnightblue" d="M1038.87,-74.03C1017.01,-68.71 991.62,-62.52 971.08,-57.52"/>
<polygon fill="midnightblue" stroke="midnightblue" points="1038.09,-77.44 1048.63,-76.41 1039.75,-70.64 1038.09,-77.44"/>
</g>
<!-- Node11 -->
<g id="node11" class="node">
<title>Node11</title>
<g id="a_node11"><a xlink:href="ladel__global_8c.html#a960504daceae6c5129487e2bd2573c94" target="_top" xlink:title="Allocate a LADEL workspace.">
<polygon fill="white" stroke="black" points="689,-57.5 689,-76.5 832,-76.5 832,-57.5 689,-57.5"/>
<text text-anchor="middle" x="760.5" y="-64.5" font-family="Helvetica,sans-Serif" font-size="10.00">ladel_workspace_allocate</text>
</a>
</g>
</g>
<!-- Node10&#45;&gt;Node11 -->
<g id="edge12" class="edge">
<title>Node10&#45;&gt;Node11</title>
<path fill="none" stroke="midnightblue" d="M868,-79.01C856.34,-77.69 844.07,-76.31 832.16,-74.97"/>
<polygon fill="midnightblue" stroke="midnightblue" points="867.74,-82.5 878.07,-80.14 868.52,-75.55 867.74,-82.5"/>
</g>
<!-- Node12&#45;&gt;Node11 -->
<g id="edge14" class="edge">
<title>Node12&#45;&gt;Node11</title>
<path fill="none" stroke="midnightblue" d="M859.22,-55.98C850.3,-56.99 841.18,-58.01 832.27,-59.02"/>
<polygon fill="midnightblue" stroke="midnightblue" points="859.62,-59.46 869.17,-54.86 858.84,-52.5 859.62,-59.46"/>
</g>
<!-- Node14 -->
<g id="node14" class="node">
<title>Node14</title>
<g id="a_node14"><a xlink:href="ladel__permutation_8c.html#a6fbceb4b665cce4b4397d74516d284a3" target="_top" xlink:title="Compute .">
<polygon fill="white" stroke="black" points="688,-749 688,-779 833,-779 833,-749 688,-749"/>
<text text-anchor="start" x="696" y="-767" font-family="Helvetica,sans-Serif" font-size="10.00">ladel_permute_symmetric</text>
<text text-anchor="middle" x="760.5" y="-756" font-family="Helvetica,sans-Serif" font-size="10.00">_matrix</text>
</a>
</g>
</g>
<!-- Node13&#45;&gt;Node14 -->
<g id="edge16" class="edge">
<title>Node13&#45;&gt;Node14</title>
<path fill="none" stroke="midnightblue" d="M883.67,-732.1C863.74,-737.3 840.24,-743.44 819.19,-748.93"/>
<polygon fill="midnightblue" stroke="midnightblue" points="884.65,-735.46 893.44,-729.55 882.88,-728.69 884.65,-735.46"/>
</g>
<!-- Node17 -->
<g id="node17" class="node">
<title>Node17</title>
<g id="a_node17"><a xlink:href="ladel__copy_8c.html#a3a4d205bb1f55b7059ad6b82a18fb856" target="_top" xlink:title="Copies a matrix into a newly allocated one.">
<polygon fill="white" stroke="black" points="699.5,-623 699.5,-653 821.5,-653 821.5,-623 699.5,-623"/>
<text text-anchor="start" x="707.5" y="-641" font-family="Helvetica,sans-Serif" font-size="10.00">ladel_sparse_allocate</text>
<text text-anchor="middle" x="760.5" y="-630" font-family="Helvetica,sans-Serif" font-size="10.00">_and_copy</text>
</a>
</g>
</g>
<!-- Node13&#45;&gt;Node17 -->
<g id="edge21" class="edge">
<title>Node13&#45;&gt;Node17</title>
<path fill="none" stroke="midnightblue" d="M894.09,-706.7C885.77,-703.39 877.01,-699.72 869,-696 840.53,-682.78 809.05,-665.46 787.56,-653.2"/>
<polygon fill="midnightblue" stroke="midnightblue" points="893,-710.03 903.59,-710.4 895.54,-703.51 893,-710.03"/>
</g>
<!-- Node18 -->
<g id="node18" class="node">
<title>Node18</title>
<g id="a_node18"><a xlink:href="ladel__upper__diag_8c.html#a7a4946c49cace1648ec43ab05e35b8e6" target="_top" xlink:title="Return , that is the upper diagonal elements of M.">
<polygon fill="white" stroke="black" points="523,-672.5 523,-691.5 638,-691.5 638,-672.5 523,-672.5"/>
<text text-anchor="middle" x="580.5" y="-679.5" font-family="Helvetica,sans-Serif" font-size="10.00">ladel_to_upper_diag</text>
</a>
</g>
</g>
<!-- Node13&#45;&gt;Node18 -->
<g id="edge22" class="edge">
<title>Node13&#45;&gt;Node18</title>
<path fill="none" stroke="midnightblue" d="M866.97,-714.3C818.1,-709.75 748.69,-703 688,-696 671.79,-694.13 654.22,-691.9 638.11,-689.78"/>
<polygon fill="midnightblue" stroke="midnightblue" points="866.79,-717.8 877.07,-715.24 867.44,-710.83 866.79,-717.8"/>
</g>
<!-- Node14&#45;&gt;Node4 -->
<g id="edge17" class="edge">
<title>Node14&#45;&gt;Node4</title>
<path fill="none" stroke="midnightblue" d="M677.54,-757.25C628.39,-752.44 564.79,-744.88 509,-734 433.32,-719.24 347.34,-694.13 295.54,-678.07"/>
<polygon fill="midnightblue" stroke="midnightblue" points="677.51,-760.76 687.8,-758.23 678.18,-753.79 677.51,-760.76"/>
</g>
<!-- Node14&#45;&gt;Node8 -->
<g id="edge20" class="edge">
<title>Node14&#45;&gt;Node8</title>
<path fill="none" stroke="midnightblue" d="M679.11,-746.71C629.59,-735.34 565.06,-719.23 509,-701 483.44,-692.69 454.92,-680.85 435.96,-672.6"/>
<polygon fill="midnightblue" stroke="midnightblue" points="678.6,-750.19 689.13,-749 680.16,-743.36 678.6,-750.19"/>
</g>
<!-- Node15 -->
<g id="node15" class="node">
<title>Node15</title>
<g id="a_node15"><a xlink:href="group__grp-solver.html#gabb81f3223c3ab1794fd472276be8fba6" target="_top" xlink:title="Computes the &#160;factorization of &#160;provided LD was allocated before.">
<polygon fill="white" stroke="black" points="516.5,-482 516.5,-512 644.5,-512 644.5,-482 516.5,-482"/>
<text text-anchor="start" x="524.5" y="-500" font-family="Helvetica,sans-Serif" font-size="10.00">ladel_factorize_with</text>
<text text-anchor="middle" x="580.5" y="-489" font-family="Helvetica,sans-Serif" font-size="10.00">_prior_basis_with_diag</text>
</a>
</g>
</g>
<!-- Node14&#45;&gt;Node15 -->
<g id="edge18" class="edge">
<title>Node14&#45;&gt;Node15</title>
<path fill="none" stroke="midnightblue" d="M741.01,-741.12C725.54,-721.27 703.56,-691.34 688,-663 667.66,-625.96 674.5,-610.77 652,-575 636.74,-550.74 613.68,-526.9 598.13,-512.09"/>
<polygon fill="midnightblue" stroke="midnightblue" points="738.26,-743.29 747.2,-748.98 743.76,-738.96 738.26,-743.29"/>
</g>
<!-- Node16 -->
<g id="node16" class="node">
<title>Node16</title>
<g id="a_node16"><a xlink:href="group__grp-solver.html#ga90783633564102ca42816a7d23eca63b" target="_top" xlink:title="Computes the &#160;factorization of &#160;provided LD was allocated before.">
<polygon fill="white" stroke="black" points="356,-482 356,-512 471,-512 471,-482 356,-482"/>
<text text-anchor="start" x="364" y="-500" font-family="Helvetica,sans-Serif" font-size="10.00">ladel_factorize_with</text>
<text text-anchor="middle" x="413.5" y="-489" font-family="Helvetica,sans-Serif" font-size="10.00">_prior_basis</text>
</a>
</g>
</g>
<!-- Node15&#45;&gt;Node16 -->
<g id="edge19" class="edge">
<title>Node15&#45;&gt;Node16</title>
<path fill="none" stroke="midnightblue" d="M506,-497C494.32,-497 482.39,-497 471.18,-497"/>
<polygon fill="midnightblue" stroke="midnightblue" points="506.18,-500.5 516.18,-497 506.18,-493.5 506.18,-500.5"/>
</g>
<!-- Node19&#45;&gt;Node2 -->
<g id="edge26" class="edge">
<title>Node19&#45;&gt;Node2</title>
<path fill="none" stroke="midnightblue" d="M1062.99,-427.18C1044.09,-416.26 1017.33,-401.39 993,-390 981.87,-384.79 969.27,-379.7 958.43,-375.56"/>
<polygon fill="midnightblue" stroke="midnightblue" points="1061.45,-430.33 1071.85,-432.34 1064.97,-424.28 1061.45,-430.33"/>
</g>
<!-- Node19&#45;&gt;Node4 -->
<g id="edge27" class="edge">
<title>Node19&#45;&gt;Node4</title>
<path fill="none" stroke="midnightblue" d="M1087.64,-461.58C1085.58,-514.17 1072.62,-659.92 993,-739 940.14,-791.5 906.65,-777.76 833,-789 620.62,-821.41 554.29,-801.71 354,-724 323.23,-712.06 290.78,-692.02 270.13,-678.19"/>
<polygon fill="midnightblue" stroke="midnightblue" points="1091.14,-461.67 1087.94,-451.57 1084.14,-461.46 1091.14,-461.67"/>
</g>
<!-- Node19&#45;&gt;Node6 -->
<g id="edge28" class="edge">
<title>Node19&#45;&gt;Node6</title>
<path fill="none" stroke="midnightblue" d="M1075.3,-423.88C1041.88,-377.86 946.22,-256.66 833,-207 637.4,-121.2 559.9,-111.2 354,-168 316.16,-178.44 278.21,-206.42 259.86,-221.33"/>
<polygon fill="midnightblue" stroke="midnightblue" points="1072.64,-426.17 1081.31,-432.27 1078.33,-422.1 1072.64,-426.17"/>
</g>
<!-- Node19&#45;&gt;Node15 -->
<g id="edge29" class="edge">
<title>Node19&#45;&gt;Node15</title>
<path fill="none" stroke="midnightblue" d="M1038.25,-430.43C960.18,-414.78 805.67,-394.07 688,-443 669.03,-450.89 669.94,-461.98 652,-472 645.42,-475.67 638.21,-478.97 630.98,-481.86"/>
<polygon fill="midnightblue" stroke="midnightblue" points="1037.79,-433.9 1048.29,-432.5 1039.21,-427.05 1037.79,-433.9"/>
</g>
<!-- Node19&#45;&gt;Node18 -->
<g id="edge49" class="edge">
<title>Node19&#45;&gt;Node18</title>
<path fill="none" stroke="midnightblue" d="M1075.49,-460.04C1058.53,-483.74 1026.47,-525.88 993,-556 929.41,-613.22 913.86,-635.08 833,-663 768.84,-685.15 690.18,-687.44 638.09,-685.8"/>
<polygon fill="midnightblue" stroke="midnightblue" points="1078.51,-461.84 1081.42,-451.65 1072.79,-457.8 1078.51,-461.84"/>
</g>
<!-- Node20 -->
<g id="node20" class="node">
<title>Node20</title>
<g id="a_node20"><a xlink:href="ladel__col__counts_8c.html#aa7284697012b8c3de4cece3e31915488" target="_top" xlink:title="Computes the column counts of the factor.">
<polygon fill="white" stroke="black" points="531.5,-584.5 531.5,-603.5 629.5,-603.5 629.5,-584.5 531.5,-584.5"/>
<text text-anchor="middle" x="580.5" y="-591.5" font-family="Helvetica,sans-Serif" font-size="10.00">ladel_col_counts</text>
</a>
</g>
</g>
<!-- Node19&#45;&gt;Node20 -->
<g id="edge24" class="edge">
<title>Node19&#45;&gt;Node20</title>
<path fill="none" stroke="midnightblue" d="M1073.29,-459.45C1056.1,-478.58 1025.81,-508.6 993,-524 868.59,-582.4 823.43,-551.6 688,-575 668.94,-578.29 647.97,-582.01 629.73,-585.28"/>
<polygon fill="midnightblue" stroke="midnightblue" points="1076.07,-461.58 1080.02,-451.75 1070.8,-456.97 1076.07,-461.58"/>
</g>
<!-- Node21 -->
<g id="node21" class="node">
<title>Node21</title>
<g id="a_node21"><a xlink:href="ladel__global_8c.html#a6e485045ec098c0b5a9afe07875a1e59" target="_top" xlink:title="Allocate a sparse matrix.">
<polygon fill="white" stroke="black" points="877.5,-432.5 877.5,-451.5 984.5,-451.5 984.5,-432.5 877.5,-432.5"/>
<text text-anchor="middle" x="931" y="-439.5" font-family="Helvetica,sans-Serif" font-size="10.00">ladel_sparse_alloc</text>
</a>
</g>
</g>
<!-- Node19&#45;&gt;Node21 -->
<g id="edge30" class="edge">
<title>Node19&#45;&gt;Node21</title>
<path fill="none" stroke="midnightblue" d="M1027.25,-442C1013.15,-442 998.25,-442 984.54,-442"/>
<polygon fill="midnightblue" stroke="midnightblue" points="1027.35,-445.5 1037.35,-442 1027.35,-438.5 1027.35,-445.5"/>
</g>
<!-- Node31 -->
<g id="node31" class="node">
<title>Node31</title>
<g id="a_node31"><a xlink:href="ladel__global_8c.html#a938486f5d2d4aee4858a50c0c3767490" target="_top" xlink:title="Allocate a sparse empty matrix (used in special cases).">
<polygon fill="white" stroke="black" points="877.5,-484 877.5,-514 984.5,-514 984.5,-484 877.5,-484"/>
<text text-anchor="start" x="885.5" y="-502" font-family="Helvetica,sans-Serif" font-size="10.00">ladel_sparse_alloc</text>
<text text-anchor="middle" x="931" y="-491" font-family="Helvetica,sans-Serif" font-size="10.00">_empty</text>
</a>
</g>
</g>
<!-- Node19&#45;&gt;Node31 -->
<g id="edge47" class="edge">
<title>Node19&#45;&gt;Node31</title>
<path fill="none" stroke="midnightblue" d="M1052.28,-455.05C1028.72,-463.66 997.78,-474.96 973.18,-483.95"/>
<polygon fill="midnightblue" stroke="midnightblue" points="1053.7,-458.26 1061.89,-451.54 1051.3,-451.69 1053.7,-458.26"/>
</g>
<!-- Node20&#45;&gt;Node8 -->
<g id="edge25" class="edge">
<title>Node20&#45;&gt;Node8</title>
<path fill="none" stroke="midnightblue" d="M547.08,-607.56C514.68,-621.1 465.72,-641.58 437.25,-653.49"/>
<polygon fill="midnightblue" stroke="midnightblue" points="548.68,-610.68 556.56,-603.59 545.98,-604.22 548.68,-610.68"/>
</g>
<!-- Node21&#45;&gt;Node3 -->
<g id="edge35" class="edge">
<title>Node21&#45;&gt;Node3</title>
<path fill="none" stroke="midnightblue" d="M911.03,-425.92C898.53,-414.94 882.11,-399.75 869,-385 851.05,-364.8 856.34,-349.63 833,-336 707.75,-262.87 651.45,-324.28 509,-297 487.83,-292.95 464.41,-286.76 446.18,-281.56"/>
<polygon fill="midnightblue" stroke="midnightblue" points="908.76,-428.58 918.61,-432.49 913.34,-423.29 908.76,-428.58"/>
</g>
<!-- Node21&#45;&gt;Node4 -->
<g id="edge36" class="edge">
<title>Node21&#45;&gt;Node4</title>
<path fill="none" stroke="midnightblue" d="M882.26,-454C866.58,-457.89 849.06,-462.19 833,-466 768.7,-481.27 748.97,-473.5 688,-499 670.48,-506.33 669.08,-513.7 652,-522 618.67,-538.2 391.69,-614.96 293.55,-647.92"/>
<polygon fill="midnightblue" stroke="midnightblue" points="883.41,-457.32 892.27,-451.51 881.72,-450.53 883.41,-457.32"/>
</g>
<!-- Node21&#45;&gt;Node6 -->
<g id="edge37" class="edge">
<title>Node21&#45;&gt;Node6</title>
<path fill="none" stroke="midnightblue" d="M907.61,-426.22C894.54,-415.9 878.75,-401.34 869,-385 836.73,-330.94 878.5,-291.51 833,-248 673.78,-95.75 364.51,-189.4 273.98,-221.46"/>
<polygon fill="midnightblue" stroke="midnightblue" points="905.63,-429.12 915.71,-432.37 909.86,-423.54 905.63,-429.12"/>
</g>
<!-- Node21&#45;&gt;Node15 -->
<g id="edge38" class="edge">
<title>Node21&#45;&gt;Node15</title>
<path fill="none" stroke="midnightblue" d="M867.04,-445.06C817.93,-448.2 748.18,-454.36 688,-466 667.49,-469.97 645.23,-476.14 626.39,-481.94"/>
<polygon fill="midnightblue" stroke="midnightblue" points="867.43,-448.54 877.2,-444.43 867,-441.55 867.43,-448.54"/>
</g>
<!-- Node21&#45;&gt;Node17 -->
<g id="edge43" class="edge">
<title>Node21&#45;&gt;Node17</title>
<path fill="none" stroke="midnightblue" d="M892.57,-456.05C883.77,-460.88 875.18,-467.12 869,-475 829.89,-524.88 875.96,-566.4 833,-613 829.43,-616.87 825.24,-620.14 820.69,-622.9"/>
<polygon fill="midnightblue" stroke="midnightblue" points="894.31,-459.09 901.71,-451.5 891.2,-452.82 894.31,-459.09"/>
</g>
<!-- Node22 -->
<g id="node22" class="node">
<title>Node22</title>
<g id="a_node22"><a xlink:href="ladel__add_8c.html#a758b63f39a12a53be24928cfd71f0bfe" target="_top" xlink:title="Returns a sparse matrix &#160;if values==TRUE, or a pattern matrix that includes the patterns of A and B i...">
<polygon fill="white" stroke="black" points="704.5,-257 704.5,-287 816.5,-287 816.5,-257 704.5,-257"/>
<text text-anchor="start" x="712.5" y="-275" font-family="Helvetica,sans-Serif" font-size="10.00">ladel_add_matrices</text>
<text text-anchor="middle" x="760.5" y="-264" font-family="Helvetica,sans-Serif" font-size="10.00">_advanced</text>
</a>
</g>
</g>
<!-- Node21&#45;&gt;Node22 -->
<g id="edge31" class="edge">
<title>Node21&#45;&gt;Node22</title>
<path fill="none" stroke="midnightblue" d="M908.95,-426.05C896.11,-415.5 880.1,-400.74 869,-385 845.83,-352.14 861.6,-330.26 833,-302 826.87,-295.94 819.34,-291.04 811.49,-287.09"/>
<polygon fill="midnightblue" stroke="midnightblue" points="906.84,-428.85 916.84,-432.35 911.21,-423.38 906.84,-428.85"/>
</g>
<!-- Node25 -->
<g id="node25" class="node">
<title>Node25</title>
<g id="a_node25"><a xlink:href="ladel__submatrix_8c.html#a147c31941734d0ae3fcd28c800051322" target="_top" xlink:title="Returns a matrix that is a selection of columns of M, that is .">
<polygon fill="white" stroke="black" points="692,-508.5 692,-527.5 829,-527.5 829,-508.5 692,-508.5"/>
<text text-anchor="middle" x="760.5" y="-515.5" font-family="Helvetica,sans-Serif" font-size="10.00">ladel_column_submatrix</text>
</a>
</g>
</g>
<!-- Node21&#45;&gt;Node25 -->
<g id="edge34" class="edge">
<title>Node21&#45;&gt;Node25</title>
<path fill="none" stroke="midnightblue" d="M903.11,-456.56C875.67,-471.39 836.61,-492.44 833,-494 820.38,-499.45 806.08,-504.47 793.61,-508.49"/>
<polygon fill="midnightblue" stroke="midnightblue" points="905.12,-459.45 912.25,-451.61 901.79,-453.29 905.12,-459.45"/>
</g>
<!-- Node26 -->
<g id="node26" class="node">
<title>Node26</title>
<g id="a_node26"><a xlink:href="ladel__matmat_8c.html#aa0dc5e49d5b89cd8756da8d19c19fffa" target="_top" xlink:title="Core mat_mat_transpose function with all options (diag and value/pattern).">
<polygon fill="white" stroke="black" points="689,-345 689,-375 832,-375 832,-345 689,-345"/>
<text text-anchor="start" x="697" y="-363" font-family="Helvetica,sans-Serif" font-size="10.00">ladel_mat_mat_transpose</text>
<text text-anchor="middle" x="760.5" y="-352" font-family="Helvetica,sans-Serif" font-size="10.00">_advanced</text>
</a>
</g>
</g>
<!-- Node21&#45;&gt;Node26 -->
<g id="edge39" class="edge">
<title>Node21&#45;&gt;Node26</title>
<path fill="none" stroke="midnightblue" d="M901.16,-427.96C870.89,-413.24 823.48,-390.16 792.45,-375.06"/>
<polygon fill="midnightblue" stroke="midnightblue" points="899.82,-431.2 910.34,-432.43 902.88,-424.91 899.82,-431.2"/>
</g>
<!-- Node21&#45;&gt;Node30 -->
<g id="edge44" class="edge">
<title>Node21&#45;&gt;Node30</title>
<path fill="none" stroke="midnightblue" d="M896.42,-455.96C886.83,-461 876.86,-467.38 869,-475 846.13,-497.19 853.82,-512.88 833,-537 816.2,-556.47 792.03,-574.12 776.55,-584.46"/>
<polygon fill="midnightblue" stroke="midnightblue" points="898,-459.08 905.42,-451.53 894.91,-452.8 898,-459.08"/>
</g>
<!-- Node23 -->
<g id="node23" class="node">
<title>Node23</title>
<g id="a_node23"><a xlink:href="ladel__add_8c.html#a829807555e76a1861cd43a87d1d86efe" target="_top" xlink:title="Returns a sparse matrix .">
<polygon fill="white" stroke="black" points="524.5,-218.5 524.5,-237.5 636.5,-237.5 636.5,-218.5 524.5,-218.5"/>
<text text-anchor="middle" x="580.5" y="-225.5" font-family="Helvetica,sans-Serif" font-size="10.00">ladel_add_matrices</text>
</a>
</g>
</g>
<!-- Node22&#45;&gt;Node23 -->
<g id="edge32" class="edge">
<title>Node22&#45;&gt;Node23</title>
<path fill="none" stroke="midnightblue" d="M694.39,-255.91C669.47,-249.74 641.84,-242.92 620.16,-237.56"/>
<polygon fill="midnightblue" stroke="midnightblue" points="693.61,-259.32 704.16,-258.32 695.29,-252.52 693.61,-259.32"/>
</g>
<!-- Node24 -->
<g id="node24" class="node">
<title>Node24</title>
<g id="a_node24"><a xlink:href="ladel__add_8c.html#a1322dd7713c9d04b74ddc1927e94f28a" target="_top" xlink:title="Returns a pattern matrix whose pattern includes the patterns of A and B.">
<polygon fill="white" stroke="black" points="524.5,-257 524.5,-287 636.5,-287 636.5,-257 524.5,-257"/>
<text text-anchor="start" x="532.5" y="-275" font-family="Helvetica,sans-Serif" font-size="10.00">ladel_add_matrices</text>
<text text-anchor="middle" x="580.5" y="-264" font-family="Helvetica,sans-Serif" font-size="10.00">_pattern</text>
</a>
</g>
</g>
<!-- Node22&#45;&gt;Node24 -->
<g id="edge33" class="edge">
<title>Node22&#45;&gt;Node24</title>
<path fill="none" stroke="midnightblue" d="M694.12,-272C675.19,-272 654.73,-272 636.5,-272"/>
<polygon fill="midnightblue" stroke="midnightblue" points="694.16,-275.5 704.16,-272 694.16,-268.5 694.16,-275.5"/>
</g>
<!-- Node27 -->
<g id="node27" class="node">
<title>Node27</title>
<g id="a_node27"><a xlink:href="ladel__matmat_8c.html#aeb2ea434d4c66863f8814d3c5a6ce97a" target="_top" xlink:title="Computes .">
<polygon fill="white" stroke="black" points="522.5,-345 522.5,-375 638.5,-375 638.5,-345 522.5,-345"/>
<text text-anchor="start" x="530.5" y="-363" font-family="Helvetica,sans-Serif" font-size="10.00">ladel_mat_diag_mat</text>
<text text-anchor="middle" x="580.5" y="-352" font-family="Helvetica,sans-Serif" font-size="10.00">_transpose</text>
</a>
</g>
</g>
<!-- Node26&#45;&gt;Node27 -->
<g id="edge40" class="edge">
<title>Node26&#45;&gt;Node27</title>
<path fill="none" stroke="midnightblue" d="M678.63,-360C665.12,-360 651.35,-360 638.59,-360"/>
<polygon fill="midnightblue" stroke="midnightblue" points="678.89,-363.5 688.89,-360 678.89,-356.5 678.89,-363.5"/>
</g>
<!-- Node28 -->
<g id="node28" class="node">
<title>Node28</title>
<g id="a_node28"><a xlink:href="ladel__matmat_8c.html#a9d9a01b808baba381deeab28e25b41e0" target="_top" xlink:title="Computes .">
<polygon fill="white" stroke="black" points="509,-443.5 509,-462.5 652,-462.5 652,-443.5 509,-443.5"/>
<text text-anchor="middle" x="580.5" y="-450.5" font-family="Helvetica,sans-Serif" font-size="10.00">ladel_mat_mat_transpose</text>
</a>
</g>
</g>
<!-- Node26&#45;&gt;Node28 -->
<g id="edge41" class="edge">
<title>Node26&#45;&gt;Node28</title>
<path fill="none" stroke="midnightblue" d="M704.82,-379.6C698.91,-382.68 693.17,-386.14 688,-390 667.75,-405.11 673.22,-420.28 652,-434 646.04,-437.86 639.31,-440.93 632.44,-443.39"/>
<polygon fill="midnightblue" stroke="midnightblue" points="706.72,-382.56 714.2,-375.06 703.67,-376.26 706.72,-382.56"/>
</g>
<!-- Node29 -->
<g id="node29" class="node">
<title>Node29</title>
<g id="a_node29"><a xlink:href="ladel__matmat_8c.html#a0b1d696c23cec68f53fe76f6db607572" target="_top" xlink:title="Computes the pattern of .">
<polygon fill="white" stroke="black" points="509,-394 509,-424 652,-424 652,-394 509,-394"/>
<text text-anchor="start" x="517" y="-412" font-family="Helvetica,sans-Serif" font-size="10.00">ladel_mat_mat_transpose</text>
<text text-anchor="middle" x="580.5" y="-401" font-family="Helvetica,sans-Serif" font-size="10.00">_pattern</text>
</a>
</g>
</g>
<!-- Node26&#45;&gt;Node29 -->
<g id="edge42" class="edge">
<title>Node26&#45;&gt;Node29</title>
<path fill="none" stroke="midnightblue" d="M694.76,-377.82C675.54,-383.11 654.69,-388.85 636.18,-393.95"/>
<polygon fill="midnightblue" stroke="midnightblue" points="695.93,-381.13 704.64,-375.1 694.07,-374.38 695.93,-381.13"/>
</g>
<!-- Node30&#45;&gt;Node18 -->
<g id="edge46" class="edge">
<title>Node30&#45;&gt;Node18</title>
<path fill="none" stroke="midnightblue" d="M707.72,-606.51C700.97,-608.71 694.25,-611.21 688,-614 651.55,-630.3 613.1,-657.79 593.92,-672.32"/>
<polygon fill="midnightblue" stroke="midnightblue" points="709.02,-609.78 717.56,-603.5 706.97,-603.08 709.02,-609.78"/>
</g>
<!-- Node30&#45;&gt;Node20 -->
<g id="edge45" class="edge">
<title>Node30&#45;&gt;Node20</title>
<path fill="none" stroke="midnightblue" d="M703,-594C679.43,-594 652.35,-594 629.75,-594"/>
<polygon fill="midnightblue" stroke="midnightblue" points="703.2,-597.5 713.2,-594 703.2,-590.5 703.2,-597.5"/>
</g>
<!-- Node31&#45;&gt;Node25 -->
<g id="edge48" class="edge">
<title>Node31&#45;&gt;Node25</title>
<path fill="none" stroke="midnightblue" d="M866.94,-506.11C854.57,-507.51 841.55,-508.97 829.04,-510.38"/>
<polygon fill="midnightblue" stroke="midnightblue" points="867.6,-509.56 877.15,-504.96 866.82,-502.6 867.6,-509.56"/>
</g>
<!-- Node33 -->
<g id="node33" class="node">
<title>Node33</title>
<g id="a_node33"><a xlink:href="ladel__global_8c.html#a78d3509d86fdd40fdeb7aab29994251a" target="_top" xlink:title="Allocate a symbolics struct.">
<polygon fill="white" stroke="black" points="869,-0.5 869,-19.5 993,-19.5 993,-0.5 869,-0.5"/>
<text text-anchor="middle" x="931" y="-7.5" font-family="Helvetica,sans-Serif" font-size="10.00">ladel_symbolics_alloc</text>
</a>
</g>
</g>
<!-- Node32&#45;&gt;Node33 -->
<g id="edge51" class="edge">
<title>Node32&#45;&gt;Node33</title>
<path fill="none" stroke="midnightblue" d="M1018.38,-10C1009.94,-10 1001.37,-10 993.07,-10"/>
<polygon fill="midnightblue" stroke="midnightblue" points="1018.58,-13.5 1028.58,-10 1018.58,-6.5 1018.58,-13.5"/>
</g>
</g>
</svg>
        <g id="navigator" transform="translate(0 0)" fill="#404254">
                <rect fill="#f2f5e9" fill-opacity="0.5" stroke="#606060" stroke-width=".5" x="0" y="0" width="60" height="60"/>
                <use id="zoomplus" xlink:href="#zoomPlus" x="17" y="9" onmousedown="handleZoom(evt,'in')"/>
                <use id="zoomminus" xlink:href="#zoomMin" x="42" y="9" onmousedown="handleZoom(evt,'out')"/>
                <use id="reset" xlink:href="#resetDef" x="30" y="36" onmousedown="handleReset()"/>
                <g id="arrowUp" xlink:href="#dirArrow" transform="translate(30 24)" onmousedown="handlePan(0,-1)">
                  <use xlink:href="#rim" fill="#404040">
                        <set attributeName="fill" to="#808080" begin="arrowUp.mouseover" end="arrowUp.mouseout"/>
                  </use>
                  <path fill="none" stroke="white" stroke-width="1.5" d="M0,-3.0v7 M-2.5,-0.5L0,-3.0L2.5,-0.5"/>
                </g>
                <g id="arrowRight" xlink:href="#dirArrow" transform="rotate(90) translate(36 -43)" onmousedown="handlePan(1,0)">
                  <use xlink:href="#rim" fill="#404040">
                        <set attributeName="fill" to="#808080" begin="arrowRight.mouseover" end="arrowRight.mouseout"/>
                  </use>
                  <path fill="none" stroke="white" stroke-width="1.5" d="M0,-3.0v7 M-2.5,-0.5L0,-3.0L2.5,-0.5"/>
                </g>
                <g id="arrowDown" xlink:href="#dirArrow" transform="rotate(180) translate(-30 -48)" onmousedown="handlePan(0,1)">
                  <use xlink:href="#rim" fill="#404040">
                        <set attributeName="fill" to="#808080" begin="arrowDown.mouseover" end="arrowDown.mouseout"/>
                  </use>
                  <path fill="none" stroke="white" stroke-width="1.5" d="M0,-3.0v7 M-2.5,-0.5L0,-3.0L2.5,-0.5"/>
                </g>
                <g id="arrowLeft" xlink:href="#dirArrow" transform="rotate(270) translate(-36 17)" onmousedown="handlePan(-1,0)">
                  <use xlink:href="#rim" fill="#404040">
                        <set attributeName="fill" to="#808080" begin="arrowLeft.mouseover" end="arrowLeft.mouseout"/>
                  </use>
                  <path fill="none" stroke="white" stroke-width="1.5" d="M0,-3.0v7 M-2.5,-0.5L0,-3.0L2.5,-0.5"/>
                </g>
        </g>
        <svg viewBox="0 0 15 15" width="100%" height="30px" preserveAspectRatio="xMaxYMin meet">
         <g id="arrow_out" transform="scale(0.3 0.3)">
          <a xlink:href="ladel__global_8c_a946ae8034525eb6db42d4a166be57968_icgraph_org.svg" target="_base">
           <rect id="button" ry="5" rx="5" y="6" x="6" height="38" width="38"
                fill="#f2f5e9" fill-opacity="0.5" stroke="#606060" stroke-width="1.0"/>
           <path id="arrow"
             d="M 11.500037,31.436501 C 11.940474,20.09759 22.043105,11.32322 32.158766,21.979434 L 37.068811,17.246167 C 37.068811,17.246167 37.088388,32 37.088388,32 L 22.160133,31.978069 C 22.160133,31.978069 26.997745,27.140456 26.997745,27.140456 C 18.528582,18.264221 13.291696,25.230495 11.500037,31.436501 z"
             style="fill:#404040;"/>
          </a>
         </g>
        </svg>
</svg>
