<?xml version="1.0" encoding="UTF-8" standalone="no"?>
<!DOCTYPE svg PUBLIC "-//W3C//DTD SVG 1.1//EN"
 "http://www.w3.org/Graphics/SVG/1.1/DTD/svg11.dtd">
<!-- Generated by graphviz version 2.43.0 (0)
 -->
<!-- Title: LADEL/src/ladel_ldl_symbolic.c Pages: 1 -->
<!--zoomable 319 -->
<svg id="main" version="1.1" xmlns="http://www.w3.org/2000/svg" xmlns:xlink="http://www.w3.org/1999/xlink" xml:space="preserve" onload="init(evt)">
<style type="text/css"><![CDATA[
.edge:hover path { stroke: red; }
.edge:hover polygon { stroke: red; fill: red; }
]]></style>
<script type="text/javascript"><![CDATA[
var edges = document.getElementsByTagName('g');
if (edges && edges.length) {
  for (var i=0;i<edges.length;i++) {
    if (edges[i].id.substr(0,4)=='edge') {
      edges[i].setAttribute('class','edge');
    }
  }
}
]]></script>
        <defs>
                <circle id="rim" cx="0" cy="0" r="7"/>
                <circle id="rim2" cx="0" cy="0" r="3.5"/>
                <g id="zoomPlus">
                        <use xlink:href="#rim" fill="#404040">
                                <set attributeName="fill" to="#808080" begin="zoomplus.mouseover" end="zoomplus.mouseout"/>
                        </use>
                        <path d="M-4,0h8M0,-4v8" fill="none" stroke="white" stroke-width="1.5" pointer-events="none"/>
                </g>
                <g id="zoomMin">
                        <use xlink:href="#rim" fill="#404040">
                                <set attributeName="fill" to="#808080" begin="zoomminus.mouseover" end="zoomminus.mouseout"/>
                        </use>
                        <path d="M-4,0h8" fill="none" stroke="white" stroke-width="1.5" pointer-events="none"/>
                </g>
                <g id="dirArrow">
                        <path fill="none" stroke="white" stroke-width="1.5" d="M0,-3.0v7 M-2.5,-0.5L0,-3.0L2.5,-0.5"/>
                </g>
               <g id="resetDef">
                       <use xlink:href="#rim2" fill="#404040">
                               <set attributeName="fill" to="#808080" begin="reset.mouseover" end="reset.mouseout"/>
                       </use>
               </g>
        </defs>

<script type="text/javascript">
var viewWidth = 657;
var viewHeight = 319;
var sectionId = 'dynsection-0';
</script>
<script xlink:href="svgpan.js"/>
<svg id="graph" class="graph">
<g id="viewport">
<title>LADEL/src/ladel_ldl_symbolic.c</title>
<polygon fill="white" stroke="transparent" points="-4,4 -4,-315 652.5,-315 652.5,4 -4,4"/>
<!-- Node1 -->
<g id="node1" class="node">
<title>Node1</title>
<g id="a_node1"><a xlink:title=" ">
<polygon fill="#bfbfbf" stroke="black" points="286,-280.5 286,-310.5 396,-310.5 396,-280.5 286,-280.5"/>
<text text-anchor="start" x="294" y="-298.5" font-family="Helvetica,sans-Serif" font-size="10.00">LADEL/src/ladel_ldl</text>
<text text-anchor="middle" x="341" y="-287.5" font-family="Helvetica,sans-Serif" font-size="10.00">_symbolic.c</text>
</a>
</g>
</g>
<!-- Node2 -->
<g id="node2" class="node">
<title>Node2</title>
<g id="a_node2"><a xlink:href="ladel__types_8h.html" target="_top" xlink:title="Structures and types used in LADEL routines.">
<polygon fill="white" stroke="black" points="358,-56.5 358,-75.5 440,-75.5 440,-56.5 358,-56.5"/>
<text text-anchor="middle" x="399" y="-63.5" font-family="Helvetica,sans-Serif" font-size="10.00">ladel_types.h</text>
</a>
</g>
</g>
<!-- Node1&#45;&gt;Node2 -->
<g id="edge1" class="edge">
<title>Node1&#45;&gt;Node2</title>
<path fill="none" stroke="midnightblue" d="M396.11,-290.39C427.69,-284.87 464.93,-272.31 485,-244 523.78,-189.3 452.55,-114.44 417.2,-82.48"/>
<polygon fill="midnightblue" stroke="midnightblue" points="419.27,-79.64 409.46,-75.65 414.64,-84.89 419.27,-79.64"/>
</g>
<!-- Node5 -->
<g id="node5" class="node">
<title>Node5</title>
<g id="a_node5"><a xlink:href="ladel__constants_8h.html" target="_top" xlink:title="Constants and macros used in LADEL.">
<polygon fill="white" stroke="black" points="44,-112.5 44,-131.5 146,-131.5 146,-112.5 44,-112.5"/>
<text text-anchor="middle" x="95" y="-119.5" font-family="Helvetica,sans-Serif" font-size="10.00">ladel_constants.h</text>
</a>
</g>
</g>
<!-- Node1&#45;&gt;Node5 -->
<g id="edge4" class="edge">
<title>Node1&#45;&gt;Node5</title>
<path fill="none" stroke="midnightblue" d="M285.89,-285.99C253.32,-278.88 212.6,-266.19 182,-244 144.1,-216.51 116.3,-167.42 103.27,-141"/>
<polygon fill="midnightblue" stroke="midnightblue" points="106.34,-139.3 98.87,-131.79 100.02,-142.32 106.34,-139.3"/>
</g>
<!-- Node6 -->
<g id="node6" class="node">
<title>Node6</title>
<g id="a_node6"><a xlink:href="ladel__global_8h.html" target="_top" xlink:title="Memory allocation routines.">
<polygon fill="white" stroke="black" points="177.5,-168.5 177.5,-187.5 262.5,-187.5 262.5,-168.5 177.5,-168.5"/>
<text text-anchor="middle" x="220" y="-175.5" font-family="Helvetica,sans-Serif" font-size="10.00">ladel_global.h</text>
</a>
</g>
</g>
<!-- Node1&#45;&gt;Node6 -->
<g id="edge5" class="edge">
<title>Node1&#45;&gt;Node6</title>
<path fill="none" stroke="midnightblue" d="M285.93,-291.56C252.3,-286.58 211.72,-274.17 190,-244 178.95,-228.65 191.63,-208.59 203.74,-194.84"/>
<polygon fill="midnightblue" stroke="midnightblue" points="206.3,-197.23 210.62,-187.55 201.21,-192.42 206.3,-197.23"/>
</g>
<!-- Node9 -->
<g id="node9" class="node">
<title>Node9</title>
<g id="a_node9"><a xlink:href="ladel__permutation_8h.html" target="_top" xlink:title="Routines to permute vectors and matrices.">
<polygon fill="white" stroke="black" points="533.5,-168.5 533.5,-187.5 648.5,-187.5 648.5,-168.5 533.5,-168.5"/>
<text text-anchor="middle" x="591" y="-175.5" font-family="Helvetica,sans-Serif" font-size="10.00">ladel_permutation.h</text>
</a>
</g>
</g>
<!-- Node1&#45;&gt;Node9 -->
<g id="edge11" class="edge">
<title>Node1&#45;&gt;Node9</title>
<path fill="none" stroke="midnightblue" d="M396.07,-285.64C432.58,-278.18 480.63,-265.23 519,-244 541.91,-231.32 563.55,-210.07 577.01,-195.33"/>
<polygon fill="midnightblue" stroke="midnightblue" points="579.92,-197.32 583.94,-187.52 574.69,-192.68 579.92,-197.32"/>
</g>
<!-- Node10 -->
<g id="node10" class="node">
<title>Node10</title>
<g id="a_node10"><a xlink:href="ladel__etree_8h.html" target="_top" xlink:title="Routines to compute the elimination tree of a matrix.">
<polygon fill="white" stroke="black" points="0,-168.5 0,-187.5 80,-187.5 80,-168.5 0,-168.5"/>
<text text-anchor="middle" x="40" y="-175.5" font-family="Helvetica,sans-Serif" font-size="10.00">ladel_etree.h</text>
</a>
</g>
</g>
<!-- Node1&#45;&gt;Node10 -->
<g id="edge13" class="edge">
<title>Node1&#45;&gt;Node10</title>
<path fill="none" stroke="midnightblue" d="M285.75,-291.37C236.11,-286.59 162.56,-274.51 106,-244 83.99,-232.13 64.37,-210.7 52.36,-195.7"/>
<polygon fill="midnightblue" stroke="midnightblue" points="55.08,-193.51 46.2,-187.74 49.55,-197.79 55.08,-193.51"/>
</g>
<!-- Node11 -->
<g id="node11" class="node">
<title>Node11</title>
<g id="a_node11"><a xlink:href="ladel__postorder_8h.html" target="_top" xlink:title="Routine to compute the postordering of the elimination tree.">
<polygon fill="white" stroke="black" points="337.5,-168.5 337.5,-187.5 438.5,-187.5 438.5,-168.5 337.5,-168.5"/>
<text text-anchor="middle" x="388" y="-175.5" font-family="Helvetica,sans-Serif" font-size="10.00">ladel_postorder.h</text>
</a>
</g>
</g>
<!-- Node1&#45;&gt;Node11 -->
<g id="edge15" class="edge">
<title>Node1&#45;&gt;Node11</title>
<path fill="none" stroke="midnightblue" d="M343.55,-280.31C346.45,-265.78 351.87,-242.72 360,-224 364.26,-214.19 370.43,-204.01 375.89,-195.82"/>
<polygon fill="midnightblue" stroke="midnightblue" points="378.8,-197.76 381.62,-187.54 373.05,-193.77 378.8,-197.76"/>
</g>
<!-- Node12 -->
<g id="node12" class="node">
<title>Node12</title>
<g id="a_node12"><a xlink:href="ladel__col__counts_8h.html" target="_top" xlink:title="Computes the col counts needed for the symbolic factorization (after etree and postorder).">
<polygon fill="white" stroke="black" points="369.5,-224.5 369.5,-243.5 476.5,-243.5 476.5,-224.5 369.5,-224.5"/>
<text text-anchor="middle" x="423" y="-231.5" font-family="Helvetica,sans-Serif" font-size="10.00">ladel_col_counts.h</text>
</a>
</g>
</g>
<!-- Node1&#45;&gt;Node12 -->
<g id="edge17" class="edge">
<title>Node1&#45;&gt;Node12</title>
<path fill="none" stroke="midnightblue" d="M360.43,-280.4C373.21,-271.13 389.89,-259.03 402.81,-249.65"/>
<polygon fill="midnightblue" stroke="midnightblue" points="405.03,-252.36 411.07,-243.66 400.92,-246.7 405.03,-252.36"/>
</g>
<!-- Node13 -->
<g id="node13" class="node">
<title>Node13</title>
<g id="a_node13"><a xlink:href="ladel__debug__print_8h.html" target="_top" xlink:title="Routines to print out matrices and vectors.">
<polygon fill="white" stroke="black" points="199.5,-224.5 199.5,-243.5 312.5,-243.5 312.5,-224.5 199.5,-224.5"/>
<text text-anchor="middle" x="256" y="-231.5" font-family="Helvetica,sans-Serif" font-size="10.00">ladel_debug_print.h</text>
</a>
</g>
</g>
<!-- Node1&#45;&gt;Node13 -->
<g id="edge19" class="edge">
<title>Node1&#45;&gt;Node13</title>
<path fill="none" stroke="midnightblue" d="M320.86,-280.4C307.61,-271.13 290.32,-259.03 276.92,-249.65"/>
<polygon fill="midnightblue" stroke="midnightblue" points="278.57,-246.53 268.37,-243.66 274.55,-252.26 278.57,-246.53"/>
</g>
<!-- Node14 -->
<g id="node14" class="node">
<title>Node14</title>
<g id="a_node14"><a xlink:title=" ">
<polygon fill="white" stroke="#bfbfbf" points="571.5,-224.5 571.5,-243.5 618.5,-243.5 618.5,-224.5 571.5,-224.5"/>
<text text-anchor="middle" x="595" y="-231.5" font-family="Helvetica,sans-Serif" font-size="10.00">amd.h</text>
</a>
</g>
</g>
<!-- Node1&#45;&gt;Node14 -->
<g id="edge22" class="edge">
<title>Node1&#45;&gt;Node14</title>
<path fill="none" stroke="midnightblue" d="M396.05,-281.67C439.71,-271.49 502.27,-256.88 557,-244 558.44,-243.66 559.92,-243.31 561.41,-242.96"/>
<polygon fill="midnightblue" stroke="midnightblue" points="562.36,-246.33 571.29,-240.63 560.75,-239.52 562.36,-246.33"/>
</g>
<!-- Node3 -->
<g id="node3" class="node">
<title>Node3</title>
<g id="a_node3"><a xlink:title=" ">
<polygon fill="white" stroke="#bfbfbf" points="334.5,-0.5 334.5,-19.5 387.5,-19.5 387.5,-0.5 334.5,-0.5"/>
<text text-anchor="middle" x="361" y="-7.5" font-family="Helvetica,sans-Serif" font-size="10.00">stdint.h</text>
</a>
</g>
</g>
<!-- Node2&#45;&gt;Node3 -->
<g id="edge2" class="edge">
<title>Node2&#45;&gt;Node3</title>
<path fill="none" stroke="midnightblue" d="M392.73,-56.08C387.36,-48.46 379.48,-37.26 372.92,-27.94"/>
<polygon fill="midnightblue" stroke="midnightblue" points="375.78,-25.91 367.16,-19.75 370.05,-29.94 375.78,-25.91"/>
</g>
<!-- Node4 -->
<g id="node4" class="node">
<title>Node4</title>
<g id="a_node4"><a xlink:title=" ">
<polygon fill="white" stroke="#bfbfbf" points="405.5,-0.5 405.5,-19.5 470.5,-19.5 470.5,-0.5 405.5,-0.5"/>
<text text-anchor="middle" x="438" y="-7.5" font-family="Helvetica,sans-Serif" font-size="10.00">inttypes.h</text>
</a>
</g>
</g>
<!-- Node2&#45;&gt;Node4 -->
<g id="edge3" class="edge">
<title>Node2&#45;&gt;Node4</title>
<path fill="none" stroke="midnightblue" d="M405.44,-56.08C410.95,-48.46 419.03,-37.26 425.76,-27.94"/>
<polygon fill="midnightblue" stroke="midnightblue" points="428.66,-29.91 431.68,-19.75 422.99,-25.81 428.66,-29.91"/>
</g>
<!-- Node6&#45;&gt;Node2 -->
<g id="edge6" class="edge">
<title>Node6&#45;&gt;Node2</title>
<path fill="none" stroke="midnightblue" d="M227.26,-168.36C239.03,-154.8 263.54,-128.39 289,-112 311.12,-97.76 338.48,-86.55 360.39,-78.87"/>
<polygon fill="midnightblue" stroke="midnightblue" points="361.68,-82.13 370.03,-75.6 359.43,-75.5 361.68,-82.13"/>
</g>
<!-- Node6&#45;&gt;Node5 -->
<g id="edge7" class="edge">
<title>Node6&#45;&gt;Node5</title>
<path fill="none" stroke="midnightblue" d="M200.19,-168.44C179.71,-159.6 147.52,-145.69 124.14,-135.59"/>
<polygon fill="midnightblue" stroke="midnightblue" points="125.28,-132.27 114.71,-131.52 122.51,-138.7 125.28,-132.27"/>
</g>
<!-- Node7 -->
<g id="node7" class="node">
<title>Node7</title>
<g id="a_node7"><a xlink:href="ladel__copy_8h.html" target="_top" xlink:title="Routines to copy matrices and vectors.">
<polygon fill="white" stroke="black" points="164.5,-112.5 164.5,-131.5 241.5,-131.5 241.5,-112.5 164.5,-112.5"/>
<text text-anchor="middle" x="203" y="-119.5" font-family="Helvetica,sans-Serif" font-size="10.00">ladel_copy.h</text>
</a>
</g>
</g>
<!-- Node6&#45;&gt;Node7 -->
<g id="edge8" class="edge">
<title>Node6&#45;&gt;Node7</title>
<path fill="none" stroke="midnightblue" d="M217.19,-168.08C214.92,-160.85 211.63,-150.41 208.79,-141.4"/>
<polygon fill="midnightblue" stroke="midnightblue" points="212.1,-140.24 205.75,-131.75 205.42,-142.34 212.1,-140.24"/>
</g>
<!-- Node8 -->
<g id="node8" class="node">
<title>Node8</title>
<g id="a_node8"><a xlink:title=" ">
<polygon fill="white" stroke="#bfbfbf" points="298.5,-112.5 298.5,-131.5 351.5,-131.5 351.5,-112.5 298.5,-112.5"/>
<text text-anchor="middle" x="325" y="-119.5" font-family="Helvetica,sans-Serif" font-size="10.00">stdlib.h</text>
</a>
</g>
</g>
<!-- Node6&#45;&gt;Node8 -->
<g id="edge10" class="edge">
<title>Node6&#45;&gt;Node8</title>
<path fill="none" stroke="midnightblue" d="M236.87,-168.32C253.71,-159.66 279.81,-146.24 299.24,-136.25"/>
<polygon fill="midnightblue" stroke="midnightblue" points="300.88,-139.34 308.17,-131.65 297.68,-133.12 300.88,-139.34"/>
</g>
<!-- Node7&#45;&gt;Node2 -->
<g id="edge9" class="edge">
<title>Node7&#45;&gt;Node2</title>
<path fill="none" stroke="midnightblue" d="M234.06,-112.44C267.6,-103.2 321.2,-88.44 358.14,-78.26"/>
<polygon fill="midnightblue" stroke="midnightblue" points="359.38,-81.55 368.09,-75.52 357.52,-74.8 359.38,-81.55"/>
</g>
<!-- Node9&#45;&gt;Node2 -->
<g id="edge12" class="edge">
<title>Node9&#45;&gt;Node2</title>
<path fill="none" stroke="midnightblue" d="M583.4,-168.29C571.09,-154.64 545.47,-128.11 519,-112 494.8,-97.28 464.99,-86.07 441.14,-78.52"/>
<polygon fill="midnightblue" stroke="midnightblue" points="441.9,-75.09 431.31,-75.51 439.85,-81.79 441.9,-75.09"/>
</g>
<!-- Node10&#45;&gt;Node2 -->
<g id="edge14" class="edge">
<title>Node10&#45;&gt;Node2</title>
<path fill="none" stroke="midnightblue" d="M35.76,-168.17C29.82,-154.36 21.21,-127.6 35,-112 55.37,-88.96 252.33,-75.06 347.72,-69.63"/>
<polygon fill="midnightblue" stroke="midnightblue" points="347.95,-73.13 357.73,-69.07 347.55,-66.14 347.95,-73.13"/>
</g>
<!-- Node11&#45;&gt;Node2 -->
<g id="edge16" class="edge">
<title>Node11&#45;&gt;Node2</title>
<path fill="none" stroke="midnightblue" d="M389.29,-168.39C390.62,-159.35 392.67,-144.7 394,-132 395.63,-116.5 396.95,-98.88 397.83,-85.89"/>
<polygon fill="midnightblue" stroke="midnightblue" points="401.32,-86.05 398.48,-75.85 394.34,-85.6 401.32,-86.05"/>
</g>
<!-- Node12&#45;&gt;Node2 -->
<g id="edge18" class="edge">
<title>Node12&#45;&gt;Node2</title>
<path fill="none" stroke="midnightblue" d="M429.37,-224.23C435.26,-215.53 443.61,-201.57 447,-188 449.16,-179.38 448.96,-176.67 447,-168 439.95,-136.73 422.03,-103.78 410.19,-84.33"/>
<polygon fill="midnightblue" stroke="midnightblue" points="413.06,-82.32 404.79,-75.7 407.13,-86.03 413.06,-82.32"/>
</g>
<!-- Node13&#45;&gt;Node2 -->
<g id="edge21" class="edge">
<title>Node13&#45;&gt;Node2</title>
<path fill="none" stroke="midnightblue" d="M266.62,-224.32C286.49,-207.75 329.98,-169.87 360,-132 371.73,-117.21 382.55,-98.58 389.81,-85.07"/>
<polygon fill="midnightblue" stroke="midnightblue" points="393.09,-86.36 394.62,-75.88 386.88,-83.12 393.09,-86.36"/>
</g>
<!-- Node13&#45;&gt;Node6 -->
<g id="edge20" class="edge">
<title>Node13&#45;&gt;Node6</title>
<path fill="none" stroke="midnightblue" d="M250.06,-224.08C245.02,-216.53 237.66,-205.49 231.49,-196.23"/>
<polygon fill="midnightblue" stroke="midnightblue" points="234.29,-194.13 225.83,-187.75 228.47,-198.01 234.29,-194.13"/>
</g>
</g>
</svg>
        <g id="navigator" transform="translate(0 0)" fill="#404254">
                <rect fill="#f2f5e9" fill-opacity="0.5" stroke="#606060" stroke-width=".5" x="0" y="0" width="60" height="60"/>
                <use id="zoomplus" xlink:href="#zoomPlus" x="17" y="9" onmousedown="handleZoom(evt,'in')"/>
                <use id="zoomminus" xlink:href="#zoomMin" x="42" y="9" onmousedown="handleZoom(evt,'out')"/>
                <use id="reset" xlink:href="#resetDef" x="30" y="36" onmousedown="handleReset()"/>
                <g id="arrowUp" xlink:href="#dirArrow" transform="translate(30 24)" onmousedown="handlePan(0,-1)">
                  <use xlink:href="#rim" fill="#404040">
                        <set attributeName="fill" to="#808080" begin="arrowUp.mouseover" end="arrowUp.mouseout"/>
                  </use>
                  <path fill="none" stroke="white" stroke-width="1.5" d="M0,-3.0v7 M-2.5,-0.5L0,-3.0L2.5,-0.5"/>
                </g>
                <g id="arrowRight" xlink:href="#dirArrow" transform="rotate(90) translate(36 -43)" onmousedown="handlePan(1,0)">
                  <use xlink:href="#rim" fill="#404040">
                        <set attributeName="fill" to="#808080" begin="arrowRight.mouseover" end="arrowRight.mouseout"/>
                  </use>
                  <path fill="none" stroke="white" stroke-width="1.5" d="M0,-3.0v7 M-2.5,-0.5L0,-3.0L2.5,-0.5"/>
                </g>
                <g id="arrowDown" xlink:href="#dirArrow" transform="rotate(180) translate(-30 -48)" onmousedown="handlePan(0,1)">
                  <use xlink:href="#rim" fill="#404040">
                        <set attributeName="fill" to="#808080" begin="arrowDown.mouseover" end="arrowDown.mouseout"/>
                  </use>
                  <path fill="none" stroke="white" stroke-width="1.5" d="M0,-3.0v7 M-2.5,-0.5L0,-3.0L2.5,-0.5"/>
                </g>
                <g id="arrowLeft" xlink:href="#dirArrow" transform="rotate(270) translate(-36 17)" onmousedown="handlePan(-1,0)">
                  <use xlink:href="#rim" fill="#404040">
                        <set attributeName="fill" to="#808080" begin="arrowLeft.mouseover" end="arrowLeft.mouseout"/>
                  </use>
                  <path fill="none" stroke="white" stroke-width="1.5" d="M0,-3.0v7 M-2.5,-0.5L0,-3.0L2.5,-0.5"/>
                </g>
        </g>
        <svg viewBox="0 0 15 15" width="100%" height="30px" preserveAspectRatio="xMaxYMin meet">
         <g id="arrow_out" transform="scale(0.3 0.3)">
          <a xlink:href="ladel__ldl__symbolic_8c__incl_org.svg" target="_base">
           <rect id="button" ry="5" rx="5" y="6" x="6" height="38" width="38"
                fill="#f2f5e9" fill-opacity="0.5" stroke="#606060" stroke-width="1.0"/>
           <path id="arrow"
             d="M 11.500037,31.436501 C 11.940474,20.09759 22.043105,11.32322 32.158766,21.979434 L 37.068811,17.246167 C 37.068811,17.246167 37.088388,32 37.088388,32 L 22.160133,31.978069 C 22.160133,31.978069 26.997745,27.140456 26.997745,27.140456 C 18.528582,18.264221 13.291696,25.230495 11.500037,31.436501 z"
             style="fill:#404040;"/>
          </a>
         </g>
        </svg>
</svg>
