<?xml version="1.0" encoding="UTF-8" standalone="no"?>
<!DOCTYPE svg PUBLIC "-//W3C//DTD SVG 1.1//EN"
 "http://www.w3.org/Graphics/SVG/1.1/DTD/svg11.dtd">
<!-- Generated by graphviz version 2.43.0 (0)
 -->
<!-- Title: LADEL/src/ladel_upper_diag.c Pages: 1 -->
<svg width="552pt" height="319pt"
 viewBox="0.00 0.00 552.02 319.00" xmlns="http://www.w3.org/2000/svg" xmlns:xlink="http://www.w3.org/1999/xlink">
<g id="graph0" class="graph" transform="scale(1 1) rotate(0) translate(4 315)">
<title>LADEL/src/ladel_upper_diag.c</title>
<polygon fill="white" stroke="transparent" points="-4,4 -4,-315 548.02,-315 548.02,4 -4,4"/>
<!-- Node1 -->
<g id="node1" class="node">
<title>Node1</title>
<g id="a_node1"><a xlink:title=" ">
<polygon fill="#bfbfbf" stroke="black" points="264.02,-280.5 264.02,-310.5 389.02,-310.5 389.02,-280.5 264.02,-280.5"/>
<text text-anchor="start" x="272.02" y="-298.5" font-family="Helvetica,sans-Serif" font-size="10.00">LADEL/src/ladel_upper</text>
<text text-anchor="middle" x="326.52" y="-287.5" font-family="Helvetica,sans-Serif" font-size="10.00">_diag.c</text>
</a>
</g>
</g>
<!-- Node2 -->
<g id="node2" class="node">
<title>Node2</title>
<g id="a_node2"><a xlink:href="ladel__types_8h.html" target="_top" xlink:title="Structures and types used in LADEL routines.">
<polygon fill="white" stroke="black" points="292.52,-56.5 292.52,-75.5 374.52,-75.5 374.52,-56.5 292.52,-56.5"/>
<text text-anchor="middle" x="333.52" y="-63.5" font-family="Helvetica,sans-Serif" font-size="10.00">ladel_types.h</text>
</a>
</g>
</g>
<!-- Node1&#45;&gt;Node2 -->
<g id="edge1" class="edge">
<title>Node1&#45;&gt;Node2</title>
<path fill="none" stroke="midnightblue" d="M352.66,-280.37C365.73,-271.76 380.26,-259.43 387.52,-244 413.78,-188.17 370.25,-116.5 346.86,-84.17"/>
<polygon fill="midnightblue" stroke="midnightblue" points="349.4,-81.72 340.61,-75.8 343.79,-85.9 349.4,-81.72"/>
</g>
<!-- Node5 -->
<g id="node5" class="node">
<title>Node5</title>
<g id="a_node5"><a xlink:href="ladel__global_8h.html" target="_top" xlink:title="Memory allocation routines.">
<polygon fill="white" stroke="black" points="105.02,-168.5 105.02,-187.5 190.02,-187.5 190.02,-168.5 105.02,-168.5"/>
<text text-anchor="middle" x="147.52" y="-175.5" font-family="Helvetica,sans-Serif" font-size="10.00">ladel_global.h</text>
</a>
</g>
</g>
<!-- Node1&#45;&gt;Node5 -->
<g id="edge4" class="edge">
<title>Node1&#45;&gt;Node5</title>
<path fill="none" stroke="midnightblue" d="M263.64,-286.3C213.93,-278.38 150.36,-264.54 134.52,-244 124.12,-230.51 130.1,-210.88 136.99,-196.72"/>
<polygon fill="midnightblue" stroke="midnightblue" points="140.27,-198.01 141.95,-187.55 134.11,-194.69 140.27,-198.01"/>
</g>
<!-- Node9 -->
<g id="node9" class="node">
<title>Node9</title>
<g id="a_node9"><a xlink:href="ladel__upper__diag_8h.html" target="_top" xlink:title="Routine to keep only the upper diagonal elements of a (symmetric) matrix.">
<polygon fill="white" stroke="black" points="435.02,-168.5 435.02,-187.5 544.02,-187.5 544.02,-168.5 435.02,-168.5"/>
<text text-anchor="middle" x="489.52" y="-175.5" font-family="Helvetica,sans-Serif" font-size="10.00">ladel_upper_diag.h</text>
</a>
</g>
</g>
<!-- Node1&#45;&gt;Node9 -->
<g id="edge10" class="edge">
<title>Node1&#45;&gt;Node9</title>
<path fill="none" stroke="midnightblue" d="M357.35,-280.49C376.31,-271.27 400.68,-258.29 420.52,-244 440.84,-229.36 461.38,-209.17 474.7,-195.19"/>
<polygon fill="midnightblue" stroke="midnightblue" points="477.37,-197.46 481.65,-187.77 472.26,-192.67 477.37,-197.46"/>
</g>
<!-- Node10 -->
<g id="node10" class="node">
<title>Node10</title>
<g id="a_node10"><a xlink:href="ladel__transpose_8h.html" target="_top" xlink:title="Routine to compute the transpose of a matrix.">
<polygon fill="white" stroke="black" points="275.02,-224.5 275.02,-243.5 378.02,-243.5 378.02,-224.5 275.02,-224.5"/>
<text text-anchor="middle" x="326.52" y="-231.5" font-family="Helvetica,sans-Serif" font-size="10.00">ladel_transpose.h</text>
</a>
</g>
</g>
<!-- Node1&#45;&gt;Node10 -->
<g id="edge12" class="edge">
<title>Node1&#45;&gt;Node10</title>
<path fill="none" stroke="midnightblue" d="M326.52,-280.4C326.52,-272.47 326.52,-262.46 326.52,-253.86"/>
<polygon fill="midnightblue" stroke="midnightblue" points="330.02,-253.66 326.52,-243.66 323.02,-253.66 330.02,-253.66"/>
</g>
<!-- Node11 -->
<g id="node11" class="node">
<title>Node11</title>
<g id="a_node11"><a xlink:href="ladel__debug__print_8h.html" target="_top" xlink:title="Routines to print out matrices and vectors.">
<polygon fill="white" stroke="black" points="144.02,-224.5 144.02,-243.5 257.02,-243.5 257.02,-224.5 144.02,-224.5"/>
<text text-anchor="middle" x="200.52" y="-231.5" font-family="Helvetica,sans-Serif" font-size="10.00">ladel_debug_print.h</text>
</a>
</g>
</g>
<!-- Node1&#45;&gt;Node11 -->
<g id="edge14" class="edge">
<title>Node1&#45;&gt;Node11</title>
<path fill="none" stroke="midnightblue" d="M296.66,-280.4C275.9,-270.59 248.42,-257.62 228.16,-248.05"/>
<polygon fill="midnightblue" stroke="midnightblue" points="229.39,-244.76 218.85,-243.66 226.4,-251.09 229.39,-244.76"/>
</g>
<!-- Node3 -->
<g id="node3" class="node">
<title>Node3</title>
<g id="a_node3"><a xlink:title=" ">
<polygon fill="white" stroke="#bfbfbf" points="269.02,-0.5 269.02,-19.5 322.02,-19.5 322.02,-0.5 269.02,-0.5"/>
<text text-anchor="middle" x="295.52" y="-7.5" font-family="Helvetica,sans-Serif" font-size="10.00">stdint.h</text>
</a>
</g>
</g>
<!-- Node2&#45;&gt;Node3 -->
<g id="edge2" class="edge">
<title>Node2&#45;&gt;Node3</title>
<path fill="none" stroke="midnightblue" d="M327.25,-56.08C321.88,-48.46 314,-37.26 307.44,-27.94"/>
<polygon fill="midnightblue" stroke="midnightblue" points="310.3,-25.91 301.68,-19.75 304.57,-29.94 310.3,-25.91"/>
</g>
<!-- Node4 -->
<g id="node4" class="node">
<title>Node4</title>
<g id="a_node4"><a xlink:title=" ">
<polygon fill="white" stroke="#bfbfbf" points="340.02,-0.5 340.02,-19.5 405.02,-19.5 405.02,-0.5 340.02,-0.5"/>
<text text-anchor="middle" x="372.52" y="-7.5" font-family="Helvetica,sans-Serif" font-size="10.00">inttypes.h</text>
</a>
</g>
</g>
<!-- Node2&#45;&gt;Node4 -->
<g id="edge3" class="edge">
<title>Node2&#45;&gt;Node4</title>
<path fill="none" stroke="midnightblue" d="M339.96,-56.08C345.47,-48.46 353.55,-37.26 360.29,-27.94"/>
<polygon fill="midnightblue" stroke="midnightblue" points="363.18,-29.91 366.2,-19.75 357.51,-25.81 363.18,-29.91"/>
</g>
<!-- Node5&#45;&gt;Node2 -->
<g id="edge5" class="edge">
<title>Node5&#45;&gt;Node2</title>
<path fill="none" stroke="midnightblue" d="M104.65,-172.15C53.01,-164.65 -23.2,-147.25 7.52,-112 42.53,-71.83 199.58,-66.31 282.25,-66.27"/>
<polygon fill="midnightblue" stroke="midnightblue" points="282.43,-69.77 292.44,-66.29 282.45,-62.77 282.43,-69.77"/>
</g>
<!-- Node6 -->
<g id="node6" class="node">
<title>Node6</title>
<g id="a_node6"><a xlink:href="ladel__constants_8h.html" target="_top" xlink:title="Constants and macros used in LADEL.">
<polygon fill="white" stroke="black" points="112.52,-112.5 112.52,-131.5 214.52,-131.5 214.52,-112.5 112.52,-112.5"/>
<text text-anchor="middle" x="163.52" y="-119.5" font-family="Helvetica,sans-Serif" font-size="10.00">ladel_constants.h</text>
</a>
</g>
</g>
<!-- Node5&#45;&gt;Node6 -->
<g id="edge6" class="edge">
<title>Node5&#45;&gt;Node6</title>
<path fill="none" stroke="midnightblue" d="M150.16,-168.08C152.31,-160.85 155.4,-150.41 158.07,-141.4"/>
<polygon fill="midnightblue" stroke="midnightblue" points="161.44,-142.33 160.93,-131.75 154.73,-140.34 161.44,-142.33"/>
</g>
<!-- Node7 -->
<g id="node7" class="node">
<title>Node7</title>
<g id="a_node7"><a xlink:href="ladel__copy_8h.html" target="_top" xlink:title="Routines to copy matrices and vectors.">
<polygon fill="white" stroke="black" points="17.02,-112.5 17.02,-131.5 94.02,-131.5 94.02,-112.5 17.02,-112.5"/>
<text text-anchor="middle" x="55.52" y="-119.5" font-family="Helvetica,sans-Serif" font-size="10.00">ladel_copy.h</text>
</a>
</g>
</g>
<!-- Node5&#45;&gt;Node7 -->
<g id="edge7" class="edge">
<title>Node5&#45;&gt;Node7</title>
<path fill="none" stroke="midnightblue" d="M132.74,-168.32C118.25,-159.82 95.95,-146.73 79.03,-136.8"/>
<polygon fill="midnightblue" stroke="midnightblue" points="80.66,-133.7 70.27,-131.65 77.12,-139.74 80.66,-133.7"/>
</g>
<!-- Node8 -->
<g id="node8" class="node">
<title>Node8</title>
<g id="a_node8"><a xlink:title=" ">
<polygon fill="white" stroke="#bfbfbf" points="233.02,-112.5 233.02,-131.5 286.02,-131.5 286.02,-112.5 233.02,-112.5"/>
<text text-anchor="middle" x="259.52" y="-119.5" font-family="Helvetica,sans-Serif" font-size="10.00">stdlib.h</text>
</a>
</g>
</g>
<!-- Node5&#45;&gt;Node8 -->
<g id="edge9" class="edge">
<title>Node5&#45;&gt;Node8</title>
<path fill="none" stroke="midnightblue" d="M165.52,-168.32C183.56,-159.62 211.57,-146.12 232.32,-136.11"/>
<polygon fill="midnightblue" stroke="midnightblue" points="234.08,-139.15 241.57,-131.65 231.04,-132.84 234.08,-139.15"/>
</g>
<!-- Node7&#45;&gt;Node2 -->
<g id="edge8" class="edge">
<title>Node7&#45;&gt;Node2</title>
<path fill="none" stroke="midnightblue" d="M94.18,-113.49C143.23,-103.96 227.99,-87.5 282.37,-76.94"/>
<polygon fill="midnightblue" stroke="midnightblue" points="283.33,-80.31 292.48,-74.97 282,-73.44 283.33,-80.31"/>
</g>
<!-- Node9&#45;&gt;Node2 -->
<g id="edge11" class="edge">
<title>Node9&#45;&gt;Node2</title>
<path fill="none" stroke="midnightblue" d="M481.68,-168.19C469.52,-154.86 444.96,-129.32 420.52,-112 402.49,-99.23 380.35,-87.83 362.92,-79.7"/>
<polygon fill="midnightblue" stroke="midnightblue" points="364.32,-76.49 353.77,-75.53 361.42,-82.86 364.32,-76.49"/>
</g>
<!-- Node10&#45;&gt;Node2 -->
<g id="edge13" class="edge">
<title>Node10&#45;&gt;Node2</title>
<path fill="none" stroke="midnightblue" d="M326.91,-224.37C327.32,-215.32 327.98,-200.66 328.52,-188 330.08,-151.72 331.81,-109.31 332.77,-85.56"/>
<polygon fill="midnightblue" stroke="midnightblue" points="336.27,-85.64 333.18,-75.51 329.28,-85.36 336.27,-85.64"/>
</g>
<!-- Node11&#45;&gt;Node2 -->
<g id="edge16" class="edge">
<title>Node11&#45;&gt;Node2</title>
<path fill="none" stroke="midnightblue" d="M209.75,-224.37C227.41,-207.59 266.73,-168.94 294.52,-132 305.87,-116.92 316.74,-98.33 324.11,-84.9"/>
<polygon fill="midnightblue" stroke="midnightblue" points="327.36,-86.25 329.01,-75.78 321.2,-82.93 327.36,-86.25"/>
</g>
<!-- Node11&#45;&gt;Node5 -->
<g id="edge15" class="edge">
<title>Node11&#45;&gt;Node5</title>
<path fill="none" stroke="midnightblue" d="M191.77,-224.08C184.05,-216.22 172.62,-204.57 163.3,-195.08"/>
<polygon fill="midnightblue" stroke="midnightblue" points="165.61,-192.44 156.11,-187.75 160.62,-197.34 165.61,-192.44"/>
</g>
</g>
</svg>
