<?xml version="1.0" encoding="UTF-8" standalone="no"?>
<!DOCTYPE svg PUBLIC "-//W3C//DTD SVG 1.1//EN"
 "http://www.w3.org/Graphics/SVG/1.1/DTD/svg11.dtd">
<!-- Generated by graphviz version 2.43.0 (0)
 -->
<!-- Title: ladel_sparse_copy Pages: 1 -->
<svg width="814pt" height="175pt"
 viewBox="0.00 0.00 814.00 174.50" xmlns="http://www.w3.org/2000/svg" xmlns:xlink="http://www.w3.org/1999/xlink">
<g id="graph0" class="graph" transform="scale(1 1) rotate(0) translate(4 170.5)">
<title>ladel_sparse_copy</title>
<polygon fill="white" stroke="transparent" points="-4,4 -4,-170.5 810,-170.5 810,4 -4,4"/>
<!-- Node1 -->
<g id="node1" class="node">
<title>Node1</title>
<g id="a_node1"><a xlink:title="Copies a matrix (preallocated)">
<polygon fill="#bfbfbf" stroke="black" points="699,-44.5 699,-63.5 806,-63.5 806,-44.5 699,-44.5"/>
<text text-anchor="middle" x="752.5" y="-51.5" font-family="Helvetica,sans-Serif" font-size="10.00">ladel_sparse_copy</text>
</a>
</g>
</g>
<!-- Node2 -->
<g id="node2" class="node">
<title>Node2</title>
<g id="a_node2"><a xlink:href="ladel__permutation_8c.html#a6fbceb4b665cce4b4397d74516d284a3" target="_top" xlink:title="Compute .">
<polygon fill="white" stroke="black" points="518,-88 518,-118 663,-118 663,-88 518,-88"/>
<text text-anchor="start" x="526" y="-106" font-family="Helvetica,sans-Serif" font-size="10.00">ladel_permute_symmetric</text>
<text text-anchor="middle" x="590.5" y="-95" font-family="Helvetica,sans-Serif" font-size="10.00">_matrix</text>
</a>
</g>
</g>
<!-- Node1&#45;&gt;Node2 -->
<g id="edge1" class="edge">
<title>Node1&#45;&gt;Node2</title>
<path fill="none" stroke="midnightblue" d="M710.54,-66.54C689.22,-73.07 663,-81.1 640.6,-87.96"/>
<polygon fill="midnightblue" stroke="midnightblue" points="711.73,-69.84 720.27,-63.56 709.68,-63.15 711.73,-69.84"/>
</g>
<!-- Node10 -->
<g id="node10" class="node">
<title>Node10</title>
<g id="a_node10"><a xlink:href="ladel__copy_8c.html#a3a4d205bb1f55b7059ad6b82a18fb856" target="_top" xlink:title="Copies a matrix into a newly allocated one.">
<polygon fill="white" stroke="black" points="529.5,-39 529.5,-69 651.5,-69 651.5,-39 529.5,-39"/>
<text text-anchor="start" x="537.5" y="-57" font-family="Helvetica,sans-Serif" font-size="10.00">ladel_sparse_allocate</text>
<text text-anchor="middle" x="590.5" y="-46" font-family="Helvetica,sans-Serif" font-size="10.00">_and_copy</text>
</a>
</g>
</g>
<!-- Node1&#45;&gt;Node10 -->
<g id="edge10" class="edge">
<title>Node1&#45;&gt;Node10</title>
<path fill="none" stroke="midnightblue" d="M688.63,-54C676.49,-54 663.8,-54 651.75,-54"/>
<polygon fill="midnightblue" stroke="midnightblue" points="688.67,-57.5 698.67,-54 688.67,-50.5 688.67,-57.5"/>
</g>
<!-- Node11 -->
<g id="node11" class="node">
<title>Node11</title>
<g id="a_node11"><a xlink:href="ladel__upper__diag_8c.html#a7a4946c49cace1648ec43ab05e35b8e6" target="_top" xlink:title="Return , that is the upper diagonal elements of M.">
<polygon fill="white" stroke="black" points="533,-0.5 533,-19.5 648,-19.5 648,-0.5 533,-0.5"/>
<text text-anchor="middle" x="590.5" y="-7.5" font-family="Helvetica,sans-Serif" font-size="10.00">ladel_to_upper_diag</text>
</a>
</g>
</g>
<!-- Node1&#45;&gt;Node11 -->
<g id="edge11" class="edge">
<title>Node1&#45;&gt;Node11</title>
<path fill="none" stroke="midnightblue" d="M708.63,-41.75C694.15,-37.65 677.89,-33.08 663,-29 651.6,-25.88 639.16,-22.54 627.9,-19.56"/>
<polygon fill="midnightblue" stroke="midnightblue" points="707.76,-45.14 718.33,-44.5 709.67,-38.4 707.76,-45.14"/>
</g>
<!-- Node3 -->
<g id="node3" class="node">
<title>Node3</title>
<g id="a_node3"><a xlink:href="group__grp-solver.html#gaff676fbf1dd6dbf8096c5349d264297f" target="_top" xlink:title="Computes the &#160;factorization of &#160;but allocates based on Mbasis.">
<polygon fill="white" stroke="black" points="177,-87 177,-117 318,-117 318,-87 177,-87"/>
<text text-anchor="start" x="185" y="-105" font-family="Helvetica,sans-Serif" font-size="10.00">ladel_factorize_advanced</text>
<text text-anchor="middle" x="247.5" y="-94" font-family="Helvetica,sans-Serif" font-size="10.00">_with_diag</text>
</a>
</g>
</g>
<!-- Node2&#45;&gt;Node3 -->
<g id="edge2" class="edge">
<title>Node2&#45;&gt;Node3</title>
<path fill="none" stroke="midnightblue" d="M507.4,-102.76C449.61,-102.59 373.1,-102.37 318.26,-102.2"/>
<polygon fill="midnightblue" stroke="midnightblue" points="507.59,-106.26 517.6,-102.79 507.61,-99.26 507.59,-106.26"/>
</g>
<!-- Node5 -->
<g id="node5" class="node">
<title>Node5</title>
<g id="a_node5"><a xlink:href="group__grp-solver.html#gabb81f3223c3ab1794fd472276be8fba6" target="_top" xlink:title="Computes the &#160;factorization of &#160;provided LD was allocated before.">
<polygon fill="white" stroke="black" points="354,-134 354,-164 482,-164 482,-134 354,-134"/>
<text text-anchor="start" x="362" y="-152" font-family="Helvetica,sans-Serif" font-size="10.00">ladel_factorize_with</text>
<text text-anchor="middle" x="418" y="-141" font-family="Helvetica,sans-Serif" font-size="10.00">_prior_basis_with_diag</text>
</a>
</g>
</g>
<!-- Node2&#45;&gt;Node5 -->
<g id="edge4" class="edge">
<title>Node2&#45;&gt;Node5</title>
<path fill="none" stroke="midnightblue" d="M523.73,-120.74C507.53,-125.11 490.33,-129.75 474.66,-133.98"/>
<polygon fill="midnightblue" stroke="midnightblue" points="524.93,-124.05 533.67,-118.06 523.11,-117.29 524.93,-124.05"/>
</g>
<!-- Node7 -->
<g id="node7" class="node">
<title>Node7</title>
<g id="a_node7"><a xlink:href="ladel__ldl__symbolic_8c.html#a919feee5783ed6d5ffaff8dff6546976" target="_top" xlink:title="Symbolic part of the factorization.">
<polygon fill="white" stroke="black" points="364.5,-55.5 364.5,-74.5 471.5,-74.5 471.5,-55.5 364.5,-55.5"/>
<text text-anchor="middle" x="418" y="-62.5" font-family="Helvetica,sans-Serif" font-size="10.00">ladel_ldl_symbolic</text>
</a>
</g>
</g>
<!-- Node2&#45;&gt;Node7 -->
<g id="edge6" class="edge">
<title>Node2&#45;&gt;Node7</title>
<path fill="none" stroke="midnightblue" d="M511.99,-85.72C494.67,-81.86 476.92,-77.91 461.63,-74.5"/>
<polygon fill="midnightblue" stroke="midnightblue" points="511.59,-89.22 522.11,-87.98 513.11,-82.39 511.59,-89.22"/>
</g>
<!-- Node4 -->
<g id="node4" class="node">
<title>Node4</title>
<g id="a_node4"><a xlink:href="group__grp-solver.html#gac217d5bb50524bf6bbc0e7fa473edcfb" target="_top" xlink:title="Computes the &#160;factorization of &#160;but allocates based on Mbasis.">
<polygon fill="white" stroke="black" points="0,-92.5 0,-111.5 141,-111.5 141,-92.5 0,-92.5"/>
<text text-anchor="middle" x="70.5" y="-99.5" font-family="Helvetica,sans-Serif" font-size="10.00">ladel_factorize_advanced</text>
</a>
</g>
</g>
<!-- Node3&#45;&gt;Node4 -->
<g id="edge3" class="edge">
<title>Node3&#45;&gt;Node4</title>
<path fill="none" stroke="midnightblue" d="M166.58,-102C158.11,-102 149.55,-102 141.21,-102"/>
<polygon fill="midnightblue" stroke="midnightblue" points="166.83,-105.5 176.83,-102 166.83,-98.5 166.83,-105.5"/>
</g>
<!-- Node6 -->
<g id="node6" class="node">
<title>Node6</title>
<g id="a_node6"><a xlink:href="group__grp-solver.html#ga90783633564102ca42816a7d23eca63b" target="_top" xlink:title="Computes the &#160;factorization of &#160;provided LD was allocated before.">
<polygon fill="white" stroke="black" points="190,-136 190,-166 305,-166 305,-136 190,-136"/>
<text text-anchor="start" x="198" y="-154" font-family="Helvetica,sans-Serif" font-size="10.00">ladel_factorize_with</text>
<text text-anchor="middle" x="247.5" y="-143" font-family="Helvetica,sans-Serif" font-size="10.00">_prior_basis</text>
</a>
</g>
</g>
<!-- Node5&#45;&gt;Node6 -->
<g id="edge5" class="edge">
<title>Node5&#45;&gt;Node6</title>
<path fill="none" stroke="midnightblue" d="M343.55,-149.87C330.68,-150.02 317.47,-150.18 305.14,-150.33"/>
<polygon fill="midnightblue" stroke="midnightblue" points="343.82,-153.37 353.78,-149.75 343.74,-146.37 343.82,-153.37"/>
</g>
<!-- Node7&#45;&gt;Node3 -->
<g id="edge7" class="edge">
<title>Node7&#45;&gt;Node3</title>
<path fill="none" stroke="midnightblue" d="M363.61,-76.72C348.78,-79.98 332.48,-83.56 316.92,-86.98"/>
<polygon fill="midnightblue" stroke="midnightblue" points="364.59,-80.09 373.61,-74.53 363.09,-73.25 364.59,-80.09"/>
</g>
<!-- Node8 -->
<g id="node8" class="node">
<title>Node8</title>
<g id="a_node8"><a xlink:href="group__grp-solver.html#ga129ea878837012c6ac76fb6046bc9449" target="_top" xlink:title="Computes the &#160;factorization of .">
<polygon fill="white" stroke="black" points="177,-48.5 177,-67.5 318,-67.5 318,-48.5 177,-48.5"/>
<text text-anchor="middle" x="247.5" y="-55.5" font-family="Helvetica,sans-Serif" font-size="10.00">ladel_factorize_with_diag</text>
</a>
</g>
</g>
<!-- Node7&#45;&gt;Node8 -->
<g id="edge8" class="edge">
<title>Node7&#45;&gt;Node8</title>
<path fill="none" stroke="midnightblue" d="M354.04,-62.38C342.34,-61.9 330.06,-61.39 318.17,-60.89"/>
<polygon fill="midnightblue" stroke="midnightblue" points="354.01,-65.89 364.15,-62.8 354.3,-58.89 354.01,-65.89"/>
</g>
<!-- Node9 -->
<g id="node9" class="node">
<title>Node9</title>
<g id="a_node9"><a xlink:href="group__grp-solver.html#ga6167c294e588fe34776d40e53c6ddbc9" target="_top" xlink:title="Computes the &#160;factorization of .">
<polygon fill="white" stroke="black" points="26,-48.5 26,-67.5 115,-67.5 115,-48.5 26,-48.5"/>
<text text-anchor="middle" x="70.5" y="-55.5" font-family="Helvetica,sans-Serif" font-size="10.00">ladel_factorize</text>
</a>
</g>
</g>
<!-- Node8&#45;&gt;Node9 -->
<g id="edge9" class="edge">
<title>Node8&#45;&gt;Node9</title>
<path fill="none" stroke="midnightblue" d="M166.51,-58C148.87,-58 130.82,-58 115.25,-58"/>
<polygon fill="midnightblue" stroke="midnightblue" points="166.83,-61.5 176.83,-58 166.83,-54.5 166.83,-61.5"/>
</g>
</g>
</svg>
