<?xml version="1.0" encoding="UTF-8" standalone="no"?>
<!DOCTYPE svg PUBLIC "-//W3C//DTD SVG 1.1//EN"
 "http://www.w3.org/Graphics/SVG/1.1/DTD/svg11.dtd">
<!-- Generated by graphviz version 2.43.0 (0)
 -->
<!-- Title: LADEL/src/ladel_global.c Pages: 1 -->
<svg width="551pt" height="252pt"
 viewBox="0.00 0.00 550.50 252.00" xmlns="http://www.w3.org/2000/svg" xmlns:xlink="http://www.w3.org/1999/xlink">
<g id="graph0" class="graph" transform="scale(1 1) rotate(0) translate(4 248)">
<title>LADEL/src/ladel_global.c</title>
<polygon fill="white" stroke="transparent" points="-4,4 -4,-248 546.5,-248 546.5,4 -4,4"/>
<!-- Node1 -->
<g id="node1" class="node">
<title>Node1</title>
<g id="a_node1"><a xlink:title=" ">
<polygon fill="#bfbfbf" stroke="black" points="248.5,-224.5 248.5,-243.5 384.5,-243.5 384.5,-224.5 248.5,-224.5"/>
<text text-anchor="middle" x="316.5" y="-231.5" font-family="Helvetica,sans-Serif" font-size="10.00">LADEL/src/ladel_global.c</text>
</a>
</g>
</g>
<!-- Node2 -->
<g id="node2" class="node">
<title>Node2</title>
<g id="a_node2"><a xlink:href="ladel__global_8h.html" target="_top" xlink:title="Memory allocation routines.">
<polygon fill="white" stroke="black" points="239,-168.5 239,-187.5 324,-187.5 324,-168.5 239,-168.5"/>
<text text-anchor="middle" x="281.5" y="-175.5" font-family="Helvetica,sans-Serif" font-size="10.00">ladel_global.h</text>
</a>
</g>
</g>
<!-- Node1&#45;&gt;Node2 -->
<g id="edge1" class="edge">
<title>Node1&#45;&gt;Node2</title>
<path fill="none" stroke="midnightblue" d="M310.72,-224.08C305.83,-216.53 298.67,-205.49 292.67,-196.23"/>
<polygon fill="midnightblue" stroke="midnightblue" points="295.55,-194.24 287.17,-187.75 289.67,-198.05 295.55,-194.24"/>
</g>
<!-- Node3 -->
<g id="node3" class="node">
<title>Node3</title>
<g id="a_node3"><a xlink:href="ladel__types_8h.html" target="_top" xlink:title="Structures and types used in LADEL routines.">
<polygon fill="white" stroke="black" points="135.5,-56.5 135.5,-75.5 217.5,-75.5 217.5,-56.5 135.5,-56.5"/>
<text text-anchor="middle" x="176.5" y="-63.5" font-family="Helvetica,sans-Serif" font-size="10.00">ladel_types.h</text>
</a>
</g>
</g>
<!-- Node1&#45;&gt;Node3 -->
<g id="edge9" class="edge">
<title>Node1&#45;&gt;Node3</title>
<path fill="none" stroke="midnightblue" d="M285.56,-224.46C246.83,-211.77 183.08,-183.69 162.5,-132 156.37,-116.62 161.51,-98.07 167.21,-84.73"/>
<polygon fill="midnightblue" stroke="midnightblue" points="170.37,-86.22 171.5,-75.68 164.05,-83.22 170.37,-86.22"/>
</g>
<!-- Node6 -->
<g id="node6" class="node">
<title>Node6</title>
<g id="a_node6"><a xlink:href="ladel__constants_8h.html" target="_top" xlink:title="Constants and macros used in LADEL.">
<polygon fill="white" stroke="black" points="305.5,-112.5 305.5,-131.5 407.5,-131.5 407.5,-112.5 305.5,-112.5"/>
<text text-anchor="middle" x="356.5" y="-119.5" font-family="Helvetica,sans-Serif" font-size="10.00">ladel_constants.h</text>
</a>
</g>
</g>
<!-- Node1&#45;&gt;Node6 -->
<g id="edge10" class="edge">
<title>Node1&#45;&gt;Node6</title>
<path fill="none" stroke="midnightblue" d="M319.64,-224.37C326.12,-206.54 341.12,-165.3 349.86,-141.27"/>
<polygon fill="midnightblue" stroke="midnightblue" points="353.25,-142.19 353.38,-131.59 346.67,-139.79 353.25,-142.19"/>
</g>
<!-- Node7 -->
<g id="node7" class="node">
<title>Node7</title>
<g id="a_node7"><a xlink:href="ladel__copy_8h.html" target="_top" xlink:title="Routines to copy matrices and vectors.">
<polygon fill="white" stroke="black" points="172,-112.5 172,-131.5 249,-131.5 249,-112.5 172,-112.5"/>
<text text-anchor="middle" x="210.5" y="-119.5" font-family="Helvetica,sans-Serif" font-size="10.00">ladel_copy.h</text>
</a>
</g>
</g>
<!-- Node1&#45;&gt;Node7 -->
<g id="edge11" class="edge">
<title>Node1&#45;&gt;Node7</title>
<path fill="none" stroke="midnightblue" d="M286.76,-224.37C267.84,-217.44 244.2,-205.85 229.5,-188 218.65,-174.82 213.99,-155.69 212,-141.59"/>
<polygon fill="midnightblue" stroke="midnightblue" points="215.47,-141.13 210.9,-131.57 208.51,-141.89 215.47,-141.13"/>
</g>
<!-- Node8 -->
<g id="node8" class="node">
<title>Node8</title>
<g id="a_node8"><a xlink:title=" ">
<polygon fill="white" stroke="#bfbfbf" points="426,-112.5 426,-131.5 479,-131.5 479,-112.5 426,-112.5"/>
<text text-anchor="middle" x="452.5" y="-119.5" font-family="Helvetica,sans-Serif" font-size="10.00">stdlib.h</text>
</a>
</g>
</g>
<!-- Node1&#45;&gt;Node8 -->
<g id="edge15" class="edge">
<title>Node1&#45;&gt;Node8</title>
<path fill="none" stroke="midnightblue" d="M327.17,-224.37C350.21,-205.73 404.86,-161.53 433.79,-138.13"/>
<polygon fill="midnightblue" stroke="midnightblue" points="436.3,-140.6 441.88,-131.59 431.9,-135.16 436.3,-140.6"/>
</g>
<!-- Node9 -->
<g id="node9" class="node">
<title>Node9</title>
<g id="a_node9"><a xlink:href="ladel__permutation_8h.html" target="_top" xlink:title="Routines to permute vectors and matrices.">
<polygon fill="white" stroke="black" points="0,-112.5 0,-131.5 115,-131.5 115,-112.5 0,-112.5"/>
<text text-anchor="middle" x="57.5" y="-119.5" font-family="Helvetica,sans-Serif" font-size="10.00">ladel_permutation.h</text>
</a>
</g>
</g>
<!-- Node1&#45;&gt;Node9 -->
<g id="edge12" class="edge">
<title>Node1&#45;&gt;Node9</title>
<path fill="none" stroke="midnightblue" d="M248.28,-224.93C211.51,-218.56 166.27,-207.39 129.5,-188 106.34,-175.79 84.75,-154.43 71.37,-139.54"/>
<polygon fill="midnightblue" stroke="midnightblue" points="73.7,-136.89 64.49,-131.64 68.42,-141.48 73.7,-136.89"/>
</g>
<!-- Node10 -->
<g id="node10" class="node">
<title>Node10</title>
<g id="a_node10"><a xlink:title=" ">
<polygon fill="white" stroke="#bfbfbf" points="418.5,-168.5 418.5,-187.5 474.5,-187.5 474.5,-168.5 418.5,-168.5"/>
<text text-anchor="middle" x="446.5" y="-175.5" font-family="Helvetica,sans-Serif" font-size="10.00">assert.h</text>
</a>
</g>
</g>
<!-- Node1&#45;&gt;Node10 -->
<g id="edge14" class="edge">
<title>Node1&#45;&gt;Node10</title>
<path fill="none" stroke="midnightblue" d="M337.1,-224.44C358.49,-215.56 392.18,-201.56 416.52,-191.45"/>
<polygon fill="midnightblue" stroke="midnightblue" points="418.11,-194.58 426,-187.52 415.42,-188.12 418.11,-194.58"/>
</g>
<!-- Node11 -->
<g id="node11" class="node">
<title>Node11</title>
<g id="a_node11"><a xlink:title=" ">
<polygon fill="white" stroke="#bfbfbf" points="492.5,-168.5 492.5,-187.5 542.5,-187.5 542.5,-168.5 492.5,-168.5"/>
<text text-anchor="middle" x="517.5" y="-175.5" font-family="Helvetica,sans-Serif" font-size="10.00">stdio.h</text>
</a>
</g>
</g>
<!-- Node1&#45;&gt;Node11 -->
<g id="edge16" class="edge">
<title>Node1&#45;&gt;Node11</title>
<path fill="none" stroke="midnightblue" d="M348.35,-224.44C384.88,-214.63 444.58,-198.59 482.41,-188.43"/>
<polygon fill="midnightblue" stroke="midnightblue" points="483.72,-191.7 492.47,-185.73 481.9,-184.94 483.72,-191.7"/>
</g>
<!-- Node2&#45;&gt;Node3 -->
<g id="edge2" class="edge">
<title>Node2&#45;&gt;Node3</title>
<path fill="none" stroke="midnightblue" d="M280.29,-168.46C278,-155.03 271.91,-128.8 257.5,-112 245.19,-97.64 227.1,-86.98 211.13,-79.64"/>
<polygon fill="midnightblue" stroke="midnightblue" points="212.11,-76.25 201.54,-75.51 209.33,-82.68 212.11,-76.25"/>
</g>
<!-- Node2&#45;&gt;Node6 -->
<g id="edge5" class="edge">
<title>Node2&#45;&gt;Node6</title>
<path fill="none" stroke="midnightblue" d="M293.55,-168.32C304.96,-160.11 322.33,-147.6 335.93,-137.81"/>
<polygon fill="midnightblue" stroke="midnightblue" points="338.16,-140.52 344.23,-131.83 334.07,-134.84 338.16,-140.52"/>
</g>
<!-- Node2&#45;&gt;Node7 -->
<g id="edge6" class="edge">
<title>Node2&#45;&gt;Node7</title>
<path fill="none" stroke="midnightblue" d="M270.09,-168.32C259.39,-160.18 243.16,-147.84 230.34,-138.09"/>
<polygon fill="midnightblue" stroke="midnightblue" points="232.19,-135.1 222.11,-131.83 227.96,-140.67 232.19,-135.1"/>
</g>
<!-- Node2&#45;&gt;Node8 -->
<g id="edge8" class="edge">
<title>Node2&#45;&gt;Node8</title>
<path fill="none" stroke="midnightblue" d="M308.6,-168.44C337.57,-159.29 383.7,-144.73 415.89,-134.56"/>
<polygon fill="midnightblue" stroke="midnightblue" points="417.33,-137.78 425.81,-131.43 415.22,-131.1 417.33,-137.78"/>
</g>
<!-- Node4 -->
<g id="node4" class="node">
<title>Node4</title>
<g id="a_node4"><a xlink:title=" ">
<polygon fill="white" stroke="#bfbfbf" points="112,-0.5 112,-19.5 165,-19.5 165,-0.5 112,-0.5"/>
<text text-anchor="middle" x="138.5" y="-7.5" font-family="Helvetica,sans-Serif" font-size="10.00">stdint.h</text>
</a>
</g>
</g>
<!-- Node3&#45;&gt;Node4 -->
<g id="edge3" class="edge">
<title>Node3&#45;&gt;Node4</title>
<path fill="none" stroke="midnightblue" d="M170.23,-56.08C164.86,-48.46 156.98,-37.26 150.42,-27.94"/>
<polygon fill="midnightblue" stroke="midnightblue" points="153.28,-25.91 144.66,-19.75 147.55,-29.94 153.28,-25.91"/>
</g>
<!-- Node5 -->
<g id="node5" class="node">
<title>Node5</title>
<g id="a_node5"><a xlink:title=" ">
<polygon fill="white" stroke="#bfbfbf" points="183,-0.5 183,-19.5 248,-19.5 248,-0.5 183,-0.5"/>
<text text-anchor="middle" x="215.5" y="-7.5" font-family="Helvetica,sans-Serif" font-size="10.00">inttypes.h</text>
</a>
</g>
</g>
<!-- Node3&#45;&gt;Node5 -->
<g id="edge4" class="edge">
<title>Node3&#45;&gt;Node5</title>
<path fill="none" stroke="midnightblue" d="M182.94,-56.08C188.45,-48.46 196.53,-37.26 203.26,-27.94"/>
<polygon fill="midnightblue" stroke="midnightblue" points="206.16,-29.91 209.18,-19.75 200.49,-25.81 206.16,-29.91"/>
</g>
<!-- Node7&#45;&gt;Node3 -->
<g id="edge7" class="edge">
<title>Node7&#45;&gt;Node3</title>
<path fill="none" stroke="midnightblue" d="M204.89,-112.08C200.13,-104.53 193.18,-93.49 187.35,-84.23"/>
<polygon fill="midnightblue" stroke="midnightblue" points="190.3,-82.35 182.01,-75.75 184.38,-86.08 190.3,-82.35"/>
</g>
<!-- Node9&#45;&gt;Node3 -->
<g id="edge13" class="edge">
<title>Node9&#45;&gt;Node3</title>
<path fill="none" stroke="midnightblue" d="M76.36,-112.44C95.77,-103.64 126.23,-89.81 148.46,-79.72"/>
<polygon fill="midnightblue" stroke="midnightblue" points="150.07,-82.84 157.73,-75.52 147.18,-76.46 150.07,-82.84"/>
</g>
</g>
</svg>
