<?xml version="1.0" encoding="UTF-8" standalone="no"?>
<!DOCTYPE svg PUBLIC "-//W3C//DTD SVG 1.1//EN"
 "http://www.w3.org/Graphics/SVG/1.1/DTD/svg11.dtd">
<!-- Generated by graphviz version 2.43.0 (0)
 -->
<!-- Title: ladel_etree Pages: 1 -->
<svg width="597pt" height="127pt"
 viewBox="0.00 0.00 597.00 126.50" xmlns="http://www.w3.org/2000/svg" xmlns:xlink="http://www.w3.org/1999/xlink">
<g id="graph0" class="graph" transform="scale(1 1) rotate(0) translate(4 122.5)">
<title>ladel_etree</title>
<polygon fill="white" stroke="transparent" points="-4,4 -4,-122.5 593,-122.5 593,4 -4,4"/>
<!-- Node1 -->
<g id="node1" class="node">
<title>Node1</title>
<g id="a_node1"><a xlink:title="Computes the elimination tree of a matrix.">
<polygon fill="#bfbfbf" stroke="black" points="518,-45.5 518,-64.5 589,-64.5 589,-45.5 518,-45.5"/>
<text text-anchor="middle" x="553.5" y="-52.5" font-family="Helvetica,sans-Serif" font-size="10.00">ladel_etree</text>
</a>
</g>
</g>
<!-- Node2 -->
<g id="node2" class="node">
<title>Node2</title>
<g id="a_node2"><a xlink:href="group__grp-solver.html#gaff676fbf1dd6dbf8096c5349d264297f" target="_top" xlink:title="Computes the &#160;factorization of &#160;but allocates based on Mbasis.">
<polygon fill="white" stroke="black" points="177,-39 177,-69 318,-69 318,-39 177,-39"/>
<text text-anchor="start" x="185" y="-57" font-family="Helvetica,sans-Serif" font-size="10.00">ladel_factorize_advanced</text>
<text text-anchor="middle" x="247.5" y="-46" font-family="Helvetica,sans-Serif" font-size="10.00">_with_diag</text>
</a>
</g>
</g>
<!-- Node1&#45;&gt;Node2 -->
<g id="edge1" class="edge">
<title>Node1&#45;&gt;Node2</title>
<path fill="none" stroke="midnightblue" d="M507.76,-54.85C457.82,-54.69 376.37,-54.42 318.09,-54.23"/>
<polygon fill="midnightblue" stroke="midnightblue" points="507.91,-58.35 517.92,-54.89 507.93,-51.35 507.91,-58.35"/>
</g>
<!-- Node4 -->
<g id="node4" class="node">
<title>Node4</title>
<g id="a_node4"><a xlink:href="group__grp-solver.html#gabb81f3223c3ab1794fd472276be8fba6" target="_top" xlink:title="Computes the &#160;factorization of &#160;provided LD was allocated before.">
<polygon fill="white" stroke="black" points="354,-86 354,-116 482,-116 482,-86 354,-86"/>
<text text-anchor="start" x="362" y="-104" font-family="Helvetica,sans-Serif" font-size="10.00">ladel_factorize_with</text>
<text text-anchor="middle" x="418" y="-93" font-family="Helvetica,sans-Serif" font-size="10.00">_prior_basis_with_diag</text>
</a>
</g>
</g>
<!-- Node1&#45;&gt;Node4 -->
<g id="edge3" class="edge">
<title>Node1&#45;&gt;Node4</title>
<path fill="none" stroke="midnightblue" d="M515.11,-67.88C498.82,-73.5 479.6,-80.12 462.66,-85.96"/>
<polygon fill="midnightblue" stroke="midnightblue" points="516.52,-71.1 524.84,-64.53 514.24,-64.48 516.52,-71.1"/>
</g>
<!-- Node6 -->
<g id="node6" class="node">
<title>Node6</title>
<g id="a_node6"><a xlink:href="ladel__ldl__symbolic_8c.html#a919feee5783ed6d5ffaff8dff6546976" target="_top" xlink:title="Symbolic part of the factorization.">
<polygon fill="white" stroke="black" points="364.5,-7.5 364.5,-26.5 471.5,-26.5 471.5,-7.5 364.5,-7.5"/>
<text text-anchor="middle" x="418" y="-14.5" font-family="Helvetica,sans-Serif" font-size="10.00">ladel_ldl_symbolic</text>
</a>
</g>
</g>
<!-- Node1&#45;&gt;Node6 -->
<g id="edge5" class="edge">
<title>Node1&#45;&gt;Node6</title>
<path fill="none" stroke="midnightblue" d="M508.97,-42.61C490.69,-37.41 469.75,-31.45 452.68,-26.59"/>
<polygon fill="midnightblue" stroke="midnightblue" points="508.24,-46.04 518.81,-45.41 510.15,-39.31 508.24,-46.04"/>
</g>
<!-- Node3 -->
<g id="node3" class="node">
<title>Node3</title>
<g id="a_node3"><a xlink:href="group__grp-solver.html#gac217d5bb50524bf6bbc0e7fa473edcfb" target="_top" xlink:title="Computes the &#160;factorization of &#160;but allocates based on Mbasis.">
<polygon fill="white" stroke="black" points="0,-44.5 0,-63.5 141,-63.5 141,-44.5 0,-44.5"/>
<text text-anchor="middle" x="70.5" y="-51.5" font-family="Helvetica,sans-Serif" font-size="10.00">ladel_factorize_advanced</text>
</a>
</g>
</g>
<!-- Node2&#45;&gt;Node3 -->
<g id="edge2" class="edge">
<title>Node2&#45;&gt;Node3</title>
<path fill="none" stroke="midnightblue" d="M166.58,-54C158.11,-54 149.55,-54 141.21,-54"/>
<polygon fill="midnightblue" stroke="midnightblue" points="166.83,-57.5 176.83,-54 166.83,-50.5 166.83,-57.5"/>
</g>
<!-- Node5 -->
<g id="node5" class="node">
<title>Node5</title>
<g id="a_node5"><a xlink:href="group__grp-solver.html#ga90783633564102ca42816a7d23eca63b" target="_top" xlink:title="Computes the &#160;factorization of &#160;provided LD was allocated before.">
<polygon fill="white" stroke="black" points="190,-88 190,-118 305,-118 305,-88 190,-88"/>
<text text-anchor="start" x="198" y="-106" font-family="Helvetica,sans-Serif" font-size="10.00">ladel_factorize_with</text>
<text text-anchor="middle" x="247.5" y="-95" font-family="Helvetica,sans-Serif" font-size="10.00">_prior_basis</text>
</a>
</g>
</g>
<!-- Node4&#45;&gt;Node5 -->
<g id="edge4" class="edge">
<title>Node4&#45;&gt;Node5</title>
<path fill="none" stroke="midnightblue" d="M343.55,-101.87C330.68,-102.02 317.47,-102.18 305.14,-102.33"/>
<polygon fill="midnightblue" stroke="midnightblue" points="343.82,-105.37 353.78,-101.75 343.74,-98.37 343.82,-105.37"/>
</g>
<!-- Node6&#45;&gt;Node2 -->
<g id="edge6" class="edge">
<title>Node6&#45;&gt;Node2</title>
<path fill="none" stroke="midnightblue" d="M363.61,-28.72C348.78,-31.98 332.48,-35.56 316.92,-38.98"/>
<polygon fill="midnightblue" stroke="midnightblue" points="364.59,-32.09 373.61,-26.53 363.09,-25.25 364.59,-32.09"/>
</g>
<!-- Node7 -->
<g id="node7" class="node">
<title>Node7</title>
<g id="a_node7"><a xlink:href="group__grp-solver.html#ga129ea878837012c6ac76fb6046bc9449" target="_top" xlink:title="Computes the &#160;factorization of .">
<polygon fill="white" stroke="black" points="177,-0.5 177,-19.5 318,-19.5 318,-0.5 177,-0.5"/>
<text text-anchor="middle" x="247.5" y="-7.5" font-family="Helvetica,sans-Serif" font-size="10.00">ladel_factorize_with_diag</text>
</a>
</g>
</g>
<!-- Node6&#45;&gt;Node7 -->
<g id="edge7" class="edge">
<title>Node6&#45;&gt;Node7</title>
<path fill="none" stroke="midnightblue" d="M354.04,-14.38C342.34,-13.9 330.06,-13.39 318.17,-12.89"/>
<polygon fill="midnightblue" stroke="midnightblue" points="354.01,-17.89 364.15,-14.8 354.3,-10.89 354.01,-17.89"/>
</g>
<!-- Node8 -->
<g id="node8" class="node">
<title>Node8</title>
<g id="a_node8"><a xlink:href="group__grp-solver.html#ga6167c294e588fe34776d40e53c6ddbc9" target="_top" xlink:title="Computes the &#160;factorization of .">
<polygon fill="white" stroke="black" points="26,-0.5 26,-19.5 115,-19.5 115,-0.5 26,-0.5"/>
<text text-anchor="middle" x="70.5" y="-7.5" font-family="Helvetica,sans-Serif" font-size="10.00">ladel_factorize</text>
</a>
</g>
</g>
<!-- Node7&#45;&gt;Node8 -->
<g id="edge8" class="edge">
<title>Node7&#45;&gt;Node8</title>
<path fill="none" stroke="midnightblue" d="M166.51,-10C148.87,-10 130.82,-10 115.25,-10"/>
<polygon fill="midnightblue" stroke="midnightblue" points="166.83,-13.5 176.83,-10 166.83,-6.5 166.83,-13.5"/>
</g>
</g>
</svg>
