<?xml version="1.0" encoding="UTF-8" standalone="no"?>
<!DOCTYPE svg PUBLIC "-//W3C//DTD SVG 1.1//EN"
 "http://www.w3.org/Graphics/SVG/1.1/DTD/svg11.dtd">
<!-- Generated by graphviz version 2.43.0 (0)
 -->
<!-- Title: LADEL/src/ladel_matmat.c Pages: 1 -->
<svg width="465pt" height="252pt"
 viewBox="0.00 0.00 465.00 252.00" xmlns="http://www.w3.org/2000/svg" xmlns:xlink="http://www.w3.org/1999/xlink">
<g id="graph0" class="graph" transform="scale(1 1) rotate(0) translate(4 248)">
<title>LADEL/src/ladel_matmat.c</title>
<polygon fill="white" stroke="transparent" points="-4,4 -4,-248 461,-248 461,4 -4,4"/>
<!-- Node1 -->
<g id="node1" class="node">
<title>Node1</title>
<g id="a_node1"><a xlink:title=" ">
<polygon fill="#bfbfbf" stroke="black" points="195.5,-224.5 195.5,-243.5 340.5,-243.5 340.5,-224.5 195.5,-224.5"/>
<text text-anchor="middle" x="268" y="-231.5" font-family="Helvetica,sans-Serif" font-size="10.00">LADEL/src/ladel_matmat.c</text>
</a>
</g>
</g>
<!-- Node2 -->
<g id="node2" class="node">
<title>Node2</title>
<g id="a_node2"><a xlink:href="ladel__constants_8h.html" target="_top" xlink:title="Constants and macros used in LADEL.">
<polygon fill="white" stroke="black" points="0,-112.5 0,-131.5 102,-131.5 102,-112.5 0,-112.5"/>
<text text-anchor="middle" x="51" y="-119.5" font-family="Helvetica,sans-Serif" font-size="10.00">ladel_constants.h</text>
</a>
</g>
</g>
<!-- Node1&#45;&gt;Node2 -->
<g id="edge1" class="edge">
<title>Node1&#45;&gt;Node2</title>
<path fill="none" stroke="midnightblue" d="M231.35,-224.5C203.36,-217.14 164.4,-204.99 133,-188 107.97,-174.45 82.86,-153.14 67.14,-138.64"/>
<polygon fill="midnightblue" stroke="midnightblue" points="69.51,-136.06 59.83,-131.76 64.72,-141.16 69.51,-136.06"/>
</g>
<!-- Node3 -->
<g id="node3" class="node">
<title>Node3</title>
<g id="a_node3"><a xlink:href="ladel__global_8h.html" target="_top" xlink:title="Memory allocation routines.">
<polygon fill="white" stroke="black" points="142.5,-168.5 142.5,-187.5 227.5,-187.5 227.5,-168.5 142.5,-168.5"/>
<text text-anchor="middle" x="185" y="-175.5" font-family="Helvetica,sans-Serif" font-size="10.00">ladel_global.h</text>
</a>
</g>
</g>
<!-- Node1&#45;&gt;Node3 -->
<g id="edge2" class="edge">
<title>Node1&#45;&gt;Node3</title>
<path fill="none" stroke="midnightblue" d="M254.66,-224.32C241.84,-215.98 222.22,-203.21 207.06,-193.35"/>
<polygon fill="midnightblue" stroke="midnightblue" points="208.59,-190.17 198.3,-187.65 204.78,-196.04 208.59,-190.17"/>
</g>
<!-- Node4 -->
<g id="node4" class="node">
<title>Node4</title>
<g id="a_node4"><a xlink:href="ladel__types_8h.html" target="_top" xlink:title="Structures and types used in LADEL routines.">
<polygon fill="white" stroke="black" points="260,-56.5 260,-75.5 342,-75.5 342,-56.5 260,-56.5"/>
<text text-anchor="middle" x="301" y="-63.5" font-family="Helvetica,sans-Serif" font-size="10.00">ladel_types.h</text>
</a>
</g>
</g>
<!-- Node1&#45;&gt;Node4 -->
<g id="edge10" class="edge">
<title>Node1&#45;&gt;Node4</title>
<path fill="none" stroke="midnightblue" d="M273.79,-224.3C284.66,-207.4 307.76,-168.55 316,-132 319.58,-116.13 314.72,-98.11 309.6,-85.07"/>
<polygon fill="midnightblue" stroke="midnightblue" points="312.78,-83.61 305.59,-75.83 306.35,-86.39 312.78,-83.61"/>
</g>
<!-- Node7 -->
<g id="node7" class="node">
<title>Node7</title>
<g id="a_node7"><a xlink:href="ladel__copy_8h.html" target="_top" xlink:title="Routines to copy matrices and vectors.">
<polygon fill="white" stroke="black" points="229.5,-112.5 229.5,-131.5 306.5,-131.5 306.5,-112.5 229.5,-112.5"/>
<text text-anchor="middle" x="268" y="-119.5" font-family="Helvetica,sans-Serif" font-size="10.00">ladel_copy.h</text>
</a>
</g>
</g>
<!-- Node1&#45;&gt;Node7 -->
<g id="edge11" class="edge">
<title>Node1&#45;&gt;Node7</title>
<path fill="none" stroke="midnightblue" d="M268,-224.37C268,-206.62 268,-165.67 268,-141.6"/>
<polygon fill="midnightblue" stroke="midnightblue" points="271.5,-141.59 268,-131.59 264.5,-141.59 271.5,-141.59"/>
</g>
<!-- Node9 -->
<g id="node9" class="node">
<title>Node9</title>
<g id="a_node9"><a xlink:href="ladel__matmat_8h.html" target="_top" xlink:title="Routines to compute matrix matrix products. For now only &#160;and , with &#160;a diagonal matrix,...">
<polygon fill="white" stroke="black" points="363,-168.5 363,-187.5 457,-187.5 457,-168.5 363,-168.5"/>
<text text-anchor="middle" x="410" y="-175.5" font-family="Helvetica,sans-Serif" font-size="10.00">ladel_matmat.h</text>
</a>
</g>
</g>
<!-- Node1&#45;&gt;Node9 -->
<g id="edge12" class="edge">
<title>Node1&#45;&gt;Node9</title>
<path fill="none" stroke="midnightblue" d="M290.5,-224.44C314.08,-215.48 351.32,-201.31 377.96,-191.18"/>
<polygon fill="midnightblue" stroke="midnightblue" points="379.5,-194.34 387.6,-187.52 377.01,-187.8 379.5,-194.34"/>
</g>
<!-- Node3&#45;&gt;Node2 -->
<g id="edge6" class="edge">
<title>Node3&#45;&gt;Node2</title>
<path fill="none" stroke="midnightblue" d="M163.77,-168.44C141.62,-159.52 106.68,-145.44 81.56,-135.32"/>
<polygon fill="midnightblue" stroke="midnightblue" points="82.72,-132.01 72.13,-131.52 80.1,-138.5 82.72,-132.01"/>
</g>
<!-- Node3&#45;&gt;Node4 -->
<g id="edge3" class="edge">
<title>Node3&#45;&gt;Node4</title>
<path fill="none" stroke="midnightblue" d="M173.94,-168.35C158.81,-155.45 135.03,-130.71 149,-112 171.98,-81.23 215.08,-70.63 249.53,-67.36"/>
<polygon fill="midnightblue" stroke="midnightblue" points="250.21,-70.82 259.92,-66.57 249.68,-63.84 250.21,-70.82"/>
</g>
<!-- Node3&#45;&gt;Node7 -->
<g id="edge7" class="edge">
<title>Node3&#45;&gt;Node7</title>
<path fill="none" stroke="midnightblue" d="M198.34,-168.32C211.16,-159.98 230.78,-147.21 245.94,-137.35"/>
<polygon fill="midnightblue" stroke="midnightblue" points="248.22,-140.04 254.7,-131.65 244.41,-134.17 248.22,-140.04"/>
</g>
<!-- Node8 -->
<g id="node8" class="node">
<title>Node8</title>
<g id="a_node8"><a xlink:title=" ">
<polygon fill="white" stroke="#bfbfbf" points="158.5,-112.5 158.5,-131.5 211.5,-131.5 211.5,-112.5 158.5,-112.5"/>
<text text-anchor="middle" x="185" y="-119.5" font-family="Helvetica,sans-Serif" font-size="10.00">stdlib.h</text>
</a>
</g>
</g>
<!-- Node3&#45;&gt;Node8 -->
<g id="edge9" class="edge">
<title>Node3&#45;&gt;Node8</title>
<path fill="none" stroke="midnightblue" d="M185,-168.08C185,-161.01 185,-150.86 185,-141.99"/>
<polygon fill="midnightblue" stroke="midnightblue" points="188.5,-141.75 185,-131.75 181.5,-141.75 188.5,-141.75"/>
</g>
<!-- Node5 -->
<g id="node5" class="node">
<title>Node5</title>
<g id="a_node5"><a xlink:title=" ">
<polygon fill="white" stroke="#bfbfbf" points="236.5,-0.5 236.5,-19.5 289.5,-19.5 289.5,-0.5 236.5,-0.5"/>
<text text-anchor="middle" x="263" y="-7.5" font-family="Helvetica,sans-Serif" font-size="10.00">stdint.h</text>
</a>
</g>
</g>
<!-- Node4&#45;&gt;Node5 -->
<g id="edge4" class="edge">
<title>Node4&#45;&gt;Node5</title>
<path fill="none" stroke="midnightblue" d="M294.73,-56.08C289.36,-48.46 281.48,-37.26 274.92,-27.94"/>
<polygon fill="midnightblue" stroke="midnightblue" points="277.78,-25.91 269.16,-19.75 272.05,-29.94 277.78,-25.91"/>
</g>
<!-- Node6 -->
<g id="node6" class="node">
<title>Node6</title>
<g id="a_node6"><a xlink:title=" ">
<polygon fill="white" stroke="#bfbfbf" points="307.5,-0.5 307.5,-19.5 372.5,-19.5 372.5,-0.5 307.5,-0.5"/>
<text text-anchor="middle" x="340" y="-7.5" font-family="Helvetica,sans-Serif" font-size="10.00">inttypes.h</text>
</a>
</g>
</g>
<!-- Node4&#45;&gt;Node6 -->
<g id="edge5" class="edge">
<title>Node4&#45;&gt;Node6</title>
<path fill="none" stroke="midnightblue" d="M307.44,-56.08C312.95,-48.46 321.03,-37.26 327.76,-27.94"/>
<polygon fill="midnightblue" stroke="midnightblue" points="330.66,-29.91 333.68,-19.75 324.99,-25.81 330.66,-29.91"/>
</g>
<!-- Node7&#45;&gt;Node4 -->
<g id="edge8" class="edge">
<title>Node7&#45;&gt;Node4</title>
<path fill="none" stroke="midnightblue" d="M273.45,-112.08C278.01,-104.61 284.67,-93.72 290.29,-84.52"/>
<polygon fill="midnightblue" stroke="midnightblue" points="293.42,-86.11 295.65,-75.75 287.45,-82.46 293.42,-86.11"/>
</g>
<!-- Node9&#45;&gt;Node4 -->
<g id="edge13" class="edge">
<title>Node9&#45;&gt;Node4</title>
<path fill="none" stroke="midnightblue" d="M402.27,-168.42C390.86,-155.83 368.7,-131.69 349,-112 339,-102.01 327.45,-91.16 318.19,-82.62"/>
<polygon fill="midnightblue" stroke="midnightblue" points="320.47,-79.96 310.73,-75.79 315.74,-85.12 320.47,-79.96"/>
</g>
</g>
</svg>
