<?xml version="1.0" encoding="UTF-8" standalone="no"?>
<!DOCTYPE svg PUBLIC "-//W3C//DTD SVG 1.1//EN"
 "http://www.w3.org/Graphics/SVG/1.1/DTD/svg11.dtd">
<!-- Generated by graphviz version 2.43.0 (0)
 -->
<!-- Title: LADEL/include/ladel_permutation.h Pages: 1 -->
<!--zoomable 173 -->
<svg id="main" version="1.1" xmlns="http://www.w3.org/2000/svg" xmlns:xlink="http://www.w3.org/1999/xlink" xml:space="preserve" onload="init(evt)">
<style type="text/css"><![CDATA[
.edge:hover path { stroke: red; }
.edge:hover polygon { stroke: red; fill: red; }
]]></style>
<script type="text/javascript"><![CDATA[
var edges = document.getElementsByTagName('g');
if (edges && edges.length) {
  for (var i=0;i<edges.length;i++) {
    if (edges[i].id.substr(0,4)=='edge') {
      edges[i].setAttribute('class','edge');
    }
  }
}
]]></script>
        <defs>
                <circle id="rim" cx="0" cy="0" r="7"/>
                <circle id="rim2" cx="0" cy="0" r="3.5"/>
                <g id="zoomPlus">
                        <use xlink:href="#rim" fill="#404040">
                                <set attributeName="fill" to="#808080" begin="zoomplus.mouseover" end="zoomplus.mouseout"/>
                        </use>
                        <path d="M-4,0h8M0,-4v8" fill="none" stroke="white" stroke-width="1.5" pointer-events="none"/>
                </g>
                <g id="zoomMin">
                        <use xlink:href="#rim" fill="#404040">
                                <set attributeName="fill" to="#808080" begin="zoomminus.mouseover" end="zoomminus.mouseout"/>
                        </use>
                        <path d="M-4,0h8" fill="none" stroke="white" stroke-width="1.5" pointer-events="none"/>
                </g>
                <g id="dirArrow">
                        <path fill="none" stroke="white" stroke-width="1.5" d="M0,-3.0v7 M-2.5,-0.5L0,-3.0L2.5,-0.5"/>
                </g>
               <g id="resetDef">
                       <use xlink:href="#rim2" fill="#404040">
                               <set attributeName="fill" to="#808080" begin="reset.mouseover" end="reset.mouseout"/>
                       </use>
               </g>
        </defs>

<script type="text/javascript">
var viewWidth = 504;
var viewHeight = 173;
var sectionId = 'dynsection-1';
</script>
<script xlink:href="svgpan.js"/>
<svg id="graph" class="graph">
<g id="viewport">
<title>LADEL/include/ladel_permutation.h</title>
<polygon fill="white" stroke="transparent" points="-4,4 -4,-169 499.5,-169 499.5,4 -4,4"/>
<!-- Node1 -->
<g id="node1" class="node">
<title>Node1</title>
<g id="a_node1"><a xlink:title="Routines to permute vectors and matrices.">
<polygon fill="#bfbfbf" stroke="black" points="147,-134.5 147,-164.5 260,-164.5 260,-134.5 147,-134.5"/>
<text text-anchor="start" x="155" y="-152.5" font-family="Helvetica,sans-Serif" font-size="10.00">LADEL/include/ladel</text>
<text text-anchor="middle" x="203.5" y="-141.5" font-family="Helvetica,sans-Serif" font-size="10.00">_permutation.h</text>
</a>
</g>
</g>
<!-- Node2 -->
<g id="node2" class="node">
<title>Node2</title>
<g id="a_node2"><a xlink:href="ladel_8h.html" target="_top" xlink:title="LADEL main include file.">
<polygon fill="white" stroke="black" points="53.5,-73 53.5,-92 175.5,-92 175.5,-73 53.5,-73"/>
<text text-anchor="middle" x="114.5" y="-80" font-family="Helvetica,sans-Serif" font-size="10.00">LADEL/include/ladel.h</text>
</a>
</g>
</g>
<!-- Node1&#45;&gt;Node2 -->
<g id="edge1" class="edge">
<title>Node1&#45;&gt;Node2</title>
<path fill="none" stroke="midnightblue" d="M175.85,-128.31C159.14,-116.1 138.7,-101.18 126.15,-92.01"/>
<polygon fill="midnightblue" stroke="midnightblue" points="174.05,-131.32 184.19,-134.4 178.18,-125.67 174.05,-131.32"/>
</g>
<!-- Node3 -->
<g id="node3" class="node">
<title>Node3</title>
<g id="a_node3"><a xlink:href="ladel_8c.html" target="_top" xlink:title=" ">
<polygon fill="white" stroke="black" points="0,-6 0,-25 101,-25 101,-6 0,-6"/>
<text text-anchor="middle" x="50.5" y="-13" font-family="Helvetica,sans-Serif" font-size="10.00">LADEL/src/ladel.c</text>
</a>
</g>
</g>
<!-- Node1&#45;&gt;Node3 -->
<g id="edge4" class="edge">
<title>Node1&#45;&gt;Node3</title>
<path fill="none" stroke="midnightblue" d="M136.58,-145.09C103.21,-139.58 65.58,-126.81 44.5,-98 28.42,-76.02 39.83,-41.16 46.55,-25.11"/>
<polygon fill="midnightblue" stroke="midnightblue" points="136.37,-148.59 146.77,-146.57 137.38,-141.67 136.37,-148.59"/>
</g>
<!-- Node4 -->
<g id="node4" class="node">
<title>Node4</title>
<g id="a_node4"><a xlink:href="ladel__row__mod_8c.html" target="_top" xlink:title=" ">
<polygon fill="white" stroke="black" points="132.5,-0.5 132.5,-30.5 248.5,-30.5 248.5,-0.5 132.5,-0.5"/>
<text text-anchor="start" x="140.5" y="-18.5" font-family="Helvetica,sans-Serif" font-size="10.00">LADEL/src/ladel_row</text>
<text text-anchor="middle" x="190.5" y="-7.5" font-family="Helvetica,sans-Serif" font-size="10.00">_mod.c</text>
</a>
</g>
</g>
<!-- Node1&#45;&gt;Node4 -->
<g id="edge7" class="edge">
<title>Node1&#45;&gt;Node4</title>
<path fill="none" stroke="midnightblue" d="M201.13,-124.39C198.42,-96.9 194.08,-52.89 191.88,-30.52"/>
<polygon fill="midnightblue" stroke="midnightblue" points="197.65,-124.76 202.11,-134.37 204.61,-124.08 197.65,-124.76"/>
</g>
<!-- Node5 -->
<g id="node5" class="node">
<title>Node5</title>
<g id="a_node5"><a xlink:href="ladel__global_8c.html" target="_top" xlink:title=" ">
<polygon fill="white" stroke="black" points="231.5,-73 231.5,-92 367.5,-92 367.5,-73 231.5,-73"/>
<text text-anchor="middle" x="299.5" y="-80" font-family="Helvetica,sans-Serif" font-size="10.00">LADEL/src/ladel_global.c</text>
</a>
</g>
</g>
<!-- Node1&#45;&gt;Node5 -->
<g id="edge5" class="edge">
<title>Node1&#45;&gt;Node5</title>
<path fill="none" stroke="midnightblue" d="M232.83,-128.64C250.95,-116.37 273.27,-101.26 286.94,-92.01"/>
<polygon fill="midnightblue" stroke="midnightblue" points="230.65,-125.89 224.33,-134.4 234.57,-131.69 230.65,-125.89"/>
</g>
<!-- Node6 -->
<g id="node6" class="node">
<title>Node6</title>
<g id="a_node6"><a xlink:href="ladel__ldl__symbolic_8c.html" target="_top" xlink:title=" ">
<polygon fill="white" stroke="black" points="385.5,-67.5 385.5,-97.5 495.5,-97.5 495.5,-67.5 385.5,-67.5"/>
<text text-anchor="start" x="393.5" y="-85.5" font-family="Helvetica,sans-Serif" font-size="10.00">LADEL/src/ladel_ldl</text>
<text text-anchor="middle" x="440.5" y="-74.5" font-family="Helvetica,sans-Serif" font-size="10.00">_symbolic.c</text>
</a>
</g>
</g>
<!-- Node1&#45;&gt;Node6 -->
<g id="edge6" class="edge">
<title>Node1&#45;&gt;Node6</title>
<path fill="none" stroke="midnightblue" d="M264.7,-131.71C303.27,-121.14 352.5,-107.63 389.05,-97.61"/>
<polygon fill="midnightblue" stroke="midnightblue" points="263.35,-128.46 254.63,-134.48 265.2,-135.21 263.35,-128.46"/>
</g>
<!-- Node2&#45;&gt;Node3 -->
<g id="edge2" class="edge">
<title>Node2&#45;&gt;Node3</title>
<path fill="none" stroke="midnightblue" d="M98.74,-65.5C86.19,-52.75 69.1,-35.39 58.99,-25.13"/>
<polygon fill="midnightblue" stroke="midnightblue" points="96.36,-68.06 105.87,-72.73 101.35,-63.15 96.36,-68.06"/>
</g>
<!-- Node2&#45;&gt;Node4 -->
<g id="edge3" class="edge">
<title>Node2&#45;&gt;Node4</title>
<path fill="none" stroke="midnightblue" d="M132.71,-65.93C145.28,-55.18 161.85,-41 174.03,-30.59"/>
<polygon fill="midnightblue" stroke="midnightblue" points="130.07,-63.57 124.75,-72.73 134.62,-68.89 130.07,-63.57"/>
</g>
</g>
</svg>
        <g id="navigator" transform="translate(0 0)" fill="#404254">
                <rect fill="#f2f5e9" fill-opacity="0.5" stroke="#606060" stroke-width=".5" x="0" y="0" width="60" height="60"/>
                <use id="zoomplus" xlink:href="#zoomPlus" x="17" y="9" onmousedown="handleZoom(evt,'in')"/>
                <use id="zoomminus" xlink:href="#zoomMin" x="42" y="9" onmousedown="handleZoom(evt,'out')"/>
                <use id="reset" xlink:href="#resetDef" x="30" y="36" onmousedown="handleReset()"/>
                <g id="arrowUp" xlink:href="#dirArrow" transform="translate(30 24)" onmousedown="handlePan(0,-1)">
                  <use xlink:href="#rim" fill="#404040">
                        <set attributeName="fill" to="#808080" begin="arrowUp.mouseover" end="arrowUp.mouseout"/>
                  </use>
                  <path fill="none" stroke="white" stroke-width="1.5" d="M0,-3.0v7 M-2.5,-0.5L0,-3.0L2.5,-0.5"/>
                </g>
                <g id="arrowRight" xlink:href="#dirArrow" transform="rotate(90) translate(36 -43)" onmousedown="handlePan(1,0)">
                  <use xlink:href="#rim" fill="#404040">
                        <set attributeName="fill" to="#808080" begin="arrowRight.mouseover" end="arrowRight.mouseout"/>
                  </use>
                  <path fill="none" stroke="white" stroke-width="1.5" d="M0,-3.0v7 M-2.5,-0.5L0,-3.0L2.5,-0.5"/>
                </g>
                <g id="arrowDown" xlink:href="#dirArrow" transform="rotate(180) translate(-30 -48)" onmousedown="handlePan(0,1)">
                  <use xlink:href="#rim" fill="#404040">
                        <set attributeName="fill" to="#808080" begin="arrowDown.mouseover" end="arrowDown.mouseout"/>
                  </use>
                  <path fill="none" stroke="white" stroke-width="1.5" d="M0,-3.0v7 M-2.5,-0.5L0,-3.0L2.5,-0.5"/>
                </g>
                <g id="arrowLeft" xlink:href="#dirArrow" transform="rotate(270) translate(-36 17)" onmousedown="handlePan(-1,0)">
                  <use xlink:href="#rim" fill="#404040">
                        <set attributeName="fill" to="#808080" begin="arrowLeft.mouseover" end="arrowLeft.mouseout"/>
                  </use>
                  <path fill="none" stroke="white" stroke-width="1.5" d="M0,-3.0v7 M-2.5,-0.5L0,-3.0L2.5,-0.5"/>
                </g>
        </g>
        <svg viewBox="0 0 15 15" width="100%" height="30px" preserveAspectRatio="xMaxYMin meet">
         <g id="arrow_out" transform="scale(0.3 0.3)">
          <a xlink:href="ladel__permutation_8h__dep__incl_org.svg" target="_base">
           <rect id="button" ry="5" rx="5" y="6" x="6" height="38" width="38"
                fill="#f2f5e9" fill-opacity="0.5" stroke="#606060" stroke-width="1.0"/>
           <path id="arrow"
             d="M 11.500037,31.436501 C 11.940474,20.09759 22.043105,11.32322 32.158766,21.979434 L 37.068811,17.246167 C 37.068811,17.246167 37.088388,32 37.088388,32 L 22.160133,31.978069 C 22.160133,31.978069 26.997745,27.140456 26.997745,27.140456 C 18.528582,18.264221 13.291696,25.230495 11.500037,31.436501 z"
             style="fill:#404040;"/>
          </a>
         </g>
        </svg>
</svg>
