<?xml version="1.0" encoding="UTF-8" standalone="no"?>
<!DOCTYPE svg PUBLIC "-//W3C//DTD SVG 1.1//EN"
 "http://www.w3.org/Graphics/SVG/1.1/DTD/svg11.dtd">
<!-- Generated by graphviz version 2.43.0 (0)
 -->
<!-- Title: LADEL/src/ladel_matvec.c Pages: 1 -->
<svg width="344pt" height="308pt"
 viewBox="0.00 0.00 344.16 308.00" xmlns="http://www.w3.org/2000/svg" xmlns:xlink="http://www.w3.org/1999/xlink">
<g id="graph0" class="graph" transform="scale(1 1) rotate(0) translate(4 304)">
<title>LADEL/src/ladel_matvec.c</title>
<polygon fill="white" stroke="transparent" points="-4,4 -4,-304 340.16,-304 340.16,4 -4,4"/>
<!-- Node1 -->
<g id="node1" class="node">
<title>Node1</title>
<g id="a_node1"><a xlink:title=" ">
<polygon fill="#bfbfbf" stroke="black" points="51.46,-280.5 51.46,-299.5 194.46,-299.5 194.46,-280.5 51.46,-280.5"/>
<text text-anchor="middle" x="122.96" y="-287.5" font-family="Helvetica,sans-Serif" font-size="10.00">LADEL/src/ladel_matvec.c</text>
</a>
</g>
</g>
<!-- Node2 -->
<g id="node2" class="node">
<title>Node2</title>
<g id="a_node2"><a xlink:href="ladel__global_8h.html" target="_top" xlink:title="Memory allocation routines.">
<polygon fill="white" stroke="black" points="117.46,-168.5 117.46,-187.5 202.46,-187.5 202.46,-168.5 117.46,-168.5"/>
<text text-anchor="middle" x="159.96" y="-175.5" font-family="Helvetica,sans-Serif" font-size="10.00">ladel_global.h</text>
</a>
</g>
</g>
<!-- Node1&#45;&gt;Node2 -->
<g id="edge1" class="edge">
<title>Node1&#45;&gt;Node2</title>
<path fill="none" stroke="midnightblue" d="M125.27,-280.08C128.61,-267.48 135.13,-243.78 141.96,-224 145.09,-214.94 148.99,-205.03 152.37,-196.83"/>
<polygon fill="midnightblue" stroke="midnightblue" points="155.63,-198.11 156.26,-187.53 149.17,-195.41 155.63,-198.11"/>
</g>
<!-- Node3 -->
<g id="node3" class="node">
<title>Node3</title>
<g id="a_node3"><a xlink:href="ladel__types_8h.html" target="_top" xlink:title="Structures and types used in LADEL routines.">
<polygon fill="white" stroke="black" points="77.96,-56.5 77.96,-75.5 159.96,-75.5 159.96,-56.5 77.96,-56.5"/>
<text text-anchor="middle" x="118.96" y="-63.5" font-family="Helvetica,sans-Serif" font-size="10.00">ladel_types.h</text>
</a>
</g>
</g>
<!-- Node1&#45;&gt;Node3 -->
<g id="edge9" class="edge">
<title>Node1&#45;&gt;Node3</title>
<path fill="none" stroke="midnightblue" d="M112.81,-280.42C87.99,-258.69 24.59,-198.45 1.96,-132 -9.1,-99.53 31.5,-82.89 67.86,-74.63"/>
<polygon fill="midnightblue" stroke="midnightblue" points="68.88,-77.99 77.95,-72.51 67.45,-71.14 68.88,-77.99"/>
</g>
<!-- Node9 -->
<g id="node9" class="node">
<title>Node9</title>
<g id="a_node9"><a xlink:href="ladel__matvec_8h.html" target="_top" xlink:title="Routines to compute matrix vector products.">
<polygon fill="white" stroke="black" points="150.96,-224.5 150.96,-243.5 242.96,-243.5 242.96,-224.5 150.96,-224.5"/>
<text text-anchor="middle" x="196.96" y="-231.5" font-family="Helvetica,sans-Serif" font-size="10.00">ladel_matvec.h</text>
</a>
</g>
</g>
<!-- Node1&#45;&gt;Node9 -->
<g id="edge10" class="edge">
<title>Node1&#45;&gt;Node9</title>
<path fill="none" stroke="midnightblue" d="M134.85,-280.32C146.11,-272.11 163.24,-259.6 176.67,-249.81"/>
<polygon fill="midnightblue" stroke="midnightblue" points="178.84,-252.56 184.85,-243.83 174.71,-246.9 178.84,-252.56"/>
</g>
<!-- Node2&#45;&gt;Node3 -->
<g id="edge2" class="edge">
<title>Node2&#45;&gt;Node3</title>
<path fill="none" stroke="midnightblue" d="M163.83,-168.17C168.89,-155.26 176.19,-130.74 167.96,-112 162.57,-99.73 152,-89.34 142.05,-81.65"/>
<polygon fill="midnightblue" stroke="midnightblue" points="143.79,-78.58 133.62,-75.6 139.71,-84.27 143.79,-78.58"/>
</g>
<!-- Node6 -->
<g id="node6" class="node">
<title>Node6</title>
<g id="a_node6"><a xlink:href="ladel__constants_8h.html" target="_top" xlink:title="Constants and macros used in LADEL.">
<polygon fill="white" stroke="black" points="215.96,-112.5 215.96,-131.5 317.96,-131.5 317.96,-112.5 215.96,-112.5"/>
<text text-anchor="middle" x="266.96" y="-119.5" font-family="Helvetica,sans-Serif" font-size="10.00">ladel_constants.h</text>
</a>
</g>
</g>
<!-- Node2&#45;&gt;Node6 -->
<g id="edge5" class="edge">
<title>Node2&#45;&gt;Node6</title>
<path fill="none" stroke="midnightblue" d="M177.15,-168.32C194.31,-159.66 220.9,-146.24 240.71,-136.25"/>
<polygon fill="midnightblue" stroke="midnightblue" points="242.46,-139.28 249.81,-131.65 239.3,-133.04 242.46,-139.28"/>
</g>
<!-- Node7 -->
<g id="node7" class="node">
<title>Node7</title>
<g id="a_node7"><a xlink:href="ladel__copy_8h.html" target="_top" xlink:title="Routines to copy matrices and vectors.">
<polygon fill="white" stroke="black" points="11.46,-112.5 11.46,-131.5 88.46,-131.5 88.46,-112.5 11.46,-112.5"/>
<text text-anchor="middle" x="49.96" y="-119.5" font-family="Helvetica,sans-Serif" font-size="10.00">ladel_copy.h</text>
</a>
</g>
</g>
<!-- Node2&#45;&gt;Node7 -->
<g id="edge6" class="edge">
<title>Node2&#45;&gt;Node7</title>
<path fill="none" stroke="midnightblue" d="M142.28,-168.32C124.56,-159.62 97.05,-146.12 76.67,-136.11"/>
<polygon fill="midnightblue" stroke="midnightblue" points="78.11,-132.92 67.59,-131.65 75.02,-139.2 78.11,-132.92"/>
</g>
<!-- Node8 -->
<g id="node8" class="node">
<title>Node8</title>
<g id="a_node8"><a xlink:title=" ">
<polygon fill="white" stroke="#bfbfbf" points="106.46,-112.5 106.46,-131.5 159.46,-131.5 159.46,-112.5 106.46,-112.5"/>
<text text-anchor="middle" x="132.96" y="-119.5" font-family="Helvetica,sans-Serif" font-size="10.00">stdlib.h</text>
</a>
</g>
</g>
<!-- Node2&#45;&gt;Node8 -->
<g id="edge8" class="edge">
<title>Node2&#45;&gt;Node8</title>
<path fill="none" stroke="midnightblue" d="M155.5,-168.08C151.8,-160.69 146.43,-149.95 141.86,-140.81"/>
<polygon fill="midnightblue" stroke="midnightblue" points="144.94,-139.13 137.33,-131.75 138.68,-142.26 144.94,-139.13"/>
</g>
<!-- Node4 -->
<g id="node4" class="node">
<title>Node4</title>
<g id="a_node4"><a xlink:title=" ">
<polygon fill="white" stroke="#bfbfbf" points="54.46,-0.5 54.46,-19.5 107.46,-19.5 107.46,-0.5 54.46,-0.5"/>
<text text-anchor="middle" x="80.96" y="-7.5" font-family="Helvetica,sans-Serif" font-size="10.00">stdint.h</text>
</a>
</g>
</g>
<!-- Node3&#45;&gt;Node4 -->
<g id="edge3" class="edge">
<title>Node3&#45;&gt;Node4</title>
<path fill="none" stroke="midnightblue" d="M112.68,-56.08C107.32,-48.46 99.44,-37.26 92.88,-27.94"/>
<polygon fill="midnightblue" stroke="midnightblue" points="95.73,-25.91 87.12,-19.75 90.01,-29.94 95.73,-25.91"/>
</g>
<!-- Node5 -->
<g id="node5" class="node">
<title>Node5</title>
<g id="a_node5"><a xlink:title=" ">
<polygon fill="white" stroke="#bfbfbf" points="125.46,-0.5 125.46,-19.5 190.46,-19.5 190.46,-0.5 125.46,-0.5"/>
<text text-anchor="middle" x="157.96" y="-7.5" font-family="Helvetica,sans-Serif" font-size="10.00">inttypes.h</text>
</a>
</g>
</g>
<!-- Node3&#45;&gt;Node5 -->
<g id="edge4" class="edge">
<title>Node3&#45;&gt;Node5</title>
<path fill="none" stroke="midnightblue" d="M125.4,-56.08C130.91,-48.46 138.99,-37.26 145.72,-27.94"/>
<polygon fill="midnightblue" stroke="midnightblue" points="148.62,-29.91 151.64,-19.75 142.95,-25.81 148.62,-29.91"/>
</g>
<!-- Node7&#45;&gt;Node3 -->
<g id="edge7" class="edge">
<title>Node7&#45;&gt;Node3</title>
<path fill="none" stroke="midnightblue" d="M61.04,-112.32C71.44,-104.18 87.22,-91.84 99.68,-82.09"/>
<polygon fill="midnightblue" stroke="midnightblue" points="101.95,-84.75 107.67,-75.83 97.64,-79.24 101.95,-84.75"/>
</g>
<!-- Node9&#45;&gt;Node2 -->
<g id="edge11" class="edge">
<title>Node9&#45;&gt;Node2</title>
<path fill="none" stroke="midnightblue" d="M190.85,-224.08C185.68,-216.53 178.11,-205.49 171.76,-196.23"/>
<polygon fill="midnightblue" stroke="midnightblue" points="174.49,-194.02 165.95,-187.75 168.72,-197.98 174.49,-194.02"/>
</g>
<!-- Node9&#45;&gt;Node3 -->
<g id="edge12" class="edge">
<title>Node9&#45;&gt;Node3</title>
<path fill="none" stroke="midnightblue" d="M219.86,-224.5C266.56,-205.91 365.29,-159.51 326.96,-112 307.67,-88.09 225.68,-76.26 170.58,-70.9"/>
<polygon fill="midnightblue" stroke="midnightblue" points="170.57,-67.38 160.29,-69.94 169.92,-74.35 170.57,-67.38"/>
</g>
</g>
</svg>
