<?xml version="1.0" encoding="UTF-8" standalone="no"?>
<!DOCTYPE svg PUBLIC "-//W3C//DTD SVG 1.1//EN"
 "http://www.w3.org/Graphics/SVG/1.1/DTD/svg11.dtd">
<!-- Generated by graphviz version 2.43.0 (0)
 -->
<!-- Title: ladel_factor_free Pages: 1 -->
<svg width="347pt" height="47pt"
 viewBox="0.00 0.00 347.00 47.00" xmlns="http://www.w3.org/2000/svg" xmlns:xlink="http://www.w3.org/1999/xlink">
<g id="graph0" class="graph" transform="scale(1 1) rotate(0) translate(4 43)">
<title>ladel_factor_free</title>
<polygon fill="white" stroke="transparent" points="-4,4 -4,-43 343,-43 343,4 -4,4"/>
<!-- Node1 -->
<g id="node1" class="node">
<title>Node1</title>
<g id="a_node1"><a xlink:title="Free a factor.">
<polygon fill="#bfbfbf" stroke="black" points="0,-19.5 0,-38.5 99,-38.5 99,-19.5 0,-19.5"/>
<text text-anchor="middle" x="49.5" y="-26.5" font-family="Helvetica,sans-Serif" font-size="10.00">ladel_factor_free</text>
</a>
</g>
</g>
<!-- Node2 -->
<g id="node2" class="node">
<title>Node2</title>
<g id="a_node2"><a xlink:href="ladel__global_8c.html#a946ae8034525eb6db42d4a166be57968" target="_top" xlink:title="Version of free (for mex or for regular C).">
<polygon fill="white" stroke="black" points="274,-19.5 274,-38.5 339,-38.5 339,-19.5 274,-19.5"/>
<text text-anchor="middle" x="306.5" y="-26.5" font-family="Helvetica,sans-Serif" font-size="10.00">ladel_free</text>
</a>
</g>
</g>
<!-- Node1&#45;&gt;Node2 -->
<g id="edge1" class="edge">
<title>Node1&#45;&gt;Node2</title>
<path fill="none" stroke="midnightblue" d="M99.06,-29C146.66,-29 218.44,-29 263.6,-29"/>
<polygon fill="midnightblue" stroke="midnightblue" points="263.64,-32.5 273.64,-29 263.64,-25.5 263.64,-32.5"/>
</g>
<!-- Node3 -->
<g id="node3" class="node">
<title>Node3</title>
<g id="a_node3"><a xlink:href="ladel__global_8c.html#afaa07a7aa3c8517d3853968448b398a0" target="_top" xlink:title="Free a sparse matrix (and return NULL).">
<polygon fill="white" stroke="black" points="135,-0.5 135,-19.5 238,-19.5 238,-0.5 135,-0.5"/>
<text text-anchor="middle" x="186.5" y="-7.5" font-family="Helvetica,sans-Serif" font-size="10.00">ladel_sparse_free</text>
</a>
</g>
</g>
<!-- Node1&#45;&gt;Node3 -->
<g id="edge2" class="edge">
<title>Node1&#45;&gt;Node3</title>
<path fill="none" stroke="midnightblue" d="M99.24,-22.14C107.4,-20.99 115.96,-19.79 124.38,-18.6"/>
<polygon fill="midnightblue" stroke="midnightblue" points="125.14,-22.03 134.56,-17.17 124.17,-15.1 125.14,-22.03"/>
</g>
<!-- Node3&#45;&gt;Node2 -->
<g id="edge3" class="edge">
<title>Node3&#45;&gt;Node2</title>
<path fill="none" stroke="midnightblue" d="M238.23,-18.17C246.75,-19.54 255.5,-20.95 263.76,-22.28"/>
<polygon fill="midnightblue" stroke="midnightblue" points="263.48,-25.78 273.91,-23.91 264.59,-18.87 263.48,-25.78"/>
</g>
</g>
</svg>
