<?xml version="1.0" encoding="UTF-8" standalone="no"?>
<!DOCTYPE svg PUBLIC "-//W3C//DTD SVG 1.1//EN"
 "http://www.w3.org/Graphics/SVG/1.1/DTD/svg11.dtd">
<!-- Generated by graphviz version 2.43.0 (0)
 -->
<!-- Title: LADEL/src/ladel_transpose.c Pages: 1 -->
<svg width="341pt" height="252pt"
 viewBox="0.00 0.00 340.50 252.00" xmlns="http://www.w3.org/2000/svg" xmlns:xlink="http://www.w3.org/1999/xlink">
<g id="graph0" class="graph" transform="scale(1 1) rotate(0) translate(4 248)">
<title>LADEL/src/ladel_transpose.c</title>
<polygon fill="white" stroke="transparent" points="-4,4 -4,-248 336.5,-248 336.5,4 -4,4"/>
<!-- Node1 -->
<g id="node1" class="node">
<title>Node1</title>
<g id="a_node1"><a xlink:title=" ">
<polygon fill="#bfbfbf" stroke="black" points="0,-224.5 0,-243.5 154,-243.5 154,-224.5 0,-224.5"/>
<text text-anchor="middle" x="77" y="-231.5" font-family="Helvetica,sans-Serif" font-size="10.00">LADEL/src/ladel_transpose.c</text>
</a>
</g>
</g>
<!-- Node2 -->
<g id="node2" class="node">
<title>Node2</title>
<g id="a_node2"><a xlink:href="ladel__types_8h.html" target="_top" xlink:title="Structures and types used in LADEL routines.">
<polygon fill="white" stroke="black" points="115,-56.5 115,-75.5 197,-75.5 197,-56.5 115,-56.5"/>
<text text-anchor="middle" x="156" y="-63.5" font-family="Helvetica,sans-Serif" font-size="10.00">ladel_types.h</text>
</a>
</g>
</g>
<!-- Node1&#45;&gt;Node2 -->
<g id="edge1" class="edge">
<title>Node1&#45;&gt;Node2</title>
<path fill="none" stroke="midnightblue" d="M66.4,-224.23C42.6,-203.5 -10.86,-150.3 17,-112 36.91,-84.63 73.82,-73.57 104.6,-69.25"/>
<polygon fill="midnightblue" stroke="midnightblue" points="105.26,-72.69 114.77,-68.03 104.43,-65.74 105.26,-72.69"/>
</g>
<!-- Node5 -->
<g id="node5" class="node">
<title>Node5</title>
<g id="a_node5"><a xlink:href="ladel__global_8h.html" target="_top" xlink:title="Memory allocation routines.">
<polygon fill="white" stroke="black" points="113.5,-168.5 113.5,-187.5 198.5,-187.5 198.5,-168.5 113.5,-168.5"/>
<text text-anchor="middle" x="156" y="-175.5" font-family="Helvetica,sans-Serif" font-size="10.00">ladel_global.h</text>
</a>
</g>
</g>
<!-- Node1&#45;&gt;Node5 -->
<g id="edge4" class="edge">
<title>Node1&#45;&gt;Node5</title>
<path fill="none" stroke="midnightblue" d="M89.69,-224.32C101.9,-215.98 120.58,-203.21 135,-193.35"/>
<polygon fill="midnightblue" stroke="midnightblue" points="137.06,-196.19 143.34,-187.65 133.11,-190.41 137.06,-196.19"/>
</g>
<!-- Node6 -->
<g id="node6" class="node">
<title>Node6</title>
<g id="a_node6"><a xlink:href="ladel__constants_8h.html" target="_top" xlink:title="Constants and macros used in LADEL.">
<polygon fill="white" stroke="black" points="26,-112.5 26,-131.5 128,-131.5 128,-112.5 26,-112.5"/>
<text text-anchor="middle" x="77" y="-119.5" font-family="Helvetica,sans-Serif" font-size="10.00">ladel_constants.h</text>
</a>
</g>
</g>
<!-- Node1&#45;&gt;Node6 -->
<g id="edge10" class="edge">
<title>Node1&#45;&gt;Node6</title>
<path fill="none" stroke="midnightblue" d="M77,-224.37C77,-206.62 77,-165.67 77,-141.6"/>
<polygon fill="midnightblue" stroke="midnightblue" points="80.5,-141.59 77,-131.59 73.5,-141.59 80.5,-141.59"/>
</g>
<!-- Node3 -->
<g id="node3" class="node">
<title>Node3</title>
<g id="a_node3"><a xlink:title=" ">
<polygon fill="white" stroke="#bfbfbf" points="91.5,-0.5 91.5,-19.5 144.5,-19.5 144.5,-0.5 91.5,-0.5"/>
<text text-anchor="middle" x="118" y="-7.5" font-family="Helvetica,sans-Serif" font-size="10.00">stdint.h</text>
</a>
</g>
</g>
<!-- Node2&#45;&gt;Node3 -->
<g id="edge2" class="edge">
<title>Node2&#45;&gt;Node3</title>
<path fill="none" stroke="midnightblue" d="M149.73,-56.08C144.36,-48.46 136.48,-37.26 129.92,-27.94"/>
<polygon fill="midnightblue" stroke="midnightblue" points="132.78,-25.91 124.16,-19.75 127.05,-29.94 132.78,-25.91"/>
</g>
<!-- Node4 -->
<g id="node4" class="node">
<title>Node4</title>
<g id="a_node4"><a xlink:title=" ">
<polygon fill="white" stroke="#bfbfbf" points="162.5,-0.5 162.5,-19.5 227.5,-19.5 227.5,-0.5 162.5,-0.5"/>
<text text-anchor="middle" x="195" y="-7.5" font-family="Helvetica,sans-Serif" font-size="10.00">inttypes.h</text>
</a>
</g>
</g>
<!-- Node2&#45;&gt;Node4 -->
<g id="edge3" class="edge">
<title>Node2&#45;&gt;Node4</title>
<path fill="none" stroke="midnightblue" d="M162.44,-56.08C167.95,-48.46 176.03,-37.26 182.76,-27.94"/>
<polygon fill="midnightblue" stroke="midnightblue" points="185.66,-29.91 188.68,-19.75 179.99,-25.81 185.66,-29.91"/>
</g>
<!-- Node5&#45;&gt;Node2 -->
<g id="edge5" class="edge">
<title>Node5&#45;&gt;Node2</title>
<path fill="none" stroke="midnightblue" d="M156,-168.37C156,-150.62 156,-109.67 156,-85.6"/>
<polygon fill="midnightblue" stroke="midnightblue" points="159.5,-85.59 156,-75.59 152.5,-85.59 159.5,-85.59"/>
</g>
<!-- Node5&#45;&gt;Node6 -->
<g id="edge6" class="edge">
<title>Node5&#45;&gt;Node6</title>
<path fill="none" stroke="midnightblue" d="M143.31,-168.32C131.1,-159.98 112.42,-147.21 98,-137.35"/>
<polygon fill="midnightblue" stroke="midnightblue" points="99.89,-134.41 89.66,-131.65 95.94,-140.19 99.89,-134.41"/>
</g>
<!-- Node7 -->
<g id="node7" class="node">
<title>Node7</title>
<g id="a_node7"><a xlink:href="ladel__copy_8h.html" target="_top" xlink:title="Routines to copy matrices and vectors.">
<polygon fill="white" stroke="black" points="184.5,-112.5 184.5,-131.5 261.5,-131.5 261.5,-112.5 184.5,-112.5"/>
<text text-anchor="middle" x="223" y="-119.5" font-family="Helvetica,sans-Serif" font-size="10.00">ladel_copy.h</text>
</a>
</g>
</g>
<!-- Node5&#45;&gt;Node7 -->
<g id="edge7" class="edge">
<title>Node5&#45;&gt;Node7</title>
<path fill="none" stroke="midnightblue" d="M166.76,-168.32C176.77,-160.26 191.89,-148.08 203.93,-138.37"/>
<polygon fill="midnightblue" stroke="midnightblue" points="206.45,-140.83 212.04,-131.83 202.06,-135.38 206.45,-140.83"/>
</g>
<!-- Node8 -->
<g id="node8" class="node">
<title>Node8</title>
<g id="a_node8"><a xlink:title=" ">
<polygon fill="white" stroke="#bfbfbf" points="279.5,-112.5 279.5,-131.5 332.5,-131.5 332.5,-112.5 279.5,-112.5"/>
<text text-anchor="middle" x="306" y="-119.5" font-family="Helvetica,sans-Serif" font-size="10.00">stdlib.h</text>
</a>
</g>
</g>
<!-- Node5&#45;&gt;Node8 -->
<g id="edge9" class="edge">
<title>Node5&#45;&gt;Node8</title>
<path fill="none" stroke="midnightblue" d="M179.77,-168.44C204.89,-159.4 244.71,-145.06 272.9,-134.92"/>
<polygon fill="midnightblue" stroke="midnightblue" points="274.12,-138.2 282.34,-131.52 271.75,-131.61 274.12,-138.2"/>
</g>
<!-- Node7&#45;&gt;Node2 -->
<g id="edge8" class="edge">
<title>Node7&#45;&gt;Node2</title>
<path fill="none" stroke="midnightblue" d="M212.24,-112.32C202.23,-104.26 187.11,-92.08 175.07,-82.37"/>
<polygon fill="midnightblue" stroke="midnightblue" points="176.94,-79.38 166.96,-75.83 172.55,-84.83 176.94,-79.38"/>
</g>
</g>
</svg>
