<?xml version="1.0" encoding="UTF-8" standalone="no"?>
<!DOCTYPE svg PUBLIC "-//W3C//DTD SVG 1.1//EN"
 "http://www.w3.org/Graphics/SVG/1.1/DTD/svg11.dtd">
<!-- Generated by graphviz version 2.43.0 (0)
 -->
<!-- Title: LADEL/src/ladel_submatrix.c Pages: 1 -->
<svg width="369pt" height="252pt"
 viewBox="0.00 0.00 369.00 252.00" xmlns="http://www.w3.org/2000/svg" xmlns:xlink="http://www.w3.org/1999/xlink">
<g id="graph0" class="graph" transform="scale(1 1) rotate(0) translate(4 248)">
<title>LADEL/src/ladel_submatrix.c</title>
<polygon fill="white" stroke="transparent" points="-4,4 -4,-248 365,-248 365,4 -4,4"/>
<!-- Node1 -->
<g id="node1" class="node">
<title>Node1</title>
<g id="a_node1"><a xlink:title=" ">
<polygon fill="#bfbfbf" stroke="black" points="7,-224.5 7,-243.5 162,-243.5 162,-224.5 7,-224.5"/>
<text text-anchor="middle" x="84.5" y="-231.5" font-family="Helvetica,sans-Serif" font-size="10.00">LADEL/src/ladel_submatrix.c</text>
</a>
</g>
</g>
<!-- Node2 -->
<g id="node2" class="node">
<title>Node2</title>
<g id="a_node2"><a xlink:href="ladel__types_8h.html" target="_top" xlink:title="Structures and types used in LADEL routines.">
<polygon fill="white" stroke="black" points="23.5,-56.5 23.5,-75.5 105.5,-75.5 105.5,-56.5 23.5,-56.5"/>
<text text-anchor="middle" x="64.5" y="-63.5" font-family="Helvetica,sans-Serif" font-size="10.00">ladel_types.h</text>
</a>
</g>
</g>
<!-- Node1&#45;&gt;Node2 -->
<g id="edge1" class="edge">
<title>Node1&#45;&gt;Node2</title>
<path fill="none" stroke="midnightblue" d="M83.17,-224.37C80.51,-206.94 74.46,-166.29 70.5,-132 68.71,-116.5 67.11,-98.87 66.01,-85.89"/>
<polygon fill="midnightblue" stroke="midnightblue" points="69.5,-85.52 65.19,-75.84 62.52,-86.1 69.5,-85.52"/>
</g>
<!-- Node5 -->
<g id="node5" class="node">
<title>Node5</title>
<g id="a_node5"><a xlink:href="ladel__global_8h.html" target="_top" xlink:title="Memory allocation routines.">
<polygon fill="white" stroke="black" points="101,-168.5 101,-187.5 186,-187.5 186,-168.5 101,-168.5"/>
<text text-anchor="middle" x="143.5" y="-175.5" font-family="Helvetica,sans-Serif" font-size="10.00">ladel_global.h</text>
</a>
</g>
</g>
<!-- Node1&#45;&gt;Node5 -->
<g id="edge4" class="edge">
<title>Node1&#45;&gt;Node5</title>
<path fill="none" stroke="midnightblue" d="M93.98,-224.32C102.7,-216.34 115.84,-204.31 126.4,-194.65"/>
<polygon fill="midnightblue" stroke="midnightblue" points="128.83,-197.17 133.85,-187.83 124.11,-192 128.83,-197.17"/>
</g>
<!-- Node3 -->
<g id="node3" class="node">
<title>Node3</title>
<g id="a_node3"><a xlink:title=" ">
<polygon fill="white" stroke="#bfbfbf" points="0,-0.5 0,-19.5 53,-19.5 53,-0.5 0,-0.5"/>
<text text-anchor="middle" x="26.5" y="-7.5" font-family="Helvetica,sans-Serif" font-size="10.00">stdint.h</text>
</a>
</g>
</g>
<!-- Node2&#45;&gt;Node3 -->
<g id="edge2" class="edge">
<title>Node2&#45;&gt;Node3</title>
<path fill="none" stroke="midnightblue" d="M58.23,-56.08C52.86,-48.46 44.98,-37.26 38.42,-27.94"/>
<polygon fill="midnightblue" stroke="midnightblue" points="41.28,-25.91 32.66,-19.75 35.55,-29.94 41.28,-25.91"/>
</g>
<!-- Node4 -->
<g id="node4" class="node">
<title>Node4</title>
<g id="a_node4"><a xlink:title=" ">
<polygon fill="white" stroke="#bfbfbf" points="71,-0.5 71,-19.5 136,-19.5 136,-0.5 71,-0.5"/>
<text text-anchor="middle" x="103.5" y="-7.5" font-family="Helvetica,sans-Serif" font-size="10.00">inttypes.h</text>
</a>
</g>
</g>
<!-- Node2&#45;&gt;Node4 -->
<g id="edge3" class="edge">
<title>Node2&#45;&gt;Node4</title>
<path fill="none" stroke="midnightblue" d="M70.94,-56.08C76.45,-48.46 84.53,-37.26 91.26,-27.94"/>
<polygon fill="midnightblue" stroke="midnightblue" points="94.16,-29.91 97.18,-19.75 88.49,-25.81 94.16,-29.91"/>
</g>
<!-- Node5&#45;&gt;Node2 -->
<g id="edge5" class="edge">
<title>Node5&#45;&gt;Node2</title>
<path fill="none" stroke="midnightblue" d="M126.61,-168.35C113.06,-160.58 94.55,-147.95 83.5,-132 73.98,-118.26 69.17,-99.73 66.78,-85.97"/>
<polygon fill="midnightblue" stroke="midnightblue" points="70.2,-85.13 65.29,-75.74 63.27,-86.15 70.2,-85.13"/>
</g>
<!-- Node6 -->
<g id="node6" class="node">
<title>Node6</title>
<g id="a_node6"><a xlink:href="ladel__constants_8h.html" target="_top" xlink:title="Constants and macros used in LADEL.">
<polygon fill="white" stroke="black" points="92.5,-112.5 92.5,-131.5 194.5,-131.5 194.5,-112.5 92.5,-112.5"/>
<text text-anchor="middle" x="143.5" y="-119.5" font-family="Helvetica,sans-Serif" font-size="10.00">ladel_constants.h</text>
</a>
</g>
</g>
<!-- Node5&#45;&gt;Node6 -->
<g id="edge6" class="edge">
<title>Node5&#45;&gt;Node6</title>
<path fill="none" stroke="midnightblue" d="M143.5,-168.08C143.5,-161.01 143.5,-150.86 143.5,-141.99"/>
<polygon fill="midnightblue" stroke="midnightblue" points="147,-141.75 143.5,-131.75 140,-141.75 147,-141.75"/>
</g>
<!-- Node7 -->
<g id="node7" class="node">
<title>Node7</title>
<g id="a_node7"><a xlink:href="ladel__copy_8h.html" target="_top" xlink:title="Routines to copy matrices and vectors.">
<polygon fill="white" stroke="black" points="213,-112.5 213,-131.5 290,-131.5 290,-112.5 213,-112.5"/>
<text text-anchor="middle" x="251.5" y="-119.5" font-family="Helvetica,sans-Serif" font-size="10.00">ladel_copy.h</text>
</a>
</g>
</g>
<!-- Node5&#45;&gt;Node7 -->
<g id="edge7" class="edge">
<title>Node5&#45;&gt;Node7</title>
<path fill="none" stroke="midnightblue" d="M160.85,-168.32C178.17,-159.66 205.02,-146.24 225,-136.25"/>
<polygon fill="midnightblue" stroke="midnightblue" points="226.81,-139.26 234.19,-131.65 223.68,-133 226.81,-139.26"/>
</g>
<!-- Node8 -->
<g id="node8" class="node">
<title>Node8</title>
<g id="a_node8"><a xlink:title=" ">
<polygon fill="white" stroke="#bfbfbf" points="308,-112.5 308,-131.5 361,-131.5 361,-112.5 308,-112.5"/>
<text text-anchor="middle" x="334.5" y="-119.5" font-family="Helvetica,sans-Serif" font-size="10.00">stdlib.h</text>
</a>
</g>
</g>
<!-- Node5&#45;&gt;Node8 -->
<g id="edge9" class="edge">
<title>Node5&#45;&gt;Node8</title>
<path fill="none" stroke="midnightblue" d="M173.76,-168.44C207.51,-158.9 262.08,-143.47 298.12,-133.28"/>
<polygon fill="midnightblue" stroke="midnightblue" points="299.1,-136.65 307.77,-130.56 297.19,-129.91 299.1,-136.65"/>
</g>
<!-- Node7&#45;&gt;Node2 -->
<g id="edge8" class="edge">
<title>Node7&#45;&gt;Node2</title>
<path fill="none" stroke="midnightblue" d="M221.87,-112.44C190,-103.24 139.17,-88.56 103.94,-78.39"/>
<polygon fill="midnightblue" stroke="midnightblue" points="104.57,-74.93 93.99,-75.52 102.63,-81.65 104.57,-74.93"/>
</g>
</g>
</svg>
