<?xml version="1.0" encoding="UTF-8" standalone="no"?>
<!DOCTYPE svg PUBLIC "-//W3C//DTD SVG 1.1//EN"
 "http://www.w3.org/Graphics/SVG/1.1/DTD/svg11.dtd">
<!-- Generated by graphviz version 2.43.0 (0)
 -->
<!-- Title: LADEL/src/ladel_add.c Pages: 1 -->
<svg width="445pt" height="252pt"
 viewBox="0.00 0.00 444.50 252.00" xmlns="http://www.w3.org/2000/svg" xmlns:xlink="http://www.w3.org/1999/xlink">
<g id="graph0" class="graph" transform="scale(1 1) rotate(0) translate(4 248)">
<title>LADEL/src/ladel_add.c</title>
<polygon fill="white" stroke="transparent" points="-4,4 -4,-248 440.5,-248 440.5,4 -4,4"/>
<!-- Node1 -->
<g id="node1" class="node">
<title>Node1</title>
<g id="a_node1"><a xlink:title=" ">
<polygon fill="#bfbfbf" stroke="black" points="204,-224.5 204,-243.5 328,-243.5 328,-224.5 204,-224.5"/>
<text text-anchor="middle" x="266" y="-231.5" font-family="Helvetica,sans-Serif" font-size="10.00">LADEL/src/ladel_add.c</text>
</a>
</g>
</g>
<!-- Node2 -->
<g id="node2" class="node">
<title>Node2</title>
<g id="a_node2"><a xlink:href="ladel__constants_8h.html" target="_top" xlink:title="Constants and macros used in LADEL.">
<polygon fill="white" stroke="black" points="0,-112.5 0,-131.5 102,-131.5 102,-112.5 0,-112.5"/>
<text text-anchor="middle" x="51" y="-119.5" font-family="Helvetica,sans-Serif" font-size="10.00">ladel_constants.h</text>
</a>
</g>
</g>
<!-- Node1&#45;&gt;Node2 -->
<g id="edge1" class="edge">
<title>Node1&#45;&gt;Node2</title>
<path fill="none" stroke="midnightblue" d="M236.78,-224.39C211.72,-216.49 175.01,-203.64 145,-188 117.18,-173.5 87.86,-152.11 69.51,-137.88"/>
<polygon fill="midnightblue" stroke="midnightblue" points="71.47,-134.96 61.44,-131.53 67.14,-140.46 71.47,-134.96"/>
</g>
<!-- Node3 -->
<g id="node3" class="node">
<title>Node3</title>
<g id="a_node3"><a xlink:href="ladel__global_8h.html" target="_top" xlink:title="Memory allocation routines.">
<polygon fill="white" stroke="black" points="154.5,-168.5 154.5,-187.5 239.5,-187.5 239.5,-168.5 154.5,-168.5"/>
<text text-anchor="middle" x="197" y="-175.5" font-family="Helvetica,sans-Serif" font-size="10.00">ladel_global.h</text>
</a>
</g>
</g>
<!-- Node1&#45;&gt;Node3 -->
<g id="edge2" class="edge">
<title>Node1&#45;&gt;Node3</title>
<path fill="none" stroke="midnightblue" d="M254.91,-224.32C244.51,-216.18 228.74,-203.84 216.28,-194.09"/>
<polygon fill="midnightblue" stroke="midnightblue" points="218.32,-191.24 208.29,-187.83 214.01,-196.75 218.32,-191.24"/>
</g>
<!-- Node4 -->
<g id="node4" class="node">
<title>Node4</title>
<g id="a_node4"><a xlink:href="ladel__types_8h.html" target="_top" xlink:title="Structures and types used in LADEL routines.">
<polygon fill="white" stroke="black" points="225,-56.5 225,-75.5 307,-75.5 307,-56.5 225,-56.5"/>
<text text-anchor="middle" x="266" y="-63.5" font-family="Helvetica,sans-Serif" font-size="10.00">ladel_types.h</text>
</a>
</g>
</g>
<!-- Node1&#45;&gt;Node4 -->
<g id="edge10" class="edge">
<title>Node1&#45;&gt;Node4</title>
<path fill="none" stroke="midnightblue" d="M272.03,-224.34C283.35,-207.5 307.4,-168.77 316,-132 318.03,-123.34 319.62,-120.12 316,-112 310.43,-99.5 299.48,-89.01 289.25,-81.32"/>
<polygon fill="midnightblue" stroke="midnightblue" points="291.16,-78.38 280.95,-75.53 287.15,-84.12 291.16,-78.38"/>
</g>
<!-- Node9 -->
<g id="node9" class="node">
<title>Node9</title>
<g id="a_node9"><a xlink:href="ladel__add_8h.html" target="_top" xlink:title="Routines to add matrices.">
<polygon fill="white" stroke="black" points="363.5,-168.5 363.5,-187.5 436.5,-187.5 436.5,-168.5 363.5,-168.5"/>
<text text-anchor="middle" x="400" y="-175.5" font-family="Helvetica,sans-Serif" font-size="10.00">ladel_add.h</text>
</a>
</g>
</g>
<!-- Node1&#45;&gt;Node9 -->
<g id="edge11" class="edge">
<title>Node1&#45;&gt;Node9</title>
<path fill="none" stroke="midnightblue" d="M287.23,-224.44C309.38,-215.52 344.32,-201.44 369.44,-191.32"/>
<polygon fill="midnightblue" stroke="midnightblue" points="370.9,-194.5 378.87,-187.52 368.28,-188.01 370.9,-194.5"/>
</g>
<!-- Node3&#45;&gt;Node2 -->
<g id="edge6" class="edge">
<title>Node3&#45;&gt;Node2</title>
<path fill="none" stroke="midnightblue" d="M173.87,-168.44C149.52,-159.44 110.99,-145.19 83.58,-135.05"/>
<polygon fill="midnightblue" stroke="midnightblue" points="84.62,-131.7 74.03,-131.52 82.19,-138.27 84.62,-131.7"/>
</g>
<!-- Node3&#45;&gt;Node4 -->
<g id="edge3" class="edge">
<title>Node3&#45;&gt;Node4</title>
<path fill="none" stroke="midnightblue" d="M182.41,-168.31C163.59,-155.97 134.86,-132.58 149,-112 163.89,-90.32 190.79,-79.08 215.05,-73.26"/>
<polygon fill="midnightblue" stroke="midnightblue" points="215.85,-76.67 224.89,-71.14 214.38,-69.82 215.85,-76.67"/>
</g>
<!-- Node7 -->
<g id="node7" class="node">
<title>Node7</title>
<g id="a_node7"><a xlink:href="ladel__copy_8h.html" target="_top" xlink:title="Routines to copy matrices and vectors.">
<polygon fill="white" stroke="black" points="158.5,-112.5 158.5,-131.5 235.5,-131.5 235.5,-112.5 158.5,-112.5"/>
<text text-anchor="middle" x="197" y="-119.5" font-family="Helvetica,sans-Serif" font-size="10.00">ladel_copy.h</text>
</a>
</g>
</g>
<!-- Node3&#45;&gt;Node7 -->
<g id="edge7" class="edge">
<title>Node3&#45;&gt;Node7</title>
<path fill="none" stroke="midnightblue" d="M197,-168.08C197,-161.01 197,-150.86 197,-141.99"/>
<polygon fill="midnightblue" stroke="midnightblue" points="200.5,-141.75 197,-131.75 193.5,-141.75 200.5,-141.75"/>
</g>
<!-- Node8 -->
<g id="node8" class="node">
<title>Node8</title>
<g id="a_node8"><a xlink:title=" ">
<polygon fill="white" stroke="#bfbfbf" points="253.5,-112.5 253.5,-131.5 306.5,-131.5 306.5,-112.5 253.5,-112.5"/>
<text text-anchor="middle" x="280" y="-119.5" font-family="Helvetica,sans-Serif" font-size="10.00">stdlib.h</text>
</a>
</g>
</g>
<!-- Node3&#45;&gt;Node8 -->
<g id="edge9" class="edge">
<title>Node3&#45;&gt;Node8</title>
<path fill="none" stroke="midnightblue" d="M210.34,-168.32C223.16,-159.98 242.78,-147.21 257.94,-137.35"/>
<polygon fill="midnightblue" stroke="midnightblue" points="260.22,-140.04 266.7,-131.65 256.41,-134.17 260.22,-140.04"/>
</g>
<!-- Node5 -->
<g id="node5" class="node">
<title>Node5</title>
<g id="a_node5"><a xlink:title=" ">
<polygon fill="white" stroke="#bfbfbf" points="201.5,-0.5 201.5,-19.5 254.5,-19.5 254.5,-0.5 201.5,-0.5"/>
<text text-anchor="middle" x="228" y="-7.5" font-family="Helvetica,sans-Serif" font-size="10.00">stdint.h</text>
</a>
</g>
</g>
<!-- Node4&#45;&gt;Node5 -->
<g id="edge4" class="edge">
<title>Node4&#45;&gt;Node5</title>
<path fill="none" stroke="midnightblue" d="M259.73,-56.08C254.36,-48.46 246.48,-37.26 239.92,-27.94"/>
<polygon fill="midnightblue" stroke="midnightblue" points="242.78,-25.91 234.16,-19.75 237.05,-29.94 242.78,-25.91"/>
</g>
<!-- Node6 -->
<g id="node6" class="node">
<title>Node6</title>
<g id="a_node6"><a xlink:title=" ">
<polygon fill="white" stroke="#bfbfbf" points="272.5,-0.5 272.5,-19.5 337.5,-19.5 337.5,-0.5 272.5,-0.5"/>
<text text-anchor="middle" x="305" y="-7.5" font-family="Helvetica,sans-Serif" font-size="10.00">inttypes.h</text>
</a>
</g>
</g>
<!-- Node4&#45;&gt;Node6 -->
<g id="edge5" class="edge">
<title>Node4&#45;&gt;Node6</title>
<path fill="none" stroke="midnightblue" d="M272.44,-56.08C277.95,-48.46 286.03,-37.26 292.76,-27.94"/>
<polygon fill="midnightblue" stroke="midnightblue" points="295.66,-29.91 298.68,-19.75 289.99,-25.81 295.66,-29.91"/>
</g>
<!-- Node7&#45;&gt;Node4 -->
<g id="edge8" class="edge">
<title>Node7&#45;&gt;Node4</title>
<path fill="none" stroke="midnightblue" d="M208.09,-112.32C218.49,-104.18 234.26,-91.84 246.72,-82.09"/>
<polygon fill="midnightblue" stroke="midnightblue" points="248.99,-84.75 254.71,-75.83 244.68,-79.24 248.99,-84.75"/>
</g>
<!-- Node9&#45;&gt;Node4 -->
<g id="edge12" class="edge">
<title>Node9&#45;&gt;Node4</title>
<path fill="none" stroke="midnightblue" d="M394.68,-168.07C386.31,-154.59 368.95,-128.84 349,-112 333.3,-98.74 313.06,-87.67 296.51,-79.83"/>
<polygon fill="midnightblue" stroke="midnightblue" points="297.79,-76.57 287.24,-75.6 294.88,-82.94 297.79,-76.57"/>
</g>
</g>
</svg>
