<?xml version="1.0" encoding="UTF-8" standalone="no"?>
<!DOCTYPE svg PUBLIC "-//W3C//DTD SVG 1.1//EN"
 "http://www.w3.org/Graphics/SVG/1.1/DTD/svg11.dtd">
<!-- Generated by graphviz version 2.43.0 (0)
 -->
<!-- Title: ladel_sparse_free Pages: 1 -->
<svg width="1121pt" height="601pt"
 viewBox="0.00 0.00 1121.00 601.07" xmlns="http://www.w3.org/2000/svg" xmlns:xlink="http://www.w3.org/1999/xlink">
<g id="graph0" class="graph" transform="scale(1 1) rotate(0) translate(4 597.07)">
<title>ladel_sparse_free</title>
<polygon fill="white" stroke="transparent" points="-4,4 -4,-597.07 1117,-597.07 1117,4 -4,4"/>
<!-- Node1 -->
<g id="node1" class="node">
<title>Node1</title>
<g id="a_node1"><a xlink:title="Free a sparse matrix (and return NULL).">
<polygon fill="#bfbfbf" stroke="black" points="1010,-172.57 1010,-191.57 1113,-191.57 1113,-172.57 1010,-172.57"/>
<text text-anchor="middle" x="1061.5" y="-179.57" font-family="Helvetica,sans-Serif" font-size="10.00">ladel_sparse_free</text>
</a>
</g>
</g>
<!-- Node2 -->
<g id="node2" class="node">
<title>Node2</title>
<g id="a_node2"><a xlink:href="ladel__col__counts_8c.html#aa7284697012b8c3de4cece3e31915488" target="_top" xlink:title="Computes the column counts of the factor.">
<polygon fill="white" stroke="black" points="531.5,-243.57 531.5,-262.57 629.5,-262.57 629.5,-243.57 531.5,-243.57"/>
<text text-anchor="middle" x="580.5" y="-250.57" font-family="Helvetica,sans-Serif" font-size="10.00">ladel_col_counts</text>
</a>
</g>
</g>
<!-- Node1&#45;&gt;Node2 -->
<g id="edge1" class="edge">
<title>Node1&#45;&gt;Node2</title>
<path fill="none" stroke="midnightblue" d="M1042.3,-198.53C1005.64,-230.36 918.87,-299.17 831,-321.07 769.33,-336.44 744.7,-349.77 688,-321.07 663.89,-308.86 674.3,-287.33 652,-272.07 645.31,-267.48 637.55,-264.01 629.69,-261.37"/>
<polygon fill="midnightblue" stroke="midnightblue" points="1044.94,-200.87 1050.13,-191.63 1040.31,-195.61 1044.94,-200.87"/>
</g>
<!-- Node4 -->
<g id="node4" class="node">
<title>Node4</title>
<g id="a_node4"><a xlink:href="group__grp-solver.html#gaff676fbf1dd6dbf8096c5349d264297f" target="_top" xlink:title="Computes the &#160;factorization of &#160;but allocates based on Mbasis.">
<polygon fill="white" stroke="black" points="177,-458.07 177,-488.07 318,-488.07 318,-458.07 177,-458.07"/>
<text text-anchor="start" x="185" y="-476.07" font-family="Helvetica,sans-Serif" font-size="10.00">ladel_factorize_advanced</text>
<text text-anchor="middle" x="247.5" y="-465.07" font-family="Helvetica,sans-Serif" font-size="10.00">_with_diag</text>
</a>
</g>
</g>
<!-- Node1&#45;&gt;Node4 -->
<g id="edge11" class="edge">
<title>Node1&#45;&gt;Node4</title>
<path fill="none" stroke="midnightblue" d="M1060.92,-201.78C1061.03,-256.82 1053.94,-414.06 974,-505.07 906.27,-582.18 863.13,-593.07 760.5,-593.07 760.5,-593.07 760.5,-593.07 579.5,-593.07 457.86,-593.07 325.32,-520.55 272.33,-488.26"/>
<polygon fill="midnightblue" stroke="midnightblue" points="1064.42,-201.61 1060.81,-191.65 1057.42,-201.69 1064.42,-201.61"/>
</g>
<!-- Node6 -->
<g id="node6" class="node">
<title>Node6</title>
<g id="a_node6"><a xlink:href="group__grp-solver.html#ga129ea878837012c6ac76fb6046bc9449" target="_top" xlink:title="Computes the &#160;factorization of .">
<polygon fill="white" stroke="black" points="177,-205.57 177,-224.57 318,-224.57 318,-205.57 177,-205.57"/>
<text text-anchor="middle" x="247.5" y="-212.57" font-family="Helvetica,sans-Serif" font-size="10.00">ladel_factorize_with_diag</text>
</a>
</g>
</g>
<!-- Node1&#45;&gt;Node6 -->
<g id="edge12" class="edge">
<title>Node1&#45;&gt;Node6</title>
<path fill="none" stroke="midnightblue" d="M1054.32,-162.72C1043.4,-131.87 1017.63,-71.99 974,-42.07 894.39,12.55 857.04,-2.07 760.5,-2.07 760.5,-2.07 760.5,-2.07 579.5,-2.07 427.11,-2.07 289.05,-163.69 255.99,-205.36"/>
<polygon fill="midnightblue" stroke="midnightblue" points="1051.05,-163.97 1057.57,-172.32 1057.68,-161.73 1051.05,-163.97"/>
</g>
<!-- Node8 -->
<g id="node8" class="node">
<title>Node8</title>
<g id="a_node8"><a xlink:href="ladel__global_8c.html#a2c4e8897e9da3b9463281d19e0971ed5" target="_top" xlink:title="Free a factor.">
<polygon fill="white" stroke="black" points="871,-476.57 871,-495.57 970,-495.57 970,-476.57 871,-476.57"/>
<text text-anchor="middle" x="920.5" y="-483.57" font-family="Helvetica,sans-Serif" font-size="10.00">ladel_factor_free</text>
</a>
</g>
</g>
<!-- Node1&#45;&gt;Node8 -->
<g id="edge7" class="edge">
<title>Node1&#45;&gt;Node8</title>
<path fill="none" stroke="midnightblue" d="M1053.41,-201.65C1039.56,-239.34 1007.33,-324.33 974,-393.07 958.79,-424.43 937.61,-459.88 927.43,-476.51"/>
<polygon fill="midnightblue" stroke="midnightblue" points="1056.82,-202.52 1056.96,-191.93 1050.24,-200.12 1056.82,-202.52"/>
</g>
<!-- Node10 -->
<g id="node10" class="node">
<title>Node10</title>
<g id="a_node10"><a xlink:href="group__grp-solver.html#gabb81f3223c3ab1794fd472276be8fba6" target="_top" xlink:title="Computes the &#160;factorization of &#160;provided LD was allocated before.">
<polygon fill="white" stroke="black" points="695.5,-31.07 695.5,-61.07 823.5,-61.07 823.5,-31.07 695.5,-31.07"/>
<text text-anchor="start" x="703.5" y="-49.07" font-family="Helvetica,sans-Serif" font-size="10.00">ladel_factorize_with</text>
<text text-anchor="middle" x="759.5" y="-38.07" font-family="Helvetica,sans-Serif" font-size="10.00">_prior_basis_with_diag</text>
</a>
</g>
</g>
<!-- Node1&#45;&gt;Node10 -->
<g id="edge13" class="edge">
<title>Node1&#45;&gt;Node10</title>
<path fill="none" stroke="midnightblue" d="M1051.06,-163.4C1037.58,-138.89 1010.38,-96.56 974,-76.07 928.18,-50.26 868.35,-43.74 823.68,-43.12"/>
<polygon fill="midnightblue" stroke="midnightblue" points="1048.06,-165.22 1055.84,-172.42 1054.25,-161.94 1048.06,-165.22"/>
</g>
<!-- Node12 -->
<g id="node12" class="node">
<title>Node12</title>
<g id="a_node12"><a xlink:href="ladel__global_8c.html#a6e485045ec098c0b5a9afe07875a1e59" target="_top" xlink:title="Allocate a sparse matrix.">
<polygon fill="white" stroke="black" points="867,-216.57 867,-235.57 974,-235.57 974,-216.57 867,-216.57"/>
<text text-anchor="middle" x="920.5" y="-223.57" font-family="Helvetica,sans-Serif" font-size="10.00">ladel_sparse_alloc</text>
</a>
</g>
</g>
<!-- Node1&#45;&gt;Node12 -->
<g id="edge15" class="edge">
<title>Node1&#45;&gt;Node12</title>
<path fill="none" stroke="midnightblue" d="M1020.62,-194.69C998.65,-201.65 971.81,-210.14 951.6,-216.54"/>
<polygon fill="midnightblue" stroke="midnightblue" points="1021.86,-197.97 1030.34,-191.61 1019.75,-191.29 1021.86,-197.97"/>
</g>
<!-- Node23 -->
<g id="node23" class="node">
<title>Node23</title>
<g id="a_node23"><a xlink:href="ladel__upper__diag_8c.html#a7a4946c49cace1648ec43ab05e35b8e6" target="_top" xlink:title="Return , that is the upper diagonal elements of M.">
<polygon fill="white" stroke="black" points="523,-105.57 523,-124.57 638,-124.57 638,-105.57 523,-105.57"/>
<text text-anchor="middle" x="580.5" y="-112.57" font-family="Helvetica,sans-Serif" font-size="10.00">ladel_to_upper_diag</text>
</a>
</g>
</g>
<!-- Node1&#45;&gt;Node23 -->
<g id="edge34" class="edge">
<title>Node1&#45;&gt;Node23</title>
<path fill="none" stroke="midnightblue" d="M1042.89,-165.7C1026.43,-151.47 1000.48,-131.69 974,-122.07 858.54,-80.11 711.09,-93.77 633.93,-105.52"/>
<polygon fill="midnightblue" stroke="midnightblue" points="1040.79,-168.51 1050.58,-172.54 1045.44,-163.28 1040.79,-168.51"/>
</g>
<!-- Node24 -->
<g id="node24" class="node">
<title>Node24</title>
<g id="a_node24"><a xlink:href="ladel__global_8c.html#a938486f5d2d4aee4858a50c0c3767490" target="_top" xlink:title="Allocate a sparse empty matrix (used in special cases).">
<polygon fill="white" stroke="black" points="867,-132.07 867,-162.07 974,-162.07 974,-132.07 867,-132.07"/>
<text text-anchor="start" x="875" y="-150.07" font-family="Helvetica,sans-Serif" font-size="10.00">ladel_sparse_alloc</text>
<text text-anchor="middle" x="920.5" y="-139.07" font-family="Helvetica,sans-Serif" font-size="10.00">_empty</text>
</a>
</g>
</g>
<!-- Node1&#45;&gt;Node24 -->
<g id="edge32" class="edge">
<title>Node1&#45;&gt;Node24</title>
<path fill="none" stroke="midnightblue" d="M1012.76,-170.05C1000.28,-166.9 986.75,-163.5 974.03,-160.29"/>
<polygon fill="midnightblue" stroke="midnightblue" points="1011.97,-173.45 1022.52,-172.5 1013.67,-166.67 1011.97,-173.45"/>
</g>
<!-- Node3 -->
<g id="node3" class="node">
<title>Node3</title>
<g id="a_node3"><a xlink:href="ladel__ldl__symbolic_8c.html#a919feee5783ed6d5ffaff8dff6546976" target="_top" xlink:title="Symbolic part of the factorization.">
<polygon fill="white" stroke="black" points="360,-243.57 360,-262.57 467,-262.57 467,-243.57 360,-243.57"/>
<text text-anchor="middle" x="413.5" y="-250.57" font-family="Helvetica,sans-Serif" font-size="10.00">ladel_ldl_symbolic</text>
</a>
</g>
</g>
<!-- Node2&#45;&gt;Node3 -->
<g id="edge2" class="edge">
<title>Node2&#45;&gt;Node3</title>
<path fill="none" stroke="midnightblue" d="M521.16,-253.07C503.53,-253.07 484.29,-253.07 467.06,-253.07"/>
<polygon fill="midnightblue" stroke="midnightblue" points="521.33,-256.57 531.33,-253.07 521.33,-249.57 521.33,-256.57"/>
</g>
<!-- Node3&#45;&gt;Node4 -->
<g id="edge3" class="edge">
<title>Node3&#45;&gt;Node4</title>
<path fill="none" stroke="midnightblue" d="M399.09,-271.05C367.55,-313.36 289.1,-418.6 259.79,-457.92"/>
<polygon fill="midnightblue" stroke="midnightblue" points="402.07,-272.91 405.24,-262.8 396.46,-268.73 402.07,-272.91"/>
</g>
<!-- Node3&#45;&gt;Node6 -->
<g id="edge5" class="edge">
<title>Node3&#45;&gt;Node6</title>
<path fill="none" stroke="midnightblue" d="M361.16,-241.17C338.11,-235.83 311.28,-229.61 289.59,-224.59"/>
<polygon fill="midnightblue" stroke="midnightblue" points="360.58,-244.63 371.12,-243.48 362.16,-237.81 360.58,-244.63"/>
</g>
<!-- Node5 -->
<g id="node5" class="node">
<title>Node5</title>
<g id="a_node5"><a xlink:href="group__grp-solver.html#gac217d5bb50524bf6bbc0e7fa473edcfb" target="_top" xlink:title="Computes the &#160;factorization of &#160;but allocates based on Mbasis.">
<polygon fill="white" stroke="black" points="0,-463.57 0,-482.57 141,-482.57 141,-463.57 0,-463.57"/>
<text text-anchor="middle" x="70.5" y="-470.57" font-family="Helvetica,sans-Serif" font-size="10.00">ladel_factorize_advanced</text>
</a>
</g>
</g>
<!-- Node4&#45;&gt;Node5 -->
<g id="edge4" class="edge">
<title>Node4&#45;&gt;Node5</title>
<path fill="none" stroke="midnightblue" d="M166.58,-473.07C158.11,-473.07 149.55,-473.07 141.21,-473.07"/>
<polygon fill="midnightblue" stroke="midnightblue" points="166.83,-476.57 176.83,-473.07 166.83,-469.57 166.83,-476.57"/>
</g>
<!-- Node7 -->
<g id="node7" class="node">
<title>Node7</title>
<g id="a_node7"><a xlink:href="group__grp-solver.html#ga6167c294e588fe34776d40e53c6ddbc9" target="_top" xlink:title="Computes the &#160;factorization of .">
<polygon fill="white" stroke="black" points="26,-205.57 26,-224.57 115,-224.57 115,-205.57 26,-205.57"/>
<text text-anchor="middle" x="70.5" y="-212.57" font-family="Helvetica,sans-Serif" font-size="10.00">ladel_factorize</text>
</a>
</g>
</g>
<!-- Node6&#45;&gt;Node7 -->
<g id="edge6" class="edge">
<title>Node6&#45;&gt;Node7</title>
<path fill="none" stroke="midnightblue" d="M166.51,-215.07C148.87,-215.07 130.82,-215.07 115.25,-215.07"/>
<polygon fill="midnightblue" stroke="midnightblue" points="166.83,-218.57 176.83,-215.07 166.83,-211.57 166.83,-218.57"/>
</g>
<!-- Node9 -->
<g id="node9" class="node">
<title>Node9</title>
<g id="a_node9"><a xlink:href="ladel__global_8c.html#a968028b68306172d3fb202fb434624a6" target="_top" xlink:title="Allocate a factors struct.">
<polygon fill="white" stroke="black" points="354,-375.57 354,-394.57 473,-394.57 473,-375.57 354,-375.57"/>
<text text-anchor="middle" x="413.5" y="-382.57" font-family="Helvetica,sans-Serif" font-size="10.00">ladel_factor_allocate</text>
</a>
</g>
</g>
<!-- Node8&#45;&gt;Node9 -->
<g id="edge8" class="edge">
<title>Node8&#45;&gt;Node9</title>
<path fill="none" stroke="midnightblue" d="M879.64,-498.32C803.46,-519.41 633.68,-555 509,-497.07 462.16,-475.3 430.19,-417.63 418.95,-394.68"/>
<polygon fill="midnightblue" stroke="midnightblue" points="880.65,-501.67 889.32,-495.58 878.75,-494.94 880.65,-501.67"/>
</g>
<!-- Node9&#45;&gt;Node4 -->
<g id="edge9" class="edge">
<title>Node9&#45;&gt;Node4</title>
<path fill="none" stroke="midnightblue" d="M385.58,-399.51C355.58,-415.61 307.27,-441.53 276.74,-457.91"/>
<polygon fill="midnightblue" stroke="midnightblue" points="387.48,-402.46 394.64,-394.65 384.17,-396.3 387.48,-402.46"/>
</g>
<!-- Node9&#45;&gt;Node6 -->
<g id="edge10" class="edge">
<title>Node9&#45;&gt;Node6</title>
<path fill="none" stroke="midnightblue" d="M395.86,-367.82C361.62,-332.33 284.28,-252.16 257.69,-224.59"/>
<polygon fill="midnightblue" stroke="midnightblue" points="393.75,-370.67 403.21,-375.44 398.79,-365.81 393.75,-370.67"/>
</g>
<!-- Node11 -->
<g id="node11" class="node">
<title>Node11</title>
<g id="a_node11"><a xlink:href="group__grp-solver.html#ga90783633564102ca42816a7d23eca63b" target="_top" xlink:title="Computes the &#160;factorization of &#160;provided LD was allocated before.">
<polygon fill="white" stroke="black" points="523,-31.07 523,-61.07 638,-61.07 638,-31.07 523,-31.07"/>
<text text-anchor="start" x="531" y="-49.07" font-family="Helvetica,sans-Serif" font-size="10.00">ladel_factorize_with</text>
<text text-anchor="middle" x="580.5" y="-38.07" font-family="Helvetica,sans-Serif" font-size="10.00">_prior_basis</text>
</a>
</g>
</g>
<!-- Node10&#45;&gt;Node11 -->
<g id="edge14" class="edge">
<title>Node10&#45;&gt;Node11</title>
<path fill="none" stroke="midnightblue" d="M684.97,-46.07C669.37,-46.07 653.14,-46.07 638.28,-46.07"/>
<polygon fill="midnightblue" stroke="midnightblue" points="685.1,-49.57 695.1,-46.07 685.1,-42.57 685.1,-49.57"/>
</g>
<!-- Node12&#45;&gt;Node4 -->
<g id="edge21" class="edge">
<title>Node12&#45;&gt;Node4</title>
<path fill="none" stroke="midnightblue" d="M917.57,-246.09C912.23,-289.91 893.31,-394.79 831,-450.07 677.5,-586.24 401.77,-521.14 293.7,-488.17"/>
<polygon fill="midnightblue" stroke="midnightblue" points="921.07,-246.21 918.69,-235.89 914.12,-245.44 921.07,-246.21"/>
</g>
<!-- Node12&#45;&gt;Node6 -->
<g id="edge22" class="edge">
<title>Node12&#45;&gt;Node6</title>
<path fill="none" stroke="midnightblue" d="M856.74,-217.02C802.63,-209.71 722.35,-200 652,-196.07 588.54,-192.52 572.51,-193.75 509,-196.07 444.2,-198.43 370.51,-204.08 318.08,-208.61"/>
<polygon fill="midnightblue" stroke="midnightblue" points="856.48,-220.52 866.86,-218.4 857.43,-213.58 856.48,-220.52"/>
</g>
<!-- Node12&#45;&gt;Node9 -->
<g id="edge20" class="edge">
<title>Node12&#45;&gt;Node9</title>
<path fill="none" stroke="midnightblue" d="M908.42,-244.21C893.75,-266.48 865.63,-303.45 831,-321.07 702.52,-386.44 650.57,-332.9 509,-360.07 487.83,-364.13 464.41,-370.31 446.18,-375.51"/>
<polygon fill="midnightblue" stroke="midnightblue" points="911.45,-245.98 913.87,-235.67 905.54,-242.22 911.45,-245.98"/>
</g>
<!-- Node12&#45;&gt;Node10 -->
<g id="edge23" class="edge">
<title>Node12&#45;&gt;Node10</title>
<path fill="none" stroke="midnightblue" d="M901.13,-208.96C890.5,-198.56 877.23,-184.69 867,-171.07 847.87,-145.59 851.13,-133.77 831,-109.07 816.07,-90.74 795.63,-73.1 780.6,-61.17"/>
<polygon fill="midnightblue" stroke="midnightblue" points="899.02,-211.79 908.66,-216.18 903.86,-206.73 899.02,-211.79"/>
</g>
<!-- Node13 -->
<g id="node13" class="node">
<title>Node13</title>
<g id="a_node13"><a xlink:href="ladel__add_8c.html#a758b63f39a12a53be24928cfd71f0bfe" target="_top" xlink:title="Returns a sparse matrix &#160;if values==TRUE, or a pattern matrix that includes the patterns of A and B i...">
<polygon fill="white" stroke="black" points="703.5,-233.07 703.5,-263.07 815.5,-263.07 815.5,-233.07 703.5,-233.07"/>
<text text-anchor="start" x="711.5" y="-251.07" font-family="Helvetica,sans-Serif" font-size="10.00">ladel_add_matrices</text>
<text text-anchor="middle" x="759.5" y="-240.07" font-family="Helvetica,sans-Serif" font-size="10.00">_advanced</text>
</a>
</g>
</g>
<!-- Node12&#45;&gt;Node13 -->
<g id="edge16" class="edge">
<title>Node12&#45;&gt;Node13</title>
<path fill="none" stroke="midnightblue" d="M856.78,-234.75C843.2,-236.62 828.94,-238.6 815.68,-240.43"/>
<polygon fill="midnightblue" stroke="midnightblue" points="857.57,-238.17 867,-233.33 856.61,-231.23 857.57,-238.17"/>
</g>
<!-- Node16 -->
<g id="node16" class="node">
<title>Node16</title>
<g id="a_node16"><a xlink:href="ladel__submatrix_8c.html#a147c31941734d0ae3fcd28c800051322" target="_top" xlink:title="Returns a matrix that is a selection of columns of M, that is .">
<polygon fill="white" stroke="black" points="691,-118.57 691,-137.57 828,-137.57 828,-118.57 691,-118.57"/>
<text text-anchor="middle" x="759.5" y="-125.57" font-family="Helvetica,sans-Serif" font-size="10.00">ladel_column_submatrix</text>
</a>
</g>
</g>
<!-- Node12&#45;&gt;Node16 -->
<g id="edge19" class="edge">
<title>Node12&#45;&gt;Node16</title>
<path fill="none" stroke="midnightblue" d="M904.46,-208.5C888.13,-190.51 860.42,-162.99 831,-147.07 823.86,-143.21 815.89,-140.09 807.94,-137.58"/>
<polygon fill="midnightblue" stroke="midnightblue" points="902.27,-211.3 911.52,-216.47 907.51,-206.66 902.27,-211.3"/>
</g>
<!-- Node17 -->
<g id="node17" class="node">
<title>Node17</title>
<g id="a_node17"><a xlink:href="ladel__matmat_8c.html#aa0dc5e49d5b89cd8756da8d19c19fffa" target="_top" xlink:title="Core mat_mat_transpose function with all options (diag and value/pattern).">
<polygon fill="white" stroke="black" points="688,-411.07 688,-441.07 831,-441.07 831,-411.07 688,-411.07"/>
<text text-anchor="start" x="696" y="-429.07" font-family="Helvetica,sans-Serif" font-size="10.00">ladel_mat_mat_transpose</text>
<text text-anchor="middle" x="759.5" y="-418.07" font-family="Helvetica,sans-Serif" font-size="10.00">_advanced</text>
</a>
</g>
</g>
<!-- Node12&#45;&gt;Node17 -->
<g id="edge24" class="edge">
<title>Node12&#45;&gt;Node17</title>
<path fill="none" stroke="midnightblue" d="M908.27,-244.61C892.35,-270.36 861.72,-317.97 831,-355.07 813.94,-375.67 791.89,-397.18 777.03,-411.05"/>
<polygon fill="midnightblue" stroke="midnightblue" points="911.38,-246.23 913.62,-235.88 905.41,-242.58 911.38,-246.23"/>
</g>
<!-- Node21 -->
<g id="node21" class="node">
<title>Node21</title>
<g id="a_node21"><a xlink:href="ladel__copy_8c.html#a3a4d205bb1f55b7059ad6b82a18fb856" target="_top" xlink:title="Copies a matrix into a newly allocated one.">
<polygon fill="white" stroke="black" points="698.5,-282.07 698.5,-312.07 820.5,-312.07 820.5,-282.07 698.5,-282.07"/>
<text text-anchor="start" x="706.5" y="-300.07" font-family="Helvetica,sans-Serif" font-size="10.00">ladel_sparse_allocate</text>
<text text-anchor="middle" x="759.5" y="-289.07" font-family="Helvetica,sans-Serif" font-size="10.00">_and_copy</text>
</a>
</g>
</g>
<!-- Node12&#45;&gt;Node21 -->
<g id="edge28" class="edge">
<title>Node12&#45;&gt;Node21</title>
<path fill="none" stroke="midnightblue" d="M893.89,-240.58C876.46,-250.16 852.71,-262.63 831,-272.07 823.02,-275.54 814.39,-278.9 805.99,-281.98"/>
<polygon fill="midnightblue" stroke="midnightblue" points="895.83,-243.51 902.87,-235.59 892.43,-237.39 895.83,-243.51"/>
</g>
<!-- Node22 -->
<g id="node22" class="node">
<title>Node22</title>
<g id="a_node22"><a xlink:href="ladel__transpose_8c.html#a8b00613708b897c9dbcd292dc9b89ed8" target="_top" xlink:title="Returns the transpose of a matrix, that is .">
<polygon fill="white" stroke="black" points="712.5,-156.57 712.5,-175.57 806.5,-175.57 806.5,-156.57 712.5,-156.57"/>
<text text-anchor="middle" x="759.5" y="-163.57" font-family="Helvetica,sans-Serif" font-size="10.00">ladel_transpose</text>
</a>
</g>
</g>
<!-- Node12&#45;&gt;Node22 -->
<g id="edge29" class="edge">
<title>Node12&#45;&gt;Node22</title>
<path fill="none" stroke="midnightblue" d="M887.74,-212.63C870.96,-205.66 849.97,-197.15 831,-190.07 817.55,-185.05 802.51,-179.87 789.79,-175.61"/>
<polygon fill="midnightblue" stroke="midnightblue" points="886.51,-215.9 897.09,-216.53 889.21,-209.45 886.51,-215.9"/>
</g>
<!-- Node14 -->
<g id="node14" class="node">
<title>Node14</title>
<g id="a_node14"><a xlink:href="ladel__add_8c.html#a829807555e76a1861cd43a87d1d86efe" target="_top" xlink:title="Returns a sparse matrix .">
<polygon fill="white" stroke="black" points="524.5,-205.57 524.5,-224.57 636.5,-224.57 636.5,-205.57 524.5,-205.57"/>
<text text-anchor="middle" x="580.5" y="-212.57" font-family="Helvetica,sans-Serif" font-size="10.00">ladel_add_matrices</text>
</a>
</g>
</g>
<!-- Node13&#45;&gt;Node14 -->
<g id="edge17" class="edge">
<title>Node13&#45;&gt;Node14</title>
<path fill="none" stroke="midnightblue" d="M693.46,-235.94C673.38,-232.2 651.57,-228.13 632.58,-224.59"/>
<polygon fill="midnightblue" stroke="midnightblue" points="692.99,-239.41 703.47,-237.81 694.28,-232.53 692.99,-239.41"/>
</g>
<!-- Node15 -->
<g id="node15" class="node">
<title>Node15</title>
<g id="a_node15"><a xlink:href="ladel__add_8c.html#a1322dd7713c9d04b74ddc1927e94f28a" target="_top" xlink:title="Returns a pattern matrix whose pattern includes the patterns of A and B.">
<polygon fill="white" stroke="black" points="524.5,-282.07 524.5,-312.07 636.5,-312.07 636.5,-282.07 524.5,-282.07"/>
<text text-anchor="start" x="532.5" y="-300.07" font-family="Helvetica,sans-Serif" font-size="10.00">ladel_add_matrices</text>
<text text-anchor="middle" x="580.5" y="-289.07" font-family="Helvetica,sans-Serif" font-size="10.00">_pattern</text>
</a>
</g>
</g>
<!-- Node13&#45;&gt;Node15 -->
<g id="edge18" class="edge">
<title>Node13&#45;&gt;Node15</title>
<path fill="none" stroke="midnightblue" d="M694.13,-265.89C675.01,-271.18 654.28,-276.92 635.87,-282.01"/>
<polygon fill="midnightblue" stroke="midnightblue" points="695.25,-269.21 703.95,-263.17 693.38,-262.46 695.25,-269.21"/>
</g>
<!-- Node18 -->
<g id="node18" class="node">
<title>Node18</title>
<g id="a_node18"><a xlink:href="ladel__matmat_8c.html#aeb2ea434d4c66863f8814d3c5a6ce97a" target="_top" xlink:title="Computes .">
<polygon fill="white" stroke="black" points="522.5,-458.07 522.5,-488.07 638.5,-488.07 638.5,-458.07 522.5,-458.07"/>
<text text-anchor="start" x="530.5" y="-476.07" font-family="Helvetica,sans-Serif" font-size="10.00">ladel_mat_diag_mat</text>
<text text-anchor="middle" x="580.5" y="-465.07" font-family="Helvetica,sans-Serif" font-size="10.00">_transpose</text>
</a>
</g>
</g>
<!-- Node17&#45;&gt;Node18 -->
<g id="edge25" class="edge">
<title>Node17&#45;&gt;Node18</title>
<path fill="none" stroke="midnightblue" d="M692.26,-443.66C674.43,-448.39 655.31,-453.47 638.06,-458.05"/>
<polygon fill="midnightblue" stroke="midnightblue" points="693.24,-447.02 702.01,-441.07 691.45,-440.25 693.24,-447.02"/>
</g>
<!-- Node19 -->
<g id="node19" class="node">
<title>Node19</title>
<g id="a_node19"><a xlink:href="ladel__matmat_8c.html#a9d9a01b808baba381deeab28e25b41e0" target="_top" xlink:title="Computes .">
<polygon fill="white" stroke="black" points="509,-419.57 509,-438.57 652,-438.57 652,-419.57 509,-419.57"/>
<text text-anchor="middle" x="580.5" y="-426.57" font-family="Helvetica,sans-Serif" font-size="10.00">ladel_mat_mat_transpose</text>
</a>
</g>
</g>
<!-- Node17&#45;&gt;Node19 -->
<g id="edge26" class="edge">
<title>Node17&#45;&gt;Node19</title>
<path fill="none" stroke="midnightblue" d="M677.51,-427.44C669.03,-427.58 660.46,-427.73 652.11,-427.87"/>
<polygon fill="midnightblue" stroke="midnightblue" points="677.84,-430.93 687.78,-427.26 677.72,-423.94 677.84,-430.93"/>
</g>
<!-- Node20 -->
<g id="node20" class="node">
<title>Node20</title>
<g id="a_node20"><a xlink:href="ladel__matmat_8c.html#a0b1d696c23cec68f53fe76f6db607572" target="_top" xlink:title="Computes the pattern of .">
<polygon fill="white" stroke="black" points="509,-370.07 509,-400.07 652,-400.07 652,-370.07 509,-370.07"/>
<text text-anchor="start" x="517" y="-388.07" font-family="Helvetica,sans-Serif" font-size="10.00">ladel_mat_mat_transpose</text>
<text text-anchor="middle" x="580.5" y="-377.07" font-family="Helvetica,sans-Serif" font-size="10.00">_pattern</text>
</a>
</g>
</g>
<!-- Node17&#45;&gt;Node20 -->
<g id="edge27" class="edge">
<title>Node17&#45;&gt;Node20</title>
<path fill="none" stroke="midnightblue" d="M683.74,-408.75C671.32,-405.87 658.54,-402.91 646.4,-400.1"/>
<polygon fill="midnightblue" stroke="midnightblue" points="683.06,-412.19 693.6,-411.03 684.64,-405.37 683.06,-412.19"/>
</g>
<!-- Node22&#45;&gt;Node2 -->
<g id="edge30" class="edge">
<title>Node22&#45;&gt;Node2</title>
<path fill="none" stroke="midnightblue" d="M738.06,-181.82C717.37,-197.09 683.96,-219.96 652,-234.07 643.53,-237.8 634.16,-240.95 625.09,-243.55"/>
<polygon fill="midnightblue" stroke="midnightblue" points="740.2,-184.58 746.1,-175.79 736,-178.98 740.2,-184.58"/>
</g>
<!-- Node22&#45;&gt;Node23 -->
<g id="edge31" class="edge">
<title>Node22&#45;&gt;Node23</title>
<path fill="none" stroke="midnightblue" d="M712.45,-153.86C704.29,-151.64 695.89,-149.31 688,-147.07 662.56,-139.82 633.85,-131.16 612.65,-124.68"/>
<polygon fill="midnightblue" stroke="midnightblue" points="711.65,-157.27 722.22,-156.5 713.48,-150.51 711.65,-157.27"/>
</g>
<!-- Node24&#45;&gt;Node16 -->
<g id="edge33" class="edge">
<title>Node24&#45;&gt;Node16</title>
<path fill="none" stroke="midnightblue" d="M856.94,-139.59C847.52,-138.47 837.78,-137.3 828.26,-136.16"/>
<polygon fill="midnightblue" stroke="midnightblue" points="856.65,-143.08 867,-140.79 857.48,-136.13 856.65,-143.08"/>
</g>
</g>
</svg>
