<?xml version="1.0" encoding="UTF-8" standalone="no"?>
<!DOCTYPE svg PUBLIC "-//W3C//DTD SVG 1.1//EN"
 "http://www.w3.org/Graphics/SVG/1.1/DTD/svg11.dtd">
<!-- Generated by graphviz version 2.43.0 (0)
 -->
<!-- Title: ladel_factor_allocate Pages: 1 -->
<svg width="526pt" height="180pt"
 viewBox="0.00 0.00 526.00 180.00" xmlns="http://www.w3.org/2000/svg" xmlns:xlink="http://www.w3.org/1999/xlink">
<g id="graph0" class="graph" transform="scale(1 1) rotate(0) translate(4 176)">
<title>ladel_factor_allocate</title>
<polygon fill="white" stroke="transparent" points="-4,4 -4,-176 522,-176 522,4 -4,4"/>
<!-- Node1 -->
<g id="node1" class="node">
<title>Node1</title>
<g id="a_node1"><a xlink:title="Allocate a factors struct.">
<polygon fill="#bfbfbf" stroke="black" points="0,-76.5 0,-95.5 119,-95.5 119,-76.5 0,-76.5"/>
<text text-anchor="middle" x="59.5" y="-83.5" font-family="Helvetica,sans-Serif" font-size="10.00">ladel_factor_allocate</text>
</a>
</g>
</g>
<!-- Node2 -->
<g id="node2" class="node">
<title>Node2</title>
<g id="a_node2"><a xlink:href="ladel__global_8c.html#a15a407b5c8ad9de2faeb93fcd786e099" target="_top" xlink:title="Version of calloc (for mex or for regular C).">
<polygon fill="white" stroke="black" points="328.5,-76.5 328.5,-95.5 402.5,-95.5 402.5,-76.5 328.5,-76.5"/>
<text text-anchor="middle" x="365.5" y="-83.5" font-family="Helvetica,sans-Serif" font-size="10.00">ladel_calloc</text>
</a>
</g>
</g>
<!-- Node1&#45;&gt;Node2 -->
<g id="edge1" class="edge">
<title>Node1&#45;&gt;Node2</title>
<path fill="none" stroke="midnightblue" d="M119.11,-86C177.18,-86 264.94,-86 318.27,-86"/>
<polygon fill="midnightblue" stroke="midnightblue" points="318.45,-89.5 328.45,-86 318.45,-82.5 318.45,-89.5"/>
</g>
<!-- Node3 -->
<g id="node3" class="node">
<title>Node3</title>
<g id="a_node3"><a xlink:href="ladel__global_8c.html#a2c4e8897e9da3b9463281d19e0971ed5" target="_top" xlink:title="Free a factor.">
<polygon fill="white" stroke="black" points="167,-152.5 167,-171.5 266,-171.5 266,-152.5 167,-152.5"/>
<text text-anchor="middle" x="216.5" y="-159.5" font-family="Helvetica,sans-Serif" font-size="10.00">ladel_factor_free</text>
</a>
</g>
</g>
<!-- Node1&#45;&gt;Node3 -->
<g id="edge2" class="edge">
<title>Node1&#45;&gt;Node3</title>
<path fill="none" stroke="midnightblue" d="M74.02,-95.58C91.87,-107.89 124.61,-129.3 155,-143 159.96,-145.23 165.25,-147.31 170.57,-149.21"/>
<polygon fill="midnightblue" stroke="midnightblue" points="169.51,-152.55 180.1,-152.44 171.75,-145.92 169.51,-152.55"/>
</g>
<!-- Node6 -->
<g id="node6" class="node">
<title>Node6</title>
<g id="a_node6"><a xlink:href="ladel__copy_8c.html#ab0af0935fc38b50643d179802695ac74" target="_top" xlink:title="Copies an integer vector (preallocated)">
<polygon fill="white" stroke="black" points="155,-0.5 155,-19.5 278,-19.5 278,-0.5 155,-0.5"/>
<text text-anchor="middle" x="216.5" y="-7.5" font-family="Helvetica,sans-Serif" font-size="10.00">ladel_int_vector_copy</text>
</a>
</g>
</g>
<!-- Node1&#45;&gt;Node6 -->
<g id="edge6" class="edge">
<title>Node1&#45;&gt;Node6</title>
<path fill="none" stroke="midnightblue" d="M76.57,-76.35C95.12,-65.4 126.71,-47.33 155,-34 162.93,-30.26 171.62,-26.58 179.87,-23.27"/>
<polygon fill="midnightblue" stroke="midnightblue" points="181.26,-26.49 189.29,-19.57 178.7,-19.97 181.26,-26.49"/>
</g>
<!-- Node7 -->
<g id="node7" class="node">
<title>Node7</title>
<g id="a_node7"><a xlink:href="ladel__global_8c.html#a86142b1e820a5de1deea8ee656186245" target="_top" xlink:title="Version of malloc (for mex or for regular C).">
<polygon fill="white" stroke="black" points="326,-38.5 326,-57.5 405,-57.5 405,-38.5 326,-38.5"/>
<text text-anchor="middle" x="365.5" y="-45.5" font-family="Helvetica,sans-Serif" font-size="10.00">ladel_malloc</text>
</a>
</g>
</g>
<!-- Node1&#45;&gt;Node7 -->
<g id="edge7" class="edge">
<title>Node1&#45;&gt;Node7</title>
<path fill="none" stroke="midnightblue" d="M119.11,-78.67C176.33,-71.52 262.37,-60.77 315.9,-54.08"/>
<polygon fill="midnightblue" stroke="midnightblue" points="316.34,-57.55 325.82,-52.83 315.47,-50.6 316.34,-57.55"/>
</g>
<!-- Node8 -->
<g id="node8" class="node">
<title>Node8</title>
<g id="a_node8"><a xlink:href="ladel__global_8c.html#a6e485045ec098c0b5a9afe07875a1e59" target="_top" xlink:title="Allocate a sparse matrix.">
<polygon fill="white" stroke="black" points="163,-114.5 163,-133.5 270,-133.5 270,-114.5 163,-114.5"/>
<text text-anchor="middle" x="216.5" y="-121.5" font-family="Helvetica,sans-Serif" font-size="10.00">ladel_sparse_alloc</text>
</a>
</g>
</g>
<!-- Node1&#45;&gt;Node8 -->
<g id="edge8" class="edge">
<title>Node1&#45;&gt;Node8</title>
<path fill="none" stroke="midnightblue" d="M99.61,-95.59C119.97,-100.58 145.07,-106.73 166.69,-112.03"/>
<polygon fill="midnightblue" stroke="midnightblue" points="166.12,-115.5 176.67,-114.48 167.79,-108.7 166.12,-115.5"/>
</g>
<!-- Node4 -->
<g id="node4" class="node">
<title>Node4</title>
<g id="a_node4"><a xlink:href="ladel__global_8c.html#a946ae8034525eb6db42d4a166be57968" target="_top" xlink:title="Version of free (for mex or for regular C).">
<polygon fill="white" stroke="black" points="453,-133.5 453,-152.5 518,-152.5 518,-133.5 453,-133.5"/>
<text text-anchor="middle" x="485.5" y="-140.5" font-family="Helvetica,sans-Serif" font-size="10.00">ladel_free</text>
</a>
</g>
</g>
<!-- Node3&#45;&gt;Node4 -->
<g id="edge3" class="edge">
<title>Node3&#45;&gt;Node4</title>
<path fill="none" stroke="midnightblue" d="M266.16,-158.54C316.75,-154.94 395.09,-149.36 442.89,-145.96"/>
<polygon fill="midnightblue" stroke="midnightblue" points="443.17,-149.45 452.9,-145.25 442.67,-142.47 443.17,-149.45"/>
</g>
<!-- Node5 -->
<g id="node5" class="node">
<title>Node5</title>
<g id="a_node5"><a xlink:href="ladel__global_8c.html#afaa07a7aa3c8517d3853968448b398a0" target="_top" xlink:title="Free a sparse matrix (and return NULL).">
<polygon fill="white" stroke="black" points="314,-114.5 314,-133.5 417,-133.5 417,-114.5 314,-114.5"/>
<text text-anchor="middle" x="365.5" y="-121.5" font-family="Helvetica,sans-Serif" font-size="10.00">ladel_sparse_free</text>
</a>
</g>
</g>
<!-- Node3&#45;&gt;Node5 -->
<g id="edge4" class="edge">
<title>Node3&#45;&gt;Node5</title>
<path fill="none" stroke="midnightblue" d="M254.59,-152.41C273.82,-147.44 297.49,-141.32 317.93,-136.04"/>
<polygon fill="midnightblue" stroke="midnightblue" points="318.87,-139.41 327.67,-133.52 317.11,-132.63 318.87,-139.41"/>
</g>
<!-- Node5&#45;&gt;Node4 -->
<g id="edge5" class="edge">
<title>Node5&#45;&gt;Node4</title>
<path fill="none" stroke="midnightblue" d="M417.23,-132.17C425.75,-133.54 434.5,-134.95 442.76,-136.28"/>
<polygon fill="midnightblue" stroke="midnightblue" points="442.48,-139.78 452.91,-137.91 443.59,-132.87 442.48,-139.78"/>
</g>
<!-- Node8&#45;&gt;Node2 -->
<g id="edge9" class="edge">
<title>Node8&#45;&gt;Node2</title>
<path fill="none" stroke="midnightblue" d="M254.59,-114.41C274.04,-109.38 298.03,-103.18 318.63,-97.86"/>
<polygon fill="midnightblue" stroke="midnightblue" points="319.63,-101.21 328.43,-95.32 317.88,-94.44 319.63,-101.21"/>
</g>
<!-- Node8&#45;&gt;Node5 -->
<g id="edge11" class="edge">
<title>Node8&#45;&gt;Node5</title>
<path fill="none" stroke="midnightblue" d="M270.16,-124C281,-124 292.51,-124 303.63,-124"/>
<polygon fill="midnightblue" stroke="midnightblue" points="303.69,-127.5 313.69,-124 303.69,-120.5 303.69,-127.5"/>
</g>
<!-- Node8&#45;&gt;Node7 -->
<g id="edge10" class="edge">
<title>Node8&#45;&gt;Node7</title>
<path fill="none" stroke="midnightblue" d="M231.78,-114.5C250.24,-102.46 283.64,-81.54 314,-67 318.15,-65.01 322.57,-63.09 327,-61.27"/>
<polygon fill="midnightblue" stroke="midnightblue" points="328.58,-64.41 336.62,-57.5 326.03,-57.89 328.58,-64.41"/>
</g>
</g>
</svg>
