<?xml version="1.0" encoding="UTF-8" standalone="no"?>
<!DOCTYPE svg PUBLIC "-//W3C//DTD SVG 1.1//EN"
 "http://www.w3.org/Graphics/SVG/1.1/DTD/svg11.dtd">
<!-- Generated by graphviz version 2.43.0 (0)
 -->
<!-- Title: ladel_col_counts Pages: 1 -->
<svg width="643pt" height="173pt"
 viewBox="0.00 0.00 643.00 173.46" xmlns="http://www.w3.org/2000/svg" xmlns:xlink="http://www.w3.org/1999/xlink">
<g id="graph0" class="graph" transform="scale(1 1) rotate(0) translate(4 169.46)">
<title>ladel_col_counts</title>
<polygon fill="white" stroke="transparent" points="-4,4 -4,-169.46 639,-169.46 639,4 -4,4"/>
<!-- Node1 -->
<g id="node1" class="node">
<title>Node1</title>
<g id="a_node1"><a xlink:title="Computes the column counts of the factor.">
<polygon fill="#bfbfbf" stroke="black" points="0,-96.46 0,-115.46 98,-115.46 98,-96.46 0,-96.46"/>
<text text-anchor="middle" x="49" y="-103.46" font-family="Helvetica,sans-Serif" font-size="10.00">ladel_col_counts</text>
</a>
</g>
</g>
<!-- Node2 -->
<g id="node2" class="node">
<title>Node2</title>
<g id="a_node2"><a xlink:href="ladel__col__counts_8c.html#a83727639c00ef21d2af7ccda5f116881" target="_top" xlink:title=" ">
<polygon fill="white" stroke="black" points="134,-134.96 134,-164.96 252,-164.96 252,-134.96 134,-134.96"/>
<text text-anchor="start" x="142" y="-152.96" font-family="Helvetica,sans-Serif" font-size="10.00">ladel_least_common</text>
<text text-anchor="middle" x="193" y="-141.96" font-family="Helvetica,sans-Serif" font-size="10.00">_ancestor</text>
</a>
</g>
</g>
<!-- Node1&#45;&gt;Node2 -->
<g id="edge1" class="edge">
<title>Node1&#45;&gt;Node2</title>
<path fill="none" stroke="midnightblue" d="M80.81,-115.5C96.3,-120.3 115.59,-126.28 133.74,-131.9"/>
<polygon fill="midnightblue" stroke="midnightblue" points="132.79,-135.27 143.38,-134.89 134.86,-128.59 132.79,-135.27"/>
</g>
<!-- Node3 -->
<g id="node3" class="node">
<title>Node3</title>
<g id="a_node3"><a xlink:href="ladel__global_8c.html#afaa07a7aa3c8517d3853968448b398a0" target="_top" xlink:title="Free a sparse matrix (and return NULL).">
<polygon fill="white" stroke="black" points="431,-96.46 431,-115.46 534,-115.46 534,-96.46 431,-96.46"/>
<text text-anchor="middle" x="482.5" y="-103.46" font-family="Helvetica,sans-Serif" font-size="10.00">ladel_sparse_free</text>
</a>
</g>
</g>
<!-- Node1&#45;&gt;Node3 -->
<g id="edge2" class="edge">
<title>Node1&#45;&gt;Node3</title>
<path fill="none" stroke="midnightblue" d="M98.24,-105.96C177.28,-105.96 334.19,-105.96 420.71,-105.96"/>
<polygon fill="midnightblue" stroke="midnightblue" points="420.91,-109.46 430.91,-105.96 420.91,-102.46 420.91,-109.46"/>
</g>
<!-- Node5 -->
<g id="node5" class="node">
<title>Node5</title>
<g id="a_node5"><a xlink:href="ladel__transpose_8c.html#a8b00613708b897c9dbcd292dc9b89ed8" target="_top" xlink:title="Returns the transpose of a matrix, that is .">
<polygon fill="white" stroke="black" points="146,-39.46 146,-58.46 240,-58.46 240,-39.46 146,-39.46"/>
<text text-anchor="middle" x="193" y="-46.46" font-family="Helvetica,sans-Serif" font-size="10.00">ladel_transpose</text>
</a>
</g>
</g>
<!-- Node1&#45;&gt;Node5 -->
<g id="edge4" class="edge">
<title>Node1&#45;&gt;Node5</title>
<path fill="none" stroke="midnightblue" d="M73.77,-96.42C97.01,-87.09 132.61,-72.79 158.68,-62.33"/>
<polygon fill="midnightblue" stroke="midnightblue" points="160.18,-65.5 168.15,-58.53 157.57,-59.01 160.18,-65.5"/>
</g>
<!-- Node4 -->
<g id="node4" class="node">
<title>Node4</title>
<g id="a_node4"><a xlink:href="ladel__global_8c.html#a946ae8034525eb6db42d4a166be57968" target="_top" xlink:title="Version of free (for mex or for regular C).">
<polygon fill="white" stroke="black" points="570,-39.46 570,-58.46 635,-58.46 635,-39.46 570,-39.46"/>
<text text-anchor="middle" x="602.5" y="-46.46" font-family="Helvetica,sans-Serif" font-size="10.00">ladel_free</text>
</a>
</g>
</g>
<!-- Node3&#45;&gt;Node4 -->
<g id="edge3" class="edge">
<title>Node3&#45;&gt;Node4</title>
<path fill="none" stroke="midnightblue" d="M511.07,-96.45C518.6,-93.62 526.7,-90.36 534,-86.96 548.81,-80.05 564.77,-71.14 577.45,-63.68"/>
<polygon fill="midnightblue" stroke="midnightblue" points="579.24,-66.69 586.04,-58.56 575.66,-60.68 579.24,-66.69"/>
</g>
<!-- Node5&#45;&gt;Node4 -->
<g id="edge5" class="edge">
<title>Node5&#45;&gt;Node4</title>
<path fill="none" stroke="midnightblue" d="M220.93,-39.4C279.06,-20.18 420.24,18.86 534,-10.96 550.75,-15.35 567.72,-24.93 580.46,-33.38"/>
<polygon fill="midnightblue" stroke="midnightblue" points="578.71,-36.42 588.92,-39.23 582.69,-30.67 578.71,-36.42"/>
</g>
<!-- Node6 -->
<g id="node6" class="node">
<title>Node6</title>
<g id="a_node6"><a xlink:href="ladel__global_8c.html#a86142b1e820a5de1deea8ee656186245" target="_top" xlink:title="Version of malloc (for mex or for regular C).">
<polygon fill="white" stroke="black" points="443,-20.46 443,-39.46 522,-39.46 522,-20.46 443,-20.46"/>
<text text-anchor="middle" x="482.5" y="-27.46" font-family="Helvetica,sans-Serif" font-size="10.00">ladel_malloc</text>
</a>
</g>
</g>
<!-- Node5&#45;&gt;Node6 -->
<g id="edge6" class="edge">
<title>Node5&#45;&gt;Node6</title>
<path fill="none" stroke="midnightblue" d="M240.19,-45.9C292.98,-42.42 379,-36.73 432.81,-33.17"/>
<polygon fill="midnightblue" stroke="midnightblue" points="433.05,-36.67 442.8,-32.51 432.59,-29.68 433.05,-36.67"/>
</g>
<!-- Node7 -->
<g id="node7" class="node">
<title>Node7</title>
<g id="a_node7"><a xlink:href="ladel__global_8c.html#a6e485045ec098c0b5a9afe07875a1e59" target="_top" xlink:title="Allocate a sparse matrix.">
<polygon fill="white" stroke="black" points="288,-58.46 288,-77.46 395,-77.46 395,-58.46 288,-58.46"/>
<text text-anchor="middle" x="341.5" y="-65.46" font-family="Helvetica,sans-Serif" font-size="10.00">ladel_sparse_alloc</text>
</a>
</g>
</g>
<!-- Node5&#45;&gt;Node7 -->
<g id="edge7" class="edge">
<title>Node5&#45;&gt;Node7</title>
<path fill="none" stroke="midnightblue" d="M240.35,-54.97C252.26,-56.51 265.27,-58.2 277.85,-59.83"/>
<polygon fill="midnightblue" stroke="midnightblue" points="277.45,-63.31 287.82,-61.12 278.35,-56.37 277.45,-63.31"/>
</g>
<!-- Node7&#45;&gt;Node3 -->
<g id="edge10" class="edge">
<title>Node7&#45;&gt;Node3</title>
<path fill="none" stroke="midnightblue" d="M377.58,-77.55C395.52,-82.45 417.56,-88.48 436.72,-93.71"/>
<polygon fill="midnightblue" stroke="midnightblue" points="435.87,-97.11 446.44,-96.37 437.71,-90.36 435.87,-97.11"/>
</g>
<!-- Node7&#45;&gt;Node6 -->
<g id="edge9" class="edge">
<title>Node7&#45;&gt;Node6</title>
<path fill="none" stroke="midnightblue" d="M377.58,-58.37C395.52,-53.46 417.56,-47.44 436.72,-42.2"/>
<polygon fill="midnightblue" stroke="midnightblue" points="437.71,-45.56 446.44,-39.54 435.87,-38.8 437.71,-45.56"/>
</g>
<!-- Node8 -->
<g id="node8" class="node">
<title>Node8</title>
<g id="a_node8"><a xlink:href="ladel__global_8c.html#a15a407b5c8ad9de2faeb93fcd786e099" target="_top" xlink:title="Version of calloc (for mex or for regular C).">
<polygon fill="white" stroke="black" points="445.5,-58.46 445.5,-77.46 519.5,-77.46 519.5,-58.46 445.5,-58.46"/>
<text text-anchor="middle" x="482.5" y="-65.46" font-family="Helvetica,sans-Serif" font-size="10.00">ladel_calloc</text>
</a>
</g>
</g>
<!-- Node7&#45;&gt;Node8 -->
<g id="edge8" class="edge">
<title>Node7&#45;&gt;Node8</title>
<path fill="none" stroke="midnightblue" d="M395.05,-67.96C408.27,-67.96 422.37,-67.96 435.26,-67.96"/>
<polygon fill="midnightblue" stroke="midnightblue" points="435.3,-71.46 445.3,-67.96 435.3,-64.46 435.3,-71.46"/>
</g>
</g>
</svg>
