<?xml version="1.0" encoding="UTF-8" standalone="no"?>
<!DOCTYPE svg PUBLIC "-//W3C//DTD SVG 1.1//EN"
 "http://www.w3.org/Graphics/SVG/1.1/DTD/svg11.dtd">
<!-- Generated by graphviz version 2.43.0 (0)
 -->
<!-- Title: ladel_add_nonzero_pattern_to_col_of_L Pages: 1 -->
<svg width="286pt" height="66pt"
 viewBox="0.00 0.00 286.00 66.00" xmlns="http://www.w3.org/2000/svg" xmlns:xlink="http://www.w3.org/1999/xlink">
<g id="graph0" class="graph" transform="scale(1 1) rotate(0) translate(4 62)">
<title>ladel_add_nonzero_pattern_to_col_of_L</title>
<polygon fill="white" stroke="transparent" points="-4,4 -4,-62 282,-62 282,4 -4,4"/>
<!-- Node1 -->
<g id="node1" class="node">
<title>Node1</title>
<g id="a_node1"><a xlink:title="Adds the nonzero pattern in set to the pattern of the col of L.">
<polygon fill="#bfbfbf" stroke="black" points="0,-14 0,-44 149,-44 149,-14 0,-14"/>
<text text-anchor="start" x="8" y="-32" font-family="Helvetica,sans-Serif" font-size="10.00">ladel_add_nonzero_pattern</text>
<text text-anchor="middle" x="74.5" y="-21" font-family="Helvetica,sans-Serif" font-size="10.00">_to_col_of_L</text>
</a>
</g>
</g>
<!-- Node2 -->
<g id="node2" class="node">
<title>Node2</title>
<g id="a_node2"><a xlink:href="ladel__global_8c.html#a739147d9bee170cc3d4f1910698a0fda" target="_top" xlink:title="Fill in the fields of the given set.">
<polygon fill="white" stroke="black" points="191,-38.5 191,-57.5 272,-57.5 272,-38.5 191,-38.5"/>
<text text-anchor="middle" x="231.5" y="-45.5" font-family="Helvetica,sans-Serif" font-size="10.00">ladel_set_set</text>
</a>
</g>
</g>
<!-- Node1&#45;&gt;Node2 -->
<g id="edge1" class="edge">
<title>Node1&#45;&gt;Node2</title>
<path fill="none" stroke="midnightblue" d="M149.37,-38.05C160.02,-39.36 170.76,-40.68 180.78,-41.91"/>
<polygon fill="midnightblue" stroke="midnightblue" points="180.58,-45.41 190.94,-43.15 181.44,-38.46 180.58,-45.41"/>
</g>
<!-- Node3 -->
<g id="node3" class="node">
<title>Node3</title>
<g id="a_node3"><a xlink:href="ladel__rank1__mod_8c.html#a48b2b84795a7de345e14892631b0a258" target="_top" xlink:title="Computes the set union of two index sets.">
<polygon fill="white" stroke="black" points="185,-0.5 185,-19.5 278,-19.5 278,-0.5 185,-0.5"/>
<text text-anchor="middle" x="231.5" y="-7.5" font-family="Helvetica,sans-Serif" font-size="10.00">ladel_set_union</text>
</a>
</g>
</g>
<!-- Node1&#45;&gt;Node3 -->
<g id="edge2" class="edge">
<title>Node1&#45;&gt;Node3</title>
<path fill="none" stroke="midnightblue" d="M149.37,-19.95C157.81,-18.91 166.31,-17.87 174.47,-16.87"/>
<polygon fill="midnightblue" stroke="midnightblue" points="175.08,-20.32 184.58,-15.63 174.23,-13.37 175.08,-20.32"/>
</g>
</g>
</svg>
