<?xml version="1.0" encoding="UTF-8" standalone="no"?>
<!DOCTYPE svg PUBLIC "-//W3C//DTD SVG 1.1//EN"
 "http://www.w3.org/Graphics/SVG/1.1/DTD/svg11.dtd">
<!-- Generated by graphviz version 2.43.0 (0)
 -->
<!-- Title: LADEL/src/ladel_scale.c Pages: 1 -->
<svg width="430pt" height="252pt"
 viewBox="0.00 0.00 430.17 252.00" xmlns="http://www.w3.org/2000/svg" xmlns:xlink="http://www.w3.org/1999/xlink">
<g id="graph0" class="graph" transform="scale(1 1) rotate(0) translate(4 248)">
<title>LADEL/src/ladel_scale.c</title>
<polygon fill="white" stroke="transparent" points="-4,4 -4,-248 426.17,-248 426.17,4 -4,4"/>
<!-- Node1 -->
<g id="node1" class="node">
<title>Node1</title>
<g id="a_node1"><a xlink:title=" ">
<polygon fill="#bfbfbf" stroke="black" points="248.67,-224.5 248.67,-243.5 379.67,-243.5 379.67,-224.5 248.67,-224.5"/>
<text text-anchor="middle" x="314.17" y="-231.5" font-family="Helvetica,sans-Serif" font-size="10.00">LADEL/src/ladel_scale.c</text>
</a>
</g>
</g>
<!-- Node2 -->
<g id="node2" class="node">
<title>Node2</title>
<g id="a_node2"><a xlink:href="ladel__global_8h.html" target="_top" xlink:title="Memory allocation routines.">
<polygon fill="white" stroke="black" points="133.67,-168.5 133.67,-187.5 218.67,-187.5 218.67,-168.5 133.67,-168.5"/>
<text text-anchor="middle" x="176.17" y="-175.5" font-family="Helvetica,sans-Serif" font-size="10.00">ladel_global.h</text>
</a>
</g>
</g>
<!-- Node1&#45;&gt;Node2 -->
<g id="edge1" class="edge">
<title>Node1&#45;&gt;Node2</title>
<path fill="none" stroke="midnightblue" d="M292.3,-224.44C269.39,-215.48 233.19,-201.31 207.3,-191.18"/>
<polygon fill="midnightblue" stroke="midnightblue" points="208.52,-187.9 197.93,-187.52 205.97,-194.42 208.52,-187.9"/>
</g>
<!-- Node3 -->
<g id="node3" class="node">
<title>Node3</title>
<g id="a_node3"><a xlink:href="ladel__types_8h.html" target="_top" xlink:title="Structures and types used in LADEL routines.">
<polygon fill="white" stroke="black" points="204.17,-56.5 204.17,-75.5 286.17,-75.5 286.17,-56.5 204.17,-56.5"/>
<text text-anchor="middle" x="245.17" y="-63.5" font-family="Helvetica,sans-Serif" font-size="10.00">ladel_types.h</text>
</a>
</g>
</g>
<!-- Node1&#45;&gt;Node3 -->
<g id="edge9" class="edge">
<title>Node1&#45;&gt;Node3</title>
<path fill="none" stroke="midnightblue" d="M314.71,-224.47C315.63,-203.8 315.74,-149.95 295.17,-112 288.56,-99.81 277.32,-89.24 267.17,-81.42"/>
<polygon fill="midnightblue" stroke="midnightblue" points="269.18,-78.55 259.03,-75.52 265.07,-84.22 269.18,-78.55"/>
</g>
<!-- Node9 -->
<g id="node9" class="node">
<title>Node9</title>
<g id="a_node9"><a xlink:href="ladel__scale_8h.html" target="_top" xlink:title="Routines to scale the columns and rows of a matrix, or the whole matrix itself.">
<polygon fill="white" stroke="black" points="342.17,-168.5 342.17,-187.5 422.17,-187.5 422.17,-168.5 342.17,-168.5"/>
<text text-anchor="middle" x="382.17" y="-175.5" font-family="Helvetica,sans-Serif" font-size="10.00">ladel_scale.h</text>
</a>
</g>
</g>
<!-- Node1&#45;&gt;Node9 -->
<g id="edge10" class="edge">
<title>Node1&#45;&gt;Node9</title>
<path fill="none" stroke="midnightblue" d="M325.09,-224.32C335.34,-216.18 350.89,-203.84 363.17,-194.09"/>
<polygon fill="midnightblue" stroke="midnightblue" points="365.39,-196.79 371.04,-187.83 361.04,-191.31 365.39,-196.79"/>
</g>
<!-- Node2&#45;&gt;Node3 -->
<g id="edge2" class="edge">
<title>Node2&#45;&gt;Node3</title>
<path fill="none" stroke="midnightblue" d="M133.57,-174.87C72.65,-170.28 -28.23,-155.96 8.17,-112 31.29,-84.08 131.51,-73.34 193.99,-69.32"/>
<polygon fill="midnightblue" stroke="midnightblue" points="194.29,-72.8 204.05,-68.7 193.86,-65.82 194.29,-72.8"/>
</g>
<!-- Node6 -->
<g id="node6" class="node">
<title>Node6</title>
<g id="a_node6"><a xlink:href="ladel__constants_8h.html" target="_top" xlink:title="Constants and macros used in LADEL.">
<polygon fill="white" stroke="black" points="17.17,-112.5 17.17,-131.5 119.17,-131.5 119.17,-112.5 17.17,-112.5"/>
<text text-anchor="middle" x="68.17" y="-119.5" font-family="Helvetica,sans-Serif" font-size="10.00">ladel_constants.h</text>
</a>
</g>
</g>
<!-- Node2&#45;&gt;Node6 -->
<g id="edge5" class="edge">
<title>Node2&#45;&gt;Node6</title>
<path fill="none" stroke="midnightblue" d="M158.82,-168.32C141.5,-159.66 114.65,-146.24 94.67,-136.25"/>
<polygon fill="midnightblue" stroke="midnightblue" points="95.99,-133 85.48,-131.65 92.86,-139.26 95.99,-133"/>
</g>
<!-- Node7 -->
<g id="node7" class="node">
<title>Node7</title>
<g id="a_node7"><a xlink:href="ladel__copy_8h.html" target="_top" xlink:title="Routines to copy matrices and vectors.">
<polygon fill="white" stroke="black" points="137.67,-112.5 137.67,-131.5 214.67,-131.5 214.67,-112.5 137.67,-112.5"/>
<text text-anchor="middle" x="176.17" y="-119.5" font-family="Helvetica,sans-Serif" font-size="10.00">ladel_copy.h</text>
</a>
</g>
</g>
<!-- Node2&#45;&gt;Node7 -->
<g id="edge6" class="edge">
<title>Node2&#45;&gt;Node7</title>
<path fill="none" stroke="midnightblue" d="M176.17,-168.08C176.17,-161.01 176.17,-150.86 176.17,-141.99"/>
<polygon fill="midnightblue" stroke="midnightblue" points="179.67,-141.75 176.17,-131.75 172.67,-141.75 179.67,-141.75"/>
</g>
<!-- Node8 -->
<g id="node8" class="node">
<title>Node8</title>
<g id="a_node8"><a xlink:title=" ">
<polygon fill="white" stroke="#bfbfbf" points="232.67,-112.5 232.67,-131.5 285.67,-131.5 285.67,-112.5 232.67,-112.5"/>
<text text-anchor="middle" x="259.17" y="-119.5" font-family="Helvetica,sans-Serif" font-size="10.00">stdlib.h</text>
</a>
</g>
</g>
<!-- Node2&#45;&gt;Node8 -->
<g id="edge8" class="edge">
<title>Node2&#45;&gt;Node8</title>
<path fill="none" stroke="midnightblue" d="M189.5,-168.32C202.33,-159.98 221.95,-147.21 237.11,-137.35"/>
<polygon fill="midnightblue" stroke="midnightblue" points="239.39,-140.04 245.86,-131.65 235.57,-134.17 239.39,-140.04"/>
</g>
<!-- Node4 -->
<g id="node4" class="node">
<title>Node4</title>
<g id="a_node4"><a xlink:title=" ">
<polygon fill="white" stroke="#bfbfbf" points="180.67,-0.5 180.67,-19.5 233.67,-19.5 233.67,-0.5 180.67,-0.5"/>
<text text-anchor="middle" x="207.17" y="-7.5" font-family="Helvetica,sans-Serif" font-size="10.00">stdint.h</text>
</a>
</g>
</g>
<!-- Node3&#45;&gt;Node4 -->
<g id="edge3" class="edge">
<title>Node3&#45;&gt;Node4</title>
<path fill="none" stroke="midnightblue" d="M238.89,-56.08C233.52,-48.46 225.65,-37.26 219.09,-27.94"/>
<polygon fill="midnightblue" stroke="midnightblue" points="221.94,-25.91 213.33,-19.75 216.22,-29.94 221.94,-25.91"/>
</g>
<!-- Node5 -->
<g id="node5" class="node">
<title>Node5</title>
<g id="a_node5"><a xlink:title=" ">
<polygon fill="white" stroke="#bfbfbf" points="251.67,-0.5 251.67,-19.5 316.67,-19.5 316.67,-0.5 251.67,-0.5"/>
<text text-anchor="middle" x="284.17" y="-7.5" font-family="Helvetica,sans-Serif" font-size="10.00">inttypes.h</text>
</a>
</g>
</g>
<!-- Node3&#45;&gt;Node5 -->
<g id="edge4" class="edge">
<title>Node3&#45;&gt;Node5</title>
<path fill="none" stroke="midnightblue" d="M251.61,-56.08C257.12,-48.46 265.2,-37.26 271.93,-27.94"/>
<polygon fill="midnightblue" stroke="midnightblue" points="274.83,-29.91 277.85,-19.75 269.15,-25.81 274.83,-29.91"/>
</g>
<!-- Node7&#45;&gt;Node3 -->
<g id="edge7" class="edge">
<title>Node7&#45;&gt;Node3</title>
<path fill="none" stroke="midnightblue" d="M187.25,-112.32C197.65,-104.18 213.43,-91.84 225.89,-82.09"/>
<polygon fill="midnightblue" stroke="midnightblue" points="228.16,-84.75 233.88,-75.83 223.85,-79.24 228.16,-84.75"/>
</g>
<!-- Node9&#45;&gt;Node3 -->
<g id="edge11" class="edge">
<title>Node9&#45;&gt;Node3</title>
<path fill="none" stroke="midnightblue" d="M376.41,-168.09C367.39,-154.65 348.81,-128.94 328.17,-112 312.17,-98.87 291.77,-87.75 275.2,-79.85"/>
<polygon fill="midnightblue" stroke="midnightblue" points="276.49,-76.59 265.95,-75.58 273.56,-82.95 276.49,-76.59"/>
</g>
</g>
</svg>
