<?xml version="1.0" encoding="UTF-8" standalone="no"?>
<!DOCTYPE svg PUBLIC "-//W3C//DTD SVG 1.1//EN"
 "http://www.w3.org/Graphics/SVG/1.1/DTD/svg11.dtd">
<!-- Generated by graphviz version 2.43.0 (0)
 -->
<!-- Title: ladel_malloc Pages: 1 -->
<!--zoomable 521 -->
<svg id="main" version="1.1" xmlns="http://www.w3.org/2000/svg" xmlns:xlink="http://www.w3.org/1999/xlink" xml:space="preserve" onload="init(evt)">
<style type="text/css"><![CDATA[
.edge:hover path { stroke: red; }
.edge:hover polygon { stroke: red; fill: red; }
]]></style>
<script type="text/javascript"><![CDATA[
var edges = document.getElementsByTagName('g');
if (edges && edges.length) {
  for (var i=0;i<edges.length;i++) {
    if (edges[i].id.substr(0,4)=='edge') {
      edges[i].setAttribute('class','edge');
    }
  }
}
]]></script>
        <defs>
                <circle id="rim" cx="0" cy="0" r="7"/>
                <circle id="rim2" cx="0" cy="0" r="3.5"/>
                <g id="zoomPlus">
                        <use xlink:href="#rim" fill="#404040">
                                <set attributeName="fill" to="#808080" begin="zoomplus.mouseover" end="zoomplus.mouseout"/>
                        </use>
                        <path d="M-4,0h8M0,-4v8" fill="none" stroke="white" stroke-width="1.5" pointer-events="none"/>
                </g>
                <g id="zoomMin">
                        <use xlink:href="#rim" fill="#404040">
                                <set attributeName="fill" to="#808080" begin="zoomminus.mouseover" end="zoomminus.mouseout"/>
                        </use>
                        <path d="M-4,0h8" fill="none" stroke="white" stroke-width="1.5" pointer-events="none"/>
                </g>
                <g id="dirArrow">
                        <path fill="none" stroke="white" stroke-width="1.5" d="M0,-3.0v7 M-2.5,-0.5L0,-3.0L2.5,-0.5"/>
                </g>
               <g id="resetDef">
                       <use xlink:href="#rim2" fill="#404040">
                               <set attributeName="fill" to="#808080" begin="reset.mouseover" end="reset.mouseout"/>
                       </use>
               </g>
        </defs>

<script type="text/javascript">
var viewWidth = 1114;
var viewHeight = 521;
var sectionId = 'dynsection-8';
</script>
<script xlink:href="svgpan.js"/>
<svg id="graph" class="graph">
<g id="viewport">
<title>ladel_malloc</title>
<polygon fill="white" stroke="transparent" points="-4,4 -4,-517.04 1110,-517.04 1110,4 -4,4"/>
<!-- Node1 -->
<g id="node1" class="node">
<title>Node1</title>
<g id="a_node1"><a xlink:title="Version of malloc (for mex or for regular C).">
<polygon fill="#bfbfbf" stroke="black" points="1027,-120.5 1027,-139.5 1106,-139.5 1106,-120.5 1027,-120.5"/>
<text text-anchor="middle" x="1066.5" y="-127.5" font-family="Helvetica,sans-Serif" font-size="10.00">ladel_malloc</text>
</a>
</g>
</g>
<!-- Node2 -->
<g id="node2" class="node">
<title>Node2</title>
<g id="a_node2"><a xlink:href="ladel__global_8c.html#a968028b68306172d3fb202fb434624a6" target="_top" xlink:title="Allocate a factors struct.">
<polygon fill="white" stroke="black" points="354,-446.5 354,-465.5 473,-465.5 473,-446.5 354,-446.5"/>
<text text-anchor="middle" x="413.5" y="-453.5" font-family="Helvetica,sans-Serif" font-size="10.00">ladel_factor_allocate</text>
</a>
</g>
</g>
<!-- Node1&#45;&gt;Node2 -->
<g id="edge1" class="edge">
<title>Node1&#45;&gt;Node2</title>
<path fill="none" stroke="midnightblue" d="M1061.47,-149.72C1053.28,-185.93 1031.93,-264.18 991,-317 937.04,-386.63 911.43,-398.05 831,-434 699.44,-492.8 652.6,-484.07 509,-472 493.41,-470.69 476.53,-468.18 461.41,-465.54"/>
<polygon fill="midnightblue" stroke="midnightblue" points="1064.9,-150.41 1063.59,-139.9 1058.05,-148.93 1064.9,-150.41"/>
</g>
<!-- Node7 -->
<g id="node7" class="node">
<title>Node7</title>
<g id="a_node7"><a xlink:href="ladel__global_8c.html#a7c28f9d8aba3a477eb86d0e37084c504" target="_top" xlink:title="Allocate a set struct.">
<polygon fill="white" stroke="black" points="876.5,-38.5 876.5,-57.5 981.5,-57.5 981.5,-38.5 876.5,-38.5"/>
<text text-anchor="middle" x="929" y="-45.5" font-family="Helvetica,sans-Serif" font-size="10.00">ladel_set_allocate</text>
</a>
</g>
</g>
<!-- Node1&#45;&gt;Node7 -->
<g id="edge6" class="edge">
<title>Node1&#45;&gt;Node7</title>
<path fill="none" stroke="midnightblue" d="M1047.41,-113.5C1032.94,-100.92 1011.71,-83.81 991,-72 981.11,-66.36 969.64,-61.47 959.33,-57.6"/>
<polygon fill="midnightblue" stroke="midnightblue" points="1045.29,-116.3 1055.09,-120.31 1049.93,-111.06 1045.29,-116.3"/>
</g>
<!-- Node8 -->
<g id="node8" class="node">
<title>Node8</title>
<g id="a_node8"><a xlink:href="ladel__global_8c.html#a960504daceae6c5129487e2bd2573c94" target="_top" xlink:title="Allocate a LADEL workspace.">
<polygon fill="white" stroke="black" points="688,-16.5 688,-35.5 831,-35.5 831,-16.5 688,-16.5"/>
<text text-anchor="middle" x="759.5" y="-23.5" font-family="Helvetica,sans-Serif" font-size="10.00">ladel_workspace_allocate</text>
</a>
</g>
</g>
<!-- Node1&#45;&gt;Node8 -->
<g id="edge33" class="edge">
<title>Node1&#45;&gt;Node8</title>
<path fill="none" stroke="midnightblue" d="M1026.44,-117.36C1015.02,-113.68 1002.52,-109.67 991,-106 935.95,-88.48 919.59,-90.91 867,-67 849.93,-59.24 848.23,-52.4 831,-45 822.38,-41.3 812.86,-38.15 803.67,-35.54"/>
<polygon fill="midnightblue" stroke="midnightblue" points="1025.55,-120.75 1036.15,-120.49 1027.7,-114.09 1025.55,-120.75"/>
</g>
<!-- Node9 -->
<g id="node9" class="node">
<title>Node9</title>
<g id="a_node9"><a xlink:href="ladel__global_8c.html#a6e485045ec098c0b5a9afe07875a1e59" target="_top" xlink:title="Allocate a sparse matrix.">
<polygon fill="white" stroke="black" points="875.5,-210.5 875.5,-229.5 982.5,-229.5 982.5,-210.5 875.5,-210.5"/>
<text text-anchor="middle" x="929" y="-217.5" font-family="Helvetica,sans-Serif" font-size="10.00">ladel_sparse_alloc</text>
</a>
</g>
</g>
<!-- Node1&#45;&gt;Node9 -->
<g id="edge8" class="edge">
<title>Node1&#45;&gt;Node9</title>
<path fill="none" stroke="midnightblue" d="M1042.6,-145.21C1014.54,-163.85 967.86,-194.85 944.4,-210.44"/>
<polygon fill="midnightblue" stroke="midnightblue" points="1044.61,-148.08 1051,-139.63 1040.73,-142.25 1044.61,-148.08"/>
</g>
<!-- Node21 -->
<g id="node21" class="node">
<title>Node21</title>
<g id="a_node21"><a xlink:href="ladel__transpose_8c.html#a8b00613708b897c9dbcd292dc9b89ed8" target="_top" xlink:title="Returns the transpose of a matrix, that is .">
<polygon fill="white" stroke="black" points="712.5,-405.5 712.5,-424.5 806.5,-424.5 806.5,-405.5 712.5,-405.5"/>
<text text-anchor="middle" x="759.5" y="-412.5" font-family="Helvetica,sans-Serif" font-size="10.00">ladel_transpose</text>
</a>
</g>
</g>
<!-- Node1&#45;&gt;Node21 -->
<g id="edge32" class="edge">
<title>Node1&#45;&gt;Node21</title>
<path fill="none" stroke="midnightblue" d="M1054.57,-148.35C1025.03,-196.27 938.53,-325.97 831,-391 821.04,-397.02 809.37,-401.78 798.43,-405.41"/>
<polygon fill="midnightblue" stroke="midnightblue" points="1057.65,-150.02 1059.85,-139.65 1051.67,-146.38 1057.65,-150.02"/>
</g>
<!-- Node25 -->
<g id="node25" class="node">
<title>Node25</title>
<g id="a_node25"><a xlink:href="ladel__global_8c.html#a938486f5d2d4aee4858a50c0c3767490" target="_top" xlink:title="Allocate a sparse empty matrix (used in special cases).">
<polygon fill="white" stroke="black" points="875.5,-115 875.5,-145 982.5,-145 982.5,-115 875.5,-115"/>
<text text-anchor="start" x="883.5" y="-133" font-family="Helvetica,sans-Serif" font-size="10.00">ladel_sparse_alloc</text>
<text text-anchor="middle" x="929" y="-122" font-family="Helvetica,sans-Serif" font-size="10.00">_empty</text>
</a>
</g>
</g>
<!-- Node1&#45;&gt;Node25 -->
<g id="edge29" class="edge">
<title>Node1&#45;&gt;Node25</title>
<path fill="none" stroke="midnightblue" d="M1016.43,-130C1005.48,-130 993.82,-130 982.72,-130"/>
<polygon fill="midnightblue" stroke="midnightblue" points="1016.67,-133.5 1026.67,-130 1016.67,-126.5 1016.67,-133.5"/>
</g>
<!-- Node26 -->
<g id="node26" class="node">
<title>Node26</title>
<g id="a_node26"><a xlink:href="ladel__global_8c.html#a78d3509d86fdd40fdeb7aab29994251a" target="_top" xlink:title="Allocate a symbolics struct.">
<polygon fill="white" stroke="black" points="867,-0.5 867,-19.5 991,-19.5 991,-0.5 867,-0.5"/>
<text text-anchor="middle" x="929" y="-7.5" font-family="Helvetica,sans-Serif" font-size="10.00">ladel_symbolics_alloc</text>
</a>
</g>
</g>
<!-- Node1&#45;&gt;Node26 -->
<g id="edge31" class="edge">
<title>Node1&#45;&gt;Node26</title>
<path fill="none" stroke="midnightblue" d="M1056.48,-111.38C1044.56,-88.68 1021.46,-50.68 991,-29 985.58,-25.14 979.35,-22.05 972.98,-19.57"/>
<polygon fill="midnightblue" stroke="midnightblue" points="1053.38,-113.01 1061.02,-120.35 1059.63,-109.84 1053.38,-113.01"/>
</g>
<!-- Node3 -->
<g id="node3" class="node">
<title>Node3</title>
<g id="a_node3"><a xlink:href="group__grp-solver.html#gaff676fbf1dd6dbf8096c5349d264297f" target="_top" xlink:title="Computes the &#160;factorization of &#160;but allocates based on Mbasis.">
<polygon fill="white" stroke="black" points="177,-398 177,-428 318,-428 318,-398 177,-398"/>
<text text-anchor="start" x="185" y="-416" font-family="Helvetica,sans-Serif" font-size="10.00">ladel_factorize_advanced</text>
<text text-anchor="middle" x="247.5" y="-405" font-family="Helvetica,sans-Serif" font-size="10.00">_with_diag</text>
</a>
</g>
</g>
<!-- Node2&#45;&gt;Node3 -->
<g id="edge2" class="edge">
<title>Node2&#45;&gt;Node3</title>
<path fill="none" stroke="midnightblue" d="M366.29,-443.88C347.48,-438.95 325.54,-433.2 305.73,-428.01"/>
<polygon fill="midnightblue" stroke="midnightblue" points="365.54,-447.31 376.1,-446.46 367.32,-440.54 365.54,-447.31"/>
</g>
<!-- Node5 -->
<g id="node5" class="node">
<title>Node5</title>
<g id="a_node5"><a xlink:href="group__grp-solver.html#ga129ea878837012c6ac76fb6046bc9449" target="_top" xlink:title="Computes the &#160;factorization of .">
<polygon fill="white" stroke="black" points="177,-447.5 177,-466.5 318,-466.5 318,-447.5 177,-447.5"/>
<text text-anchor="middle" x="247.5" y="-454.5" font-family="Helvetica,sans-Serif" font-size="10.00">ladel_factorize_with_diag</text>
</a>
</g>
</g>
<!-- Node2&#45;&gt;Node5 -->
<g id="edge4" class="edge">
<title>Node2&#45;&gt;Node5</title>
<path fill="none" stroke="midnightblue" d="M343.57,-456.42C335.12,-456.47 326.48,-456.52 318.02,-456.58"/>
<polygon fill="midnightblue" stroke="midnightblue" points="343.78,-459.92 353.76,-456.36 343.73,-452.92 343.78,-459.92"/>
</g>
<!-- Node4 -->
<g id="node4" class="node">
<title>Node4</title>
<g id="a_node4"><a xlink:href="group__grp-solver.html#gac217d5bb50524bf6bbc0e7fa473edcfb" target="_top" xlink:title="Computes the &#160;factorization of &#160;but allocates based on Mbasis.">
<polygon fill="white" stroke="black" points="0,-403.5 0,-422.5 141,-422.5 141,-403.5 0,-403.5"/>
<text text-anchor="middle" x="70.5" y="-410.5" font-family="Helvetica,sans-Serif" font-size="10.00">ladel_factorize_advanced</text>
</a>
</g>
</g>
<!-- Node3&#45;&gt;Node4 -->
<g id="edge3" class="edge">
<title>Node3&#45;&gt;Node4</title>
<path fill="none" stroke="midnightblue" d="M166.58,-413C158.11,-413 149.55,-413 141.21,-413"/>
<polygon fill="midnightblue" stroke="midnightblue" points="166.83,-416.5 176.83,-413 166.83,-409.5 166.83,-416.5"/>
</g>
<!-- Node6 -->
<g id="node6" class="node">
<title>Node6</title>
<g id="a_node6"><a xlink:href="group__grp-solver.html#ga6167c294e588fe34776d40e53c6ddbc9" target="_top" xlink:title="Computes the &#160;factorization of .">
<polygon fill="white" stroke="black" points="26,-447.5 26,-466.5 115,-466.5 115,-447.5 26,-447.5"/>
<text text-anchor="middle" x="70.5" y="-454.5" font-family="Helvetica,sans-Serif" font-size="10.00">ladel_factorize</text>
</a>
</g>
</g>
<!-- Node5&#45;&gt;Node6 -->
<g id="edge5" class="edge">
<title>Node5&#45;&gt;Node6</title>
<path fill="none" stroke="midnightblue" d="M166.51,-457C148.87,-457 130.82,-457 115.25,-457"/>
<polygon fill="midnightblue" stroke="midnightblue" points="166.83,-460.5 176.83,-457 166.83,-453.5 166.83,-460.5"/>
</g>
<!-- Node7&#45;&gt;Node8 -->
<g id="edge7" class="edge">
<title>Node7&#45;&gt;Node8</title>
<path fill="none" stroke="midnightblue" d="M866.44,-39.91C854.93,-38.4 842.81,-36.81 831.05,-35.27"/>
<polygon fill="midnightblue" stroke="midnightblue" points="866.01,-43.39 876.38,-41.22 866.92,-36.45 866.01,-43.39"/>
</g>
<!-- Node9&#45;&gt;Node2 -->
<g id="edge13" class="edge">
<title>Node9&#45;&gt;Node2</title>
<path fill="none" stroke="midnightblue" d="M873.19,-234.33C871,-235.74 868.93,-237.29 867,-239 837.81,-264.85 861.04,-294.14 831,-319 717.64,-412.82 636.43,-322.43 509,-396 488.85,-407.63 492.38,-421.13 473,-434 465.32,-439.1 456.29,-443.24 447.65,-446.49"/>
<polygon fill="midnightblue" stroke="midnightblue" points="874.92,-237.37 882.06,-229.54 871.6,-231.21 874.92,-237.37"/>
</g>
<!-- Node9&#45;&gt;Node3 -->
<g id="edge14" class="edge">
<title>Node9&#45;&gt;Node3</title>
<path fill="none" stroke="midnightblue" d="M902.27,-205.56C883.06,-195.21 855.94,-181.47 831,-172 769.41,-148.62 742.31,-170.29 688,-133 665.72,-117.7 676.11,-96.2 652,-84 595.3,-55.3 566.21,-56.32 509,-84 366.02,-153.16 277.65,-343.11 254.56,-397.98"/>
<polygon fill="midnightblue" stroke="midnightblue" points="900.82,-208.76 911.28,-210.48 904.18,-202.61 900.82,-208.76"/>
</g>
<!-- Node9&#45;&gt;Node5 -->
<g id="edge15" class="edge">
<title>Node9&#45;&gt;Node5</title>
<path fill="none" stroke="midnightblue" d="M925.15,-239.41C917.83,-281.83 894.32,-383.08 831,-434 662.6,-569.4 369.94,-494.95 277.41,-466.5"/>
<polygon fill="midnightblue" stroke="midnightblue" points="928.6,-239.95 926.74,-229.52 921.69,-238.84 928.6,-239.95"/>
</g>
<!-- Node10 -->
<g id="node10" class="node">
<title>Node10</title>
<g id="a_node10"><a xlink:href="ladel__add_8c.html#a758b63f39a12a53be24928cfd71f0bfe" target="_top" xlink:title="Returns a sparse matrix &#160;if values==TRUE, or a pattern matrix that includes the patterns of A and B i...">
<polygon fill="white" stroke="black" points="703.5,-279 703.5,-309 815.5,-309 815.5,-279 703.5,-279"/>
<text text-anchor="start" x="711.5" y="-297" font-family="Helvetica,sans-Serif" font-size="10.00">ladel_add_matrices</text>
<text text-anchor="middle" x="759.5" y="-286" font-family="Helvetica,sans-Serif" font-size="10.00">_advanced</text>
</a>
</g>
</g>
<!-- Node9&#45;&gt;Node10 -->
<g id="edge9" class="edge">
<title>Node9&#45;&gt;Node10</title>
<path fill="none" stroke="midnightblue" d="M902.42,-234.51C883.15,-245.11 855.87,-259.42 831,-270 823.62,-273.14 815.68,-276.16 807.89,-278.95"/>
<polygon fill="midnightblue" stroke="midnightblue" points="904.15,-237.55 911.19,-229.63 900.75,-231.43 904.15,-237.55"/>
</g>
<!-- Node13 -->
<g id="node13" class="node">
<title>Node13</title>
<g id="a_node13"><a xlink:href="ladel__submatrix_8c.html#a147c31941734d0ae3fcd28c800051322" target="_top" xlink:title="Returns a matrix that is a selection of columns of M, that is .">
<polygon fill="white" stroke="black" points="691,-54.5 691,-73.5 828,-73.5 828,-54.5 691,-54.5"/>
<text text-anchor="middle" x="759.5" y="-61.5" font-family="Helvetica,sans-Serif" font-size="10.00">ladel_column_submatrix</text>
</a>
</g>
</g>
<!-- Node9&#45;&gt;Node13 -->
<g id="edge12" class="edge">
<title>Node9&#45;&gt;Node13</title>
<path fill="none" stroke="midnightblue" d="M909.65,-203.19C896.71,-190.72 879.51,-172.84 867,-155 846.69,-126.03 858.31,-106.49 831,-84 825.7,-79.63 819.49,-76.22 813.01,-73.55"/>
<polygon fill="midnightblue" stroke="midnightblue" points="907.41,-205.89 917.09,-210.22 912.22,-200.8 907.41,-205.89"/>
</g>
<!-- Node14 -->
<g id="node14" class="node">
<title>Node14</title>
<g id="a_node14"><a xlink:href="group__grp-solver.html#gabb81f3223c3ab1794fd472276be8fba6" target="_top" xlink:title="Computes the &#160;factorization of &#160;provided LD was allocated before.">
<polygon fill="white" stroke="black" points="695.5,-230 695.5,-260 823.5,-260 823.5,-230 695.5,-230"/>
<text text-anchor="start" x="703.5" y="-248" font-family="Helvetica,sans-Serif" font-size="10.00">ladel_factorize_with</text>
<text text-anchor="middle" x="759.5" y="-237" font-family="Helvetica,sans-Serif" font-size="10.00">_prior_basis_with_diag</text>
</a>
</g>
</g>
<!-- Node9&#45;&gt;Node14 -->
<g id="edge16" class="edge">
<title>Node9&#45;&gt;Node14</title>
<path fill="none" stroke="midnightblue" d="M865.26,-229.36C851.68,-231.39 837.32,-233.53 823.72,-235.56"/>
<polygon fill="midnightblue" stroke="midnightblue" points="866.09,-232.78 875.46,-227.84 865.05,-225.86 866.09,-232.78"/>
</g>
<!-- Node16 -->
<g id="node16" class="node">
<title>Node16</title>
<g id="a_node16"><a xlink:href="ladel__matmat_8c.html#aa0dc5e49d5b89cd8756da8d19c19fffa" target="_top" xlink:title="Core mat_mat_transpose function with all options (diag and value/pattern).">
<polygon fill="white" stroke="black" points="688,-181 688,-211 831,-211 831,-181 688,-181"/>
<text text-anchor="start" x="696" y="-199" font-family="Helvetica,sans-Serif" font-size="10.00">ladel_mat_mat_transpose</text>
<text text-anchor="middle" x="759.5" y="-188" font-family="Helvetica,sans-Serif" font-size="10.00">_advanced</text>
</a>
</g>
</g>
<!-- Node9&#45;&gt;Node16 -->
<g id="edge18" class="edge">
<title>Node9&#45;&gt;Node16</title>
<path fill="none" stroke="midnightblue" d="M865.41,-211.03C854.28,-209.44 842.62,-207.77 831.28,-206.14"/>
<polygon fill="midnightblue" stroke="midnightblue" points="865.07,-214.52 875.46,-212.47 866.06,-207.59 865.07,-214.52"/>
</g>
<!-- Node20 -->
<g id="node20" class="node">
<title>Node20</title>
<g id="a_node20"><a xlink:href="ladel__copy_8c.html#a3a4d205bb1f55b7059ad6b82a18fb856" target="_top" xlink:title="Copies a matrix into a newly allocated one.">
<polygon fill="white" stroke="black" points="698.5,-93 698.5,-123 820.5,-123 820.5,-93 698.5,-93"/>
<text text-anchor="start" x="706.5" y="-111" font-family="Helvetica,sans-Serif" font-size="10.00">ladel_sparse_allocate</text>
<text text-anchor="middle" x="759.5" y="-100" font-family="Helvetica,sans-Serif" font-size="10.00">_and_copy</text>
</a>
</g>
</g>
<!-- Node9&#45;&gt;Node20 -->
<g id="edge22" class="edge">
<title>Node9&#45;&gt;Node20</title>
<path fill="none" stroke="midnightblue" d="M911.27,-203.11C892.85,-185.2 861.75,-156.94 831,-138 821.94,-132.42 811.66,-127.4 801.8,-123.13"/>
<polygon fill="midnightblue" stroke="midnightblue" points="909,-205.79 918.58,-210.32 913.92,-200.8 909,-205.79"/>
</g>
<!-- Node9&#45;&gt;Node21 -->
<g id="edge23" class="edge">
<title>Node9&#45;&gt;Node21</title>
<path fill="none" stroke="midnightblue" d="M914.53,-238.11C901.5,-256.08 881.62,-284.66 867,-311 848.08,-345.09 859.84,-364.77 831,-391 824.02,-397.35 815.28,-402.03 806.37,-405.48"/>
<polygon fill="midnightblue" stroke="midnightblue" points="917.57,-239.89 920.66,-229.75 911.93,-235.75 917.57,-239.89"/>
</g>
<!-- Node11 -->
<g id="node11" class="node">
<title>Node11</title>
<g id="a_node11"><a xlink:href="ladel__add_8c.html#a829807555e76a1861cd43a87d1d86efe" target="_top" xlink:title="Returns a sparse matrix .">
<polygon fill="white" stroke="black" points="524.5,-279.5 524.5,-298.5 636.5,-298.5 636.5,-279.5 524.5,-279.5"/>
<text text-anchor="middle" x="580.5" y="-286.5" font-family="Helvetica,sans-Serif" font-size="10.00">ladel_add_matrices</text>
</a>
</g>
</g>
<!-- Node10&#45;&gt;Node11 -->
<g id="edge10" class="edge">
<title>Node10&#45;&gt;Node11</title>
<path fill="none" stroke="midnightblue" d="M693.33,-292.16C674.76,-291.63 654.72,-291.07 636.8,-290.56"/>
<polygon fill="midnightblue" stroke="midnightblue" points="693.37,-295.66 703.47,-292.45 693.57,-288.66 693.37,-295.66"/>
</g>
<!-- Node12 -->
<g id="node12" class="node">
<title>Node12</title>
<g id="a_node12"><a xlink:href="ladel__add_8c.html#a1322dd7713c9d04b74ddc1927e94f28a" target="_top" xlink:title="Returns a pattern matrix whose pattern includes the patterns of A and B.">
<polygon fill="white" stroke="black" points="524.5,-318 524.5,-348 636.5,-348 636.5,-318 524.5,-318"/>
<text text-anchor="start" x="532.5" y="-336" font-family="Helvetica,sans-Serif" font-size="10.00">ladel_add_matrices</text>
<text text-anchor="middle" x="580.5" y="-325" font-family="Helvetica,sans-Serif" font-size="10.00">_pattern</text>
</a>
</g>
</g>
<!-- Node10&#45;&gt;Node12 -->
<g id="edge11" class="edge">
<title>Node10&#45;&gt;Node12</title>
<path fill="none" stroke="midnightblue" d="M693.58,-308.3C674.95,-312.41 654.8,-316.85 636.8,-320.81"/>
<polygon fill="midnightblue" stroke="midnightblue" points="694.45,-311.7 703.47,-306.13 692.95,-304.86 694.45,-311.7"/>
</g>
<!-- Node15 -->
<g id="node15" class="node">
<title>Node15</title>
<g id="a_node15"><a xlink:href="group__grp-solver.html#ga90783633564102ca42816a7d23eca63b" target="_top" xlink:title="Computes the &#160;factorization of &#160;provided LD was allocated before.">
<polygon fill="white" stroke="black" points="523,-230 523,-260 638,-260 638,-230 523,-230"/>
<text text-anchor="start" x="531" y="-248" font-family="Helvetica,sans-Serif" font-size="10.00">ladel_factorize_with</text>
<text text-anchor="middle" x="580.5" y="-237" font-family="Helvetica,sans-Serif" font-size="10.00">_prior_basis</text>
</a>
</g>
</g>
<!-- Node14&#45;&gt;Node15 -->
<g id="edge17" class="edge">
<title>Node14&#45;&gt;Node15</title>
<path fill="none" stroke="midnightblue" d="M684.97,-245C669.37,-245 653.14,-245 638.28,-245"/>
<polygon fill="midnightblue" stroke="midnightblue" points="685.1,-248.5 695.1,-245 685.1,-241.5 685.1,-248.5"/>
</g>
<!-- Node17 -->
<g id="node17" class="node">
<title>Node17</title>
<g id="a_node17"><a xlink:href="ladel__matmat_8c.html#aeb2ea434d4c66863f8814d3c5a6ce97a" target="_top" xlink:title="Computes .">
<polygon fill="white" stroke="black" points="522.5,-181 522.5,-211 638.5,-211 638.5,-181 522.5,-181"/>
<text text-anchor="start" x="530.5" y="-199" font-family="Helvetica,sans-Serif" font-size="10.00">ladel_mat_diag_mat</text>
<text text-anchor="middle" x="580.5" y="-188" font-family="Helvetica,sans-Serif" font-size="10.00">_transpose</text>
</a>
</g>
</g>
<!-- Node16&#45;&gt;Node17 -->
<g id="edge19" class="edge">
<title>Node16&#45;&gt;Node17</title>
<path fill="none" stroke="midnightblue" d="M677.72,-196C664.48,-196 651.01,-196 638.5,-196"/>
<polygon fill="midnightblue" stroke="midnightblue" points="677.78,-199.5 687.78,-196 677.78,-192.5 677.78,-199.5"/>
</g>
<!-- Node18 -->
<g id="node18" class="node">
<title>Node18</title>
<g id="a_node18"><a xlink:href="ladel__matmat_8c.html#a9d9a01b808baba381deeab28e25b41e0" target="_top" xlink:title="Computes .">
<polygon fill="white" stroke="black" points="509,-142.5 509,-161.5 652,-161.5 652,-142.5 509,-142.5"/>
<text text-anchor="middle" x="580.5" y="-149.5" font-family="Helvetica,sans-Serif" font-size="10.00">ladel_mat_mat_transpose</text>
</a>
</g>
</g>
<!-- Node16&#45;&gt;Node18 -->
<g id="edge20" class="edge">
<title>Node16&#45;&gt;Node18</title>
<path fill="none" stroke="midnightblue" d="M688.21,-178.53C664.87,-172.72 639.76,-166.48 619.77,-161.51"/>
<polygon fill="midnightblue" stroke="midnightblue" points="687.53,-181.96 698.08,-180.98 689.22,-175.17 687.53,-181.96"/>
</g>
<!-- Node19 -->
<g id="node19" class="node">
<title>Node19</title>
<g id="a_node19"><a xlink:href="ladel__matmat_8c.html#a0b1d696c23cec68f53fe76f6db607572" target="_top" xlink:title="Computes the pattern of .">
<polygon fill="white" stroke="black" points="509,-93 509,-123 652,-123 652,-93 509,-93"/>
<text text-anchor="start" x="517" y="-111" font-family="Helvetica,sans-Serif" font-size="10.00">ladel_mat_mat_transpose</text>
<text text-anchor="middle" x="580.5" y="-100" font-family="Helvetica,sans-Serif" font-size="10.00">_pattern</text>
</a>
</g>
</g>
<!-- Node16&#45;&gt;Node19 -->
<g id="edge21" class="edge">
<title>Node16&#45;&gt;Node19</title>
<path fill="none" stroke="midnightblue" d="M707.48,-176.76C700.74,-173.51 694.07,-169.91 688,-166 669.75,-154.25 670.6,-144.18 652,-133 645.77,-129.25 638.89,-125.95 631.94,-123.07"/>
<polygon fill="midnightblue" stroke="midnightblue" points="706.12,-179.99 716.67,-180.97 709.03,-173.62 706.12,-179.99"/>
</g>
<!-- Node22 -->
<g id="node22" class="node">
<title>Node22</title>
<g id="a_node22"><a xlink:href="ladel__col__counts_8c.html#aa7284697012b8c3de4cece3e31915488" target="_top" xlink:title="Computes the column counts of the factor.">
<polygon fill="white" stroke="black" points="531.5,-405.5 531.5,-424.5 629.5,-424.5 629.5,-405.5 531.5,-405.5"/>
<text text-anchor="middle" x="580.5" y="-412.5" font-family="Helvetica,sans-Serif" font-size="10.00">ladel_col_counts</text>
</a>
</g>
</g>
<!-- Node21&#45;&gt;Node22 -->
<g id="edge24" class="edge">
<title>Node21&#45;&gt;Node22</title>
<path fill="none" stroke="midnightblue" d="M702.35,-415C679.02,-415 652.22,-415 629.79,-415"/>
<polygon fill="midnightblue" stroke="midnightblue" points="702.46,-418.5 712.46,-415 702.46,-411.5 702.46,-418.5"/>
</g>
<!-- Node24 -->
<g id="node24" class="node">
<title>Node24</title>
<g id="a_node24"><a xlink:href="ladel__upper__diag_8c.html#a7a4946c49cace1648ec43ab05e35b8e6" target="_top" xlink:title="Return , that is the upper diagonal elements of M.">
<polygon fill="white" stroke="black" points="523,-443.5 523,-462.5 638,-462.5 638,-443.5 523,-443.5"/>
<text text-anchor="middle" x="580.5" y="-450.5" font-family="Helvetica,sans-Serif" font-size="10.00">ladel_to_upper_diag</text>
</a>
</g>
</g>
<!-- Node21&#45;&gt;Node24 -->
<g id="edge28" class="edge">
<title>Node21&#45;&gt;Node24</title>
<path fill="none" stroke="midnightblue" d="M703.76,-426.75C678.73,-432.13 649.47,-438.41 625.84,-443.48"/>
<polygon fill="midnightblue" stroke="midnightblue" points="704.79,-430.11 713.84,-424.59 703.32,-423.27 704.79,-430.11"/>
</g>
<!-- Node23 -->
<g id="node23" class="node">
<title>Node23</title>
<g id="a_node23"><a xlink:href="ladel__ldl__symbolic_8c.html#a919feee5783ed6d5ffaff8dff6546976" target="_top" xlink:title="Symbolic part of the factorization.">
<polygon fill="white" stroke="black" points="360,-405.5 360,-424.5 467,-424.5 467,-405.5 360,-405.5"/>
<text text-anchor="middle" x="413.5" y="-412.5" font-family="Helvetica,sans-Serif" font-size="10.00">ladel_ldl_symbolic</text>
</a>
</g>
</g>
<!-- Node22&#45;&gt;Node23 -->
<g id="edge25" class="edge">
<title>Node22&#45;&gt;Node23</title>
<path fill="none" stroke="midnightblue" d="M521.16,-415C503.53,-415 484.29,-415 467.06,-415"/>
<polygon fill="midnightblue" stroke="midnightblue" points="521.33,-418.5 531.33,-415 521.33,-411.5 521.33,-418.5"/>
</g>
<!-- Node23&#45;&gt;Node3 -->
<g id="edge26" class="edge">
<title>Node23&#45;&gt;Node3</title>
<path fill="none" stroke="midnightblue" d="M349.61,-414.23C339.35,-414.11 328.67,-413.98 318.25,-413.85"/>
<polygon fill="midnightblue" stroke="midnightblue" points="349.66,-417.73 359.71,-414.36 349.75,-410.73 349.66,-417.73"/>
</g>
<!-- Node23&#45;&gt;Node5 -->
<g id="edge27" class="edge">
<title>Node23&#45;&gt;Node5</title>
<path fill="none" stroke="midnightblue" d="M365.53,-427.03C340.25,-433.5 309.49,-441.38 285.85,-447.43"/>
<polygon fill="midnightblue" stroke="midnightblue" points="366.47,-430.4 375.29,-424.53 364.73,-423.62 366.47,-430.4"/>
</g>
<!-- Node25&#45;&gt;Node13 -->
<g id="edge30" class="edge">
<title>Node25&#45;&gt;Node13</title>
<path fill="none" stroke="midnightblue" d="M888.63,-110.52C866.99,-99.97 842.3,-88.25 831,-84 820.64,-80.1 809.18,-76.55 798.56,-73.55"/>
<polygon fill="midnightblue" stroke="midnightblue" points="887.15,-113.69 897.67,-114.94 890.22,-107.4 887.15,-113.69"/>
</g>
</g>
</svg>
        <g id="navigator" transform="translate(0 0)" fill="#404254">
                <rect fill="#f2f5e9" fill-opacity="0.5" stroke="#606060" stroke-width=".5" x="0" y="0" width="60" height="60"/>
                <use id="zoomplus" xlink:href="#zoomPlus" x="17" y="9" onmousedown="handleZoom(evt,'in')"/>
                <use id="zoomminus" xlink:href="#zoomMin" x="42" y="9" onmousedown="handleZoom(evt,'out')"/>
                <use id="reset" xlink:href="#resetDef" x="30" y="36" onmousedown="handleReset()"/>
                <g id="arrowUp" xlink:href="#dirArrow" transform="translate(30 24)" onmousedown="handlePan(0,-1)">
                  <use xlink:href="#rim" fill="#404040">
                        <set attributeName="fill" to="#808080" begin="arrowUp.mouseover" end="arrowUp.mouseout"/>
                  </use>
                  <path fill="none" stroke="white" stroke-width="1.5" d="M0,-3.0v7 M-2.5,-0.5L0,-3.0L2.5,-0.5"/>
                </g>
                <g id="arrowRight" xlink:href="#dirArrow" transform="rotate(90) translate(36 -43)" onmousedown="handlePan(1,0)">
                  <use xlink:href="#rim" fill="#404040">
                        <set attributeName="fill" to="#808080" begin="arrowRight.mouseover" end="arrowRight.mouseout"/>
                  </use>
                  <path fill="none" stroke="white" stroke-width="1.5" d="M0,-3.0v7 M-2.5,-0.5L0,-3.0L2.5,-0.5"/>
                </g>
                <g id="arrowDown" xlink:href="#dirArrow" transform="rotate(180) translate(-30 -48)" onmousedown="handlePan(0,1)">
                  <use xlink:href="#rim" fill="#404040">
                        <set attributeName="fill" to="#808080" begin="arrowDown.mouseover" end="arrowDown.mouseout"/>
                  </use>
                  <path fill="none" stroke="white" stroke-width="1.5" d="M0,-3.0v7 M-2.5,-0.5L0,-3.0L2.5,-0.5"/>
                </g>
                <g id="arrowLeft" xlink:href="#dirArrow" transform="rotate(270) translate(-36 17)" onmousedown="handlePan(-1,0)">
                  <use xlink:href="#rim" fill="#404040">
                        <set attributeName="fill" to="#808080" begin="arrowLeft.mouseover" end="arrowLeft.mouseout"/>
                  </use>
                  <path fill="none" stroke="white" stroke-width="1.5" d="M0,-3.0v7 M-2.5,-0.5L0,-3.0L2.5,-0.5"/>
                </g>
        </g>
        <svg viewBox="0 0 15 15" width="100%" height="30px" preserveAspectRatio="xMaxYMin meet">
         <g id="arrow_out" transform="scale(0.3 0.3)">
          <a xlink:href="ladel__global_8h_a86142b1e820a5de1deea8ee656186245_icgraph_org.svg" target="_base">
           <rect id="button" ry="5" rx="5" y="6" x="6" height="38" width="38"
                fill="#f2f5e9" fill-opacity="0.5" stroke="#606060" stroke-width="1.0"/>
           <path id="arrow"
             d="M 11.500037,31.436501 C 11.940474,20.09759 22.043105,11.32322 32.158766,21.979434 L 37.068811,17.246167 C 37.068811,17.246167 37.088388,32 37.088388,32 L 22.160133,31.978069 C 22.160133,31.978069 26.997745,27.140456 26.997745,27.140456 C 18.528582,18.264221 13.291696,25.230495 11.500037,31.436501 z"
             style="fill:#404040;"/>
          </a>
         </g>
        </svg>
</svg>
