<?xml version="1.0" encoding="UTF-8" standalone="no"?>
<!DOCTYPE svg PUBLIC "-//W3C//DTD SVG 1.1//EN"
 "http://www.w3.org/Graphics/SVG/1.1/DTD/svg11.dtd">
<!-- Generated by graphviz version 2.43.0 (0)
 -->
<!-- Title: ladel_set_union Pages: 1 -->
<svg width="558pt" height="116pt"
 viewBox="0.00 0.00 558.00 115.50" xmlns="http://www.w3.org/2000/svg" xmlns:xlink="http://www.w3.org/1999/xlink">
<g id="graph0" class="graph" transform="scale(1 1) rotate(0) translate(4 111.5)">
<title>ladel_set_union</title>
<polygon fill="white" stroke="transparent" points="-4,4 -4,-111.5 554,-111.5 554,4 -4,4"/>
<!-- Node1 -->
<g id="node1" class="node">
<title>Node1</title>
<g id="a_node1"><a xlink:title="Computes the set union of two index sets.">
<polygon fill="#bfbfbf" stroke="black" points="457,-38.5 457,-57.5 550,-57.5 550,-38.5 457,-38.5"/>
<text text-anchor="middle" x="503.5" y="-45.5" font-family="Helvetica,sans-Serif" font-size="10.00">ladel_set_union</text>
</a>
</g>
</g>
<!-- Node2 -->
<g id="node2" class="node">
<title>Node2</title>
<g id="a_node2"><a xlink:href="ladel__rank1__mod_8c.html#a21b039a6b3019677779a31f14b3d8085" target="_top" xlink:title="Adds the nonzero pattern in set to the pattern of the col of L.">
<polygon fill="white" stroke="black" points="272,-77 272,-107 421,-107 421,-77 272,-77"/>
<text text-anchor="start" x="280" y="-95" font-family="Helvetica,sans-Serif" font-size="10.00">ladel_add_nonzero_pattern</text>
<text text-anchor="middle" x="346.5" y="-84" font-family="Helvetica,sans-Serif" font-size="10.00">_to_col_of_L</text>
</a>
</g>
</g>
<!-- Node1&#45;&gt;Node2 -->
<g id="edge1" class="edge">
<title>Node1&#45;&gt;Node2</title>
<path fill="none" stroke="midnightblue" d="M459.13,-60.31C440.96,-65.47 419.66,-71.51 400.57,-76.93"/>
<polygon fill="midnightblue" stroke="midnightblue" points="460.2,-63.65 468.87,-57.55 458.29,-56.91 460.2,-63.65"/>
</g>
<!-- Node3 -->
<g id="node3" class="node">
<title>Node3</title>
<g id="a_node3"><a xlink:href="group__grp-solver.html#ga72047161adb30f5041b7e136eb77c023" target="_top" xlink:title="Updates an &#160;factorization.">
<polygon fill="white" stroke="black" points="123,-38.5 123,-57.5 236,-57.5 236,-38.5 123,-38.5"/>
<text text-anchor="middle" x="179.5" y="-45.5" font-family="Helvetica,sans-Serif" font-size="10.00">ladel_rank1_update</text>
</a>
</g>
</g>
<!-- Node1&#45;&gt;Node3 -->
<g id="edge5" class="edge">
<title>Node1&#45;&gt;Node3</title>
<path fill="none" stroke="midnightblue" d="M446.45,-48C387.41,-48 295.01,-48 236.13,-48"/>
<polygon fill="midnightblue" stroke="midnightblue" points="446.71,-51.5 456.71,-48 446.71,-44.5 446.71,-51.5"/>
</g>
<!-- Node4 -->
<g id="node4" class="node">
<title>Node4</title>
<g id="a_node4"><a xlink:href="group__grp-solver.html#ga113fd8ef702d93bd92314bd4bc118f24" target="_top" xlink:title="Updates an &#160;factorization.">
<polygon fill="white" stroke="black" points="0,-0.5 0,-19.5 87,-19.5 87,-0.5 0,-0.5"/>
<text text-anchor="middle" x="43.5" y="-7.5" font-family="Helvetica,sans-Serif" font-size="10.00">ladel_row_add</text>
</a>
</g>
</g>
<!-- Node1&#45;&gt;Node4 -->
<g id="edge6" class="edge">
<title>Node1&#45;&gt;Node4</title>
<path fill="none" stroke="midnightblue" d="M446.89,-43.39C354.29,-35.7 170.47,-20.45 87.23,-13.55"/>
<polygon fill="midnightblue" stroke="midnightblue" points="446.66,-46.88 456.91,-44.22 447.23,-39.9 446.66,-46.88"/>
</g>
<!-- Node2&#45;&gt;Node3 -->
<g id="edge2" class="edge">
<title>Node2&#45;&gt;Node3</title>
<path fill="none" stroke="midnightblue" d="M279.43,-74.38C257.92,-68.65 234.86,-62.5 216.42,-57.58"/>
<polygon fill="midnightblue" stroke="midnightblue" points="278.61,-77.79 289.18,-76.98 280.42,-71.02 278.61,-77.79"/>
</g>
<!-- Node3&#45;&gt;Node4 -->
<g id="edge3" class="edge">
<title>Node3&#45;&gt;Node4</title>
<path fill="none" stroke="midnightblue" d="M135.06,-35.68C116.65,-30.46 95.52,-24.47 78.3,-19.59"/>
<polygon fill="midnightblue" stroke="midnightblue" points="134.11,-39.05 144.69,-38.41 136.02,-32.32 134.11,-39.05"/>
</g>
<!-- Node5 -->
<g id="node5" class="node">
<title>Node5</title>
<g id="a_node5"><a xlink:href="group__grp-solver.html#ga2101ec64af1866138045cb1e35e35ca1" target="_top" xlink:title="Updates an &#160;factorization.">
<polygon fill="white" stroke="black" points="1.5,-38.5 1.5,-57.5 85.5,-57.5 85.5,-38.5 1.5,-38.5"/>
<text text-anchor="middle" x="43.5" y="-45.5" font-family="Helvetica,sans-Serif" font-size="10.00">ladel_row_del</text>
</a>
</g>
</g>
<!-- Node3&#45;&gt;Node5 -->
<g id="edge4" class="edge">
<title>Node3&#45;&gt;Node5</title>
<path fill="none" stroke="midnightblue" d="M112.61,-48C103.51,-48 94.38,-48 85.89,-48"/>
<polygon fill="midnightblue" stroke="midnightblue" points="112.84,-51.5 122.84,-48 112.84,-44.5 112.84,-51.5"/>
</g>
</g>
</svg>
