<?xml version="1.0" encoding="UTF-8" standalone="no"?>
<!DOCTYPE svg PUBLIC "-//W3C//DTD SVG 1.1//EN"
 "http://www.w3.org/Graphics/SVG/1.1/DTD/svg11.dtd">
<!-- Generated by graphviz version 2.43.0 (0)
 -->
<!-- Title: workspace Pages: 1 -->
<svg width="208pt" height="336pt"
 viewBox="0.00 0.00 208.00 336.00" xmlns="http://www.w3.org/2000/svg" xmlns:xlink="http://www.w3.org/1999/xlink">
<g id="graph0" class="graph" transform="scale(1 1) rotate(0) translate(4 332)">
<title>workspace</title>
<polygon fill="white" stroke="transparent" points="-4,4 -4,-332 204,-332 204,4 -4,4"/>
<!-- Node1 -->
<g id="node1" class="node">
<title>Node1</title>
<g id="a_node1"><a xlink:title="Workspace required for various routines in LADEL.">
<polygon fill="#bfbfbf" stroke="black" points="0,-0.5 0,-145.5 140,-145.5 140,-0.5 0,-0.5"/>
<text text-anchor="middle" x="70" y="-133.5" font-family="Helvetica,sans-Serif" font-size="10.00">workspace</text>
<polyline fill="none" stroke="black" points="0,-126.5 140,-126.5 "/>
<text text-anchor="start" x="8" y="-114.5" font-family="Helvetica,sans-Serif" font-size="10.00">+ array_int_ncol1</text>
<text text-anchor="start" x="8" y="-103.5" font-family="Helvetica,sans-Serif" font-size="10.00">+ array_int_ncol2</text>
<text text-anchor="start" x="8" y="-92.5" font-family="Helvetica,sans-Serif" font-size="10.00">+ array_int_ncol3</text>
<text text-anchor="start" x="8" y="-81.5" font-family="Helvetica,sans-Serif" font-size="10.00">+ array_int_ncol4</text>
<text text-anchor="start" x="8" y="-70.5" font-family="Helvetica,sans-Serif" font-size="10.00">+ array_int_ncol_flag</text>
<text text-anchor="start" x="8" y="-59.5" font-family="Helvetica,sans-Serif" font-size="10.00">+ flag</text>
<text text-anchor="start" x="8" y="-48.5" font-family="Helvetica,sans-Serif" font-size="10.00">+ array_double_all_zeros</text>
<text text-anchor="start" x="8" y="-37.5" font-family="Helvetica,sans-Serif" font-size="10.00">_ncol1</text>
<text text-anchor="start" x="8" y="-26.5" font-family="Helvetica,sans-Serif" font-size="10.00">+ array_double_ncol1</text>
<polyline fill="none" stroke="black" points="0,-19.5 140,-19.5 "/>
<text text-anchor="middle" x="70" y="-7.5" font-family="Helvetica,sans-Serif" font-size="10.00"> </text>
</a>
</g>
</g>
<!-- Node2 -->
<g id="node2" class="node">
<title>Node2</title>
<g id="a_node2"><a xlink:href="structladel__set__struct.html" target="_top" xlink:title="Set of integers.">
<polygon fill="white" stroke="black" points="22.5,-248.5 22.5,-327.5 117.5,-327.5 117.5,-248.5 22.5,-248.5"/>
<text text-anchor="middle" x="70" y="-315.5" font-family="Helvetica,sans-Serif" font-size="10.00">ladel_set_struct</text>
<polyline fill="none" stroke="black" points="22.5,-308.5 117.5,-308.5 "/>
<text text-anchor="start" x="30.5" y="-296.5" font-family="Helvetica,sans-Serif" font-size="10.00">+ set</text>
<text text-anchor="start" x="30.5" y="-285.5" font-family="Helvetica,sans-Serif" font-size="10.00">+ size_set</text>
<text text-anchor="start" x="30.5" y="-274.5" font-family="Helvetica,sans-Serif" font-size="10.00">+ max_size_set</text>
<polyline fill="none" stroke="black" points="22.5,-267.5 117.5,-267.5 "/>
<text text-anchor="middle" x="70" y="-255.5" font-family="Helvetica,sans-Serif" font-size="10.00"> </text>
</a>
</g>
</g>
<!-- Node2&#45;&gt;Node1 -->
<g id="edge1" class="edge">
<title>Node2&#45;&gt;Node1</title>
<path fill="none" stroke="#404040" d="M70,-248.43C70,-223.24 70,-189.35 70,-158.14"/>
<polygon fill="none" stroke="#404040" points="70,-157.88 66,-151.88 70,-145.88 74,-151.88 70,-157.88"/>
<text text-anchor="middle" x="135" y="-222" font-family="Helvetica,sans-Serif" font-size="10.00"> +set_preallocated1</text>
<text text-anchor="middle" x="135" y="-211" font-family="Helvetica,sans-Serif" font-size="10.00">+set_preallocated2</text>
<text text-anchor="middle" x="135" y="-200" font-family="Helvetica,sans-Serif" font-size="10.00">+set_preallocated3</text>
<text text-anchor="middle" x="135" y="-189" font-family="Helvetica,sans-Serif" font-size="10.00">+set_unallocated_values1</text>
<text text-anchor="middle" x="135" y="-178" font-family="Helvetica,sans-Serif" font-size="10.00">+set_unallocated_values2</text>
<text text-anchor="middle" x="135" y="-167" font-family="Helvetica,sans-Serif" font-size="10.00">+set_unallocated_values3</text>
</g>
</g>
</svg>
