<?xml version="1.0" encoding="UTF-8" standalone="no"?>
<!DOCTYPE svg PUBLIC "-//W3C//DTD SVG 1.1//EN"
 "http://www.w3.org/Graphics/SVG/1.1/DTD/svg11.dtd">
<!-- Generated by graphviz version 2.43.0 (0)
 -->
<!-- Title: ldl_factors Pages: 1 -->
<svg width="163pt" height="314pt"
 viewBox="0.00 0.00 163.00 314.00" xmlns="http://www.w3.org/2000/svg" xmlns:xlink="http://www.w3.org/1999/xlink">
<g id="graph0" class="graph" transform="scale(1 1) rotate(0) translate(4 310)">
<title>ldl_factors</title>
<polygon fill="white" stroke="transparent" points="-4,4 -4,-310 159,-310 159,4 -4,4"/>
<!-- Node1 -->
<g id="node1" class="node">
<title>Node1</title>
<g id="a_node1"><a xlink:title="Factors of an &#160;factorization.">
<polygon fill="#bfbfbf" stroke="black" points="43.5,-0.5 43.5,-101.5 111.5,-101.5 111.5,-0.5 43.5,-0.5"/>
<text text-anchor="middle" x="77.5" y="-89.5" font-family="Helvetica,sans-Serif" font-size="10.00">ldl_factors</text>
<polyline fill="none" stroke="black" points="43.5,-82.5 111.5,-82.5 "/>
<text text-anchor="start" x="51.5" y="-70.5" font-family="Helvetica,sans-Serif" font-size="10.00">+ ncol</text>
<text text-anchor="start" x="51.5" y="-59.5" font-family="Helvetica,sans-Serif" font-size="10.00">+ D</text>
<text text-anchor="start" x="51.5" y="-48.5" font-family="Helvetica,sans-Serif" font-size="10.00">+ Dinv</text>
<text text-anchor="start" x="51.5" y="-37.5" font-family="Helvetica,sans-Serif" font-size="10.00">+ p</text>
<text text-anchor="start" x="51.5" y="-26.5" font-family="Helvetica,sans-Serif" font-size="10.00">+ pinv</text>
<polyline fill="none" stroke="black" points="43.5,-19.5 111.5,-19.5 "/>
<text text-anchor="middle" x="77.5" y="-7.5" font-family="Helvetica,sans-Serif" font-size="10.00"> </text>
</a>
</g>
</g>
<!-- Node2 -->
<g id="node2" class="node">
<title>Node2</title>
<g id="a_node2"><a xlink:href="structcompressed__column__sparse__matrix.html" target="_top" xlink:title="Sparse matrix in compressed column storage.">
<polygon fill="white" stroke="black" points="0,-149.5 0,-305.5 155,-305.5 155,-149.5 0,-149.5"/>
<text text-anchor="start" x="8" y="-293.5" font-family="Helvetica,sans-Serif" font-size="10.00">compressed_column_sparse</text>
<text text-anchor="middle" x="77.5" y="-282.5" font-family="Helvetica,sans-Serif" font-size="10.00">_matrix</text>
<polyline fill="none" stroke="black" points="0,-275.5 155,-275.5 "/>
<text text-anchor="start" x="8" y="-263.5" font-family="Helvetica,sans-Serif" font-size="10.00">+ nzmax</text>
<text text-anchor="start" x="8" y="-252.5" font-family="Helvetica,sans-Serif" font-size="10.00">+ nrow</text>
<text text-anchor="start" x="8" y="-241.5" font-family="Helvetica,sans-Serif" font-size="10.00">+ ncol</text>
<text text-anchor="start" x="8" y="-230.5" font-family="Helvetica,sans-Serif" font-size="10.00">+ p</text>
<text text-anchor="start" x="8" y="-219.5" font-family="Helvetica,sans-Serif" font-size="10.00">+ i</text>
<text text-anchor="start" x="8" y="-208.5" font-family="Helvetica,sans-Serif" font-size="10.00">+ x</text>
<text text-anchor="start" x="8" y="-197.5" font-family="Helvetica,sans-Serif" font-size="10.00">+ nz</text>
<text text-anchor="start" x="8" y="-186.5" font-family="Helvetica,sans-Serif" font-size="10.00">+ values</text>
<text text-anchor="start" x="8" y="-175.5" font-family="Helvetica,sans-Serif" font-size="10.00">+ symmetry</text>
<polyline fill="none" stroke="black" points="0,-168.5 155,-168.5 "/>
<text text-anchor="middle" x="77.5" y="-156.5" font-family="Helvetica,sans-Serif" font-size="10.00"> </text>
</a>
</g>
</g>
<!-- Node2&#45;&gt;Node1 -->
<g id="edge1" class="edge">
<title>Node2&#45;&gt;Node1</title>
<path fill="none" stroke="#404040" d="M77.5,-149.45C77.5,-137.52 77.5,-125.33 77.5,-113.78"/>
<polygon fill="none" stroke="#404040" points="77.5,-113.56 73.5,-107.56 77.5,-101.56 81.5,-107.56 77.5,-113.56"/>
<text text-anchor="middle" x="86" y="-123" font-family="Helvetica,sans-Serif" font-size="10.00"> +L</text>
</g>
</g>
</svg>
